<svg id="Layer_1" data-name="Layer 1" xmlns="http://www.w3.org/2000/svg" viewBox="0 0 193.52 65.64"><defs><style>.cls-1{fill:none;stroke:#fff;stroke-width:1.2px;}</style></defs><title>ak</title><path class="cls-1" d="M48.53,57H27.29L24.14,66.6h-21L26.48,2.88h23L72.74,66.6H51.68ZM37.91,24.21,32.15,41.94H43.67Z" transform="translate(-2.32 -2.28)"/><path class="cls-1" d="M87.14,67.32C80,67.32,75.62,63,75.62,57.51s4.41-10,11.52-10,11.43,4.41,11.43,10S94.16,67.32,87.14,67.32Z" transform="translate(-2.32 -2.28)"/><path class="cls-1" d="M125.93,39V66.6H106V2.88h20V29.7L144.2,2.88h22.59l-22,30.51,23.4,33.21H144.47Z" transform="translate(-2.32 -2.28)"/><path class="cls-1" d="M183.8,67.32c-7.11,0-11.52-4.32-11.52-9.81s4.41-10,11.52-10,11.43,4.41,11.43,10S190.82,67.32,183.8,67.32Z" transform="translate(-2.32 -2.28)"/></svg>