<?xml version="1.0" encoding="utf-8"?>
<!-- Generator: Adobe Illustrator 24.0.1, SVG Export Plug-In . SVG Version: 6.00 Build 0)  -->
<svg version="1.1" id="Layer_1" xmlns="http://www.w3.org/2000/svg" xmlns:xlink="http://www.w3.org/1999/xlink" x="0px" y="0px"
	 viewBox="0 0 2000 2000" style="enable-background:new 0 0 2000 2000;" xml:space="preserve">
<style type="text/css">
	.st0{fill:#722FC1;}
	.st1{fill:#FCFCFC;stroke:#020202;stroke-width:4;stroke-miterlimit:10;}
	.st2{fill:#35AA3B;}
	.st3{fill:#9738F2;}
</style>
<title>belljar</title>
<g id="Layer_2_1_">
	<path class="st0" d="M1525.1,800c-0.3-0.1-0.6-0.1-0.9-0.1c-0.2-2.8-1.8-5.3-4.2-6.8c-1.1-2.2-2.4-4.4-3.9-6.4
		c-3.4-4.4-9.6-6.6-14.3-3.3c-1.3,0.9-2.1,2.5-2,4.2c-1.7,0-3.3,0.3-4.9,0.9c-5.2,2.3-8.6,7.8-9.8,13.6c-0.8,3.6-0.5,7.4,2.8,9.3
		c2.7,1.5,6.1,0.6,8.9,0.2c3-0.4,6-1,8.9-1.8c0.7,0.6,1.6,0.9,2.5,1c1.5,0,3,0.2,4.5,0.2h0.2c0.3,0,0.7,0,1.1,0
		c1.1,0,2.3-0.1,3.4-0.3c1.5-0.3,2.9-0.9,4.3-1.6h0.1c0.3-0.1,0.5-0.2,0.8-0.3l0.3-0.1h0.4c0.9,0.1,1.8-0.1,2.6-0.5
		c0.9-0.6,1.6-1.6,1.9-2.7C1528.4,803.3,1527.3,800.5,1525.1,800z"/>
	<path class="st0" d="M1508.5,1111.9c-1.5-3.9-4.1-7.3-7.3-9.9c-3.5-2.6-8.2-3-12.2-1.2c-1.3,0.7-2,2.1-2,3.5l0.1,17.8
		c0,3,0,5.9,0,8.9c0,3-0.6,6.9,0.8,9.4c3.4,6,10.7,0.6,13.8-2.7c1.4-1.5,2.6-3.1,3.6-4.9c2.4-2.2,4.3-4.9,5.4-8
		C1512.2,1120.2,1510.4,1115.9,1508.5,1111.9z"/>
</g>
<g id="Layer_1_1_">
	<path class="st1" d="M1589.6,1670.1c2.9,76.9-324.1,173.4-623.3,172.4c-293.5-0.9-616.1-95.9-613.2-172.4
		c2.9-78.9,352.2-137.1,618.3-137.1C1236.8,1533.2,1586.6,1591.2,1589.6,1670.1z"/>
	<path class="st2" d="M1558.5,1897.3"/>
	<path d="M1558.5,1898.4c0.6-0.1,1-0.6,0.9-1.1c-0.1-0.5-0.4-0.8-0.9-0.9c-0.6,0.1-1,0.6-0.9,1.1
		C1557.7,1897.9,1558.1,1898.3,1558.5,1898.4z"/>
	<path class="st1" d="M1486.5,761.4c0,0.3,0,0.6,0,0.9v774.7c0,27.5,47.8,109.9,20.3,109.9c-340.2,139.8-721.8,139.8-1062,0
		c-1.9,0-3.9-0.5-5.5-1.6c-15.1-11.4,15.8-23.2,21.1-106.7V762.3c0-0.3,0-0.6,0-0.9c0-1.5,0-3.1,0-4.6c0-283.3,229.7-513,513-513
		s513,229.7,513,513C1486.5,758.4,1486.5,759.9,1486.5,761.4z"/>
	<ellipse class="st1" cx="987.5" cy="274.9" rx="112.7" ry="49.9"/>
	<path class="st1" d="M1028.7,187.4l-0.6,65.4c-40.2,25.4-87.8-0.4-87.8-0.4l0.8-68.5l54.6-19.7L1028.7,187.4z"/>
	<circle class="st1" cx="987.5" cy="122" r="77.3"/>
	<path class="st3" d="M543.3,504.6c-24.4-19.9-47.2-41.5-68.2-64.9c-12.1,22.9-12.8,50.2-1.9,73.7c-29.1,3.2-58.5,2.1-87.3-3.4
		c5.3,38.5,29.4,71.5,52.6,102.7c44.7,59.9,93,122.6,162.3,150.7c31.9,12.9,66.5,17.6,100.6,22.2L868.2,808
		c193.2,26,392.3,51.6,580.8,1.9c35.3-9.3,59.2-49.7,79.2-10.3c11.7,23.1,25.8-94.5,26.3-120.4c0.3-15.2,0.2-31.6-8.5-44.1
		c-11.2-16-32.6-20.4-52.1-22.2c-110.8-10.3-223.5,19.7-333.1,0c-40.3-7.3-79.2-21.2-119.6-28.3c-72.5-12.8-146.8-3.2-220.4-2.6
		c-35.3,0.3-71-1.6-104.8-11.6C652,551.4,596.3,503.6,529.5,500"/>
	<path d="M546.2,501.7c-24.3-19.9-47.1-41.6-68.2-64.9c-1.6-1.6-4.2-1.6-5.8,0c-0.2,0.2-0.4,0.5-0.6,0.8
		c-12.6,24.3-13.3,53-1.9,77.8l3.5-6.2c-28.8,3.1-57.8,2-86.2-3.3c-2.2-0.5-4.5,0.8-5,3c-0.2,0.6-0.2,1.3,0,2
		c6.2,42.3,33.2,77.2,58.1,110.4c24.1,32.2,48.8,64.2,78.2,91.8c29.4,27.6,63.1,49.5,101.7,61.1c22,6.5,44.8,10.2,67.5,13.4
		c24.5,3.4,48.9,6.5,73.4,9.9c95.3,12.8,190.6,26.9,286.4,36.1c94.6,9.1,190.3,12.8,284.9,1.9c22.8-2.6,45.7-6.1,68.4-10.5
		c11.6-2.3,23-4.8,34.5-7.5c9.5-2.3,18.9-4.5,27.8-8.5c13.4-6.2,25.4-17.4,39.6-21.5c5.6-1.9,11.8-0.2,15.7,4.3
		c3.7,3.9,5.1,10.3,9.4,13.5c12.7,9.4,18.4-28,19.6-33.6c4.7-24.3,8.1-48.9,10.2-73.5c2.5-28,5.1-63-23.2-78.9
		c-16.4-9.2-36.3-10.4-54.7-11.4c-24.1-1.4-48.2-1.5-72.3-0.3c-47.6,2-95,7-142.6,8.2c-23.6,0.7-47.3,0-70.8-2.2
		c-24.4-2.6-48.5-7.1-72.2-13.4c-23.1-5.9-46-12.6-69.4-17.3c-23.3-4.6-47-7.3-70.7-8.2c-48.9-1.9-98,2.3-147,3.3
		c-46.5,1-93.2-1.1-137.1-18.1c-38.2-14.8-73.1-37.1-111.6-51.4c-18.1-6.9-37.1-11.1-56.5-12.5c-5.2-0.3-5.2,7.8,0,8.2
		c40.6,2.4,77.2,21.2,112.9,39.2c17.4,8.7,34.9,17.4,53,24.5c20.2,7.7,41.3,12.9,62.8,15.5c46.5,5.8,93.7,2.4,140.3,0.4
		c48-2,96.5-3.3,144,5.4c45.7,8.3,89.4,24.5,135.4,30.7c45.7,6.1,92,4.6,137.9,1.6c46.8-3,93.5-7.3,140.4-6.3
		c20.3,0.4,42.1,0.5,61.8,6.4c8.7,2.6,17.3,6.9,23.2,14c6.7,8.2,8.7,19,9.2,29.4c1.1,22.3-2,45-5,67.1c-1.6,12.4-3.6,24.8-6,37.2
		c-1.7,8.7-3.3,17.9-7,26.1c-0.5,1.1-1.1,2.1-1.6,3.1c-0.6,1-0.8,0.3,1,0.3c0.8,0,0.7,0.7,0.4-0.2c-0.9-3.3-3.8-6.7-5.8-9.4
		c-8-10.4-19.1-12.5-30.9-7.5c-14.1,6-25.9,16.3-40.2,22c-9.6,3.8-20,5.7-30,8.1c-11.1,2.6-22.2,4.9-33.4,7
		c-91.2,17.1-184.6,18.3-277,12.5c-93.8-5.9-186.9-19-279.9-31.6c-47.4-6.4-94.8-12.6-142.2-19.1c-43.1-5.9-85.4-14.2-123-37.2
		c-33.7-20.7-61.7-49.4-86.8-79.6c-12.7-15.2-24.7-31-36.5-46.9c-12.4-16.6-25-33.2-35.6-51.1c-10.3-17.6-18.2-36.3-21.2-56.6l-5,5
		c29.1,5.5,58.9,6.7,88.4,3.6c2.3-0.1,4.1-2,4-4.3c0-0.7-0.2-1.3-0.5-1.9c-10.1-22.3-9.3-48,2-69.7l-6.4,0.8
		c21.1,23.3,43.9,45,68.2,64.9C544.6,510.7,550.3,505,546.2,501.7L546.2,501.7z"/>
	<path d="M559.5,578.6c-0.4,0.8-0.3,1.9,0.3,2.6c1.2,0.9,2.5,1.7,3.9,2.2l-0.9,1.4c-2.9-1.2-7.1-2.8-12.5-4.7
		c-5.4-1.9-9.4-3.3-12.2-4.1l0.9-1.4c1.4,0.5,2.8,0.7,4.3,0.8c1,0,2-0.4,2.8-1c1.2-1.1,2.2-2.3,3.1-3.6l23.8-34.5
		c0.8-1.1,1.4-2.3,1.9-3.5c0.4-0.9,0.3-1.9-0.3-2.6c-1.1-0.9-2.4-1.7-3.8-2.1l0.9-1.4c2.5,1.1,6.5,2.6,12,4.6
		c5.1,1.8,9.3,3.3,12.7,4.3l-0.9,1.4c-1.4-0.5-2.9-0.8-4.4-0.9c-1,0-2,0.4-2.8,1c-1.2,1.1-2.2,2.3-3.1,3.7l-23.8,34.6
		C560.7,576.2,560,577.3,559.5,578.6z"/>
	<path d="M599.7,596.7c1.7,0.6,3.7,0.6,5.3-0.2c1.7-0.9,2.9-2.5,3.4-4.3c0.6-1.8,0.7-3.6,0.6-5.5c-0.2-2.4-0.7-4.7-1.3-7
		c-0.1-0.4-0.4-1.5-0.9-3.4c-0.5-1.7-0.7-3.5-0.8-5.2c0-1.5,0.2-3,0.7-4.5c0.9-3.2,3.3-5.8,6.4-7c3.7-1.3,7.8-1.2,11.4,0.2
		c3,0.8,5.7,2.4,7.8,4.6c1.9,2,2.4,4.9,1.3,7.4c-0.4,1.4-1.3,2.7-2.5,3.6c-1.2,0.9-2.7,1.1-4.1,0.6c-1.2-0.3-2.2-1.3-2.6-2.5
		c-0.5-1.3-0.5-2.8,0-4.1c0.4-1.2,1-2.4,1.9-3.4c0.7-0.9,1.6-1.7,2.6-2.3c-0.7-0.7-1.6-1.2-2.5-1.5c-1.6-0.6-3.4-0.5-4.9,0.3
		c-1.6,1-2.7,2.5-3.3,4.3c-0.4,1.3-0.6,2.7-0.4,4.1c0.2,1.3,0.6,3.3,1.2,5.7l0.6,2c0.7,2.6,1.1,5.2,1.3,7.9c0.1,1.9-0.1,3.8-0.7,5.6
		c-0.7,2.2-2,4.1-3.8,5.5c-1.9,1.5-4.2,2.3-6.5,2.6c-6.2,0.5-12.3-1.7-16.7-6.1c-2-2.2-2.6-5.4-1.4-8.2c0.4-1.4,1.3-2.7,2.5-3.6
		c1.8-1.3,4.4-0.9,5.7,0.9c0.3,0.4,0.5,0.8,0.6,1.3c0.4,1.6,0.4,3.2-0.2,4.7c-0.3,1-0.8,2-1.4,3c-0.6,0.8-1.3,1.8-2.2,2.9
		C597.6,595.8,598.6,596.4,599.7,596.7z"/>
	<path d="M665.7,604l1.5,0.4l-3.7,5.1c-1.5,2.3-3.7,4-6.2,4.9c-2.1,0.6-4.4,0.6-6.5,0c-2.3-0.5-4.2-2-5.1-4.2
		c-0.5-1.4-0.4-2.9,0.1-4.2c0.5-1.5,1.2-3,2.1-4.4c-2.3,2.8-5.2,5-8.4,6.5c-2.5,1.1-5.3,1.2-7.9,0.4c-2.5-0.6-4.6-2.2-5.8-4.5
		c-1-2.5-1-5.3-0.1-7.8c1.7-5.1,4.5-9.8,8.2-13.6c3.8-4.2,8.3-7.7,13.4-10.2c4.9-2.3,9.1-2.9,12.8-1.8c1.3,0.3,2.4,1.1,3,2.3
		c0.6,1.3,0.8,2.8,0.4,4.2l2.3-3.5c3.8,1.1,7.7,1.9,11.7,2.3l-20.8,31.9c-0.5,0.6-0.8,1.3-1.1,2.1c-0.3,1.1,0,1.9,1,2.2
		c1.8,0.6,4.1-1,6.7-4.7L665.7,604z M661.6,580c0.2-0.4,0.3-0.7,0.4-1.1c0.4-1,0.5-2.1,0.2-3.2c-0.2-0.8-0.8-1.4-1.6-1.6
		c-1.8-0.5-4.3,0.4-7.5,2.9c-3.6,2.9-6.8,6.4-9.4,10.2c-2.9,4-5.1,8.5-6.6,13.2c-0.5,1.2-0.7,2.5-0.6,3.9c0.1,0.8,0.6,1.4,1.3,1.6
		c1.6,0.2,3.3-0.2,4.5-1.2c2.3-1.6,4.4-3.5,6.2-5.6c2.6-3,4.9-6.2,6.9-9.6l-1,1.8L661.6,580z"/>
	<path d="M722.9,606.7c-1.2,4.2-3,8.2-5.5,11.8c-2.3,3.4-5.3,6.2-9,8.2c-3.4,1.8-7.3,2.2-11,1.1c-4.2-1.2-6.8-3.4-7.8-6.8
		c-4,2-8.5,2.4-12.8,1.2c-2.9-0.6-5.5-2.4-7.1-4.9c-1.3-2.3-1.6-5.1-0.8-7.7c1-3.4,3.1-6.4,6-8.5c3.5-2.8,7.3-5.1,11.3-7
		c4.4-2.1,10.1-4.6,17.2-7.3c-1.3-0.2-2.6-0.1-3.9,0.2c-1.5,0.4-2.9,0.8-4.3,1.4c-1.1,0.5-2.3,0.9-3.5,1.2c-0.9,0.2-1.8,0.2-2.6,0
		c-0.9-0.3-1.7-0.8-2.3-1.5c-0.5-0.6-1.1-1-1.8-1.3c-0.7-0.2-1.4,0-2,0.4c-0.9,0.7-1.6,1.6-2.2,2.5l-1.3,1.9l-1.5-0.4l3.3-5.3
		c1.2-2.2,3-4,5-5.4c1.4-0.8,3.1-1,4.7-0.6c0.6,0.2,1.1,0.4,1.6,0.7c0.6,0.4,1.1,0.8,1.6,1.3l1.1,0.8c0.6,0.4,1.2,0.8,1.8,1.1
		c0.7,0.3,1.4,0.6,2.1,0.8c2.1,0.6,4.4,0.6,6.5,0l1.3-1.3l1.4,1.2c-6.6,3.8-12.7,8.3-18.1,13.6c-5.1,5-8.3,10-9.6,14.8
		c-0.5,1.5-0.6,3.1-0.3,4.7c0.4,1.2,1.5,2,2.7,2.3c2,0.5,4.2,0.3,6.1-0.5c-0.2-1.9-0.1-3.8,0.5-5.5c0.9-3.1,2.4-5.9,4.5-8.3
		c2-2.3,4.4-4.2,7-5.6c1.9-1.1,4.1-1.5,6.2-1.2c2,0.6,2.5,2.6,1.6,6c-0.8,2.8-2.1,5.5-4,7.8c-2,2.5-4.4,4.5-7.1,6.1
		c0.5,2.6,2.4,4.7,5,5.3c2.6,0.7,5.4,0.3,7.6-1.3c2.6-1.7,4.7-4.1,6.3-6.8c1.7-2.9,3.1-6,4-9.2c0.3-1.2,0.5-2,0.6-2.5
		c-2.4-1.7-4.5-3.8-6.2-6.2c-1.5-2.1-1.9-4.7-1.2-7.1c0.3-1.2,1.1-2.2,2.2-2.9c1.1-0.7,2.5-0.8,3.8-0.4c2.4,0.7,3.8,2.5,4.2,5.6
		c0.3,3.4,0.1,6.8-0.6,10.1C723.3,604.9,723.1,606,722.9,606.7z M704.3,602c-1.3,1.3-2.4,2.8-3.3,4.4c-1.1,1.9-1.9,3.9-2.5,6
		c-0.5,1.6-0.7,3.2-0.6,4.9c2.3-1.5,4.3-3.4,5.9-5.6c1.6-2.1,2.8-4.4,3.5-6.9c0.7-2.5,0.6-3.8-0.3-4.1
		C706.2,600.4,705.5,601,704.3,602L704.3,602z"/>
	<path d="M807.3,639.8l-3.3,5.4c-3.1,5-7.4,7-12.6,5.8c-3.1-0.7-5-2.1-5.7-4.3c-0.4-1.2-0.4-2.5,0-3.8c0.6-2.1,1.4-4.1,2.6-6
		l12.1-19.9c0.6-0.9,1-2,1.4-3c0.2-1.1,0-1.6-0.8-1.9c-2.2-0.5-5.4,1.5-9.7,6.1c-5.6,6.4-10.5,13.4-14.6,20.8v-0.2l-3.8,7l-11.4-2.6
		l17.3-30.9c0.6-1,1.1-2,1.4-3.1c0.2-1-0.1-1.6-0.9-1.8c-2.4-0.5-5.7,1.6-10,6.4c-5.1,6.1-9.5,12.7-13.3,19.7v-0.1l-3.9,7.6
		l-11.2-2.6l17.6-32.2c0.4-0.7,0.7-1.4,0.9-2.2c0.3-1.1-0.1-1.8-1-2c-1.1-0.2-2.2,0.1-2.9,0.9c-1.4,1.3-2.6,2.7-3.5,4.3l-2.4,3.7
		l-1.5-0.3l3.5-5.6c1.3-2.3,3.4-4.2,5.9-5.3c2.2-0.8,4.5-1,6.8-0.5c1.9,0.2,3.5,1.3,4.5,2.9c0.8,1.5,0.9,3.3,0.5,5
		c-0.4,1.6-1,3.2-1.8,4.6l-3.3,6.5c4.1-5.9,7.8-9.9,11.2-12c3.2-2.1,7.1-2.8,10.8-1.9c4.2,1,5.8,3.5,4.9,7.7c-0.5,2-1.3,3.8-2.3,5.6
		l-2.6,4.8c4.1-5.7,7.8-9.5,11.1-11.4c3.1-1.9,6.8-2.5,10.3-1.6c1.8,0.3,3.5,1.3,4.6,2.8c0.8,1.5,1,3.3,0.6,4.9
		c-0.5,2-1.3,3.9-2.4,5.6l-13.3,21.6c-0.4,0.7-0.8,1.4-1,2.2c-0.2,1.1,0.1,1.8,1.1,2c1.8,0.4,4-1.3,6.5-5.2l2.3-3.5L807.3,639.8z"/>
	<path d="M852.1,625.4c-1,4.8-3.7,10.3-8.1,16.3c-4.2,5.8-9.1,11-14.7,15.5c-3.3,2.7-6.9,5-10.7,6.9c-3.5,1.8-7.3,3-11.3,3.5
		c-2,0.4-4,0.4-5.9,0c-1.5-0.2-2.8-0.9-3.8-2c-0.8-1-1.1-2.3-0.8-3.6c0.2-1.4,1.1-2.6,2.3-3.3c1.3-0.7,2.8-1,4.2-0.6
		c3.2,0.6,5.7,3.1,7.5,7.2c4.2-1.1,8.2-2.9,11.9-5.3l1.4-39.6c0.1-1.1,0-2.1-0.2-3.2c-0.1-0.5-0.6-0.9-1.1-1
		c-0.7-0.1-1.5,0.3-1.9,0.9c-1.1,1.3-2.2,2.8-3,4.3l-2.2,3.6l-1.5-0.3l3.2-5.5c1.2-2.3,3.1-4.3,5.3-5.6c1.9-0.9,4.1-1.2,6.2-0.7
		c2,0.3,3.8,1.4,5,3c1.2,2.2,1.6,4.8,1.3,7.3l-1.8,28.2c3-2.8,5.7-5.9,8.2-9.1c2.3-2.9,4.2-6,5.8-9.3c-1.9-1.5-3.4-3.4-4.5-5.6
		c-1-1.9-1.3-4.1-0.8-6.2c0.2-1.5,1-2.8,2.2-3.7c1.2-0.8,2.8-1.1,4.2-0.7C851.8,617.7,853.1,620.5,852.1,625.4z"/>
	<path d="M855.2,661.9c1.8,0.4,3.7,0,5.2-1c1.5-1.1,2.5-2.8,2.8-4.7c0.3-1.8,0.2-3.7-0.2-5.5c-0.5-2.3-1.3-4.6-2.3-6.8
		c-0.2-0.4-0.6-1.5-1.4-3.3c-0.7-1.6-1.2-3.3-1.5-5c-0.3-1.5-0.3-3,0-4.5c0.5-3.3,2.5-6.2,5.4-7.8c3.5-1.8,7.5-2.3,11.3-1.4
		c3,0.4,5.9,1.6,8.4,3.5c2.1,1.7,3,4.5,2.3,7.1c-0.3,1.5-1,2.8-2,3.9c-1,1.1-2.5,1.5-3.9,1.2c-1.3-0.2-2.4-1-3-2.1
		c-0.6-1.3-0.8-2.7-0.5-4.1c0.2-1.3,0.7-2.5,1.4-3.6c0.6-1,1.4-1.9,2.3-2.6c-0.8-0.6-1.7-1-2.7-1.1c-1.7-0.4-3.5,0-4.9,1
		c-1.4,1.2-2.4,2.9-2.6,4.7c-0.3,1.4-0.2,2.8,0.1,4.1c0.5,1.9,1.2,3.7,2,5.5l0.8,1.9c1,2.5,1.8,5,2.4,7.7c0.4,1.9,0.4,3.8,0.1,5.7
		c-0.4,2.2-1.4,4.3-2.9,6c-1.7,1.7-3.8,2.9-6.1,3.4c-2.7,0.7-5.6,0.7-8.3,0.2c-3.3-0.5-6.5-1.8-9.1-3.9c-2.3-1.9-3.2-4.9-2.5-7.8
		c0.2-1.5,0.9-2.8,1.9-3.9c1.7-1.6,4.3-1.5,5.9,0.1c0.3,0.3,0.6,0.7,0.8,1.2c0.6,1.5,0.8,3.1,0.4,4.7c-0.2,1.1-0.5,2.1-1,3.1
		c-0.4,0.9-1,2-1.8,3.3C853.1,661.4,854.1,661.8,855.2,661.9z"/>
	<path d="M913.8,646.9c-5.9,2.6-12.2,4.3-18.7,4.9c-0.6,1.8-1.1,3.6-1.4,5.4c-0.5,2.1-0.3,4.3,0.6,6.3c1,1.4,2.6,2.4,4.4,2.5
		c2,0.2,4,0,5.9-0.7c2.6-0.9,4.9-2.3,6.9-4.1l1.2,0.8c-2.5,2.8-5.6,5-9,6.4c-3.6,1.6-7.6,2.1-11.4,1.4c-3.3-0.4-6.4-2-8.6-4.4
		c-2.1-2.5-2.9-5.8-2.2-9c0.9-5.2,3.1-10.1,6.2-14.2c3.3-4.6,7.6-8.4,12.6-11c4.7-2.6,10.2-3.6,15.5-2.7c2.2,0.2,4.2,1.2,5.8,2.6
		c1.4,1.3,2,3.2,1.6,5.1C922.5,640.8,919.3,644.4,913.8,646.9z M907.9,632.4c-2.7,2.2-5,4.8-6.9,7.7c-2.2,3.2-4,6.7-5.4,10.3
		c3.5-0.8,6.8-2.1,9.8-4c2.4-1.5,4.5-3.5,6.2-5.9c1.6-2.3,2.7-4.9,3.1-7.7c0.2-0.7,0.2-1.4,0-2.2c-0.1-0.4-0.5-0.7-0.9-0.7
		C912.2,629.7,910.3,630.5,907.9,632.4L907.9,632.4z"/>
	<path d="M929,669.6c-0.2,1.4,0.3,2.1,1.4,2.3c1.6,0.2,3.6-1.6,5.8-5.7l2-3.7l1.5,0.2l-2.8,5.6c-1.1,2.5-3,4.5-5.4,5.8
		c-2,1-4.3,1.3-6.5,1c-2-0.1-3.9-1.1-5.2-2.7c-1.1-1.6-1.5-3.6-1.1-5.6c0.3-1.9,0.9-3.8,1.8-5.5l18.7-40.4c0.3-0.7,0.6-1.4,0.7-2.2
		c0.2-0.9-0.1-1.9-0.9-2.5c-1.3-0.8-2.7-1.2-4.1-1.3l0.8-1.6c3.4,0.5,6.8,0.6,10.2,0.5c3.1-0.1,6.1-0.5,9.1-1.2l-25.2,55.1
		C929.4,668.2,929.2,668.9,929,669.6z"/>
	<path d="M989.6,620.2c1.7,1.5,2.5,3.8,2.1,6c-0.3,1.8-1.3,3.5-2.8,4.6c-1.6,1.3-3.6,1.8-5.6,1.5c-1.4-0.1-2.7-0.7-3.7-1.6
		c-0.8-0.9-1.2-2.2-0.9-3.4c0.2-1.7,1-3.4,2.3-4.6c1.4-1.3,3.1-2.2,4.9-2.6c-0.3-0.4-0.6-0.7-1-0.9c-0.5-0.3-1.1-0.4-1.6-0.5
		c-1.6-0.2-3.2,0.2-4.5,1.1c-1.3,1-2.4,2.3-3.1,3.8c-0.9,1.8-2.1,4.4-3.5,7.7l-2.4,6l8.7,1.1l-0.7,1.6l-8.6-1.1l-21.6,52.6
		c-3.9-0.5-7.9-0.7-11.9-0.4l22.1-53.6l-6.8-0.9l0.7-1.6l6.7,0.9c1.4-3.6,3.3-7.1,5.5-10.4c1.6-2.5,3.8-4.6,6.2-6.2
		c3.6-2.1,7.8-2.9,11.9-2.3C984.8,617.2,987.5,618.3,989.6,620.2z"/>
	<path d="M998.6,682.6c1.8,0.3,3.7-0.2,5.1-1.4c1.4-1.2,2.3-3,2.4-4.9c0.2-1.9,0-3.7-0.6-5.5c-0.7-2.3-1.7-4.5-2.8-6.6l-1.6-3.1
		c-0.8-1.5-1.5-3.2-1.9-4.9c-0.4-1.5-0.5-3-0.3-4.5c0.3-3.3,2-6.3,4.8-8.2c3.3-2.1,7.3-2.9,11.2-2.2c3.1,0.2,6,1.2,8.6,2.8
		c2.2,1.5,3.4,4.2,2.9,6.9c-0.1,1.5-0.7,2.9-1.7,4c-0.9,1.1-2.4,1.7-3.9,1.5c-1.3-0.1-2.4-0.8-3.1-1.9c-0.7-1.2-1-2.6-0.8-4
		c0.1-1.3,0.5-2.6,1.1-3.7c0.5-1,1.3-2,2.1-2.8c-0.8-0.6-1.8-0.9-2.8-0.9c-1.7-0.3-3.5,0.2-4.8,1.4c-1.3,1.3-2.1,3-2.3,4.9
		c-0.2,1.4,0,2.8,0.5,4.1c0.7,1.8,1.5,3.6,2.4,5.3l1,1.8c1.2,2.4,2.2,4.9,3,7.5c0.5,1.8,0.7,3.7,0.5,5.6c-0.2,2.3-1.1,4.4-2.5,6.2
		c-1.5,1.8-3.5,3.2-5.8,3.9c-6,1.7-12.4,0.8-17.6-2.5c-2.4-1.7-3.6-4.7-3.1-7.6c0.1-1.5,0.7-2.9,1.6-4c1.5-1.7,4.1-1.9,5.8-0.3
		c0.4,0.3,0.7,0.7,0.9,1.1c0.7,1.4,1,3.1,0.8,4.7c-0.1,1.1-0.4,2.1-0.7,3.2c-0.4,0.9-0.9,2-1.6,3.3
		C996.3,682.2,997.4,682.5,998.6,682.6z"/>
	<path d="M1038.3,649c0.1-1.1-0.3-1.6-1.3-1.7c-1.1,0-2.1,0.4-2.8,1.3c-1.2,1.4-2.2,3-3,4.7l-2,4l-1.6-0.1l2.8-6
		c2.5-5.4,6.5-7.9,12-7.4c2,0,3.9,0.8,5.3,2.3c1.1,1.4,1.5,3.2,1.3,4.9c-0.2,1.6-0.6,3.2-1.3,4.7l-10.7,24.2
		c-0.3,0.7-0.6,1.5-0.7,2.3c-0.2,0.8,0.3,1.6,1.1,1.8c0.1,0,0.3,0.1,0.4,0c1,0,1.9-0.4,2.6-1.2c1.3-1.4,2.3-3.1,3.1-4.9l1.8-3.8
		l1.6,0.1l-2.6,5.8c-2.4,5.4-6.3,7.9-11.7,7.4c-4.9-0.4-7.2-2.9-6.8-7.4c0.2-2.1,0.8-4.2,1.7-6.1l10-22.7
		C1037.9,650.6,1038.2,649.8,1038.3,649z M1045.3,626.1c1.8-1.2,3.9-1.7,6-1.5c1.6,0,3.1,0.7,4.3,1.7c1,1,1.5,2.4,1.3,3.9
		c-0.1,2.1-1.2,4-2.9,5.2c-1.8,1.3-4,1.9-6.2,1.6c-1.6,0-3.2-0.7-4.4-1.8c-1-1.1-1.4-2.6-1.1-4
		C1042.6,629.1,1043.7,627.2,1045.3,626.1L1045.3,626.1z"/>
	<path d="M1063.3,682c-0.2,0.5-0.3,1.1-0.4,1.6c-0.1,0.7,0.1,1.4,0.5,1.9c0.5,0.5,1.1,0.7,1.7,0.8c1.4,0,2.7-0.5,3.6-1.5
		c1.5-1.4,2.6-3.2,3.4-5l1.5-3.3l1.5,0.1l-2,4.6c-2.6,6.3-6.9,9.2-13,8.7c-2.3,0-4.5-0.9-6.1-2.6c-1.3-1.7-1.9-3.9-1.6-6.1
		c0.1-1.7,0.5-3.3,1.1-4.9l10.4-28.1l-7.3-0.6l0.5-1.6l7.4,0.6l4.4-11.9c4,0.3,8,0.2,11.9-0.2l-4.9,13.1l9.2,0.7l-0.4,1.6l-9.5-0.7
		L1063.3,682z"/>
	<path d="M1091.9,684c-0.2,0.5-0.3,1.1-0.4,1.6c-0.1,0.7,0.1,1.4,0.5,1.9c0.5,0.5,1.1,0.7,1.8,0.7c1.4,0,2.7-0.5,3.6-1.5
		c1.4-1.5,2.5-3.2,3.3-5.1l1.5-3.3l1.6,0.1l-2,4.6c-2.5,6.3-6.8,9.2-12.9,8.8c-2.3,0-4.5-0.9-6.1-2.6c-1.3-1.7-1.9-3.9-1.6-6.1
		c0.1-1.7,0.5-3.3,1.1-4.9l10.1-28.1l-7.3-0.5l0.5-1.6l7.4,0.5l4.3-11.9c4,0.3,8,0.1,11.9-0.4l-4.7,13.1l9.2,0.6l-0.3,1.6l-9.5-0.6
		L1091.9,684z"/>
	<path d="M1121,655c0-1.1-0.4-1.6-1.4-1.7c-1.1,0-2.1,0.5-2.8,1.3c-1.2,1.4-2.1,3.1-2.8,4.8l-1.9,4l-1.6-0.1l2.7-6.1
		c2.4-5.5,6.3-8,11.9-7.7c2-0.1,4,0.7,5.4,2.2c1.1,1.4,1.6,3.1,1.4,4.9c-0.1,1.6-0.5,3.2-1.2,4.7l-10.1,24.5
		c-0.3,0.7-0.5,1.5-0.6,2.3c0,1.1,0.4,1.8,1.5,1.8c1,0,1.9-0.5,2.6-1.2c1.3-1.4,2.3-3.1,3-4.9l1.7-3.8l1.6,0.1l-2.5,5.8
		c-2.3,5.4-6.1,8-11.6,7.7c-5-0.3-7.3-2.7-7-7.2c0.2-2.1,0.8-4.2,1.6-6.1l9.5-22.9C1120.7,656.6,1120.9,655.8,1121,655z
		 M1127.5,631.9c1.7-1.2,3.9-1.8,6-1.6c1.6,0,3.2,0.6,4.4,1.6c1,1,1.5,2.4,1.4,3.8c-0.1,2.1-1.1,4-2.8,5.2c-1.8,1.3-4,2-6.2,1.7
		c-1.6,0-3.2-0.5-4.4-1.6c-1-1.1-1.4-2.5-1.1-4C1124.8,635,1125.8,633.1,1127.5,631.9z"/>
	<path d="M1179.5,683.2l-2.5,5.8c-2.3,5.5-6.1,8.1-11.4,7.7c-2.5,0.1-4.9-1.1-6.4-3.1c-0.7-1.2-0.9-2.5-0.8-3.9
		c0.2-2.2,0.7-4.4,1.6-6.4l8.8-21.6c0.5-1.1,0.8-2.3,1-3.5c0-1.3-0.4-1.9-1.4-2c-1.6-0.1-3.7,1.4-6.2,4.6c-3,4-5.6,8.2-7.8,12.7
		c-2.7,5.4-5.1,11-7.2,16.7l-1.3,4l-11.5-0.7l12.1-34.7c0.4-0.8,0.6-1.7,0.6-2.6c0-1-0.4-1.5-1.3-1.6c-1.1,0-2.1,0.4-2.8,1.3
		c-1.2,1.5-2.1,3.1-2.8,4.9l-1.8,4.1l-1.6-0.1l2.6-6.1c0.9-2.5,2.5-4.6,4.6-6.2c1.9-1.3,4.2-1.8,6.5-1.6c4.7,0.3,6.9,2.7,6.5,7.1
		c-0.1,1.6-0.4,3.2-0.9,4.7l-3.1,9.8c2-4.4,4.4-8.6,7.2-12.5c1.7-2.5,3.9-4.6,6.5-6.1c2.2-1.1,4.6-1.6,7.1-1.5c4.9,0.3,7.2,2.6,7,7
		c-0.2,2-0.7,3.9-1.4,5.7l-9.5,23.6c-0.3,0.7-0.5,1.5-0.6,2.3c0,1.1,0.4,1.7,1.5,1.8c1,0,2-0.5,2.6-1.2c1.3-1.4,2.2-3.1,2.9-4.9
		l1.7-3.8L1179.5,683.2z"/>
	<path d="M1226.9,653.6c0.9,1.1,1.3,2.5,1.2,3.9c0,1.3-0.5,2.5-1.4,3.4c-0.7,0.8-1.7,1.2-2.8,1.1c-1.1-0.1-2.1-0.6-2.8-1.5
		c-0.8-1-1.1-2.3-1-3.5c0.1-1.2,0.4-2.3,1-3.4c-2,0.6-3.7,1.8-5.1,3.4c1.3,0.8,2.4,1.9,3.1,3.3c0.7,1.5,1,3.1,0.9,4.7
		c-0.2,2.4-1,4.7-2.3,6.7c-1.5,2.3-3.5,4.1-5.8,5.5c-2.6,1.6-5.4,2.5-8.4,2.9c-2.3,0.8-4.6,1.8-6.8,2.9c-1.4,0.7-2.1,1.5-2.1,2.3
		c0,0.6,0.3,1.1,0.8,1.3c0.9,0.5,1.8,1,2.7,1.3l6.7,2.7c2.4,0.9,4.6,2.2,6.5,3.8c1.6,1.4,2.4,3.5,2.2,5.6c-0.2,2.8-1.6,5.3-3.8,7
		c-2.8,2.2-6,3.8-9.4,4.7c-4.1,1.1-8.3,1.5-12.4,1.2c-3.6-0.1-7.2-0.9-10.5-2.4c-2.8-1.3-4.1-2.9-4-4.7c0.1-1.8,1.7-3.4,4.9-4.6
		c3.4-1.2,6.9-1.9,10.5-2l0.3,1.2c-3.5,1.5-5.2,3.5-5.4,6c-0.2,1.4,0.4,2.7,1.5,3.6c1.4,1,3,1.5,4.7,1.5c2.2,0.1,4.3-0.2,6.4-0.8
		c2.1-0.6,4-1.5,5.7-2.9c1.4-1,2.3-2.5,2.5-4.1c0.1-0.8-0.2-1.5-0.8-2c-1-0.6-2.1-1.1-3.3-1.5l-11.4-4.1c-1.3-0.4-2.5-1.2-3.4-2.2
		c-0.8-0.9-1.3-2.1-1.1-3.4c0.1-2,1.4-3.7,3.8-5.3c3.6-2.1,7.4-3.8,11.4-5.1h-0.8c-3.1-0.1-6.2-1-8.7-2.8c-2.2-1.7-3.3-4.4-3-7.1
		c0.2-2.7,1.2-5.3,2.8-7.5c1.9-2.6,4.4-4.7,7.3-6c5.5-2.4,11.7-2.6,17.3-0.6c1.1-1.3,2.4-2.3,3.9-3.1c1.4-0.7,3.1-1.1,4.7-1
		C1224.4,652,1225.8,652.6,1226.9,653.6z M1206.1,673.4c1.6-3.8,2.5-7.9,2.7-12c0.1-1.3,0-2.6-0.3-3.8c-0.3-0.9-1.1-1.5-2-1.5
		c-1.8,0-3.5,1-4.3,2.6c-1.4,2.1-2.4,4.4-3.1,6.9c-0.7,2.6-1.2,5.3-1.4,8c-0.2,1.3,0,2.6,0.4,3.8c0.3,0.7,1.1,1.2,1.9,1.2
		C1202.6,678.8,1204.6,677.1,1206.1,673.4L1206.1,673.4z"/>
	<path d="M1255.8,663.3c0-1.1-0.4-1.6-1.4-1.7c-1.1,0-2.1,0.5-2.8,1.4c-1.2,1.4-2.1,3.1-2.8,4.8l-1.9,4.1l-1.6-0.1l2.7-6.1
		c2.4-5.4,6.3-8,11.9-7.7c2-0.1,4,0.7,5.4,2.2c1.1,1.4,1.6,3.1,1.4,4.9c-0.1,1.6-0.5,3.3-1.2,4.8l-10.1,24.5
		c-0.3,0.7-0.5,1.5-0.6,2.3c0,1.1,0.4,1.7,1.5,1.8c1,0,1.9-0.5,2.6-1.2c1.3-1.4,2.3-3.1,3-4.9l1.6-3.8l1.6,0.1l-2.5,5.8
		c-2.3,5.4-6.1,8-11.5,7.7c-5-0.3-7.3-2.7-7-7.2c0.2-2.1,0.8-4.2,1.6-6.1l9.4-22.9C1255.4,665,1255.7,664.1,1255.8,663.3z
		 M1262.3,640.2c1.7-1.3,3.9-1.8,6-1.6c1.6,0,3.2,0.6,4.4,1.6c1,1,1.5,2.4,1.4,3.8c-0.1,2.1-1.1,4-2.8,5.2c-1.7,1.3-3.9,1.9-6.1,1.8
		c-1.6,0-3.2-0.5-4.4-1.6c-1-1.1-1.4-2.5-1.1-3.9C1259.6,643.4,1260.6,641.4,1262.3,640.2z"/>
	<path d="M1314.4,691.5l-2.4,5.8c-2.3,5.5-6.1,8.1-11.4,7.7c-2.5,0.1-4.9-1.1-6.4-3.1c-0.7-1.2-1-2.5-0.8-3.9
		c0.2-2.2,0.8-4.4,1.6-6.4l8.7-21.6c0.5-1.1,0.8-2.3,0.9-3.5c0-1.3-0.4-1.9-1.4-2c-1.6-0.1-3.7,1.4-6.2,4.6c-3,4-5.6,8.2-7.8,12.7
		c-2.7,5.4-5.1,11-7.2,16.7l-1.3,4l-11.5-0.7l12-34.7c0.4-0.8,0.6-1.7,0.7-2.6c0-1-0.4-1.5-1.3-1.5c-1.1,0-2.1,0.4-2.8,1.3
		c-1.2,1.5-2.1,3.1-2.8,4.9l-1.8,4.1l-1.6-0.1l2.6-6.1c0.9-2.5,2.4-4.6,4.6-6.2c1.9-1.2,4.2-1.8,6.5-1.6c4.7,0.3,6.9,2.7,6.5,7.1
		c-0.1,1.6-0.4,3.2-0.9,4.7l-3.1,9.7c2-4.4,4.4-8.6,7.2-12.5c1.7-2.5,4-4.6,6.6-6.1c2.2-1.1,4.6-1.6,7.1-1.5c4.9,0.3,7.2,2.6,6.9,7
		c-0.2,2-0.7,3.9-1.4,5.7l-9.5,23.6c-0.3,0.7-0.5,1.5-0.6,2.3c0,1.1,0.4,1.7,1.4,1.8c1,0,2-0.5,2.7-1.2c1.2-1.4,2.2-3.1,2.9-4.9
		l1.7-3.8L1314.4,691.5z"/>
	<path d="M1351.7,700.1c-0.2,0.5-0.3,1.1-0.3,1.6c-0.1,0.7,0.1,1.4,0.5,1.9c0.5,0.5,1.1,0.7,1.8,0.7c1.4,0,2.6-0.6,3.6-1.5
		c1.4-1.5,2.5-3.2,3.3-5.1l1.4-3.3l1.6,0.1l-1.9,4.6c-2.5,6.3-6.8,9.3-12.8,8.9c-4.1,0.3-7.6-2.8-7.9-6.9c0-0.6,0-1.1,0.1-1.7
		c0.1-1.7,0.5-3.3,1-4.9l10-28.2l-7.3-0.4l0.5-1.6l7.4,0.5l4.3-11.9c4,0.3,8,0.1,11.9-0.4l-4.6,13.1l9.2,0.6l-0.3,1.6l-9.5-0.6
		L1351.7,700.1z"/>
	<path d="M1410.4,697.4l-2.4,5.8c-2.3,5.4-6.1,8-11.4,7.7c-4.9-0.3-7.3-2.7-7-7.1c0.2-2.2,0.7-4.3,1.6-6.3l8.6-21.6
		c0.5-1.1,0.8-2.3,1-3.5c0-1.2-0.4-1.8-1.4-1.9c-1.5-0.1-3.4,1.2-5.7,3.9c-2.7,3.4-5.1,7.1-7.1,11c-2.6,5-4.9,10.1-6.9,15.3
		l-2.4,6.7c-0.1,0.1-0.1,0.2-0.1,0.2v-0.1l-0.3,0.9l-11.5-0.7l19.6-53.5c0.3-0.7,0.5-1.5,0.6-2.3c0.1-1-0.3-1.9-1.1-2.4
		c-1.3-0.7-2.8-1-4.2-1l0.6-1.6c3.4,0.2,6.9,0.1,10.3-0.3c3-0.4,6-1,8.9-1.9l-13.4,37.3c3.2-6,6.2-10.1,9-12.3c2.6-2.2,6-3.3,9.4-3
		c2,0,4,0.7,5.5,2.1c1.2,1.3,1.7,3.1,1.5,4.9c-0.2,2-0.7,3.9-1.5,5.7l-9.5,23.6c-0.3,0.7-0.5,1.5-0.6,2.3c0,1.2,0.4,1.8,1.5,1.8
		c1.8,0.1,3.6-1.9,5.4-6.2l1.7-3.8L1410.4,697.4z"/>
	<path d="M1445.4,687.6c-5.6,3.2-11.8,5.5-18.1,6.8c-0.4,1.8-0.7,3.7-0.8,5.5c-0.3,2.2,0.1,4.4,1.2,6.2c1.1,1.3,2.8,2.1,4.6,2.1
		c2,0,4-0.4,5.8-1.2c2.5-1.1,4.7-2.7,6.5-4.7l1.3,0.7c-2.2,3-5.1,5.5-8.4,7.3c-3.4,1.9-7.3,2.8-11.3,2.5c-3.3-0.1-6.6-1.3-9-3.6
		c-2.3-2.3-3.4-5.5-3.1-8.7c0.4-5.2,2.1-10.3,4.9-14.8c2.8-4.9,6.7-9.1,11.4-12.2c4.5-3,9.8-4.5,15.2-4.2c2.2,0,4.3,0.8,6,2.1
		c1.5,1.2,2.3,3,2.1,4.9C1453.5,680.7,1450.7,684.5,1445.4,687.6z M1438.2,673.8c-2.4,2.5-4.5,5.3-6.1,8.4c-1.9,3.4-3.4,7-4.4,10.8
		c3.3-1.1,6.5-2.8,9.3-4.9c2.2-1.8,4.1-3.9,5.5-6.4c1.4-2.4,2.2-5.2,2.4-8c0.1-0.7,0-1.5-0.2-2.2c-0.2-0.4-0.5-0.6-0.9-0.6
		C1442.2,670.7,1440.3,671.7,1438.2,673.8L1438.2,673.8z"/>
	<path d="M536.7,625.6c-4.3,2.1-8.2,5.1-11.4,8.7c-3.7,4-6.8,8.5-9,13.5c-2.5,5.4-1.7,9.1,2.5,11.1c3.9,1.8,8.7,1,14.2-2.3l1.3,1.4
		c-3.4,2.3-7.1,3.8-11.1,4.5c-4,0.7-8.1,0.1-11.8-1.6c-3.6-1.4-6.5-4.1-8.2-7.6c-1.4-3.3-1.2-6.9,0.7-11.1
		c5.1-10.4,14.6-18.1,25.8-21c5.6-1.4,11.6-0.8,16.8,1.6c2.7,1.1,4.9,3,6.2,5.6c1.1,2.1,1.2,4.7,0.2,6.9c-0.7,1.5-1.8,2.8-3.1,3.9
		c-1.3,1.1-2.9,1.8-4.5,2.1c-1.6,0.3-3.2,0.1-4.7-0.6c-1.3-0.5-2.3-1.6-2.8-2.9c-0.5-1.3-0.4-2.8,0.3-4c1-2.1,2.7-3.8,4.9-4.7
		c2.1-1,4.5-1.3,6.7-0.9c-0.5-1.6-1.7-2.9-3.3-3.4C543.9,623.6,540.6,623.8,536.7,625.6z"/>
	<path d="M594.6,645.2c0.7,1.8,0.6,3.8-0.2,5.6c-0.9,2.3-2.6,4.2-4.8,5.2c-2.1,1.1-4.5,1.2-6.7,0.2c-1.4-0.5-2.6-1.5-3.3-2.8
		c-0.5-1.4-0.5-2.9,0.2-4.3c0.8-2,2.3-3.5,4.2-4.5c1.9-1,4.1-1.4,6.2-1c-0.2-0.1-0.3-0.2-0.5-0.3c-0.2-0.2-0.3-0.3-0.5-0.4
		c-2.9-1.2-6.5-0.3-11.2,2.6s-10.7,9-18.1,18.4l-9.4,12.8l-11.8-4.9l25-31.9c0.6-0.7,1.1-1.5,1.5-2.4c0.4-1.1,0.2-1.8-0.7-2.1
		c-1.1-0.4-2.4-0.3-3.5,0.3c-1.8,1.1-3.3,2.4-4.7,4l-3.3,3.6l-1.6-0.7l4.9-5.4c4.4-4.9,9.4-6.2,15.1-3.9c4.3,1.8,5.5,4.9,3.7,9.4
		c-0.7,1.7-1.6,3.2-2.7,4.7l-1.8,2.4c4.2-4.4,7.9-7.3,10.9-8.6c2.9-1.2,6.2-1.2,9.1,0C592.4,641.9,593.9,643.3,594.6,645.2z"/>
	<path d="M591.1,661.8c3.8-4.2,8.7-7.3,14-9.2c5.5-1.9,11.4-1.7,16.8,0.4c3.8,1.1,7,3.8,8.9,7.3c1.5,3.3,1.4,7.2-0.2,11.7
		c-1.9,5-4.8,9.5-8.5,13.3c-3.8,4.2-8.7,7.3-14,9.2c-5.5,1.9-11.4,1.8-16.8-0.4c-4.4-1.6-7.4-4-8.9-7.3c-1.5-3.3-1.4-7.2,0.2-11.7
		C584.5,670.1,587.4,665.6,591.1,661.8z M611.8,658c-4.4,3.6-8.4,7.8-11.7,12.5c-3.5,4.7-6.4,9.9-8.5,15.4c-0.6,1.5-1,3.1-0.9,4.7
		c0.1,1,0.7,1.8,1.6,2.2c2.1,0.8,5.1-0.4,9-3.4c4.4-3.5,8.3-7.7,11.6-12.3c3.6-4.8,6.5-10,8.6-15.6c0.7-1.5,1-3.2,1-4.9
		c-0.1-1-0.7-1.8-1.6-2.1C618.7,653.7,615.8,654.9,611.8,658L611.8,658z"/>
	<path d="M639.5,701.6c-0.4,0.5-0.6,1-0.8,1.6c-0.3,0.7-0.3,1.5,0,2.2c0.4,0.6,0.9,1.1,1.6,1.3c1.4,0.4,3,0.1,4.3-0.7
		c1.9-1.2,3.6-2.7,4.9-4.5l2.4-3.1l1.6,0.5l-3.3,4.4c-4.4,6-9.8,8-16.2,5.9c-4.4-0.8-7.4-5-6.6-9.5c0.1-0.7,0.3-1.3,0.6-1.9
		c0.6-1.7,1.4-3.4,2.4-4.9l18.6-27.4l-7.7-2.5l1-1.6l7.8,2.6l7.9-11.6c4.2,1.4,8.5,2.4,12.8,2.9l-8.6,12.7l9.8,3.2l-0.8,1.6l-10-3.3
		L639.5,701.6z"/>
	<path d="M688.9,681.7c-4,2.7-7.4,6.2-10.1,10.2c-3.1,4.5-5.5,9.4-7,14.7c-1.7,5.8-0.4,9.3,4,10.6c4.2,1.2,8.7-0.2,13.7-4.3l1.5,1.2
		c-3,2.7-6.5,4.7-10.4,6c-3.9,1.2-8.1,1.2-11.9,0c-3.7-0.9-7-3.2-9.1-6.4c-1.8-3-2.1-6.7-0.8-11.1c3.6-11.1,11.9-20,22.6-24.5
		c5.4-2.2,11.3-2.5,16.9-0.8c2.8,0.7,5.3,2.3,7,4.6c1.4,2,1.9,4.5,1.1,6.8c-0.5,1.6-1.3,3.1-2.5,4.3c-1.1,1.3-2.6,2.2-4.2,2.7
		c-1.5,0.5-3.2,0.6-4.7,0.1c-1.3-0.3-2.5-1.2-3.1-2.4c-0.7-1.2-0.8-2.7-0.3-4c0.7-2.2,2.1-4.1,4.1-5.3c1.9-1.3,4.2-1.9,6.5-1.8
		c-0.7-1.5-2-2.6-3.7-3C695.7,678.6,692.5,679.4,688.9,681.7z"/>
	<path d="M745.5,724.5l-3.8,5.8c-3.6,5.4-8.3,7.4-14,6c-5.3-1.4-7.4-4.4-6.2-9.1c0.6-2.3,1.7-4.5,3.1-6.5l13.8-21.6
		c0.8-1.1,1.4-2.4,1.8-3.7c0.3-1.3,0-2.1-1.2-2.3c-1.6-0.4-4,0.6-7,3.1c-3.7,3.1-7,6.7-10,10.5c-3.8,4.8-7.4,9.9-10.7,15.2l-4,6.9
		c-0.1,0.1-0.1,0.1-0.1,0.2v-0.1l-0.5,0.9l-12.3-3.1l32.3-54c0.4-0.7,0.8-1.5,1.1-2.3c0.3-1,0.1-2.1-0.7-2.9c-1.3-1-2.8-1.7-4.4-2
		l1-1.7c3.7,0.9,7.5,1.5,11.2,1.8c3.4,0.2,6.7,0.2,10.1-0.2L722.5,703c4.7-5.8,8.8-9.6,12.3-11.4c3.3-1.8,7.2-2.3,10.8-1.3
		c2.2,0.4,4.2,1.6,5.5,3.4c1,1.7,1.2,3.7,0.6,5.6c-0.6,2.1-1.5,4.1-2.8,5.9l-15.2,23.5c-0.5,0.7-0.9,1.5-1.2,2.4
		c-0.4,0.8,0,1.8,0.8,2.2c0.1,0.1,0.3,0.1,0.5,0.1c1.9,0.5,4.3-1.4,7.2-5.5l2.6-3.8L745.5,724.5z"/>
	<path d="M780.3,717.5c3.2-4.7,7.5-8.6,12.5-11.2c5.1-2.7,11-3.5,16.6-2.2c4.6,0.9,7.9,2.9,9.9,5.9c2,3,2.5,6.9,1.5,11.6
		c-1.1,5.2-3.3,10.1-6.4,14.5c-3.2,4.7-7.5,8.6-12.5,11.2c-5.1,2.7-11,3.5-16.6,2.2c-4.6-0.9-7.9-2.9-9.9-5.9c-2-3-2.5-6.9-1.5-11.6
		C775.1,726.8,777.3,721.9,780.3,717.5z M800.1,710.6c-3.8,4.2-7.1,9-9.7,14.1c-2.8,5.2-4.8,10.7-6.1,16.5c-0.4,1.5-0.5,3.2-0.2,4.7
		c0.2,1,1,1.7,2,1.9c2.2,0.4,5-1.1,8.4-4.7c3.8-4.2,7-8.8,9.6-13.9c2.8-5.3,4.9-10.9,6.1-16.7c0.4-1.6,0.5-3.3,0.3-4.9
		c-0.2-0.9-1-1.7-1.9-1.8C806.4,705.3,803.6,706.9,800.1,710.6z"/>
	<path d="M873.2,694.9c1.8,1.8,2.5,4.3,2,6.8c-0.4,2-1.6,3.8-3.3,4.9c-1.8,1.3-4.1,1.8-6.2,1.4c-1.5-0.2-2.9-0.9-4-2
		c-0.9-1.1-1.2-2.5-0.9-3.8c0.3-1.9,1.3-3.6,2.8-4.9c1.6-1.4,3.5-2.3,5.6-2.6c-0.3-0.4-0.6-0.8-1.1-1.1c-0.5-0.3-1.1-0.5-1.7-0.6
		c-1.7-0.3-3.5,0-5,1c-1.5,1-2.7,2.4-3.6,4c-1.1,1.9-2.5,4.7-4.2,8.4l-3.1,6.5l9.5,1.6l-0.8,1.6l-9.4-1.6l-26.4,56.9
		c-4.3-0.8-8.7-1.1-13.1-1l26.9-58.1l-7.5-1.3l0.8-1.6l7.4,1.3c1.8-4,4-7.7,6.5-11.2c1.9-2.6,4.4-4.9,7.2-6.5
		c4.1-2.2,8.8-2.9,13.3-1.9C868.1,691.4,871,692.8,873.2,694.9z"/>
	<path d="M885.6,757.7c-0.3,0.6-0.4,1.1-0.5,1.7c-0.2,0.7,0,1.5,0.4,2.1c0.5,0.6,1.1,0.9,1.9,1c1.5,0.1,3-0.4,4.1-1.4
		c1.7-1.5,3.1-3.3,4.1-5.3l1.9-3.5l1.6,0.2l-2.5,4.9c-3.3,6.7-8.2,9.6-14.9,8.7c-4.5,0-8.1-3.7-8.1-8.2c0-0.7,0.1-1.3,0.2-1.9
		c0.3-1.8,0.8-3.6,1.6-5.3l13.5-30.2l-8-1.1l0.7-1.7l8.2,1.1l5.7-12.8c4.3,0.6,8.7,0.8,13.1,0.6l-6.2,14l10.1,1.4l-0.5,1.8
		l-10.4-1.5L885.6,757.7z"/>
	<path d="M949.8,758.7l-3,6.3c-2.9,5.9-7.2,8.5-13.1,7.8c-5.4-0.6-7.9-3.4-7.3-8.2c0.3-2.4,1-4.7,2.2-6.8l10.8-23.3
		c0.6-1.2,1-2.5,1.3-3.9c0.1-1.3-0.3-2-1.5-2.2c-1.7-0.2-3.8,1.1-6.5,4c-3.2,3.6-6.1,7.5-8.6,11.7c-3.2,5.3-6,10.8-8.6,16.5l-3,7.3
		c-0.1,0.1-0.1,0.2-0.1,0.3l0,0l-0.4,0.9l-12.7-1.5l24.8-57.9c0.4-0.8,0.6-1.6,0.7-2.5c0.2-1.1-0.2-2.1-1.1-2.8
		c-1.4-0.8-3-1.3-4.6-1.4l0.8-1.8c3.8,0.4,7.6,0.5,11.4,0.3c3.4-0.2,6.7-0.8,10-1.6l-17.1,40.3c3.8-6.4,7.4-10.7,10.7-13.1
		c3-2.2,6.8-3.2,10.6-2.8c2.3,0.1,4.4,1,6,2.6c1.2,1.6,1.7,3.5,1.4,5.5c-0.3,2.2-1,4.3-2,6.2l-11.9,25.4c-0.4,0.8-0.7,1.7-0.8,2.5
		c-0.3,0.9,0.2,1.8,1.1,2c0.2,0,0.3,0.1,0.5,0.1c2,0.2,4.1-1.9,6.4-6.4l2.1-4.1L949.8,758.7z"/>
	<path d="M969,733.3c0.1-1.2-0.4-1.9-1.4-2c-1.2-0.1-2.4,0.5-3.1,1.4c-1.3,1.6-2.4,3.3-3.3,5.2l-2.2,4.4l-1.6-0.2l3.3-6.5
		c2.8-6,7.3-8.6,13.4-8.2c2.2,0,4.3,1,5.8,2.6c1.1,1.6,1.6,3.5,1.4,5.4c-0.2,1.8-0.7,3.6-1.5,5.2l-12.1,26.6
		c-0.4,0.8-0.7,1.7-0.8,2.6c-0.2,0.9,0.3,1.8,1.2,2c0.2,0,0.3,0.1,0.5,0.1c1.1,0,2.2-0.5,2.9-1.3c1.5-1.5,2.6-3.3,3.5-5.3l2-4.2
		l1.6,0.2l-3.1,6.4c-2.7,6-7,8.7-13.1,8.2c-5.4-0.5-7.9-3.3-7.5-8.3c0.3-2.3,1-4.6,2-6.7l11.3-25C968.5,735.2,968.8,734.3,969,733.3
		z M977,708c2-1.3,4.3-1.8,6.7-1.5c1.8,0.1,3.4,0.7,4.7,1.9c1.1,1.1,1.6,2.7,1.4,4.3c-0.2,2.3-1.4,4.4-3.3,5.7c-2,1.4-4.5,2-6.9,1.6
		c-1.8,0-3.5-0.8-4.8-2c-1.1-1.2-1.5-2.9-1.1-4.4C973.9,711.3,975.1,709.3,977,708z"/>
	<path d="M990.8,776.6c2,0.3,4.1-0.3,5.7-1.6c1.6-1.4,2.5-3.4,2.5-5.5c0.1-2-0.1-4.1-0.8-6.1c-0.9-2.5-2-4.9-3.3-7.2l-1.9-3.4
		c-0.9-1.7-1.7-3.5-2.2-5.4c-0.4-1.6-0.6-3.3-0.5-5c0.2-3.7,2.1-7.1,5.1-9.2c3.6-2.4,8-3.3,12.3-2.7c3.4,0.1,6.7,1.1,9.6,2.9
		c2.5,1.7,3.8,4.6,3.3,7.6c-0.1,1.6-0.8,3.2-1.8,4.5c-1,1.3-2.6,1.9-4.2,1.7c-1.4-0.1-2.7-0.8-3.5-2c-0.8-1.3-1.2-2.9-1-4.4
		c0.1-1.4,0.5-2.8,1.1-4.1c0.6-1.2,1.3-2.2,2.3-3.1c-0.9-0.6-2-0.9-3.1-1c-1.9-0.3-3.8,0.3-5.3,1.6c-1.4,1.5-2.3,3.4-2.4,5.5
		c-0.1,1.5,0.1,3.1,0.6,4.5c0.8,2,1.7,3.9,2.8,5.8l1.1,2c1.4,2.6,2.5,5.4,3.5,8.2c0.6,2,0.9,4.1,0.7,6.2c-0.2,2.5-1.1,4.9-2.6,6.9
		c-1.6,2-3.7,3.6-6.2,4.4c-6.5,2.1-13.7,1.3-19.6-2.2c-2.7-1.9-4.1-5.1-3.6-8.3c0.1-1.6,0.7-3.2,1.7-4.5c0.9-1.2,2.4-1.8,3.8-1.6
		c1.5,0.1,2.9,0.9,3.6,2.3c0.9,1.6,1.2,3.4,1,5.2c-0.1,1.2-0.3,2.4-0.7,3.5c-0.4,1-0.9,2.3-1.6,3.7
		C988.4,776.2,989.6,776.5,990.8,776.6z"/>
	<path d="M1101.4,719.9c-0.2,2.2-1.3,4.3-3.1,5.6c-1.9,1.4-4.2,2.1-6.5,1.9c-1.8,0.1-3.5-0.5-4.9-1.6c-1.1-1-1.7-2.5-1.5-4
		c0-1.9,0.7-3.7,1.9-5.1c1.2-1.3,2.8-2.2,4.6-2.5h-1.2c-3.8-0.3-7.6,0.5-11,2.3c-2.2,1.3-4,3.2-5.3,5.4c-1.7,3.1-3.1,6.4-4.1,9.9
		l-1.3,4l13.1,0.6c4.4,0.2,8.8-0.1,13.2-0.7l-13.8,39.7c-0.4,0.8-0.6,1.7-0.7,2.6c0,1.3,0.5,1.9,1.6,2c1.1,0,2.2-0.5,2.9-1.4
		c1.3-1.6,2.4-3.5,3.2-5.5l1.9-4.2l1.6,0.1l-2.7,6.5c-1,2.9-2.9,5.3-5.5,6.9c-2.2,1.3-4.8,1.9-7.4,1.8c-3.8,0.4-7.1-2.4-7.5-6.2
		c-0.1-0.6,0-1.2,0.1-1.8c0.2-2.3,0.7-4.6,1.5-6.7l10.8-31.2l-13.1-0.6l-19.4,59.7c-4.4-0.2-8.7,0-13.1,0.6l20-61l-7.8-0.4l0.6-1.8
		l7.8,0.4c1.2-4,3-7.7,5.3-11.2c1.9-2.8,4.4-5.1,7.4-6.8c3-1.8,6.3-3,9.8-3.7c3.9-0.7,7.9-0.9,11.8-0.7c4.1,0.2,7.1,1.2,9,3
		C1101.1,716.6,1101.7,718.3,1101.4,719.9z"/>
	<path d="M1142.8,734.4c1,1.2,1.5,2.7,1.4,4.3c0,1.4-0.5,2.8-1.4,3.8c-0.8,0.9-1.9,1.3-3,1.3c-1.2,0-2.3-0.6-3.1-1.5
		c-0.9-1.1-1.4-2.5-1.2-3.9c0.1-1.4,0.4-2.7,0.9-3.9c-2.2,0.8-4.1,2.1-5.5,3.9c1.5,0.8,2.7,2,3.5,3.4c0.8,1.6,1.2,3.4,1.1,5.1
		c-0.1,2.7-0.9,5.2-2.3,7.5c-1.6,2.5-3.7,4.7-6.2,6.3c-2.8,1.8-5.9,3-9.2,3.5c-2.5,1-5,2.1-7.4,3.4c-1.5,0.9-2.3,1.7-2.3,2.6
		c0,0.6,0.4,1.2,1,1.4c1,0.6,2,1,3,1.3l7.5,2.8c2.7,0.9,5.2,2.3,7.4,4c1.9,1.5,2.9,3.8,2.7,6.1c-0.2,3.1-1.6,5.9-4,7.9
		c-3,2.6-6.5,4.5-10.2,5.5c-4.4,1.3-9.1,1.9-13.7,1.8c-4,0-8-0.8-11.7-2.2c-3.1-1.4-4.6-3.1-4.6-5.1c0-2,1.8-3.9,5.2-5.2
		c3.7-1.5,7.6-2.3,11.6-2.6l0.3,1.4c-3.8,1.9-5.7,4.3-5.8,7c-0.1,1.5,0.5,3,1.8,3.9c1.6,1,3.4,1.5,5.2,1.5c2.4,0,4.8-0.3,7-1.1
		c2.3-0.7,4.4-1.8,6.2-3.3c1.5-1.1,2.4-2.8,2.6-4.7c0.1-0.8-0.3-1.7-1-2.2c-1.1-0.7-2.3-1.2-3.6-1.5l-12.7-4.1
		c-1.5-0.4-2.8-1.2-3.9-2.3c-0.9-1-1.4-2.3-1.4-3.7c0.1-2.2,1.4-4.2,4-5.9c3.9-2.5,8.1-4.5,12.5-6.1h-0.9c-3.5,0.1-6.9-0.9-9.8-2.8
		c-2.5-1.8-3.8-4.7-3.5-7.7c0.1-3,1.1-5.9,2.8-8.3c2-2.9,4.7-5.3,7.8-6.9c3.7-1.9,7.9-2.7,12.1-2.5c2.4,0.1,4.7,0.5,7,1.2
		c1.1-1.5,2.6-2.7,4.2-3.5c1.6-0.9,3.3-1.3,5.1-1.3C1140.1,732.8,1141.6,733.3,1142.8,734.4z M1120.6,757.1
		c1.6-4.3,2.5-8.8,2.6-13.3c0.1-1.4-0.1-2.9-0.5-4.2c-0.3-1-1.2-1.6-2.3-1.5c-2,0.1-3.8,1.2-4.6,3c-1.5,2.4-2.5,5-3.1,7.7
		c-0.7,2.9-1.1,5.9-1.2,8.9c-0.2,1.4,0,2.8,0.6,4.1c0.4,0.8,1.2,1.3,2.1,1.3C1116.9,763,1119.1,761.1,1120.6,757.1z"/>
	<path d="M1175.3,777.5c-0.2,0.6-0.3,1.2-0.3,1.8c-0.1,0.7,0.2,1.5,0.7,2c0.5,0.5,1.3,0.7,2,0.7c1.5-0.1,2.9-0.8,3.9-1.9
		c1.5-1.7,2.6-3.7,3.3-5.8l1.4-3.7h1.7l-1.9,5.2c-2.4,7.1-6.9,10.6-13.6,10.6c-4.5,0.6-8.6-2.6-9.1-7c-0.1-0.7-0.1-1.3,0-2
		c0-1.8,0.3-3.7,0.9-5.4l9.4-31.7h-8.2l0.5-1.8h8.2l4-13.4c4.4,0,8.8-0.3,13.1-1.2l-4.4,14.7l10.2,0.1l-0.3,1.8h-10.5L1175.3,777.5z
		"/>
	<path d="M1235,739.2c1.3,1.4,2,3.3,2,5.3c0.1,2.5-0.8,4.8-2.4,6.7c-1.5,1.8-3.7,2.8-6.1,2.8c-1.5,0.1-3-0.4-4.1-1.4
		c-1-1.1-1.5-2.5-1.5-4c0-2.1,0.7-4.2,2.1-5.7c1.4-1.6,3.2-2.8,5.3-3.3c-0.2,0-0.4-0.1-0.5-0.1c-0.2-0.1-0.4-0.1-0.6-0.1
		c-3.1,0-6.2,2.3-9.4,6.7c-3.2,4.5-6.4,12.4-9.7,23.9l-3.9,15.5h-12.7l10.9-39.2c0.3-0.9,0.4-1.9,0.4-2.8c0-1.1-0.5-1.7-1.5-1.7
		c-1.2,0-2.4,0.6-3.1,1.6c-1.2,1.7-2.1,3.5-2.8,5.5l-1.6,4.6h-1.6l2.4-6.9c2.2-6.2,6.3-9.3,12.4-9.4c4.6,0,7,2.4,7,7.3
		c0,1.8-0.2,3.6-0.7,5.3l-0.8,3c2.2-5.7,4.4-9.8,6.8-12.1c2.2-2.3,5.2-3.5,8.3-3.5C1231.6,737.1,1233.6,737.8,1235,739.2z"/>
	<path d="M1266.5,756.9c-5.9,4-12.5,7-19.4,9c-0.3,2-0.5,4.1-0.4,6.2c0,3.2,0.6,5.4,1.9,6.8c1.4,1.4,3.3,2.1,5.2,1.9
		c2.2-0.1,4.4-0.8,6.3-1.9c2.6-1.4,4.9-3.4,6.8-5.7l1.5,0.7c-2.2,3.5-5.1,6.5-8.6,8.7c-3.6,2.4-7.8,3.7-12.2,3.7
		c-3.7,0.2-7.3-0.9-10.3-3.2c-2.7-2.3-4.3-5.8-4.1-9.3c0-5.8,1.4-11.5,4.1-16.7c2.7-5.6,6.7-10.6,11.6-14.4
		c4.6-3.7,10.4-5.8,16.3-5.9c2.4-0.1,4.8,0.5,6.8,1.7c1.7,1.2,2.8,3.1,2.7,5.2C1274.9,748.7,1272.1,753.1,1266.5,756.9z
		 M1257.4,742.2c-2.5,3-4.5,6.3-6,9.8c-1.8,3.9-3.1,8-4,12.2c3.6-1.5,6.9-3.6,9.8-6.2c2.3-2.1,4.2-4.7,5.6-7.5c1.3-2.8,2-5.9,1.9-9
		c0-0.8-0.1-1.6-0.4-2.3c-0.2-0.4-0.6-0.6-1.1-0.6C1261.5,738.5,1259.6,739.7,1257.4,742.2z"/>
	<path d="M1308.5,755.9c-5.9,4.1-12.4,7.2-19.3,9.2c-0.3,2-0.4,4.1-0.4,6.2c-0.2,2.4,0.5,4.8,1.9,6.7c1.4,1.4,3.3,2,5.2,1.8
		c2.2-0.1,4.4-0.8,6.3-1.9c2.6-1.5,4.9-3.5,6.7-5.8l1.5,0.7c-2.2,3.5-5.1,6.5-8.5,8.8c-3.6,2.4-7.8,3.8-12.1,3.8
		c-3.7,0.3-7.3-0.8-10.3-3.1c-2.8-2.3-4.3-5.7-4.2-9.3c0-5.8,1.3-11.5,3.9-16.7c2.6-5.7,6.5-10.6,11.4-14.5
		c4.6-3.8,10.4-5.9,16.3-6.1c2.4-0.2,4.8,0.4,6.8,1.6c1.8,1.2,2.8,3.1,2.8,5.2C1316.7,747.5,1314,752,1308.5,755.9z M1299.2,741.3
		c-2.4,3-4.4,6.3-5.9,9.8c-1.7,3.9-3,8-3.8,12.3c3.6-1.6,6.9-3.7,9.8-6.3c2.3-2.2,4.2-4.7,5.5-7.6c1.3-2.8,1.9-5.9,1.8-9
		c0-0.8-0.1-1.6-0.4-2.3c-0.2-0.4-0.6-0.6-1.1-0.6C1303.3,737.5,1301.3,738.8,1299.2,741.3L1299.2,741.3z"/>
	<path d="M1329.2,787.4c-2.4,3.5-5.7,6.3-9.6,8.2l-0.5-1.4c2.6-1.4,4.8-3.2,6.6-5.5c1.6-2,2.6-4.4,2.7-7c-1.4,1.7-3.4,2.7-5.5,2.8
		c-1.5,0.2-3-0.2-4.2-1.1c-1.1-0.9-1.7-2.2-1.6-3.6c-0.1-2.4,0.8-4.8,2.5-6.5c1.7-1.8,4.1-2.8,6.5-2.9c1.6-0.2,3.3,0.4,4.5,1.5
		c1.1,1.3,1.7,3,1.6,4.8C1332.5,780.5,1331.4,784.2,1329.2,787.4z"/>
	<path class="st3" d="M1491.2,1144.6c51.4-5.1,64.4-104.2,62.2-157.8c-1.7-42.7-10-90.6-45-115.1c-20.7-14.5-47-17.8-72.2-19
		c-133.9-5.9-264.5,38.9-397.9,52.3c-113.3,11.4-227.5,0-340.9-11.4c-83.5-8.3-152.2-27.9-237.9-36.1c-38,19.2-41.7,71-40.3,113.6
		c1.2,34.6,5.4,74.7,34.5,93.3c12,7.7,26.5,10.2,40.6,12.5c73.4,12,147.2,21.7,221.5,25.9c248.4,14,497.9-34.6,745.6-11.5
		c16.7,1.5,35.2,4.5,45.3,17.8S1507.6,1148,1491.2,1144.6z"/>
	<path d="M1491.2,1148.6c27.3-3.1,42.4-28.1,51.2-51.7c10.7-29.1,14.7-61.1,15.3-92c0.7-34.5-2.4-72-18.4-103.2
		c-8.1-16.3-20.9-29.7-36.8-38.6c-19.1-10.3-41.1-13.2-62.5-14.4c-98.5-5.4-195.8,17.7-292.1,35.6c-49.6,9.2-99.5,16.9-149.9,19.7
		c-51.9,2.9-104.1,1.6-156-1.8c-51.5-3.3-102.9-8-154.2-13.8c-47.1-5.3-93.5-14.7-140.1-22.8c-22.8-4-45.7-7.5-68.8-10.2
		c-6-0.7-12.4-2.1-18.4-2c-4.1,0.1-7.9,3-11.2,5.4c-6.4,4.7-11.9,10.4-16.3,17c-19.2,28.4-19.2,67-17.7,100c1.5,33.8,6.5,76,39.7,94
		c9.8,5.3,20.7,7.9,31.5,9.8c12.5,2.2,25.1,4.1,37.5,6c25,3.8,50,7.3,75.1,10.4c102,12.6,204.3,15.2,306.9,11.4
		c102-3.8,203.7-12.3,305.6-16.3c50.8-2,101.7-2.9,152.6-1.6c25.8,0.7,51.6,2,77.3,4c18.7,1.5,44.7,0.5,59.1,14.7
		c5.5,5.4,7.6,13.4,5.2,20.8c-1.8,6.2-6.5,12.7-13.7,11.5c-5.1-0.8-7.3,7-2.2,7.9c14.2,2.3,23.6-10,24.8-23.1
		c1.6-16.9-11.6-28.3-26.4-33.3c-9-3.1-18.6-4.1-28.1-5c-12.5-1.2-25-2.1-37.5-2.9c-25-1.6-50-2.6-75.1-3
		c-100.8-1.7-201.5,4.9-302.1,11c-100.2,6.1-200.7,11.7-301.1,7.9c-50.5-1.9-100.8-6.4-150.9-12.7c-25.5-3.3-50.9-6.9-76.2-10.8
		c-21.6-3.4-48-4.4-65.9-18.6c-14.2-11.3-20.9-28.8-24.3-46.1c-3.6-17.9-4.3-36.7-4.2-55.1c0-31.8,3.4-73.2,32.8-92.4
		c1.5-1.2,3.2-2.1,5.1-2.6c2.8-0.4,6.7,0.6,9.4,0.9c6,0.7,12.1,1.4,18.1,2.1c12,1.5,24,3.3,36,5.2c22.5,3.6,44.9,7.8,67.4,11.8
		c46.9,8.5,93.8,14.7,141.3,19.4c101.3,9.9,203.5,18,305.1,7.8c97.3-9.8,191.9-36.1,288.9-47.5c24.1-2.8,48.3-4.7,72.5-5.2
		c23.3-0.5,47.4-0.6,70.4,4.2c20.3,4.2,39,13.3,52.1,29.7c11.6,14.6,17.9,32.6,21.9,50.7c6.8,31.9,6.9,65.6,3.1,97.9
		c-3.3,28.5-9.5,61.4-27.7,84.4c-7.1,8.9-16.6,15.9-28.1,17.2C1486.1,1141.1,1486,1149.2,1491.2,1148.6z"/>
	<path d="M521.7,957.7c1.4,0.4,2.9,0.3,4.2-0.5c1.3-0.8,2.2-2.1,2.5-3.6c0.3-1.4,0.4-2.9,0.2-4.4c-0.3-1.9-0.8-3.7-1.4-5.5
		c-0.1-0.3-0.4-1.2-0.9-2.7c-0.5-1.3-0.8-2.7-0.9-4.1c-0.1-1.2,0-2.4,0.3-3.6c0.6-2.6,2.4-4.8,4.8-5.9c2.9-1.2,6.1-1.4,9.1-0.4
		c2.4,0.5,4.7,1.6,6.5,3.3c1.6,1.5,2.2,3.7,1.5,5.8c-0.3,1.2-0.9,2.2-1.8,3c-0.9,0.8-2.1,1.1-3.3,0.7c-1-0.2-1.8-0.9-2.2-1.9
		c-0.4-1-0.5-2.2-0.2-3.3c0.2-1,0.7-2,1.3-2.8c0.6-0.7,1.2-1.4,2-1.9c-0.6-0.6-1.3-0.9-2.1-1.1c-1.3-0.4-2.8-0.2-3.9,0.5
		c-1.2,0.9-2,2.2-2.4,3.6c-0.3,1.1-0.3,2.2-0.1,3.3c0.3,1.5,0.7,3,1.2,4.5l0.5,1.6c0.7,2,1.2,4.1,1.5,6.2c0.2,1.5,0.1,3-0.2,4.5
		c-0.4,1.8-1.4,3.4-2.7,4.6c-1.4,1.2-3.2,2.1-5,2.4c-2.2,0.4-4.5,0.2-6.6-0.3c-2.6-0.6-5-1.8-7-3.7c-1.7-1.7-2.3-4.1-1.5-6.3
		c0.3-1.2,0.9-2.2,1.8-3c1.4-1.2,3.4-1,4.6,0.4c0.3,0.3,0.5,0.7,0.6,1c0.4,1.2,0.5,2.5,0.1,3.8c-0.2,0.8-0.5,1.7-1,2.4
		c-0.5,0.8-1,1.7-1.6,2.4C520,957.2,520.8,957.6,521.7,957.7z"/>
	<path d="M553.3,960.2c-0.2,0.4-0.4,0.8-0.5,1.2c-0.2,0.5-0.1,1.1,0.2,1.5c0.3,0.4,0.8,0.7,1.3,0.8c1.1,0.2,2.2-0.1,3-0.7
		c1.3-1,2.4-2.2,3.3-3.6l1.5-2.4l1.2,0.3l-2.1,3.4c-2.8,4.6-6.6,6.4-11.3,5.3c-1.8-0.3-3.4-1.3-4.5-2.8c-0.8-1.5-1-3.3-0.6-4.9
		c0.3-1.3,0.8-2.5,1.5-3.7l11.6-20.9l-5.7-1.3l0.6-1.2l5.8,1.3l4.9-8.8c3.1,0.7,6.3,1.1,9.4,1.2l-5.4,9.7l7.2,1.6l-0.5,1.2l-7.4-1.6
		L553.3,960.2z"/>
	<path d="M597.7,964.5l1.2,0.2l-2.5,4.4c-1,1.9-2.6,3.4-4.6,4.4c-1.6,0.7-3.4,0.9-5.2,0.5c-1.9-0.2-3.5-1.3-4.3-2.9
		c-0.5-1.1-0.5-2.3-0.2-3.4c0.3-1.3,0.7-2.5,1.3-3.7c-1.6,2.4-3.7,4.4-6.2,5.9c-1.9,1-4.1,1.4-6.3,0.9c-2-0.3-3.8-1.4-4.9-3.2
		c-1-1.9-1.2-4.1-0.7-6.2c0.9-4.2,2.8-8.1,5.5-11.4c2.7-3.6,6-6.7,9.9-9.1c3.7-2.2,7-3,10-2.4c1,0.2,2,0.8,2.6,1.6
		c0.6,1,0.8,2.1,0.6,3.3l1.5-3c3.1,0.6,6.3,0.9,9.5,0.9l-14.2,26.8c-0.3,0.5-0.5,1.1-0.7,1.7c-0.2,0.9,0.1,1.5,0.9,1.6
		c1.5,0.3,3.2-1.1,5-4.2L597.7,964.5z M592.6,945.8c0.1-0.3,0.2-0.6,0.2-0.9c0.3-0.8,0.3-1.7,0-2.5c-0.2-0.6-0.8-1.1-1.5-1.2
		c-1.5-0.3-3.4,0.7-5.8,2.9c-2.7,2.6-4.9,5.6-6.7,8.8c-2,3.4-3.4,7.1-4.3,11c-0.3,1-0.3,2.1-0.2,3.1c0.1,0.6,0.6,1.1,1.2,1.2
		c1.3,0.1,2.6-0.4,3.5-1.3c1.7-1.4,3.3-3.1,4.5-4.9c1.8-2.6,3.4-5.3,4.7-8.2l-0.6,1.5L592.6,945.8z"/>
	<path d="M635.6,948.2c0.8,1.2,1,2.6,0.7,4c-0.3,1.8-1.2,3.3-2.6,4.4c-1.3,1.1-3,1.5-4.7,1.2c-1.1-0.1-2-0.7-2.7-1.5
		c-0.6-0.9-0.8-2-0.5-3c0.3-1.5,1.1-2.9,2.3-3.8c1.2-1,2.7-1.6,4.2-1.6c-0.1,0-0.3-0.1-0.4-0.2c-0.1-0.1-0.3-0.1-0.4-0.2
		c-2.2-0.4-4.7,0.8-7.5,3.6s-6.1,8-9.9,15.8l-4.7,10.5l-9.1-1.6l12.7-26.4c0.3-0.6,0.5-1.3,0.7-1.9c0.1-0.8-0.1-1.3-0.8-1.4
		c-0.9-0.1-1.8,0.2-2.4,0.8c-1.1,1.1-2,2.3-2.7,3.6l-1.8,3.1l-1.2-0.2l2.6-4.6c2.3-4.2,5.7-5.8,10.1-5.1c3.3,0.6,4.6,2.6,4,6.1
		c-0.2,1.3-0.6,2.5-1.2,3.7l-0.9,2c1.6-3,3.8-5.6,6.3-7.7c1.8-1.3,4.1-1.9,6.4-1.4C633.5,946.3,634.8,947.1,635.6,948.2z"/>
	<path d="M658.5,959.7c-0.9-1.6-1.3-3.5-1-5.3c0.1-1.2,0.7-2.3,1.6-3.1c0.9-0.7,2.1-0.9,3.3-0.7c1.4,0.1,2.6,1.1,3.1,2.5
		c0.5,1.8,0.6,3.8,0.1,5.6c-0.9,4.4-2.5,8.6-4.7,12.5c-2.1,3.8-5,7.1-8.6,9.6c-3.4,2.3-7.6,3.2-11.7,2.6c-3.3-0.5-5.5-1.6-6.7-3.3
		c-1.2-1.7-1.7-3.8-1.3-5.8c1.1-7.1,8.1-14.6,20.9-22.3c-1,0-2,0.1-2.9,0.5c-1.1,0.5-2.1,1-3.1,1.6c-0.8,0.5-1.6,1-2.5,1.4
		c-0.6,0.3-1.3,0.4-2,0.3c-0.7-0.2-1.4-0.5-1.9-0.9c-0.5-0.4-1-0.7-1.6-0.8c-0.6-0.1-1.1,0.1-1.5,0.5c-0.6,0.7-1.1,1.4-1.5,2.3
		l-0.8,1.6l-1.2-0.2l2.1-4.5c1.9-4.4,4.3-6.4,7.1-6c0.5,0,0.9,0.2,1.3,0.4c0.5,0.3,1,0.6,1.4,1c0.5,0.4,1.1,0.8,1.6,1.1
		c0.6,0.3,1.3,0.5,1.9,0.6c1.7,0.3,3.4,0,4.9-0.7l0.8-1.1l1.3,0.8c-3.8,4-7.1,8.4-9.8,13.2c-2.3,3.9-3.9,8.1-4.7,12.6
		c-0.3,1.2-0.2,2.5,0.2,3.7c0.3,0.8,1.1,1.4,2,1.5c2.6,0.4,5.3-0.3,7.4-1.9c2.5-1.8,4.7-4.1,6.3-6.7c1.7-2.6,3.1-5.4,4.1-8.4
		C660.8,962.8,659.5,961.4,658.5,959.7z"/>
	<path d="M676.1,957c0.1-0.9-0.2-1.4-1-1.5c-0.9-0.1-1.7,0.3-2.3,0.9c-1,1.1-1.8,2.3-2.5,3.7l-1.6,3.1l-1.2-0.1l2.4-4.7
		c2.2-4.3,5.4-6.1,9.8-5.5c1.6,0.1,3.1,0.8,4.2,2c0.8,1.2,1.1,2.6,0.9,4c-0.2,1.3-0.6,2.6-1.2,3.7l-9.3,19c-0.3,0.6-0.5,1.2-0.6,1.8
		c-0.2,0.6,0.2,1.3,0.8,1.5c0.1,0,0.2,0,0.3,0.1c0.8,0,1.6-0.3,2.1-0.9c1.1-1.1,2-2.4,2.6-3.8l1.5-3l1.2,0.2L680,982
		c-2.1,4.3-5.3,6.1-9.6,5.6c-3.9-0.5-5.7-2.5-5.2-6.1c0.3-1.7,0.8-3.3,1.6-4.8l8.6-17.8C675.8,958.3,676,957.6,676.1,957z
		 M682.4,938.9c1.5-0.9,3.2-1.3,4.9-1c1.3,0.1,2.5,0.6,3.4,1.5c0.8,0.8,1.1,2,0.9,3.1c-0.2,1.7-1.1,3.1-2.5,4c-1.5,1-3.3,1.4-5,1.1
		c-1.3-0.1-2.5-0.7-3.4-1.6c-0.8-0.9-1-2.1-0.7-3.3C680.2,941.1,681.1,939.7,682.4,938.9L682.4,938.9z"/>
	<path d="M720.9,981.6l-2.1,4.6c-2,4.3-5.1,6.2-9.4,5.8c-2,0-3.9-1-5-2.7c-0.5-1-0.7-2.1-0.5-3.1c0.3-1.8,0.8-3.4,1.6-5l7.6-16.9
		c0.4-0.9,0.7-1.8,0.9-2.7c0.1-1-0.3-1.5-1.1-1.6c-1.3-0.1-3,1-5.1,3.5c-2.5,3.1-4.7,6.4-6.6,9.9c-2.4,4.2-4.4,8.6-6.2,13.1
		l-1.2,3.2l-9.2-0.9l10.7-27.3c0.3-0.6,0.5-1.3,0.6-2c0.1-0.6-0.2-1.1-0.8-1.2c-0.1,0-0.2,0-0.2,0c-0.9-0.1-1.7,0.3-2.3,0.9
		c-1,1.1-1.8,2.4-2.4,3.8l-1.6,3.3l-1.2-0.1l2.3-4.7c0.8-1.9,2.1-3.6,3.8-4.8c1.6-0.9,3.4-1.3,5.2-1c3.7,0.4,5.4,2.3,5,5.9
		c-0.1,1.3-0.4,2.5-0.9,3.7l-2.8,7.7c1.7-3.5,3.8-6.7,6.2-9.8c1.5-1.9,3.3-3.5,5.5-4.7c1.8-0.8,3.7-1.2,5.7-0.9
		c3.9,0.4,5.7,2.3,5.3,5.8c-0.2,1.6-0.7,3.1-1.3,4.5l-8.3,18.5c-0.3,0.6-0.5,1.2-0.6,1.8c-0.1,0.9,0.3,1.4,1.1,1.5
		c0.8,0,1.6-0.3,2.2-0.9c1-1.1,1.9-2.4,2.4-3.8l1.5-3L720.9,981.6z"/>
	<path d="M758.5,958.5c0.7,0.9,1,2,0.9,3.1c0,1-0.4,2-1.1,2.7c-0.6,0.6-1.4,1-2.2,0.9c-0.9-0.1-1.7-0.5-2.2-1.2
		c-0.6-0.8-0.9-1.8-0.8-2.9c0.1-1,0.4-1.9,0.8-2.8c-1.6,0.5-3,1.4-4.1,2.6c1,0.6,1.9,1.5,2.4,2.6c0.5,1.2,0.8,2.5,0.6,3.7
		c-0.2,1.9-0.8,3.7-1.9,5.3c-1.2,1.8-2.8,3.3-4.7,4.4c-2,1.2-4.3,2-6.7,2.2c-1.9,0.6-3.7,1.4-5.4,2.2c-1.1,0.6-1.6,1.2-1.7,1.8
		c0,0.4,0.2,0.9,0.6,1.1c0.7,0.4,1.4,0.8,2.2,1l5.3,2.2c1.9,0.8,3.7,1.8,5.2,3.1c1.2,1.1,1.9,2.8,1.6,4.5c-0.2,2.2-1.4,4.2-3.1,5.6
		c-2.2,1.8-4.8,3-7.6,3.6c-3.2,0.8-6.6,1.1-9.9,0.8c-2.9-0.1-5.7-0.8-8.4-2c-2.2-1.1-3.3-2.4-3.1-3.9c0.1-1.5,1.4-2.7,3.9-3.6
		c2.7-0.9,5.6-1.4,8.4-1.5l0.2,1c-2.8,1.3-4.3,2.9-4.4,4.9c-0.2,1.1,0.3,2.2,1.2,2.9c1.1,0.8,2.4,1.2,3.7,1.2
		c1.7,0.1,3.4-0.1,5.1-0.6c1.7-0.4,3.2-1.2,4.6-2.2c1.1-0.7,1.9-1.9,2-3.3c0.1-0.6-0.1-1.3-0.6-1.6c-0.8-0.5-1.7-0.9-2.6-1.2l-9-3.4
		c-1-0.4-2-1-2.7-1.8c-0.6-0.7-1-1.7-0.9-2.7c0.3-1.8,1.4-3.4,3.1-4.2c2.9-1.6,6-2.9,9.2-3.9h-0.7c-2.5-0.1-4.9-0.9-6.9-2.4
		c-1.7-1.4-2.6-3.5-2.3-5.7c0.2-2.1,1-4.2,2.3-5.9c1.5-2.1,3.5-3.7,5.9-4.7c4.4-1.8,9.3-1.9,13.8-0.3c0.9-1,1.9-1.8,3.2-2.4
		c1.2-0.6,2.5-0.8,3.8-0.7C756.6,957.3,757.7,957.7,758.5,958.5z M741.8,974.1c1.3-3,2.1-6.3,2.3-9.5c0.1-1,0.1-2.1-0.2-3.1
		c-0.2-0.7-0.9-1.2-1.6-1.2c-1.4,0-2.8,0.8-3.5,2c-1.1,1.7-2,3.5-2.5,5.5c-0.6,2.1-1,4.2-1.2,6.4c-0.1,1,0,2,0.3,3
		c0.3,0.6,0.9,1,1.5,1C738.9,978.3,740.5,976.9,741.8,974.1z"/>
	<path d="M780.4,990.5c-0.1,0.4-0.2,0.8-0.2,1.3c-0.1,0.5,0.1,1.1,0.5,1.5c0.4,0.4,0.9,0.6,1.4,0.6c1.1,0,2.1-0.5,2.8-1.3
		c1.1-1.2,2-2.6,2.6-4.1l1.1-2.6h1.2l-1.5,3.7c-1.9,5-5.3,7.5-10.1,7.2c-1.8,0-3.6-0.7-4.9-2c-1.1-1.3-1.6-3.1-1.5-4.8
		c0.1-1.3,0.3-2.6,0.8-3.9l7.7-22.5l-5.9-0.3l0.4-1.3l5.9,0.3l3.3-9.6c3.2,0.2,6.4,0,9.5-0.5l-3.6,10.5l7.4,0.3l-0.3,1.3l-7.6-0.4
		L780.4,990.5z"/>
	<path d="M796.1,975.7c1.7-3.8,4.2-7,7.5-9.5c3.3-2.5,7.4-3.8,11.6-3.6c2.9-0.1,5.7,1,7.7,3c1.9,2.2,2.8,5.1,2.5,8.1
		c-0.2,3.8-1.1,7.6-2.8,11.1c-1.7,3.7-4.3,7-7.5,9.5c-3.3,2.5-7.4,3.8-11.6,3.6c-2.9,0.1-5.7-1-7.7-3c-1.9-2.2-2.8-5.1-2.5-8.1
		C793.5,983,794.4,979.2,796.1,975.7z M809.3,968.4c-2.2,3.5-3.9,7.3-5.1,11.2c-1.3,4-2.1,8.2-2.3,12.5c-0.1,1.2,0,2.3,0.4,3.4
		c0.3,0.7,0.9,1.1,1.6,1.1c1.6,0,3.4-1.5,5.4-4.4c2.2-3.4,3.9-7.2,5.1-11.1c1.4-4.1,2.2-8.4,2.3-12.7c0.1-1.2,0-2.4-0.4-3.6
		c-0.3-0.7-0.9-1.1-1.6-1.1C813.2,963.9,811.3,965.4,809.3,968.4z"/>
	<path d="M876.7,987h1.2l-1.6,4.8c-0.8,4-4.5,6.9-8.6,6.8c-2.7,0-4.4-1-5.2-3c-0.4-0.9-0.5-1.8-0.5-2.7c0-1.6,0.3-3.1,0.8-4.6V988
		c-1.2,3-2.9,5.8-5.2,8.2c-1.8,1.7-4.2,2.6-6.6,2.6c-2.1,0.1-4.1-0.7-5.6-2.3c-1.6-1.9-2.4-4.4-2.2-6.9c0.1-4,1-7.9,2.7-11.5
		c1.7-4.1,4.3-7.7,7.6-10.6c3.1-2.8,7.1-4.4,11.3-4.4c1.7-0.3,3.4,0.6,4.1,2.2l2.9-11.1c0.2-0.6,0.3-1.2,0.3-1.8
		c0-0.8-0.3-1.5-1-1.9c-1.1-0.5-2.3-0.7-3.4-0.6l0.4-1.4c2.7,0,5.5-0.3,8.2-0.8c2.4-0.4,4.8-1.1,7.1-2l-12.5,46.4
		c-0.2,0.6-0.3,1.2-0.3,1.8c0,1,0.4,1.5,1.2,1.5c0.8-0.1,1.5-0.5,2-1.2c0.9-1.2,1.6-2.6,2-4L876.7,987z M868.4,966.9
		c-0.5-1.5-1.4-2.3-2.6-2.3c-1.9,0-3.8,1.3-5.8,4c-2.2,3.1-3.9,6.5-5,10.2c-1.3,3.9-2,8-2,12.2c-0.1,1.2,0.1,2.3,0.5,3.4
		c0.2,0.7,0.9,1.1,1.6,1.1c1.2-0.2,2.3-0.9,3.1-1.9c1.4-1.7,2.7-3.6,3.7-5.6c1.4-2.8,2.6-5.7,3.4-8.7L868.4,966.9z"/>
	<path d="M904.6,976.9c-4.3,2.9-9,5.2-13.9,6.6c-0.2,1.5-0.3,3-0.3,4.4c-0.1,1.7,0.4,3.5,1.4,4.9c1,1,2.4,1.5,3.8,1.3
		c1.6-0.1,3.1-0.6,4.5-1.4c1.9-1.1,3.6-2.5,4.9-4.2l1.1,0.5c-1.6,2.5-3.7,4.7-6.1,6.4c-2.6,1.8-5.6,2.7-8.8,2.8
		c-2.7,0.2-5.3-0.6-7.4-2.2c-2-1.6-3.1-4.1-3-6.7c0-4.2,0.9-8.3,2.8-12.1c1.9-4.1,4.7-7.7,8.3-10.5c3.3-2.7,7.5-4.3,11.8-4.4
		c1.7-0.1,3.4,0.3,4.9,1.2c1.3,0.8,2,2.2,2,3.8C910.5,970.9,908.5,974.1,904.6,976.9z M897.8,966.4c-1.8,2.1-3.2,4.5-4.3,7.1
		c-1.3,2.8-2.2,5.8-2.8,8.9c2.6-1.1,5-2.7,7.1-4.6c1.7-1.6,3-3.4,4-5.5c0.9-2,1.4-4.3,1.3-6.5c0-0.6-0.1-1.1-0.3-1.6
		c-0.2-0.3-0.5-0.4-0.8-0.4C900.3,963.9,898.8,964.9,897.8,966.4L897.8,966.4z"/>
	<path d="M942.8,984.8h1.2l-1.4,4.9c-0.5,2.1-1.7,4-3.4,5.4c-1.4,1-3.1,1.7-4.9,1.7c-1.8,0.3-3.7-0.4-4.9-1.8
		c-0.7-0.9-1.1-2.1-1.1-3.3c0-1.3,0.1-2.6,0.4-3.9c-1,2.7-2.5,5.2-4.6,7.2c-1.6,1.5-3.7,2.3-5.9,2.4c-2,0.2-4.1-0.5-5.5-1.9
		c-1.4-1.6-2.1-3.7-2.1-5.8c-0.1-4.3,0.8-8.5,2.5-12.4c1.7-4.2,4.2-8,7.4-11.2c2.3-2.7,5.6-4.4,9.1-4.8c1-0.1,2.1,0.2,2.9,0.9
		c0.8,0.8,1.2,1.8,1.3,2.9l0.8-3.3c3.2-0.2,6.3-0.6,9.4-1.4l-7.2,29.5c-0.2,0.6-0.2,1.2-0.2,1.8c0,1,0.5,1.4,1.3,1.4
		c1.5-0.1,2.8-1.8,3.8-5.3L942.8,984.8z M933.4,967.9c0-0.3,0-0.7,0-1c0-0.9-0.2-1.7-0.7-2.4c-0.4-0.5-1-0.8-1.6-0.8
		c-1.5,0-3.1,1.5-4.9,4.2c-2,3.2-3.4,6.6-4.4,10.2c-1.1,3.8-1.6,7.7-1.5,11.7c0,1.1,0.2,2.1,0.6,3.1c0.2,0.6,0.8,0.9,1.4,0.9
		c1.3-0.2,2.4-1,3.1-2.1c1.3-1.8,2.4-3.8,3.3-5.9c1.1-2.9,2-5.9,2.6-9l-0.3,1.6L933.4,967.9z"/>
	<path d="M957.6,988.9c-0.1,0.4-0.1,0.9-0.1,1.3c0,0.5,0.2,1.1,0.6,1.4c0.4,0.3,0.9,0.5,1.5,0.4c1.1-0.1,2.1-0.7,2.7-1.6
		c1-1.3,1.7-2.8,2.1-4.3l0.8-2.7h1.2l-1.1,3.9c-1.4,5.2-4.5,8-9.3,8.3c-1.8,0.2-3.7-0.3-5.1-1.4c-1.2-1.2-2-2.9-2-4.6
		c-0.1-1.3,0.1-2.6,0.4-3.9l5.2-23.3l-5.9,0.4l0.2-1.3l5.9-0.4l2.2-9.9c3.2-0.2,6.3-0.7,9.4-1.5l-2.4,10.8l7.4-0.5l-0.1,1.3
		l-7.6,0.5L957.6,988.9z"/>
	<path d="M1003.4,980.6l-1.3,4.9c-1.2,4.6-3.9,7-8.2,7.4c-3.9,0.3-6.1-1.3-6.3-4.9c-0.1-1.7,0.1-3.5,0.6-5.2l4.4-17.9
		c0.3-0.9,0.4-1.9,0.4-2.9c0-1-0.5-1.4-1.3-1.3c-1.2,0.1-2.6,1.3-4.1,3.7c-1.8,3-3.3,6.2-4.4,9.5c-1.5,4.2-2.8,8.5-3.8,12.9
		l-1.1,5.6c0,0.1,0,0.1,0,0.2l0,0l-0.1,0.7L969,994l9.5-44.4c0.1-0.6,0.2-1.2,0.2-1.8c0-0.8-0.4-1.5-1.1-1.8
		c-1.1-0.4-2.3-0.5-3.5-0.3l0.3-1.4c2.8-0.2,5.5-0.7,8.2-1.4c2.4-0.6,4.7-1.4,6.9-2.5l-6.5,31c1.2-3.9,3.1-7.6,5.8-10.7
		c1.8-2,4.4-3.2,7.1-3.4c1.6-0.3,3.3,0.1,4.6,1.1c1,1,1.6,2.3,1.6,3.7c0.1,1.6-0.1,3.2-0.6,4.7l-4.9,19.7c-0.2,0.6-0.3,1.3-0.2,1.9
		c-0.1,0.6,0.4,1.2,1.1,1.3c0.1,0,0.2,0,0.3,0c1.4-0.1,2.6-1.9,3.6-5.4l0.9-3.3L1003.4,980.6z"/>
	<path d="M1015.5,993.4c-1.6,2.6-3.8,4.8-6.5,6.2l-0.4-1c1.8-1.1,3.3-2.5,4.6-4.3c1.1-1.5,1.7-3.3,1.6-5.2c-0.9,1.3-2.3,2.1-3.9,2.3
		c-1.1,0.2-2.2-0.1-3.1-0.6c-0.8-0.6-1.3-1.5-1.3-2.5c-0.2-1.7,0.4-3.5,1.6-4.8c1.1-1.4,2.8-2.2,4.6-2.3c1.2-0.2,2.4,0.2,3.3,0.9
		c0.9,0.9,1.4,2.1,1.4,3.4C1017.7,988.3,1017,991,1015.5,993.4z"/>
	<path d="M1034.5,999.5c2.2-0.3,4.1-1.5,5.5-3.3c1.6-2.3,2.6-4.9,2.8-7.7l4.9-30.1c0.1-0.7,0.2-1.4,0.2-2.1
		c-0.1-0.8-0.5-1.2-1.3-1.1c-0.8,0.2-1.6,0.7-2,1.4c-0.8,1.3-1.3,2.7-1.6,4.1l-0.9,3.4l-1.2,0.1l1.2-5.1c0.4-2.1,1.4-4.1,3.1-5.5
		c1.5-1.2,3.3-2,5.2-2.2c3.7-0.4,5.8,1.1,6.1,4.5c0.1,1.3,0.1,2.7-0.2,4l-3.3,19.9c-0.3,3.2-1.1,6.3-2.3,9.3c-1,2.4-2.5,4.6-4.4,6.4
		c-3.4,2.9-7.6,4.6-12.1,4.9L1034.5,999.5z M1049.8,937.5c1.2-1.3,2.9-2.1,4.6-2.2c1.3-0.2,2.6,0,3.7,0.7c1,0.6,1.6,1.6,1.6,2.8
		c0.2,1.6-0.3,3.3-1.5,4.5c-1.2,1.3-2.8,2.1-4.6,2.3c-1.2,0.2-2.5,0-3.6-0.6c-0.9-0.6-1.5-1.6-1.5-2.8
		C1048.2,940.5,1048.7,938.8,1049.8,937.5z"/>
	<path d="M1094.9,970.5l1.2-0.1l-1.1,5.1c-0.3,2.1-1.3,4.1-2.9,5.6c-1.4,1.2-3.1,2-4.9,2.2c-1,0.2-2.1,0.1-3.1-0.2
		c-0.8-0.2-1.5-0.7-2-1.4c-0.5-0.8-0.8-1.7-0.9-2.6c-0.1-1.4-0.1-2.9,0.1-4.3l0.9-6.9c-0.9,3.5-2.1,6.9-3.7,10.1
		c-1,2.1-2.4,3.9-4.1,5.4c-1.5,1.1-3.3,1.9-5.2,2.1c-1.6,0.3-3.2,0-4.5-0.8c-1.2-0.9-1.9-2.3-1.9-3.8c-0.2-1.5-0.1-3.1,0.3-4.6
		l3.9-19.9c0.1-0.6,0.2-1.3,0.2-1.9c-0.1-0.9-0.6-1.3-1.4-1.2c-0.8,0.2-1.5,0.7-1.9,1.4c-0.8,1.3-1.3,2.8-1.5,4.3l-0.8,3.3l-1.2,0.1
		l1-4.9c1-4.6,3.6-7.2,7.8-7.7c3.9-0.5,6.1,1.1,6.5,4.6c0.1,1.7,0,3.4-0.3,5l-3.7,18.2c-0.2,0.9-0.3,1.9-0.2,2.9
		c0.1,1,0.6,1.4,1.4,1.3c1.3-0.2,2.7-1.6,4.1-4.4c1.7-3.5,3.1-7.1,4.1-10.8c1.3-4.7,2.3-9.4,3.1-14.2l0.5-3.8
		c3.1-0.4,6.3-1.1,9.3-2.1l-4.5,29.9c-0.1,0.7-0.2,1.5-0.1,2.2c0,0.5,0.4,1,1,1c0.1,0,0.2,0,0.3,0c0.9-0.1,1.6-0.7,2.1-1.4
		c0.7-1.3,1.2-2.7,1.5-4.2L1094.9,970.5z"/>
	<path d="M1107.3,979.2c1.5-0.1,2.8-0.9,3.7-2c0.9-1.2,1.2-2.8,0.9-4.3c-0.2-1.5-0.7-2.9-1.5-4.1c-1-1.6-2.1-3.2-3.4-4.6l-1.8-2.1
		c-0.9-1-1.7-2.2-2.4-3.5c-0.6-1.1-0.9-2.2-1.1-3.4c-0.4-2.6,0.4-5.3,2.2-7.3c2.2-2.2,5.1-3.6,8.3-3.8c2.4-0.4,4.9-0.2,7.2,0.5
		c2.1,0.8,3.5,2.7,3.5,4.9c0.2,1.2,0,2.4-0.6,3.4c-0.5,1.1-1.5,1.8-2.7,1.9c-1,0.2-2-0.2-2.8-0.9c-0.8-0.8-1.3-1.9-1.4-3
		c-0.1-1-0.1-2.1,0.2-3.1c0.2-0.9,0.6-1.8,1.1-2.5c-0.7-0.3-1.6-0.4-2.3-0.2c-1.4,0.1-2.6,0.8-3.4,2c-0.8,1.3-1.1,2.8-0.8,4.2
		c0.1,1.1,0.5,2.1,1.1,3.1c0.9,1.3,1.8,2.5,2.9,3.7l1.1,1.2c1.4,1.6,2.6,3.4,3.7,5.2c0.8,1.3,1.3,2.8,1.5,4.3c0.3,1.8,0,3.6-0.8,5.3
		c-0.8,1.7-2.1,3.1-3.8,4.1c-4.3,2.5-9.4,3-14.1,1.5c-2.2-0.9-3.7-3-3.8-5.3c-0.2-1.2,0-2.4,0.5-3.4c0.8-1.6,2.8-2.2,4.4-1.4
		c0.4,0.2,0.7,0.4,0.9,0.7c0.9,1,1.4,2.2,1.5,3.5c0.1,0.9,0.1,1.7,0,2.6c-0.1,0.8-0.3,1.7-0.6,2.9
		C1105.6,979.3,1106.4,979.3,1107.3,979.2z"/>
	<path d="M1136.9,969.8c-0.1,0.4-0.1,0.9,0,1.3c0,0.5,0.3,1,0.7,1.4c0.4,0.3,1,0.4,1.5,0.3c1.1-0.2,2-0.9,2.5-1.8
		c0.9-1.4,1.5-2.9,1.7-4.5l0.6-2.8l1.2-0.2l-0.7,3.9c-0.9,5.3-3.8,8.3-8.5,9.1c-1.8,0.4-3.7,0.1-5.2-1c-1.3-1.1-2.2-2.7-2.3-4.4
		c-0.2-1.3-0.2-2.7,0-4l3.1-23.7l-5.8,0.9l0.1-1.3l5.9-0.9l1.3-10c3.1-0.5,6.2-1.2,9.2-2.3l-1.5,11l7.3-1.1v1.3l-7.5,1.1
		L1136.9,969.8z"/>
	<path d="M1192.1,934c1.9,1.9,3,4.4,3.3,7c0.6,3.9,0.4,7.8-0.6,11.6c-0.9,4.1-2.8,7.9-5.4,11.1c-2.4,3.1-5.9,5.2-9.8,5.8
		c-1.1,0.2-2.3,0.2-3.4-0.1c-1-0.3-1.9-0.8-2.5-1.6c-1.3,0.3-2.5,0.8-3.7,1.5c-1.3,0.7-2.7,1.6-4.3,2.7l-1-0.3
		c0.4-1.3,0.6-2.7,0.7-4l4.9-41.7c0.1-0.6,0.1-1.2,0-1.9c-0.1-0.7-0.6-1.4-1.3-1.6c-1.1-0.3-2.3-0.3-3.4,0l0.2-1.4
		c2.7-0.5,5.3-1.1,7.8-2c2.3-0.8,4.5-1.9,6.5-3.1l-3.1,27.3c0.7-2.8,2-5.4,3.7-7.8c1.2-1.6,3-2.7,5-3.1
		C1188,931.9,1190.4,932.5,1192.1,934z M1182.7,962.9c1.6-3.5,2.6-7.2,3-10.9c0.6-3.8,0.6-7.6,0-11.4c-0.1-1.2-0.5-2.3-1.1-3.3
		c-0.4-0.6-1.1-0.9-1.8-0.8c-1.2,0.2-2.4,1.5-3.5,3.9c-1.3,2.9-2.2,5.9-2.8,9l-2,17.8c0.9,0.8,2,1.1,3.1,0.9
		C1179.5,967.7,1181.2,966,1182.7,962.9z"/>
	<path d="M1221.7,940.9c-3.8,3.6-8.1,6.5-12.7,8.7c0,1.5,0.1,3,0.4,4.4c0.2,1.7,0.9,3.4,2.1,4.6c1.1,0.8,2.6,1.1,3.9,0.8
		c1.6-0.4,3-1.1,4.3-2.1c1.7-1.3,3.1-3,4.2-4.9l1.1,0.3c-1.2,2.8-2.9,5.2-5.1,7.2c-2.3,2.1-5.1,3.5-8.2,4.1
		c-2.6,0.6-5.3,0.2-7.7-1.1c-2.2-1.3-3.7-3.6-4-6.2c-0.7-4.1-0.3-8.4,0.9-12.4c1.2-4.3,3.5-8.3,6.5-11.6c2.9-3.2,6.7-5.4,10.9-6.1
		c1.7-0.4,3.5-0.2,5.1,0.4c1.4,0.6,2.3,1.9,2.5,3.4C1226.6,934.1,1225.2,937.5,1221.7,940.9z M1213.5,931.5c-1.4,2.4-2.5,5-3.1,7.6
		c-0.8,3-1.3,6.1-1.4,9.2c2.4-1.5,4.5-3.4,6.3-5.6c1.4-1.8,2.5-3.8,3.1-6c0.6-2.2,0.7-4.4,0.3-6.7c-0.1-0.6-0.2-1.1-0.6-1.6
		c-0.2-0.3-0.5-0.4-0.9-0.3C1216,928.4,1214.7,929.5,1213.5,931.5z"/>
	<path d="M1242.4,927c-1.7,3.1-2.7,6.4-3.1,9.9c-0.5,3.9-0.4,7.9,0.3,11.7c0.8,4.3,2.8,6.1,6.1,5.5c3.1-0.6,5.5-3,7.4-7.3l1.4,0.3
		c-1,2.7-2.6,5.2-4.7,7.3c-2.1,2.1-4.7,3.5-7.6,4c-2.7,0.7-5.5,0.3-7.9-1.1c-2.3-1.5-3.9-4-4.2-6.8c-1.3-8.3,1-16.8,6.4-23.2
		c2.7-3.2,6.5-5.3,10.6-6.1c2-0.5,4.1-0.2,6,0.7c1.6,0.8,2.7,2.2,3,4c0.2,1.2,0.2,2.4-0.2,3.6c-0.3,1.2-0.9,2.3-1.8,3.1
		c-0.8,0.8-1.9,1.4-3,1.6c-1,0.2-2,0-2.8-0.5c-0.8-0.6-1.4-1.5-1.5-2.5c-0.3-1.6,0-3.4,0.9-4.8c0.8-1.4,2.1-2.6,3.6-3.3
		c-0.9-0.7-2.1-1-3.3-0.7C1245.5,923.1,1243.5,924.8,1242.4,927z"/>
	<path d="M1290.3,937.1l1.2-0.2l-0.7,5c-0.2,2.2-1.1,4.2-2.5,5.8c-1.2,1.3-2.8,2.2-4.6,2.5c-1.8,0.5-3.7,0.2-5.1-1
		c-0.8-0.8-1.4-1.9-1.5-3c-0.2-1.3-0.3-2.6-0.2-3.9c-0.5,2.8-1.7,5.5-3.4,7.8c-1.4,1.7-3.3,2.8-5.4,3.3c-2,0.5-4.1,0.2-5.8-1
		c-1.6-1.4-2.7-3.3-3-5.4c-0.8-4.2-0.6-8.6,0.6-12.7c1-4.4,2.9-8.5,5.5-12.2c1.9-3,4.8-5.2,8.3-6.2c1-0.2,2.1-0.1,3,0.5
		c0.9,0.7,1.6,1.7,1.9,2.8l0.3-3.3c3.1-0.6,6.2-1.6,9.1-2.9l-2.6,30.2c-0.1,0.6-0.1,1.2,0,1.9c0.2,0.9,0.7,1.3,1.5,1.2
		c1.5-0.3,2.5-2.3,2.9-5.9L1290.3,937.1z M1278.4,921.8c0-0.3-0.1-0.7-0.1-1c-0.1-0.9-0.5-1.7-1-2.3c-0.5-0.5-1.1-0.7-1.8-0.5
		c-1.5,0.3-2.8,1.9-4.2,4.9c-1.4,3.4-2.4,7.1-2.7,10.8c-0.5,3.9-0.4,7.9,0.4,11.8c0.2,1,0.5,2,1,3c0.3,0.6,1,0.8,1.6,0.7
		c0.9-0.2,1.8-1.1,2.7-2.6c1-2,1.8-4.1,2.3-6.3c0.7-3.1,1.1-6.2,1.2-9.3v1.6L1278.4,921.8z"/>
	<path d="M1328.3,928.8l1.2-0.3l-0.7,5.2c-0.2,2.1-1,4.2-2.4,5.8c-1.3,1.3-2.9,2.2-4.7,2.6c-1,0.2-2,0.2-3.1,0
		c-0.8-0.2-1.6-0.6-2.1-1.2c-0.6-0.7-0.9-1.6-1.1-2.5c-0.2-1.4-0.3-2.9-0.3-4.3l0.3-6.9c-0.6,3.5-1.5,7-2.8,10.4
		c-0.8,2.2-2,4.1-3.6,5.8c-1.4,1.3-3.1,2.1-5,2.5c-1.5,0.4-3.2,0.3-4.6-0.4c-1.2-0.8-2.1-2.1-2.3-3.6c-0.3-1.5-0.3-3.1-0.1-4.6
		l2.2-20.1c0.1-0.6,0.1-1.3,0-1.9c-0.2-0.9-0.7-1.3-1.5-1.1c-0.8,0.2-1.4,0.8-1.8,1.5c-0.7,1.4-1,2.9-1.2,4.4l-0.5,3.3l-1.2,0.3
		l0.6-5c0.6-4.7,3-7.5,7.1-8.4c3.9-0.8,6.2,0.5,6.9,4c0.3,1.7,0.4,3.4,0.1,5l-2,18.5c-0.2,0.9-0.2,1.9,0,2.9c0.2,1,0.7,1.4,1.5,1.2
		c1.3-0.3,2.5-1.8,3.7-4.7c1.4-3.6,2.5-7.3,3.1-11.1c0.9-4.8,1.5-9.6,1.8-14.4l0.2-3.8c3.1-0.7,6.1-1.6,9.1-2.9l-1.9,30.2
		c-0.1,0.7-0.1,1.5,0,2.2c0,0.5,0.5,0.9,1,0.9c0.1,0,0.2,0,0.3-0.1c0.9-0.2,1.6-0.8,1.9-1.6c0.6-1.4,1-2.8,1.1-4.3L1328.3,928.8z"/>
	<path d="M1341.4,936.5c1.5-0.3,2.7-1.1,3.6-2.3c0.8-1.3,1-2.9,0.6-4.3c-0.3-1.4-1-2.8-1.8-4c-1.1-1.6-2.4-3-3.8-4.3l-2-2
		c-1-1-1.9-2.1-2.7-3.3c-0.6-1-1.1-2.1-1.4-3.3c-0.6-2.6,0-5.3,1.6-7.4c2-2.4,4.8-4,7.9-4.5c2.4-0.6,4.9-0.6,7.2,0
		c2.1,0.6,3.6,2.4,3.9,4.5c0.3,1.2,0.2,2.4-0.3,3.5c-0.4,1.1-1.4,1.9-2.5,2.1c-1,0.3-2,0-2.8-0.7c-0.9-0.7-1.4-1.7-1.6-2.8
		c-0.2-1-0.3-2.1-0.1-3.1c0.2-0.9,0.5-1.8,0.9-2.6c-0.8-0.2-1.6-0.2-2.3,0c-1.4,0.2-2.6,1.1-3.3,2.3c-0.7,1.3-0.8,2.8-0.5,4.3
		c0.2,1.1,0.7,2.1,1.4,3c1,1.2,2,2.3,3.1,3.4l1.2,1.1c1.5,1.5,2.9,3.2,4.1,4.9c0.9,1.3,1.5,2.7,1.8,4.1c0.4,1.8,0.3,3.6-0.3,5.3
		c-0.7,1.8-1.9,3.3-3.4,4.4c-4.1,2.9-9.1,3.8-14,2.6c-2.2-0.7-3.9-2.6-4.2-4.9c-0.3-1.2-0.2-2.4,0.2-3.5c0.4-1,1.3-1.7,2.3-1.9
		c1.1-0.3,2.2,0,3,0.8c0.9,0.9,1.5,2,1.8,3.3c0.2,0.8,0.3,1.7,0.2,2.6c0,0.8-0.2,1.8-0.3,2.9
		C1339.8,936.8,1340.6,936.7,1341.4,936.5z"/>
	<path d="M1380.4,907.5c-3.6,3.7-7.8,6.9-12.3,9.3c0.1,1.5,0.3,3,0.6,4.4c0.2,1.7,1.1,3.3,2.3,4.5c1.2,0.8,2.6,1,4,0.6
		c1.5-0.4,3-1.2,4.2-2.3c1.6-1.4,3-3.2,3.9-5.1l1.1,0.3c-1,2.8-2.6,5.4-4.7,7.5c-2.2,2.2-5,3.8-8,4.5c-2.6,0.7-5.3,0.5-7.7-0.7
		c-2.3-1.2-3.9-3.4-4.3-6c-0.9-4.1-0.7-8.4,0.3-12.4c1.1-4.4,3.1-8.5,6-11.9c2.7-3.3,6.5-5.7,10.7-6.6c1.7-0.5,3.4-0.4,5.1,0.2
		c1.4,0.6,2.4,1.8,2.7,3.3C1385,900.4,1383.7,904,1380.4,907.5z M1371.7,898.5c-1.3,2.4-2.2,5.1-2.8,7.8c-0.7,3-1,6.1-0.9,9.2
		c2.3-1.6,4.3-3.6,6-5.9c1.3-1.9,2.3-4,2.8-6.2c0.5-2.2,0.5-4.5,0-6.7c-0.1-0.6-0.3-1.1-0.6-1.6c-0.2-0.3-0.6-0.4-0.9-0.3
		C1374,895.2,1372.8,896.4,1371.7,898.5z"/>
	<path d="M1419.7,914.9c0.1,0.8,0.6,1.4,1.3,1.6c1.2,0.1,2.4,0,3.5-0.2v1.3c-2.5,0.5-6,1.2-10.4,2.3c-4.4,1.1-7.7,1.9-9.9,2.6v-1.3
		c1.1-0.3,2.2-0.7,3.3-1.3c0.7-0.4,1.2-1.1,1.4-1.9c0.3-1.2,0.5-2.5,0.5-3.8l0.8-33.5c0-1.1,0-2.1-0.2-3.2c-0.1-0.8-0.6-1.4-1.4-1.6
		c-1.2-0.1-2.3,0-3.5,0.2v-1.3c2.1-0.4,5.4-1.1,10-2.2c4.2-1,7.6-1.9,10.4-2.7v1.4c-1.1,0.3-2.2,0.8-3.3,1.3
		c-0.7,0.4-1.2,1.1-1.4,1.9c-0.3,1.2-0.5,2.5-0.5,3.8l-0.8,33.5C1419.5,912.8,1419.6,913.9,1419.7,914.9z"/>
	<path class="st3" d="M458,1118.1c-40.5,48.1-47.9,115.4-48.6,178.3c-0.6,52.9,3.9,110,37.4,150.9c21.4,26.1,52.4,42.6,83.7,55.3
		c107,43.6,224.8,51.2,337.2,78.3c63,15.1,124.3,36.4,185.5,57.6c33.3,11.5,66.8,23.1,101.7,27.5c46.3,5.8,93.3-1.3,139.7,3.9
		c89.6,10,172.2,69,210.7,150.5c9.8,20.8,17.4,43.5,33.7,59.8c14.7,14.7,34.9,22.4,54.4,29.7l86.1,32.1
		c-39.6-43.8-66.6-97.6-78-155.6c90.2,13.7,161.7,98.4,253,97.5c-88.5-63.4-178.7-128.5-241.5-217.4
		c-44.5-63.1-73.4-135.8-112.8-202.3c-25.1-42.4-55.2-83-96-110.6c-40-27.1-87.7-40-134.5-52.2c-243.2-63.9-487.5-123.1-733.1-177.5
		C508,1117.4,486.7,1111.3,458,1118.1"/>
	<path d="M455.1,1115.2c-33.5,40.5-44.9,92.8-48.4,144.1c-3.5,50.8-4.3,106.8,15.7,154.6c9.8,23.6,25.7,44.1,46.1,59.6
		c21.3,16.3,46,27.4,70.9,37c56.8,21.8,116.6,34.3,176.3,45.1c60.2,10.9,120.6,20.7,179.7,36.6c61.8,16.7,121.8,38.9,182.5,59
		c29.2,9.6,58.9,17.7,89.7,20.1c32.1,2.6,64.3,0,96.5,0.7c52.8,1.1,103,15.9,147,45.5c41.7,28.2,74.6,67.5,94.9,113.6
		c11.1,25,22.1,49.2,46.1,64.3c11.2,7,23.6,12,35.9,16.6c14.9,5.6,29.9,11.1,44.9,16.7l45.7,17.1c4.1,1.5,6.5-4,4-6.8
		c-39-43.4-65.6-96.5-76.9-153.8l-5,5c72.5,11.4,128.2,64.6,196.4,87.8c18.6,6.5,38,9.8,57.7,9.9c4.3,0,5.2-5.4,2.1-7.6
		c-83.8-60-169.7-121.6-232-204.9c-63.4-84.8-94.1-189.9-161.2-272.2c-15.3-19.1-33.2-36.1-53-50.4c-20.9-14.9-44.4-25.7-68.5-34.4
		c-25-9-50.8-15.7-76.5-22.5c-28.6-7.5-57.1-14.9-85.7-22.3c-114.4-29.4-229-57.8-343.9-85.2c-57.9-13.8-115.9-27.3-173.9-40.6
		c-28.8-6.5-57.6-13.1-86.4-19.6c-26.5-5.9-53.5-13.9-80.6-16.6c-12.7-1.2-25.6-0.4-38,2.5c-5.1,1.1-3,9,2.2,7.9
		c28.1-6.3,54.8,0.8,82.2,6.9c28.4,6.3,56.7,12.7,85,19.1c57.2,13,114.3,26.2,171.2,39.6c114.5,27,228.7,55.1,342.6,84.2
		c55.2,14.1,110.8,27.5,165.6,43.4c25.7,7.5,51.2,16.2,74.8,28.8c22.4,12,42.8,27.5,60.4,45.9c35.8,37.3,61.1,83.2,84.8,128.7
		c24.6,47.3,47.5,95.8,77.3,140.2c56.7,84.5,137.8,147.8,219.3,206.8c10.1,7.3,20.1,14.5,30.2,21.7l2.1-7.6
		c-73.2,0.2-131.8-52.2-195.8-80.2c-17.9-8.1-36.7-13.9-56.1-17.2c-2.2-0.6-4.5,0.8-5,3c-0.2,0.7-0.2,1.4,0,2
		c11.7,58.6,39,113,79,157.4l4-6.8c-30.2-11.2-60.5-22.4-90.7-33.7c-12.8-4.9-25.6-10-37-17.8c-11.7-8-20.3-18.9-27-31.3
		c-12.3-22.7-20.7-46.9-35.1-68.5c-13.1-19.7-28.7-37.6-46.5-53.2c-35.4-31.6-78.3-53.5-124.6-63.6c-59-12.5-119.6,0.6-178.7-10.1
		c-29.8-5.4-58.5-15.3-87-25.2c-30.2-10.4-60.4-20.9-90.7-30.6c-58.3-18.5-117.7-33.2-177.8-44.1c-58.2-10.6-116.7-19.7-174-34.8
		c-28.6-7.3-56.7-16.6-84-27.9c-24.8-10.4-49.3-23.3-68.5-42.3c-38.7-38.2-45.5-95-45.8-146.8c-0.3-51.8,2.8-107.3,26.4-154.6
		c5.7-11.6,12.8-22.4,21-32.4C464.1,1117,458.4,1111.2,455.1,1115.2L455.1,1115.2z"/>
	<path d="M488.5,1011.1c-2.8,2.1-5.2,4.7-7,7.6c-2.1,3.3-3.7,7-4.7,10.8c-1.1,4.2,0,6.7,3.3,7.5c3.3,0.8,6.3-0.4,9.8-3.4l1.1,0.8
		c-2.1,2-4.6,3.6-7.4,4.6c-2.8,1-5.8,1.1-8.6,0.4c-2.7-0.5-5.1-2.1-6.7-4.3c-1.5-2.4-1.8-5.3-0.9-8c2.3-8.1,8-14.8,15.7-18.2
		c3.8-1.7,8.1-2.1,12.2-1c2,0.4,3.9,1.5,5.2,3.2c1.1,1.4,1.5,3.2,1,4.9c-0.3,1.2-0.9,2.2-1.6,3.1c-0.8,0.9-1.8,1.7-3,2.1
		c-1.1,0.4-2.3,0.5-3.4,0.2c-1-0.2-1.8-0.8-2.3-1.6c-0.5-0.9-0.6-1.9-0.3-2.9c0.4-1.6,1.4-3,2.8-3.9c1.4-1,3-1.5,4.7-1.5
		c-0.5-1.1-1.5-1.8-2.7-2C493,1008.8,490.4,1009.4,488.5,1011.1z"/>
	<path d="M502.3,1023.6c2.4-3.4,5.5-6.1,9.2-7.9c3.7-1.9,8-2.3,12-1.3c2.9,0.4,5.4,2,7,4.4c1.4,2.6,1.8,5.6,0.9,8.4
		c-0.9,3.7-2.5,7.3-4.8,10.4c-2.4,3.4-5.5,6.1-9.2,7.9c-3.7,1.9-8,2.3-12,1.3c-2.9-0.4-5.4-2-7-4.4c-1.4-2.6-1.8-5.6-0.9-8.4
		C498.4,1030.2,500,1026.7,502.3,1023.6z M516.7,1018.9c-2.8,3-5.2,6.4-7.2,10.1c-2.1,3.7-3.7,7.7-4.6,11.8
		c-0.3,1.1-0.4,2.3-0.2,3.4c0.1,0.7,0.7,1.3,1.4,1.4c1.6,0.4,3.6-0.7,6.1-3.3c5.7-6.2,9.8-13.7,11.8-21.9c0.3-1.2,0.4-2.4,0.3-3.6
		c-0.1-0.7-0.7-1.2-1.4-1.3C521.3,1015.2,519.3,1016.3,516.7,1018.9z"/>
	<path d="M564.3,1046.8l1.2,0.2l-2.6,4.5c-1,1.9-2.5,3.5-4.5,4.4c-1.7,0.7-3.6,0.9-5.4,0.6c-1-0.2-2-0.6-2.8-1.1
		c-0.7-0.5-1.2-1.2-1.5-1.9c-0.2-0.9-0.3-1.8-0.1-2.7c0.3-1.4,0.8-2.8,1.4-4l3-6.3c-1.9,3-4.1,5.9-6.5,8.5c-1.5,1.7-3.5,3-5.6,3.9
		c-1.8,0.6-3.7,0.8-5.6,0.4c-1.6-0.2-3-1-4.1-2.2c-0.8-1.2-1.1-2.7-0.7-4.2c0.3-1.5,0.9-2.9,1.6-4.3l9.8-17.7
		c0.3-0.6,0.6-1.2,0.7-1.8c0.2-0.9-0.1-1.4-1-1.6c-0.8-0.1-1.6,0.2-2.2,0.7c-1.1,1-2.1,2.2-2.8,3.6l-1.7,2.9l-1.2-0.2l2.5-4.4
		c2.4-4.1,5.6-5.7,9.8-4.9c3.9,0.7,5.5,2.9,4.9,6.4c-0.4,1.6-1,3.2-1.8,4.7l-9.1,16.2c-0.5,0.8-0.9,1.7-1.1,2.7
		c-0.2,1,0.1,1.5,0.9,1.6c1.3,0.2,3-0.7,5.3-2.9c2.7-2.8,5.1-5.8,7.2-9c2.7-4,5.1-8.2,7.3-12.5l1.6-3.4c3.1,0.6,6.3,0.9,9.5,0.9
		l-13.4,27.1c-0.3,0.6-0.6,1.3-0.8,2c-0.2,0.5,0.1,1.1,0.6,1.2c0.1,0,0.2,0.1,0.3,0.1c0.9,0.1,1.8-0.1,2.4-0.8c1.1-1,2-2.2,2.7-3.5
		L564.3,1046.8z"/>
	<path d="M575.5,1055.5c-0.2,1.1,0.2,1.6,1.1,1.8c1.3,0.2,2.9-1.3,4.7-4.5l1.6-2.9l1.2,0.2l-2.4,4.4c-0.9,2-2.5,3.6-4.4,4.5
		c-1.6,0.8-3.5,1-5.3,0.7c-1.6-0.1-3.1-1-4.1-2.2c-0.9-1.3-1.1-2.9-0.8-4.5c0.3-1.5,0.8-3,1.5-4.4l15.6-32c0.3-0.6,0.5-1.1,0.6-1.7
		c0.2-0.8-0.1-1.5-0.7-2c-1-0.6-2.1-1-3.3-1.1l0.7-1.3c2.7,0.4,5.4,0.6,8.2,0.6c2.4,0,4.9-0.3,7.3-0.8l-21,43.5
		C575.8,1054.4,575.6,1055,575.5,1055.5z"/>
	<path d="M619.9,1055.4l1.2,0.2l-2.2,4.5c-1.4,3.9-5.4,6.2-9.5,5.4c-2.7-0.4-4.2-1.6-4.7-3.7c-0.2-0.9-0.3-1.9-0.1-2.8
		c0.3-1.6,0.7-3.1,1.4-4.5l0.1-0.3c-1.6,2.8-3.8,5.3-6.3,7.3c-2,1.4-4.5,2-6.9,1.6c-2.1-0.2-4-1.3-5.2-3.1c-1.3-2.1-1.7-4.7-1.2-7.1
		c0.7-3.9,2.1-7.7,4.3-11c2.3-3.8,5.4-7,9.1-9.4c3.4-2.3,7.7-3.3,11.8-2.7c1.7,0,3.2,1.1,3.6,2.8l4.5-10.6c0.3-0.6,0.5-1.2,0.6-1.8
		c0.2-0.8-0.1-1.5-0.7-2c-1-0.6-2.1-1-3.3-1.1l0.6-1.3c2.7,0.4,5.4,0.5,8.2,0.4c2.5-0.1,4.9-0.4,7.3-0.9l-19.1,44.1
		c-0.3,0.5-0.5,1.1-0.6,1.6c-0.1,1,0.2,1.6,1,1.6c0.8,0,1.6-0.3,2.1-0.9c1.1-1.1,1.9-2.3,2.6-3.7L619.9,1055.4z M614.6,1034.2
		c-0.3-1.6-1-2.4-2.3-2.6c-1.9-0.3-4,0.8-6.3,3.2c-2.7,2.7-4.9,5.9-6.5,9.3c-1.9,3.7-3.1,7.6-3.7,11.7c-0.2,1.1-0.2,2.3,0,3.4
		c0.1,0.7,0.7,1.2,1.4,1.3c1.2-0.1,2.4-0.6,3.3-1.5c1.7-1.5,3.2-3.2,4.4-5c1.8-2.6,3.3-5.3,4.6-8.2L614.6,1034.2z"/>
	<path d="M659.6,1059.9l-2.1,4.6c-2.1,4.3-5.2,6.2-9.4,5.7c-2,0-3.8-1-4.9-2.7c-0.5-1-0.7-2.1-0.5-3.1c0.3-1.7,0.8-3.4,1.6-5
		l7.8-16.9c0.4-0.9,0.7-1.8,0.9-2.7c0.1-1-0.2-1.6-1.1-1.6c-1.3-0.1-3,1-5.1,3.4c-2.6,3-4.8,6.3-6.7,9.8c-2.4,4.2-4.5,8.6-6.4,13.1
		l-1.2,3.1l-9.2-1l10.9-27.1c0.3-0.6,0.5-1.3,0.6-2c0.1-0.8-0.2-1.2-1-1.3c-0.9-0.1-1.7,0.3-2.3,0.9c-1,1.1-1.8,2.4-2.4,3.8
		l-1.6,3.3l-1.2-0.1l2.3-4.7c0.8-1.9,2.1-3.6,3.9-4.8c1.6-0.9,3.4-1.2,5.2-1c3.7,0.4,5.4,2.4,5,5.9c-0.1,1.3-0.5,2.5-0.9,3.7
		l-2.9,7.6c1.8-3.5,3.8-6.7,6.2-9.8c1.5-1.9,3.3-3.5,5.5-4.6c1.8-0.8,3.8-1.1,5.7-0.9c3.9,0.4,5.6,2.4,5.3,5.8
		c-0.2,1.6-0.7,3.1-1.4,4.5l-8.5,18.5c-0.3,0.6-0.5,1.2-0.6,1.8c-0.1,0.9,0.3,1.4,1.1,1.5c0.8,0,1.6-0.3,2.2-0.9
		c1.1-1.1,1.9-2.4,2.5-3.8l1.5-3L659.6,1059.9z"/>
	<path d="M681.8,1030.9c-0.6,1-1.6,2.3-3,3.9c-1.3,1.6-2.6,3.3-3.7,5l-0.9-0.1c0.1-2.1,0.1-4.2,0-6.2c-0.1-1.1-0.1-2.3,0-3.4l0.1-1
		c0.1-1.4,0.8-2.6,1.8-3.6c1-0.9,2.4-1.3,3.7-1.2c0.9,0,1.7,0.4,2.3,1c0.6,0.6,0.8,1.5,0.8,2.3
		C682.8,1028.9,682.4,1029.9,681.8,1030.9z"/>
	<path d="M686.8,1067.2c-0.2,0.4-0.3,0.8-0.3,1.3c-0.1,0.5,0.1,1.1,0.4,1.5c0.4,0.4,0.9,0.6,1.4,0.6c1.1,0,2.1-0.4,2.9-1.2
		c1.2-1.1,2.1-2.5,2.7-4l1.2-2.6l1.2,0.1l-1.6,3.7c-2.1,4.9-5.5,7.3-10.4,6.9c-3.3,0.2-6-2.3-6.2-5.6c0-0.5,0-0.9,0.1-1.4
		c0.1-1.3,0.4-2.6,0.9-3.9l8.5-22.4l-5.9-0.5l0.4-1.3l5.9,0.5l3.5-9.5c3.2,0.2,6.4,0.2,9.5-0.2l-3.9,10.4l7.4,0.6l-0.3,1.3l-7.6-0.6
		L686.8,1067.2z"/>
	<path d="M768.2,1066.4l-1.8,4.7c-1.7,4.4-4.7,6.5-9.1,6.4c-2,0.2-4-0.8-5.1-2.5c-0.5-0.9-0.7-1.9-0.6-3c0.1-1.7,0.5-3.4,1.2-5.1
		l6.5-17.4c0.3-0.8,0.5-1.7,0.6-2.6c0-0.9-0.3-1.3-0.9-1.3c-1.8-0.1-4,2-6.7,6.2c-3.4,5.8-6.2,12-8.3,18.4v-0.2l-1.9,6l-9.3-0.4
		l9-26.8c0.3-0.9,0.5-1.7,0.6-2.7c0-0.8-0.3-1.3-1-1.3c-2-0.1-4.3,2.1-6.9,6.5c-3.1,5.5-5.7,11.4-7.6,17.4l0,0l-2,6.5l-9.2-0.4
		l9-27.9c0.2-0.6,0.4-1.2,0.4-1.9c0-0.9-0.3-1.4-1.1-1.4c-0.9,0-1.7,0.4-2.2,1.1c-0.9,1.2-1.6,2.5-2.1,3.9l-1.4,3.3h-1.2l2-4.9
		c0.7-2,2-3.8,3.8-5c1.6-1,3.4-1.5,5.2-1.4c1.5-0.1,3,0.5,4,1.6c0.8,1.1,1.2,2.5,1.1,3.8c-0.1,1.3-0.3,2.6-0.8,3.9l-1.6,5.5
		c1.6-4.1,4-7.9,7-11.1c2.2-2.1,5.1-3.2,8.2-3.1c3.4,0.1,5.1,1.9,4.9,5.3c-0.1,1.6-0.4,3.2-1,4.7l-1.3,4.1c1.6-4,4-7.6,7-10.6
		c2.1-1.9,5-2.9,7.8-2.8c1.5-0.1,2.9,0.5,4,1.5c0.9,1.1,1.3,2.4,1.2,3.8c-0.1,1.6-0.5,3.2-1.1,4.7l-7.1,19c-0.2,0.6-0.4,1.2-0.5,1.9
		c0,0.9,0.4,1.4,1.2,1.4c1.5,0,2.9-1.7,4.3-5l1.3-3.1L768.2,1066.4z"/>
	<path d="M802.8,1066.6h1.2l-1.6,4.7c-0.6,2.1-1.9,3.9-3.7,5.2c-1.5,1-3.2,1.5-5,1.5c-1.8,0.2-3.6-0.6-4.8-2.1c-0.6-1-1-2.1-0.9-3.3
		c0-1.3,0.3-2.6,0.6-3.8c-1.1,2.7-2.8,5-5,6.9c-1.7,1.4-3.8,2.1-6,2.1c-2,0.1-4-0.7-5.4-2.2c-1.3-1.7-2-3.8-1.8-5.9
		c0.2-4.3,1.3-8.5,3.3-12.3c1.9-4.1,4.6-7.7,8-10.8c3.3-2.9,6.3-4.3,9.4-4.3c1.1,0,2.1,0.3,2.8,1.1c0.8,0.9,1.2,2,1.2,3.1l0.9-3.2
		c3.2,0,6.3-0.3,9.5-0.9l-8.8,29c-0.2,0.6-0.3,1.2-0.3,1.8c0,1,0.4,1.4,1.2,1.5c1.5,0,2.9-1.6,4.1-5.1L802.8,1066.6z M794.3,1049.2
		c0-0.3,0-0.7,0-1c0.1-0.9-0.1-1.7-0.5-2.5c-0.4-0.5-1-0.9-1.6-0.9c-1.5,0-3.2,1.3-5.1,3.9c-4.3,6.4-6.8,13.8-7,21.5
		c-0.1,1,0.1,2.1,0.4,3.1c0.2,0.6,0.8,1,1.4,1c1.3-0.2,2.4-0.9,3.2-2c1.4-1.7,2.6-3.7,3.5-5.7c1.3-2.9,2.3-5.8,3.1-8.9l-0.3,1.6
		L794.3,1049.2z"/>
	<path d="M839.7,1043.8c1.1,1.1,1.7,2.6,1.6,4.2c0.1,1.5-0.4,3-1.5,4.1c-1,1.1-2.5,1.7-3.9,1.6c-1.1,0.1-2.2-0.3-3.1-1
		c-0.7-0.7-1.2-1.6-1.1-2.6c0-1.3,0.4-2.6,1.2-3.6c0.8-1.1,1.8-2,3-2.6c-0.2-0.3-0.6-0.5-1-0.5c-1,0-2,0.4-2.7,1
		c-0.6,0.5-1,1.1-1.4,1.8c-0.4,0.7-0.8,1.8-1.4,3.3c-0.7,2-1.6,3.8-2.7,5.5c-1,1.4-2.6,2.4-4.3,2.9c7.3,0,10.9,2.4,11,7
		c0,0.7,0,1.4-0.2,2.1l-0.9,4.9c-0.1,0.5-0.2,1-0.2,1.4c0,0.4,0.1,0.7,0.3,1c0.2,0.2,0.6,0.3,0.9,0.3c1.4,0,2.7-1.7,3.9-5.2l1.1-3.1
		h1.3l-1.6,4.8c-1.1,4.2-5,7.1-9.3,6.8c-1.5,0.1-2.9-0.3-4-1.3c-1-1-1.5-2.4-1.5-3.8c0-0.8,0.1-1.6,0.2-2.4l1-5
		c0.2-0.9,0.3-1.8,0.4-2.7c0.1-1.1-0.4-2.1-1.2-2.9c-1.1-0.8-2.5-1.2-3.8-1.3l-5.2,18.6l-9.2,0.1l12.4-43.7c0.2-0.6,0.3-1.2,0.3-1.8
		c0-0.8-0.4-1.5-1-1.9c-1.1-0.5-2.3-0.6-3.4-0.5l0.4-1.4c2.7,0,5.5-0.3,8.2-0.8c2.4-0.5,4.7-1.1,7-2.1l-9,32.5
		c1.4-0.2,2.8-0.8,3.9-1.6c1-0.8,1.7-1.7,2.3-2.7c0.7-1.3,1.2-2.6,1.7-3.9c0.4-1.1,0.8-2.2,1.4-3.3c0.4-0.8,1-1.5,1.6-2.1
		c1.1-1,2.5-1.6,4-1.6C836.8,1042.1,838.5,1042.6,839.7,1043.8z"/>
	<path d="M866.2,1055.9c-4.3,3-8.9,5.2-13.9,6.7c-0.2,1.5-0.3,3-0.2,4.4c-0.1,1.8,0.4,3.5,1.4,4.9c1,1,2.4,1.5,3.8,1.3
		c1.6-0.1,3.2-0.6,4.5-1.4c1.9-1.1,3.6-2.5,4.9-4.2l1.1,0.5c-1.6,2.5-3.6,4.7-6.1,6.4c-2.6,1.8-5.6,2.8-8.8,2.8
		c-2.7,0.2-5.3-0.6-7.4-2.2c-2-1.6-3.2-4.1-3.1-6.7c0-4.2,0.9-8.3,2.8-12.1c1.9-4.1,4.7-7.7,8.2-10.6c3.3-2.8,7.4-4.3,11.7-4.5
		c1.7-0.1,3.4,0.3,4.9,1.2c1.3,0.8,2,2.2,2,3.8C872.1,1049.9,870.1,1053.1,866.2,1055.9z M859.4,1045.4c-1.8,2.1-3.2,4.5-4.2,7.1
		c-1.2,2.8-2.1,5.8-2.7,8.9c2.6-1.1,5-2.7,7-4.6c1.7-1.6,3-3.4,3.9-5.5c0.9-2,1.4-4.3,1.3-6.5c0-0.6-0.1-1.1-0.3-1.6
		c-0.2-0.3-0.5-0.4-0.8-0.4C861.9,1043,860.4,1044,859.4,1045.4L859.4,1045.4z"/>
	<path d="M923.6,1062.2h1.2l-1.5,5.1c-0.5,2.1-1.6,4-3.3,5.4c-1.5,1.1-3.2,1.8-5.1,1.9c-1,0.1-2.1-0.1-3-0.4
		c-0.8-0.3-1.5-0.8-1.9-1.5c-0.5-0.8-0.7-1.7-0.8-2.6c0-1.4,0.1-2.9,0.4-4.3l1.4-6.8c-1.1,3.4-2.6,6.7-4.3,9.8
		c-1.1,2-2.6,3.8-4.5,5.1c-1.6,1-3.4,1.6-5.3,1.7c-1.6,0.2-3.2-0.2-4.5-1.1c-1.1-1-1.7-2.4-1.7-3.9c-0.1-1.5,0.1-3.1,0.6-4.6
		l5.2-19.6c0.2-0.6,0.3-1.3,0.3-1.9c0-0.9-0.5-1.3-1.3-1.3c-0.8,0.1-1.5,0.6-2,1.2c-0.8,1.3-1.5,2.7-1.8,4.2l-1,3.3h-1.2l1.3-4.9
		c1.3-4.6,4.1-7,8.3-7.2c4-0.2,6,1.4,6.3,5c0,1.7-0.2,3.4-0.6,5l-4.8,17.9c-0.3,0.9-0.4,1.9-0.4,2.8c0,1,0.5,1.5,1.3,1.4
		c1.3,0,2.8-1.5,4.4-4.1c1.9-3.3,3.5-6.9,4.7-10.5c1.6-4.6,2.9-9.2,4-13.9l0.8-3.7c3.2-0.2,6.3-0.7,9.4-1.5l-6.4,29.5
		c-0.2,0.7-0.3,1.4-0.3,2.2c0,0.5,0.4,1,0.9,1.1c0.1,0,0.2,0,0.2,0c0.9-0.1,1.7-0.5,2.2-1.3c0.8-1.3,1.3-2.7,1.6-4.1L923.6,1062.2z"
		/>
	<path d="M959.3,1038c1.7,2.1,2.6,4.6,2.7,7.3c0.2,3.9-0.2,7.7-1.5,11.4c-1.2,3.9-3.2,7.6-6,10.6c-2.5,2.9-6.1,4.6-9.9,4.9
		c-1.2,0.1-2.3,0-3.4-0.3c-1-0.3-1.9-0.8-2.6-1.5l-1.3,6.4c-0.2,0.8-0.2,1.6-0.2,2.4c0,1,0.6,2,1.5,2.4c1.3,0.4,2.8,0.6,4.2,0.4
		l-0.3,1.4h-1.5c-4.4,0.2-7.4,0.4-8.8,0.5c-1.4,0.1-4.5,0.4-9.1,1l0.3-1.4c1.2,0,2.3-0.4,3.3-1.1c0.8-0.9,1.3-2.1,1.4-3.3l8.3-43.2
		c-0.9,2.7-2.1,5.3-3.5,7.7c-1.6,2.5-3.3,4.9-5.2,7.1l-0.8-0.8c1.7-2.2,3.2-4.2,4.3-5.8c1.3-1.9,2.4-3.9,3.3-6
		c1.2-2.7,2.3-5.6,3.1-8.5l0.1-0.8c3.3-0.5,6.5-1.4,9.5-2.6l-4,20.3c0.9-2.9,2.4-5.5,4.3-7.8c1.4-1.6,3.3-2.6,5.4-2.8
		C955.3,1035.6,957.6,1036.3,959.3,1038z M947.5,1066.2c1.9-3.1,3.2-6.6,3.9-10.1c0.9-3.7,1.2-7.4,0.9-11.2c0-1.4-0.3-2.9-0.9-4.2
		c-0.3-0.6-0.9-1.1-1.6-1c-1.3,0.1-2.7,1.5-4.1,4.1c-1.6,3.2-2.9,6.5-3.8,9.9l-3.1,15.6c0.8,0.9,1.9,1.3,3.1,1.3
		C943.9,1070.4,945.8,1068.9,947.5,1066.2L947.5,1066.2z"/>
	<path d="M1033.4,1051.7l-1.1,4.9c-1,4.6-3.7,7.2-8,7.7c-2,0.5-4.1-0.2-5.4-1.7c-0.6-0.8-1-1.8-1-2.8c-0.1-1.7,0-3.5,0.4-5.2
		l3.9-18.2c0.2-0.9,0.3-1.8,0.2-2.6c-0.1-0.9-0.5-1.3-1.1-1.2c-1.8,0.2-3.7,2.6-5.7,7.1c-2.5,6.3-4.3,12.8-5.4,19.4v-0.2l-1,6.2
		l-9.3,1l4.9-27.7c0.2-0.9,0.3-1.8,0.2-2.7c-0.1-0.8-0.5-1.2-1.2-1.1c-1.9,0.2-3.9,2.7-5.8,7.5c-2.2,5.9-3.9,12.1-4.9,18.4l0,0
		l-0.9,6.8l-9.1,1l4.7-28.9c0.1-0.6,0.2-1.3,0.1-1.9c-0.1-0.9-0.5-1.3-1.3-1.2c-0.8,0.1-1.6,0.7-2,1.5c-0.7,1.3-1.2,2.7-1.5,4.1
		l-0.9,3.4l-1.2,0.1l1.2-5.1c0.4-2.1,1.5-4.1,3-5.5c1.4-1.2,3.1-1.9,4.9-2.1c1.5-0.3,3,0,4.2,1c1,1,1.5,2.3,1.6,3.6
		c0.1,1.3,0.1,2.7-0.1,4l-0.8,5.7c1-4.3,2.7-8.4,5.2-12c1.8-2.4,4.6-4,7.6-4.3c3.4-0.4,5.3,1.1,5.7,4.5c0.1,1.6,0,3.3-0.2,4.9
		l-0.7,4.3c1-4.2,2.8-8.1,5.4-11.6c1.8-2.2,4.5-3.7,7.3-4c1.5-0.3,3,0,4.2,0.9c1,0.9,1.6,2.2,1.6,3.6c0.2,1.6,0,3.3-0.4,4.9
		l-4.2,19.9c-0.1,0.6-0.2,1.3-0.2,1.9c0.1,0.9,0.6,1.3,1.4,1.2c1.5-0.2,2.6-2,3.5-5.6l0.8-3.3L1033.4,1051.7z"/>
	<path d="M1064.1,1029.2c0.4,4.9-0.2,9.8-1.9,14.4c-1.7,5.5-4,10.7-7.1,15.5c-1.8,2.9-3.9,5.6-6.3,8c-2.2,2.3-4.8,4.1-7.6,5.6
		c-1.4,0.8-2.9,1.4-4.5,1.6c-1.2,0.2-2.4,0-3.4-0.5c-0.9-0.5-1.5-1.5-1.5-2.5c-0.2-1.1,0.1-2.2,0.9-3.1c0.8-0.9,1.9-1.5,3.1-1.6
		c2.5-0.3,5.1,0.8,7.5,3.5c2.9-1.9,5.5-4.3,7.6-7.1l-9.2-30.2c-0.2-0.8-0.5-1.6-1-2.3c-0.2-0.4-0.7-0.5-1.1-0.5
		c-0.5,0-0.9,0.5-1.2,1.2c-0.5,1.3-0.9,2.7-1.2,4l-0.7,3.3l-1.2,0.2l1-4.9c0.3-2.1,1.2-4,2.6-5.6c1.2-1.2,2.8-1.9,4.5-2.1
		c1.6-0.3,3.2,0,4.5,1c1.5,1.4,2.5,3.2,2.9,5.1l5.9,21.8c1.5-2.9,2.8-5.9,3.8-9c1-2.8,1.6-5.6,2-8.5c-1.8-0.6-3.5-1.7-4.9-3
		c-1.3-1.2-2.1-2.8-2.3-4.5c-0.2-1.2,0-2.4,0.7-3.4c0.7-0.9,1.8-1.5,3-1.6C1061.8,1023.5,1063.5,1025.3,1064.1,1029.2z"/>
	<path d="M1135.6,1036.5l-0.9,4.9c-0.8,4.7-3.4,7.4-7.6,8c-2,0.6-4.1,0-5.5-1.5c-0.7-0.8-1.1-1.8-1.2-2.8c-0.2-1.7-0.2-3.5,0.2-5.2
		l3-18.3c0.2-0.9,0.2-1.8,0.1-2.7c-0.1-0.9-0.5-1.2-1.1-1.1c-1.8,0.3-3.5,2.7-5.3,7.4c-2.2,6.3-3.7,12.9-4.5,19.6v-0.2l-0.7,6.2
		l-9.2,1.5l3.6-28c0.1-0.9,0.1-1.8,0-2.7c-0.1-0.8-0.5-1.2-1.2-1.1c-1.9,0.3-3.8,2.9-5.5,7.7c-2,6-3.3,12.3-4.1,18.6l0,0l-0.6,6.8
		l-9.1,1.5l3.4-29.1c0.1-0.6,0.1-1.3,0-1.9c-0.1-0.9-0.6-1.3-1.4-1.2c-0.8,0.2-1.6,0.7-1.9,1.5c-0.6,1.3-1.1,2.8-1.3,4.2l-0.7,3.5
		l-1.2,0.2l1-5.2c0.3-2.1,1.3-4.1,2.8-5.7c1.3-1.3,3.1-2.1,4.9-2.4c1.5-0.4,3-0.1,4.2,0.8c1,0.9,1.7,2.2,1.8,3.6
		c0.2,1.3,0.2,2.6,0,3.9l-0.5,5.8c0.8-4.3,2.4-8.5,4.7-12.3c1.7-2.5,4.4-4.2,7.4-4.6c3.4-0.6,5.4,0.9,5.9,4.2c0.2,1.6,0.2,3.3,0,4.9
		l-0.5,4.3c0.8-4.2,2.5-8.2,4.9-11.8c1.7-2.3,4.3-3.9,7.1-4.3c1.4-0.4,3-0.1,4.2,0.7c1.1,0.9,1.7,2.1,1.9,3.5
		c0.2,1.6,0.2,3.3-0.1,4.9l-3.3,20c-0.1,0.6-0.2,1.3-0.1,1.9c0.1,0.9,0.6,1.3,1.5,1.2c1.5-0.2,2.5-2.2,3.3-5.7l0.7-3.3
		L1135.6,1036.5z"/>
	<path d="M1144.2,1015c-0.1-0.8-0.6-1.2-1.4-1.1c-0.9,0.2-1.6,0.8-1.9,1.6c-0.6,1.3-1.1,2.8-1.3,4.2l-0.7,3.5l-1.2,0.2l0.9-5.2
		c0.8-4.7,3.4-7.4,7.8-8.2c1.5-0.4,3.2-0.2,4.6,0.7c1.1,0.9,1.8,2.1,2,3.5c0.2,1.3,0.2,2.6,0,3.9l-3.3,20.9c-0.1,0.6-0.1,1.3,0,1.9
		c0,0.7,0.6,1.2,1.2,1.2c0.1,0,0.2,0,0.3,0c0.8-0.2,1.4-0.7,1.8-1.4c0.7-1.4,1.2-2.8,1.4-4.4l0.6-3.3l1.2-0.2l-0.8,5
		c-0.7,4.7-3.2,7.4-7.5,8.2c-3.9,0.7-6.2-0.8-6.8-4.3c-0.2-1.7-0.2-3.4,0.1-5.1l3.1-19.6C1144.3,1016.5,1144.3,1015.7,1144.2,1015z
		 M1144.9,995.9c1.1-1.3,2.7-2.1,4.4-2.3c1.2-0.3,2.6-0.1,3.7,0.5c1,0.6,1.6,1.6,1.8,2.7c0.3,1.6-0.1,3.3-1.2,4.6
		c-1.1,1.4-2.7,2.3-4.5,2.5c-1.3,0.3-2.6,0.1-3.7-0.5c-1-0.6-1.6-1.7-1.6-2.9C1143.4,998.8,1143.8,997.1,1144.9,995.9L1144.9,995.9z
		"/>
	<path d="M1194.5,1025.8l-0.7,4.9c-0.7,4.7-3.2,7.4-7.4,8.2c-1.9,0.5-4,0.1-5.5-1.2c-0.7-0.8-1.2-1.8-1.4-2.9
		c-0.3-1.7-0.2-3.5,0.1-5.3l2.5-18.4c0.2-1,0.2-1.9,0-2.9c-0.2-1-0.7-1.4-1.5-1.2c-1.3,0.2-2.6,1.8-3.9,4.8
		c-1.5,3.6-2.7,7.4-3.6,11.3c-1.1,4.7-1.9,9.5-2.3,14.3l-0.2,3.4l-9,1.6l2.6-29.2c0.1-0.7,0.1-1.4,0-2.1c-0.1-0.8-0.6-1.1-1.3-1
		c-0.8,0.2-1.6,0.7-1.9,1.5c-0.6,1.4-1.1,2.8-1.2,4.3l-0.6,3.5l-1.2,0.2l0.8-5.2c0.2-2.1,1-4.1,2.3-5.7c1.3-1.3,2.9-2.2,4.7-2.5
		c3.7-0.7,5.8,0.7,6.5,4.2c0.2,1.3,0.3,2.5,0.2,3.8l-0.5,8.2c0.7-3.8,1.7-7.5,3.1-11.1c0.9-2.3,2.2-4.3,3.9-6
		c1.5-1.3,3.3-2.2,5.2-2.5c3.9-0.7,6.1,0.6,6.7,4.1c0.2,1.6,0.2,3.2,0,4.7l-2.7,20.3c-0.1,0.6-0.1,1.3,0,1.9
		c0.2,0.9,0.7,1.3,1.5,1.1c0.8-0.2,1.5-0.7,1.8-1.5c0.7-1.4,1.1-2.8,1.3-4.4l0.6-3.3L1194.5,1025.8z"/>
	<path d="M1230.1,1018.7l1.2-0.2l-0.6,4.9c-0.1,4.1-3.1,7.6-7.1,8.3c-2.6,0.5-4.5-0.1-5.6-1.9c-0.5-0.8-0.9-1.7-1-2.6
		c-0.3-1.6-0.3-3.1-0.1-4.7v-0.3c-0.6,3.2-1.8,6.2-3.6,9c-1.4,2-3.6,3.3-6,3.8c-2.1,0.5-4.2,0.1-6-1.1c-1.9-1.6-3.1-3.8-3.4-6.3
		c-0.7-3.9-0.5-8,0.4-11.8c0.9-4.3,2.8-8.4,5.5-11.9c2.5-3.4,6.1-5.7,10.2-6.5c1.6-0.5,3.4,0,4.3,1.4l0.7-11.4
		c0.1-0.6,0.1-1.2,0-1.8c-0.1-0.8-0.6-1.4-1.4-1.6c-1.1-0.2-2.3-0.2-3.5,0.1l0.1-1.4c2.7-0.6,5.3-1.3,7.9-2.3c2.3-0.9,4.5-2,6.5-3.3
		l-3.5,47.9c-0.1,0.6-0.1,1.2,0,1.8c0.2,1,0.7,1.4,1.5,1.2c0.7-0.2,1.3-0.8,1.6-1.5c0.6-1.4,1-2.8,1.2-4.3L1230.1,1018.7z
		 M1218.1,1000.4c-0.5-1.2-1.7-2-3-1.7c-1.8,0.4-3.5,2.1-4.9,5.1c-1.6,3.5-2.6,7.2-3,10.9c-0.6,4.1-0.4,8.3,0.4,12.3
		c0.2,1.2,0.5,2.3,1.1,3.3c0.4,0.6,1.1,0.9,1.8,0.8c0.8-0.2,1.7-1,2.6-2.5c1.1-2,2-4,2.5-6.2c0.9-3,1.4-6.1,1.7-9.2L1218.1,1000.4z"
		/>
	<path d="M1288,995.9c0.7,3.4,0.9,6.9,0.5,10.4c-0.3,3.3-1.4,6.4-3.3,9.1c-1.7,2.5-4.4,4.3-7.4,4.9c-2.8,0.9-5.9,0.1-8-1.9
		c-2.1,2.9-5.2,4.8-8.6,5.5c-2.3,0.7-4.8,0.4-6.8-0.8c-1.8-1.2-3-3-3.4-5.1c-0.5-2.8-0.1-5.6,1.1-8.2c1.4-3.3,3.3-6.3,5.4-9.2
		c2.3-3.1,5.5-7,9.4-11.5c-1,0.4-1.9,0.9-2.7,1.6c-0.9,0.8-1.7,1.7-2.5,2.6c-0.6,0.8-1.3,1.5-2,2.1c-0.5,0.5-1.2,0.8-1.9,1
		c-0.7,0.1-1.5,0.1-2.2-0.2c-0.6-0.2-1.2-0.3-1.8-0.2c-0.6,0.1-1,0.5-1.3,1c-0.3,0.8-0.5,1.7-0.6,2.6l-0.2,1.8l-1.2,0.3l0.4-4.9
		c0.1-2,0.6-3.9,1.6-5.7c0.7-1.1,1.8-1.9,3.1-2.2c0.5-0.1,1-0.2,1.5-0.1c0.6,0.1,1.1,0.2,1.6,0.3l1,0.2c0.6,0.1,1.2,0.1,1.7,0.1
		c0.6,0,1.2-0.1,1.8-0.2c1.7-0.4,3.3-1.2,4.6-2.4l0.4-1.4l1.5,0.3c-3.3,5.1-5.9,10.6-7.8,16.3c-1.7,4.5-2.1,9.3-1.3,14
		c0.2,1.3,0.8,2.5,1.6,3.4c0.7,0.7,1.8,0.9,2.7,0.6c1.6-0.4,3.1-1.3,4.1-2.6c-0.8-1.2-1.4-2.6-1.6-4.1c-0.5-2.5-0.5-5.1,0.1-7.6
		c0.5-2.3,1.5-4.6,2.9-6.5c0.9-1.5,2.3-2.6,4-3.1c1.6-0.3,2.7,0.9,3.3,3.7c0.5,2.3,0.5,4.7,0,7c-0.5,2.5-1.4,4.8-2.8,7
		c1.3,1.7,3.4,2.4,5.5,1.9c2.1-0.4,3.9-1.8,4.9-3.7c1.2-2.2,1.8-4.6,1.9-7.1c0.2-2.7,0-5.4-0.6-8c-0.2-0.9-0.4-1.6-0.5-2
		c-2.3-0.3-4.6-1-6.7-2.1c-1.8-0.9-3.1-2.6-3.5-4.6c-0.2-1-0.1-2,0.5-2.8c0.6-0.9,1.5-1.5,2.5-1.6c2-0.4,4.1,0.6,5,2.4
		c1.5,2.3,2.6,4.8,3.3,7.4C1287.7,994.6,1288,995.4,1288,995.9z M1273.1,999.5c-0.5,1.4-0.7,2.9-0.7,4.3c-0.1,1.7,0.1,3.5,0.5,5.1
		c0.3,1.3,0.7,2.6,1.4,3.7c1-1.9,1.8-4,2.1-6.1c0.4-2,0.4-4.2,0-6.2c-0.4-2-1-2.9-1.7-2.8C1273.9,997.7,1273.6,998.3,1273.1,999.5
		L1273.1,999.5z"/>
	<path d="M1326.6,997.6l-0.5,5c-0.5,4.7-2.9,7.5-7,8.5c-3.9,0.9-6.2-0.4-7-3.8c-0.4-1.7-0.4-3.5-0.2-5.2l1.7-18.5c0.1-1,0.1-2,0-2.9
		c-0.2-0.9-0.7-1.3-1.5-1.1c-1.2,0.3-2.3,1.6-3.5,4.3c-1.3,3.2-2.3,6.6-3,10.1c-0.9,4.4-1.5,8.8-1.9,13.3l-0.3,5.7
		c0,0.1,0,0.1,0,0.2l0,0v0.8l-9,2l2.9-45.3c0.1-0.6,0.1-1.2,0-1.9c-0.1-0.8-0.7-1.4-1.4-1.6c-1.2-0.2-2.3-0.2-3.5,0.2v-1.4
		c2.7-0.6,5.3-1.5,7.8-2.5c2.2-0.9,4.4-2.1,6.4-3.5l-2,31.6c0.6-4,2-7.9,4.1-11.4c1.5-2.3,3.9-3.8,6.5-4.4c1.6-0.5,3.2-0.4,4.7,0.4
		c1.2,0.8,2,2,2.3,3.4c0.3,1.6,0.4,3.1,0.1,4.7l-1.9,20.1c-0.1,0.6-0.1,1.3,0,1.9c0,0.7,0.6,1.2,1.3,1.1c0.1,0,0.2,0,0.4-0.1
		c1.4-0.3,2.3-2.3,2.8-5.9l0.5-3.3L1326.6,997.6z"/>
	<path d="M1334.1,975.7c-0.2-0.8-0.7-1.2-1.5-1c-0.8,0.2-1.5,0.8-1.8,1.6c-0.6,1.4-0.9,2.8-1.1,4.3l-0.5,3.5l-1.2,0.3l0.6-5.3
		c0.6-4.7,3-7.6,7.3-8.6c1.5-0.5,3.2-0.3,4.6,0.4c1.1,0.8,1.9,2,2.2,3.4c0.3,1.3,0.4,2.6,0.2,3.9l-2.1,21c-0.1,0.6-0.1,1.3,0,1.9
		c0,0.7,0.6,1.2,1.3,1.1c0.1,0,0.2,0,0.4-0.1c0.7-0.3,1.3-0.8,1.6-1.5c0.6-1.4,1-2.9,1.1-4.4l0.4-3.3l1.2-0.3l-0.6,5
		c-0.5,4.7-2.8,7.6-7,8.6c-3.9,0.9-6.2-0.4-7-3.9c-0.3-1.7-0.4-3.4-0.2-5.1l1.9-19.7C1334.2,977,1334.2,976.4,1334.1,975.7z
		 M1333.7,956.6c1-1.4,2.5-2.3,4.2-2.6c1.2-0.4,2.5-0.3,3.7,0.2c1,0.5,1.7,1.5,1.9,2.6c0.4,1.6,0.1,3.3-0.9,4.6
		c-1,1.4-2.6,2.4-4.3,2.8c-1.2,0.4-2.6,0.3-3.8-0.3c-1-0.6-1.7-1.6-1.8-2.8C1332.3,959.5,1332.7,957.9,1333.7,956.6z"/>
	<path d="M1361.8,969.4c-1.5,3.1-2.4,6.6-2.7,10.1c-0.3,3.9-0.1,7.9,0.9,11.7c1,4.2,3.1,6,6.3,5.2c3.2-0.8,5.4-3.3,7-7.6l1.4,0.2
		c-0.9,2.8-2.4,5.3-4.3,7.5c-2,2.2-4.6,3.7-7.5,4.3c-2.7,0.8-5.5,0.5-8-0.7c-2.4-1.4-4.1-3.9-4.5-6.6c-1.7-8.2,0.2-16.8,5.4-23.4
		c2.6-3.3,6.2-5.6,10.3-6.5c2-0.6,4.1-0.5,6,0.4c1.6,0.7,2.8,2.1,3.2,3.8c0.3,1.2,0.3,2.4,0,3.6c-0.3,1.2-0.8,2.3-1.6,3.3
		c-0.8,0.9-1.8,1.5-2.9,1.8c-1,0.3-2,0.1-2.8-0.4c-0.8-0.5-1.4-1.4-1.6-2.4c-0.4-1.7-0.2-3.4,0.7-4.9c0.8-1.5,2-2.7,3.5-3.5
		c-1-0.7-2.1-0.9-3.3-0.5C1364.8,965.3,1362.8,967.1,1361.8,969.4z"/>
	<path d="M1412.2,976.9l-0.4,5c-0.5,4.7-2.7,7.6-6.9,8.6c-3.8,0.9-6.2-0.3-7-3.7c-0.4-1.7-0.5-3.4-0.3-5.2l1.4-18.5
		c0.1-1,0-2-0.1-2.9c-0.2-0.9-0.7-1.3-1.6-1.1c-1.2,0.3-2.3,1.7-3.4,4.3c-1.3,3.3-2.2,6.6-2.8,10.1c-0.8,4.4-1.4,8.8-1.6,13.3
		l-0.2,5.7c0,0.1,0,0.1,0,0.2v0.7l-8.9,2.2l2.1-45.4c0-0.6,0-1.2-0.1-1.8c-0.1-0.8-0.7-1.4-1.4-1.6c-1.2-0.2-2.3-0.1-3.5,0.3v-1.4
		c2.7-0.7,5.3-1.6,7.8-2.7c2.2-1,4.3-2.2,6.3-3.6l-1.3,31.6c0.5-4.1,1.9-8,3.9-11.5c1.5-2.3,3.8-3.9,6.4-4.5
		c1.5-0.5,3.2-0.4,4.7,0.3c1.2,0.8,2,2,2.3,3.4c0.3,1.5,0.4,3.1,0.2,4.7l-1.6,20.2c-0.1,0.6-0.1,1.3,0,1.9c0.1,0.7,0.6,1.1,1.3,1.1
		c0.1,0,0.2,0,0.4-0.1c1.4-0.3,2.3-2.3,2.7-6l0.4-3.3L1412.2,976.9z"/>
	<path d="M1431.5,961.3c0.6-4.1,2.2-7.9,4.6-11.2c2.5-3.3,6.1-5.7,10.1-6.6c2.7-0.9,5.7-0.6,8.3,0.8c2.4,1.6,4.1,4.2,4.6,7.1
		c0.9,3.7,1,7.6,0.4,11.4c-0.6,4.1-2.2,7.9-4.6,11.2c-2.5,3.3-6.1,5.7-10.1,6.6c-2.7,0.9-5.7,0.6-8.3-0.7c-2.4-1.6-4.1-4.2-4.6-7.1
		C1431,968.9,1430.9,965.1,1431.5,961.3z M1442.3,950.6c-1.2,4-1.8,8.1-1.9,12.2c-0.2,4.2,0.2,8.5,1.2,12.6c0.2,1.1,0.7,2.2,1.3,3.2
		c0.5,0.6,1.2,0.8,1.9,0.6c1.5-0.4,2.9-2.3,4-5.7c1.2-3.9,1.8-8,1.9-12c0.2-4.3-0.2-8.6-1.2-12.8c-0.2-1.2-0.7-2.3-1.4-3.3
		c-0.4-0.5-1.2-0.8-1.8-0.6C1444.7,945.2,1443.4,947.1,1442.3,950.6L1442.3,950.6z"/>
	<path d="M1486.1,917.9c1.7,0.6,3,2.1,3.4,3.9c0.3,1.4,0.1,3-0.7,4.2c-0.8,1.4-2.1,2.4-3.7,2.8c-1.1,0.4-2.2,0.3-3.3-0.1
		c-0.9-0.4-1.5-1.3-1.7-2.3c-0.4-1.4-0.2-2.8,0.4-4.1c0.6-1.4,1.6-2.6,2.9-3.4c-0.3-0.2-0.7-0.3-1-0.4c-0.4,0-0.9,0-1.3,0.1
		c-1.2,0.3-2.3,1.1-3,2.1c-0.7,1.1-1.1,2.4-1.1,3.7c-0.2,1.6-0.3,3.9-0.3,6.8v5.2l6.8-1.7v1.4l-6.7,1.7l-0.4,45.3
		c-3.1,0.8-6.1,1.9-8.9,3.3l0.4-46.3l-5.3,1.4v-1.4l5.2-1.4c0-3.1,0.3-6.3,1-9.3c0.5-2.3,1.4-4.5,2.8-6.4c2-2.7,4.9-4.5,8.2-5.2
		C1481.7,917.2,1484,917.2,1486.1,917.9z"/>
	<path d="M602.5,1233.3c-2.7,6.5-6.5,12.5-11.1,17.7c-4.3,5-9.7,8.8-15.9,11.2c-5.7,2.2-12.1,2.1-17.8-0.4
		c-6.5-2.7-10.1-6.8-11-12.4c-6.7,2.3-14,2.1-20.5-0.8c-5.2-2.2-8.7-5.2-10.3-9.2c-1.6-4-1.5-8.4,0.2-12.3
		c2.3-5.2,6.3-9.5,11.2-12.3c6.1-3.7,12.6-6.7,19.4-8.9c7.5-2.5,17.1-5.2,28.8-8.2c-2.1-0.5-4.2-0.6-6.3-0.4
		c-2.4,0.3-4.8,0.8-7.2,1.4c-1.9,0.5-3.8,1-5.8,1.2c-1.4,0.2-2.9,0-4.2-0.5c-1.3-0.6-2.5-1.6-3.4-2.8c-0.6-1-1.6-1.9-2.7-2.4
		c-1.1-0.4-2.3-0.4-3.3,0.2c-1.5,1-2.8,2.2-3.9,3.6l-2.4,2.8l-2.3-1l6.3-7.7c3.4-4,6.4-6.5,9.1-7.5c2.4-1,5.1-1,7.5,0
		c0.9,0.4,1.8,0.8,2.5,1.5c0.9,0.7,1.7,1.5,2.4,2.4c0.2,0.2,0.7,0.7,1.5,1.5c0.8,0.8,1.7,1.6,2.7,2.2c1,0.6,2.1,1.2,3.3,1.6
		c3.3,1.4,6.9,1.8,10.4,1.3l2.3-1.7l2,2.3c-11.2,4.6-21.8,10.7-31.5,17.9c-9.1,7-15.2,14.2-18.3,21.6c-1.1,2.3-1.6,4.8-1.4,7.4
		c0.4,2,1.9,3.5,3.8,4.1c3.1,1.2,6.6,1.3,9.8,0.4c0-3,0.7-6,1.9-8.7c2-4.7,5-8.9,8.9-12.3c3.6-3.3,7.8-5.9,12.3-7.5
		c4.2-1.4,7.6-1.6,10.1-0.6c3.1,1.3,3.5,4.6,1.3,9.9c-1.8,4.4-4.5,8.3-7.9,11.6c-3.6,3.5-7.9,6.3-12.6,8.3c0.2,4.2,2.9,7.9,6.9,9.4
		c4,1.7,8.5,1.5,12.3-0.5c4.4-2.3,8.3-5.5,11.3-9.5c3.3-4.2,6.1-8.9,8.2-13.8c0.7-1.8,1.2-3.1,1.5-3.9c-3.5-3.2-6.4-7-8.6-11.1
		c-2-3.6-2.2-7.8-0.5-11.6c0.7-1.9,2.2-3.4,4-4.2c1.9-0.8,4.2-0.8,6.1,0.1c3.7,1.6,5.5,4.8,5.5,9.8c-0.1,5.4-1.1,10.8-3,15.9
		C603.5,1230.6,603,1232.2,602.5,1233.3z M574,1222.1c-2.4,1.8-4.4,3.9-6.2,6.3c-2.1,2.8-3.8,5.8-5.2,9c-1.1,2.4-1.7,5-1.9,7.7
		c3.9-1.9,7.5-4.5,10.6-7.7c3-2.9,5.3-6.4,7-10.3c1.6-3.8,1.6-6,0.3-6.5C577.5,1220.2,576,1220.7,574,1222.1L574,1222.1z"/>
	<path d="M665.7,1278.7l-6.4,7.8c-6.1,7.3-13.2,9.5-21.2,6.5c-7.5-2.8-10-7.5-7.5-14.1c1.3-3.3,3.1-6.3,5.4-8.9l23.3-29.1
		c1.3-1.5,2.3-3.2,3.1-5c0.7-1.8,0.2-3-1.3-3.6c-2.3-0.8-5.8,0.2-10.5,3.3c-5.8,4-11.2,8.5-16,13.6c-6.3,6.4-12.2,13.1-17.8,20.2
		l-6.8,9.2c-0.1,0.1-0.2,0.2-0.3,0.3v-0.1l-0.9,1.2l-17.3-6.5l54.8-72.8c0.8-1,1.4-2.1,1.9-3.3c0.6-1.4,0.4-3.1-0.6-4.3
		c-1.7-1.6-3.8-2.8-6-3.5l1.6-2.3c5.2,1.9,10.5,3.4,15.9,4.4c4.8,0.9,9.7,1.3,14.6,1.2l-38,50.9c7.6-7.7,14.1-12.6,19.6-14.7
		c5.1-2.1,10.7-2.2,15.8-0.2c3.8,1.4,6.3,3.4,7.5,5.8c1.1,2.6,1.1,5.6,0,8.2c-1.2,2.9-2.8,5.7-4.9,8.1l-25.5,32
		c-0.8,1-1.5,2.1-2.1,3.3c-0.7,1.1-0.3,2.6,0.9,3.3c0.2,0.1,0.4,0.2,0.6,0.2c2.7,1,6.5-1.3,11.2-6.9l4.4-5.1L665.7,1278.7z"/>
	<path d="M701.2,1249.3c0.6-1.6,0.1-2.7-1.4-3.3c-1.7-0.5-3.5-0.2-4.9,0.9c-2.4,1.7-4.6,3.8-6.4,6.2l-4.6,5.5l-2.4-0.8l6.7-8.2
		c6-7.5,13.2-9.7,21.6-6.8c3.8,1.3,6.2,3.3,7.3,5.6c1.1,2.6,1.1,5.5,0.1,8.2c-0.9,2.5-2.2,4.8-3.9,6.8l-26.1,33.4
		c-0.8,1-1.5,2.1-2,3.3c-0.6,1.1-0.2,2.6,0.9,3.2c0.2,0.1,0.4,0.2,0.7,0.2c1.5,0.4,3.2,0.1,4.5-0.8c2.6-1.7,4.8-3.8,6.7-6.3l4.3-5.2
		l2.3,0.8l-6.3,7.9c-5.8,7.5-12.8,9.9-21.1,7c-7.5-2.6-10.1-7.3-7.7-14.2c1.2-3.2,2.9-6.2,5.1-8.8l24.4-31.4
		C699.9,1251.6,700.6,1250.5,701.2,1249.3z M721,1216.4c3.2-1.2,6.8-1.1,10,0.1c2.5,0.7,4.6,2.2,6,4.4c1.2,2,1.3,4.4,0.5,6.5
		c-1,3.2-3.4,5.7-6.5,6.9c-3.3,1.3-7,1.3-10.3,0c-2.5-0.7-4.7-2.3-6.1-4.5c-1-2.1-1-4.5,0-6.6C715.6,1220,717.9,1217.5,721,1216.4z"
		/>
	<path d="M753.8,1267.4c-5.9,3.8-11,8.7-15,14.4c-4.7,6.4-8.3,13.5-10.7,21c-2.7,8.3-0.8,13.5,5.5,15.5c6,1.9,12.7,0,20-5.7l2.2,1.8
		c-4.4,3.8-9.6,6.6-15.3,8.3c-5.7,1.7-11.7,1.6-17.3-0.3c-6.1-2-10.4-5.1-13-9.5c-2.6-4.4-2.8-9.8-0.8-16.1
		c5.6-15.9,17.9-28.6,33.6-34.6c7.9-3,16.5-3.1,24.5-0.5c4,1.1,7.5,3.5,9.9,7c2,2.9,2.6,6.5,1.5,9.9c-0.8,2.3-2,4.4-3.7,6.1
		c-1.7,1.8-3.8,3.1-6.2,3.8c-2.2,0.7-4.6,0.7-6.9,0c-1.9-0.5-3.6-1.9-4.5-3.6c-0.9-1.8-1-4-0.3-5.9c1-3.2,3.2-5.9,6.2-7.6
		c2.9-1.8,6.2-2.6,9.6-2.4c-1-2.2-2.9-3.8-5.2-4.4C763.8,1263.2,759.1,1264.2,753.8,1267.4z"/>
	<path d="M831.9,1331.3l-5.8,8.3c-5.5,7.8-12.4,10.4-20.6,8c-7.6-2.2-10.4-6.7-8.5-13.5c1-3.3,2.7-6.5,4.8-9.3l21.1-30.7
		c1.2-1.6,2.1-3.4,2.7-5.2c0.5-1.8,0-3-1.6-3.5c-2.3-0.7-5.8,0.7-10.3,4.1c-5.5,4.4-10.5,9.3-15,14.7c-5.8,6.9-11.2,14.1-16.2,21.6
		l-6.1,9.7c-0.1,0.1-0.2,0.2-0.2,0.3v-0.1l-0.8,1.3l-17.7-5.2l49.4-76.6c0.7-1,1.2-2.2,1.6-3.3c0.5-1.5,0.2-3.1-0.9-4.2
		c-1.8-1.5-4-2.6-6.3-3.1l1.5-2.4c5.3,1.5,10.7,2.6,16.2,3.3c4.9,0.5,9.8,0.6,14.7,0.2l-34.2,53.5c7-8.2,13.2-13.6,18.4-16.1
		c4.9-2.4,10.5-2.9,15.8-1.4c3.9,1.2,6.5,2.9,7.9,5.2c1.3,2.5,1.5,5.5,0.6,8.2c-1,3-2.4,5.9-4.4,8.4l-23.2,33.5
		c-0.8,1-1.4,2.2-1.8,3.4c-0.6,1.2-0.1,2.6,1.1,3.2c0.2,0.1,0.4,0.2,0.6,0.2c2.8,0.8,6.3-1.7,10.7-7.7l3.9-5.3L831.9,1331.3z"/>
	<path d="M879.6,1322.4c4.9-6.6,11.4-11.9,18.8-15.4c7.6-3.5,16.1-4.3,24.2-2.1c6.6,1.7,11.2,4.7,13.9,9.2
		c2.7,4.5,3.2,10.1,1.4,16.9c-2,7.5-5.4,14.4-10.2,20.5c-4.9,6.6-11.4,11.9-18.8,15.4c-7.6,3.5-16.2,4.3-24.2,2.1
		c-6.6-1.6-11.2-4.7-13.9-9.2c-2.7-4.5-3.1-10.1-1.5-16.9C871.4,1335.5,874.8,1328.5,879.6,1322.4z M908.8,1313.8
		c-5.8,5.9-10.9,12.5-14.9,19.8c-4.4,7.3-7.7,15.2-9.9,23.4c-0.7,2.2-0.9,4.5-0.6,6.9c0.3,1.4,1.4,2.6,2.8,2.9
		c3.1,0.8,7.3-1.3,12.4-6.2c5.8-5.8,10.8-12.3,14.8-19.5c4.4-7.4,7.8-15.4,10-23.8c0.8-2.3,1-4.8,0.7-7.2c-0.2-1.4-1.3-2.5-2.7-2.8
		C918.2,1306.6,914,1308.8,908.8,1313.8z"/>
	<path d="M1015.5,1296.3c4,4.6,3.6,11.6-1,15.6c-0.5,0.5-1.1,0.9-1.7,1.2c-2.7,1.8-6,2.3-9.2,1.5c-2.2-0.4-4.2-1.5-5.6-3.1
		c-1.2-1.6-1.6-3.7-1-5.6c0.6-2.8,2.2-5.2,4.4-6.9c2.4-1.9,5.3-3,8.3-3.3c-0.4-0.7-0.9-1.2-1.5-1.6c-0.7-0.5-1.6-0.8-2.4-1
		c-2.5-0.6-5.1-0.2-7.4,1c-2.2,1.4-4.1,3.3-5.4,5.6c-1.8,2.7-4,6.6-6.7,11.8l-4.9,9.2l13.7,3.1l-1.3,2.4l-13.5-3.1l-42.6,80.4
		c-6.2-1.4-12.6-2.2-18.9-2.4l43.5-82.1l-10.7-2.4l1.3-2.4l10.6,2.4c2.9-5.6,6.3-10.9,10.3-15.7c3-3.7,6.7-6.7,10.9-8.9
		c6-2.9,12.9-3.5,19.4-1.8C1009.2,1291.4,1013.1,1293.4,1015.5,1296.3z"/>
	<path d="M1028.8,1388.5c-0.4,0.8-0.7,1.6-0.9,2.5c-0.3,1-0.1,2.2,0.5,3.1c0.6,0.8,1.6,1.4,2.6,1.5c2.1,0.3,4.3-0.3,6-1.6
		c2.6-2,4.7-4.5,6.3-7.3l3-4.9l2.4,0.5l-4.1,6.9c-5.4,9.4-12.8,13.2-22.3,11.3c-4.4-0.9-7.4-2.7-9.1-5.4c-1.8-3-2.3-6.6-1.4-10
		c0.5-2.6,1.5-5.1,2.7-7.5l22-42.6l-11.6-2.3l1.2-2.4l11.7,2.3l9.4-17.9c6.2,1.3,12.6,1.9,19,1.9l-10.2,19.7l14.5,2.9l-0.9,2.5
		l-14.9-3.1L1028.8,1388.5z"/>
	<path d="M1121.9,1395.6l-4.9,8.8c-4.7,8.3-11.3,11.7-19.7,10.2c-7.8-1.4-11.1-5.6-9.8-12.6c0.7-3.5,1.9-6.8,3.8-9.8l17.7-32.7
		c1-1.7,1.7-3.6,2.2-5.5c0.3-1.9-0.3-3-1.9-3.3c-2.4-0.4-5.7,1.3-9.8,5.2c-5,5-9.5,10.4-13.4,16.3c-5.1,7.4-9.7,15.1-13.9,23.1
		l-5,10.3c-0.1,0.1-0.2,0.2-0.2,0.4v-0.2l-0.6,1.4l-18.2-3.3l40.9-81.3c0.6-1.1,1-2.3,1.3-3.5c0.4-1.5-0.1-3.1-1.3-4.1
		c-2-1.3-4.2-2.1-6.5-2.4l1.3-2.6c5.4,1,10.9,1.5,16.4,1.5c4.9,0,9.8-0.5,14.6-1.4l-28.3,56.8c6.1-8.9,11.7-14.9,16.6-17.9
		c4.6-2.9,10.2-4,15.5-3.1c4,0.7,6.8,2.2,8.4,4.4c1.6,2.4,2.1,5.3,1.5,8.1c-0.6,3.1-1.8,6.1-3.5,8.8l-19.5,35.8
		c-0.7,1.1-1.2,2.3-1.5,3.6c-0.4,1.2,0.2,2.6,1.5,3c0.2,0.1,0.4,0.1,0.6,0.1c2.8,0.5,6.1-2.4,9.8-8.7l3.4-5.8L1121.9,1395.6z"/>
	<path d="M1178.2,1385.3c-9.5,4.2-19.6,7-29.9,8c-1,2.8-1.7,5.7-2.2,8.7c-0.7,4.6-0.4,7.9,1,10.1c1.6,2.3,4.2,3.8,7,4
		c3.2,0.4,6.4,0,9.5-1.1c4.1-1.4,7.9-3.6,11.1-6.5l1.9,1.4c-4,4.4-8.9,8-14.4,10.3c-5.8,2.5-12.1,3.3-18.3,2.3
		c-5.3-0.6-10.3-3.1-13.9-7.1c-3.3-4-4.7-9.3-3.6-14.4c1.5-8.3,4.9-16.1,10-22.8c5.3-7.4,12.2-13.4,20.2-17.7
		c7.6-4.2,16.3-5.7,24.8-4.4c3.5,0.4,6.7,1.9,9.3,4.2c2.2,2.1,3.2,5.2,2.5,8.2C1192.1,1375.6,1187.1,1381.2,1178.2,1385.3z
		 M1168.9,1362.1c-4.2,3.6-7.9,7.8-11,12.4c-3.5,5.1-6.4,10.7-8.7,16.5c5.5-1.3,10.8-3.4,15.6-6.4c3.8-2.5,7.2-5.7,9.8-9.4
		c2.6-3.7,4.3-7.9,5-12.4c0.3-1.1,0.3-2.3,0-3.4c-0.2-0.6-0.8-1.1-1.4-1.2C1175.7,1357.7,1172.5,1359,1168.9,1362.1z"/>
	<path d="M1310.8,1350.3c-0.5,3.2-2.4,6-5.1,7.7c-2.9,1.8-6.4,2.5-9.8,2c-2.5-0.2-4.9-1.2-6.8-3c-1.5-1.6-2.1-3.8-1.8-5.9
		c0.2-2.7,1.4-5.3,3.4-7.2c1.9-1.8,4.4-2.9,7-3.2l-1.6-0.2c-5.5-0.9-11.1-0.2-16.1,2.1c-3.3,1.6-6.2,4.1-8.2,7.2
		c-2.9,4.3-5.3,9-7.1,13.8l-2.3,5.6l18.8,2.4c6.3,0.7,12.7,0.9,19.1,0.4l-24.4,55.8c-0.6,1.2-1,2.4-1.3,3.7c-0.2,1.8,0.5,2.8,2.1,3
		c1.6,0.1,3.2-0.5,4.3-1.6c2.1-2.2,3.9-4.8,5.2-7.5l3.3-5.9l2.5,0.3l-4.6,9.1c-1.7,4-4.8,7.3-8.8,9.3c-3.4,1.6-7.1,2.2-10.9,1.8
		c-3.8-0.5-6.5-1.8-8.2-3.9c-1.6-2.5-2.2-5.5-1.6-8.4c0.5-3.3,1.4-6.5,2.9-9.5l19.2-43.9l-18.8-2.4l-34.8,84.1
		c-6.3-0.8-12.7-1-19.1-0.6l35.7-85.8l-11.2-1.4l1.1-2.5l11.2,1.4c2.2-5.6,5.2-10.8,9-15.6c3.1-3.8,7-6.9,11.4-9.1
		c4.6-2.2,9.6-3.7,14.7-4.2c5.7-0.6,11.4-0.5,17.1,0.3c6,0.8,10.2,2.5,12.7,5.3C1310.8,1345.5,1311.5,1348,1310.8,1350.3z"/>
	<path d="M1368.9,1375.9c1.4,1.8,1.9,4.1,1.6,6.3c-0.1,2-1,3.9-2.4,5.4c-1.2,1.2-2.8,1.7-4.5,1.5c-1.7-0.2-3.3-1.1-4.3-2.5
		c-1.2-1.7-1.7-3.7-1.4-5.7c0.3-2,0.9-3.9,1.8-5.6c-3.2,0.9-6.1,2.7-8.4,5c2.1,1.3,3.7,3.1,4.7,5.3c1,2.4,1.4,5,1,7.6
		c-0.5,3.8-1.9,7.5-4.2,10.6c-2.6,3.5-5.9,6.4-9.7,8.5c-4.2,2.3-8.8,3.7-13.6,4c-3.8,1.2-7.4,2.5-11,4.1c-2.3,1.1-3.5,2.2-3.6,3.4
		c0,0.9,0.4,1.7,1.2,2.2c1.3,0.9,2.8,1.6,4.2,2.2l10.6,4.8c3.8,1.6,7.2,3.8,10.3,6.5c2.4,2.3,3.6,5.7,3.1,9.1
		c-0.6,4.4-3,8.4-6.6,10.9c-4.6,3.4-9.8,5.7-15.4,6.9c-6.6,1.4-13.3,1.8-20,1c-5.8-0.4-11.4-2-16.6-4.5c-4.4-2.3-6.4-4.9-6-7.9
		c0.3-3,3-5.4,8.2-7c5.5-1.7,11.2-2.5,17-2.5l0.3,2c-5.7,2.4-8.8,5.5-9.2,9.4c-0.3,2.2,0.5,4.4,2.2,5.8c2.1,1.6,4.7,2.6,7.4,2.7
		c3.5,0.3,6.9,0.1,10.3-0.8c3.4-0.8,6.5-2.2,9.3-4.1c2.3-1.4,3.9-3.8,4.2-6.5c0.2-1.2-0.2-2.5-1.2-3.3c-1.6-1.1-3.3-2-5.1-2.6
		l-17.9-7.3c-2.1-0.8-3.9-2.1-5.3-3.8c-1.3-1.5-1.9-3.5-1.6-5.5c0.3-3.1,2.5-5.9,6.5-8.2c6-3.1,12.3-5.6,18.8-7.4l-1.3-0.1
		c-5-0.3-9.8-2.1-13.7-5.2c-3.4-2.8-5-7.2-4.2-11.5c0.5-4.3,2.3-8.3,5-11.7c3.2-4,7.4-7.1,12.1-9.1c5.6-2.2,11.7-2.9,17.7-2.1
		c3.4,0.3,6.8,1.2,10,2.5c1.8-2,4-3.6,6.5-4.6c2.4-1.1,5-1.5,7.6-1.2C1365.2,1373.1,1367.4,1374.2,1368.9,1375.9z M1334.3,1406.1
		c2.8-6,4.6-12.4,5.2-19c0.3-2,0.2-4.1-0.2-6.2c-0.3-1.4-1.6-2.5-3.1-2.5c-2.5-0.3-4.9,1-7.1,3.9c-2.4,3.3-4.2,6.9-5.4,10.8
		c-1.3,4.1-2.2,8.4-2.7,12.7c-0.4,2-0.2,4.1,0.4,6c0.5,1.2,1.6,2,2.9,2.1C1328.3,1414.4,1331.6,1411.8,1334.3,1406.1L1334.3,1406.1z
		"/>
	<path d="M1370.4,1448.4c2.9,0.4,5.9-0.5,8.2-2.3c2.3-2,3.6-4.9,3.8-7.9c0.2-3-0.1-6-1.1-8.8c-1.2-3.6-2.7-7.2-4.6-10.5l-2.6-4.9
		c-1.3-2.5-2.4-5.1-3.1-7.8c-0.6-2.4-0.8-4.8-0.6-7.2c0.3-5.4,3.1-10.2,7.6-13.2c4.5-3.2,10.5-4.4,17.9-3.8
		c4.9,0.3,9.7,1.8,13.9,4.4c3.6,2.4,5.2,6.1,4.7,11c-0.2,2.4-1.1,4.7-2.7,6.5c-1.5,1.8-3.8,2.8-6.1,2.5c-2-0.1-3.9-1.2-5-3
		c-1.2-1.9-1.7-4.3-1.4-6.5c0.1-2.1,0.7-4.1,1.6-6c0.8-1.7,1.9-3.2,3.3-4.5c-1.3-0.9-2.9-1.4-4.5-1.5c-2.8-0.4-5.5,0.4-7.6,2.3
		c-2.1,2.1-3.4,4.9-3.5,7.9c-0.2,2.2,0,4.4,0.8,6.5c1.1,2.9,2.4,5.7,3.9,8.5l1.6,2.9c1.9,3.8,3.6,7.8,4.9,11.9c0.9,2.9,1.2,6,0.9,9
		c-0.3,3.6-1.6,7.1-3.9,10c-2.4,2.9-5.6,5.1-9.2,6.3c-9.5,2.9-19.8,1.6-28.2-3.6c-3.9-2.8-5.6-6.8-5.1-12.1c0.1-2.4,1-4.7,2.6-6.5
		c1.4-1.7,3.5-2.5,5.6-2.3c2.2,0.2,4.1,1.4,5.2,3.4c1.2,2.3,1.7,4.9,1.4,7.5c-0.1,1.8-0.5,3.5-1.1,5.2c-0.6,1.5-1.4,3.3-2.5,5.4
		C1367,1447.8,1368.7,1448.3,1370.4,1448.4z"/>
	<path d="M528.9,1414.4c-0.8,1.4-0.7,3.2,0.3,4.5c1.9,1.8,4.1,3.2,6.5,4.2l-1.6,2.4c-5-2.4-12-5.6-21.2-9.5
		c-9.2-3.9-16.1-6.7-20.8-8.4l1.8-2.3c2.4,0.9,4.8,1.6,7.3,1.9c1.8,0.1,3.6-0.4,5-1.5c2.2-1.7,4.1-3.8,5.7-6l45.1-57.7
		c1.4-1.8,2.7-3.8,3.7-5.8c0.9-1.5,0.7-3.3-0.3-4.6c-1.9-1.7-4-3.1-6.4-4.1l1.8-2.3c4.2,2.1,11,5.1,20.4,9.2
		c8.7,3.7,15.9,6.6,21.7,8.8l-1.8,2.3c-2.4-1-5-1.7-7.6-2c-1.7-0.1-3.5,0.4-4.9,1.4c-2.2,1.8-4.1,3.8-5.8,6.1l-45,57.7
		C531.4,1410.3,530,1412.3,528.9,1414.4z"/>
	<path d="M683.8,1434.9c-2.7,7.2-6.5,13.8-11.4,19.7c-4.5,5.6-10.2,10-16.8,12.8c-6.2,2.6-13.1,2.7-19.3,0.3
		c-7.1-2.6-11.3-7-12.5-13.1c-7.2,2.8-15.2,2.8-22.4,0c-5.8-2.2-9.6-5.4-11.6-9.5c-1.9-4.2-2-9.1-0.3-13.4
		c2.3-5.7,6.4-10.6,11.7-13.8c6.5-4.3,13.5-7.8,20.8-10.5c8-3,18.3-6.4,31-10.1c-2.3-0.5-4.6-0.5-6.9-0.2c-2.6,0.4-5.2,1-7.7,1.8
		c-2,0.7-4.1,1.2-6.2,1.6c-1.5,0.3-3.1,0.1-4.6-0.4c-1.5-0.6-2.8-1.7-3.8-2.9c-0.7-1.1-1.8-2-3-2.5c-1.2-0.4-2.5-0.3-3.5,0.4
		c-1.6,1.1-3,2.5-4.1,4.1l-2.5,3.3l-2.5-0.9l6.5-8.7c3.5-4.5,6.7-7.3,9.6-8.5c2.6-1.2,5.5-1.3,8.2-0.4c1,0.3,1.9,0.8,2.8,1.5
		c1,0.8,1.9,1.6,2.7,2.5c0.2,0.2,0.8,0.7,1.7,1.6c0.9,0.9,2,1.6,3,2.3c1.1,0.6,2.3,1.2,3.6,1.6c3.6,1.4,7.5,1.7,11.3,1l2.4-2
		l2.3,2.4c-12,5.5-23.2,12.5-33.4,20.8c-9.6,7.9-15.9,16-19,24.2c-1.2,2.6-1.6,5.4-1.2,8.2c0.6,2.1,2.2,3.8,4.3,4.3
		c3.5,1.2,7.2,1.2,10.6,0c-0.1-3.3,0.5-6.5,1.7-9.6c2-5.2,5.1-9.9,9.2-13.8c3.7-3.7,8.2-6.7,13.1-8.7c4.5-1.8,8.2-2.1,11-1.1
		c3.4,1.3,4,4.9,1.8,10.7c-1.8,4.8-4.5,9.2-8.1,13c-3.8,4-8.3,7.2-13.3,9.5c0.5,4.5,3.5,8.4,7.8,9.9c4.4,1.7,9.3,1.3,13.3-1.1
		c4.7-2.6,8.8-6.3,11.9-10.8c3.5-4.7,6.2-9.9,8.3-15.4c0.7-2,1.2-3.4,1.5-4.3c-3.9-3.4-7.2-7.3-9.8-11.7c-2.3-3.8-2.7-8.4-1-12.5
		c0.7-2.1,2.2-3.7,4.2-4.7c2.1-1,4.4-1,6.5-0.1c4.1,1.5,6.2,5,6.4,10.4c0.1,5.9-0.8,11.8-2.6,17.4
		C684.7,1432,684.2,1433.7,683.8,1434.9z M652.2,1423.9c-2.5,2-4.7,4.4-6.5,7.1c-2.2,3.1-3.9,6.5-5.2,10c-1,2.7-1.6,5.6-1.8,8.5
		c4.2-2.3,8-5.3,11.2-8.8c3.1-3.3,5.5-7.2,7.2-11.4c1.6-4.2,1.6-6.6,0-7.1C656,1421.7,654.4,1422.3,652.2,1423.9L652.2,1423.9z"/>
	<path d="M695.3,1438.2c5.9-6.8,13.4-12,21.7-15.1c8.5-3.2,17.9-3.3,26.4-0.2c7,2.3,11.8,6.1,14.3,11.2c2.5,5.1,2.6,11.2,0.1,18.5
		c-2.8,7.9-7.1,15.2-12.8,21.4c-5.9,6.8-13.3,11.9-21.7,15.1c-8.5,3.2-17.9,3.3-26.4,0.2c-7-2.3-11.8-6.1-14.3-11.2
		c-2.5-5.1-2.6-11.2-0.2-18.5C685.3,1451.6,689.7,1444.4,695.3,1438.2z M727.8,1431.2c-6.8,5.9-12.8,12.7-17.9,20.2
		c-5.4,7.6-9.7,15.8-12.7,24.6c-0.9,2.3-1.4,4.9-1.3,7.4c0.2,1.6,1.3,2.9,2.8,3.3c3.3,1.1,8-0.8,14-5.7c6.8-5.7,12.7-12.4,17.7-19.8
		c5.5-7.7,9.8-16.1,12.8-25c1-2.4,1.5-5,1.4-7.7c-0.1-1.5-1.2-2.8-2.7-3.3C738.6,1424.3,733.9,1426.2,727.8,1431.2L727.8,1431.2z"/>
	<path d="M824.9,1502.7l2.6,0.8l-6.8,9.3c-2.5,3.9-6.3,6.9-10.7,8.5c-3.9,1.2-8,1.2-11.8,0c-2.2-0.6-4.2-1.7-5.9-3.1
		c-1.4-1.2-2.4-2.8-2.8-4.6c-0.3-2-0.2-4,0.5-6c1-3,2.4-5.8,4-8.5l7.9-12.9c-4.9,6.2-10.3,11.9-16.3,17c-3.8,3.3-8.2,5.8-13.1,7.2
		c-4,0.9-8.3,0.8-12.2-0.5c-4.1-1.2-6.9-3.1-8.4-5.6c-1.5-2.9-1.7-6.2-0.6-9.3c1-3.2,2.6-6.2,4.6-8.9l25.4-36.3
		c0.9-1.1,1.5-2.4,2-3.7c0.6-1.9,0-3.1-1.7-3.7c-1.7-0.4-3.5,0-5,1c-2.7,2-5,4.4-6.9,7.2l-4.4,5.8l-2.6-0.8l6.4-8.9
		c6.1-8.4,13.6-11.2,22.5-8.5c8.3,2.5,11.3,7.5,9,15.1c-1.2,3.5-2.9,6.8-5,9.8l-23.3,33.2c-1.3,1.7-2.3,3.5-3,5.5
		c-0.6,2.1-0.1,3.4,1.6,3.9c2.7,0.8,6.8-0.9,12.1-5.1c6.5-5.4,12.4-11.4,17.7-17.9c6.7-8.1,13-16.7,18.6-25.6l4.4-7
		c6.6,2,13.5,3.3,20.3,4l-35.4,55.7c-0.9,1.3-1.6,2.8-2.2,4.3c-0.5,1.1,0,2.3,1,2.8c0.2,0.1,0.4,0.1,0.6,0.2
		c1.9,0.5,3.9,0.1,5.4-1.1c2.6-2,4.8-4.4,6.6-7.1L824.9,1502.7z"/>
	<path d="M847.2,1524.4c-0.6,2.3,0,3.7,1.9,4.2c2.8,0.8,6.6-2.1,11.2-8.6l4.3-5.9l2.6,0.7l-6.2,9.1c-3.2,4.6-6.7,7.6-10.6,8.8
		c-3.8,1.2-7.8,1.3-11.6,0.3c-4.1-1.1-6.9-3.1-8.5-5.8c-1.5-3-1.8-6.6-0.7-9.8c1-3.2,2.4-6.3,4.3-9.2l41.4-65.8
		c0.7-1.1,1.3-2.4,1.7-3.7c0.6-1.6,0.2-3.4-1-4.6c-2-1.6-4.3-2.8-6.9-3.3l1.8-2.6c5.7,1.6,11.6,2.7,17.5,3.3c5.3,0.5,10.7,0.5,16,0
		l-55.8,89.6C848.1,1522.2,847.6,1523.2,847.2,1524.4z"/>
	<path d="M943.7,1534.5l2.6,0.7l-5.9,9.2c-3,4.8-6.4,7.9-10.2,9.2c-3.8,1.3-7.8,1.4-11.6,0.4c-5.7-1.4-8.8-4.5-9.3-9.1
		c-0.3-2-0.2-4.1,0.4-6.1c1-3.3,2.4-6.5,4.2-9.4l0.3-0.5c-5.5,6.9-10.7,11.7-15.5,14.3c-4.7,2.6-10.2,3.2-15.4,1.8
		c-4.5-1-8.4-3.8-10.7-7.9c-2.2-4-2.5-9.2-0.9-15.7c2.4-8.4,6.5-16.1,12-22.8c5.9-7.6,13.4-13.9,22-18.3c8-4.3,17.4-5.4,26.2-3.1
		c4.3,1.1,6.7,3.4,7.2,6.8l12.2-21.9c0.7-1.2,1.3-2.4,1.6-3.7c0.5-1.6,0.1-3.4-1.1-4.6c-2-1.6-4.4-2.6-6.9-3.1l1.6-2.7
		c5.8,1.4,11.7,2.4,17.7,2.9c5.4,0.4,10.7,0.3,16.1-0.3l-52.1,91.2c-0.7,1.1-1.3,2.3-1.6,3.6c-0.5,2.1,0,3.4,1.8,3.8
		c1.7,0.3,3.5-0.2,4.8-1.4c2.6-2.1,4.8-4.6,6.5-7.4L943.7,1534.5z M937.3,1487.2c-0.2-3.5-1.6-5.6-4.3-6.2c-3.9-1-8.8,0.8-14.5,5.4
		c-6.4,5.3-11.9,11.7-16.2,18.7c-4.9,7.6-8.6,15.9-10.9,24.6c-0.7,2.4-1,4.9-0.8,7.5c0.1,1.6,1.2,2.9,2.8,3.3
		c1.8,0.5,4.4-0.3,7.5-2.4c4-2.8,7.6-6.1,10.8-9.8c4.5-5.1,8.5-10.6,12.1-16.5L937.3,1487.2z"/>
	<path d="M1031.6,1511.3c-6,4.7-11,10.6-14.7,17.2c-4.4,7.4-7.6,15.4-9.4,23.9c-2,9.3,0.5,14.7,7.6,16.2c6.7,1.4,13.7-1.3,21-8.3
		l2.5,1.6c-4.4,4.6-9.7,8.2-15.6,10.6c-6,2.4-12.5,2.9-18.8,1.5c-6.8-1.5-11.8-4.4-15.1-8.9s-4.1-10.3-2.6-17.3
		c4.4-17.8,16.4-32.8,32.8-41.1c8.2-4,17.5-5.1,26.4-3.1c4.5,0.8,8.5,3.1,11.4,6.5c2.5,2.9,3.4,6.8,2.6,10.6c-0.6,2.6-1.7,5-3.4,7
		c-1.7,2.1-3.8,3.7-6.3,4.8c-2.4,1-5,1.3-7.5,0.7c-2.1-0.4-4-1.6-5.2-3.5c-1.2-1.9-1.5-4.2-1-6.3c0.8-3.6,2.9-6.8,5.9-8.9
		c2.9-2.2,6.4-3.5,10.1-3.6c-1.3-2.3-3.5-3.8-6.1-4.2C1041.9,1505.8,1037,1507.3,1031.6,1511.3z"/>
	<path d="M1123.1,1572.5l-5.5,9.5c-5.2,9-12.4,12.6-21.5,10.8c-8.5-1.6-12-6.2-10.5-13.8c0.8-3.7,2.2-7.3,4.2-10.5l19.7-35.4
		c1.1-1.8,1.9-3.8,2.4-5.9c0.4-2-0.3-3.3-2.1-3.6c-2.6-0.5-6.2,1.3-10.7,5.5c-5.5,5.3-10.4,11.2-14.7,17.5
		c-5.6,8-10.8,16.3-15.4,24.9l-5.6,11.1c-0.1,0.1-0.2,0.2-0.2,0.4v-0.1l-0.7,1.5l-19.7-3.8l45.7-88.1c0.6-1.2,1.1-2.5,1.5-3.8
		c0.4-1.6-0.1-3.4-1.4-4.5c-2.1-1.4-4.6-2.4-7.1-2.7l1.4-2.8c5.9,1.1,11.9,1.7,17.9,1.8c5.3,0.1,10.6-0.4,15.9-1.3l-31.6,61.4
		c6.8-9.6,12.9-16.1,18.3-19.3c5.1-3.1,11.1-4.2,16.9-3c4.4,0.8,7.4,2.5,9.1,4.9c1.7,2.6,2.2,5.8,1.5,8.8c-0.7,3.4-2.1,6.6-3.9,9.6
		l-21.6,38.7c-0.7,1.2-1.3,2.5-1.6,3.9c-0.5,1.3,0.2,2.8,1.5,3.3c0.2,0.1,0.5,0.1,0.7,0.1c3.1,0.6,6.7-2.5,10.8-9.4l3.8-6.2
		L1123.1,1572.5z"/>
	<path d="M1139.1,1552.2c4.8-7.6,11.3-13.9,19.1-18.3c7.9-4.5,17.2-6,26.1-4.3c7.3,1.2,12.6,4.2,15.9,8.8c3.3,4.6,4.3,10.7,3,18.2
		c-1.5,8.3-4.7,16.1-9.3,23.2c-4.8,7.6-11.3,13.9-19.1,18.3c-7.9,4.5-17.2,6-26.1,4.3c-7.3-1.2-12.6-4.2-15.9-8.8
		c-3.3-4.6-4.3-10.7-3-18.2C1131.2,1567.1,1134.4,1559.2,1139.1,1552.2z M1170.1,1540.3c-5.8,6.9-10.7,14.5-14.5,22.7
		c-4.1,8.3-7.1,17.2-8.8,26.3c-0.6,2.5-0.6,5-0.1,7.5c0.4,1.5,1.7,2.7,3.3,2.9c3.5,0.6,7.8-2,12.9-7.8c5.8-6.8,10.7-14.3,14.4-22.4
		c4.2-8.4,7.2-17.4,8.8-26.6c0.6-2.6,0.7-5.3,0.2-7.8c-0.4-1.5-1.6-2.6-3.1-2.8C1179.7,1531.7,1175.3,1534.4,1170.1,1540.3
		L1170.1,1540.3z"/>
	<path d="M1212,1564.3c4.6-7.7,11.1-14.1,18.8-18.7c7.8-4.7,17-6.4,26-4.9c7.3,1.1,12.7,3.9,16,8.5c3.4,4.6,4.5,10.6,3.4,18.1
		c-1.4,8.3-4.4,16.2-8.8,23.3c-4.6,7.7-11,14.1-18.7,18.7c-7.8,4.7-17,6.4-26,4.9c-7.3-1.1-12.7-3.9-16-8.5
		c-3.4-4.6-4.5-10.6-3.4-18.1C1204.5,1579.4,1207.5,1571.4,1212,1564.3z M1242.7,1551.9c-5.7,7-10.4,14.7-14,23
		c-3.9,8.4-6.7,17.3-8.2,26.5c-0.5,2.5-0.5,5,0,7.5c0.4,1.5,1.8,2.6,3.3,2.8c3.5,0.5,7.7-2.2,12.8-8.1c5.7-6.9,10.4-14.5,13.9-22.7
		c4-8.5,6.8-17.5,8.3-26.8c0.6-2.6,0.6-5.3,0-7.9c-0.4-1.5-1.7-2.6-3.3-2.7C1252.2,1543.1,1247.9,1545.8,1242.7,1551.9z"/>
	<path d="M1288.6,1620.6c3.2,0.6,6.4-0.2,9-2.2c2.6-2.1,4.2-5.2,4.4-8.5c0.4-3.2,0.1-6.5-0.8-9.6c-1.2-4-2.7-7.9-4.5-11.6
		c-0.3-0.6-1.2-2.4-2.7-5.5c-1.4-2.7-2.4-5.7-3.1-8.6c-0.6-2.6-0.7-5.3-0.4-7.9c0.6-5.8,3.8-11,8.7-14.1c5.1-3.3,11.6-4.4,19.6-3.4
		c5.3,0.5,10.5,2.3,14.9,5.3c3.8,2.7,5.4,6.8,4.7,12.2c-0.3,2.6-1.5,5-3.3,6.9c-1.7,1.9-4.2,2.9-6.8,2.4c-2.2-0.2-4.2-1.5-5.3-3.4
		c-1.1-2.1-1.5-4.6-1-7c0.3-2.3,1-4.4,2.1-6.4c1-1.8,2.3-3.4,3.8-4.7c-1.4-1-3.1-1.6-4.8-1.8c-3-0.5-6,0.3-8.4,2.2
		c-2.4,2.2-3.9,5.2-4.2,8.5c-0.3,2.4-0.1,4.8,0.6,7.1c1.1,3.2,2.4,6.3,3.9,9.4l1.6,3.3c2,4.2,3.6,8.6,4.9,13.1
		c0.8,3.2,1.1,6.5,0.7,9.8c-0.4,4-2.1,7.7-4.7,10.7c-2.8,3.1-6.3,5.3-10.3,6.5c-10.4,2.8-21.6,1-30.6-5c-4.1-3.2-5.8-7.6-5-13.4
		c0.2-2.6,1.3-5,3.1-7c2.7-2.9,7.2-3.1,10.1-0.4c0.6,0.6,1.1,1.3,1.5,2c1.2,2.5,1.7,5.4,1.2,8.2c-0.2,1.9-0.7,3.7-1.4,5.5
		c-0.7,1.6-1.6,3.5-2.9,5.7C1285,1619.8,1286.8,1620.4,1288.6,1620.6z"/>
	<path d="M1389.5,1589.6c-10.1,5.1-20.9,8.5-32.1,10.2c-0.9,3.1-1.6,6.3-1.9,9.5c-0.6,5,0,8.6,1.6,10.9c1.9,2.4,4.7,3.9,7.8,4
		c3.5,0.3,7-0.3,10.2-1.6c4.4-1.8,8.4-4.4,11.7-7.7l2.1,1.4c-4.1,5-9.3,9.1-15.2,11.9c-6.1,3-13,4.2-19.8,3.4
		c-5.8-0.4-11.3-2.9-15.4-7c-3.8-4-5.3-9.1-4.6-15.4c1.2-9.1,4.6-17.8,9.8-25.3c5.3-8.3,12.4-15.2,20.9-20.3c8-4.9,17.4-7,26.8-6
		c3.8,0.3,7.4,1.7,10.3,4.1c2.5,2.2,3.8,5.5,3.3,8.7C1404.1,1578.4,1399,1584.7,1389.5,1589.6z M1378.1,1564.8
		c-4.4,4.1-8.2,8.8-11.3,14c-3.6,5.8-6.5,11.9-8.6,18.3c5.9-1.7,11.6-4.3,16.6-7.7c4.1-2.9,7.5-6.5,10.2-10.7
		c2.7-4.1,4.4-8.8,4.9-13.7c0.2-1.2,0.2-2.5-0.1-3.8c-0.3-0.7-0.9-1.1-1.6-1.2C1385.3,1559.8,1382,1561.3,1378.1,1564.8
		L1378.1,1564.8z"/>
	<path d="M1403,1618.8c2.9-2.3,6.5-3.3,10.2-2.9c2.6,0.1,5,1.2,6.9,3c1.6,1.8,2.3,4.3,1.9,6.6c-0.4,3.5-2.2,6.7-5.1,8.7
		c-2.8,2.4-6.5,3.5-10.1,3.1c-2.6-0.1-5-1.1-6.8-3c-1.5-1.8-2.2-4.2-1.9-6.5C1398.4,1624.3,1400.2,1621,1403,1618.8z"/>
	<path d="M1530.3,798.8c-1.9,2.3-4.5,4-7.3,4.9c-3.6,1.1-7.3,1.7-11.1,1.8c-8,0.4-16-0.5-24-0.1c-5.2,0.2-5.3,8.4,0,8.2
		c16.1-0.8,38.3,4.5,49.4-10.7c1.1-1.9,0.5-4.4-1.5-5.6C1534,796.2,1531.5,796.9,1530.3,798.8L1530.3,798.8z"/>
</g>
</svg>
