<svg id="Layer_1" data-name="Layer 1" xmlns="http://www.w3.org/2000/svg" viewBox="0 0 104.4 62.26"><defs><style>.cls-1{fill:#8d87c1;}.cls-2{fill:none;stroke:#8d87c1;stroke-miterlimit:10;stroke-width:6px;}</style></defs><title>cv</title><path class="cls-1" d="M25.41,0c12,0,21.1,6.77,24,17.71H35.87a11.15,11.15,0,0,0-10.6-6.48c-7.56,0-12.74,5.62-12.74,14.55s5.18,14.54,12.74,14.54a11.15,11.15,0,0,0,10.6-6.48H49.39c-2.88,11-12,17.64-24,17.64C10.51,51.51,0,40.9,0,25.78S10.51,0,25.41,0Z"/><path class="cls-1" d="M91.37.57h13L86.47,51.12H71.06L53.13.57H66.24L78.77,38.74Z"/><line class="cls-2" y1="59.26" x2="104.4" y2="59.26"/></svg>