<?xml version="1.0" encoding="utf-8"?>
<!-- Generator: Adobe Illustrator 24.0.1, SVG Export Plug-In . SVG Version: 6.00 Build 0)  -->
<svg version="1.1" id="Layer_1" xmlns="http://www.w3.org/2000/svg" xmlns:xlink="http://www.w3.org/1999/xlink" x="0px" y="0px"
	 viewBox="0 0 119.9 85.4" style="enable-background:new 0 0 119.9 85.4;" xml:space="preserve">
<style type="text/css">
	.st0{fill:#8D87C1;stroke:#000000;stroke-width:2;stroke-miterlimit:10;}
	.st1{fill:#FFFFFF;stroke:#000000;stroke-width:2;stroke-miterlimit:10;}
	.st2{fill:none;stroke:#000000;stroke-width:3;stroke-miterlimit:10;}
	.st3{fill:#8D87C1;stroke:#000000;stroke-miterlimit:10;}
</style>
<path class="st0" d="M35.7,42.8c0,0-2.8,11.6,1.7,11.5s62.7,0,62.7,0s6.6-12,1.3-19S35.7,42.8,35.7,42.8z"/>
<polygon class="st1" points="86.1,51.2 17.4,38.4 49.9,3 118.6,15.8 "/>
<path class="st2" d="M68.1,25.5c0,0-49.6-7-56.6,9.2s19.6,13.1,11.8,23.9s-14.3,9.2-13,14.2"/>
<ellipse transform="matrix(0.1009 -0.9949 0.9949 0.1009 35.9039 90.7199)" class="st0" cx="68.1" cy="25.5" rx="3.7" ry="5.3"/>
<polygon class="st3" points="12.2,63.4 13.7,67.6 18.1,68.7 14.6,71.5 14.9,76 11.1,73.5 7,75.2 8.2,70.9 5.3,67.4 9.8,67.2 "/>
</svg>
