<svg xmlns="http://www.w3.org/2000/svg" viewBox="0 0 506.85 106.72"><defs><style>.cls-1{fill:none;stroke:#000;stroke-miterlimit:10;stroke-width:0.5px;}</style></defs><title>skulls2</title><g id="Layer_3" data-name="Layer 3"><path class="cls-1" d="M40.19,3a39.32,39.32,0,0,1,9.64,1.11c.48.12,1,.25,1.43.4A35.27,35.27,0,0,1,58.65,8c1,.57,1.92,1.22,2.91,1.94A36.11,36.11,0,0,1,73,23.59c5.73,12.18-1.2,29.11-1.2,29.11"/><path class="cls-1" d="M40.11,3h.08c.24,0,.25,0,0,0l-.12,0A35.47,35.47,0,0,0,28.43,4.51a31.09,31.09,0,0,0-6.11,2.66,40,40,0,0,0-7.06,5,36.27,36.27,0,0,0-5.9,6.74,30.8,30.8,0,0,0-1.8,3c-.3.54-.58,1.1-.85,1.68C1,35.77,7.91,52.7,7.91,52.7"/><path d="M23.18,74.25a1.26,1.26,0,0,1-1-.64,4.16,4.16,0,0,1-.51-1.09,9.08,9.08,0,0,1-.37-2.37,9,9,0,0,0-1.5-4.39,13.38,13.38,0,0,0-3-3.53,3,3,0,0,0-2.1-.54,11.08,11.08,0,0,0-2.28.49,3.91,3.91,0,0,1-2.49.1,1.3,1.3,0,0,1-.26-.14s0,0,0,0A7.89,7.89,0,0,1,8,60.83c-1.17-1.11-2.18-2.36-3.24-3.52a1.5,1.5,0,0,1-.44-1.22,2.18,2.18,0,0,1,.53-1.16,3.34,3.34,0,0,1,1-.78,10.47,10.47,0,0,0,1.06-.51c.37-.24.74-.5,1.09-.77H8c.35-.27.68-.56,1-.85.52-.46,1-.94,1.52-1.42A23.53,23.53,0,0,1,7,53.84a9.91,9.91,0,0,1-1.06.56,3,3,0,0,0-.86.73,1.91,1.91,0,0,0-.43,1,1.18,1.18,0,0,0,.37.93c1.13,1.14,2.12,2.38,3.27,3.45a7.13,7.13,0,0,0,1.86,1.34,3.45,3.45,0,0,0,2.18-.14,12.1,12.1,0,0,1,2.38-.49,3.51,3.51,0,0,1,2.4.65,13.21,13.21,0,0,1,3.09,3.7,9.25,9.25,0,0,1,1.41,4.58,9.29,9.29,0,0,0,.24,2.35,4.11,4.11,0,0,0,.45,1.08A1.22,1.22,0,0,0,23.18,74.25Z"/><path d="M75.41,56.09A1.56,1.56,0,0,1,75,57.31c-1.06,1.16-2,2.41-3.21,3.52a10.79,10.79,0,0,1-1.21,1h0a3,3,0,0,1-3.21.32,11.64,11.64,0,0,0-2.27-.48,2.9,2.9,0,0,0-2.08.56,13.55,13.55,0,0,0-3,3.53,9.15,9.15,0,0,0-1.47,4.38,9.36,9.36,0,0,1-.36,2.36,4.51,4.51,0,0,1-.51,1.09,1.25,1.25,0,0,1-.95.64,1.2,1.2,0,0,0,.9-.68A4.09,4.09,0,0,0,58,72.49a9.14,9.14,0,0,0,.24-2.33,9.36,9.36,0,0,1,1.38-4.57,13.08,13.08,0,0,1,3.05-3.71,3.46,3.46,0,0,1,2.38-.67,12.15,12.15,0,0,1,2.37.49,3.39,3.39,0,0,0,2.16.14,6.72,6.72,0,0,0,1.84-1.34c1.15-1.07,2.12-2.31,3.24-3.45a1.21,1.21,0,0,0,.37-.93,2,2,0,0,0-.42-1,3.14,3.14,0,0,0-.85-.73,9.91,9.91,0,0,1-1.06-.56,23.73,23.73,0,0,1-3.47-3.25,23.64,23.64,0,0,0,3.6,3c.33.21.68.32,1.06.52a3.43,3.43,0,0,1,1,.78A2.25,2.25,0,0,1,75.41,56.09Z"/><path d="M70.78,61.24c-.07.2-.14.41-.22.6A5.66,5.66,0,0,1,69.93,63c-.37.54-.83,1-1.25,1.51a9.38,9.38,0,0,0-1.09,1.62,6.79,6.79,0,0,0-.77,1.77,11.48,11.48,0,0,0-.07,3.88l.49,3.88h0a15.81,15.81,0,0,1-.12,3.3l-.34,3.27c-.24,2.18-.48,4.37-.92,6.53a13.42,13.42,0,0,1-1,3.17,3.48,3.48,0,0,1-1.11,1.31,1.86,1.86,0,0,1-.87.21,3.11,3.11,0,0,0-.77.11,6.8,6.8,0,0,0-2.55,1.87c-.75.77-1.43,1.66-2.27,2.4a23.83,23.83,0,0,1-5.47,3.7,31.66,31.66,0,0,1-6.19,2.34,3.84,3.84,0,0,1-1.72.07,11.11,11.11,0,0,1-1.63-.41c-.53-.17-1-.37-1.55-.58l-.76-.34a.91.91,0,0,0-.64-.15,5.73,5.73,0,0,0-1.4.67,6.74,6.74,0,0,1-1.56.67A6.74,6.74,0,0,1,33,103.7a16.07,16.07,0,0,1-3.14-1.11,10.12,10.12,0,0,1-1.46-.83c-.47-.34-.85-.69-1.29-1l-5.06-4.2c-1.68-1.41-3.36-2.82-5-4.25-.82-.73-1.65-1.44-2.46-2.19L14,89.5a2.92,2.92,0,0,1-.49-.73,6.89,6.89,0,0,1-.49-1.6,16.6,16.6,0,0,1-.34-3.28l-.08-3.3c0-2.2.07-4.39.14-6.58,0-1.09,0-2.18,0-3.28a10.09,10.09,0,0,0-.44-3.23,18.63,18.63,0,0,0-2.63-5.37l-.32-.45c.12.15.23.3.34.46a18.37,18.37,0,0,1,2.71,5.33,10.26,10.26,0,0,1,.5,3.25c0,1.1.07,2.2,0,3.3,0,4.37-.3,8.79.37,13.09a6.64,6.64,0,0,0,.48,1.53,2.13,2.13,0,0,0,.43.63l.59.57c.8.74,1.63,1.45,2.46,2.16,1.66,1.43,3.35,2.83,5,4.23l5.08,4.17a12.44,12.44,0,0,0,5.73,2.86,6.4,6.4,0,0,0,3.13.1,6.22,6.22,0,0,0,1.45-.64,6.37,6.37,0,0,1,1.55-.74,1.45,1.45,0,0,1,.93.19l.75.33c.5.22,1,.41,1.51.58a5.37,5.37,0,0,0,3.09.35A27.86,27.86,0,0,0,57,97.55c1.6-1.4,2.76-3.49,5-4.32.57-.19,1.17,0,1.56-.28a3.16,3.16,0,0,0,1-1.17,12.44,12.44,0,0,0,1-3.08c.46-2.13.71-4.31,1-6.49l.36-3.27A15.39,15.39,0,0,0,67,75.69h0l-.42-3.88a11.54,11.54,0,0,1,.13-3.93,6.57,6.57,0,0,1,.81-1.79,9,9,0,0,1,1.13-1.61c.42-.49.89-.95,1.27-1.48a5.08,5.08,0,0,0,.63-1.14A6.44,6.44,0,0,0,70.78,61.24Z"/><path d="M22.9,79.22a3.24,3.24,0,0,1-2.11-.32l-.16-.1a5.27,5.27,0,0,1-1.47-1.35,13.28,13.28,0,0,1-1.88-3.88A30.28,30.28,0,0,1,16,65.14c.21,1.4.44,2.8.72,4.19a35.53,35.53,0,0,0,1.05,4.09,14.56,14.56,0,0,0,1.72,3.81,5.07,5.07,0,0,0,1.05,1.17A3.29,3.29,0,0,0,22.9,79.22Z"/><path d="M64.36,67.41c0,.73,0,1.46-.1,2.19,0,.38-.07.76-.11,1.14a28.31,28.31,0,0,1-.53,3A12.68,12.68,0,0,1,62,77.66a4.87,4.87,0,0,1-1.54,1.49,3.06,3.06,0,0,1-2.07.32,3.61,3.61,0,0,0,3.29-2,13.49,13.49,0,0,0,1.43-3.83,34.72,34.72,0,0,0,.75-4.07q.17-1.23.27-2.46l.09-.93.06-.75C64.36,66.08,64.37,66.74,64.36,67.41Z"/><path d="M46,63.77a15.51,15.51,0,0,1-.18,1.64,2.83,2.83,0,0,1-.28.85,1.52,1.52,0,0,1-.72.61,9.32,9.32,0,0,1-1.63.42,10,10,0,0,1-1.66.19,3.32,3.32,0,0,1-.88-.08,1.11,1.11,0,0,1-.46-.23l0,0v0a1.08,1.08,0,0,1-.46.24,3.3,3.3,0,0,1-.88.07,11.16,11.16,0,0,1-1.64-.23,6.14,6.14,0,0,1-1.62-.47,1.51,1.51,0,0,1-.62-.7,3.83,3.83,0,0,1-.23-.83c-.08-.55-.12-1.09-.16-1.63a5.86,5.86,0,0,1,0-1.67A7.19,7.19,0,0,1,36.11,59a8.87,8.87,0,0,0,1.62-2.71A16,16,0,0,0,38,53.12c0-2.16-.09-4.32-.27-6.47.26,2.15.45,4.3.5,6.47A15,15,0,0,1,38,56.38a9.1,9.1,0,0,1-1.62,2.85A7,7,0,0,0,35,62a5.35,5.35,0,0,0,0,1.55c0,.54.08,1.08.16,1.59a1.52,1.52,0,0,0,.64,1.21,5.82,5.82,0,0,0,1.48.41,9.64,9.64,0,0,0,1.57.2c.48,0,1-.06,1.08-.34v0h.49v0c0,.26.64.37,1.11.35a9.44,9.44,0,0,0,1.58-.18,8.9,8.9,0,0,0,1.54-.37,1.31,1.31,0,0,0,.74-1.12c.1-.51.14-1.06.19-1.6a7.6,7.6,0,0,0,0-1.58,6.82,6.82,0,0,0-1.36-2.83,9.57,9.57,0,0,1-1.66-2.86,14,14,0,0,1-.25-3.29c0-2.18.25-4.36.5-6.52-.18,2.17-.29,4.35-.26,6.52a14.21,14.21,0,0,0,.31,3.21,9.39,9.39,0,0,0,1.66,2.72,6.9,6.9,0,0,1,1.48,3A7.26,7.26,0,0,1,46,63.77Z"/><path class="cls-1" d="M39.91,78.84v.07c0,.24,0,.46,0,.62a9,9,0,0,1-.17,2.38.57.57,0,0,1-.66.49h-.18l-2,.1h-.06a1.39,1.39,0,0,1-.86-.16.88.88,0,0,1-.34-.46,1.82,1.82,0,0,1-.08-.66,7.67,7.67,0,0,1,.38-1.87c.28-.93.31-2.36,1.31-2.53.83-.14,1.95-.53,2.44.11a1.42,1.42,0,0,1,.21.7A9.61,9.61,0,0,1,39.91,78.84Z"/><path class="cls-1" d="M33.21,76.42a12.5,12.5,0,0,0-1,4.64.86.86,0,0,0,.15.6.82.82,0,0,0,.59.23,10.14,10.14,0,0,0,2.64,0"/><path class="cls-1" d="M32,76.58a13.5,13.5,0,0,0,.12,2.62,5.24,5.24,0,0,1,.15,1.3,1.32,1.32,0,0,1-.63,1.1,1.9,1.9,0,0,1-.92.14,1.37,1.37,0,0,1-.53-.08,1.23,1.23,0,0,1-.56-.92,7.34,7.34,0,0,1,.28-4"/><path class="cls-1" d="M29.67,81a6.22,6.22,0,0,1-1.43.1A2,2,0,0,1,27,80.5a2.91,2.91,0,0,1-.39-2.41,4.19,4.19,0,0,1,.37-1.45"/><path class="cls-1" d="M26.83,80.57a1.84,1.84,0,0,1-1.33-.91,3.18,3.18,0,0,1-.27-2.92"/><path class="cls-1" d="M25.23,79.36a2.41,2.41,0,0,1-1.59.21,1.39,1.39,0,0,1-.8-1.1,4.18,4.18,0,0,1,.09-1.41"/><path class="cls-1" d="M23.18,79.18H22.3a.49.49,0,0,1-.24,0,.44.44,0,0,1-.19-.25,2.76,2.76,0,0,1-.11-1.77"/><path class="cls-1" d="M22.89,83.55a6.09,6.09,0,0,1,.3-2.84,1.53,1.53,0,0,0,.11-.47.82.82,0,0,0-.63-.71,4.21,4.21,0,0,0-1.36.12"/><path class="cls-1" d="M23.26,79.92a4.24,4.24,0,0,1,1.59,0,1.38,1.38,0,0,1,1,1.11,2.79,2.79,0,0,1-.46,1.31,1.19,1.19,0,0,0,0,1.33"/><path class="cls-1" d="M26.14,80.89c.47-.1,1.06-.16,1.35.23a1.53,1.53,0,0,1,.1,1.14,3.72,3.72,0,0,0,1,3.21"/><path class="cls-1" d="M30.32,82.08c.46.12.64,0,1.11-.07a1.23,1.23,0,0,1,1.21.54,1.64,1.64,0,0,1,.08.79A4.48,4.48,0,0,0,33.53,86a1,1,0,0,1,.25.58c0,.4-.6.52-1,.39a3.4,3.4,0,0,1-1.51-1.49,4.56,4.56,0,0,1-1-2.42,3.93,3.93,0,0,0,0-1,.79.79,0,0,0-.12-.3c-.3-.42-.92-.41-1.44-.35l-1.11.13"/><path class="cls-1" d="M36,87.25a3.46,3.46,0,0,1-2.31-1.77,10.29,10.29,0,0,1-.95-3,9.23,9.23,0,0,1,3-.16.75.75,0,0,1,.44.12.62.62,0,0,1,.15.59c0,.21-.13.41-.15.62a1.68,1.68,0,0,0,.39,1.14,5.68,5.68,0,0,1,.67,1A1.08,1.08,0,0,1,37.08,87a.78.78,0,0,1-.42.22,1.37,1.37,0,0,1-.57,0l-.09,0"/><path class="cls-1" d="M37.32,86.74a2.56,2.56,0,0,0,.75.47,1.37,1.37,0,0,0,1.09-.08,1.46,1.46,0,0,0,.6-1,8,8,0,0,0,0-1.2,3.38,3.38,0,0,0-.3-2.05A1.78,1.78,0,0,0,38,82.23a4.69,4.69,0,0,0-1.63.47"/><path class="cls-1" d="M42.72,82.44a1.25,1.25,0,0,1,.81.14A1.32,1.32,0,0,1,44,83.64a3.45,3.45,0,0,1-1.25,3.1,1.47,1.47,0,0,1-.93.27c-.68-.07-1.12-.76-1.31-1.41a4.63,4.63,0,0,1,0-2.66A5.13,5.13,0,0,1,42.72,82.44Z"/><path class="cls-1" d="M43.15,86.43c.43-.08.77.35,1.17.52a1.34,1.34,0,0,0,1.23-.23,3.14,3.14,0,0,0,.79-1,6.74,6.74,0,0,0,.55-1.19,2.29,2.29,0,0,0,0-1.87,1.75,1.75,0,0,0-1.62-.74,2.49,2.49,0,0,0-1.57.6"/><path class="cls-1" d="M46.09,86.41c.51,0,1,.44,1.47.31a1.28,1.28,0,0,0,.47-.29,5,5,0,0,0,1.62-2.94,1.91,1.91,0,0,0-.19-1.39A1.38,1.38,0,0,0,48,81.61c-.54.16-.86.3-1.07.82"/><path class="cls-1" d="M48.92,85.49a2.38,2.38,0,0,0,2.14.29,2.18,2.18,0,0,0,.83-1.21c.13-.35.25-.71.35-1.06a1.9,1.9,0,0,0-.09-1.67,1.35,1.35,0,0,0-1.41-.35,3.3,3.3,0,0,0-1.28.61"/><path class="cls-1" d="M52.15,81.84a1.24,1.24,0,0,1,1-.6,3.1,3.1,0,0,1,1.05.06l.29.07a1.29,1.29,0,0,1,.7.37,1.22,1.22,0,0,1,0,1.24,3.75,3.75,0,0,1-.78,1.17,3.23,3.23,0,0,1-.45.38,2.31,2.31,0,0,1-1.92.33"/><path class="cls-1" d="M54.36,84.15a2.75,2.75,0,0,0,2.14-.69,2.57,2.57,0,0,0,1-2.35,1.28,1.28,0,0,0-.3-.68,1,1,0,0,0-.76-.31,1.15,1.15,0,0,0-.45,0,1.62,1.62,0,0,0-.41.17,4.61,4.61,0,0,0-.72.46l-.71.51a0,0,0,0,1,0,0"/><path class="cls-1" d="M39.89,77.64v0c.1-.53-.17-.65.27-1a1.22,1.22,0,0,1,.36-.15,3.62,3.62,0,0,1,1.19,0,2.12,2.12,0,0,1,.6.14c.51.22.78,1.13,1,1.61a11.12,11.12,0,0,1,.7,1.43q.18.47.33,1a1.83,1.83,0,0,1,.09.86.66.66,0,0,1-.11.26,1.35,1.35,0,0,1-.81.44,8.78,8.78,0,0,1-2,.23,1.11,1.11,0,0,1-1.36-1,17.94,17.94,0,0,1-.31-2.43v-.07c0-.4,0-.8,0-1.2"/><path class="cls-1" d="M43.06,76.42a19.17,19.17,0,0,1,1,3.21c.11.5.21,1,.29,1.43a.76.76,0,0,0,.13.39.77.77,0,0,0,.63.21,8.4,8.4,0,0,0,1.42-.09,1.72,1.72,0,0,0,1.5-.94,1.9,1.9,0,0,0-.12-1.1c-.12-.4-.25-.8-.38-1.2s-.48-1.63-1-1.91a.59.59,0,0,0-.39-.11,1.57,1.57,0,0,0-.32,0,4.57,4.57,0,0,0-1,0h-.06c-.16,0-.37-.11-.45,0h0"/><path class="cls-1" d="M46.88,76.29c.7,0,1.56,0,2.27,0a1.69,1.69,0,0,1,.55.21c.19.09.34.52.46.69a3.29,3.29,0,0,1,.49,2.42,2,2,0,0,1-.53,1.1,2.71,2.71,0,0,1-.72.47,2.5,2.5,0,0,1-1.15.36c-.4,0-.52,0-.55-.44"/><path class="cls-1" d="M53,80.5c.41.18.68,0,1.07-.24a3.05,3.05,0,0,0,.91-1,2.28,2.28,0,0,0,.28-.59,2.81,2.81,0,0,0-.78-2.28"/><path class="cls-1" d="M56.39,76.63l0,0a1.87,1.87,0,0,1,.9,1.45,3.09,3.09,0,0,1-.59,1.7,1.35,1.35,0,0,1-.26.32l-.15.11a1.1,1.1,0,0,1-.71.1,4,4,0,0,1-1-.31"/><path class="cls-1" d="M50.45,80.39a2.7,2.7,0,0,0,1.1.66,1.35,1.35,0,0,0,1.23-.24,2.06,2.06,0,0,0,.48-1.5,6,6,0,0,0-.14-1.75,2.27,2.27,0,0,0-.87-1.43"/><path d="M36.25,51.94a13,13,0,0,1-3.84,4.77,20.61,20.61,0,0,1-7.14,3.77,11.87,11.87,0,0,1-6.08.39,6.5,6.5,0,0,1-4.6-3.73,9.92,9.92,0,0,1-.42-4c.1-3.16.52-6.75,3.1-8.59a10.64,10.64,0,0,1,3.47-1.4,53,53,0,0,1,7.84-1.71c3.6-.15,6.4,1.2,7.84,4.49A7.59,7.59,0,0,1,36.25,51.94Z"/><path d="M66,57.14a6.5,6.5,0,0,1-4.6,3.73,11.91,11.91,0,0,1-6.09-.39,20.57,20.57,0,0,1-7.13-3.77,13,13,0,0,1-3.84-4.77,7.59,7.59,0,0,1-.17-6c1.43-3.29,4.24-4.64,7.83-4.49a52.7,52.7,0,0,1,7.84,1.71,10.61,10.61,0,0,1,3.48,1.4c2.57,1.84,3,5.43,3.1,8.59A10.1,10.1,0,0,1,66,57.14Z"/><path class="cls-1" d="M10.28,26.44a40.88,40.88,0,0,1,1.17,17,39.63,39.63,0,0,1-1.34,6.09A7.4,7.4,0,0,1,9,52a3,3,0,0,1-1,.85h0l-.22.1"/><path class="cls-1" d="M71.9,52.23a41.55,41.55,0,0,1-4-9.74,21.26,21.26,0,0,1,2.91-16.07"/><path class="cls-1" d="M32.46,39.19a14.76,14.76,0,0,0-11.22-1.4,22.84,22.84,0,0,0-9.91,5.8"/><path d="M67.06,43a27.46,27.46,0,0,0-18.82-5,21.92,21.92,0,0,1,18.82,5Z"/><path class="cls-1" d="M12.1,42.56a13.63,13.63,0,0,0,5.46-11.75"/><path class="cls-1" d="M67.18,42.57A17.58,17.58,0,0,1,61.13,30"/><path d="M20.9,84.36a28,28,0,0,1-5-19.49,37.56,37.56,0,0,0,5,19.49Z"/><path d="M64.54,70.6a29.94,29.94,0,0,1-.35,5.26,19.26,19.26,0,0,1-1.62,5,21.48,21.48,0,0,1-2.9,4.38,29.42,29.42,0,0,0,2.55-4.54,19.89,19.89,0,0,0,1.48-5,32.54,32.54,0,0,0,.45-5c0-1.21,0-2.43,0-3.64V65.37l.09.8c0,.41.08.82.11,1.24C64.45,68.47,64.52,69.53,64.54,70.6Z"/><path class="cls-1" d="M21.2,79.69a3.77,3.77,0,0,0,1.07,3.87,7.44,7.44,0,0,0,2.65,1.29l4.29,1.41a20.43,20.43,0,0,0,2.85.79c2.6.46,5.32-.09,7.9.49"/><path class="cls-1" d="M40,87.54l6.05-.05a16.28,16.28,0,0,0,2.79-.17,17,17,0,0,0,2.72-.81c2.61-1,3.25-2,5.79-3.11"/><path class="cls-1" d="M20.79,79a.63.63,0,0,1-.16-.24.8.8,0,0,1-.11-.4,1.58,1.58,0,0,1,.67-1.35,4,4,0,0,1,2.23-.49l7.84-.18a15.87,15.87,0,0,1,1.95,0,7.19,7.19,0,0,1,.91.15,6.35,6.35,0,0,0,1.28.27,5.35,5.35,0,0,0,1-.11,21.66,21.66,0,0,1,2.67-.2l1.47,0,1.19,0,2.55-.08h.52l1.37,0,4.91-.16,1.19,0a10.11,10.11,0,0,1,1.23,0,19.51,19.51,0,0,1,2,.31l.92.17h.08l.12,0"/><path class="cls-1" d="M57.39,83.41c.88-.85,1.77-1.15,1.38-2.31A8.35,8.35,0,0,1,58.42,80a2.1,2.1,0,0,1,0-.56c0-.31.09-.62.1-.93,0-.48-1.44-1.65-2-1.88l-.1,0"/><path class="cls-1" d="M78.27,53.63s-6.92,16.94-1.19,29.12A36.06,36.06,0,0,0,88.5,96.43c1,.73,2,1.37,2.91,1.95a34.18,34.18,0,0,0,7.39,3.44c.47.15,1,.28,1.42.4a40.1,40.1,0,0,0,9.64,1.12h-.08"/><path class="cls-1" d="M109.68,103.32H110a35.47,35.47,0,0,0,11.64-1.53,31.06,31.06,0,0,0,6.1-2.66,39.18,39.18,0,0,0,7.06-5,36.63,36.63,0,0,0,5.91-6.74q.95-1.41,1.8-3,.44-.83.84-1.68c5.73-12.18-1.19-29.12-1.19-29.12"/><path d="M139.58,55.74a23,23,0,0,1,3.5-3.25,9.91,9.91,0,0,1,1.06-.56,2.88,2.88,0,0,0,.86-.73,1.91,1.91,0,0,0,.43-1,1.17,1.17,0,0,0-.36-.93c-1.14-1.14-2.12-2.38-3.28-3.45a6.77,6.77,0,0,0-1.86-1.33,3.41,3.41,0,0,0-2.17.13,12.41,12.41,0,0,1-2.38.49,3.45,3.45,0,0,1-2.4-.65,13.08,13.08,0,0,1-3.1-3.7,9.43,9.43,0,0,1-1.41-4.58,8.35,8.35,0,0,0-.24-2.34,4.15,4.15,0,0,0-.44-1.09,1.26,1.26,0,0,0-.91-.68,1.26,1.26,0,0,1,1,.64,4.92,4.92,0,0,1,.51,1.09,9.08,9.08,0,0,1,.37,2.37,9,9,0,0,0,1.49,4.39,13.75,13.75,0,0,0,3,3.53,3,3,0,0,0,2.11.54,11.08,11.08,0,0,0,2.28-.49,3.9,3.9,0,0,1,2.49-.1,7.67,7.67,0,0,1,2,1.45c1.17,1.11,2.17,2.36,3.24,3.52a1.55,1.55,0,0,1,.44,1.23,2.35,2.35,0,0,1-.53,1.15,3.62,3.62,0,0,1-1,.78,11.84,11.84,0,0,0-1.07.52A23.23,23.23,0,0,0,139.58,55.74Z"/><path d="M80.78,55.74a23.16,23.16,0,0,0-3.6-3.05c-.32-.21-.68-.31-1.06-.51a3.3,3.3,0,0,1-1-.79,2.25,2.25,0,0,1-.52-1.15A1.54,1.54,0,0,1,75.08,49c1-1.16,2-2.41,3.2-3.52a7.45,7.45,0,0,1,2-1.45,3.87,3.87,0,0,1,2.48.1,10.9,10.9,0,0,0,2.26.49,2.89,2.89,0,0,0,2.08-.56,13.78,13.78,0,0,0,3-3.53,9.14,9.14,0,0,0,1.46-4.38,8.94,8.94,0,0,1,.37-2.36,4.48,4.48,0,0,1,.5-1.09,1.27,1.27,0,0,1,.95-.64,1.27,1.27,0,0,0-.9.68A4.62,4.62,0,0,0,92,33.84a9.14,9.14,0,0,0-.24,2.33,9.24,9.24,0,0,1-1.37,4.57,13.42,13.42,0,0,1-3.05,3.71,3.42,3.42,0,0,1-2.39.67,11.22,11.22,0,0,1-2.36-.48,3.43,3.43,0,0,0-2.17-.15,7.1,7.1,0,0,0-1.84,1.34c-1.14,1.07-2.12,2.31-3.24,3.45a1.17,1.17,0,0,0-.36.93,1.93,1.93,0,0,0,.42,1,3,3,0,0,0,.85.73,10.84,10.84,0,0,1,1,.56A22.76,22.76,0,0,1,80.78,55.74Z"/><path d="M79.27,45.09a6.37,6.37,0,0,1,.85-1.76c.37-.54.83-1,1.25-1.51a8.07,8.07,0,0,0,1.09-1.62,6.18,6.18,0,0,0,.77-1.77,11.43,11.43,0,0,0,.07-3.87l-.48-3.89h0a15.15,15.15,0,0,1,.11-3.3l.34-3.27c.24-2.18.48-4.37.93-6.53a13.08,13.08,0,0,1,1-3.17,3.59,3.59,0,0,1,1.12-1.31,1.86,1.86,0,0,1,.87-.21,3.25,3.25,0,0,0,.77-.11,7,7,0,0,0,2.55-1.87c.74-.77,1.42-1.66,2.26-2.4a23.83,23.83,0,0,1,5.47-3.7,31.9,31.9,0,0,1,6.19-2.34,3.85,3.85,0,0,1,1.72-.07,11.11,11.11,0,0,1,1.63.41c.53.17,1,.37,1.56.58l.76.34a.9.9,0,0,0,.64.15,6.1,6.1,0,0,0,1.4-.67,6.39,6.39,0,0,1,1.56-.67,6.7,6.7,0,0,1,3.36.11,15.62,15.62,0,0,1,3.14,1.11,9.61,9.61,0,0,1,1.46.83c.48.34.86.69,1.29,1L128,9.81c1.68,1.41,3.36,2.82,5,4.25.83.73,1.66,1.45,2.46,2.2l.6.57a2.64,2.64,0,0,1,.48.73,7.07,7.07,0,0,1,.5,1.6,17.4,17.4,0,0,1,.33,3.29l.09,3.29c0,2.2-.08,4.39-.14,6.58-.06,1.09,0,2.18,0,3.28a10.37,10.37,0,0,0,.44,3.23,18.84,18.84,0,0,0,3,5.82,18.82,18.82,0,0,1-3.06-5.79,10.55,10.55,0,0,1-.5-3.25c0-1.1-.07-2.2,0-3.3.05-4.37.29-8.79-.37-13.09a6.93,6.93,0,0,0-.49-1.52,2.37,2.37,0,0,0-.42-.64l-.59-.56c-.8-.74-1.64-1.46-2.46-2.17q-2.51-2.13-5-4.22l-5.08-4.17A12.34,12.34,0,0,0,117,3.08a5.4,5.4,0,0,0-4.59.53,5.72,5.72,0,0,1-1.55.74,1.4,1.4,0,0,1-.93-.19l-.74-.33c-.5-.21-1-.41-1.52-.58a5.36,5.36,0,0,0-3.09-.34A27.59,27.59,0,0,0,93,8.79c-1.61,1.4-2.76,3.49-5,4.32-.57.18-1.18,0-1.57.28a3.22,3.22,0,0,0-1,1.16,13.34,13.34,0,0,0-1,3.08c-.45,2.14-.7,4.31-1,6.49l-.36,3.27a14.75,14.75,0,0,0-.13,3.25h0l.42,3.9a11.49,11.49,0,0,1-.14,3.92,6.57,6.57,0,0,1-.81,1.79,8.92,8.92,0,0,1-1.12,1.61c-.43.49-.89,1-1.27,1.48A6.39,6.39,0,0,0,79.27,45.09Z"/><path d="M134.08,41.19c-.21-1.4-.45-2.8-.73-4.19a37.68,37.68,0,0,0-1-4.09,14.67,14.67,0,0,0-1.72-3.8,3.93,3.93,0,0,0-3.43-2,3.24,3.24,0,0,1,2.11.32,5.39,5.39,0,0,1,1.63,1.45,13.53,13.53,0,0,1,1.88,3.88,28.71,28.71,0,0,1,.95,4.18A31.91,31.91,0,0,1,134.08,41.19Z"/><path d="M85.74,40.91a30.7,30.7,0,0,1,.05-4.18,27.75,27.75,0,0,1,.64-4.15A12.68,12.68,0,0,1,88,28.67a4.8,4.8,0,0,1,1.55-1.49,3,3,0,0,1,2.06-.31,3.57,3.57,0,0,0-3.28,2,13.45,13.45,0,0,0-1.44,3.82,34.69,34.69,0,0,0-.74,4.07C86,38.14,85.85,39.52,85.74,40.91Z"/><path d="M107.24,59.68a64.6,64.6,0,0,0,.26-6.52,13.66,13.66,0,0,0-.31-3.21,9.43,9.43,0,0,0-1.66-2.72,6.78,6.78,0,0,1-1.47-3,6.75,6.75,0,0,1,0-1.68,15.51,15.51,0,0,1,.18-1.64,2.6,2.6,0,0,1,.29-.85,1.46,1.46,0,0,1,.71-.61,9.42,9.42,0,0,1,1.64-.42,10,10,0,0,1,1.66-.19,3.28,3.28,0,0,1,.87.08,1.18,1.18,0,0,1,.47.22.78.78,0,0,1,.27.53h-.5a.78.78,0,0,1,.25-.52,1.14,1.14,0,0,1,.46-.24,3.37,3.37,0,0,1,.88-.07,11,11,0,0,1,1.64.23,6,6,0,0,1,1.62.47,1.47,1.47,0,0,1,.63.7,3.3,3.3,0,0,1,.22.83c.09.56.12,1.1.17,1.64a5.88,5.88,0,0,1-.05,1.67A7,7,0,0,1,114,47.32,8.6,8.6,0,0,0,112.33,50a15.24,15.24,0,0,0-.29,3.18c0,2.16.09,4.32.26,6.47-.25-2.14-.45-4.3-.5-6.47A15.61,15.61,0,0,1,112,50a8.73,8.73,0,0,1,1.62-2.85A7.11,7.11,0,0,0,115,44.31a5.8,5.8,0,0,0,0-1.56c0-.54-.09-1.08-.17-1.59a1.52,1.52,0,0,0-.64-1.21,6.14,6.14,0,0,0-1.48-.41,10.54,10.54,0,0,0-1.57-.2c-.49,0-1.09.07-1.07.37h-.5c0-.28-.62-.39-1.11-.37a9.54,9.54,0,0,0-1.58.17,8.78,8.78,0,0,0-1.53.37,1.29,1.29,0,0,0-.74,1.12c-.1.52-.14,1.06-.19,1.6a6.43,6.43,0,0,0,0,1.58A6.7,6.7,0,0,0,105.84,47a9.55,9.55,0,0,1,1.65,2.86,13.57,13.57,0,0,1,.25,3.29A64.57,64.57,0,0,1,107.24,59.68Z"/><path class="cls-1" d="M114.51,25.1a7.08,7.08,0,0,1-.39,1.87c-.27.93-.3,2.36-1.31,2.53-.83.15-1.94.53-2.43-.11a1.55,1.55,0,0,1-.22-.75s0,0,0,0c0-.38,0-.83,0-1.21s0-.46,0-.62a8.24,8.24,0,0,1,.17-2.38.66.66,0,0,1,.18-.35.78.78,0,0,1,.48-.14h.16l2-.09h0a1.36,1.36,0,0,1,.87.15.86.86,0,0,1,.33.46A1.63,1.63,0,0,1,114.51,25.1Z"/><path class="cls-1" d="M116.85,29.92h0a12.5,12.5,0,0,0,1-4.64.89.89,0,0,0-.15-.6.94.94,0,0,0-.59-.23,10.68,10.68,0,0,0-2.65,0"/><path class="cls-1" d="M118.08,29.75a12.75,12.75,0,0,0-.12-2.62,5.27,5.27,0,0,1-.15-1.31,1.34,1.34,0,0,1,.63-1.09,1.8,1.8,0,0,1,.92-.14,1.34,1.34,0,0,1,.53.08,1.21,1.21,0,0,1,.56.92,7.25,7.25,0,0,1-.28,4"/><path class="cls-1" d="M120.38,25.35a6.3,6.3,0,0,1,1.43-.1,2,2,0,0,1,1.29.58,2.94,2.94,0,0,1,.4,2.41,4.2,4.2,0,0,1-.38,1.45"/><path class="cls-1" d="M123.22,25.75a1.87,1.87,0,0,1,1.34.92,3.19,3.19,0,0,1,.26,2.91"/><path class="cls-1" d="M124.82,27a2.38,2.38,0,0,1,1.6-.21,1.4,1.4,0,0,1,.79,1.1,4,4,0,0,1-.09,1.41"/><path class="cls-1" d="M126.88,27.15h.87a.63.63,0,0,1,.24,0,.46.46,0,0,1,.19.26,2.76,2.76,0,0,1,.11,1.77"/><path class="cls-1" d="M127.16,22.78a6,6,0,0,1-.3,2.84,1.47,1.47,0,0,0-.11.46.85.85,0,0,0,.63.72,4.19,4.19,0,0,0,1.36-.12"/><path class="cls-1" d="M126.79,26.41a4.24,4.24,0,0,1-1.59-.05,1.37,1.37,0,0,1-1-1.11,2.74,2.74,0,0,1,.45-1.32,1.17,1.17,0,0,0,0-1.32"/><path class="cls-1" d="M123.92,25.43c-.48.1-1.06.17-1.36-.22a1.53,1.53,0,0,1-.1-1.14,3.72,3.72,0,0,0-1-3.21"/><path class="cls-1" d="M119.73,24.25c-.45-.12-.63.05-1.1.07a1.24,1.24,0,0,1-1.22-.54,1.89,1.89,0,0,1-.08-.79,4.36,4.36,0,0,0-.8-2.64,1,1,0,0,1-.25-.58c0-.41.6-.53,1-.39a3.3,3.3,0,0,1,1.5,1.48,4.56,4.56,0,0,1,1,2.43,4.4,4.4,0,0,0,0,1,.72.72,0,0,0,.13.3c.29.43.92.41,1.43.35l1.12-.12"/><path class="cls-1" d="M114.06,19.08a3.41,3.41,0,0,1,2.3,1.78,10,10,0,0,1,1,2.94,9.24,9.24,0,0,1-3,.16.67.67,0,0,1-.44-.12.58.58,0,0,1-.16-.58c0-.21.13-.41.16-.62a1.71,1.71,0,0,0-.39-1.15,5.4,5.4,0,0,1-.68-1,1,1,0,0,1,.14-1.15.78.78,0,0,1,.45-.23,1.58,1.58,0,0,1,.53,0l.1,0"/><path class="cls-1" d="M112.73,19.58c-.31-.2-.38-.35-.74-.46a1.4,1.4,0,0,0-1.1.08,1.44,1.44,0,0,0-.6,1,9.4,9.4,0,0,0,0,1.19,3.44,3.44,0,0,0,.3,2.05,1.77,1.77,0,0,0,1.51.65,4.47,4.47,0,0,0,1.63-.46"/><path class="cls-1" d="M107.34,23.89a1,1,0,0,1-1.23-1.19,3.48,3.48,0,0,1,1.24-3.11,1.51,1.51,0,0,1,.93-.27c.68.07,1.13.76,1.32,1.42a4.6,4.6,0,0,1,0,2.65A5.13,5.13,0,0,1,107.34,23.89Z"/><path class="cls-1" d="M106.9,19.9c-.43.08-.76-.36-1.17-.52a1.29,1.29,0,0,0-1.22.23,3,3,0,0,0-.8,1,7.11,7.11,0,0,0-.54,1.19,2.22,2.22,0,0,0,0,1.87,1.73,1.73,0,0,0,1.61.74,2.49,2.49,0,0,0,1.57-.6"/><path class="cls-1" d="M104,19.92c-.5,0-1-.45-1.47-.31a1.16,1.16,0,0,0-.46.29,5,5,0,0,0-1.63,2.93,1.93,1.93,0,0,0,.2,1.4,1.38,1.38,0,0,0,1.5.49c.55-.16.86-.3,1.07-.82"/><path class="cls-1" d="M101.13,20.84A2.37,2.37,0,0,0,99,20.55a2.18,2.18,0,0,0-.83,1.21c-.13.35-.24.7-.35,1.06a1.91,1.91,0,0,0,.1,1.67,1.33,1.33,0,0,0,1.4.35,3.34,3.34,0,0,0,1.29-.61"/><path class="cls-1" d="M97.91,24.49a1.32,1.32,0,0,1-1,.61A3.16,3.16,0,0,1,95.88,25L95.6,25a1.27,1.27,0,0,1-.7-.38,1.25,1.25,0,0,1,0-1.24,3.87,3.87,0,0,1,.78-1.17,2.82,2.82,0,0,1,.46-.38,2.29,2.29,0,0,1,1.91-.32"/><path class="cls-1" d="M95.69,22.18a2.78,2.78,0,0,0-2.14.7,2.55,2.55,0,0,0-1,2.35,1.27,1.27,0,0,0,.29.67,1.11,1.11,0,0,0,.78.33,1.59,1.59,0,0,0,.43-.06,1.94,1.94,0,0,0,.42-.17,5.3,5.3,0,0,0,.71-.45c.24-.18.47-.35.71-.51h0"/><path class="cls-1" d="M110.16,28.64v.1c-.09.53.18.66-.26,1a1.17,1.17,0,0,1-.39.16,3.71,3.71,0,0,1-1.11,0,2.4,2.4,0,0,1-.65-.15c-.51-.21-.78-1.13-1.06-1.61a9.63,9.63,0,0,1-.69-1.45c-.13-.31-.24-.62-.34-.94a1.65,1.65,0,0,1-.08-.85.64.64,0,0,1,.11-.27,1.27,1.27,0,0,1,.81-.43,8.7,8.7,0,0,1,2-.24,1.44,1.44,0,0,1,1.07.32,1.53,1.53,0,0,1,.3.73,15.26,15.26,0,0,1,.31,2.42c0,.41,0,.81,0,1.21,0,0,0,0,0,0"/><path class="cls-1" d="M107,29.92a17.81,17.81,0,0,1-1-3.24c-.12-.49-.21-1-.29-1.41a.86.86,0,0,0-.13-.38.84.84,0,0,0-.64-.22,8.47,8.47,0,0,0-1.42.09,2.38,2.38,0,0,0-1.17.47,1,1,0,0,0-.32.47,1.86,1.86,0,0,0,.12,1.11c.12.4.25.79.37,1.19.18.56.49,1.63,1,1.92a.76.76,0,0,0,.43.11h.29a4.76,4.76,0,0,0,1,0h.13c.16,0,.36.12.43,0"/><path class="cls-1" d="M103.17,30c-.7,0-1.56,0-2.26,0a1.61,1.61,0,0,1-.55-.21c-.2-.09-.35-.52-.47-.7a3.33,3.33,0,0,1-.49-2.42,2,2,0,0,1,.53-1.09,3.08,3.08,0,0,1,.72-.47,2.64,2.64,0,0,1,1.15-.37c.41,0,.52,0,.55.44"/><path class="cls-1" d="M97,25.83c-.42-.18-.69,0-1.07.24a2.88,2.88,0,0,0-.92,1,2.46,2.46,0,0,0-.28.59,2.81,2.81,0,0,0,.78,2.28"/><path class="cls-1" d="M93.67,29.7h0a1.91,1.91,0,0,1-.92-1.45,3.13,3.13,0,0,1,.6-1.71,1.29,1.29,0,0,1,.27-.3.43.43,0,0,1,.14-.13,1.1,1.1,0,0,1,.71-.1,4.08,4.08,0,0,1,1,.32"/><path class="cls-1" d="M99.6,25.94a2.62,2.62,0,0,0-1.1-.67,1.36,1.36,0,0,0-1.22.25A2,2,0,0,0,96.8,27a5.71,5.71,0,0,0,.14,1.75,2.29,2.29,0,0,0,.86,1.43"/><path d="M135.89,53.18c-.1,3.16-.53,6.76-3.1,8.59a10.62,10.62,0,0,1-3.48,1.41,52.67,52.67,0,0,1-7.84,1.7c-3.59.16-6.4-1.19-7.84-4.49a7.64,7.64,0,0,1,.18-6,13,13,0,0,1,3.83-4.76,20.55,20.55,0,0,1,7.14-3.78,11.91,11.91,0,0,1,6.09-.38,6.47,6.47,0,0,1,4.6,3.73A10.24,10.24,0,0,1,135.89,53.18Z"/><path d="M105.92,60.39c-1.44,3.3-4.25,4.65-7.84,4.49a53,53,0,0,1-7.84-1.7,10.8,10.8,0,0,1-3.48-1.41c-2.57-1.83-3-5.43-3.09-8.59a10,10,0,0,1,.41-4,6.47,6.47,0,0,1,4.61-3.73,11.87,11.87,0,0,1,6.08.38,20.47,20.47,0,0,1,7.14,3.78,13,13,0,0,1,3.84,4.76A7.59,7.59,0,0,1,105.92,60.39Z"/><path class="cls-1" d="M142.35,53.36c-1.35.51-2,2-2.41,3.4a41.09,41.09,0,0,0-.17,23.13"/><path class="cls-1" d="M78.16,54.1a41.77,41.77,0,0,1,4,9.74,21.27,21.27,0,0,1-2.91,16.07"/><path class="cls-1" d="M117.6,67.14a14.73,14.73,0,0,0,11.21,1.4,23,23,0,0,0,9.92-5.8"/><path d="M101.82,68.35a21.92,21.92,0,0,1-18.82-5,27.46,27.46,0,0,0,18.82,5Z"/><path class="cls-1" d="M138,63.77a13.63,13.63,0,0,0-5.46,11.75"/><path class="cls-1" d="M82.87,63.76a17.56,17.56,0,0,1,6,12.55"/><path d="M134.19,41.46a37.56,37.56,0,0,0-5-19.49,27.91,27.91,0,0,1,5,19.49Z"/><path d="M85.89,41c-.2-1.74-.34-3.48-.38-5.23a29.94,29.94,0,0,1,.35-5.26,18.91,18.91,0,0,1,1.63-5,21.44,21.44,0,0,1,2.89-4.38,31.72,31.72,0,0,0-2.55,4.54,20.3,20.3,0,0,0-1.47,4.95A60,60,0,0,0,85.89,41Z"/><path class="cls-1" d="M128.85,26.64a3.74,3.74,0,0,0-1.07-3.87,7.27,7.27,0,0,0-2.65-1.29l-4.29-1.41a20.43,20.43,0,0,0-2.85-.79c-2.6-.46-5.32.09-7.9-.49"/><path class="cls-1" d="M110,18.79l-6.05,0a17.36,17.36,0,0,0-2.79.18,17.33,17.33,0,0,0-2.72.81c-2.61,1-3.24,2-5.79,3.1"/><path class="cls-1" d="M129.27,27.29a1,1,0,0,1,.24.44,1.54,1.54,0,0,1-.64,1.56,4.06,4.06,0,0,1-2.24.49l-7.84.17a15.75,15.75,0,0,1-1.94,0,5.85,5.85,0,0,1-.92-.14,6.28,6.28,0,0,0-1.27-.28,5.56,5.56,0,0,0-1,.11,19.73,19.73,0,0,1-2.66.21l-1.5.05-1.11,0-2.61.08h-.56L104,30h0l-5,.15a19.56,19.56,0,0,1-2.42,0,19.29,19.29,0,0,1-2-.3l-.9-.16h0l-.18,0"/><path class="cls-1" d="M92.66,22.93c-.87.85-1.76,1.15-1.38,2.31a5.72,5.72,0,0,1,.35,1.06,2.18,2.18,0,0,1,0,.57c0,.31-.09.62-.1.93,0,.5,1.57,1.74,2.1,1.89h0"/><path class="cls-1" d="M213.29,52.76s6.92-16.94,1.19-29.11A36,36,0,0,0,203.06,10c-1-.72-2-1.37-2.9-1.94a35.27,35.27,0,0,0-7.39-3.45c-.48-.15-1-.28-1.43-.4a40.1,40.1,0,0,0-9.64-1.12h-.08l.25,0"/><path class="cls-1" d="M181.88,3.07h0l-.17,0h-.12a35.44,35.44,0,0,0-11.64,1.53,31.09,31.09,0,0,0-6.11,2.66,39.63,39.63,0,0,0-7.06,5,35.91,35.91,0,0,0-5.9,6.74,30.8,30.8,0,0,0-1.8,3c-.3.54-.58,1.1-.85,1.68-5.73,12.17,1.19,29.11,1.19,29.11"/><path d="M152,50.65a23.49,23.49,0,0,1-3.5,3.25,10.79,10.79,0,0,1-1.06.55,3,3,0,0,0-.86.73,2,2,0,0,0-.43,1,1.16,1.16,0,0,0,.36.93c1.14,1.14,2.12,2.39,3.28,3.45a6.92,6.92,0,0,0,1.85,1.34,3.38,3.38,0,0,0,2.18-.14,13.21,13.21,0,0,1,2.38-.48,3.46,3.46,0,0,1,2.4.65,12.94,12.94,0,0,1,3.1,3.7,9.39,9.39,0,0,1,1.41,4.58,8.35,8.35,0,0,0,.24,2.34,4.3,4.3,0,0,0,.44,1.09,1.27,1.27,0,0,0,.91.68,1.3,1.3,0,0,1-1-.65,4.28,4.28,0,0,1-.51-1.08,9.16,9.16,0,0,1-.37-2.38,9,9,0,0,0-1.49-4.38,14,14,0,0,0-3-3.54,3.06,3.06,0,0,0-2.11-.54,11.81,11.81,0,0,0-2.28.5,3.84,3.84,0,0,1-2.49.09,7.23,7.23,0,0,1-2-1.45c-1.17-1.1-2.17-2.35-3.24-3.51a1.55,1.55,0,0,1-.44-1.23,2.26,2.26,0,0,1,.53-1.15,3.3,3.3,0,0,1,1-.78,11.84,11.84,0,0,0,1.07-.52A23.79,23.79,0,0,0,152,50.65Z"/><path d="M210.78,50.65a23.1,23.1,0,0,0,3.6,3,10.47,10.47,0,0,0,1.06.52,3.43,3.43,0,0,1,1,.78,2.32,2.32,0,0,1,.52,1.16,1.54,1.54,0,0,1-.44,1.22c-1,1.16-2,2.4-3.2,3.51a7,7,0,0,1-2,1.45,3.81,3.81,0,0,1-2.48-.1,12.36,12.36,0,0,0-2.26-.49,3,3,0,0,0-2.09.56,13.82,13.82,0,0,0-3,3.54A9.14,9.14,0,0,0,200,70.22a9.07,9.07,0,0,1-.37,2.36,4.25,4.25,0,0,1-.5,1.08,1.28,1.28,0,0,1-1,.65,1.27,1.27,0,0,0,.91-.68,4.27,4.27,0,0,0,.43-1.09,8.67,8.67,0,0,0,.25-2.33,9.23,9.23,0,0,1,1.37-4.56,13.11,13.11,0,0,1,3.05-3.71,3.42,3.42,0,0,1,2.39-.67,11.35,11.35,0,0,1,2.36.48,3.35,3.35,0,0,0,2.17.14A6.66,6.66,0,0,0,213,60.55c1.14-1.06,2.12-2.3,3.24-3.44a1.17,1.17,0,0,0,.36-.93,1.9,1.9,0,0,0-.42-1,3,3,0,0,0-.85-.73c-.31-.19-.72-.32-1.05-.56A23.27,23.27,0,0,1,210.78,50.65Z"/><path d="M212.28,61.3a6.07,6.07,0,0,1-.84,1.76c-.37.54-.83,1-1.25,1.51a8.29,8.29,0,0,0-1.09,1.61,6.36,6.36,0,0,0-.77,1.78,11.42,11.42,0,0,0-.07,3.87l.48,3.89h0a15.81,15.81,0,0,1-.11,3.3l-.35,3.27a65.54,65.54,0,0,1-.92,6.52,12.81,12.81,0,0,1-1,3.17,3.54,3.54,0,0,1-1.12,1.32,1.86,1.86,0,0,1-.87.21,3.25,3.25,0,0,0-.77.11,6.74,6.74,0,0,0-2.55,1.86c-.75.78-1.42,1.67-2.26,2.4a23.87,23.87,0,0,1-5.47,3.71,32.56,32.56,0,0,1-6.19,2.34,3.85,3.85,0,0,1-1.72.07,11.11,11.11,0,0,1-1.63-.41c-.53-.17-1-.37-1.56-.58l-.76-.34a1,1,0,0,0-.64-.16,6,6,0,0,0-1.4.68,5.83,5.83,0,0,1-4.92.56,16.26,16.26,0,0,1-3.14-1.11,9.15,9.15,0,0,1-1.46-.83c-.48-.34-.86-.7-1.29-1l-5.06-4.2c-1.69-1.41-3.36-2.82-5-4.26-.83-.72-1.66-1.44-2.46-2.19l-.6-.57a2.64,2.64,0,0,1-.48-.73,7.23,7.23,0,0,1-.5-1.6,18.27,18.27,0,0,1-.34-3.29l-.08-3.29c0-2.2.07-4.39.14-6.58.05-1.1,0-2.19,0-3.28a10.09,10.09,0,0,0-.45-3.23,18.75,18.75,0,0,0-2.95-5.83,19,19,0,0,1,3.06,5.8,10.55,10.55,0,0,1,.5,3.25c0,1.1.07,2.2,0,3.29-.05,4.38-.29,8.8.37,13.09a7,7,0,0,0,.49,1.53,2.37,2.37,0,0,0,.42.64l.59.56c.8.74,1.63,1.45,2.46,2.17,1.67,1.42,3.35,2.82,5,4.22l5.08,4.17a12.44,12.44,0,0,0,5.73,2.86,5.4,5.4,0,0,0,4.59-.53,5.72,5.72,0,0,1,1.55-.74,1.4,1.4,0,0,1,.93.19l.74.33c.5.21,1,.41,1.52.58a5.36,5.36,0,0,0,3.09.34,27.77,27.77,0,0,0,11.5-5.88c1.61-1.4,2.76-3.49,5-4.32.57-.19,1.18,0,1.57-.28a3.31,3.31,0,0,0,1-1.16,13.49,13.49,0,0,0,1-3.08c.45-2.14.7-4.32.95-6.49l.36-3.27a14.77,14.77,0,0,0,.13-3.25h0v0l-.42-3.9a11.48,11.48,0,0,1,.14-3.92,6.16,6.16,0,0,1,.81-1.79,8.44,8.44,0,0,1,1.12-1.61c.43-.5.89-1,1.27-1.49A5.92,5.92,0,0,0,212.28,61.3Z"/><path d="M157.48,65.19c.21,1.41.45,2.81.73,4.19a37.27,37.27,0,0,0,1,4.1,14.35,14.35,0,0,0,1.72,3.8,3.9,3.9,0,0,0,3.43,2,3.17,3.17,0,0,1-2.11-.31,5.39,5.39,0,0,1-1.63-1.45,13.53,13.53,0,0,1-1.88-3.88,28.71,28.71,0,0,1-.95-4.18A30.34,30.34,0,0,1,157.48,65.19Z"/><path d="M205.82,65.48a30.7,30.7,0,0,1,0,4.18,28,28,0,0,1-.64,4.15,12.46,12.46,0,0,1-1.6,3.91A4.74,4.74,0,0,1,202,79.2a3,3,0,0,1-2.06.32,3.57,3.57,0,0,0,3.28-2,13.45,13.45,0,0,0,1.44-3.82,34.69,34.69,0,0,0,.74-4.07C205.57,68.25,205.71,66.87,205.82,65.48Z"/><path d="M184.32,46.71c-.18,2.17-.3,4.35-.27,6.52a14.13,14.13,0,0,0,.32,3.2A9.35,9.35,0,0,0,186,59.16a5.59,5.59,0,0,1,1.48,4.66c0,.55-.08,1.09-.18,1.65a2.86,2.86,0,0,1-.29.85,1.55,1.55,0,0,1-.71.61,8.56,8.56,0,0,1-1.64.41,10,10,0,0,1-1.66.2,3.89,3.89,0,0,1-.88-.08,1.42,1.42,0,0,1-.46-.23.74.74,0,0,1-.27-.52h.5a.83.83,0,0,1-.25.52,1.11,1.11,0,0,1-.46.23,2.69,2.69,0,0,1-.88.07,9.67,9.67,0,0,1-1.64-.22,6.43,6.43,0,0,1-1.62-.47,1.47,1.47,0,0,1-.63-.7,3.26,3.26,0,0,1-.22-.84c-.09-.55-.12-1.09-.17-1.63a5.88,5.88,0,0,1,0-1.67,7,7,0,0,1,1.51-2.93,8.72,8.72,0,0,0,1.62-2.71,16,16,0,0,0,.29-3.19c0-2.15-.09-4.31-.26-6.46.25,2.14.45,4.3.5,6.46a15.65,15.65,0,0,1-.23,3.27,8.83,8.83,0,0,1-1.62,2.85,7.11,7.11,0,0,0-1.39,2.79,5.41,5.41,0,0,0,0,1.56c0,.53.09,1.07.17,1.59a1.53,1.53,0,0,0,.64,1.21,6.14,6.14,0,0,0,1.48.4,10.56,10.56,0,0,0,1.57.21c.49,0,1.09-.07,1.07-.38h.5c0,.29.62.4,1.11.38a10.74,10.74,0,0,0,1.58-.17,8.78,8.78,0,0,0,1.53-.38,1.26,1.26,0,0,0,.74-1.12c.1-.51.14-1,.19-1.59a6.44,6.44,0,0,0,0-1.58,6.76,6.76,0,0,0-1.36-2.83,9.55,9.55,0,0,1-1.65-2.86,13.57,13.57,0,0,1-.25-3.29A64.35,64.35,0,0,1,184.32,46.71Z"/><path class="cls-1" d="M181.4,79.59a8.6,8.6,0,0,1-.16,2.38.73.73,0,0,1-.18.35.75.75,0,0,1-.49.14h-.17l-2,.1h-.06a1.44,1.44,0,0,1-.87-.16.91.91,0,0,1-.33-.46,1.85,1.85,0,0,1-.09-.66,7.69,7.69,0,0,1,.39-1.87c.28-.93.3-2.36,1.31-2.53.83-.14,1.94-.53,2.43.11a1.54,1.54,0,0,1,.22.74v0a8.15,8.15,0,0,1,0,1.21v0C181.41,79.24,181.4,79.44,181.4,79.59Z"/><path class="cls-1" d="M174.72,76.48a12.51,12.51,0,0,0-1,4.64.89.89,0,0,0,.15.6.85.85,0,0,0,.6.23,10.14,10.14,0,0,0,2.64,0"/><path class="cls-1" d="M173.48,76.64a12.75,12.75,0,0,0,.12,2.62,5.7,5.7,0,0,1,.15,1.3,1.36,1.36,0,0,1-.63,1.1,1.92,1.92,0,0,1-.92.14,1.34,1.34,0,0,1-.53-.08,1.25,1.25,0,0,1-.56-.92,7.25,7.25,0,0,1,.28-4"/><path class="cls-1" d="M171.18,81a6.35,6.35,0,0,1-1.44.1,2,2,0,0,1-1.28-.58,2.94,2.94,0,0,1-.4-2.41,4.2,4.2,0,0,1,.38-1.45"/><path class="cls-1" d="M168.34,80.63a1.86,1.86,0,0,1-1.34-.91,3.21,3.21,0,0,1-.26-2.92"/><path class="cls-1" d="M166.74,79.42a2.44,2.44,0,0,1-1.6.21,1.4,1.4,0,0,1-.79-1.1,3.94,3.94,0,0,1,.09-1.41"/><path class="cls-1" d="M164.68,79.24h-.87a.47.47,0,0,1-.24,0,.48.48,0,0,1-.2-.26,2.79,2.79,0,0,1-.1-1.76"/><path class="cls-1" d="M164.39,83.61a6.09,6.09,0,0,1,.31-2.84,1.53,1.53,0,0,0,.11-.47.83.83,0,0,0-.64-.71,4.43,4.43,0,0,0-1.35.11"/><path class="cls-1" d="M164.77,80a4.24,4.24,0,0,1,1.59,0,1.38,1.38,0,0,1,1,1.11,2.59,2.59,0,0,1-.46,1.31,1.21,1.21,0,0,0,0,1.33"/><path class="cls-1" d="M167.64,81c.48-.1,1.06-.16,1.36.22a1.51,1.51,0,0,1,.09,1.15,3.76,3.76,0,0,0,1,3.21"/><path class="cls-1" d="M171.83,82.14c.46.12.64,0,1.11-.07a1.24,1.24,0,0,1,1.21.54,1.92,1.92,0,0,1,.08.79,4.47,4.47,0,0,0,.8,2.65.87.87,0,0,1,.25.58c0,.4-.6.52-1,.39a3.43,3.43,0,0,1-1.5-1.49,4.56,4.56,0,0,1-1-2.42,4.49,4.49,0,0,0,0-1,.79.79,0,0,0-.12-.3c-.3-.42-.92-.41-1.44-.35l-1.12.13"/><path class="cls-1" d="M177.51,87.31a3.42,3.42,0,0,1-2.31-1.77,10,10,0,0,1-.95-3,9.21,9.21,0,0,1,3-.16.77.77,0,0,1,.44.12.62.62,0,0,1,.15.59c0,.21-.13.4-.16.62A1.7,1.7,0,0,0,178,84.9a5.73,5.73,0,0,1,.68,1,1.08,1.08,0,0,1-.13,1.16.85.85,0,0,1-.42.22,1.37,1.37,0,0,1-.57,0l-.09,0"/><path class="cls-1" d="M178.82,86.8a2.7,2.7,0,0,0,.75.47,1.4,1.4,0,0,0,1.1-.08,1.46,1.46,0,0,0,.6-1,9.56,9.56,0,0,0,0-1.2,3.45,3.45,0,0,0-.3-2,1.79,1.79,0,0,0-1.51-.65,4.43,4.43,0,0,0-1.63.47"/><path class="cls-1" d="M184.22,82.5a1.25,1.25,0,0,1,.81.14,1.29,1.29,0,0,1,.43,1.06,3.48,3.48,0,0,1-1.25,3.1,1.49,1.49,0,0,1-.93.27c-.68-.07-1.12-.76-1.32-1.41A4.63,4.63,0,0,1,182,83,5.08,5.08,0,0,1,184.22,82.5Z"/><path class="cls-1" d="M184.66,86.49c.43-.08.76.35,1.17.52a1.32,1.32,0,0,0,1.22-.23,3,3,0,0,0,.8-1,7.49,7.49,0,0,0,.54-1.19,2.22,2.22,0,0,0,0-1.87,1.73,1.73,0,0,0-1.61-.74,2.47,2.47,0,0,0-1.57.6"/><path class="cls-1" d="M187.6,86.47c.5,0,1,.44,1.47.3a1.1,1.1,0,0,0,.46-.28,5,5,0,0,0,1.63-2.94,1.91,1.91,0,0,0-.2-1.39,1.37,1.37,0,0,0-1.5-.49c-.55.16-.86.3-1.07.82"/><path class="cls-1" d="M190.43,85.54a2.33,2.33,0,0,0,2.13.3,2.15,2.15,0,0,0,.84-1.21c.13-.35.24-.71.34-1.06a1.87,1.87,0,0,0-.09-1.67,1.35,1.35,0,0,0-1.41-.35,3.37,3.37,0,0,0-1.28.61"/><path class="cls-1" d="M193.65,81.9a1.28,1.28,0,0,1,1-.6,3.11,3.11,0,0,1,1.05.06l.29.07a1.29,1.29,0,0,1,.7.37,1.22,1.22,0,0,1,0,1.24,3.75,3.75,0,0,1-.78,1.17,2.82,2.82,0,0,1-.46.38,2.28,2.28,0,0,1-1.91.33"/><path class="cls-1" d="M195.87,84.21a2.77,2.77,0,0,0,2.14-.69,2.56,2.56,0,0,0,1-2.35,1.27,1.27,0,0,0-.29-.68,1.07,1.07,0,0,0-.76-.32,1.38,1.38,0,0,0-.45,0,1.62,1.62,0,0,0-.41.17,4.61,4.61,0,0,0-.72.46l-.71.51a0,0,0,0,1,0,0"/><path class="cls-1" d="M181.4,77.74v-.09c.09-.53-.18-.66.27-1a1.22,1.22,0,0,1,.36-.15,3.56,3.56,0,0,1,1.18,0,1.83,1.83,0,0,1,.6.14c.51.22.78,1.13,1.06,1.61a9.63,9.63,0,0,1,.69,1.45c.13.31.24.62.34.94a1.73,1.73,0,0,1,.09.84h0a.83.83,0,0,1-.12.27,1.33,1.33,0,0,1-.81.44,8.69,8.69,0,0,1-2,.23,1.11,1.11,0,0,1-1.36-1,16,16,0,0,1-.32-2.39v0c0-.4,0-.81,0-1.21v0"/><path class="cls-1" d="M184.57,76.48a18.79,18.79,0,0,1,1,3.23c.12.49.21,1,.29,1.41a.75.75,0,0,0,.14.37h0a.75.75,0,0,0,.63.22,8.47,8.47,0,0,0,1.42-.09c.61-.09,1.31-.35,1.49-.94a1.89,1.89,0,0,0-.11-1.1c-.13-.4-.25-.8-.38-1.2s-.48-1.63-1-1.91a.59.59,0,0,0-.39-.11,1.67,1.67,0,0,0-.33,0,4.51,4.51,0,0,0-1,0h-.06c-.16,0-.38-.12-.46,0"/><path class="cls-1" d="M188.39,76.35c.7,0,1.56,0,2.26,0a1.61,1.61,0,0,1,.55.21c.19.09.35.52.47.69a3.39,3.39,0,0,1,.49,2.42,2.1,2.1,0,0,1-.53,1.1,3.08,3.08,0,0,1-.72.47,2.58,2.58,0,0,1-1.15.36c-.41,0-.52,0-.55-.44"/><path class="cls-1" d="M194.52,80.56c.42.18.69,0,1.07-.24a3,3,0,0,0,.92-1,2.66,2.66,0,0,0,.28-.59,2.81,2.81,0,0,0-.78-2.28"/><path class="cls-1" d="M197.9,76.69l0,0h0a1.9,1.9,0,0,1,.89,1.45,3.17,3.17,0,0,1-.59,1.7,1.94,1.94,0,0,1-.26.31.44.44,0,0,1-.15.12,1.11,1.11,0,0,1-.71.1,4,4,0,0,1-1.05-.31"/><path class="cls-1" d="M192,80.45a2.7,2.7,0,0,0,1.1.66,1.33,1.33,0,0,0,1.22-.24,2,2,0,0,0,.48-1.5,5.68,5.68,0,0,0-.14-1.75,2.23,2.23,0,0,0-.87-1.43"/><path d="M177.75,52a13,13,0,0,1-3.83,4.77,20.61,20.61,0,0,1-7.14,3.77,11.87,11.87,0,0,1-6.08.39,6.51,6.51,0,0,1-4.61-3.73,10.29,10.29,0,0,1-.42-4c.11-3.16.53-6.75,3.1-8.59a10.78,10.78,0,0,1,3.48-1.4,52.7,52.7,0,0,1,7.84-1.71c3.59-.15,6.4,1.2,7.84,4.49A7.59,7.59,0,0,1,177.75,52Z"/><path d="M207.48,57.2a6.51,6.51,0,0,1-4.61,3.73,11.87,11.87,0,0,1-6.08-.39,20.61,20.61,0,0,1-7.14-3.77A13,13,0,0,1,185.82,52a7.59,7.59,0,0,1-.18-6c1.44-3.29,4.25-4.64,7.84-4.49a52.7,52.7,0,0,1,7.84,1.71,10.78,10.78,0,0,1,3.48,1.4c2.57,1.84,3,5.43,3.1,8.59A10.29,10.29,0,0,1,207.48,57.2Z"/><path class="cls-1" d="M149.21,53c1.35-.5,2-2,2.4-3.39a41,41,0,0,0,.18-23.13"/><path class="cls-1" d="M213.4,52.29a42.42,42.42,0,0,1-4-9.74,21.31,21.31,0,0,1,2.92-16.07"/><path class="cls-1" d="M174,39.25a14.73,14.73,0,0,0-11.21-1.4,22.93,22.93,0,0,0-9.92,5.8"/><path d="M189.74,38a22,22,0,0,1,18.82,5,27.66,27.66,0,0,0-8.95-4.23A27.29,27.29,0,0,0,189.74,38Z"/><path class="cls-1" d="M153.61,42.62a13.63,13.63,0,0,0,5.46-11.75"/><path class="cls-1" d="M208.69,42.63a17.58,17.58,0,0,1-6.05-12.55"/><path d="M157.37,64.93a37.3,37.3,0,0,0,5,19.48,27.86,27.86,0,0,1-5-19.48Z"/><path d="M205.67,65.43c.2,1.73.34,3.48.38,5.23a29.83,29.83,0,0,1-.35,5.25,18.87,18.87,0,0,1-1.63,5,21.07,21.07,0,0,1-2.9,4.38,30.84,30.84,0,0,0,2.56-4.54,20.43,20.43,0,0,0,1.47-5A60,60,0,0,0,205.67,65.43Z"/><path class="cls-1" d="M162.71,79.75a3.75,3.75,0,0,0,1.07,3.87,7.44,7.44,0,0,0,2.65,1.29l4.29,1.41a20.43,20.43,0,0,0,2.85.79c2.6.45,5.32-.09,7.89.49"/><path class="cls-1" d="M181.55,87.6l6,0a16.33,16.33,0,0,0,2.8-.17,17.33,17.33,0,0,0,2.72-.81c2.61-1,3.24-2,5.79-3.11"/><path class="cls-1" d="M162.3,79.1a.91.91,0,0,1-.24-.44,1.52,1.52,0,0,1,.63-1.55,4.06,4.06,0,0,1,2.24-.49l7.84-.18a15.87,15.87,0,0,1,1.95,0,7.19,7.19,0,0,1,.91.15,6.25,6.25,0,0,0,1.27.27,5.46,5.46,0,0,0,1-.11,19.87,19.87,0,0,1,2.67-.2l1.47,0,1.18,0,2.56-.09h.52l1.37,0,4.91-.16,1.19,0a10.11,10.11,0,0,1,1.23,0,19.32,19.32,0,0,1,2,.31l.93.17H198l.1,0"/><path class="cls-1" d="M198.9,83.47c.87-.85,1.76-1.15,1.38-2.31a6.08,6.08,0,0,1-.35-1.07,2.1,2.1,0,0,1,0-.56c0-.31.09-.62.1-.93,0-.48-1.43-1.64-2-1.88h0l-.1,0"/><path class="cls-1" d="M219.78,53.69s-6.92,16.94-1.19,29.12A36.06,36.06,0,0,0,230,96.49c1,.73,2,1.37,2.9,1.94a34.26,34.26,0,0,0,7.39,3.45c.48.15,1,.28,1.43.4a40.1,40.1,0,0,0,9.64,1.12h-.08"/><path class="cls-1" d="M251.19,103.38h.3a35.44,35.44,0,0,0,11.64-1.53,31.09,31.09,0,0,0,6.11-2.66,39.12,39.12,0,0,0,7.06-5,35.83,35.83,0,0,0,5.9-6.73,33.45,33.45,0,0,0,1.8-3c.3-.55.58-1.11.85-1.68,5.73-12.18-1.19-29.12-1.19-29.12"/><path d="M281.08,55.8a23.53,23.53,0,0,1,3.51-3.25,9.91,9.91,0,0,1,1.06-.56,3,3,0,0,0,.86-.73,1.91,1.91,0,0,0,.43-1,1.18,1.18,0,0,0-.37-.93c-1.13-1.14-2.12-2.38-3.27-3.45a7.36,7.36,0,0,0-1.86-1.34,3.53,3.53,0,0,0-2.18.14,12.15,12.15,0,0,1-2.37.49,3.47,3.47,0,0,1-2.41-.65,13,13,0,0,1-3.09-3.7A9.25,9.25,0,0,1,270,36.25a9.29,9.29,0,0,0-.24-2.35,4.26,4.26,0,0,0-.45-1.08,1.22,1.22,0,0,0-.91-.68,1.26,1.26,0,0,1,1,.64,4.16,4.16,0,0,1,.51,1.09,8.31,8.31,0,0,1,.37,2.37,9.15,9.15,0,0,0,1.5,4.39,13.56,13.56,0,0,0,3,3.53,3,3,0,0,0,2.1.54,11.62,11.62,0,0,0,2.28-.49,3.84,3.84,0,0,1,2.49-.1,7.28,7.28,0,0,1,2,1.45c1.16,1.11,2.17,2.36,3.24,3.51a1.56,1.56,0,0,1,.43,1.23,2.18,2.18,0,0,1-.53,1.16,3.34,3.34,0,0,1-1,.78c-.38.2-.73.3-1.06.51A23.46,23.46,0,0,0,281.08,55.8Z"/><path d="M222.29,55.8a23.64,23.64,0,0,0-3.6-3c-.33-.21-.68-.32-1.06-.52a3.11,3.11,0,0,1-1-.78,2.25,2.25,0,0,1-.52-1.15,1.56,1.56,0,0,1,.43-1.22c1.06-1.16,2-2.41,3.21-3.52a7.45,7.45,0,0,1,2-1.45,3.78,3.78,0,0,1,2.47.1,11.13,11.13,0,0,0,2.27.49,2.89,2.89,0,0,0,2.08-.56,13.55,13.55,0,0,0,3-3.53A9.15,9.15,0,0,0,233,36.23a9.36,9.36,0,0,1,.36-2.36,4.51,4.51,0,0,1,.51-1.09,1.25,1.25,0,0,1,1-.64,1.2,1.2,0,0,0-.9.68,4.23,4.23,0,0,0-.44,1.08,9.14,9.14,0,0,0-.24,2.33,9.45,9.45,0,0,1-1.37,4.57,13.28,13.28,0,0,1-3.06,3.71,3.4,3.4,0,0,1-2.38.67,12.14,12.14,0,0,1-2.37-.48,3.4,3.4,0,0,0-2.16-.15,7.1,7.1,0,0,0-1.84,1.34C219,47,218,48.2,216.86,49.34a1.21,1.21,0,0,0-.37.93,2,2,0,0,0,.43,1,3,3,0,0,0,.84.73,9.91,9.91,0,0,1,1.06.56A23.24,23.24,0,0,1,222.29,55.8Z"/><path d="M220.78,45.15a6.37,6.37,0,0,1,.85-1.76c.37-.54.83-1,1.25-1.51A9,9,0,0,0,224,40.26a6.79,6.79,0,0,0,.77-1.77,11.48,11.48,0,0,0,.07-3.88l-.49-3.88h0a15.81,15.81,0,0,1,.12-3.3l.34-3.27c.24-2.18.48-4.37.92-6.53a13.56,13.56,0,0,1,1-3.17,3.48,3.48,0,0,1,1.11-1.31,1.86,1.86,0,0,1,.87-.21,3.11,3.11,0,0,0,.77-.11A6.8,6.8,0,0,0,232,11c.75-.77,1.43-1.66,2.27-2.4a23.83,23.83,0,0,1,5.47-3.7,31.66,31.66,0,0,1,6.19-2.34,3.84,3.84,0,0,1,1.72-.07,11.11,11.11,0,0,1,1.63.41c.53.17,1.05.37,1.56.58l.76.34a.88.88,0,0,0,.63.15,5.73,5.73,0,0,0,1.4-.67,6.74,6.74,0,0,1,1.56-.67,6.74,6.74,0,0,1,3.37.11A16.07,16.07,0,0,1,261.7,3.8a11.08,11.08,0,0,1,1.46.82c.47.35.86.7,1.29,1l5.06,4.2c1.68,1.41,3.36,2.82,5,4.25.83.73,1.65,1.44,2.46,2.19l.6.58a2.88,2.88,0,0,1,.48.73,7.61,7.61,0,0,1,.5,1.6,17.4,17.4,0,0,1,.33,3.29L279,25.8c0,2.2-.08,4.39-.14,6.58-.06,1.09,0,2.18,0,3.28a10.37,10.37,0,0,0,.44,3.23,18.81,18.81,0,0,0,3,5.82,18.8,18.8,0,0,1-3.05-5.79,10.26,10.26,0,0,1-.5-3.25c0-1.1-.07-2.2,0-3.3.05-4.37.3-8.79-.37-13.09a6.64,6.64,0,0,0-.48-1.53,2.27,2.27,0,0,0-.43-.63l-.59-.56c-.8-.74-1.63-1.46-2.46-2.17-1.66-1.43-3.35-2.83-5-4.22L264.18,6a12.26,12.26,0,0,0-5.72-2.86,5.4,5.4,0,0,0-4.59.53,5.87,5.87,0,0,1-1.55.74,1.39,1.39,0,0,1-.93-.19l-.75-.33c-.5-.21-1-.41-1.51-.58A5.37,5.37,0,0,0,246,3a27.63,27.63,0,0,0-11.51,5.88c-1.6,1.4-2.75,3.49-5,4.31-.57.19-1.17,0-1.56.29a3.13,3.13,0,0,0-1,1.16,12.44,12.44,0,0,0-1,3.08c-.45,2.13-.71,4.31-1,6.49l-.37,3.27a16.08,16.08,0,0,0-.13,3.25h0l.43,3.89a11.54,11.54,0,0,1-.14,3.93,6.57,6.57,0,0,1-.81,1.79,9,9,0,0,1-1.13,1.61c-.42.49-.89.95-1.27,1.48A6.66,6.66,0,0,0,220.78,45.15Z"/><path d="M275.59,41.25c-.22-1.4-.45-2.8-.73-4.19A35.53,35.53,0,0,0,273.81,33a14.35,14.35,0,0,0-1.72-3.8,3.9,3.9,0,0,0-3.42-2,3.25,3.25,0,0,1,2.11.32,5.36,5.36,0,0,1,1.62,1.45,13.56,13.56,0,0,1,1.89,3.88,28.68,28.68,0,0,1,.94,4.18A30.34,30.34,0,0,1,275.59,41.25Z"/><path d="M227.25,41a27.78,27.78,0,0,1,.05-4.18,29.08,29.08,0,0,1,.63-4.15,13,13,0,0,1,1.6-3.91,4.87,4.87,0,0,1,1.54-1.49,3.06,3.06,0,0,1,2.07-.32,3.63,3.63,0,0,0-3.29,2,13.8,13.8,0,0,0-1.43,3.83,34.69,34.69,0,0,0-.74,4.07C227.49,38.2,227.36,39.58,227.25,41Z"/><path d="M248.75,59.74c.18-2.17.29-4.35.26-6.52A14.21,14.21,0,0,0,248.7,50,9.52,9.52,0,0,0,247,47.29a6.9,6.9,0,0,1-1.48-3,6.75,6.75,0,0,1,0-1.68,15.51,15.51,0,0,1,.18-1.64,2.57,2.57,0,0,1,.28-.85,1.47,1.47,0,0,1,.72-.61,9.32,9.32,0,0,1,1.63-.42,10.17,10.17,0,0,1,1.66-.19,3.32,3.32,0,0,1,.88.08,1.21,1.21,0,0,1,.46.22.78.78,0,0,1,.27.53h-.49a.74.74,0,0,1,.25-.52,1.08,1.08,0,0,1,.46-.24,3.3,3.3,0,0,1,.88-.07,11.16,11.16,0,0,1,1.64.23,6.14,6.14,0,0,1,1.62.47,1.45,1.45,0,0,1,.62.7,3.33,3.33,0,0,1,.23.83c.08.55.12,1.09.16,1.63a5.85,5.85,0,0,1,0,1.67,7.11,7.11,0,0,1-1.51,2.94,8.83,8.83,0,0,0-1.63,2.71,15.24,15.24,0,0,0-.28,3.18c0,2.16.08,4.32.26,6.47-.26-2.15-.45-4.3-.5-6.47a15,15,0,0,1,.22-3.26,9.1,9.1,0,0,1,1.62-2.85,7,7,0,0,0,1.4-2.8,5.35,5.35,0,0,0,0-1.55c0-.54-.08-1.08-.17-1.59a1.48,1.48,0,0,0-.63-1.21,5.82,5.82,0,0,0-1.48-.41,10.71,10.71,0,0,0-1.57-.2c-.5,0-1.1.07-1.08.37h-.49c0-.28-.62-.4-1.11-.37a9.42,9.42,0,0,0-1.58.17,8.56,8.56,0,0,0-1.53.37,1.32,1.32,0,0,0-.75,1.12c-.09.51-.14,1.06-.18,1.6a6.43,6.43,0,0,0,0,1.58,6.67,6.67,0,0,0,1.35,2.83A9.57,9.57,0,0,1,249,49.93a14.09,14.09,0,0,1,.25,3.29C249.2,55.4,249,57.58,248.75,59.74Z"/><path class="cls-1" d="M256,25.16a7.5,7.5,0,0,1-.39,1.87c-.28.93-.3,2.36-1.31,2.53-.83.14-1.94.53-2.43-.11a1.54,1.54,0,0,1-.22-.74s0,0,0,0a9.57,9.57,0,0,1,0-1.31,5.07,5.07,0,0,0,0-.52,8.6,8.6,0,0,1,.16-2.38.73.73,0,0,1,.18-.35.81.81,0,0,1,.49-.14h.16l2-.09h.06a1.36,1.36,0,0,1,.87.15.9.9,0,0,1,.33.46A1.85,1.85,0,0,1,256,25.16Z"/><path class="cls-1" d="M258.35,30h0a12.55,12.55,0,0,0,1-4.64.89.89,0,0,0-.15-.6.91.91,0,0,0-.6-.23,10.14,10.14,0,0,0-2.64,0"/><path class="cls-1" d="M259.59,29.81a13.5,13.5,0,0,0-.12-2.62,5.27,5.27,0,0,1-.15-1.31,1.33,1.33,0,0,1,.62-1.09,1.83,1.83,0,0,1,.93-.14,1.14,1.14,0,0,1,.52.08,1.22,1.22,0,0,1,.57.92,7.34,7.34,0,0,1-.29,4"/><path class="cls-1" d="M261.89,25.41a5.71,5.71,0,0,1,1.43-.1,2,2,0,0,1,1.29.57A3,3,0,0,1,265,28.3a4,4,0,0,1-.38,1.45"/><path class="cls-1" d="M264.72,25.81a1.85,1.85,0,0,1,1.34.92,3.19,3.19,0,0,1,.27,2.91"/><path class="cls-1" d="M266.33,27a2.35,2.35,0,0,1,1.59-.21,1.39,1.39,0,0,1,.8,1.1,4.2,4.2,0,0,1-.09,1.41"/><path class="cls-1" d="M268.38,27.21h.88a.63.63,0,0,1,.24,0,.46.46,0,0,1,.19.26,2.76,2.76,0,0,1,.11,1.77"/><path class="cls-1" d="M268.67,22.84a6.1,6.1,0,0,1-.3,2.84,1.47,1.47,0,0,0-.11.46.83.83,0,0,0,.63.72,4.21,4.21,0,0,0,1.36-.12"/><path class="cls-1" d="M268.3,26.47a4,4,0,0,1-1.59-.06,1.36,1.36,0,0,1-1-1.1,2.87,2.87,0,0,1,.46-1.32,1.17,1.17,0,0,0,0-1.32"/><path class="cls-1" d="M265.42,25.49c-.47.1-1.06.17-1.35-.22a1.53,1.53,0,0,1-.1-1.14,3.72,3.72,0,0,0-1-3.21"/><path class="cls-1" d="M261.24,24.31c-.46-.12-.64.05-1.11.07a1.22,1.22,0,0,1-1.21-.54,1.74,1.74,0,0,1-.08-.79,4.47,4.47,0,0,0-.8-2.65.87.87,0,0,1-.25-.57c0-.41.59-.53,1-.39a3.35,3.35,0,0,1,1.5,1.48,4.56,4.56,0,0,1,1,2.42,4.49,4.49,0,0,0,0,1,.79.79,0,0,0,.12.3c.3.43.92.41,1.44.35l1.12-.12"/><path class="cls-1" d="M255.57,19.14a3.43,3.43,0,0,1,2.3,1.78,10,10,0,0,1,.95,2.94,9.21,9.21,0,0,1-3,.16.7.7,0,0,1-.44-.12.6.6,0,0,1-.15-.58c0-.21.13-.41.15-.62a1.65,1.65,0,0,0-.38-1.15,5.4,5.4,0,0,1-.68-1,1.06,1.06,0,0,1,.13-1.15.85.85,0,0,1,.45-.23,1.4,1.4,0,0,1,.54,0l.1,0"/><path class="cls-1" d="M254.24,19.64a2.34,2.34,0,0,0-.75-.46,1.37,1.37,0,0,0-1.09.08,1.44,1.44,0,0,0-.6,1,6.74,6.74,0,0,0,0,1.19,3.36,3.36,0,0,0,.3,2.05,1.76,1.76,0,0,0,1.51.65,4.3,4.3,0,0,0,1.63-.47"/><path class="cls-1" d="M248.84,24a1.23,1.23,0,0,1-.8-.14,1.29,1.29,0,0,1-.43-1,3.49,3.49,0,0,1,1.25-3.11,1.49,1.49,0,0,1,.93-.27c.68.07,1.12.76,1.31,1.42a4.6,4.6,0,0,1,0,2.65A5.13,5.13,0,0,1,248.84,24Z"/><path class="cls-1" d="M248.41,20c-.43.08-.77-.36-1.18-.52a1.3,1.3,0,0,0-1.22.23,3.31,3.31,0,0,0-.8,1,7.11,7.11,0,0,0-.54,1.19,2.3,2.3,0,0,0,0,1.87,1.75,1.75,0,0,0,1.62.74,2.44,2.44,0,0,0,1.57-.61"/><path class="cls-1" d="M245.47,20c-.51,0-1-.45-1.47-.31a1.28,1.28,0,0,0-.47.29,5,5,0,0,0-1.62,2.93,1.93,1.93,0,0,0,.19,1.4,1.4,1.4,0,0,0,1.51.49c.54-.16.86-.3,1.07-.82"/><path class="cls-1" d="M242.64,20.9a2.38,2.38,0,0,0-2.14-.29,2.18,2.18,0,0,0-.83,1.21c-.13.35-.25.7-.35,1.06a1.87,1.87,0,0,0,.09,1.67,1.35,1.35,0,0,0,1.41.35,3.37,3.37,0,0,0,1.28-.61"/><path class="cls-1" d="M239.41,24.55a1.24,1.24,0,0,1-1,.6,2.8,2.8,0,0,1-1-.06l-.3-.07a1.23,1.23,0,0,1-.7-.37,1.22,1.22,0,0,1,0-1.24,3.87,3.87,0,0,1,.78-1.17,2.82,2.82,0,0,1,.46-.38,2.27,2.27,0,0,1,1.91-.32"/><path class="cls-1" d="M237.2,22.24a2.78,2.78,0,0,0-2.14.7,2.55,2.55,0,0,0-1,2.35,1.2,1.2,0,0,0,.29.67,1,1,0,0,0,.76.32,1.38,1.38,0,0,0,.45-.05,1.62,1.62,0,0,0,.41-.17,5.41,5.41,0,0,0,.72-.45l.72-.52"/><path class="cls-1" d="M251.67,28.71v.09c-.09.53.18.66-.27,1a1.22,1.22,0,0,1-.36.15,3.56,3.56,0,0,1-1.18,0,1.83,1.83,0,0,1-.6-.14c-.51-.21-.78-1.13-1.06-1.61a10.51,10.51,0,0,1-.68-1.39c-.13-.32-.25-.66-.35-1a1.73,1.73,0,0,1-.09-.84h0a.83.83,0,0,1,.12-.27,1.27,1.27,0,0,1,.81-.43,8.64,8.64,0,0,1,2-.24,1.11,1.11,0,0,1,1.36,1,14.17,14.17,0,0,1,.31,2.33c0,.44,0,.88,0,1.31,0,0,0,0,0,0"/><path class="cls-1" d="M248.5,30a19.11,19.11,0,0,1-1-3.18c-.12-.51-.22-1-.3-1.47a.84.84,0,0,0-.14-.37h0a.82.82,0,0,0-.63-.22,8.47,8.47,0,0,0-1.42.09,2.38,2.38,0,0,0-1.17.47,1,1,0,0,0-.32.47,1.94,1.94,0,0,0,.11,1.11l.38,1.19c.17.56.48,1.63,1,1.92a.6.6,0,0,0,.38.1,1.78,1.78,0,0,0,.34,0,4.51,4.51,0,0,0,1-.05h.05c.17,0,.39.13.47,0"/><path class="cls-1" d="M244.68,30.09c-.7,0-1.57,0-2.27,0a1.47,1.47,0,0,1-.55-.2c-.19-.1-.34-.52-.46-.7a3.28,3.28,0,0,1-.49-2.42,1.94,1.94,0,0,1,.53-1.09,2.71,2.71,0,0,1,.72-.47,2.4,2.4,0,0,1,1.15-.37c.4,0,.52,0,.54.44"/><path class="cls-1" d="M238.54,25.89c-.41-.18-.68,0-1.07.24a3,3,0,0,0-.91,1,2.22,2.22,0,0,0-.28.58,2.83,2.83,0,0,0,.78,2.29"/><path class="cls-1" d="M235.17,29.76a0,0,0,0,0,0,0,1.9,1.9,0,0,1-.91-1.45,3.2,3.2,0,0,1,.59-1.71,1.94,1.94,0,0,1,.26-.31.44.44,0,0,1,.15-.12,1.11,1.11,0,0,1,.71-.1,4,4,0,0,1,1,.31"/><path class="cls-1" d="M241.11,26a2.62,2.62,0,0,0-1.1-.67,1.35,1.35,0,0,0-1.23.25,2.06,2.06,0,0,0-.48,1.5,6.07,6.07,0,0,0,.14,1.75,2.3,2.3,0,0,0,.87,1.43"/><path d="M277.4,53.24c-.11,3.16-.53,6.76-3.1,8.59a10.78,10.78,0,0,1-3.48,1.4A51.47,51.47,0,0,1,263,64.94c-3.59.16-6.4-1.19-7.84-4.49a7.63,7.63,0,0,1,.17-6,13.14,13.14,0,0,1,3.84-4.76,20.47,20.47,0,0,1,7.14-3.78,12,12,0,0,1,6.08-.39A6.5,6.5,0,0,1,277,49.26,10.24,10.24,0,0,1,277.4,53.24Z"/><path d="M247.43,60.45c-1.44,3.3-4.25,4.65-7.84,4.49a51.47,51.47,0,0,1-7.84-1.71,10.69,10.69,0,0,1-3.48-1.4c-2.57-1.83-3-5.43-3.1-8.59a10.24,10.24,0,0,1,.42-4,6.5,6.5,0,0,1,4.61-3.74,12,12,0,0,1,6.08.39,20.47,20.47,0,0,1,7.14,3.78,13,13,0,0,1,3.83,4.76A7.59,7.59,0,0,1,247.43,60.45Z"/><path class="cls-1" d="M283.85,53.42c-1.34.51-2,2-2.4,3.4A41.09,41.09,0,0,0,281.28,80"/><path class="cls-1" d="M219.66,54.16a41.48,41.48,0,0,1,4,9.73A21.33,21.33,0,0,1,220.72,80"/><path class="cls-1" d="M259.1,67.19a14.72,14.72,0,0,0,11.22,1.41,22.94,22.94,0,0,0,9.91-5.8"/><path d="M243.32,68.41a21.92,21.92,0,0,1-18.82-5,27.46,27.46,0,0,0,18.82,5Z"/><path class="cls-1" d="M279.46,63.83A13.66,13.66,0,0,0,274,75.58"/><path class="cls-1" d="M224.38,63.82a17.6,17.6,0,0,1,6.05,12.55"/><path d="M275.7,41.52a37.56,37.56,0,0,0-5-19.49,28,28,0,0,1,5,19.49Z"/><path d="M227.4,41c-.2-1.74-.34-3.48-.38-5.23a29,29,0,0,1,.35-5.26,18.89,18.89,0,0,1,1.62-5,21.48,21.48,0,0,1,2.9-4.38,30.28,30.28,0,0,0-2.55,4.54,19.89,19.89,0,0,0-1.48,4.95A59,59,0,0,0,227.4,41Z"/><path class="cls-1" d="M270.36,26.7a3.76,3.76,0,0,0-1.07-3.87,7.27,7.27,0,0,0-2.65-1.29l-4.29-1.41a20.43,20.43,0,0,0-2.85-.79c-2.61-.46-5.32.09-7.9-.49"/><path class="cls-1" d="M251.52,18.85l-6.05,0a17.36,17.36,0,0,0-2.79.18,14.94,14.94,0,0,0-2.72.81c-2.61,1-3.25,2-5.79,3.1"/><path class="cls-1" d="M270.77,27.35a.91.91,0,0,1,.24.44,1.54,1.54,0,0,1-.64,1.56,4,4,0,0,1-2.23.49L260.3,30a15.87,15.87,0,0,1-1.95,0,7.19,7.19,0,0,1-.91-.15,6.94,6.94,0,0,0-1.28-.27,5.45,5.45,0,0,0-1,.11,18.35,18.35,0,0,1-2.67.2l-1.47.05-1.18,0L247.3,30h-.52l-1.38,0-4.9.16a19.54,19.54,0,0,1-2.42,0c-.67-.06-1.34-.18-2-.3l-.9-.16a0,0,0,0,0,0,0h0l-.07,0-.11,0"/><path class="cls-1" d="M234.17,23c-.87.85-1.76,1.15-1.38,2.3a7,7,0,0,1,.35,1.07,2.18,2.18,0,0,1,0,.57c0,.31-.09.62-.1.93,0,.48,1.44,1.64,2,1.87l.07,0h0"/><path class="cls-1" d="M355,52.52s6.92-16.94,1.19-29.12A36.06,36.06,0,0,0,344.76,9.72c-1-.72-2-1.37-2.91-1.94a34,34,0,0,0-7.39-3.45c-.47-.15-.95-.28-1.43-.4a40,40,0,0,0-9.63-1.12h-.09l.25,0"/><path class="cls-1" d="M323.58,2.83h0l-.16,0h-.13a35.47,35.47,0,0,0-11.64,1.53A31.06,31.06,0,0,0,305.53,7a38.78,38.78,0,0,0-7.06,5,35.87,35.87,0,0,0-5.91,6.73c-.63.94-1.24,1.93-1.8,3q-.43.83-.84,1.68c-5.73,12.18,1.19,29.12,1.19,29.12"/><path d="M306.38,74.07a1.26,1.26,0,0,1-1-.64,4.16,4.16,0,0,1-.51-1.09,9.09,9.09,0,0,1-.37-2.38,9,9,0,0,0-1.49-4.38A13.81,13.81,0,0,0,300,62a3,3,0,0,0-2.1-.54,11.81,11.81,0,0,0-2.28.5,3.91,3.91,0,0,1-2.49.09,1.3,1.3,0,0,1-.26-.14s0,0,0,0a7.51,7.51,0,0,1-1.7-1.3c-1.17-1.1-2.18-2.35-3.24-3.51a1.55,1.55,0,0,1-.44-1.23,2.26,2.26,0,0,1,.53-1.15,3.47,3.47,0,0,1,1-.78,11.84,11.84,0,0,0,1.07-.52,11.25,11.25,0,0,0,1.06-.75q.56-.42,1.08-.9c.51-.45,1-.92,1.49-1.39a23.53,23.53,0,0,1-3.51,3.25,10.67,10.67,0,0,1-1.05.55,3.09,3.09,0,0,0-.87.74,1.86,1.86,0,0,0-.42,1,1.18,1.18,0,0,0,.36.94c1.13,1.14,2.12,2.38,3.28,3.45a7.15,7.15,0,0,0,1.85,1.34,3.52,3.52,0,0,0,2.18-.14,12.1,12.1,0,0,1,2.38-.49,3.46,3.46,0,0,1,2.4.65,13.24,13.24,0,0,1,3.1,3.7,9.28,9.28,0,0,1,1.4,4.58A8.75,8.75,0,0,0,305,72.3a4.15,4.15,0,0,0,.44,1.09A1.24,1.24,0,0,0,306.38,74.07Z"/><path d="M358.18,57.13c-1.05,1.16-2.05,2.4-3.21,3.51a9.72,9.72,0,0,1-1.2,1s0,0,0,0a3.87,3.87,0,0,1-.74.43,3.81,3.81,0,0,1-2.48-.1,12.29,12.29,0,0,0-2.27-.49,3,3,0,0,0-2.08.56,13.63,13.63,0,0,0-3,3.54A9,9,0,0,0,341.73,70a8.94,8.94,0,0,1-.37,2.36,4.25,4.25,0,0,1-.5,1.08,1.28,1.28,0,0,1-1,.65,1.27,1.27,0,0,0,.91-.68,4.2,4.2,0,0,0,.43-1.08,8.32,8.32,0,0,0,.24-2.33,9.36,9.36,0,0,1,1.38-4.57,13.25,13.25,0,0,1,3.05-3.71,3.41,3.41,0,0,1,2.38-.67,12,12,0,0,1,2.37.48,3.43,3.43,0,0,0,2.17.15,7.05,7.05,0,0,0,1.83-1.34c1.15-1.07,2.12-2.31,3.25-3.45a1.17,1.17,0,0,0,.36-.93,1.93,1.93,0,0,0-.42-1,3.14,3.14,0,0,0-.85-.73c-.31-.19-.72-.32-1.05-.56a22.76,22.76,0,0,1-3.47-3.25,22.71,22.71,0,0,0,3.6,3.05c.32.21.68.31,1.06.51a3.14,3.14,0,0,1,.95.79,2.17,2.17,0,0,1,.52,1.15A1.5,1.5,0,0,1,358.18,57.13Z"/><path d="M354,61.06c-.06.2-.14.4-.21.59a5.74,5.74,0,0,1-.63,1.17c-.38.54-.84,1-1.25,1.51a8.82,8.82,0,0,0-1.1,1.61,6.64,6.64,0,0,0-.76,1.78,11.18,11.18,0,0,0-.08,3.87l.49,3.89h0a15.81,15.81,0,0,1-.11,3.3L350,82.06a65.54,65.54,0,0,1-.92,6.52,13,13,0,0,1-1,3.18A3.56,3.56,0,0,1,347,93.07a1.86,1.86,0,0,1-.87.21,3.18,3.18,0,0,0-.77.11,6.67,6.67,0,0,0-2.55,1.86c-.75.78-1.43,1.67-2.26,2.4a23.93,23.93,0,0,1-5.48,3.71,32.06,32.06,0,0,1-6.19,2.34,3.8,3.8,0,0,1-1.71.07,10.8,10.8,0,0,1-1.63-.41c-.53-.17-1.05-.37-1.56-.58l-.76-.34a1,1,0,0,0-.64-.16,5.79,5.79,0,0,0-1.4.68,5.85,5.85,0,0,1-4.93.56,16.41,16.41,0,0,1-3.13-1.11,9.15,9.15,0,0,1-1.46-.83c-.48-.34-.86-.7-1.29-1l-5.07-4.2c-1.68-1.41-3.35-2.82-5-4.26-.83-.72-1.66-1.44-2.46-2.19l-.6-.57a2.64,2.64,0,0,1-.48-.73,7.23,7.23,0,0,1-.5-1.6,16.63,16.63,0,0,1-.34-3.29l-.08-3.29c0-2.2.07-4.39.14-6.58.05-1.1,0-2.19,0-3.28a10.38,10.38,0,0,0-.45-3.23,18.55,18.55,0,0,0-2.63-5.38l-.32-.45c.12.15.23.3.34.46a18.43,18.43,0,0,1,2.71,5.34,10.56,10.56,0,0,1,.51,3.25c0,1.1.07,2.2,0,3.3-.05,4.37-.29,8.79.37,13.09a7.08,7.08,0,0,0,.48,1.52,2.66,2.66,0,0,0,.43.64l.59.56c.8.74,1.63,1.46,2.46,2.17q2.51,2.13,5,4.22l5.08,4.17a12.25,12.25,0,0,0,5.73,2.86,6.29,6.29,0,0,0,3.13.1,6.19,6.19,0,0,0,1.45-.63,5.94,5.94,0,0,1,1.56-.74,1.42,1.42,0,0,1,.93.19l.74.33c.5.21,1,.41,1.52.58a5.35,5.35,0,0,0,3.09.34,27.65,27.65,0,0,0,11.5-5.88c1.61-1.4,2.76-3.49,5-4.32.57-.18,1.18,0,1.56-.28a3.13,3.13,0,0,0,1-1.16,12.89,12.89,0,0,0,1-3.08c.45-2.14.7-4.32.95-6.49l.36-3.27a15.39,15.39,0,0,0,.13-3.25v0l-.42-3.88a11.48,11.48,0,0,1,.14-3.92,6.54,6.54,0,0,1,.8-1.79,9,9,0,0,1,1.13-1.61c.43-.5.89-1,1.27-1.49a5.55,5.55,0,0,0,.64-1.14C353.84,61.46,353.91,61.26,354,61.06Z"/><path d="M306.1,79a3.24,3.24,0,0,1-2.11-.32l-.16-.1a5.41,5.41,0,0,1-1.47-1.35,13.53,13.53,0,0,1-1.88-3.88,30.28,30.28,0,0,1-1.3-8.44c.21,1.41.44,2.81.73,4.19a33.25,33.25,0,0,0,1,4.1,14.35,14.35,0,0,0,1.72,3.8,4.92,4.92,0,0,0,1.05,1.18A3.38,3.38,0,0,0,306.1,79Z"/><path d="M347.56,67.22c0,.74,0,1.47-.09,2.2,0,.38-.07.77-.11,1.15-.13,1-.31,2-.53,3a12.7,12.7,0,0,1-1.6,3.91A4.73,4.73,0,0,1,343.69,79a2.93,2.93,0,0,1-2.06.32,3.57,3.57,0,0,0,3.28-2,13.45,13.45,0,0,0,1.44-3.82,34.69,34.69,0,0,0,.74-4.07c.11-.84.2-1.69.28-2.54,0-.28.06-.56.08-.84s.05-.51.07-.76C347.56,65.9,347.58,66.56,347.56,67.22Z"/><path d="M329.2,63.58a15.69,15.69,0,0,1-.18,1.65,2.57,2.57,0,0,1-.28.85,1.52,1.52,0,0,1-.72.61,8.28,8.28,0,0,1-1.63.41,11.24,11.24,0,0,1-1.66.2,3.42,3.42,0,0,1-.88-.09,1.21,1.21,0,0,1-.46-.22h0a1,1,0,0,1-.46.23,2.61,2.61,0,0,1-.87.07,10.8,10.8,0,0,1-1.64-.22,6.62,6.62,0,0,1-1.63-.47,1.51,1.51,0,0,1-.62-.7,3.26,3.26,0,0,1-.22-.84c-.09-.55-.12-1.09-.17-1.63a5.88,5.88,0,0,1,.05-1.67,7,7,0,0,1,1.51-2.93,8.79,8.79,0,0,0,1.62-2.71,16,16,0,0,0,.29-3.18c0-2.16-.09-4.32-.26-6.47.25,2.14.45,4.3.49,6.47a15,15,0,0,1-.22,3.26,8.91,8.91,0,0,1-1.62,2.85,7,7,0,0,0-1.39,2.79,5.08,5.08,0,0,0,0,1.56c0,.54.09,1.07.17,1.59s.22,1,.63,1.21a5.9,5.9,0,0,0,1.49.41,10.57,10.57,0,0,0,1.56.2c.5,0,1.1-.07,1.08-.38h.5v0c0,.26.63.36,1.1.34a9.54,9.54,0,0,0,1.59-.17,8.78,8.78,0,0,0,1.53-.37,1.29,1.29,0,0,0,.74-1.12c.1-.52.14-1.06.19-1.6a6.43,6.43,0,0,0,0-1.58,6.76,6.76,0,0,0-1.36-2.83,9.79,9.79,0,0,1-1.66-2.86,14.09,14.09,0,0,1-.25-3.29c.05-2.19.25-4.36.5-6.52-.17,2.17-.29,4.35-.26,6.52a14.21,14.21,0,0,0,.31,3.21,9.47,9.47,0,0,0,1.67,2.72,5.52,5.52,0,0,1,1.47,4.66Z"/><path class="cls-1" d="M323.11,78.73c0,.24,0,.46,0,.62a8.61,8.61,0,0,1-.17,2.38.66.66,0,0,1-.18.35.78.78,0,0,1-.48.14h-.18l-2,.1H320a1.36,1.36,0,0,1-.85-.16,1.26,1.26,0,0,1-.42-1.12,7.49,7.49,0,0,1,.38-1.87c.28-.93.31-2.36,1.32-2.53.83-.14,1.94-.53,2.43.11a1.59,1.59,0,0,1,.22.75s0,0,0,0C323.13,77.91,323.12,78.35,323.11,78.73Z"/><path class="cls-1" d="M318.83,81.71a10.6,10.6,0,0,1-2.64,0,.92.92,0,0,1-.59-.23.89.89,0,0,1-.15-.6,12.55,12.55,0,0,1,1-4.65"/><path class="cls-1" d="M315.17,76.4a13.5,13.5,0,0,0,.12,2.62,4.77,4.77,0,0,1,.15,1.3,1.33,1.33,0,0,1-.62,1.1,2.07,2.07,0,0,1-.93.14,1.49,1.49,0,0,1-.52-.08,1.22,1.22,0,0,1-.56-.92,7.25,7.25,0,0,1,.28-4"/><path class="cls-1" d="M312.88,80.79a5.83,5.83,0,0,1-1.44.11,2.05,2.05,0,0,1-1.29-.58,3,3,0,0,1-.39-2.41,4,4,0,0,1,.38-1.45"/><path class="cls-1" d="M310,80.39a1.84,1.84,0,0,1-1.34-.91,3.21,3.21,0,0,1-.27-2.92"/><path class="cls-1" d="M308.43,79.18a2.48,2.48,0,0,1-1.59.21,1.42,1.42,0,0,1-.8-1.1,4.18,4.18,0,0,1,.09-1.41"/><path class="cls-1" d="M306.38,79h-.88a.51.51,0,0,1-.24,0,.47.47,0,0,1-.19-.26,2.82,2.82,0,0,1-.11-1.77"/><path class="cls-1" d="M306.09,83.37a6.08,6.08,0,0,1,.3-2.84,1.12,1.12,0,0,0,.11-.47.8.8,0,0,0-.63-.71,4.5,4.5,0,0,0-1.36.11"/><path class="cls-1" d="M306.47,79.74a4,4,0,0,1,1.58.05,1.38,1.38,0,0,1,1,1.11,2.69,2.69,0,0,1-.46,1.31,1.17,1.17,0,0,0,0,1.32"/><path class="cls-1" d="M309.34,80.71c.47-.1,1.06-.16,1.35.22a1.56,1.56,0,0,1,.1,1.15,3.75,3.75,0,0,0,1,3.21"/><path class="cls-1" d="M313.53,81.9c.45.12.63-.05,1.1-.07a1.24,1.24,0,0,1,1.22.54,1.74,1.74,0,0,1,.07.79,4.48,4.48,0,0,0,.81,2.65.92.92,0,0,1,.25.58c0,.4-.6.52-1,.38a3.3,3.3,0,0,1-1.5-1.48,4.58,4.58,0,0,1-1-2.42,4,4,0,0,0,0-1,.67.67,0,0,0-.13-.3c-.29-.43-.92-.41-1.43-.35l-1.12.13"/><path class="cls-1" d="M319.21,87.07a3.43,3.43,0,0,1-2.31-1.78,10,10,0,0,1-1-2.94,9.24,9.24,0,0,1,3-.16.73.73,0,0,1,.44.12.6.6,0,0,1,.16.59c0,.2-.13.4-.16.61a1.71,1.71,0,0,0,.39,1.15,5.73,5.73,0,0,1,.68,1,1.08,1.08,0,0,1-.14,1.16.81.81,0,0,1-.42.22,1.5,1.5,0,0,1-.56,0l-.09,0"/><path class="cls-1" d="M320.52,86.56a2.34,2.34,0,0,0,.75.46,1.3,1.3,0,0,0,1.09-.08,1.42,1.42,0,0,0,.6-1,6.88,6.88,0,0,0,0-1.2,3.37,3.37,0,0,0-.3-2,1.78,1.78,0,0,0-1.51-.65,4.49,4.49,0,0,0-1.63.47"/><path class="cls-1" d="M325.92,82.26a1.25,1.25,0,0,1,.81.14,1.28,1.28,0,0,1,.42,1,3.46,3.46,0,0,1-1.25,3.11,1.46,1.46,0,0,1-.92.27c-.68-.07-1.13-.76-1.32-1.41a4.63,4.63,0,0,1,0-2.66A5.13,5.13,0,0,1,325.92,82.26Z"/><path class="cls-1" d="M326.35,86.25c.43-.08.77.35,1.18.51a1.29,1.29,0,0,0,1.22-.22,3.14,3.14,0,0,0,.8-1,7.49,7.49,0,0,0,.54-1.19,2.26,2.26,0,0,0,0-1.87,1.71,1.71,0,0,0-1.62-.74,2.39,2.39,0,0,0-1.56.6"/><path class="cls-1" d="M329.29,86.23c.51,0,1,.44,1.48.3a1.3,1.3,0,0,0,.46-.28,5,5,0,0,0,1.63-2.94,2,2,0,0,0-.2-1.39,1.38,1.38,0,0,0-1.51-.49c-.54.16-.86.29-1.07.82"/><path class="cls-1" d="M332.12,85.3a2.35,2.35,0,0,0,2.14.3,2.12,2.12,0,0,0,.83-1.22c.13-.34.25-.7.35-1.06a1.85,1.85,0,0,0-.09-1.66,1.33,1.33,0,0,0-1.41-.35,3.37,3.37,0,0,0-1.28.61"/><path class="cls-1" d="M335.35,81.66a1.28,1.28,0,0,1,1-.6,3.16,3.16,0,0,1,1.06.06l.28.07a1.29,1.29,0,0,1,.7.37,1.25,1.25,0,0,1,0,1.24,4.06,4.06,0,0,1-.78,1.17,2.82,2.82,0,0,1-.46.38,2.25,2.25,0,0,1-1.91.32"/><path class="cls-1" d="M337.57,84a2.81,2.81,0,0,0,2.14-.69,2.59,2.59,0,0,0,1-2.35,1.28,1.28,0,0,0-.3-.68,1.06,1.06,0,0,0-.76-.32,1.61,1.61,0,0,0-.44,0,1.54,1.54,0,0,0-.42.17,4.61,4.61,0,0,0-.72.46l-.7.51h0"/><path class="cls-1" d="M323.1,77.51v-.1c.09-.53-.18-.66.26-1a1.22,1.22,0,0,1,.36-.15,3.62,3.62,0,0,1,1.19,0,2.12,2.12,0,0,1,.6.14c.51.22.78,1.13,1.06,1.61a9.63,9.63,0,0,1,.69,1.45,8.07,8.07,0,0,1,.33.94,1.56,1.56,0,0,1,.09.85.7.7,0,0,1-.11.27,1.29,1.29,0,0,1-.81.43,8.23,8.23,0,0,1-2,.24,1.43,1.43,0,0,1-1.07-.32,1.5,1.5,0,0,1-.3-.72,15.39,15.39,0,0,1-.31-2.43c0-.4,0-.81,0-1.21,0,0,0,0,0,0"/><path class="cls-1" d="M326.26,76.24a18,18,0,0,1,1,3.23c.12.49.21,1,.29,1.41a.86.86,0,0,0,.13.38.79.79,0,0,0,.64.22,8.47,8.47,0,0,0,1.42-.09,2.38,2.38,0,0,0,1.17-.47,1,1,0,0,0,.32-.47,1.86,1.86,0,0,0-.12-1.11c-.12-.39-.25-.79-.37-1.19-.18-.55-.49-1.63-1-1.91a.59.59,0,0,0-.39-.11,1.57,1.57,0,0,0-.32,0,4.57,4.57,0,0,0-1,0h-.05c-.16,0-.39-.13-.46,0"/><path class="cls-1" d="M330.08,76.11c.7,0,1.57,0,2.27,0a1.61,1.61,0,0,1,.55.21c.19.09.34.51.46.69a3.33,3.33,0,0,1,.5,2.42,2,2,0,0,1-.54,1.1,2.68,2.68,0,0,1-.72.46,2.4,2.4,0,0,1-1.15.37c-.4,0-.52,0-.54-.44"/><path class="cls-1" d="M336.22,80.32c.41.18.68,0,1.07-.24a3.05,3.05,0,0,0,.91-1,2,2,0,0,0,.28-.59,2.84,2.84,0,0,0-.78-2.29"/><path class="cls-1" d="M339.59,76.45l0,0a1.87,1.87,0,0,1,.9,1.44,3,3,0,0,1-.59,1.71,1.13,1.13,0,0,1-.26.31.79.79,0,0,1-.15.12,1.1,1.1,0,0,1-.71.1,4,4,0,0,1-1-.31"/><path class="cls-1" d="M333.65,80.2a2.65,2.65,0,0,0,1.11.67,1.3,1.3,0,0,0,1.22-.25,2,2,0,0,0,.48-1.49,6.11,6.11,0,0,0-.14-1.76,2.25,2.25,0,0,0-.87-1.42"/><path d="M319.45,51.76a13.05,13.05,0,0,1-3.84,4.77,20.57,20.57,0,0,1-7.13,3.77,11.91,11.91,0,0,1-6.09.39,6.49,6.49,0,0,1-4.6-3.74,10.05,10.05,0,0,1-.42-4c.1-3.16.53-6.76,3.1-8.59A10.61,10.61,0,0,1,304,43a51.47,51.47,0,0,1,7.84-1.71c3.59-.16,6.4,1.19,7.83,4.49A7.59,7.59,0,0,1,319.45,51.76Z"/><path d="M349.17,57a6.49,6.49,0,0,1-4.6,3.74,11.87,11.87,0,0,1-6.08-.39,20.61,20.61,0,0,1-7.14-3.77,13.05,13.05,0,0,1-3.84-4.77,7.59,7.59,0,0,1-.17-6c1.44-3.3,4.24-4.65,7.84-4.49A51.73,51.73,0,0,1,343,43a10.64,10.64,0,0,1,3.47,1.4c2.58,1.83,3,5.43,3.1,8.59A9.87,9.87,0,0,1,349.17,57Z"/><path class="cls-1" d="M290.91,52.78c1.34-.51,2-2,2.4-3.39a40.94,40.94,0,0,0,.17-23.14"/><path class="cls-1" d="M355.1,52.05a42.42,42.42,0,0,1-4-9.74A21.3,21.3,0,0,1,354,26.24"/><path class="cls-1" d="M315.66,39a14.71,14.71,0,0,0-11.22-1.4,22.9,22.9,0,0,0-9.91,5.8"/><path d="M350.26,42.82a27.66,27.66,0,0,0-8.95-4.23,27.29,27.29,0,0,0-9.87-.79,22,22,0,0,1,18.82,5Z"/><path class="cls-1" d="M295.3,42.38a13.64,13.64,0,0,0,5.47-11.75"/><path class="cls-1" d="M350.38,42.39a17.57,17.57,0,0,1-6-12.56"/><path d="M304.11,84.17a27.94,27.94,0,0,1-5.05-19.48,37.37,37.37,0,0,0,5.05,19.48Z"/><path d="M347.39,75.68a18.54,18.54,0,0,1-1.62,5,21.07,21.07,0,0,1-2.9,4.38,29.9,29.9,0,0,0,2.55-4.54,20,20,0,0,0,1.48-5,32.42,32.42,0,0,0,.46-5c0-1.24,0-2.49,0-3.73V65.19c0,.27.06.54.08.81s.08.81.11,1.22c.1,1.06.16,2.13.18,3.2A28.19,28.19,0,0,1,347.39,75.68Z"/><path class="cls-1" d="M304.4,79.51a3.77,3.77,0,0,0,1.07,3.87,7.25,7.25,0,0,0,2.65,1.28l4.3,1.42a21,21,0,0,0,2.85.78c2.6.46,5.31-.08,7.89.5"/><path class="cls-1" d="M323.24,87.36l6.05,0a16.33,16.33,0,0,0,2.8-.18,15.43,15.43,0,0,0,2.72-.81c2.6-1,3.24-2,5.78-3.1"/><path class="cls-1" d="M304,78.86a.78.78,0,0,1-.16-.24.8.8,0,0,1-.11-.4,1.57,1.57,0,0,1,.67-1.35,4,4,0,0,1,2.23-.49l7.84-.18a15.87,15.87,0,0,1,2,0,7.19,7.19,0,0,1,.91.15,7.3,7.3,0,0,0,1.28.27,5.56,5.56,0,0,0,1-.11,18.22,18.22,0,0,1,2.66-.2l1.47,0,1.19,0,2.56-.09H328l1.37,0,4.91-.16a19.53,19.53,0,0,1,2.42,0c.68.06,1.35.18,2,.3l.92.18h.08l.12,0"/><path class="cls-1" d="M340.59,83.23c.88-.86,1.77-1.16,1.39-2.31a6.08,6.08,0,0,1-.35-1.07,2.18,2.18,0,0,1,0-.57c0-.31.09-.62.1-.93,0-.47-1.45-1.64-2-1.87l-.1,0"/><path class="cls-1" d="M361.48,53.45s-6.93,16.94-1.2,29.12A36.15,36.15,0,0,0,371.7,96.25c1,.72,2,1.37,2.91,1.94a35,35,0,0,0,7.39,3.45c.47.15.95.28,1.43.4a40.1,40.1,0,0,0,9.64,1.12H393"/><path class="cls-1" d="M392.89,103.14h.3a35.47,35.47,0,0,0,11.64-1.53A31.35,31.35,0,0,0,410.94,99,39.48,39.48,0,0,0,418,94a36.52,36.52,0,0,0,5.9-6.73c.63-.94,1.24-1.93,1.8-3,.29-.55.57-1.11.85-1.68,5.72-12.18-1.2-29.12-1.2-29.12"/><path d="M422.78,55.56a23.45,23.45,0,0,1,3.5-3.25c.34-.24.75-.38,1.06-.56a3,3,0,0,0,.86-.73,1.83,1.83,0,0,0,.43-1,1.17,1.17,0,0,0-.36-.93c-1.14-1.14-2.12-2.38-3.28-3.45a6.92,6.92,0,0,0-1.85-1.34,3.45,3.45,0,0,0-2.18.14,12.1,12.1,0,0,1-2.38.49,3.51,3.51,0,0,1-2.4-.65,13.08,13.08,0,0,1-3.1-3.7,9.35,9.35,0,0,1-1.4-4.59,8.84,8.84,0,0,0-.25-2.34,4.3,4.3,0,0,0-.44-1.09,1.23,1.23,0,0,0-.91-.67,1.26,1.26,0,0,1,1,.64,4,4,0,0,1,.51,1.09,9.08,9.08,0,0,1,.37,2.37,9,9,0,0,0,1.49,4.39,13.6,13.6,0,0,0,3,3.53,3,3,0,0,0,2.1.54,12.57,12.57,0,0,0,2.28-.49,3.84,3.84,0,0,1,2.49-.1,7.23,7.23,0,0,1,2,1.45c1.17,1.11,2.18,2.36,3.24,3.51a1.57,1.57,0,0,1,.44,1.23,2.26,2.26,0,0,1-.53,1.16,3.47,3.47,0,0,1-1,.78,11.84,11.84,0,0,0-1.07.51A23.86,23.86,0,0,0,422.78,55.56Z"/><path d="M364,55.56a22.71,22.71,0,0,0-3.6-3.05c-.32-.21-.68-.32-1.06-.52a3.25,3.25,0,0,1-.95-.78,2.18,2.18,0,0,1-.53-1.15,1.56,1.56,0,0,1,.44-1.23c1.05-1.15,2.05-2.4,3.2-3.51a7.34,7.34,0,0,1,2-1.45,3.81,3.81,0,0,1,2.48.1,10.9,10.9,0,0,0,2.26.49,2.91,2.91,0,0,0,2.09-.56,13.82,13.82,0,0,0,3-3.54A9,9,0,0,0,374.73,36a8.94,8.94,0,0,1,.37-2.36,4.31,4.31,0,0,1,.5-1.09,1.26,1.26,0,0,1,1-.64,1.22,1.22,0,0,0-.91.68,4.06,4.06,0,0,0-.43,1.08A8.32,8.32,0,0,0,375,36a9.36,9.36,0,0,1-1.38,4.57,13.25,13.25,0,0,1-3.05,3.71,3.41,3.41,0,0,1-2.38.67,12,12,0,0,1-2.37-.49,3.42,3.42,0,0,0-2.17-.14,6.83,6.83,0,0,0-1.83,1.34c-1.15,1.07-2.12,2.31-3.25,3.45a1.21,1.21,0,0,0-.36.93,1.86,1.86,0,0,0,.42,1,3,3,0,0,0,.85.74,10.84,10.84,0,0,1,1.05.56A22.76,22.76,0,0,1,364,55.56Z"/><path d="M362.48,44.91a6.4,6.4,0,0,1,.84-1.77c.38-.54.84-1,1.25-1.51A8.29,8.29,0,0,0,365.66,40a6.12,6.12,0,0,0,.77-1.78,11.42,11.42,0,0,0,.07-3.87L366,30.48h0a15.92,15.92,0,0,1,.11-3.31l.35-3.26a65.74,65.74,0,0,1,.92-6.53,13,13,0,0,1,1-3.17,3.51,3.51,0,0,1,1.12-1.31,1.64,1.64,0,0,1,.87-.21,3.25,3.25,0,0,0,.77-.11,6.88,6.88,0,0,0,2.55-1.87c.75-.77,1.43-1.66,2.26-2.4a23.58,23.58,0,0,1,5.48-3.7,31,31,0,0,1,6.18-2.34,3.71,3.71,0,0,1,1.72-.07,10.8,10.8,0,0,1,1.63.41c.53.17,1,.37,1.56.58l.76.33a.88.88,0,0,0,.64.16,5.79,5.79,0,0,0,1.4-.68,7,7,0,0,1,1.56-.67,6.86,6.86,0,0,1,3.37.12,15.75,15.75,0,0,1,3.13,1.11,9.1,9.1,0,0,1,1.46.82c.48.35.86.7,1.3,1l5.06,4.2c1.68,1.41,3.35,2.82,5,4.25.83.72,1.66,1.44,2.46,2.19l.6.58a2.74,2.74,0,0,1,.48.72,6.67,6.67,0,0,1,.5,1.61,16.53,16.53,0,0,1,.34,3.28l.08,3.3c0,2.19-.07,4.39-.14,6.58-.05,1.09,0,2.18,0,3.28a10.42,10.42,0,0,0,.45,3.23,18.59,18.59,0,0,0,2.95,5.82,18.7,18.7,0,0,1-3.05-5.79,10.32,10.32,0,0,1-.51-3.25c0-1.1-.07-2.2,0-3.3.05-4.37.29-8.79-.37-13.09a7.17,7.17,0,0,0-.48-1.53,2.59,2.59,0,0,0-.43-.63l-.59-.57c-.8-.74-1.63-1.45-2.46-2.16-1.67-1.43-3.35-2.83-5-4.23l-5.08-4.17a12.49,12.49,0,0,0-5.73-2.86,6.4,6.4,0,0,0-3.13-.1,6.22,6.22,0,0,0-1.45.64,6.27,6.27,0,0,1-1.56.74,1.48,1.48,0,0,1-.93-.19l-.74-.33c-.5-.21-1-.41-1.52-.58a5.35,5.35,0,0,0-3.09-.34,27.75,27.75,0,0,0-11.5,5.87c-1.61,1.4-2.76,3.49-5,4.32-.57.19-1.18,0-1.56.28a3.16,3.16,0,0,0-1,1.17,12.89,12.89,0,0,0-1,3.08c-.45,2.13-.7,4.31-.95,6.49l-.36,3.27a15.39,15.39,0,0,0-.13,3.25h0l.42,3.89a11.54,11.54,0,0,1-.14,3.93,6.54,6.54,0,0,1-.8,1.79,8.56,8.56,0,0,1-1.13,1.6c-.43.5-.89,1-1.27,1.49A6.36,6.36,0,0,0,362.48,44.91Z"/><path d="M417.28,41c-.21-1.41-.44-2.8-.73-4.19a35.5,35.5,0,0,0-1-4.09,14.41,14.41,0,0,0-1.72-3.81,3.92,3.92,0,0,0-3.43-2,3.18,3.18,0,0,1,2.11.32,5.15,5.15,0,0,1,1.63,1.45A13.34,13.34,0,0,1,416,32.57a30.43,30.43,0,0,1,1.3,8.44Z"/><path d="M368.94,40.73a30.7,30.7,0,0,1,.05-4.18,27.75,27.75,0,0,1,.64-4.15,12.61,12.61,0,0,1,1.6-3.92A5,5,0,0,1,372.77,27a3,3,0,0,1,2.06-.32,3.61,3.61,0,0,0-3.28,2,13.54,13.54,0,0,0-1.43,3.82,35.27,35.27,0,0,0-.75,4.08C369.19,38,369.06,39.34,368.94,40.73Z"/><path d="M390.45,59.5c.17-2.17.29-4.35.26-6.52a14.21,14.21,0,0,0-.31-3.21,9.21,9.21,0,0,0-1.67-2.72,6.78,6.78,0,0,1-1.47-3,7.27,7.27,0,0,1,0-1.68,16.05,16.05,0,0,1,.19-1.65,2.6,2.6,0,0,1,.28-.84,1.49,1.49,0,0,1,.71-.61,9.42,9.42,0,0,1,1.64-.42,10,10,0,0,1,1.66-.19,3,3,0,0,1,.88.08,1.21,1.21,0,0,1,.46.22.76.76,0,0,1,.27.53h-.5a.78.78,0,0,1,.25-.52,1.14,1.14,0,0,1,.46-.24,3,3,0,0,1,.88-.07,10.8,10.8,0,0,1,1.64.22,6.66,6.66,0,0,1,1.63.48,1.48,1.48,0,0,1,.62.69,4.07,4.07,0,0,1,.23.84c.08.55.12,1.09.16,1.63a5.87,5.87,0,0,1,0,1.67,7.05,7.05,0,0,1-1.51,2.94,8.68,8.68,0,0,0-1.62,2.71,16,16,0,0,0-.29,3.18c0,2.16.09,4.32.26,6.47-.25-2.15-.45-4.3-.5-6.47a15.61,15.61,0,0,1,.23-3.26,8.88,8.88,0,0,1,1.62-2.86,6.92,6.92,0,0,0,1.39-2.79,5.34,5.34,0,0,0,0-1.55c0-.54-.09-1.08-.17-1.6a1.53,1.53,0,0,0-.63-1.2,5.9,5.9,0,0,0-1.49-.41,10.57,10.57,0,0,0-1.56-.2c-.5,0-1.1.07-1.08.37h-.5c0-.28-.61-.4-1.1-.38a9.56,9.56,0,0,0-1.59.18,8.78,8.78,0,0,0-1.53.37,1.28,1.28,0,0,0-.74,1.12c-.1.51-.14,1.06-.19,1.6a6.43,6.43,0,0,0,0,1.58A6.82,6.82,0,0,0,389,46.83a9.57,9.57,0,0,1,1.66,2.86A14,14,0,0,1,391,53C390.9,55.16,390.7,57.33,390.45,59.5Z"/><path class="cls-1" d="M397.71,24.92a7.49,7.49,0,0,1-.38,1.87c-.28.93-.31,2.36-1.31,2.53-.84.14-1.95.53-2.44-.11a1.59,1.59,0,0,1-.22-.75h0c0-.39,0-.83,0-1.21h0c0-.24,0-.45,0-.61a8.61,8.61,0,0,1,.17-2.38.66.66,0,0,1,.18-.35.72.72,0,0,1,.48-.14h.16l2-.1h.08a1.4,1.4,0,0,1,.84.16.88.88,0,0,1,.34.46A1.82,1.82,0,0,1,397.71,24.92Z"/><path class="cls-1" d="M397.63,24.26a10.14,10.14,0,0,1,2.64,0,.82.82,0,0,1,.59.23.89.89,0,0,1,.15.6,12.5,12.5,0,0,1-1,4.64"/><path class="cls-1" d="M401.29,29.56a14.23,14.23,0,0,0-.12-2.61,4.84,4.84,0,0,1-.15-1.31,1.3,1.3,0,0,1,.62-1.09,1.83,1.83,0,0,1,.93-.14,1.16,1.16,0,0,1,.52.08,1.21,1.21,0,0,1,.56.92,7.21,7.21,0,0,1-.28,4"/><path class="cls-1" d="M403.58,25.17a5.82,5.82,0,0,1,1.44-.1,1.94,1.94,0,0,1,1.28.57,3,3,0,0,1,.4,2.41,4.32,4.32,0,0,1-.38,1.46"/><path class="cls-1" d="M406.42,25.57a1.87,1.87,0,0,1,1.34.92A3.22,3.22,0,0,1,408,29.4"/><path class="cls-1" d="M408,26.78a2.41,2.41,0,0,1,1.59-.2,1.37,1.37,0,0,1,.79,1.1,4,4,0,0,1-.09,1.41"/><path class="cls-1" d="M410.08,27H411a.45.45,0,0,1,.23,0,.47.47,0,0,1,.2.26,2.82,2.82,0,0,1,.1,1.77"/><path class="cls-1" d="M410.37,22.6a6.24,6.24,0,0,1-.3,2.84,1.25,1.25,0,0,0-.12.46.83.83,0,0,0,.64.71A4.22,4.22,0,0,0,412,26.5"/><path class="cls-1" d="M410,26.22a3.82,3.82,0,0,1-1.58,0,1.36,1.36,0,0,1-1-1.11,2.62,2.62,0,0,1,.46-1.31,1.21,1.21,0,0,0,0-1.32"/><path class="cls-1" d="M407.12,25.25c-.47.1-1.06.16-1.36-.22a1.48,1.48,0,0,1-.09-1.14,3.73,3.73,0,0,0-1-3.21"/><path class="cls-1" d="M402.94,24.07h0c-.45-.12-.63.05-1.1.07a1.24,1.24,0,0,1-1.22-.54,1.75,1.75,0,0,1-.07-.79,4.48,4.48,0,0,0-.81-2.65,1,1,0,0,1-.25-.58c0-.4.6-.52,1-.38A3.32,3.32,0,0,1,402,20.68a4.56,4.56,0,0,1,1,2.42,4,4,0,0,0,0,1,.67.67,0,0,0,.13.3c.3.43.92.41,1.44.35l1.11-.13"/><path class="cls-1" d="M397.26,18.9a3.41,3.41,0,0,1,2.3,1.78,10,10,0,0,1,1,2.94,9.23,9.23,0,0,1-3,.16.75.75,0,0,1-.44-.12.62.62,0,0,1-.16-.59c0-.21.13-.4.16-.61a1.71,1.71,0,0,0-.39-1.15,6.33,6.33,0,0,1-.68-1,1.1,1.1,0,0,1,.14-1.16.81.81,0,0,1,.43-.22,1.46,1.46,0,0,1,.55,0l.1,0"/><path class="cls-1" d="M395.94,19.4a2.45,2.45,0,0,0-.75-.46,1.36,1.36,0,0,0-1.1.08,1.43,1.43,0,0,0-.59,1,6.74,6.74,0,0,0,0,1.19,3.36,3.36,0,0,0,.3,2.05,1.74,1.74,0,0,0,1.5.65,4.35,4.35,0,0,0,1.64-.47"/><path class="cls-1" d="M390.54,23.71a1.25,1.25,0,0,1-.81-.14,1.31,1.31,0,0,1-.42-1.05,3.46,3.46,0,0,1,1.25-3.11,1.46,1.46,0,0,1,.92-.27c.68.07,1.13.76,1.32,1.41a4.63,4.63,0,0,1,0,2.66A5.13,5.13,0,0,1,390.54,23.71Z"/><path class="cls-1" d="M390.11,19.72c-.44.08-.77-.36-1.18-.52a1.3,1.3,0,0,0-1.22.23,3,3,0,0,0-.8,1,7.39,7.39,0,0,0-.54,1.18,2.26,2.26,0,0,0,0,1.87,1.71,1.71,0,0,0,1.61.75,2.46,2.46,0,0,0,1.57-.61"/><path class="cls-1" d="M387.17,19.74c-.51,0-1-.45-1.48-.31a1.3,1.3,0,0,0-.46.28,5,5,0,0,0-1.63,2.94,2,2,0,0,0,.2,1.4,1.41,1.41,0,0,0,1.51.49c.54-.16.86-.3,1.07-.82"/><path class="cls-1" d="M384.33,20.66a2.36,2.36,0,0,0-2.13-.29,2.16,2.16,0,0,0-.84,1.21c-.13.35-.24.7-.34,1.06a1.87,1.87,0,0,0,.09,1.67,1.35,1.35,0,0,0,1.41.35,3.37,3.37,0,0,0,1.28-.61"/><path class="cls-1" d="M381.11,24.31a1.24,1.24,0,0,1-1,.6,3.14,3.14,0,0,1-1.06-.06l-.28-.07a1.29,1.29,0,0,1-.7-.37,1.22,1.22,0,0,1,0-1.24A3.69,3.69,0,0,1,378.9,22a2.38,2.38,0,0,1,.45-.38,2.27,2.27,0,0,1,1.92-.32"/><path class="cls-1" d="M378.9,22a2.82,2.82,0,0,0-2.15.69,2.59,2.59,0,0,0-1,2.35,1.28,1.28,0,0,0,.3.68,1.06,1.06,0,0,0,.76.32,1.3,1.3,0,0,0,.44-.05,1.85,1.85,0,0,0,.42-.17,4.61,4.61,0,0,0,.72-.46l.7-.51h0"/><path class="cls-1" d="M393.36,28.46v.1c-.09.53.18.66-.26,1a1.22,1.22,0,0,1-.36.15,3.62,3.62,0,0,1-1.19,0,2.12,2.12,0,0,1-.6-.14c-.51-.22-.78-1.13-1.06-1.61a11.78,11.78,0,0,1-.69-1.43,7.76,7.76,0,0,1-.33-1,1.92,1.92,0,0,1-.1-.85.66.66,0,0,1,.12-.27,1.35,1.35,0,0,1,.81-.44,8.76,8.76,0,0,1,2-.23,1.11,1.11,0,0,1,1.37,1,15.26,15.26,0,0,1,.31,2.42h0c0,.41,0,.81,0,1.21h0"/><path class="cls-1" d="M390.2,29.73a19.17,19.17,0,0,1-1-3.21c-.11-.5-.21-1-.29-1.43a.82.82,0,0,0-.13-.38h0a.73.73,0,0,0-.62-.22,8.4,8.4,0,0,0-1.42.09,2.47,2.47,0,0,0-1.18.47,1,1,0,0,0-.32.47,1.86,1.86,0,0,0,.12,1.11c.12.39.25.79.37,1.19.18.55.49,1.63,1,1.91a.65.65,0,0,0,.39.11,1.57,1.57,0,0,0,.32,0,4.57,4.57,0,0,0,1.05-.05h0c.16,0,.39.13.47,0"/><path class="cls-1" d="M386.38,29.85c-.7,0-1.57,0-2.27,0a1.28,1.28,0,0,1-.55-.21c-.19-.09-.35-.51-.46-.69a3.33,3.33,0,0,1-.5-2.42,2.07,2.07,0,0,1,.53-1.09,2.68,2.68,0,0,1,.73-.47A2.4,2.4,0,0,1,385,24.6c.41,0,.53,0,.55.44"/><path class="cls-1" d="M380.24,25.65c-.41-.19-.69,0-1.07.24a2.85,2.85,0,0,0-.91,1,2.1,2.1,0,0,0-.29.58,2.86,2.86,0,0,0,.78,2.29"/><path class="cls-1" d="M376.87,29.52h0a1.87,1.87,0,0,1-.91-1.45,3,3,0,0,1,.59-1.71,1.13,1.13,0,0,1,.26-.31.79.79,0,0,1,.15-.12,1.1,1.1,0,0,1,.71-.1,4,4,0,0,1,1,.31"/><path class="cls-1" d="M382.8,25.76a2.56,2.56,0,0,0-1.1-.67,1.33,1.33,0,0,0-1.22.25,2.05,2.05,0,0,0-.48,1.49,5.77,5.77,0,0,0,.14,1.76A2.26,2.26,0,0,0,381,30"/><path d="M419.09,53c-.1,3.16-.52,6.75-3.1,8.59a10.61,10.61,0,0,1-3.48,1.4,51.35,51.35,0,0,1-7.83,1.71c-3.6.16-6.4-1.19-7.84-4.49a7.59,7.59,0,0,1,.17-6,13.05,13.05,0,0,1,3.84-4.77A20.61,20.61,0,0,1,408,45.67a11.87,11.87,0,0,1,6.08-.39,6.49,6.49,0,0,1,4.6,3.74A9.87,9.87,0,0,1,419.09,53Z"/><path d="M389.12,60.21c-1.44,3.3-4.24,4.65-7.84,4.49A51.35,51.35,0,0,1,373.45,63a10.61,10.61,0,0,1-3.48-1.4c-2.58-1.84-3-5.43-3.1-8.59a9.87,9.87,0,0,1,.42-4,6.49,6.49,0,0,1,4.6-3.74,11.92,11.92,0,0,1,6.09.39,20.65,20.65,0,0,1,7.13,3.77A13.05,13.05,0,0,1,389,54.21,7.59,7.59,0,0,1,389.12,60.21Z"/><path class="cls-1" d="M425.55,53.18c-1.35.51-2,2-2.4,3.4A40.91,40.91,0,0,0,423,79.71"/><path class="cls-1" d="M361.36,53.91a42.61,42.61,0,0,1,4,9.74,21.26,21.26,0,0,1-2.92,16.07"/><path class="cls-1" d="M400.8,67A14.76,14.76,0,0,0,412,68.36a23.05,23.05,0,0,0,9.91-5.8"/><path d="M385,68.17a21.92,21.92,0,0,1-18.82-5,27.6,27.6,0,0,0,18.82,5Z"/><path class="cls-1" d="M421.15,63.59a13.65,13.65,0,0,0-5.46,11.75"/><path class="cls-1" d="M366.07,63.57a17.6,17.6,0,0,1,6.05,12.56"/><path d="M417.39,41.28a37.3,37.3,0,0,0-5-19.49,27.91,27.91,0,0,1,5,19.49Z"/><path d="M369.09,40.78c-.2-1.74-.34-3.48-.37-5.23a28.08,28.08,0,0,1,.35-5.26,18.54,18.54,0,0,1,1.62-5,21.07,21.07,0,0,1,2.9-4.38A29,29,0,0,0,371,25.43a19.89,19.89,0,0,0-1.48,4.95A60,60,0,0,0,369.09,40.78Z"/><path class="cls-1" d="M412.05,26.46A3.74,3.74,0,0,0,411,22.58a7.37,7.37,0,0,0-2.64-1.28L404,19.89a20.43,20.43,0,0,0-2.85-.79c-2.6-.46-5.32.09-7.89-.5"/><path class="cls-1" d="M393.21,18.61l-6,0a17.41,17.41,0,0,0-2.8.18,15.43,15.43,0,0,0-2.72.81c-2.6,1-3.24,2-5.78,3.1"/><path class="cls-1" d="M412.47,27.11a.9.9,0,0,1,.24.45,1.53,1.53,0,0,1-.64,1.54,4,4,0,0,1-2.23.49l-7.84.18a15.87,15.87,0,0,1-1.95,0,7.19,7.19,0,0,1-.91-.15,6.35,6.35,0,0,0-1.28-.27,5.56,5.56,0,0,0-1,.11,19.72,19.72,0,0,1-2.66.2l-1.47.05-1.19,0-2.55.09h-.52l-1.37,0L382.2,30,381,30a10.11,10.11,0,0,1-1.23,0c-.68-.06-1.34-.18-2-.3l-.9-.16h0l-.18,0"/><path class="cls-1" d="M375.87,22.74c-.88.85-1.77,1.15-1.39,2.31a6.08,6.08,0,0,1,.35,1.07,2.18,2.18,0,0,1,0,.57c0,.31-.09.62-.09.93,0,.5,1.56,1.74,2.09,1.89h0"/><path class="cls-1" d="M496.49,52.58s6.92-16.94,1.2-29.12A36.15,36.15,0,0,0,486.27,9.78c-1-.73-2-1.37-2.91-1.94A34.26,34.26,0,0,0,476,4.39c-.48-.15-1-.28-1.43-.4a40.1,40.1,0,0,0-9.64-1.12h-.08l.25,0"/><path class="cls-1" d="M465.08,2.89h0l-.17,0h-.12a35.47,35.47,0,0,0-11.64,1.53A31.09,31.09,0,0,0,447,7.05a39.48,39.48,0,0,0-7.06,5,36.19,36.19,0,0,0-5.9,6.73,33.45,33.45,0,0,0-1.8,3c-.3.55-.58,1.11-.85,1.68-5.73,12.18,1.2,29.12,1.2,29.12"/><path d="M447.89,74.13a1.22,1.22,0,0,1-.91-.57,3.69,3.69,0,0,1-.5-1,8.08,8.08,0,0,1-.41-2.18,8.44,8.44,0,0,0-1.15-4.13,15.45,15.45,0,0,0-2.6-3.46,4,4,0,0,0-1.71-1.14,4.4,4.4,0,0,0-2.07,0c-.7.14-1.39.39-2.14.54a3.74,3.74,0,0,1-1.17.08,2.77,2.77,0,0,1-1.11-.43,17.79,17.79,0,0,1-3.24-3.06c-.49-.55-1-1.11-1.46-1.63a1.54,1.54,0,0,1-.44-1.13A2,2,0,0,1,429.4,55a4,4,0,0,1,1.84-1.27A10.22,10.22,0,0,0,433,52.43l.05,0c-.06,0,0,0,.06-.06l.1-.1.22-.18h0s0,0,0,0l0-.05,1.73-1.58-1.65,1.67,0,0s0,0,0,.06h0l-.2.19-.11.1c-.05,0,0,0-.15.11l.05,0a10.57,10.57,0,0,1-1.75,1.37,3.68,3.68,0,0,0-1.71,1.23,1.33,1.33,0,0,0,0,1.78c.53.52,1,1.07,1.51,1.61a17.22,17.22,0,0,0,3.17,2.94,2.16,2.16,0,0,0,.92.36,3.2,3.2,0,0,0,1-.09c.7-.15,1.4-.38,2.14-.52a4.79,4.79,0,0,1,2.29,0,4.43,4.43,0,0,1,1.9,1.27,14.28,14.28,0,0,1,2.61,3.61,8.63,8.63,0,0,1,1.05,4.29,8.15,8.15,0,0,0,.3,2.15,3.52,3.52,0,0,0,.44,1A1.16,1.16,0,0,0,447.89,74.13Z"/><path d="M494,50.46a23.64,23.64,0,0,0,3.6,3,11.62,11.62,0,0,0,1.06.52,3.43,3.43,0,0,1,1,.78,2.25,2.25,0,0,1,.52,1.15,1.59,1.59,0,0,1-.43,1.23c-1.06,1.15-2.05,2.4-3.21,3.51a7,7,0,0,1-2,1.45,3.78,3.78,0,0,1-2.47-.1,11.84,11.84,0,0,0-2.27-.49,3,3,0,0,0-2.08.56,13.44,13.44,0,0,0-3,3.54A9.08,9.08,0,0,0,483.23,70a9.08,9.08,0,0,1-.37,2.37,3.93,3.93,0,0,1-.5,1.08,1.25,1.25,0,0,1-.95.64,1.21,1.21,0,0,0,.9-.67,4.3,4.3,0,0,0,.44-1.09A9.14,9.14,0,0,0,483,70a9.31,9.31,0,0,1,1.37-4.56,13.28,13.28,0,0,1,3.05-3.71,3.45,3.45,0,0,1,2.39-.68,12.15,12.15,0,0,1,2.37.49,3.39,3.39,0,0,0,2.16.14,6.87,6.87,0,0,0,1.84-1.34c1.14-1.07,2.12-2.31,3.24-3.45a1.16,1.16,0,0,0,.36-.93,1.9,1.9,0,0,0-.42-1,3,3,0,0,0-.85-.74,10.67,10.67,0,0,1-1.05-.55A23.83,23.83,0,0,1,494,50.46Z"/><path d="M495.49,61.12a6.5,6.5,0,0,1-.85,1.76c-.37.54-.83,1-1.25,1.51A8.76,8.76,0,0,0,492.3,66a6.53,6.53,0,0,0-.77,1.78,11.42,11.42,0,0,0-.07,3.87l.49,3.89h0a15.9,15.9,0,0,1-.12,3.31l-.34,3.27c-.24,2.18-.48,4.36-.92,6.52a13.27,13.27,0,0,1-1,3.17,3.35,3.35,0,0,1-1.12,1.31,1.73,1.73,0,0,1-.87.22,2.81,2.81,0,0,0-.77.11,6.82,6.82,0,0,0-2.55,1.86c-.74.77-1.42,1.67-2.26,2.4a23.87,23.87,0,0,1-5.47,3.71,31.63,31.63,0,0,1-6.19,2.33,3.71,3.71,0,0,1-1.72.08,11.11,11.11,0,0,1-1.63-.41c-.53-.18-1.05-.37-1.56-.59l-.76-.33a.9.9,0,0,0-.64-.16,6.16,6.16,0,0,0-1.4.68,5.79,5.79,0,0,1-4.92.55,16.71,16.71,0,0,1-3.14-1.1,10.54,10.54,0,0,1-1.46-.83c-.47-.34-.86-.7-1.29-1l-5.06-4.2c-1.68-1.4-3.36-2.82-5-4.25-.83-.72-1.66-1.44-2.46-2.19l-.6-.58a2.66,2.66,0,0,1-.48-.72,7.23,7.23,0,0,1-.5-1.6,17.4,17.4,0,0,1-.33-3.29l-.09-3.3c0-2.19.08-4.38.14-6.57.06-1.1,0-2.19,0-3.28a10.37,10.37,0,0,0-.44-3.23,18.89,18.89,0,0,0-3-5.83,19,19,0,0,1,3.06,5.8,10.55,10.55,0,0,1,.5,3.25c0,1.09.07,2.2,0,3.29-.05,4.37-.3,8.79.37,13.09a6.64,6.64,0,0,0,.48,1.53,2.37,2.37,0,0,0,.42.64l.59.56c.81.74,1.64,1.45,2.47,2.17,1.66,1.42,3.35,2.82,5,4.22l5.09,4.17a12.45,12.45,0,0,0,5.72,2.86,6.44,6.44,0,0,0,3.14.1,6.85,6.85,0,0,0,1.45-.63,5.57,5.57,0,0,1,1.55-.74,1.39,1.39,0,0,1,.93.19l.75.33c.49.21,1,.4,1.51.57a5.37,5.37,0,0,0,3.09.35,27.82,27.82,0,0,0,11.5-5.88c1.61-1.4,2.76-3.49,5-4.32.57-.19,1.17,0,1.56-.28a3.26,3.26,0,0,0,1-1.17,13.18,13.18,0,0,0,1-3.08c.45-2.13.71-4.31.95-6.48l.37-3.27a16.18,16.18,0,0,0,.13-3.26h0l-.43-3.89a11.47,11.47,0,0,1,.14-3.92,6.5,6.5,0,0,1,.81-1.8,8.51,8.51,0,0,1,1.12-1.6c.43-.5.9-1,1.28-1.49A6.45,6.45,0,0,0,495.49,61.12Z"/><path d="M440.68,65c.21,1.41.45,2.81.73,4.19a36.24,36.24,0,0,0,1,4.1,14.18,14.18,0,0,0,1.72,3.8,3.89,3.89,0,0,0,3.42,2,3.18,3.18,0,0,1-2.11-.32,5.36,5.36,0,0,1-1.63-1.44A13.66,13.66,0,0,1,442,73.45a28.71,28.71,0,0,1-1-4.18A31.92,31.92,0,0,1,440.68,65Z"/><path d="M489,65.29a29.3,29.3,0,0,1,0,4.19,28,28,0,0,1-.64,4.15,12.88,12.88,0,0,1-1.59,3.91A5,5,0,0,1,485.2,79a3.07,3.07,0,0,1-2.07.32,3.59,3.59,0,0,0,3.28-2,13.45,13.45,0,0,0,1.44-3.82,34.69,34.69,0,0,0,.74-4.07C488.77,68.06,488.91,66.68,489,65.29Z"/><path d="M467.52,46.52a64.69,64.69,0,0,0-.26,6.53,14.18,14.18,0,0,0,.31,3.2A9.17,9.17,0,0,0,469.23,59a6.9,6.9,0,0,1,1.48,3,7.26,7.26,0,0,1,0,1.68,16,16,0,0,1-.18,1.65,2.68,2.68,0,0,1-.28.84,1.55,1.55,0,0,1-.72.62,9.27,9.27,0,0,1-1.63.41,11.57,11.57,0,0,1-1.66.2,3.33,3.33,0,0,1-.88-.09,1.21,1.21,0,0,1-.46-.22.74.74,0,0,1-.28-.53h.5a.78.78,0,0,1-.25.53,1.05,1.05,0,0,1-.46.23,3,3,0,0,1-.88.07,11.15,11.15,0,0,1-1.64-.22,6.43,6.43,0,0,1-1.62-.47,1.47,1.47,0,0,1-.63-.7,3.72,3.72,0,0,1-.22-.84c-.09-.55-.12-1.09-.16-1.63a5.52,5.52,0,0,1,0-1.67,7.17,7.17,0,0,1,1.51-2.94,8.56,8.56,0,0,0,1.62-2.7,14.74,14.74,0,0,0,.29-3.19c0-2.15-.08-4.31-.26-6.47.25,2.15.45,4.3.5,6.47a15,15,0,0,1-.22,3.26,9.26,9.26,0,0,1-1.62,2.86,6.94,6.94,0,0,0-1.4,2.79,5.42,5.42,0,0,0,0,1.56c0,.53.08,1.07.16,1.59a1.51,1.51,0,0,0,.64,1.2,5.71,5.71,0,0,0,1.48.41,9.37,9.37,0,0,0,1.57.2c.49,0,1.1-.07,1.07-.37h.5c0,.28.62.4,1.11.38a9.56,9.56,0,0,0,1.58-.18,8.56,8.56,0,0,0,1.53-.37,1.3,1.3,0,0,0,.75-1.12c.09-.51.13-1,.18-1.59a6.44,6.44,0,0,0,0-1.58,6.57,6.57,0,0,0-1.35-2.83,9.7,9.7,0,0,1-1.66-2.86,14.09,14.09,0,0,1-.25-3.29A64.77,64.77,0,0,1,467.52,46.52Z"/><path class="cls-1" d="M464.6,79.41a8.6,8.6,0,0,1-.16,2.38.73.73,0,0,1-.18.35.8.8,0,0,1-.48.14h-.16l-2,.09h-.06a1.36,1.36,0,0,1-.87-.15.91.91,0,0,1-.33-.46,1.82,1.82,0,0,1-.08-.66,7.49,7.49,0,0,1,.38-1.87c.28-.93.31-2.36,1.31-2.53.83-.14,1.95-.53,2.44.11a1.51,1.51,0,0,1,.21.65,8.81,8.81,0,0,1,0,1.26v0C464.61,79,464.6,79.24,464.6,79.41Z"/><path class="cls-1" d="M457.92,76.3a12.5,12.5,0,0,0-1,4.64.88.88,0,0,0,.14.6.86.86,0,0,0,.6.23,10.14,10.14,0,0,0,2.64,0"/><path class="cls-1" d="M456.68,76.46a13.5,13.5,0,0,0,.12,2.62,5.19,5.19,0,0,1,.15,1.3,1.36,1.36,0,0,1-.63,1.1,2,2,0,0,1-.92.14,1.59,1.59,0,0,1-.53-.08,1.25,1.25,0,0,1-.56-.92,7.25,7.25,0,0,1,.28-4"/><path class="cls-1" d="M454.38,80.85A5.28,5.28,0,0,1,453,81a2,2,0,0,1-1.29-.57,3,3,0,0,1-.4-2.41,4.2,4.2,0,0,1,.38-1.45"/><path class="cls-1" d="M451.54,80.45a1.84,1.84,0,0,1-1.33-.91,3.18,3.18,0,0,1-.27-2.92"/><path class="cls-1" d="M449.94,79.24a2.48,2.48,0,0,1-1.59.21,1.4,1.4,0,0,1-.8-1.1,4.26,4.26,0,0,1,.09-1.42"/><path class="cls-1" d="M447.89,79.05H447a.49.49,0,0,1-.24,0,.46.46,0,0,1-.19-.26,2.75,2.75,0,0,1-.11-1.77"/><path class="cls-1" d="M447.6,83.43a6.08,6.08,0,0,1,.3-2.84,1.6,1.6,0,0,0,.11-.47.83.83,0,0,0-.63-.71,4.5,4.5,0,0,0-1.36.11"/><path class="cls-1" d="M448,79.8a4,4,0,0,1,1.59,0,1.4,1.4,0,0,1,1,1.11,2.79,2.79,0,0,1-.46,1.31,1.17,1.17,0,0,0,0,1.32"/><path class="cls-1" d="M450.85,80.77c.47-.1,1-.16,1.35.22a1.56,1.56,0,0,1,.1,1.15,3.72,3.72,0,0,0,1,3.21"/><path class="cls-1" d="M455,82c.46.12.64,0,1.11-.07a1.21,1.21,0,0,1,1.21.54,1.74,1.74,0,0,1,.08.79,4.48,4.48,0,0,0,.81,2.65.91.91,0,0,1,.24.57c0,.41-.59.53-1,.39a3.35,3.35,0,0,1-1.5-1.48,4.56,4.56,0,0,1-1-2.42,3.93,3.93,0,0,0,0-1,.79.79,0,0,0-.12-.3c-.3-.43-.92-.41-1.44-.35l-1.12.12"/><path class="cls-1" d="M460.71,87.13a3.47,3.47,0,0,1-2.31-1.78,10.33,10.33,0,0,1-.95-2.94,9.21,9.21,0,0,1,3-.16.68.68,0,0,1,.44.12A.61.61,0,0,1,461,83c0,.21-.13.41-.15.62a1.75,1.75,0,0,0,.38,1.15,5,5,0,0,1,.68,1,1.08,1.08,0,0,1-.13,1.16.81.81,0,0,1-.43.22,1.51,1.51,0,0,1-.56,0l-.09,0"/><path class="cls-1" d="M462,86.62a2.29,2.29,0,0,0,.74.46,1.32,1.32,0,0,0,1.1-.08,1.42,1.42,0,0,0,.6-1,8,8,0,0,0,0-1.2,3.45,3.45,0,0,0-.3-2,1.78,1.78,0,0,0-1.51-.65,4.49,4.49,0,0,0-1.63.47"/><path class="cls-1" d="M467.43,82.32a1.25,1.25,0,0,1,.81.14,1.31,1.31,0,0,1,.42,1.05,3.46,3.46,0,0,1-1.25,3.11,1.47,1.47,0,0,1-.93.27c-.68-.07-1.12-.76-1.31-1.42a4.6,4.6,0,0,1,0-2.65A5.13,5.13,0,0,1,467.43,82.32Z"/><path class="cls-1" d="M467.86,86.3c.43-.07.77.36,1.17.52a1.33,1.33,0,0,0,1.23-.22,3.25,3.25,0,0,0,.79-1,7.09,7.09,0,0,0,.55-1.19,2.29,2.29,0,0,0,0-1.87,1.71,1.71,0,0,0-1.62-.74,2.43,2.43,0,0,0-1.57.6"/><path class="cls-1" d="M470.8,86.28c.51,0,1,.45,1.47.31a1.14,1.14,0,0,0,.46-.28,5,5,0,0,0,1.63-2.94,1.86,1.86,0,0,0-.2-1.39,1.36,1.36,0,0,0-1.5-.49c-.54.16-.86.29-1.07.82"/><path class="cls-1" d="M473.63,85.36a2.38,2.38,0,0,0,2.14.3,2.21,2.21,0,0,0,.83-1.22c.13-.35.25-.7.35-1.06a1.88,1.88,0,0,0-.09-1.66,1.31,1.31,0,0,0-1.41-.35,3.41,3.41,0,0,0-1.29.61"/><path class="cls-1" d="M476.86,81.72a1.24,1.24,0,0,1,1-.6,2.8,2.8,0,0,1,1,.06l.3.07a1,1,0,0,1,.68,1.61,3.87,3.87,0,0,1-.78,1.17,3.23,3.23,0,0,1-.45.38,2.3,2.3,0,0,1-1.92.32"/><path class="cls-1" d="M479.07,84a2.78,2.78,0,0,0,2.14-.69,2.6,2.6,0,0,0,1-2.36,1.28,1.28,0,0,0-.3-.67,1,1,0,0,0-.76-.31,1.15,1.15,0,0,0-.45,0,1.62,1.62,0,0,0-.41.17,4.61,4.61,0,0,0-.72.46l-.72.51"/><path class="cls-1" d="M464.61,78.73c0-.42,0-.84,0-1.26s-.17-.66.27-1a1.22,1.22,0,0,1,.36-.15,3.62,3.62,0,0,1,1.19,0,2.12,2.12,0,0,1,.6.14c.51.22.78,1.13,1.05,1.61a9.31,9.31,0,0,1,.69,1.42c.13.32.24.64.34,1a1.73,1.73,0,0,1,.09.84h0a.83.83,0,0,1-.12.27,1.24,1.24,0,0,1-.8.43,8.25,8.25,0,0,1-2,.24,1.11,1.11,0,0,1-1.36-1,17.26,17.26,0,0,1-.32-2.46v0"/><path class="cls-1" d="M467.77,76.3a18.18,18.18,0,0,1,1,3.2c.12.5.21,1,.29,1.44a.84.84,0,0,0,.14.37h0a.82.82,0,0,0,.63.22,8.4,8.4,0,0,0,1.42-.09,2.47,2.47,0,0,0,1.18-.47,1,1,0,0,0,.32-.47,1.94,1.94,0,0,0-.12-1.11c-.13-.39-.25-.79-.38-1.19s-.48-1.63-1-1.91a.59.59,0,0,0-.39-.11,1.57,1.57,0,0,0-.32,0,4.57,4.57,0,0,0-1.05,0h-.05c-.17,0-.39-.13-.47,0"/><path class="cls-1" d="M471.59,76.17c.7,0,1.56,0,2.26,0a1.53,1.53,0,0,1,.55.21c.2.09.35.51.47.69a3.28,3.28,0,0,1,.49,2.42,2,2,0,0,1-.53,1.1,3,3,0,0,1-.72.46,2.4,2.4,0,0,1-1.15.37c-.41,0-.52,0-.55-.44"/><path class="cls-1" d="M477.73,80.38c.41.18.68,0,1.07-.24a3,3,0,0,0,.91-1,2.39,2.39,0,0,0,.28-.58,2.84,2.84,0,0,0-.78-2.29"/><path class="cls-1" d="M481.1,76.51l0,0A1.87,1.87,0,0,1,482,78a3.2,3.2,0,0,1-.59,1.71,1.65,1.65,0,0,1-.26.32l-.15.11a1.11,1.11,0,0,1-.71.1,3.85,3.85,0,0,1-1-.31"/><path class="cls-1" d="M475.16,80.26a2.62,2.62,0,0,0,1.1.67,1.36,1.36,0,0,0,1.23-.25,2,2,0,0,0,.48-1.49,6.11,6.11,0,0,0-.15-1.76A2.2,2.2,0,0,0,477,76"/><path d="M461,51.82a13.15,13.15,0,0,1-3.84,4.77A20.61,20.61,0,0,1,450,60.36a12,12,0,0,1-6.08.39A6.5,6.5,0,0,1,439.29,57a10,10,0,0,1-.41-4c.1-3.16.52-6.76,3.09-8.59a10.78,10.78,0,0,1,3.48-1.4,51.73,51.73,0,0,1,7.84-1.71c3.59-.16,6.4,1.19,7.84,4.49A7.59,7.59,0,0,1,461,51.82Z"/><path d="M490.68,57a6.5,6.5,0,0,1-4.6,3.74,12,12,0,0,1-6.09-.39,20.7,20.7,0,0,1-7.14-3.77A13.13,13.13,0,0,1,469,51.82a7.64,7.64,0,0,1-.18-6c1.44-3.3,4.25-4.65,7.84-4.49A51.47,51.47,0,0,1,484.52,43a10.61,10.61,0,0,1,3.48,1.4c2.57,1.83,3,5.43,3.1,8.59A10.24,10.24,0,0,1,490.68,57Z"/><path class="cls-1" d="M435,26.32a41.12,41.12,0,0,1-.17,23.13,7,7,0,0,1-1.32,2.65v0a4.4,4.4,0,0,1-.39.35l0,0a2.57,2.57,0,0,1-.65.36"/><path class="cls-1" d="M496.61,52.11a41.72,41.72,0,0,1-4-9.74,21.25,21.25,0,0,1,2.91-16.07"/><path class="cls-1" d="M457.17,39.07A14.72,14.72,0,0,0,446,37.67a22.84,22.84,0,0,0-9.91,5.8"/><path d="M472.94,37.85a22,22,0,0,1,18.83,5,27.65,27.65,0,0,0-18.83-5Z"/><path class="cls-1" d="M436.81,42.44a13.65,13.65,0,0,0,5.46-11.75"/><path class="cls-1" d="M491.89,42.45a17.58,17.58,0,0,1-6.05-12.56"/><path d="M440.57,64.74a37.56,37.56,0,0,0,5,19.49,27.87,27.87,0,0,1-5-19.49Z"/><path d="M488.87,65.24c.2,1.74.34,3.48.38,5.24a29.83,29.83,0,0,1-.35,5.25,19.21,19.21,0,0,1-1.62,5,22.12,22.12,0,0,1-2.9,4.37,29.79,29.79,0,0,0,2.55-4.54,20.38,20.38,0,0,0,1.48-4.94A60.14,60.14,0,0,0,488.87,65.24Z"/><path class="cls-1" d="M445.91,79.57A3.77,3.77,0,0,0,447,83.44a7.25,7.25,0,0,0,2.65,1.28l4.29,1.42a21.86,21.86,0,0,0,2.85.78c2.6.46,5.32-.08,7.9.5"/><path class="cls-1" d="M464.75,87.42l6.05,0a16.28,16.28,0,0,0,2.79-.18,15.18,15.18,0,0,0,2.72-.81c2.61-1,3.24-2,5.79-3.1"/><path class="cls-1" d="M445.5,78.92a1,1,0,0,1-.24-.44,1.54,1.54,0,0,1,.64-1.56,4,4,0,0,1,2.23-.48l7.84-.18a15.87,15.87,0,0,1,1.95,0,7.19,7.19,0,0,1,.91.15,6.94,6.94,0,0,0,1.28.27,5.35,5.35,0,0,0,1-.11,18.35,18.35,0,0,1,2.67-.2l1.47,0,1.19,0,2.55-.09h.52l1.37,0,4.91-.16a19.53,19.53,0,0,1,2.42,0c.68.06,1.34.18,2,.3l.92.18h.08l.12,0"/><path class="cls-1" d="M482.1,83.28c.88-.85,1.77-1.15,1.38-2.3a8.35,8.35,0,0,1-.35-1.07,2.18,2.18,0,0,1,0-.57c0-.31.09-.62.1-.93,0-.48-1.44-1.64-2-1.87l-.1,0"/></g></svg>