<?xml version="1.0" encoding="utf-8"?>
<!-- Generator: Adobe Illustrator 24.0.1, SVG Export Plug-In . SVG Version: 6.00 Build 0)  -->
<svg version="1.1" id="Layer_1" xmlns="http://www.w3.org/2000/svg" xmlns:xlink="http://www.w3.org/1999/xlink" x="0px" y="0px"
	 viewBox="0 0 2000 2000" style="enable-background:new 0 0 2000 2000;" xml:space="preserve">
<style type="text/css">
	.st0{fill:url(#SVGID_1_);stroke:#231F20;stroke-width:4;stroke-miterlimit:10;}
	.st1{opacity:0.5;fill:#FFFFFF;stroke:#231F20;stroke-width:4;stroke-miterlimit:10;enable-background:new    ;}
	.st2{fill:none;stroke:#231F20;stroke-width:4;stroke-miterlimit:10;}
	.st3{fill:#231F20;}
	.st4{font-family:'Poppins-ExtraBold';}
	.st5{font-size:216.0735px;}
	.st6{fill:#FFFFFF;}
	.st7{fill:none;stroke:#231F20;stroke-width:4;}
</style>
<title>stickerart3-01</title>
<g id="Layer_1_1_">
	<g id="Layer_2_1_">
		<linearGradient id="SVGID_1_" gradientUnits="userSpaceOnUse" x1="2.930684e-05" y1="2.7009" x2="2000" y2="2002.7009">
			<stop  offset="0" style="stop-color:#2E3192"/>
			<stop  offset="1" style="stop-color:#ED1C24"/>
		</linearGradient>
		<path class="st0" d="M2000,10V2.7h-6.6h-32.1h-55.4h-1.5h-436.5h-36.5h-32.1h-36.7h-21.6h-34.2h-32.1h-34.8
			c-0.1-1.8-0.2-3.6-0.2-5.4c0.1,1.8,0.1,3.6,0.2,5.4h-236.6h-2H977h-32.1H919h-21.4h-21.2h-32.1h-20.9h-1.9H538.1h-3.3h-10.4h-28
			H482h-25.5h-2.1h-41.3h-22.3H93.2H76.5H53.7H41H18.8H1H0v1.1v19.4v24.2V65v36.5v18.3v474.6v0v36.1v14.3v34.9v12.4V740v103.4v52.7
			v51.1v79v238.9v85.2v31v55.9v24.2v35.1v0.1v506.1h539.9h0.1h36.7h32.1H643h21.6h34.8h32.1h31.5h308.4h26h32.1h26h21.6h29.2h32.1
			h27.6h2.6h315.8h2h31.9h32.1h32.9h21.4h35.5h32.1h34.3h2H2000v-759.2v-0.2v-67.4v-39.3v-53.8v-18.6v-42.9v-18.5v-35.9v0V749.5v-1
			v-33.1v-23v-54.5V608v-81.4V281.8v-75.1v-49.8v-52.8"/>
	</g>
	<path class="st1" d="M2000,10V2.7h-6.6h-32.1h-55.4c24,16,40.9,34.7,42.7,58.8c0,0.8,0.1,1.6,0.1,2.4c0,0.5,0,1,0,1.4
		c0,0.2,0,0.3,0,0.4c0,0.2,0,0.4,0,0.6c-0.5,25-17.2,63.4-38.3,110.5c-38.5,86.2-91.3,201.3-83.7,315.7c0.2,2.4,0.3,4.7,0.5,7.1
		c0,0.5,0.1,1,0.1,1.5c0,0.2,0,0.4,0.1,0.7c0.1,1.2,0.2,2.4,0.4,3.6c0.1,0.8,0.2,1.5,0.2,2.3c0.1,1,0.2,2.1,0.4,3.1
		c0.2,1.5,0.4,3,0.6,4.5c0.2,1.9,0.5,3.8,0.8,5.7c0.2,1.1,0.3,2.2,0.6,3.3c0.3,1.9,0.6,3.8,1,5.7c0.3,1.8,0.7,3.6,1,5.3
		c5.5,26.3,14.7,52.3,28.4,77.7c16.3,30.2,32.8,54,49.5,72.9c28.8,32.7,58.4,50.9,89.6,62.5v-33.1v-23v-54.5V608v-81.4V281.8v-75.1
		v-49.8v-52.8"/>
	<path class="st1" d="M93.2,2.7C70.9,31.4,40.2,70.2,0,119.8V2.7H93.2z"/>
	<path class="st1" d="M762.9,2002.7h-223c-1.2-6.9-2.6-13.9-4.2-21.1c-1.6-7.2-3.4-14.5-5.3-21.9c-0.6-2.2-1.2-4.5-1.8-6.8
		c-1.4-5.4-3-11-4.7-16.5c-1.6-5.6-3.4-11.2-5.2-16.8c-0.7-2.1-1.4-4.2-2.1-6.4c-0.6-1.7-1.1-3.3-1.7-5c-0.6-1.8-1.2-3.6-1.8-5.4
		c-1.2-3.5-2.4-7-3.7-10.4c-4.1-11.3-8.6-22.7-13.3-34.1c-1.1-2.5-2.1-5.1-3.2-7.6c-1.2-2.9-2.5-5.8-3.8-8.8c-1.3-2.9-2.6-5.8-4-8.8
		c-0.6-1.4-1.2-2.8-1.9-4.2c-1.4-2.9-2.8-5.9-4.2-8.8c-2.1-4.4-4.3-8.8-6.5-13.2c-1.4-2.9-2.9-5.8-4.4-8.7c-3-5.8-6-11.6-9.2-17.3
		c-1.4-2.5-2.8-5-4.2-7.6c-7.6-13.5-15.7-26.8-24.2-39.8c-1.5-2.3-3-4.5-4.5-6.8c-2.8-4.3-5.8-8.6-8.8-12.8
		c-1.5-2.1-2.9-4.2-4.4-6.2c-0.4-0.6-0.9-1.3-1.4-1.9c-3.5-4.8-7.1-9.6-10.8-14.3c-1.6-2.1-3.2-4.1-4.8-6.1
		c-5.2-6.6-10.5-13-16-19.2c-1-1.2-2.1-2.5-3.3-3.7c-0.6-0.7-1.2-1.4-1.8-2.1c-1.2-1.4-2.5-2.8-3.7-4.1c-0.1-0.1-0.2-0.2-0.3-0.3
		c-1.7-1.9-3.4-3.7-5.1-5.5c-5.1-5.4-10.3-10.8-15.7-15.9c-1.7-1.7-3.5-3.3-5.2-5c-1.7-1.6-3.5-3.3-5.3-4.9
		c-1.8-1.6-3.5-3.2-5.3-4.8c-2.2-2-4.5-3.9-6.8-5.8c-0.3-0.2-0.5-0.4-0.8-0.6c-2.3-1.9-4.6-3.8-6.9-5.6c-2.1-1.7-4.2-3.4-6.4-5
		c-3.1-2.4-6.3-4.8-9.4-7c-2.2-1.6-4.4-3.1-6.6-4.6c-5.1-3.5-10.2-6.8-15.4-10c-8-4.9-15.8-9.3-23.6-13.4c-1.6-0.8-3.1-1.6-4.6-2.4
		c-1.9-1-3.8-2-5.8-2.9c-9.7-4.8-19.2-9-28.5-12.6c-1.5-0.6-3-1.2-4.5-1.8c-2-0.8-4.1-1.6-6.2-2.3c-5.2-1.9-10.3-3.7-15.3-5.3
		c-2.6-0.8-5.1-1.6-7.6-2.4c-5-1.5-10-2.9-14.9-4.2c-0.6-0.2-1.3-0.3-1.9-0.5c-4.3-1.1-8.6-2.2-12.8-3.1c-2.4-0.6-4.8-1.1-7.2-1.6
		c-0.5-0.1-1-0.2-1.5-0.3c-2-0.4-3.8-0.8-5.7-1.2c-6.7-1.4-13.4-2.6-19.9-3.8c-0.4,0-0.8-0.1-1.2-0.2c-2.6-0.5-5.2-0.9-7.8-1.4
		c-7.8-1.4-15.5-2.6-23-3.9c-31.6-5.2-61.2-10.4-89.6-21.4V594.4c2.5,1.2,5,2.4,7.6,3.6c4.7,2.2,9.4,4.4,14.2,6.6
		c3.2,1.5,6.4,2.9,9.6,4.4c1.6,0.7,3.2,1.4,4.9,2.2c4.8,2.1,9.8,4.3,14.6,6.5c13.2,5.8,26.2,11.7,38.7,17.9
		c10.3,5.1,20.2,10.5,29.2,16.3c1.8,1.2,3.6,2.3,5.3,3.5c1.7,1.2,3.4,2.3,5.1,3.5c1.6,1.2,3.3,2.4,4.8,3.6c0,0,0,0,0,0
		c4.6,3.6,8.8,7.3,12.6,11.2c1,1,1.9,1.9,2.8,2.9c2,2.3,3.9,4.6,5.6,7c0,0,0,0,0,0c1.2,1.6,2.2,3.2,3.2,4.9c1,1.6,2,3.3,2.8,5
		c3.4,6.9,5.5,14.2,6.1,22.1c1,13.4-3.4,31.2-11.2,52.7c-0.9,2.6-1.9,5.3-3,8c-1.5,4.1-3.2,8.2-4.9,12.6c-0.6,1.4-1.2,2.9-1.8,4.3
		c-5.6,13.4-11.9,27.9-18.6,43.3c-1,2.2-1.9,4.4-2.9,6.6c-1.9,4.4-3.9,8.9-5.9,13.4c-1,2.3-2,4.6-3,6.9c-4.2,9.7-8.5,19.7-12.7,29.9
		c-4.6,11.2-9.2,22.6-13.7,34.3c-3,7.8-5.9,15.6-8.7,23.6c-36.2,102-58.3,220-1.2,327.7c3.3,6.2,6.6,12.2,9.9,17.9
		c64.7,111.7,131.8,126.9,210.5,140c2.2,0.4,4.4,0.7,6.6,1.1c1.1,0.2,2.2,0.4,3.4,0.6c5.6,0.9,11.2,1.8,16.9,2.8
		c3.2,0.6,6.5,1.1,9.8,1.7c0.4,0,0.7,0.1,1.1,0.2c3.3,0.6,6.6,1.2,9.9,1.8c2.4,0.4,4.7,0.9,7.1,1.4c4.7,1,9.5,2,14.3,3
		c2.1,0.5,4.2,1,6.4,1.5c5.5,1.3,11,2.7,16.6,4.2c1.8,0.5,3.6,1,5.4,1.5c8.2,2.4,16.5,5,24.9,8c2.2,0.8,4.5,1.6,6.7,2.4
		c22.1,8.4,45.1,19.2,69.2,34c15.6,9.6,30.7,20.6,45.1,32.6c4.8,4,9.5,8.2,14.1,12.4c4.7,4.3,9.2,8.7,13.8,13.2
		c1.7,1.7,3.4,3.4,5,5.1c1.7,1.7,3.4,3.5,5,5.2c3.3,3.5,6.6,7,9.8,10.6c4.3,4.8,8.5,9.7,12.7,14.7c4.2,5,8.2,10,12.2,15.2
		c6,7.7,11.9,15.6,17.5,23.6c5.6,8,11.2,16.2,16.5,24.5c5.4,8.3,10.5,16.7,15.4,25.2c3.3,5.7,6.5,11.4,9.7,17.1
		c6.3,11.4,12.3,23,18,34.7c1.4,2.9,2.8,5.8,4.2,8.8c2.8,5.8,5.4,11.6,8,17.5c0,0,0,0,0,0c2.6,5.8,5.1,11.6,7.5,17.4
		c6,14.6,11.6,29.1,16.6,43.4c2,5.7,3.9,11.4,5.8,17c1.8,5.6,3.5,11.2,5.2,16.8c4.1,13.9,7.7,27.5,10.7,40.7
		c1.2,5.2,2.3,10.4,3.4,15.5c0,0.2,0,0.4,0.1,0.6c2.5,12.6,4.4,24.6,5.8,36.1c0.6,4.6,1,9.2,1.4,13.6
		C763.5,1977.5,763.7,1990.8,762.9,2002.7z"/>
	<path class="st1" d="M2000,966.9v276.6c-25.5-41.5-55.5-80.7-89.6-113.8c-22.5-21.9-46.9-41.2-72.8-56.8
		c-36.2-21.7-70.1-34.9-102-43.9c-127.8-35.7-224.4-2.6-316.9-173.7c-10.1-18.7-17.8-37.8-23.2-56.9c0,0,0,0,0,0
		c-1.4-4.8-2.6-9.6-3.7-14.4c-0.4-1.6-0.7-3.2-1.1-4.8c0,0,0,0,0-0.1c-1-4.6-1.9-9.3-2.6-14c-0.4-2.4-0.7-4.7-1.1-7.1
		c-0.6-4.7-1.2-9.4-1.6-14.1c-0.2-2.6-0.5-5.2-0.6-7.9c-0.7-10.6-1-21.2-0.7-31.7c0.2-7.7,0.6-15.4,1.2-23.1c0-0.4,0-0.9,0.1-1.3
		c0.2-2.5,0.5-4.9,0.7-7.4c0.3-2.6,0.6-5.3,0.9-7.9c0.6-5.3,1.4-10.6,2.2-15.8c0.4-2.5,0.8-5,1.2-7.5c0.9-5.4,2-10.7,3.1-16
		c0.6-2.6,1.1-5.2,1.7-7.8c1.6-7.3,3.4-14.6,5.4-21.8c0.1-0.5,0.2-1,0.4-1.4c0.1-0.4,0.2-0.9,0.4-1.3c0.8-2.8,1.5-5.6,2.3-8.4
		c0.2-0.6,0.3-1.2,0.5-1.8c2.5-8.8,5.2-17.5,8.1-26c2.2-6.6,4.4-13.2,6.8-19.6l3-8.2c1.1-3,2.2-6.1,3.4-9.1
		c1.8-4.8,3.6-9.4,5.5-14.1c0,0,0-0.1,0-0.1c2.8-7,5.6-13.9,8.5-20.7c0.7-1.8,1.5-3.7,2.3-5.5h0c1.1-2.7,2.3-5.4,3.4-8.1
		c0.9-2.2,1.9-4.5,2.9-6.7c0,0,0-0.1,0-0.1c2.8-6.6,5.7-13.1,8.5-19.4c0,0,0-0.1,0-0.1c1.8-4.2,3.7-8.4,5.6-12.5c0,0,0-0.1,0-0.1
		c2.8-6.2,5.5-12.3,8.1-18.2c2.6-6,5.2-11.7,7.7-17.4c5.8-13.2,11-25.5,15.3-36.9c1.2-3.2,2.4-6.4,3.5-9.5c0.4-1.2,0.8-2.3,1.2-3.4
		c0.8-2.4,1.6-4.8,2.3-7.1s1.4-4.6,2-6.8c0.5-1.8,1-3.5,1.4-5.2c0.2-1,0.4-2,0.6-2.9c0.3-1.3,0.5-2.6,0.8-3.8c0.4-2.4,0.8-4.8,1-7.1
		c0.4-3.7,0.5-7.2,0.2-10.4c-0.2-2.5-0.6-5-1.1-7.4c-0.2-0.9-0.4-1.7-0.6-2.6c-0.3-1.4-0.7-2.6-1.2-4c-0.4-1.1-0.8-2.2-1.2-3.2
		c-0.4-1-0.9-2.1-1.4-3.1c-0.5-1-1-2-1.6-3c-1-1.8-2.1-3.6-3.3-5.4c-1.1-1.7-2.3-3.3-3.6-4.9c-1.6-2-3.3-4-5.2-5.9
		c-0.9-1-1.8-1.9-2.8-2.8c-1-1-2-1.9-3-2.8c-0.8-0.8-1.6-1.5-2.5-2.2c-1.5-1.3-3-2.5-4.6-3.8c-1.5-1.2-3-2.3-4.6-3.4
		c-2.9-2.1-6-4.2-9.1-6.2c-1.4-0.9-2.8-1.8-4.2-2.6c-44.2-26.8-107.8-46.3-149.2-72.9h0c-3-2-6-4-8.8-6c-1.5-1.1-3-2.2-4.4-3.3
		c-1.5-1.2-3-2.4-4.4-3.6c-1.7-1.5-3.4-3-4.9-4.5c-1.9-1.8-3.6-3.7-5.2-5.6c-1.6-1.9-3.1-3.9-4.5-5.9c-1.3-1.8-2.5-3.8-3.7-5.8
		c-0.8-1.3-1.6-2.7-2.4-4.2c-0.8-1.4-1.6-2.9-2.3-4.4s-1.5-3.1-2.2-4.7c0,0-0.1-0.1-0.1-0.1c-0.5-1-0.9-2-1.4-3
		c-0.9-2.1-1.8-4.2-2.6-6.4c-0.4-1.1-0.9-2.2-1.3-3.3c-0.4-1.1-0.8-2.3-1.2-3.4c-0.8-2.3-1.6-4.7-2.4-7.1c-0.4-1.2-0.8-2.4-1.1-3.7
		c-3.4-11.2-6.4-23.5-8.7-36.7c-0.5-2.6-0.9-5.3-1.3-8c-0.8-5.4-1.6-11-2.2-16.6c-0.4-3.2-0.7-6.5-1-9.8c-0.3-2.8-0.5-5.7-0.6-8.6
		c-0.2-3.1-0.4-6.2-0.5-9.4V2.7h228c0.4,1.7,0.9,3.4,1.4,5c0.8,2.7,1.6,5.4,2.4,8c1.4,4.2,2.7,8.2,4.2,12.1c1,2.6,2,5.1,3,7.5
		c0.4,1.2,0.9,2.3,1.4,3.4c2.1,4.8,4.4,9.3,6.6,13.4c0.5,0.9,1,1.8,1.6,2.7c1.1,1.9,2.3,3.7,3.4,5.4c4.2,6.2,9.8,11.9,16.3,17.4
		c0.8,0.7,1.7,1.4,2.6,2.1c2.2,1.7,4.5,3.4,6.9,5.1c1.2,0.8,2.4,1.7,3.6,2.5c1.2,0.8,2.5,1.6,3.8,2.4c1.4,0.9,2.8,1.8,4.3,2.6
		c2,1.2,4,2.4,6.2,3.6c1.9,1,3.8,2.1,5.8,3.2c2.8,1.5,5.8,3,8.7,4.5c3,1.5,6,3,9,4.4c5.9,2.8,12,5.6,18.2,8.4
		c2.7,1.2,5.4,2.4,8.2,3.6c4.3,1.9,8.6,3.8,12.9,5.6c4.3,1.9,8.6,3.8,13,5.6c2.7,1.2,5.4,2.3,8,3.5c5.3,2.3,10.5,4.7,15.7,7.1
		c2.6,1.2,5.1,2.4,7.7,3.6c0.1,0.1,0.2,0.1,0.3,0.2c6.1,3,12,6,17.8,9.1c0.3,0.2,0.7,0.4,1,0.5c1.6,0.9,3.2,1.8,4.8,2.7
		c3.7,2.1,7.3,4.3,10.8,6.5c1.8,1.1,3.4,2.2,5.1,3.4c3.4,2.3,6.6,4.6,9.6,7.1c0.8,0.6,1.6,1.3,2.4,2c1,0.8,1.9,1.6,2.8,2.4
		c1.1,1,2.1,1.9,3.1,2.8c2,1.9,3.9,3.8,5.7,5.8c1.8,2,3.5,4.1,5,6.2c0.8,1,1.5,2.1,2.2,3.2c0.7,1,1.4,2.1,2,3.2
		c0.3,0.5,0.6,1,0.8,1.5c0.2,0.3,0.3,0.6,0.4,0.8c0.4,0.6,0.7,1.3,1,1.9c0.5,1,0.9,1.9,1.3,2.9c0.3,0.7,0.6,1.5,0.9,2.2
		c0.1,0.3,0.2,0.5,0.3,0.8c0.3,0.8,0.6,1.7,0.8,2.5c0.3,0.8,0.5,1.7,0.7,2.5c0.4,1.7,0.8,3.4,1.1,5.2v0c0.1,0.2,0.1,0.4,0.1,0.6
		c0,0.2,0,0.3,0,0.4c0.2,1.1,0.3,2.2,0.4,3.4c0,0.6,0.1,1.2,0.1,1.8c0.1,1.6,0.1,3.2,0,4.8c0,0.8-0.1,1.6-0.2,2.5
		c0,0.6-0.1,1.3-0.2,2c-0.1,0.8-0.2,1.7-0.3,2.6c0,0.7-0.2,1.4-0.3,2.1c-0.2,1.1-0.4,2.2-0.6,3.3c-0.2,1.1-0.4,2.2-0.7,3.4
		c-1.3,6.1-3.3,12.8-5.7,20c-0.7,2-1.4,4.2-2.2,6.3c-1.4,4.1-3,8.3-4.8,12.7c-1.3,3.3-2.7,6.7-4.1,10.2c-2.1,5.2-4.4,10.6-6.8,16.2
		c-4.8,11.1-10,22.8-15.5,35c-0.9,2-1.8,4.1-2.8,6.2c-1.8,4.2-3.7,8.4-5.6,12.6c-3.8,8.5-7.6,17.2-11.4,26.2
		c-1.9,4.5-3.8,9-5.7,13.5c-2.8,6.8-5.7,13.8-8.5,20.9c-1.9,4.7-3.7,9.4-5.5,14.2c-1.3,3.5-2.6,7-4,10.6c-0.9,2.5-1.8,5-2.7,7.6
		c-2.2,6.1-4.3,12.3-6.4,18.5c-1.6,5-3.2,10-4.8,15c-0.8,2.5-1.6,5-2.3,7.6c-0.8,2.5-1.5,5-2.2,7.6c-0.7,2.5-1.4,5.1-2.1,7.6
		c-1.4,5.1-2.7,10.2-3.9,15.4c-0.1,0.6-0.3,1.2-0.4,1.8c-0.7,2.7-1.3,5.5-1.9,8.2c-0.9,3.8-1.7,7.6-2.4,11.4
		c-0.4,1.9-0.8,3.8-1.1,5.8c-0.4,1.9-0.7,3.8-1,5.7c-0.7,3.8-1.3,7.7-1.8,11.6c-0.3,1.6-0.5,3.2-0.7,4.9c-0.1,0.8-0.2,1.6-0.3,2.4
		c-0.2,1.4-0.4,2.8-0.5,4.2c-0.9,7.4-1.6,14.8-2.1,22.3c-0.1,1.8-0.2,3.7-0.3,5.6c-0.1,1.6-0.2,3.3-0.2,5c-0.4,8.9-0.4,17.9,0,26.8
		c0,0.7,0,1.3,0.1,2c0.2,4,0.4,8,0.7,12c0.2,3,0.5,6,0.8,9c0.3,2.4,0.6,4.8,0.9,7.1c0.3,2.1,0.6,4.3,0.9,6.4c0,0.2,0.1,0.5,0.1,0.7
		c0.3,2.1,0.7,4.2,1.1,6.3c0,0.4,0.1,0.8,0.2,1.2c0.3,1.8,0.6,3.5,1,5.3c0.5,2.6,1.1,5.3,1.7,8c1.1,4.8,2.4,9.6,3.7,14.4
		c0.4,1.5,0.8,3,1.3,4.5c0.9,3,1.8,5.9,2.8,8.9c0.5,1.5,1,3,1.6,4.4c2.1,5.9,4.4,11.8,7,17.7c0.6,1.5,1.3,2.9,2,4.4
		c0.6,1.4,1.3,2.9,2,4.4c2.1,4.4,4.3,8.7,6.6,13.1c1.8,3.3,3.6,6.6,5.4,9.8c1.9,3.4,3.8,6.7,5.8,9.9c1.2,2.1,2.5,4.2,3.8,6.2
		c6.9,11.2,13.9,21.3,20.9,30.5c0.8,1,1.6,2.1,2.4,3.1c0.9,1.2,1.8,2.3,2.8,3.5c0.5,0.7,1.1,1.4,1.7,2c0.8,1,1.6,2,2.5,3
		c1.2,1.5,2.5,3,3.8,4.4c2.5,2.9,5.1,5.7,7.6,8.4c1.3,1.4,2.6,2.7,3.8,4c0.9,0.9,1.8,1.8,2.8,2.8c0.9,1,1.9,1.8,2.8,2.7
		c11.2,10.6,22.6,19.3,34.2,26.5c1,0.6,1.9,1.2,2.9,1.7c0.6,0.4,1.2,0.8,1.8,1.1c1.3,0.8,2.6,1.6,4,2.3c0,0,0.1,0,0.1,0
		c1.4,0.8,2.7,1.5,4.1,2.2c8.2,4.3,16.5,8,24.8,11.1c3.2,1.2,6.4,2.3,9.6,3.4c1,0.4,2,0.7,3,1c1.5,0.5,2.9,0.9,4.4,1.4
		c2.2,0.6,4.4,1.3,6.6,1.9c1.3,0.4,2.6,0.7,4,1c0.1,0,0.3,0.1,0.4,0.1c1.6,0.4,3.1,0.8,4.6,1.2c1.6,0.4,3.1,0.8,4.7,1.1
		c5.2,1.2,10.5,2.3,15.8,3.4c3.2,0.6,6.4,1.2,9.6,1.8c3.2,0.6,6.5,1.2,9.8,1.7c19.6,3.3,39.9,6.3,61.1,10.3c1,0.2,2.1,0.4,3.1,0.6v0
		c1.3,0.2,2.6,0.5,4,0.8c2.4,0.5,4.8,1,7.2,1.5c12,2.6,24.3,5.6,36.9,9.2c2.5,0.8,5,1.5,7.6,2.3c5.1,1.6,10.2,3.3,15.4,5.1
		c5.2,1.9,10.4,3.8,15.7,6C1998,966.1,1999,966.5,2000,966.9z"/>
	<path class="st2" d="M1431.3,2.7c6.4,33.5,16.7,61.1,28.6,78.5c2.6,3.9,5.8,7.6,9.4,11.1c55.7,55.2,216,76.4,221.9,154
		c3.7,48.5-67.1,156.6-102.6,280.8c-25,87.2-32.6,182.5,15.1,270.7c51.9,96,105,127.7,164.3,143.4c43.6,11.5,90.4,14.4,142.4,27.7
		c28.2,7.2,58,17.5,89.6,33.9"/>
	<path class="st2" d="M2000,1021.3c-3.1-2-6.3-4-9.4-5.9c-28-16.8-54.7-28.6-80.1-37.1c-52.7-17.8-100.2-22.1-144.1-30.4
		c-71.7-13.6-134.1-38.1-194.7-150.1c-50.3-93.1-39.1-194-10.7-285.1c36.6-118.2,101.9-219.8,98.3-266.4
		c-6-77.5-166.2-98.8-221.9-154c-3.6-3.6-6.8-7.2-9.4-11.1c-12-17.4-22.2-44.9-28.6-78.5"/>
	<path class="st2" d="M2000,966.9c-1-0.4-2-0.8-2.9-1.2c-5.3-2.2-10.5-4.1-15.7-6c-5.2-1.8-10.3-3.5-15.4-5.1
		c-2.5-0.8-5-1.6-7.6-2.3c-12.6-3.7-24.8-6.7-36.9-9.2c-2.4-0.5-4.8-1-7.2-1.5c-1.3-0.3-2.6-0.6-4-0.8c-1-0.2-2.1-0.4-3.1-0.6
		c-21.2-4-41.5-7-61.1-10.3c-3.3-0.6-6.5-1.1-9.8-1.7c-3.2-0.6-6.4-1.2-9.6-1.8c-5.3-1-10.6-2.2-15.8-3.4c-1.6-0.4-3.2-0.7-4.7-1.1
		c-1.6-0.4-3.1-0.8-4.6-1.2c-0.1,0-0.3-0.1-0.4-0.1c-1.3-0.3-2.6-0.7-4-1c-2.2-0.6-4.4-1.2-6.6-1.9c-1.5-0.4-2.9-0.9-4.4-1.4
		c-1-0.3-2-0.6-3-1c-3.2-1-6.4-2.2-9.6-3.4c-8.4-3.2-16.6-6.8-24.8-11.1c-1.4-0.7-2.7-1.4-4.1-2.2c0,0-0.1,0-0.1,0
		c-1.3-0.7-2.6-1.5-4-2.3c-0.6-0.3-1.2-0.7-1.8-1.1c-1-0.6-1.9-1.1-2.9-1.7c-11.6-7.2-23-15.9-34.2-26.5c-1-0.9-1.9-1.8-2.8-2.7
		c-1-0.9-1.9-1.8-2.8-2.8c-1.3-1.3-2.6-2.6-3.8-4c-2.6-2.7-5.1-5.5-7.6-8.4c-1.3-1.4-2.6-2.9-3.8-4.4c-0.8-1-1.7-2-2.5-3
		c-0.6-0.7-1.2-1.4-1.7-2c-0.9-1.2-1.8-2.3-2.8-3.5c-0.8-1-1.6-2-2.4-3.1c-7-9.2-14-19.3-20.9-30.5c-1.3-2-2.5-4.1-3.8-6.2
		c-1.9-3.2-3.8-6.5-5.8-9.9c-1.8-3.2-3.6-6.5-5.4-9.8c-2.4-4.4-4.6-8.7-6.6-13.1c-0.7-1.5-1.4-3-2-4.4c-0.7-1.5-1.3-2.9-2-4.4
		c-2.6-5.9-4.9-11.8-7-17.7c-0.6-1.5-1.1-3-1.6-4.4c-1-3-2-5.9-2.8-8.9c-0.5-1.5-0.9-3-1.3-4.5c-1.4-4.8-2.6-9.6-3.7-14.4
		c-0.6-2.6-1.2-5.3-1.7-8c-0.4-1.8-0.7-3.5-1-5.3c-0.1-0.4-0.2-0.8-0.2-1.2c-0.4-2.1-0.8-4.2-1.1-6.3c0-0.2-0.1-0.5-0.1-0.7
		c-0.3-2.1-0.6-4.3-0.9-6.4c-0.3-2.4-0.6-4.7-0.9-7.1c-0.3-3-0.6-6-0.8-9c-0.3-4-0.6-8-0.7-12c0-0.6-0.1-1.3-0.1-2
		c-0.4-8.9-0.3-17.9,0-26.8c0-1.6,0.1-3.3,0.2-5c0.1-1.9,0.2-3.7,0.3-5.6c0.5-7.5,1.2-14.9,2.1-22.3c0.1-1.4,0.3-2.8,0.5-4.2
		c0.1-0.8,0.2-1.6,0.3-2.4c0.2-1.6,0.4-3.3,0.7-4.9c0.6-3.9,1.2-7.7,1.8-11.6c0.3-1.9,0.6-3.8,1-5.7c0.3-1.9,0.7-3.8,1.1-5.8
		c0.7-3.8,1.5-7.6,2.4-11.4c0.6-2.7,1.2-5.5,1.9-8.2c0.1-0.6,0.3-1.2,0.4-1.8c1.2-5.2,2.6-10.3,3.9-15.4c0.7-2.6,1.4-5.1,2.1-7.6
		c0.7-2.6,1.4-5.1,2.2-7.6c0.7-2.6,1.5-5.1,2.3-7.6c1.5-5,3.1-10,4.8-15c2.1-6.2,4.2-12.4,6.4-18.5c0.9-2.5,1.8-5.1,2.7-7.6
		c1.3-3.6,2.6-7,4-10.6c1.8-4.8,3.7-9.5,5.5-14.2c2.8-7.1,5.7-14,8.5-20.9c1.9-4.6,3.8-9.1,5.7-13.5c3.9-9,7.7-17.7,11.4-26.2
		c1.9-4.2,3.8-8.4,5.6-12.6c0.9-2,1.8-4.1,2.8-6.2c5.5-12.2,10.7-23.9,15.5-35c2.4-5.6,4.7-11,6.8-16.2c1.5-3.5,2.8-6.8,4.1-10.2
		c1.8-4.4,3.4-8.6,4.8-12.7c0.8-2.1,1.5-4.2,2.2-6.3c2.4-7.2,4.4-13.8,5.7-20c0.3-1.2,0.5-2.3,0.7-3.4c0.2-1.1,0.4-2.2,0.6-3.3
		c0.2-0.7,0.3-1.4,0.3-2.1c0.2-0.9,0.2-1.7,0.3-2.6c0.1-0.7,0.2-1.3,0.2-2c0.1-0.8,0.1-1.7,0.2-2.5c0.1-1.7,0.1-3.3,0-4.8
		c0-0.6,0-1.2-0.1-1.8c-0.1-1.2-0.2-2.3-0.4-3.4c0-0.1,0-0.2,0-0.4c0-0.2,0-0.4-0.1-0.6v0c-0.2-1.8-0.6-3.5-1.1-5.2
		c-0.2-0.8-0.4-1.7-0.7-2.5c-0.2-0.8-0.5-1.7-0.8-2.5c-0.1-0.3-0.2-0.5-0.3-0.8c-0.3-0.7-0.6-1.5-0.9-2.2c-0.4-1-0.8-1.9-1.3-2.9
		c-0.3-0.6-0.6-1.3-1-1.9c-0.1-0.3-0.3-0.6-0.4-0.8c-0.2-0.5-0.5-1-0.8-1.5c-0.6-1.1-1.3-2.2-2-3.2c-0.7-1.1-1.4-2.1-2.2-3.2
		c-1.6-2.1-3.2-4.2-5-6.2c-1.8-2-3.7-3.9-5.7-5.8c-1-0.9-2-1.9-3.1-2.8c-0.9-0.8-1.8-1.6-2.8-2.4c-0.8-0.7-1.6-1.3-2.4-2
		c-3-2.4-6.2-4.8-9.6-7.1c-1.7-1.1-3.4-2.2-5.1-3.4c-3.5-2.2-7.1-4.4-10.8-6.5c-1.6-0.9-3.2-1.8-4.8-2.7c-0.3-0.2-0.7-0.4-1-0.5
		c-5.7-3.1-11.7-6.1-17.8-9.1c-0.1,0-0.2-0.1-0.3-0.2c-2.6-1.2-5.1-2.4-7.7-3.6c-5.2-2.4-10.4-4.8-15.7-7.1c-2.6-1.2-5.3-2.3-8-3.5
		c-4.3-1.9-8.6-3.8-13-5.6c-4.3-1.8-8.6-3.7-12.9-5.6c-2.7-1.2-5.4-2.4-8.2-3.6c-6.2-2.8-12.3-5.5-18.2-8.4c-3.1-1.4-6.1-2.9-9-4.4
		c-3-1.5-5.9-3-8.7-4.5c-2-1-3.9-2.1-5.8-3.2c-2.1-1.2-4.2-2.4-6.2-3.6c-1.4-0.9-2.9-1.8-4.3-2.6c-1.3-0.8-2.5-1.6-3.8-2.4
		c-1.2-0.8-2.5-1.6-3.6-2.5c-2.4-1.6-4.7-3.4-6.9-5.1c-0.9-0.7-1.7-1.4-2.6-2.1c-6.6-5.4-12.1-11.2-16.3-17.4
		c-1.2-1.7-2.3-3.5-3.4-5.4c-0.6-0.9-1.1-1.8-1.6-2.7c-2.3-4.1-4.5-8.6-6.6-13.4c-0.5-1.1-1-2.2-1.4-3.4c-1-2.4-2-4.9-3-7.5
		c-1.4-3.8-2.8-7.9-4.2-12.1c-0.8-2.6-1.6-5.3-2.4-8c-0.4-1.7-0.9-3.4-1.4-5"/>
	<path class="st2" d="M1362.5,2.7c5.1,37.3,15,68.7,27.1,89.6c1.5,2.6,3,5,4.6,7.2c43.8,63.8,225.1,82.5,231.3,165.1
		c3.2,42.8-51.5,132-88.8,237.8c-34.7,98.2-54.4,210.8,1.3,313.7c68.1,126,138.4,141.3,221.8,154.9c45.7,7.4,95.4,14.4,150.7,38.7
		c15,6.6,30.5,14.5,46.4,24c14.9,9,29.3,19.1,43.1,30.4"/>
	<path class="st2" d="M2000,1136.6c-26.9-30.2-56.9-56.7-89.6-77.4c-2.3-1.5-4.6-2.9-7-4.3c-56.6-34-107.4-47.2-154-55.7
		c-102.8-18.8-185.3-15-264.9-162.1c-62.3-115-30.5-242,11.3-347.7c35.9-90.7,79.1-165.7,76.2-203.8
		c-6.2-82.5-187.6-101.3-231.3-165.1c-5.2-7.6-10.1-17-14.5-28.1c-9.4-23.7-16.5-54.7-19.5-89.6"/>
	<path class="st2" d="M1274.6,2.7c3,34.9,10.2,65.9,19.6,89.6c4.4,11,9.3,20.6,14.5,28.1c43.8,63.8,225,82.5,231.3,165.1
		c2.8,37.3-38.3,109.6-73.6,197.4c-43,106.9-77.4,236.7-13.9,354.1c87.1,161,177.7,141.2,294.5,168.1c38.4,8.9,79.6,22.7,124.4,49.7
		c13.5,8.1,26.5,17.2,39.1,27.2c33.2,26.2,63.1,58.4,89.6,93.8"/>
	<path class="st2" d="M1340.9,2.7c5.2,37.3,15.2,68.7,27.3,89.6c1.4,2.6,3,4.9,4.5,7.2c44,63.8,225.1,82.5,231.4,165.1
		c3.2,41.9-49.3,128.2-86.5,231v0c-36.2,99.8-58.1,215.1-1.2,320.4c73.6,136.2,149.9,143,242.3,158.2c46,7.6,96,17.1,151.7,45.7
		c8.2,4.2,16.4,8.8,24.8,13.8c22.9,13.7,44.5,30.3,64.7,49.1"/>
	<path class="st1" d="M1803.7,1913.2c-1.4,24.8-0.2,53.5,4.9,89.6h-222.2c0.8-34.7,6.6-61.7,14-89.6c8.1-30.5,18.1-62,25.6-105.6
		c16.2-93.7-55.8-321.1-192-451.8c-21.9-21.1-45.5-39.6-70.6-54.7c-181.3-108.8-303.2-3.8-418.9-217.6c-79.7-147.3-5-314.2,47-430.8
		c23.5-52.6,42.5-95,40.5-120.8c-6.2-82.7-187.5-101.3-231.3-165.1c-31.6-46-51.8-162.6-18.2-274.6c9.2-30.7,22.4-61.1,40.7-89.6
		h179.9c-10,29.9-16,60.2-18.8,89.6c-8.3,84.3,9.2,160.8,33.4,196.1c43.8,63.8,225.1,82.5,231.3,165.1c1.2,15.2-5,36.3-15.1,61.9
		c-44.8,113.3-166.7,315.2-72.4,489.7c113.9,210.6,233.8,112,410.6,212.7c2.7,1.6,5.5,3.2,8.3,4.9
		c181.3,108.8,281.2,397.7,262.4,506.5C1829.3,1808.1,1807.4,1847.2,1803.7,1913.2z"/>
	<path class="st2" d="M1239.6-2.7c0.1,1.8,0.1,3.6,0.2,5.4c0,0.2,0,0.3,0,0.5c0.1,3.2,0.3,6.3,0.5,9.4c0.2,2.9,0.4,5.7,0.6,8.6
		c0.3,3.3,0.6,6.6,1,9.8c0.6,5.6,1.4,11.2,2.2,16.6c0.4,2.7,0.8,5.4,1.3,8c2.3,13.2,5.2,25.5,8.7,36.7c0.4,1.2,0.8,2.5,1.2,3.7
		c0.8,2.4,1.6,4.8,2.4,7.1c0.4,1.2,0.8,2.3,1.2,3.4c0.4,1.1,0.8,2.2,1.3,3.3c0.8,2.2,1.7,4.3,2.6,6.4c0.4,1,0.9,2,1.4,3
		c0,0,0,0.1,0.1,0.1c0.7,1.6,1.4,3.2,2.2,4.7c0.8,1.5,1.5,3,2.3,4.4c0.8,1.4,1.6,2.8,2.4,4.2c1.2,2,2.4,4,3.7,5.8
		c1.4,2,2.9,4,4.5,5.9c1.7,1.9,3.4,3.7,5.2,5.6c1.6,1.5,3.2,3,4.9,4.5c1.4,1.2,2.9,2.4,4.4,3.6c1.4,1.1,2.9,2.2,4.4,3.3
		c2.8,2,5.7,4,8.8,6h0c42.8,27.2,109.2,47.1,153.4,75.5c3.2,2,6.2,4.1,9.1,6.2c1.6,1.1,3.1,2.3,4.6,3.4c1.6,1.2,3.1,2.5,4.6,3.8
		c0.9,0.7,1.7,1.4,2.5,2.2c1,0.9,2,1.8,3,2.8c1,0.9,1.9,1.9,2.8,2.8c1.8,1.9,3.6,3.9,5.2,5.9c1.3,1.6,2.5,3.2,3.6,4.9
		c1.2,1.8,2.3,3.6,3.3,5.4c0.6,1,1.1,2,1.6,3c0.5,1,1,2,1.4,3.1c0.5,1,0.9,2.1,1.2,3.2c0.5,1.3,0.9,2.6,1.2,4
		c0.3,0.8,0.5,1.7,0.6,2.6c0.5,2.4,0.9,4.9,1.1,7.4c0.2,3.2,0.2,6.7-0.2,10.4c-0.2,2.3-0.6,4.6-1,7.1c-0.2,1.2-0.5,2.5-0.8,3.8
		c-0.2,1-0.4,2-0.6,2.9c-0.4,1.7-0.9,3.4-1.4,5.2c-0.6,2.2-1.2,4.5-2,6.8c-0.7,2.3-1.5,4.7-2.3,7.1c-0.4,1.2-0.8,2.3-1.2,3.4
		c-1.1,3.1-2.3,6.3-3.5,9.5c-4.3,11.4-9.5,23.7-15.3,36.9c-2.5,5.6-5,11.4-7.7,17.4c-2.6,5.9-5.4,12-8.1,18.2c0,0,0,0.1,0,0.1
		c-1.9,4.1-3.7,8.3-5.6,12.5c0,0,0,0.1,0,0.1c-2.8,6.3-5.7,12.8-8.5,19.4c0,0,0,0.1,0,0.1c-1,2.2-2,4.4-2.9,6.7
		c-1.2,2.7-2.3,5.4-3.4,8.1c-0.8,1.8-1.6,3.6-2.3,5.5c-2.9,6.8-5.7,13.7-8.5,20.7c0,0,0,0.1,0,0.1c-1.8,4.6-3.7,9.4-5.5,14.1
		c-1.2,3-2.3,6-3.4,9.1c-1,2.7-2,5.4-3,8.2c-2.3,6.5-4.6,13-6.8,19.6c-2.8,8.6-5.6,17.3-8.1,26c-0.2,0.6-0.4,1.2-0.5,1.8
		c-0.8,2.8-1.6,5.6-2.3,8.4c-0.2,0.4-0.3,0.8-0.4,1.3c-0.1,0.4-0.2,0.9-0.4,1.4c-2,7.2-3.8,14.4-5.4,21.8c-0.6,2.6-1.2,5.2-1.7,7.8
		c-1.1,5.3-2.2,10.7-3.1,16c-0.4,2.5-0.8,5-1.2,7.5c-0.9,5.2-1.6,10.5-2.2,15.8c-0.3,2.6-0.6,5.3-0.9,7.9c-0.2,2.5-0.5,4.9-0.7,7.4
		c0,0.4-0.1,0.9-0.1,1.3c-0.6,7.7-1.1,15.4-1.2,23.1c-0.2,10.5,0,21.1,0.7,31.7c0.2,2.6,0.4,5.2,0.6,7.9c0.4,4.7,1,9.4,1.6,14.1
		c0.4,2.4,0.7,4.7,1.1,7.1c0.8,4.7,1.6,9.4,2.6,14c0,0,0,0.1,0,0.1c0.4,1.6,0.7,3.2,1.1,4.8c1.1,4.8,2.4,9.6,3.7,14.4c0,0,0,0,0,0
		c5.6,19.2,13.2,38.2,23.3,56.8c92.6,171.2,189.1,138,316.9,173.7c31.9,8.9,65.7,22.1,102,43.9c26,15.6,50.3,34.9,72.8,56.8
		c34.1,33.1,64,72.2,89.6,113.7"/>
	<path class="st2" d="M1772.2,2002.7c-3.9-36.2-3.4-64.5-0.4-89.6c6.6-54.1,25.2-92.8,37.4-163.1c18.8-108.8-81.2-397.8-262.6-506.5
		c-0.1,0-0.2-0.1-0.2-0.1c-181.2-108.5-303-3.8-418.7-217.5c-95.2-176,29.9-380,73.6-492.7v0c9.4-24.2,15-44.2,13.9-58.7
		c-6.2-82.5-187.5-101.3-231.3-165.1c-26.2-38.2-44.5-124.8-30.9-217.1c4.4-29.7,12.1-60.1,23.9-89.6"/>
	<path class="st2" d="M1740.1,2002.7c-3.9-36.2-3.4-64.5-0.4-89.6c6.6-54.1,25.2-92.8,37.4-163.1c18.1-104.9-74.3-377.2-243.3-494
		c-6.3-4.4-12.8-8.6-19.3-12.5c-181.3-108.7-303.2-3.8-418.9-217.6c-86.4-159.8,8.6-342.6,59.6-459.2v0
		c17.2-39.5,29.4-71.4,27.9-92.2c-6.2-82.5-187.5-101.3-231.3-165.1c-26.2-38.2-44.5-124.8-30.9-217.1c4.4-29.7,12.1-60.1,23.9-89.6
		"/>
	<path class="st1" d="M1303.4,1856.7c-3.7,21.2-7.9,39.7-12.3,56.4c-8.5,32.7-17.2,59.3-22.5,89.6h-197.2
		c5.3-19.7,10.7-41.5,15.2-67.5c1.2-6.7,1.9-14.1,2.1-22.1c1.5-44.8-11-108.4-35.8-176.1c-37.7-102.8-104-215-193.5-283.9
		c-1.9-1.5-3.8-3-5.8-4.4c-1.1-0.8-2.2-1.7-3.4-2.5c-1.1-0.8-2.2-1.6-3.4-2.4c-7.5-5.3-15.2-10.4-23-15
		c-70.3-42.2-131.7-52.2-187.3-61.2c-57.2-9.2-108.2-17.2-156.5-58.1c-0.3-0.3-0.7-0.6-1-0.8c-0.2-0.1-0.3-0.2-0.4-0.4
		c-25.1-21.7-49.6-52.4-73.7-97c-19.4-35.9-29.7-72.9-33.3-110.2c-18.1-184.5,126-372.7,120.8-441.4c-1.4-17.6-10.7-32.4-25-45.2
		c-0.2-0.2-0.3-0.3-0.5-0.4c-0.5-0.5-1-1-1.6-1.4c-0.7-0.6-1.4-1.3-2.2-1.9c-15.9-13.1-36.9-24.2-59.4-34.7
		c-46.4-21.6-99.6-40.2-129.2-66.4c-0.5-0.4-0.9-0.8-1.4-1.2c0,0,0,0-0.1-0.1c-4.6-4.3-8.7-8.8-11.9-13.5
		c-43.7-63.7-65.7-262.8,46.9-397.8l3.8-4.6c8.3-9.9,16.8-19.9,25.4-29.9v0c0.1-0.1,0.2-0.2,0.3-0.2c17.4-20,35.3-40,53.1-59.5
		h147.2c-4.3,5.2-8.6,10.4-13.1,15.8c-19.2,23.1-34.5,48-46.4,73.8c-58.1,125.3-36.8,271-0.5,323.9c3.4,5,7.7,9.7,12.6,14.2
		c0.4,0.3,0.8,0.7,1.2,1c0.8,0.6,1.5,1.2,2.3,1.9c23.2,19.5,59.1,34.8,95.2,50.3c33.9,14.6,67.7,29.7,90.9,48.7
		c0.5,0.4,0.9,0.8,1.4,1.2c15.9,13.4,26.4,28.9,27.8,47.7c6.2,82.4-203.2,337.7-87.5,551.5c26.7,49.3,53.7,81.7,81.7,103.6
		c0.2,0.2,0.5,0.4,0.7,0.6c1.4,1.1,2.7,2.1,4.1,3.1c92.2,68.1,195.3,28.1,332.3,110.4c15.6,9.4,30.7,20.1,45.1,31.9
		c1.8,1.5,3.6,3,5.4,4.5c55.3,46.9,101.1,110.2,136,176.2C1286.2,1674.9,1314,1794.9,1303.4,1856.7z"/>
	<path class="st2" d="M1001.1,2.7c-9.9,29.9-15.9,60.2-18.8,89.6c-8.2,84.3,9.2,160.8,33.5,196.1c43.8,63.8,224.9,82.5,231.3,165.1
		c1.2,15.4-5.2,36.9-15.5,63c-45.1,113.5-166.1,314.7-72,488.6c114.1,211.1,234.4,111.5,411.9,213.4c2.3,1.4,4.7,2.8,7,4.2
		c181.3,108.8,281.3,397.7,262.4,506.5c-13.7,79-35.5,118.1-39.3,184c-1.4,24.8-0.2,53.5,4.9,89.6"/>
	<path class="st2" d="M919,2.7c-13.6,29.2-22.9,59.5-28.7,89.6c-19.1,99-0.1,194.7,27.8,235.4c43.7,63.8,225.1,82.5,231.4,165.1
		c1.9,25-16,65.9-38.7,116.7v0c-52.1,116.8-129.4,285.8-48.8,434.8c115.6,213.9,237.6,108.8,418.9,217.6
		c9.7,5.8,19.1,12.1,28.3,18.9c163.3,120.2,252,384.6,234.3,487.6c-10.7,62.1-26.5,99.6-34.6,144.8c-4.6,25.4-6.7,53.4-4.1,89.6"/>
	<path class="st2" d="M876.3,2.7c-15.9,28.8-27.2,59.2-34.8,89.6c-26.4,106.2-6.7,212.8,23,256.3c43.6,63.8,225.1,82.5,231.3,165.1
		c2.6,34-31.4,97.3-64.2,174.9c-46.8,110.8-91.1,250.8-23,376.6c115.8,213.8,237.5,108.8,418.8,217.7c16.1,9.7,31.6,20.8,46.4,33.1
		c151.8,125.7,233.4,374.2,216.2,473.3c-9.1,52.3-21.7,87.1-30.3,123.8c-6.2,26.4-10.3,53.9-9.4,89.6"/>
	<path class="st2" d="M844.2,2.7c-15.9,28.8-27.2,59.2-34.8,89.6c-26.4,106.2-6.7,212.8,23.1,256.3
		c43.7,63.8,225.1,82.5,231.3,165.1c2.4,31.1-25.9,86.7-55.9,155.5c-49.5,113.6-103.6,262.8-31.4,396.1
		c115.8,213.8,237.4,108.8,418.7,217.7c22.4,13.5,43.7,29.7,63.5,48.1c140.8,129.6,215.6,363,199.1,458.3
		c-9.1,52.3-21.7,87.1-30.3,123.8c-6.2,26.4-10.2,53.9-9.4,89.6"/>
	<path class="st2" d="M897.6,2.7c-13.6,29.2-23,59.6-28.8,89.6c-19.2,99-0.2,194.7,27.8,235.4c43.8,63.8,225.1,82.5,231.3,165.1
		c2.4,31.1-26,86.9-56.1,155.7c-49.5,113.5-103.6,262.7-31.5,395.9c115.8,213.9,237.6,108.8,418.9,217.6c14,8.4,27.5,17.9,40.5,28.2
		c155.5,124.1,239.4,377.8,222.1,478.2c-10.7,62.1-26.5,99.6-34.6,144.8c-4.6,25.5-6.7,53.4-4.1,89.6"/>
	<path class="st2" d="M821.4,2.7c-18.2,28.5-31.5,58.9-40.7,89.6C747,204.4,767.2,321,798.8,367.1c43.7,63.8,225.1,82.5,231.4,165.1
		c1.9,25.4-16.6,67.3-39.9,119.2c-52.1,116.6-127.7,284.4-47.7,432.3c115.7,213.9,237.6,108.8,418.9,217.6
		c25.5,15.3,49.3,34.1,71.5,55.5c135.6,130.9,207.2,357.4,191.1,451c-7.5,43.5-17.5,74.9-25.6,105.3c-7.4,27.8-13.2,54.9-14.1,89.6"
		/>
	<path class="st2" d="M1238.3,2002.7c6.4-28.3,15.4-55.3,23.4-89.6c2.7-11.5,5.2-23.8,7.6-37.3c10.3-60-15.5-174.8-71.1-284
		c-45.3-88.7-110.2-173.7-191.5-222.5c-181.3-108.8-303.3-3.8-418.9-217.6s93.8-469,87.5-551.5c-3.8-50.1-72.1-76.7-134.9-104.1
		c-40.8-17.8-79.3-35.9-96.4-61c-38-55.6-59.7-213.6,9.8-342.8c10.2-19.1,22.5-37.5,37-54.9c10.9-13.1,22.2-24.6,33.6-34.7"/>
	<path class="st2" d="M496.4,2.7c-13.4,9.4-26.1,20.9-37.6,34.7c-14.5,17.4-26.8,35.8-37,54.9c-69.5,129-48,287.2-9.8,342.8
		c19.2,28,65.1,47.4,110.9,67.3c58.5,25.3,116.9,51.5,120.4,97.8c6.2,82.5-203.2,337.7-87.5,551.5s237.6,108.8,418.9,217.6
		c87.8,52.7,156.6,147.7,202,244c48.4,102.5,70.3,206.4,60.6,262.5c-2.3,13.5-4.9,25.8-7.6,37.3c-8,34.3-17,61.2-23.4,89.6"/>
	<path class="st2" d="M482,2.7c-20.4,14.8-39.8,32.4-57,53c-9.8,11.8-18.6,24-26.4,36.6c-82.2,132.1-60.5,302.9-20.5,361.1
		c18.7,27.3,62.7,46.4,107.3,65.7c59.6,25.8,120.4,52.1,124,99.4C615.7,701,406.3,956.1,522,1170s237.6,108.9,418.9,217.6
		c91.1,54.6,161.6,154.7,206.9,254.5c44.9,99,65,197.8,55.7,252c-1.2,6.6-2.4,13-3.6,19c-7.2,35.4-15.8,62.7-22.8,89.6"/>
	<path class="st2" d="M456.5,2.7c-2.5,1.6-4.9,3.2-7.3,4.8l0,0c-28,18.8-54.7,41.6-77.7,69.1c-4.3,5.1-8.4,10.3-12.2,15.6
		c-98.6,134.3-76.5,320.7-34.5,382c20.2,29.5,69.9,49.4,118.1,70.4c55.9,24.4,109.8,50.4,113.2,94.7
		c6.2,82.5-203.2,337.7-87.7,551.5c3.7,6.8,7.4,13.4,11.1,19.6c34.5,57.6,69.6,88.6,106.9,106.9h0c84.2,41.4,179.2,18.2,300.9,91.2
		c98,58.8,172.2,170.1,216.8,277.3c37.5,90,54.1,177,46.3,227.4c-0.1,0.7-0.2,1.4-0.3,2c-6,35.1-13.7,62.4-20.7,87.5"/>
	<path class="st2" d="M1097.3,2002.7c7-25.2,14.7-52.5,20.7-87.5c0.1-0.7,0.2-1.3,0.3-2c7.2-46.1-6.1-122.8-37.1-204.5
		c-43.3-113.8-121-237.2-225.9-300.1c-98.3-59-179.1-55.1-251-73.3h0c-60.7-15.4-115-46.5-167.9-144.3
		c-7.5-13.9-13.6-27.9-18.6-42.1v0c-70.7-204.1,112-432.1,106.2-509.3c-3-39.1-45.1-63.8-93.3-85.9c-53.7-24.5-115-45.7-138-79.2
		c-42.1-61.3-64-247.8,34.7-382c3.8-5.3,7.9-10.5,12.2-15.6c15.1-18.1,30.8-34.7,46.6-49.7c0,0,0,0,0,0c9-8.5,18-16.6,26.9-24.2"/>
	<path class="st2" d="M1155.4,2002.7c7-26.8,15.6-54.1,22.8-89.6c1.2-6.1,2.4-12.4,3.6-19c8.9-51.4-8.8-143.1-49.1-237v0
		c-44.9-104.7-117.9-212.2-213.5-269.5c-181.3-108.7-303.1-3.7-418.9-217.6s93.7-469,87.5-551.5c-3.3-44.1-56.6-69.9-112.2-94.2
		c-48.5-21.2-98.8-41.1-119.2-70.9c-40-58.2-61.7-229,20.5-361.1c7.8-12.6,16.6-24.8,26.4-36.6c14.6-17.5,30-33.6,45.7-48.2l0,0
		c1.8-1.6,3.5-3.2,5.2-4.8"/>
	<path class="st2" d="M0,101.5C30.9,62.6,56.5,29.2,76.5,2.7"/>
	<path class="st2" d="M0,630.6c31.4,14,64.1,27.8,89.6,44.4c25.6,16.7,43.8,36.4,45.7,62.1c2.1,28.1-19.8,75.9-45.7,135.2
		C38,990.6-29.2,1154.8,47.8,1300.2c13.8,26.1,27.7,47.5,41.8,65.2c103.8,130.6,217.4,59.1,377.1,157
		c131.2,80.4,219.9,257.1,251.7,390.7c8,33.3,12.4,63.8,13,89.6"/>
	<path class="st2" d="M0,1026.2c24.8-90,67.7-171.9,89.6-229.8c9.2-24.4,14.7-44.5,13.6-59.3c-0.9-12.7-5.8-23.8-13.6-34
		C71.2,679.3,36.7,661.5,0,644.8"/>
	<path class="st2" d="M0,1265.1c4.4,11.8,9.6,23.5,15.7,35.1c24.2,45.7,48.6,77.1,73.9,99.3c95.3,83.7,201.6,35.1,345,122.9
		c131.2,80.4,219.9,257.1,251.7,390.7c8,33.3,12.4,63.8,13,89.6"/>
	<path class="st2" d="M53.7,2.7C38.1,20.5,20,41.4,0,65"/>
	<path class="st2" d="M0,594.4c2.5,1.2,5,2.5,7.6,3.7c4.7,2.2,9.4,4.4,14.2,6.6c3.2,1.5,6.4,2.9,9.6,4.4c1.6,0.7,3.2,1.4,4.9,2.2
		c4.8,2.2,9.8,4.3,14.6,6.5c13.2,5.8,26.2,11.8,38.7,18c10.3,5.2,20.2,10.5,29.2,16.2c1.8,1.2,3.6,2.3,5.3,3.5
		c1.7,1.2,3.4,2.3,5.1,3.5c1.6,1.2,3.3,2.4,4.8,3.6c0,0,0,0,0,0c4.6,3.6,8.8,7.3,12.6,11.2c1,1,1.9,1.9,2.8,2.9c2,2.3,3.9,4.6,5.6,7
		c0,0,0,0,0,0c1.2,1.6,2.2,3.2,3.2,4.9s1.9,3.3,2.8,5c3.4,6.9,5.5,14.2,6.1,22.1c1,13.4-3.4,31.2-11.2,52.7c-0.9,2.6-1.9,5.3-3,8
		c-1.6,4.1-3.2,8.2-4.9,12.6c-0.6,1.4-1.2,2.9-1.8,4.3c-5.6,13.4-11.9,27.9-18.6,43.3c-1,2.2-1.9,4.4-2.9,6.6
		c-2,4.4-3.9,8.9-5.9,13.4c-1,2.3-2,4.6-3,6.9c-4.2,9.7-8.5,19.7-12.7,29.9c-4.6,11.1-9.2,22.5-13.7,34.2v0.1
		c-3,7.8-5.9,15.6-8.7,23.6c-36.2,102-58.3,220-1.2,327.7c3.3,6.2,6.6,12.2,9.9,17.9c64.7,111.7,131.8,126.9,210.5,140
		c2.2,0.4,4.4,0.7,6.6,1.1c1.1,0.2,2.2,0.4,3.4,0.6c5.6,0.9,11.2,1.8,16.9,2.8c3.2,0.6,6.5,1.1,9.8,1.7c0.4,0,0.7,0.1,1.1,0.2
		c3.3,0.6,6.6,1.2,9.9,1.8c2.4,0.4,4.7,0.9,7.1,1.4c4.7,1,9.5,2,14.3,3c2.1,0.5,4.2,1,6.4,1.5c5.5,1.3,11,2.7,16.6,4.2
		c1.8,0.5,3.6,1,5.4,1.5c8.2,2.4,16.5,5,24.9,8c2.2,0.8,4.5,1.6,6.7,2.4c22.1,8.4,45.1,19.2,69.2,34c15.6,9.6,30.7,20.6,45.1,32.6
		c4.8,4,9.5,8.2,14.1,12.4c4.7,4.3,9.2,8.7,13.8,13.2c1.7,1.7,3.4,3.4,5,5.1c1.7,1.7,3.4,3.5,5,5.2c3.3,3.5,6.6,7,9.8,10.6
		c4.3,4.8,8.5,9.7,12.7,14.7c4.1,5,8.2,10,12.2,15.2c6,7.7,11.8,15.6,17.5,23.6c5.6,8,11.2,16.2,16.5,24.5
		c5.3,8.3,10.5,16.7,15.4,25.2c3.3,5.7,6.5,11.4,9.7,17.1c6.3,11.4,12.3,23,18,34.7c1.4,2.9,2.8,5.8,4.2,8.8
		c2.7,5.8,5.4,11.6,8,17.5c0,0,0,0,0,0c2.6,5.8,5.1,11.6,7.5,17.4c6,14.6,11.6,29.1,16.6,43.4c2,5.7,3.9,11.4,5.8,17
		c1.8,5.6,3.5,11.2,5.2,16.8c4.1,13.9,7.7,27.5,10.7,40.7c1.2,5.2,2.3,10.4,3.4,15.5c0,0.2,0,0.4,0.1,0.6
		c2.5,12.6,4.4,24.6,5.8,36.1c0.6,4.6,1,9.2,1.4,13.6c1.2,14.6,1.5,27.9,0.7,39.8"/>
	<path class="st2" d="M0,119.8C40.2,70.2,70.9,31.4,93.2,2.7"/>
	<path class="st2" d="M41,2.7C28.6,16.1,14.8,31.1,0,47.5"/>
	<path class="st2" d="M664.5,2002.7c-2.3-26.6-7.9-57.1-16.7-89.6c-35.4-131-121.8-295.3-247-372c-126.7-77.7-224.4-48.6-311.3-98.7
		c-31-17.8-60.6-45.7-89.6-92.2"/>
	<path class="st2" d="M0,679.8c37.6,19.8,67.1,42.9,69.5,76C72.3,792.4,34.3,862.1,0,947.2"/>
	<path class="st2" d="M1,2.7C0.6,3.1,0.3,3.4,0,3.8"/>
	<path class="st2" d="M608.7,2002.7c-3.8-27.2-10.7-57.6-20.4-89.6c-38.6-127-122.4-278.1-240.8-350.7
		c-101.5-62.2-184.4-55.9-257.9-76.7c-31.3-8.8-60.9-22.5-89.6-48.5"/>
	<path class="st2" d="M0,740c9.3,10.9,15.2,23.1,16.3,37.2c1.2,16.1-5.5,38.7-16.3,66.3"/>
	<path class="st2" d="M0,1461.4c28.5,17.3,58.1,25.8,89.6,31.9c65.5,12.8,138.8,15.9,225.8,69.2c118.5,72.6,202.2,223.7,240.8,350.7
		c9.7,31.9,16.5,62.3,20.4,89.6"/>
	<path class="st2" d="M18.8,2.7C12.9,9.1,6.6,16,0,23.3"/>
	<path class="st2" d="M643,2002.7c-2.2-26.6-7.9-57-16.6-89.6c-35.4-130.9-121.8-295.3-247-372c-116.4-71.3-208.3-52.6-289.7-87.9
		c-31.1-13.4-60.7-34.8-89.6-72"/>
	<path class="st2" d="M0,692.2c26.8,17.1,46,37.1,48,63.6c2.2,29-21.1,78.7-48,140.3"/>
	<path class="st2" d="M540,2002.7c-1.2-6.9-2.6-13.9-4.3-21.1c-1.6-7.2-3.3-14.5-5.3-21.9c-0.6-2.2-1.2-4.5-1.8-6.8
		c-1.4-5.4-3-11-4.7-16.5c-1.6-5.6-3.4-11.2-5.2-16.8c-0.7-2.2-1.4-4.3-2.1-6.4c-0.6-1.7-1.1-3.3-1.7-5c-0.6-1.8-1.2-3.6-1.8-5.4
		c-1.2-3.5-2.4-7-3.7-10.4c-4.1-11.3-8.6-22.7-13.3-34.1c-1.1-2.5-2.1-5.1-3.2-7.6c-1.2-2.9-2.5-5.8-3.8-8.8c-1.3-2.9-2.6-5.8-4-8.8
		c-0.6-1.4-1.2-2.8-1.9-4.2c-1.4-2.9-2.8-5.9-4.2-8.8c-2.1-4.4-4.3-8.8-6.5-13.2c-1.4-2.9-2.9-5.8-4.4-8.7c-3-5.8-6-11.6-9.2-17.3
		c-1.4-2.5-2.8-5-4.2-7.6c-7.6-13.5-15.7-26.8-24.2-39.8c-1.5-2.3-3-4.5-4.5-6.8c-2.8-4.3-5.8-8.6-8.8-12.8
		c-1.5-2.1-2.9-4.2-4.4-6.2c-0.4-0.6-0.9-1.3-1.4-1.9c-3.5-4.8-7.1-9.6-10.8-14.3c-1.6-2.1-3.2-4.1-4.8-6.1
		c-5.2-6.6-10.5-13-16-19.2c-1-1.2-2.1-2.5-3.3-3.7c-0.6-0.7-1.2-1.4-1.8-2.1c-1.2-1.4-2.5-2.8-3.7-4.1c-0.1-0.1-0.2-0.2-0.3-0.3
		c-1.7-1.9-3.4-3.7-5.1-5.5c-5.1-5.4-10.3-10.8-15.7-15.9c-1.7-1.7-3.5-3.4-5.2-5c-1.8-1.7-3.5-3.3-5.3-4.9
		c-1.8-1.6-3.5-3.2-5.3-4.8c-2.2-2-4.5-3.9-6.8-5.8c-0.3-0.2-0.5-0.4-0.8-0.6c-2.3-1.9-4.6-3.8-6.9-5.6c-2.1-1.7-4.2-3.4-6.4-5
		c-3.1-2.4-6.3-4.8-9.4-7c-2.2-1.6-4.4-3.1-6.6-4.6c-5.1-3.5-10.2-6.8-15.4-10c-8-4.9-15.8-9.3-23.6-13.4c-1.6-0.8-3.1-1.6-4.6-2.4
		c-1.9-1-3.8-2-5.8-2.9c-9.7-4.8-19.2-9-28.5-12.6c-1.5-0.6-3-1.2-4.5-1.8c-2-0.8-4.1-1.6-6.2-2.3c-5.2-1.9-10.3-3.6-15.3-5.3
		c-2.6-0.8-5.1-1.6-7.6-2.4c-5-1.5-10-2.9-14.9-4.2c-0.6-0.2-1.3-0.3-1.9-0.5c-4.3-1.1-8.6-2.2-12.8-3.1c-2.4-0.6-4.8-1.1-7.2-1.6
		c-0.5-0.1-1-0.2-1.5-0.3c-1.9-0.4-3.8-0.8-5.7-1.2c-6.7-1.4-13.4-2.6-19.9-3.8c-0.4,0-0.8-0.1-1.2-0.2c-2.6-0.5-5.2-0.9-7.8-1.4
		c-7.8-1.3-15.5-2.6-23-3.8c-31.5-5.2-61.2-10.3-89.6-21.3"/>
	<path class="st2" d="M1266,2002.7c5.2-30.4,13.9-57.1,22.4-89.6c4.5-17.2,8.9-36.2,12.7-58.2c10.6-61.3-16.6-180-74.9-291.3
		c-34.6-66.1-80.1-129.6-135.2-177c-1.8-1.5-3.6-3-5.4-4.5c-15-12.5-30.8-23.8-47.2-33.7c-136-81.6-238.6-42.8-330.2-108.6
		c-1.4-1-2.7-2-4.1-3.1c-0.2-0.2-0.5-0.4-0.7-0.6c-28.8-21.9-56.5-54.7-83.9-105.4c-115.7-214,93.8-469.1,87.5-551.7
		c-1.4-17.9-11-32.8-25.6-45.8c-0.4-0.4-0.9-0.8-1.4-1.2c-22.2-19.2-55.5-34.3-89.2-48.9c0,0,0,0,0,0
		c-36.1-15.8-72.6-30.9-96.8-50.1c-0.8-0.6-1.5-1.2-2.3-1.9c-0.4-0.3-0.8-0.7-1.2-1c-5.9-5.1-11-10.4-14.9-16.2
		c-36.1-52.6-57.3-197.1-0.5-321.9c12-26.5,27.6-52.1,47.4-75.8c4-4.8,8-9.4,12.1-13.8"/>
	<path class="st2" d="M2000,526.6c-32.3-80.9-23-166.2,0-244.8"/>
	<path class="st2" d="M2000,206.7c-45.5,109.4-86,245.5-19.7,368c6.6,12.1,13.1,23.2,19.7,33.3"/>
	<path class="st2" d="M2000,692.4c-25-21.6-49.2-52.3-73.1-96.6c-6.4-11.9-11.9-24-16.4-36.1c-28.3-76.1-20.6-155.9,0-230
		c24.5-88.1,67.3-168.4,89.6-225.5"/>
	<path class="st2" d="M2000,10c-2-2.5-4.2-5-6.6-7.3"/>
	<path class="st2" d="M1961.3,2.7c12.1,12,19.8,25.6,21,41.5c2.8,36.6-36.9,107.2-71.9,193.2c-43.8,107.7-80,239.4-15.7,358.4
		c5.2,9.6,10.4,18.6,15.7,27c29,46.5,58.6,74.6,89.6,92.6"/>
	<text transform="matrix(1 0 0 1 225.5564 325.8516)" class="st3 st4 st5">RUSTY</text>
	<text transform="matrix(1 0 0 1 951.5632 325.8516)" class="st6 st4 st5">NYMPH</text>
	<text transform="matrix(1 0 0 1 951.5632 325.8516)" class="st7 st4 st5">NYMPH</text>
	<path class="st2" d="M2000,156.9c-51.5,115.8-118.1,275.9-41.3,417.8c13.6,25.2,27.4,46,41.3,63.2"/>
	<path class="st2" d="M2000,749.5c-31.2-11.5-60.8-29.8-89.6-62.4c-16.7-19-33.2-42.9-49.5-73.1c-13.9-25.8-23.1-52.1-28.4-78.7
		c-0.4-1.8-0.7-3.6-1-5.3c-0.4-1.9-0.7-3.8-1-5.7c-0.2-1.1-0.4-2.2-0.6-3.3c-0.3-1.9-0.6-3.8-0.8-5.7c-0.2-1.5-0.4-3-0.6-4.5
		c-0.1-1-0.2-2.1-0.4-3.1c-0.1-0.8-0.2-1.5-0.2-2.3c-0.1-1.2-0.2-2.4-0.4-3.6c0-0.2,0-0.5-0.1-0.7c0-0.5-0.1-1-0.1-1.5
		c-0.2-2.4-0.4-4.7-0.5-7.1c-7.1-114.2,45.3-228.7,83.7-314.7c21.3-47.7,38.3-86.5,38.3-111.6c0-0.2,0-0.4,0-0.6c0-0.2,0-0.3,0-0.4
		c0-0.4,0-0.9,0-1.4c0-0.5,0-0.9-0.1-1.4c-1.9-24.7-19.4-43.7-44.2-59.8"/>
	<rect x="89.6" y="92.3" class="st2" width="1820.9" height="1820.9"/>
	<rect y="2.7" class="st2" width="2000" height="2000"/>
</g>
<g id="Layer_3">
	<path class="st3" d="M1777.8,854.8c0.2,100.3-39.4,196.6-110.3,267.6l-103,103l-535,535l-535-534.9l-103-103
		c-147.3-147.2-147.3-387.8,0-535c147.9-147.2,387-147.2,534.9,0l103,103.2l103.1-103.2c147.2-147.2,387.9-147.2,535,0
		C1738.4,658.4,1778.1,754.6,1777.8,854.8z"/>
</g>
</svg>
