<svg xmlns="http://www.w3.org/2000/svg" xmlns:xlink="http://www.w3.org/1999/xlink" viewBox="0 0 500 500"><defs><style>.cls-1,.cls-2,.cls-3,.cls-5,.cls-6{stroke:#231f20;}.cls-1,.cls-2,.cls-3,.cls-6{stroke-miterlimit:10;}.cls-1{fill:url(#linear-gradient);}.cls-2,.cls-5{fill:#fff;}.cls-2{opacity:0.5;}.cls-3,.cls-6{fill:none;}.cls-4{font-size:54px;font-family:Poppins-Black, Poppins;font-weight:800;}.cls-4,.cls-7{fill:#231f20;}.cls-5{stroke-miterlimit:4;}.cls-6{stroke-width:8px;}</style><linearGradient id="linear-gradient" x1="-6.63" y1="502.29" x2="507.69" y2="-12.03" gradientUnits="userSpaceOnUse"><stop offset="0" stop-color="#2e3192"/><stop offset="1" stop-color="#ed1c24"/></linearGradient></defs><title>stickerart3</title><g id="Layer_1" data-name="Layer 1"><g id="Layer_2" data-name="Layer 2"><rect class="cls-1" x="-8.92" y="-9.73" width="518.91" height="509.73"/></g><path class="cls-2" d="M689.17,314.05c-4.69,27.19-13.28,35.48-8.59,68.38l-54.2,19.62c-4.68-32.9,3.91-41.19,8.6-68.38s-20.32-99.39-65.63-126.58-75.78-.94-104.69-54.38S488.1,35.5,486.54,14.87s-46.88-25.31-57.81-41.25S412.32-92,440.45-125.77s66.34-70.32,66.34-70.32l27.44,1.41s-11.47,15.53-39.59,49.29S472-61.94,482.92-46s56.25,20.62,57.81,41.25S490,79.64,518.86,133.09s59.37,27.19,104.69,54.38S693.86,286.86,689.17,314.05Z"/><path class="cls-2" d="M189.77,505.72c-4.69,27.19-13.28,35.48-8.59,68.38L127,593.72c-4.68-32.9,3.91-41.19,8.6-68.38S115.26,426,70,398.76s-75.78-.94-104.69-54.38S-11.3,227.17-12.86,206.54s-46.88-25.31-57.81-41.25S-87.08,99.65-58.95,65.9,7.39-4.42,7.39-4.42L34.83-3S23.36,12.52-4.76,46.28s-22.66,83.45-11.72,99.39,56.25,20.62,57.81,41.25S-9.45,271.31,19.46,324.76,78.83,352,124.15,379.14,194.46,478.53,189.77,505.72Z"/><path class="cls-2" d="M578.63,374.59c-4.69,27.19-13.28,35.48-8.59,68.38l-54.2,19.62c-4.68-32.9,3.91-41.19,8.6-68.38s-20.32-99.39-65.63-126.58-75.78-.94-104.69-54.38S377.56,96,376,75.41,329.12,50.1,318.19,34.16s-16.41-65.64,11.72-99.39,66.34-70.32,66.34-70.32l27.44,1.41s-11.47,15.53-39.59,49.29S361.44-1.4,372.38,14.54s56.25,20.62,57.81,41.25-50.78,84.39-21.87,137.84S467.69,220.82,513,248,583.32,347.4,578.63,374.59Z"/><path class="cls-3" d="M455.36-87.69s-51.09-25.68-79.22,8.08S353.48,3.84,364.42,19.78,420.67,40.41,422.23,61s-50.78,84.39-21.87,137.84,59.37,27.19,104.69,54.38,70.31,99.39,65.62,126.58-13.28,35.48-8.59,68.38"/><path class="cls-3" d="M451.2-90.79s-55-22.58-83.08,11.18S345.46,3.84,356.4,19.78,412.65,40.41,414.21,61s-50.78,84.39-21.87,137.84S451.71,226.06,497,253.25s70.31,99.39,65.62,126.58-13.28,35.48-8.59,68.38"/><path class="cls-3" d="M455.36-87.69s-43.14-30.92-71.26,2.84S361.44-1.4,372.38,14.54s56.25,20.63,57.81,41.26-50.78,84.38-21.87,137.83S467.69,220.82,513,248s70.32,99.39,65.63,126.59S565.35,410.08,570,443"/><path class="cls-3" d="M441.55-88.9S387.82-108.8,359.69-75,337,8.41,348,24.35,404.23,45,405.79,65.61,355,150,383.91,203.44s59.38,27.19,104.69,54.38,70.31,99.39,65.63,126.59-13.29,35.48-8.6,68.37"/><path class="cls-3" d="M427.94-82.29s-53.47-21.27-81.59,12.49-22.66,83.45-11.72,99.39,56.25,20.63,57.81,41.25-50.78,84.39-21.87,137.84,59.37,27.19,104.69,54.38,70.31,99.39,65.62,126.58S527.6,425.12,532.29,458"/><path class="cls-3" d="M417.15-79.17s-50.7-24.39-78.82,9.37-22.66,83.45-11.72,99.39,56.25,20.63,57.81,41.25-50.78,84.39-21.87,137.84,59.37,27.19,104.69,54.38,70.31,99.39,65.62,126.58-13.28,35.48-8.59,68.38"/><path class="cls-3" d="M433.59-79s-51.16-29.78-79.28,4S331.65,8.41,342.59,24.35,398.84,45,400.4,65.61,349.62,150,378.53,203.44s59.37,27.19,104.68,54.38,70.32,99.39,65.63,126.59-13.28,35.48-8.6,68.37"/><path class="cls-2" d="M460.13,431.62c-4.69,27.19-13.28,35.48-8.59,68.38l-54.2,19.62c-4.68-32.9,3.91-41.19,8.6-68.38s-20.32-99.39-65.63-126.58-75.78-.94-104.69-54.38,23.44-117.21,21.88-137.84-46.88-25.31-57.81-41.25S183.28,25.55,211.41-8.2s66.34-70.32,66.34-70.32l27.44,1.41S293.72-61.58,265.6-27.82s-22.66,83.45-11.72,99.39,56.25,20.62,57.81,41.25-50.78,84.39-21.87,137.84S349.19,277.85,394.51,305,464.82,404.43,460.13,431.62Z"/><path class="cls-3" d="M405.62-96S358-99,329.9-65.23s-22.65,83.45-11.72,99.39S374.43,54.79,376,75.42s-50.78,84.38-21.88,137.83,59.38,27.19,104.69,54.38S529.12,367,524.43,394.22s-13.28,35.48-8.59,68.37"/><path class="cls-3" d="M336.4-30.66s-51.1-25.68-79.23,8.08-22.65,83.45-11.72,99.39,56.25,20.63,57.82,41.25-50.78,84.39-21.88,137.84,59.38,27.19,104.69,54.38,70.31,99.39,65.62,126.58-13.28,35.48-8.59,68.38"/><path class="cls-3" d="M332.23-33.76s-55-22.58-83.08,11.18S226.5,60.87,237.43,76.81s56.25,20.63,57.82,41.25-50.78,84.39-21.88,137.84,59.38,27.19,104.69,54.38,70.31,99.39,65.62,126.58-13.28,35.48-8.59,68.38"/><path class="cls-2" d="M325.28,463.52C320.59,490.71,312,499,316.69,531.9l-54.2,19.62c-4.68-32.9,3.91-41.19,8.6-68.38s-20.32-99.39-65.63-126.58-75.78-.94-104.69-54.38S124.21,185,122.65,164.34,75.77,139,64.84,123.09,48.43,57.45,76.56,23.7,142.9-46.62,142.9-46.62l27.44,1.41S158.87-29.68,130.75,4.08,108.09,87.53,119,103.47s56.25,20.62,57.81,41.25S126.06,229.11,155,282.56s59.37,27.19,104.69,54.38S330,436.33,325.28,463.52Z"/><path class="cls-3" d="M336.4-30.66s-43.14-30.92-71.27,2.84-22.66,83.45-11.72,99.39,56.25,20.63,57.81,41.26-50.78,84.39-21.87,137.83S348.72,277.85,394,305s70.31,99.4,65.62,126.59-13.28,35.48-8.59,68.37"/><path class="cls-3" d="M322.58-31.87S268.85-51.77,240.73-18,218.07,65.44,229,81.38s56.25,20.63,57.81,41.26S236,207,265,260.47s59.37,27.19,104.68,54.38,70.32,99.4,65.63,126.59-13.28,35.48-8.59,68.37"/><path class="cls-3" d="M309-25.26s-53.47-21.27-81.6,12.49-22.65,83.45-11.72,99.39,56.25,20.63,57.82,41.25S222.7,212.26,251.6,265.71,311,292.9,356.29,320.09s70.31,99.39,65.62,126.58-13.28,35.48-8.59,68.38"/><path class="cls-3" d="M298.18-22.14s-50.69-24.39-78.82,9.37-22.65,83.45-11.72,99.39,56.25,20.63,57.82,41.25-50.79,84.39-21.88,137.84S303,292.9,348.27,320.09s70.31,99.39,65.62,126.58-13.28,35.48-8.59,68.38"/><path class="cls-3" d="M314.63-22s-51.17-29.78-79.29,4-22.66,83.45-11.72,99.39,56.25,20.63,57.81,41.26S230.65,207,259.56,260.47s59.37,27.19,104.69,54.38,70.31,99.4,65.62,126.59-13.28,35.48-8.59,68.37"/><path class="cls-3" d="M286.65-38.93S239.06-42,210.94-8.2s-22.66,83.45-11.72,99.39,56.25,20.63,57.81,41.26-50.78,84.39-21.87,137.83,59.37,27.19,104.68,54.38,70.32,99.4,65.63,126.59-13.28,35.48-8.6,68.37"/><path class="cls-3" d="M187.64-15.95s-37.29-9-65.41,24.79-22.66,83.45-11.72,99.39,56.25,20.63,57.81,41.26-50.78,84.38-21.87,137.83,59.37,27.19,104.69,54.38,70.31,99.39,65.62,126.59-13.28,35.48-8.59,68.37"/><path class="cls-3" d="M197.29-2.34s-55-22.58-83.08,11.18-22.66,83.45-11.72,99.39,56.25,20.63,57.81,41.26-50.78,84.38-21.87,137.83,59.37,27.19,104.69,54.38,70.31,99.39,65.62,126.59-13.28,35.48-8.59,68.37"/><path class="cls-3" d="M184.86-20.45s-51,.11-79.08,33.86S83.13,96.86,94.07,112.8s56.25,20.63,57.81,41.26S101.1,238.45,130,291.89s59.38,27.19,104.69,54.39S305,445.67,300.32,472.86s-13.29,35.48-8.6,68.37"/><path class="cls-3" d="M171.66-20.45s-51.1,5.34-79.22,39.1S69.78,102.1,80.72,118,137,138.67,138.53,159.3s-50.78,84.38-21.87,137.83S176,324.32,221.34,351.51,291.66,450.9,287,478.1s-13.28,35.48-8.59,68.37"/><path class="cls-3" d="M148.86-27.2S112.54-15.11,84.42,18.65,61.76,102.1,72.7,118,129,138.67,130.51,159.3s-50.78,84.38-21.87,137.83S168,324.32,213.32,351.51,283.64,450.9,279,478.1s-13.28,35.48-8.59,68.37"/><path class="cls-3" d="M168-31.87S128.52-20.34,100.4,13.41,77.74,96.86,88.68,112.8s56.25,20.63,57.81,41.26-50.78,84.39-21.88,137.83S184,319.08,229.3,346.28s70.31,99.39,65.63,126.58-13.28,35.48-8.6,68.37"/><path class="cls-3" d="M151.71-7.51s-47.59-3-75.72,30.73-22.65,83.45-11.72,99.39,56.25,20.63,57.82,41.26S71.31,248.26,100.21,301.7s59.38,27.19,104.69,54.39,70.31,99.39,65.62,126.58-13.28,35.48-8.59,68.37"/><path class="cls-3" d="M31.3-4.42s-15.89,22.18-44,55.93S-35.37,135-24.43,150.9s56.25,20.63,57.81,41.26S-17.4,276.55,11.5,330s59.38,27.19,104.69,54.39S186.5,483.77,181.82,511s-13.28,35.48-8.6,68.37"/><path class="cls-3" d="M28.29-4.42s-20.9,22.18-49,55.93S-43.39,135-32.45,150.9s56.25,20.63,57.81,41.26S-25.42,276.55,3.48,330s59.38,27.19,104.69,54.39S178.48,483.77,173.8,511s-13.28,35.48-8.6,68.37"/><path class="cls-3" d="M34.84-3S23.37,12.52-4.76,46.27s-22.65,83.45-11.72,99.39,56.25,20.63,57.82,41.26S-9.44,271.31,19.46,324.75,78.84,352,124.15,379.14s70.31,99.39,65.62,126.58-13.28,35.48-8.59,68.37"/><path class="cls-3" d="M26.23-4.42S-1,22.33-29.16,56.08s-22.66,83.45-11.72,99.39,56.25,20.63,57.81,41.26S-33.85,281.12-4.94,334.56,54.43,361.76,99.75,389s70.31,99.39,65.62,126.58S152.09,551,156.78,583.9"/><path class="cls-3" d="M15-4.42s-29.36,32-57.49,65.74-22.65,83.45-11.71,99.39S2,181.34,3.59,202-47.19,286.36-18.29,339.8,41.09,367,86.4,394.19,156.71,493.58,152,520.77s-13.29,35.48-8.6,68.37"/><path class="cls-3" d="M9.36-3S-22.4,27.57-50.53,61.32s-22.65,83.45-11.71,99.39S-6,181.34-4.43,202-55.21,286.36-26.31,339.8,33.07,367,78.38,394.19,148.69,493.58,144,520.77s-13.29,35.48-8.6,68.37"/><path class="cls-3" d="M19.2-3S-6.42,22.33-34.55,56.08s-22.65,83.45-11.72,99.39S10,176.1,11.55,196.73s-50.79,84.39-21.88,137.83S49.05,361.76,94.36,389,164.67,488.34,160,515.53,146.7,551,151.39,583.9"/><path class="cls-3" d="M7.39-4.42S-30.83,32.14-58.95,65.89s-22.66,83.45-11.72,99.39,56.25,20.63,57.81,41.26-50.78,84.39-21.87,137.83S24.64,371.57,70,398.76s70.31,99.39,65.62,126.58S122.3,560.82,127,593.71"/><path class="cls-3" d="M565.91-148s-51.1-25.68-79.23,8.07S464-56.46,475-40.52,531.21-19.89,532.78.74,482,85.13,510.9,138.57s59.38,27.2,104.69,54.39,70.31,99.39,65.62,126.58-13.28,35.48-8.59,68.37"/><path class="cls-3" d="M193-20.45s-34.72-9.7-62.84,24.05S107.53,87.05,118.47,103s56.25,20.63,57.81,41.26-50.78,84.39-21.87,137.83,59.37,27.19,104.68,54.39,70.32,99.39,65.63,126.58-13.28,35.48-8.6,68.37"/><path class="cls-3" d="M561.74-151.09s-54.95-22.57-83.08,11.18S456-56.46,466.94-40.52,523.19-19.89,524.76.74,474,85.13,502.88,138.57s59.38,27.2,104.69,54.39,70.31,99.39,65.62,126.58S659.91,355,664.6,387.91"/><path class="cls-3" d="M565.91-148s-43.15-30.92-71.27,2.84S472-61.69,482.92-45.75,539.17-25.13,540.73-4.5,490,79.89,518.86,133.34s59.37,27.19,104.68,54.38,70.32,99.39,65.63,126.58-13.28,35.48-8.59,68.38"/><path class="cls-3" d="M552.09-149.2s-53.73-19.89-81.85,13.87-22.66,83.45-11.72,99.39,56.25,20.62,57.81,41.25S465.55,89.7,494.45,143.15s59.38,27.19,104.69,54.38,70.31,99.39,65.63,126.58-13.28,35.48-8.6,68.38"/><path class="cls-3" d="M538.48-142.59S485-163.85,456.89-130.1s-22.66,83.45-11.72,99.39S501.42-10.08,503,10.55,452.2,94.94,481.11,148.38s59.37,27.2,104.69,54.39,70.31,99.39,65.62,126.58-13.28,35.48-8.59,68.37"/><path class="cls-3" d="M527.69-139.47S477-163.85,448.87-130.1s-22.66,83.45-11.72,99.39S493.4-10.08,495,10.55s-50.78,84.39-21.87,137.83,59.37,27.2,104.69,54.39,70.31,99.39,65.62,126.58-13.28,35.48-8.59,68.37"/><text class="cls-4" transform="translate(55.92 80.93)">RUSTY<tspan class="cls-5" x="181.44" y="0">NYMPH</tspan></text><path class="cls-3" d="M544.13-139.31s-51.16-29.78-79.28,4-22.66,83.45-11.72,99.39,56.25,20.62,57.81,41.25S460.16,89.7,489.07,143.15s59.37,27.19,104.68,54.38,70.32,99.39,65.63,126.58-13.28,35.48-8.59,68.38"/><path class="cls-3" d="M516.16-156.26s-47.59-3-75.71,30.74-22.66,83.45-11.72,99.39S485-5.51,486.54,15.12,435.76,99.51,464.66,153,524,180.15,569.35,207.34,639.66,306.73,635,333.92s-13.28,35.48-8.6,68.38"/><rect class="cls-6" x="21.95" y="22.55" width="455.06" height="455.06"/><rect class="cls-6" x="-0.44" y="0.17" width="499.83" height="499.83"/></g><g id="Layer_3" data-name="Layer 3"><path class="cls-7" d="M443.86,213.16A94.32,94.32,0,0,1,416.29,280l-25.74,25.74L256.86,439.43,123.16,305.76,97.42,280c-36.75-36.78-36.75-96.94,0-133.69a94.76,94.76,0,0,1,133.7,0l25.74,25.73,25.74-25.73c36.78-36.79,96.94-36.79,133.69,0A94.2,94.2,0,0,1,443.86,213.16Z"/></g></svg>