<svg id="Layer_1" data-name="Layer 1" xmlns="http://www.w3.org/2000/svg" viewBox="0 0 206.9 99.6"><defs><style>.cls-1{fill:#231f20;}.cls-2{fill:#fff;}.cls-3{fill:none;stroke:#fff;stroke-linecap:round;stroke-miterlimit:10;stroke-width:2px;}</style></defs>
<path class="cls-1" d="M1.67,30A40.06,40.06,0,0,1,23.79,4.33C39-2,48.51,10.61,73.14,11.72c16.27.73,16.73-4.24,40.86-8.21C131.75.58,175.38-6.6,196.52,15.16c2,2,11.58,12.91,9.79,24.64-1.27,8.34-7.72,12.85-17,20.21C160.38,82.9,166.35,84,154.4,90.55,122.37,108,88,95.23,82.07,93a64.74,64.74,0,0,1-7.93-3.51c-5.36-2.87-5.82-3.77-10-6a52.41,52.41,0,0,0-9.67-3.81c-14.2-4.39-20.81-.46-33.48-4.62-4.08-1.34-7.89-2.58-11.62-5.72C-1.86,60-1.76,42.23,1.67,30Z" transform="translate(0.37 0)"/><path class="cls-2" d="M42.61,44.27a1,1,0,0,1-.2.21.46.46,0,0,1-.27.08.71.71,0,0,1-.41-.16c-.15-.1-.34-.22-.56-.34a4.49,4.49,0,0,0-.81-.34,4,4,0,0,0-1.18-.16,3.89,3.89,0,0,0-1.65.33,3.17,3.17,0,0,0-1.19,1,4.52,4.52,0,0,0-.73,1.51,7.59,7.59,0,0,0-.24,2,7.38,7.38,0,0,0,.26,2,4.39,4.39,0,0,0,.74,1.5,3.36,3.36,0,0,0,1.16.93,3.44,3.44,0,0,0,1.53.32,3.67,3.67,0,0,0,2.21-.62,7,7,0,0,0,.57-.43.71.71,0,0,1,.46-.19.49.49,0,0,1,.42.21l.62.81a4.61,4.61,0,0,1-.94.88,5.86,5.86,0,0,1-1.13.61,6.63,6.63,0,0,1-1.27.36,7.53,7.53,0,0,1-1.35.11,5.59,5.59,0,0,1-2.21-.44,4.94,4.94,0,0,1-1.77-1.27,6,6,0,0,1-1.17-2,9,9,0,0,1,0-5.37,6,6,0,0,1,1.15-2.07,5.22,5.22,0,0,1,1.86-1.36A6.19,6.19,0,0,1,39,41.84a6,6,0,0,1,2.36.43,5.67,5.67,0,0,1,1.81,1.22Z" transform="translate(0.37 0)"/><path class="cls-2" d="M45.41,43.81a7.22,7.22,0,0,1,2.26-1.51,7,7,0,0,1,2.69-.5,4.86,4.86,0,0,1,1.89.35,3.85,3.85,0,0,1,1.39,1,4.06,4.06,0,0,1,.85,1.51,6.33,6.33,0,0,1,.29,2v8.1h-1a1,1,0,0,1-.5-.11.67.67,0,0,1-.27-.42L52.77,53a11.51,11.51,0,0,1-1,.82,5.41,5.41,0,0,1-1,.6,5.68,5.68,0,0,1-1.12.38,6,6,0,0,1-1.32.13A4.54,4.54,0,0,1,47,54.68a3.18,3.18,0,0,1-1.13-.62,2.78,2.78,0,0,1-.76-1,3.6,3.6,0,0,1-.28-1.49,2.81,2.81,0,0,1,.41-1.44,3.59,3.59,0,0,1,1.34-1.23A8.79,8.79,0,0,1,49,48a18.12,18.12,0,0,1,3.65-.39v-1A3.35,3.35,0,0,0,52,44.37a2.31,2.31,0,0,0-1.86-.76,3.93,3.93,0,0,0-1.38.21,5.37,5.37,0,0,0-1,.46l-.7.46a1,1,0,0,1-.58.21.65.65,0,0,1-.39-.12,1.06,1.06,0,0,1-.27-.29ZM52.6,49a18.08,18.08,0,0,0-2.62.24,7.32,7.32,0,0,0-1.76.51,2.47,2.47,0,0,0-1,.74,1.61,1.61,0,0,0-.31,1,2.06,2.06,0,0,0,.16.86,1.66,1.66,0,0,0,.44.59,1.8,1.8,0,0,0,.66.34,3.07,3.07,0,0,0,.82.11,4.43,4.43,0,0,0,1.07-.12,4,4,0,0,0,.92-.34,5.35,5.35,0,0,0,.83-.54,8.4,8.4,0,0,0,.77-.71V49Z" transform="translate(0.37 0)"/><path class="cls-2" d="M65.54,44.11a.5.5,0,0,1-.46.28.87.87,0,0,1-.42-.14l-.58-.31a5.06,5.06,0,0,0-.82-.31,3.77,3.77,0,0,0-1.12-.14,3.47,3.47,0,0,0-1,.14,2.65,2.65,0,0,0-.77.39,1.79,1.79,0,0,0-.49.58,1.59,1.59,0,0,0-.17.72,1.18,1.18,0,0,0,.28.81,2.72,2.72,0,0,0,.74.56,6.38,6.38,0,0,0,1.05.42L63,47.5c.41.14.81.29,1.21.46a4.93,4.93,0,0,1,1,.62,2.72,2.72,0,0,1,1,2.23A4.14,4.14,0,0,1,66,52.43,3.5,3.5,0,0,1,65,53.72a4.57,4.57,0,0,1-1.5.86,6.1,6.1,0,0,1-2.05.31,6.37,6.37,0,0,1-2.4-.43,6.13,6.13,0,0,1-1.83-1.11l.52-.85a.82.82,0,0,1,.24-.25.63.63,0,0,1,.35-.09.85.85,0,0,1,.47.17c.17.12.37.25.61.39a5.11,5.11,0,0,0,.87.39,3.88,3.88,0,0,0,1.27.18,3.6,3.6,0,0,0,1.14-.17,2.12,2.12,0,0,0,.81-.46A1.9,1.9,0,0,0,64,52a2.15,2.15,0,0,0,.16-.8,1.32,1.32,0,0,0-.28-.87,2.6,2.6,0,0,0-.74-.59,6.16,6.16,0,0,0-1.06-.42l-1.21-.38a12.56,12.56,0,0,1-1.21-.46,4.46,4.46,0,0,1-1.06-.64,2.81,2.81,0,0,1-.74-1,3.2,3.2,0,0,1-.28-1.38,3.41,3.41,0,0,1,1.18-2.57,4.31,4.31,0,0,1,1.41-.81,5.67,5.67,0,0,1,1.91-.3,6.08,6.08,0,0,1,2.24.39A5.23,5.23,0,0,1,66,43.29Z" transform="translate(0.37 0)"/><path class="cls-2" d="M79.26,52.91a4.18,4.18,0,0,1-1,.87,5.88,5.88,0,0,1-1.23.61,7.78,7.78,0,0,1-1.36.36,8.24,8.24,0,0,1-1.39.12,6.55,6.55,0,0,1-2.42-.44A5.28,5.28,0,0,1,70,53.13,6.1,6.1,0,0,1,68.7,51a8.62,8.62,0,0,1-.45-2.9,7.46,7.46,0,0,1,.41-2.48,5.73,5.73,0,0,1,1.17-2,5.59,5.59,0,0,1,1.86-1.33,6.13,6.13,0,0,1,2.48-.48,5.82,5.82,0,0,1,2.11.38A4.76,4.76,0,0,1,78,43.31a5.13,5.13,0,0,1,1.11,1.77,6.69,6.69,0,0,1,.4,2.41,1.53,1.53,0,0,1-.11.7.45.45,0,0,1-.42.17H70.48a7.83,7.83,0,0,0,.33,2.09,4.07,4.07,0,0,0,.82,1.48,3.34,3.34,0,0,0,1.25.89,4.18,4.18,0,0,0,1.62.29,4.7,4.7,0,0,0,1.44-.19,7,7,0,0,0,1-.42,7.22,7.22,0,0,0,.73-.42,1,1,0,0,1,.51-.19.5.5,0,0,1,.43.21ZM77.46,47a4.27,4.27,0,0,0-.22-1.42,3.2,3.2,0,0,0-.64-1.11,3,3,0,0,0-1-.73,3.83,3.83,0,0,0-3.89.67A4.36,4.36,0,0,0,70.53,47h6.93Z" transform="translate(0.37 0)"/><path class="cls-2" d="M96,44.11a.5.5,0,0,1-.46.28.87.87,0,0,1-.42-.14l-.58-.31a5.06,5.06,0,0,0-.82-.31,3.77,3.77,0,0,0-1.12-.14,3.47,3.47,0,0,0-1,.14,2.65,2.65,0,0,0-.77.39,1.79,1.79,0,0,0-.49.58,1.59,1.59,0,0,0-.17.72,1.18,1.18,0,0,0,.28.81,2.72,2.72,0,0,0,.74.56,6.38,6.38,0,0,0,1,.42l1.21.39c.41.14.81.29,1.21.46a4.93,4.93,0,0,1,1,.62,2.72,2.72,0,0,1,1,2.23,4.14,4.14,0,0,1-.31,1.62,3.5,3.5,0,0,1-.93,1.29,4.57,4.57,0,0,1-1.5.86,6.1,6.1,0,0,1-2,.31,6.37,6.37,0,0,1-2.4-.43,6.13,6.13,0,0,1-1.83-1.11l.52-.85a.82.82,0,0,1,.24-.25.63.63,0,0,1,.35-.09.85.85,0,0,1,.47.17c.17.12.37.25.61.39a5.11,5.11,0,0,0,.87.39,3.88,3.88,0,0,0,1.27.18,3.6,3.6,0,0,0,1.14-.17,2.12,2.12,0,0,0,.81-.46,1.9,1.9,0,0,0,.48-.66,2.15,2.15,0,0,0,.16-.8,1.32,1.32,0,0,0-.28-.87,2.6,2.6,0,0,0-.74-.59,6.16,6.16,0,0,0-1.06-.42l-1.21-.38a12.56,12.56,0,0,1-1.21-.46A4.46,4.46,0,0,1,89,47.84a2.81,2.81,0,0,1-.74-1A3.22,3.22,0,0,1,88,45.49a3.41,3.41,0,0,1,1.18-2.57,4.31,4.31,0,0,1,1.41-.81,5.67,5.67,0,0,1,1.91-.3,6.08,6.08,0,0,1,2.24.39,5.23,5.23,0,0,1,1.72,1.08Z" transform="translate(0.37 0)"/><path class="cls-2" d="M103.3,54.88A3.06,3.06,0,0,1,101,54a3.33,3.33,0,0,1-.81-2.41V43.88H98.66a.5.5,0,0,1-.34-.12.47.47,0,0,1-.14-.37V42.5l2.07-.26.51-3.91a.53.53,0,0,1,.17-.31.49.49,0,0,1,.34-.12h1.12v4.36h3.66v1.61h-3.66v7.6a1.62,1.62,0,0,0,.39,1.19,1.35,1.35,0,0,0,1,.39,1.87,1.87,0,0,0,.61-.09,2,2,0,0,0,.44-.21c.12-.08.23-.14.32-.21a.42.42,0,0,1,.23-.09.37.37,0,0,1,.31.21l.65,1.06a4,4,0,0,1-1.39.84A4.18,4.18,0,0,1,103.3,54.88Z" transform="translate(0.37 0)"/><path class="cls-2" d="M118.79,42V54.68h-1.32a.56.56,0,0,1-.6-.46l-.17-1.36a7,7,0,0,1-1.85,1.47,4.86,4.86,0,0,1-2.35.56,4.56,4.56,0,0,1-1.83-.34,3.61,3.61,0,0,1-1.33-1,4.14,4.14,0,0,1-.81-1.51,6.73,6.73,0,0,1-.27-2V42h2.22v8.08a3.39,3.39,0,0,0,.66,2.23,2.49,2.49,0,0,0,2,.79,3.79,3.79,0,0,0,1.84-.47,5.75,5.75,0,0,0,1.58-1.29V42h2.22Z" transform="translate(0.37 0)"/><path class="cls-2" d="M132.79,36.27V54.68h-1.33a.56.56,0,0,1-.6-.46l-.2-1.54a7.1,7.1,0,0,1-1.85,1.58,4.7,4.7,0,0,1-2.4.6,4.55,4.55,0,0,1-2-.42,4.07,4.07,0,0,1-1.51-1.23,5.75,5.75,0,0,1-1-2,10.25,10.25,0,0,1-.34-2.79,8.49,8.49,0,0,1,.38-2.61,6.65,6.65,0,0,1,1.07-2.09,4.85,4.85,0,0,1,1.72-1.39,5.17,5.17,0,0,1,2.29-.51,4.62,4.62,0,0,1,2,.39,4.89,4.89,0,0,1,1.48,1.09v-7ZM130.56,45a3.63,3.63,0,0,0-1.35-1.17,3.84,3.84,0,0,0-1.62-.33,3.19,3.19,0,0,0-2.71,1.26,5.91,5.91,0,0,0-.95,3.6,9.26,9.26,0,0,0,.21,2.12,4.12,4.12,0,0,0,.62,1.45,2.37,2.37,0,0,0,1,.83,3.27,3.27,0,0,0,1.36.26,3.66,3.66,0,0,0,1.92-.5,5.39,5.39,0,0,0,1.51-1.41Z" transform="translate(0.37 0)"/><path class="cls-2" d="M147.24,42l-7.06,16.4a1.24,1.24,0,0,1-.28.4.77.77,0,0,1-.52.15h-1.65L140,54,134.82,42h1.92a.74.74,0,0,1,.46.14.64.64,0,0,1,.23.32l3.39,8a9.39,9.39,0,0,1,.34,1.1c.12-.39.24-.76.38-1.11l3.29-8a.72.72,0,0,1,.67-.46h1.74Z" transform="translate(0.37 0)"/><path class="cls-2" d="M171.68,48.69l-6,6.05a1,1,0,0,1-1.4-1.38L169.6,48l-5.36-5.32a1,1,0,0,1,1.38-1.4l6,6A1,1,0,0,1,172,48a.94.94,0,0,1-.28.71" transform="translate(0.37 0)"/><line class="cls-3" x1="154.26" y1="48.02" x2="169.98" y2="48.02"/>
</svg>