<svg id="svg1468" xmlns="http://www.w3.org/2000/svg" viewBox="0 0 134.12 40.8"><defs><style>.cls-1,.cls-2,.cls-3,.cls-4{fill:none;stroke-miterlimit:2.78;}.cls-1,.cls-2,.cls-3,.cls-4,.cls-5{stroke:#fff;}.cls-1{stroke-width:3.12px;}.cls-2{stroke-width:1.6px;}.cls-3{stroke-width:4.34px;}.cls-4{stroke-width:1.91px;}.cls-5{fill:#fff;stroke-linecap:round;stroke-linejoin:round;stroke-width:2.29px;}</style></defs><g id="g2668"><path id="path2656" class="cls-1" d="M125.59,5.57,22.38,24.15,7.43,36.8,25,43.1,129,24.38s9.46-1.51,7.71-11.1C135,4.26,126,5.5,125.59,5.57Z" transform="translate(-4.35 -3.91)"/><path id="path2658" class="cls-2" d="M28.89,41.74s-4.15-.89-4.56-3.41,2.44-5.11,2.44-5.11-3.53-.47-3.53-2.71.18-3.44,1.8-4.59,1.66-2.09,1.66-2.09" transform="translate(-4.35 -3.91)"/><path id="path2662" class="cls-3" d="M9.61,36.09l5.13-.53" transform="translate(-4.35 -3.91)"/><path id="path2664" class="cls-4" d="M26.91,33.48c5.05-.9,108.17-18.66,108.17-18.66" transform="translate(-4.35 -3.91)"/><path id="path2666" class="cls-5" d="M136.35,16.84c-.57,3.71-2.62,5.07-4.57,3s-3.07-6.7-2.49-10.42,2.62-5.06,4.57-3S136.93,13.13,136.35,16.84Z" transform="translate(-4.35 -3.91)"/></g></svg>