<?xml version="1.0" standalone="no"?>
<!DOCTYPE svg PUBLIC "-//W3C//DTD SVG 1.1//EN" "http://www.w3.org/Graphics/SVG/1.1/DTD/svg11.dtd" >
<svg xmlns="http://www.w3.org/2000/svg" xmlns:xlink="http://www.w3.org/1999/xlink" version="1.1">
<metadata>
Created by FontForge 20170910 at Mon Oct 29 05:01:14 2018
 By Jimmy Wärting
Copyright (c) 2018 by Juni Fadil Putra. All rights reserved.
</metadata>
<defs>
<font id="BladeFont" horiz-adv-x="833" >
  <font-face 
    font-family="Blade Font"
    font-weight="400"
    font-stretch="normal"
    units-per-em="1000"
    panose-1="2 0 5 7 9 0 0 2 0 4"
    ascent="800"
    descent="-200"
    x-height="949"
    cap-height="1316"
    bbox="-120.741 -399.737 1718.08 1721.22"
    underline-thickness="50"
    underline-position="-100"
    unicode-range="U+000D-02DD"
  />
<missing-glyph horiz-adv-x="476" 
 />
    <glyph glyph-name=".notdef" horiz-adv-x="476" 
 />
    <glyph glyph-name="NULL" horiz-adv-x="0" 
 />
    <glyph glyph-name="NULL" horiz-adv-x="0" 
 />
    <glyph glyph-name="nonmarkingreturn" unicode="&#xd;" horiz-adv-x="476" 
 />
    <glyph glyph-name="space" unicode=" " horiz-adv-x="476" 
 />
    <glyph glyph-name="e" unicode="e" horiz-adv-x="685" 
d="M416 935q-15 -1 -29.5 -19t-26.5 -59t-21 -106.5t-14 -160.5q-1 -14 0.5 -18.5t12.5 -10.5q37 -24 71.5 -19.5t63.5 27.5t51 60t33.5 79t11 84t-16.5 75t-49.5 52.5t-86.5 15.5zM653 324q-1 -25 -8.5 -58t-23.5 -69t-39.5 -72t-56 -66t-74 -51t-92.5 -27
q-76 -10 -130.5 8t-92.5 55t-61.5 89t-36 110.5t-17 120.5t-4.5 118q0 53 8 112t25.5 116.5t44.5 109t65 89.5t87.5 58.5t111.5 16.5q77 -6 128.5 -24t83 -44.5t45.5 -59t16 -67.5q2 -53 -21.5 -106.5t-64 -95.5t-92.5 -65t-107 -15q-8 1 -13 2.5t-8 1t-4 -4t-1 -11.5
q-3 -41 -4 -103.5t1.5 -128t8 -124t15.5 -92.5q4 -15 10 -22.5t13.5 -9.5t16.5 -1t20 4q36 9 61.5 32.5t44.5 53.5t34 63.5t31 64.5t34.5 55.5t45.5 36.5z" />
    <glyph glyph-name="f" unicode="f" horiz-adv-x="650" 
d="M146 943q17 2 29.5 19t14.5 65q4 88 15 153t38 109q12 20 41 36.5t68 27.5t84 16.5t89 4.5q63 -3 107 -34t66 -74t20.5 -88.5t-29.5 -78.5q-13 -15 -36 -15.5t-41 13t-22.5 41t21.5 68.5q5 7 15 14.5t21 13.5q6 2 8 11t-3 15q-38 43 -73 57.5t-55 10.5
q-27 -5 -42.5 -36.5t-24 -77t-11 -97.5t-2.5 -97q0 -38 10 -58t25 -29t31.5 -11.5t28.5 -3.5t18 -5.5t-1 -17.5t-18.5 -17.5t-24 -6t-25.5 -3t-23 -8.5q-11 -9 -16.5 -53t-8 -107.5t-2 -137.5t1.5 -141.5t2.5 -120.5t1.5 -74q0 -43 3.5 -65.5t13.5 -34t28 -16.5t47 -14
q27 -8 47 -21.5t25.5 -26.5t-8.5 -22.5t-56 -9.5q-218 37 -444 0q-57 0 -53.5 17t51.5 44q28 15 45.5 28.5t27.5 30t14 38t5 52.5q1 28 3.5 83.5t4.5 122.5t1.5 139t-6 134.5t-17 107.5t-31.5 58q-1 0 -12.5 4t-26.5 10.5t-29.5 13.5t-21.5 14t-2.5 12.5t28.5 7.5q10 1 26 3
t39 7z" />
    <glyph glyph-name="g" unicode="g" horiz-adv-x="931" 
d="M401 -23q-28 0 -61 1t-64 0t-56.5 -4t-39.5 -11q-57 -36 -75.5 -72.5t-8.5 -70.5t44 -64t82 -53.5t105.5 -38t114.5 -17.5t109.5 7t90.5 37q55 38 67 74t-4.5 67.5t-54.5 57.5t-83 45t-90 30t-76 12zM425 278q25 0 44.5 20.5t33 55t20 81t7 98t-6 105.5t-20.5 104
q-27 101 -49.5 151t-40.5 60t-31 -13.5t-21.5 -69t-12.5 -107t-3 -127.5t6 -130t15.5 -114.5t25 -82t33.5 -31.5zM207 6q-52 21 -78 61.5t-28.5 87.5t17.5 95t59 83q8 9 3.5 16t-15.5 16q-41 31 -67 76.5t-38 97.5t-10.5 107t17 105t45 92t71.5 69q39 25 86 42t96 24t97.5 2
t91.5 -24q62 -28 112 -81q36 55 73 80t82 25q26 0 50 -19t39 -47.5t17.5 -61.5t-13.5 -61q-17 -30 -38 -31.5t-37.5 11.5t-24 32.5t1.5 31.5q10 13 23 18t23 10t14.5 14t-1.5 30t-23 39t-29 18q-21 0 -43 -15t-40 -38t-29 -51.5t-10 -56.5q27 -57 28 -123t-16 -130
t-48 -121.5t-70 -97.5q-49 -50 -96 -66.5t-89 -12.5t-75.5 21.5t-55.5 34.5q-7 5 -20.5 3t-30 -10t-33 -19.5t-30.5 -24t-23 -25t-9 -21.5q0 -15 26 -24t69.5 -15.5t99 -14t115 -20t118 -32t107 -51t82.5 -77t44 -109.5q7 -47 -15.5 -96t-87.5 -96q-48 -35 -107 -52
t-121.5 -19t-124 9t-114 33t-92.5 53t-59 68.5t-13 80.5t45 89q20 24 45 41t57 27z" />
    <glyph glyph-name="h" unicode="h" horiz-adv-x="913" 
d="M47 1245q-35 6 -40 18t10 25.5t45.5 25.5t65.5 18.5t70.5 5t60.5 -14.5q39 -20 67.5 -66.5t47 -105.5t28.5 -122.5t13 -116.5v-15.5t2 -18.5t7 -8.5t15 14.5q24 35 55.5 60t66.5 36.5t71.5 8.5t70.5 -23q40 -25 62 -74t31 -112.5t8.5 -137.5t-6 -148t-12 -143.5
t-9.5 -125.5t1 -93.5t20 -46.5q7 -5 22 -11t29.5 -14t24 -17.5t6.5 -19.5q-2 -7 -9 -12.5t-23 -5.5q-2 0 -18.5 -0.5t-41.5 0t-56 1t-63 2.5q-7 0 -23 0.5t-36.5 0.5t-41 0.5t-36.5 2.5q-26 3 -27 10.5t22 26.5q7 6 13.5 11t12 11.5t10.5 16.5t10 26t10 59t9.5 103
t7.5 130.5t4 142.5t-0.5 139.5t-6.5 120.5q-8 78 -26.5 108.5t-43.5 21t-54 -55.5t-58 -120l-6 -34.5t-15 -89.5t-18.5 -124t-16.5 -139t-9.5 -134.5t3.5 -109.5q3 -20 9.5 -30.5t15 -16t18.5 -9t20 -9.5q14 -9 19.5 -16t4.5 -13t-7 -10t-14 -6q-14 -5 -37 -4.5t-48.5 3
t-50 5t-42.5 2.5q-11 0 -40 1.5t-63.5 4t-66.5 7t-48.5 10t-10.5 12.5t49 15q22 4 37 31.5t24.5 71t14 100t5.5 118t0 125.5t-2.5 123t-3.5 109.5t-2 85.5q0 73 -2.5 142.5t-11 125.5t-25.5 92.5t-48 42.5z" />
    <glyph glyph-name="i" unicode="i" horiz-adv-x="630" 
d="M83 83q18 8 33.5 7.5t28 -1t21.5 4t15 21t9 50t2 92.5q-1 44 2.5 106.5t6.5 131t3 136.5t-7.5 122.5t-25.5 89.5t-51 38q-24 2 -42.5 12.5t-26.5 23t-2.5 24t28.5 16.5q30 7 71 10t80.5 3.5t71 -1.5t42.5 -6q16 -5 35 -14.5t35.5 -23t27.5 -31.5t11 -40q0 -25 -1.5 -70
t-4 -102.5t-4.5 -122.5t-3.5 -129t-2 -123.5t1.5 -104.5q1 -38 6.5 -58t14.5 -30t21.5 -13.5t28.5 -7t34.5 -10.5t39.5 -25q8 -6 12 -12.5t1 -11.5t-14.5 -8t-33.5 -3h-70t-90.5 -0.5t-98 -0.5t-91.5 -1t-73 -2t-41 -3q-29 0 -42 6.5t-12 16t15 21.5t39 23zM246 1355
q13 0 26 -16t23 -37t14 -42.5t-1 -33.5q-13 -32 -20 -50.5t-14 -27.5t-17 -11.5t-28 -2.5q-41 0 -59 15.5t-21 39t5 51t20 52.5q13 26 29 44.5t43 18.5z" />
    <glyph glyph-name="j" unicode="j" horiz-adv-x="542" 
d="M159 1245q0 44 20.5 65t59.5 33q17 6 33 -2t24 -19q32 -42 29 -85q-2 -26 -8.5 -43t-16 -28.5t-22.5 -18t-26 -10.5q-16 -6 -32.5 0.5t-30 22t-22 37.5t-8.5 48zM54 913q-4 6 -1 12t10 11t16.5 9t18.5 5q108 10 176.5 17t107.5 2t55 -26.5t18.5 -68t-1.5 -122.5t-5 -189
q-1 -107 -5.5 -220.5t-17 -221t-35 -203t-61 -165.5t-94 -109t-133.5 -33q-42 3 -77.5 17.5t-61 40t-39.5 62t-14 81.5q0 22 13 39.5t31.5 28t40.5 13t40 -5.5q21 -9 30.5 -24t9.5 -32.5t-8 -33.5t-22.5 -25.5t-34.5 -10t-44 13.5q-2 -17 7 -34.5t25 -35t36 -32.5t40 -25
q22 -12 36.5 -11.5t23.5 11t14 30.5t10 48q7 50 13 120.5t10 152.5t6.5 171.5t3.5 177t0.5 168.5t-2 147t-4 112t-5.5 63q-3 16 -19 23.5t-35.5 13.5t-40 13.5t-32.5 24.5z" />
    <glyph glyph-name="k" unicode="k" horiz-adv-x="1029" 
d="M41 1309q52 48 162 40q97 -7 150 -30.5t77 -69t27 -116t1 -171.5q-2 -91 -12.5 -188t-23.5 -194q-1 -9 -1 -21t3 -19.5t10 -7.5t20 14q34 36 67 76t62 78t53 72t39 59q13 23 -0.5 34t-38 17t-52 9.5t-42.5 11.5q-10 5 0 16t36 14q29 4 70.5 3.5t81.5 -2.5t72.5 -4.5
t44.5 -3.5q46 -6 66.5 -11.5t23 -10t-8 -8t-26 -6.5t-31.5 -5t-24 -4q-33 -9 -68 -37t-67 -62.5t-60 -69.5t-47 -59t-9 -63.5t37.5 -87.5t66 -101t76 -103.5t68.5 -95t42 -74.5q3 -8 14 -15t25.5 -12.5t29 -10t24.5 -7.5q21 -8 25 -16t-3 -14.5t-20.5 -10.5t-27.5 -4
q-19 0 -48 -0.5t-63.5 -1t-71.5 -1t-71 1.5t-61.5 6.5t-43.5 13.5q-14 8 -7 20.5t33 17.5q67 12 94 30.5t18 37.5q-5 10 -16.5 32t-28 50.5t-36.5 61t-42 63.5t-44.5 57.5t-43.5 44.5q-32 26 -54.5 27t-36 -16.5t-19.5 -49t-4 -70.5q3 -72 2.5 -131.5t4.5 -101.5
q3 -20 5 -30t5.5 -15.5t9 -8.5t15.5 -9q14 -9 19 -16t4 -13t-7 -10t-14 -6q-7 -3 -40 -3t-74.5 0.5t-82.5 0.5t-65 -2q-20 -2 -40.5 -2t-39.5 4q-19 3 -31 11t-15 17t4 17.5t26 12.5q22 4 37 31.5t24.5 71t14 100t6 118t0.5 125.5t-3 123t-3.5 109.5t-1.5 85.5
q0 54 0.5 110.5t-0.5 106.5t-5.5 90t-14.5 62t-26.5 33t-34 17t-33 8t-24 6t-7 11t18.5 23z" />
    <glyph glyph-name="l" unicode="l" horiz-adv-x="560" 
d="M41 1383q33 15 81.5 20t100.5 3t101.5 -11t83.5 -24q31 -14 45 -63t16.5 -122.5t-3.5 -165.5t-16.5 -191.5t-21 -201.5t-17 -194t-6 -169.5t13.5 -128.5q10 -41 29.5 -53.5t43.5 -12.5q15 0 19 -6.5t1 -14.5t-11.5 -15.5t-17.5 -9.5q-18 -6 -46.5 -7t-63 0.5t-72 4
t-73.5 4.5t-67 1.5t-52 -5.5q-36 -8 -49.5 -6.5t-13 9.5t12 22t25.5 30t27.5 33.5t17.5 33.5q13 46 22.5 117.5t16.5 158t11 182t4 189.5t-3 181t-10.5 155t-18.5 112.5t-27 54.5q-13 8 -30.5 15t-34 14t-30 14t-18 14t1.5 15t28 18z" />
    <glyph glyph-name="m" unicode="m" horiz-adv-x="1358" 
d="M124 136q5 19 8 67t3.5 111t-0.5 135.5t-4.5 142t-8 130t-10.5 99.5q-3 17 -10 26t-15.5 14.5t-17.5 8t-15 7t-8 12.5t3 23q4 13 30 23.5t59 18t64 11.5t46 4q20 1 37.5 -4t30 -17.5t20 -34t7.5 -54.5q0 -32 6 -39.5t16 10.5q15 28 31 54.5t35.5 46.5t44.5 32t58 12
q69 0 113 -30.5t70 -86.5q8 -19 12.5 -33.5t9 -20t12 -0.5t22.5 26q21 30 40.5 56t42 46t51 31.5t68.5 11.5q60 0 100.5 -22.5t66 -61t37.5 -91t16 -112t2 -124t-6 -127t-7 -121.5t-1 -107q3 -62 13 -90.5t24 -39.5t29.5 -12.5t29.5 -8.5q26 -14 36 -22t9 -12.5t-10.5 -6
t-22.5 -1.5q-15 0 -45 -1t-67.5 -2t-77.5 -1t-75 2.5t-60.5 7t-32.5 13.5q-12 15 -3 15h29q34 0 49 8.5t19.5 24t2.5 37t-2 48.5q0 43 -1 100t-2.5 120.5t-4.5 131t-7 132.5q-2 24 -3 55.5t-4 64t-8.5 63.5t-15.5 55t-26 37.5t-39 11.5q-22 -2 -45 -23t-45 -63
q-23 -47 -28 -90.5t-6 -100.5q-2 -60 -2.5 -123.5t-1.5 -123t-1 -109.5v-81v-72.5t6 -43.5t20.5 -30t43.5 -33q13 -8 13.5 -16t-25.5 -14q-11 -3 -36.5 -4t-58.5 -1t-69.5 0.5t-69 2t-58 2.5t-36.5 2q-18 2 -4 16.5t47 33.5q10 6 19.5 38.5t17.5 80t14.5 104t11 111t7 101
t2.5 73.5q0 14 -2.5 46.5t-8 73t-13.5 83.5t-19 78.5t-25 58.5t-31 23q-46 0 -73.5 -41t-43 -107t-21 -147.5t-7 -163t-1 -153.5t-3.5 -118q0 -54 0.5 -80.5t2 -38t5.5 -14l12 -7.5q32 -20 34.5 -32.5t-20.5 -18.5q-5 -1 -30.5 -1.5t-63 0t-81 2.5t-85 4.5t-75 6.5
t-50.5 8.5t-12.5 11t39.5 13.5q17 3 26.5 6.5t15.5 10.5t10.5 20t10.5 36z" />
    <glyph glyph-name="n" unicode="n" horiz-adv-x="889" 
d="M135 320q1 63 -0.5 134.5t-4.5 140t-7.5 128t-10.5 98.5q-3 16 -16.5 26.5t-29.5 17.5t-29.5 13t-14.5 14.5t15 21t58 32.5q21 10 47.5 17t54.5 9.5t54.5 -2t47.5 -17.5t33.5 -36t11.5 -58q0 -32 6 -39.5t15 10.5q15 28 31 54.5t35.5 46.5t44.5 32t58 12q72 0 118 -33
t72 -87.5t35.5 -126t10.5 -148.5t-4.5 -154.5t-9.5 -143.5q-3 -56 5 -96.5t21 -69t28 -46.5t25.5 -29.5t14 -16.5t-6.5 -8q-11 -2 -34.5 -1.5t-52.5 2.5t-61.5 4t-62.5 2q-9 0 -34.5 -2t-51 -2.5t-42.5 3.5t-8 18q18 25 27.5 31t14 10.5t6 18t2.5 54.5t5.5 97t9.5 119.5
t9.5 131t6 131t-0.5 120t-10 98.5q-7 36 -19 59.5t-27.5 31.5t-35 -1.5t-40.5 -39.5q-23 -34 -37.5 -88.5t-23.5 -120t-12.5 -136.5t-4.5 -137t-0.5 -121t0.5 -89q0 -46 6.5 -76.5t15 -50t17.5 -29t14.5 -14t5 -6t-10.5 -4.5q-5 -1 -31.5 -2.5t-65.5 -3.5t-84 -4.5t-87 -4.5
q-51 -3 -75 3.5t-28.5 16t7.5 19.5t34 14q23 3 34 30t14.5 65.5t3 81t-0.5 76.5z" />
    <glyph glyph-name="o" unicode="o" horiz-adv-x="739" 
d="M375 45q23 -2 43 21.5t37 64.5q13 33 25.5 85t21.5 113.5t15 128t7.5 129.5t-2.5 117.5t-15 92.5q-20 70 -54 104t-67 34q-26 0 -42.5 -36t-26.5 -95.5t-13.5 -136.5t-3.5 -158q0 -84 3.5 -166.5t12 -148t23 -106.5t36.5 -43zM380 975q34 0 69.5 -3t67.5 -11
q29 -8 53.5 -32t43.5 -59t33.5 -76.5t24 -84.5t14.5 -83.5t6 -71.5q1 -42 -0.5 -94.5t-7.5 -107.5t-18 -108.5t-32.5 -98.5t-50.5 -76.5t-73 -42.5q-34 -8 -69 -11.5t-63 -3.5q-38 0 -68.5 1t-56.5 4.5t-50 10.5t-49 18q-38 17 -61.5 67t-35.5 114.5t-15.5 134t-0.5 125.5
q2 54 7 105.5t9 101.5q5 56 24.5 98.5t48 74t63 53t69 34.5t65.5 18t53 4z" />
    <glyph glyph-name="p" unicode="p" horiz-adv-x="945" 
d="M571 182q21 1 37 35t27.5 89.5t18 125.5t8.5 142.5t-0.5 141t-10 120t-19.5 80.5t-28 23q-17 -6 -35.5 -25.5t-35.5 -48t-31.5 -64t-23.5 -74.5q-12 -55 -16.5 -117t-3 -123t10 -116.5t22.5 -98t34.5 -67t45.5 -23.5zM486 -364q-17 0 -43.5 -0.5t-59 -0.5h-68.5h-72
q-3 0 -29 2t-59.5 6t-67.5 9.5t-52.5 13t-15 15.5t45.5 18q47 10 68.5 37t29.5 69.5t8 102t5 135.5q4 61 6.5 128t4 134t1 132.5t-1.5 125.5q9 48 7.5 98.5t-7.5 92t-14.5 68t-14.5 28.5q-46 14 -58.5 28t-2 26.5t38.5 22.5t63 17q47 10 84.5 7.5t66 -21t49 -55t32.5 -94.5
q2 -8 4.5 -14.5t5.5 -9.5t7 0t8 15q32 88 66.5 139t72.5 62q56 15 103.5 -5t85 -64.5t63.5 -107.5t38.5 -135t10 -147t-22.5 -143.5t-58 -124t-97 -88.5q-53 -30 -94 -30.5t-71.5 15t-51 41t-34 48t-20 36t-8.5 5.5q-3 -10 -5.5 -39t-4 -70t-2.5 -90t-1 -99.5t1.5 -98.5
t5.5 -86q3 -30 16.5 -52.5t29 -39.5t30 -29t19.5 -19.5t-3 -10.5t-38 -3z" />
    <glyph glyph-name="q" unicode="q" horiz-adv-x="906" 
d="M357 185q25 -2 45.5 22.5t35.5 66t24.5 97t12.5 116.5t-0.5 123t-13.5 117q-5 24 -8 48.5t-6.5 47t-9.5 42.5t-17 35q-14 19 -32 30.5t-35.5 11.5t-32.5 -14t-23 -47q-11 -45 -16.5 -114t-6.5 -145.5t3.5 -154t14.5 -139.5t26 -102t39 -41zM429 -362q-30 0 -38.5 3.5
t-3 10.5t20 18.5t30.5 28t29.5 39t17.5 51.5q4 38 8.5 86t7 98.5t4 99.5t1 90t-4 70t-10.5 39q-5 7 -13 -7t-22 -37t-35 -48t-50.5 -39t-69.5 -11.5t-92 34.5q-38 23 -65.5 70.5t-47.5 108t-33 128t-22 132.5q-13 96 10 170t68.5 123t106.5 70t125 9q54 -9 84 -44t42 -96
q5 -27 10 -31.5t7 2.5q5 40 11.5 71t23 51.5t49 30.5t89.5 7q42 -2 79.5 -14.5t64.5 -28.5q33 -17 43 -29t3.5 -21t-26.5 -16t-46 -14q-6 -2 -11 -21t-9 -53t-7.5 -79.5t-6.5 -99.5q-2 -32 -5.5 -86t-7 -120.5t-5.5 -141.5t-0.5 -149.5t8 -144t20 -124.5t35.5 -91.5
t55 -44.5q27 -7 25 -12.5t-24 -10.5t-60 -9t-82.5 -7.5t-91 -5.5t-86 -3.5t-68 -2t-35.5 0.5z" />
    <glyph glyph-name="r" unicode="r" horiz-adv-x="726" 
d="M145 320q0 14 1 61t0 109.5t-4 132t-9.5 127.5t-17.5 96t-28 38q-15 0 -28 4.5t-20.5 11.5t-8 16t9.5 17q5 4 18.5 8t32.5 7t42.5 5t48.5 2q30 0 63 1.5t61 -5t46 -27t17 -64.5q-2 -45 11 -41q14 34 23 59.5t27 44.5q26 26 55 40.5t63 14.5q70 0 117 -61
q35 -46 38.5 -87.5t-12 -74t-42 -53t-52 -23.5t-42 13.5t-11.5 58.5q4 31 23 53.5t55 22.5q7 20 4.5 42.5t-12.5 41.5t-26.5 31.5t-37.5 13t-44.5 -15t-47.5 -51.5q-14 -20 -27 -37t-22 -34t-13 -35.5t-1 -42.5q2 -18 2 -50t-1.5 -73.5t-4 -89t-4.5 -96.5t-3.5 -96
t-0.5 -87.5t5 -72t12 -48.5q17 -37 36 -57t25.5 -29.5t-6 -11t-57.5 -0.5q-20 2 -49.5 2t-70.5 -2q-9 0 -37.5 -4.5t-62.5 -8.5t-67 -6t-50 2.5t-12.5 17t45.5 37.5q20 12 30.5 40t15 64t5 75.5t0.5 73.5z" />
    <glyph glyph-name="s" unicode="s" horiz-adv-x="692" 
d="M33 72v268q0 48 5 72t12.5 31.5t16 0.5t16 -21.5t12.5 -34t5 -36.5q0 -64 18 -111.5t46 -80.5t63.5 -53t71.5 -27q55 -11 81 -3t31.5 29t-6 52t-34 66.5t-51 72t-57 69t-53 57.5t-37.5 36q-50 43 -80 98t-39.5 113t0.5 113.5t40 99t80.5 70t121.5 26.5q25 0 52 -7.5
t54 -20t52.5 -28.5t48.5 -34q6 -5 13 -9.5t13.5 -5.5t11.5 3t8 17q5 17 10.5 33t15.5 17q8 1 15 -11.5t11 -40.5q4 -33 5 -71t0.5 -72t-1 -60t0.5 -35q3 -42 1 -59.5t-7.5 -18t-13 13t-16 34t-17 44.5t-15.5 45.5t-11.5 36.5t-5.5 17q-18 47 -44.5 80t-57 53t-62.5 28t-62 6
q-64 -3 -93.5 -21t-33.5 -45.5t12.5 -62t45.5 -71.5t65 -73.5t71 -68.5t63.5 -56t41.5 -36q55 -50 95 -106.5t61.5 -109t22.5 -96.5t-22 -69q-31 -35 -61 -63.5t-66.5 -43.5t-83.5 -13.5t-112 27.5q-80 31 -145 97q-17 17 -25.5 20t-13.5 -22q-9 -42 -23 -77t-27.5 -49
t-23.5 1.5t-10 75.5z" />
    <glyph glyph-name="t" unicode="t" horiz-adv-x="712" 
d="M93 850q-56 0 -72 9t-8 20t32 21t50 12q17 2 29.5 25t20.5 57.5t12.5 75.5t6.5 78.5t3 66.5t2 40q3 29 11 44t22.5 19.5t37 2t55.5 -8.5q37 -6 58.5 -25.5t32.5 -47.5t13.5 -61.5t1 -68.5t-5 -68.5t-4.5 -60.5q0 -20 6 -33.5t16.5 -21.5t24.5 -11.5t28 -3.5q15 0 31 -5
t27.5 -12t16.5 -15t-1.5 -14.5t-27.5 -10t-60 -0.5q-12 1 -22.5 2t-19 -4t-13.5 -19.5t-6 -44.5q-1 -47 -3 -118t-3 -152t-0.5 -164t5.5 -153t14.5 -118.5t25.5 -61t40 18.5t57 121q1 3 5.5 22.5t11.5 47t15.5 59t16.5 58.5t16 46t13.5 20.5t8.5 -17.5t2 -68
q-6 -170 -45 -254q-15 -29 -50.5 -54t-80.5 -37t-94 -7t-91 36.5t-72 93.5t-36 163q-2 27 -0.5 80.5t2.5 118t0.5 132.5t-6 123.5t-17.5 91t-33 35.5z" />
    <glyph glyph-name="u" unicode="u" horiz-adv-x="945" 
d="M52 890q-12 1 -21.5 9.5t-7.5 19t19 20.5t58 13q24 3 56 6t65 3t65 -4t56.5 -14.5t39 -30t13.5 -50.5q-19 0 -27.5 -17t-10.5 -48t1.5 -72.5t8.5 -88.5t8.5 -98t3.5 -101q-1 -50 -5 -99.5t-8.5 -93.5t-7.5 -81.5t-1 -63.5t11.5 -39.5t29.5 -9.5q24 4 43 19t34 37.5
t27.5 52t24.5 62.5q7 22 14.5 62.5t13.5 93t10 112t5.5 118.5t0 113t-7.5 95.5t-16.5 66.5t-26.5 25q-35 -12 -49.5 -6.5t-14 18t15 26.5t37.5 18l58.5 9t66.5 7t66.5 -1.5t56.5 -15.5t37.5 -35t10.5 -61q-3 -36 -7 -92t-8 -121.5t-6.5 -137.5t-1.5 -141t6 -131t15.5 -107.5
t28 -70.5t43.5 -20q21 4 32.5 0.5t6.5 -9.5t-28.5 -13.5t-72.5 -11.5q-60 -4 -101 2.5t-68.5 22.5t-43.5 40t-26 54q-6 17 -8.5 25t-5 8t-6.5 -7t-13 -21q-28 -48 -66.5 -83.5t-91.5 -51.5q-78 -23 -128 -13t-79 44t-40 88.5t-12 120t5.5 138.5t12.5 144t9 136t-5 115.5
t-29.5 82t-64.5 34.5z" />
    <glyph glyph-name="v" unicode="v" horiz-adv-x="846" 
d="M94 841l-9.5 3t-22 8t-25 12t-18.5 14.5t-2.5 15.5t23.5 16q5 2 27 5t53.5 5.5t69.5 4.5t74.5 2t68 -1.5t51 -6.5t23 -13t-16.5 -20q-16 -10 -25.5 -10.5t-12 -6.5t2 -24.5t16.5 -64.5q10 -37 26 -87t34 -102t36 -101t32 -85l10.5 -28t9 -15t10 5t12.5 32
q12 43 29.5 104.5t36.5 127t38 128.5t34 110q6 16 -8 20t-36 5q-18 0 -35 6.5t-24.5 14.5t-1.5 16t33 13q25 3 51.5 4t50 1t42.5 -1t30 -1q33 -2 44 -7t7 -12t-18 -15t-29 -14.5t-27.5 -11t-12.5 -5.5q-22 -23 -44 -73t-43.5 -116t-42.5 -142.5t-41 -153t-38.5 -147
t-35.5 -125t-33 -87.5t-29 -33q-27 -1 -41.5 0.5t-23.5 11t-15.5 29.5t-17.5 56q-17 56 -40.5 131t-48.5 155t-50 159t-47 142t-38 104.5t-22 47.5z" />
    <glyph glyph-name="w" unicode="w" horiz-adv-x="1333" 
d="M551 910q4 2 23.5 4t49 4t65.5 4.5t72 4.5q45 2 85.5 1t67 -5.5t34 -13.5t-14.5 -23q-16 -10 -30.5 -10.5t-23.5 -6.5t-9.5 -24.5t12.5 -64.5q9 -33 22.5 -76.5t29 -89.5t31.5 -91.5t30.5 -83t25 -62.5t14.5 -31q5 16 14.5 47.5t21.5 73.5t26 90.5t28.5 98t29 97
t26.5 86.5q9 29 6.5 42t-12.5 17.5t-25 4.5t-30 3q-13 3 -23.5 7.5t-13 10t4.5 11t29 9.5q25 3 51.5 4t50 1t43 -1t30.5 -1q24 -1 31 -5.5t3.5 -11.5t-14.5 -15t-23 -15t-22 -12t-11 -6q-20 -20 -39.5 -62t-38.5 -97t-38 -120.5t-37 -133.5t-35 -135t-33 -125t-31 -104
t-28 -72q-3 -6 -16 -9.5t-28 -5t-27.5 -1t-15.5 2.5q-14 11 -21 32t-17 50q-17 54 -39.5 126t-47 149.5t-49 154t-45.5 140.5q-19 -60 -37 -127.5t-35 -134.5t-33 -129t-31 -112q-9 -30 -18.5 -60t-19 -54.5t-18 -40.5t-15.5 -16q-28 -1 -44.5 0.5t-26.5 9.5t-16.5 23
t-13.5 41q-4 14 -10.5 41t-15.5 61t-19.5 72.5t-22.5 76.5q-20 62 -38 134.5t-35 142t-32.5 128.5t-29.5 94q-7 19 -15 25.5t-18.5 7.5t-25 0t-33.5 4q-41 10 -46 18.5t11 16t46 13.5t60 10t53.5 6t26.5 3q16 0 47 1t64.5 1t64.5 -1.5t47.5 -6t13.5 -13t-37 -21.5
q-10 -5 -19.5 -10.5t-14.5 -16t-4.5 -29.5t11.5 -50q12 -35 28.5 -83.5t33.5 -99.5t34 -100.5t30 -85.5q16 -43 25 -44.5t20 38.5q9 29 19.5 66.5t22.5 79t24.5 85t24.5 85.5q-4 11 -7.5 22t-7.5 19q-10 27 -25 46t-31 33t-30 23.5t-20.5 17t-3 14t22.5 14.5z" />
    <glyph glyph-name="x" unicode="x" horiz-adv-x="984" 
d="M704 398q36 -54 69.5 -109t61 -99.5t48 -72.5t29.5 -28q21 0 35 -11t13 -24.5t-19.5 -25t-62.5 -13.5q-19 -1 -52.5 -1.5t-73 -0.5t-81.5 1.5t-79 5.5t-65.5 11t-41 18t-4.5 27t43 37q13 8 6.5 31.5t-23.5 56t-40 72t-44 78.5q-15 30 -23.5 28t-27.5 -33
q-14 -22 -30.5 -48t-32 -52.5t-28.5 -52.5t-19.5 -47.5t-4.5 -37.5t17 -23q3 -2 18.5 -7.5t33 -12.5t32.5 -15.5t18.5 -15.5t-9.5 -11.5t-52 -4.5h-202q-45 0 -63.5 9t-17.5 21t18.5 24t44.5 18q28 6 42.5 7t24.5 5.5t19.5 18t28.5 45.5q15 26 32.5 56t35 60.5t34 59
t30.5 50.5q17 29 14 50.5t-20 50.5q-22 37 -52 87t-61.5 100t-61.5 95t-54 71q-13 14 -30 22.5l-30 15t-17.5 12t7.5 14.5q8 6 34 11t61.5 9.5t76 8.5t77.5 6.5t66 3.5t41 1q45 -2 60.5 -7t12 -11.5t-19.5 -14t-33 -14.5l-28.5 -12t-11 -10.5t4 -17.5l16.5 -33
q19 -36 44 -78.5t45 -74.5q14 -21 27 -23.5t27 19.5q44 64 72.5 101.5t42.5 57.5t14 27.5t-12 11t-36.5 7t-59.5 16.5q-15 6 -26.5 13.5t-16 15.5t0 14.5t21.5 9.5q27 4 73 7.5t95.5 5.5t96 1t73.5 -5q19 -3 17.5 -8t-16 -13t-39 -20t-52 -28t-54.5 -37t-46 -48l-105 -146
q-14 -20 -23 -31t-8 -24q2 -18 20 -43t42.5 -52.5t50 -55.5t42.5 -52z" />
    <glyph glyph-name="y" unicode="y" horiz-adv-x="1028" 
d="M809 863q3 22 -4.5 34.5t-20.5 19.5t-28 9t-26 2q-22 0 -34 5t-11.5 12.5t16 15t49.5 13t88.5 7t132.5 -3.5q27 -2 29.5 -10t-8 -17t-27.5 -17.5t-28 -10.5q-23 -6 -37 -18.5t-24.5 -32t-19 -45t-18.5 -56.5q-11 -37 -32 -113.5t-50 -175t-65 -209t-76 -215.5
q2 -2 2.5 -3.5t-6.5 -3.5q-33 -85 -69 -161t-73.5 -133t-76 -90t-77.5 -33q-69 0 -119 62q-6 9 -13.5 35.5t-12 60t-5 69t8 61.5t27 37.5t51.5 -1.5q20 -9 38 -23t27.5 -32t7.5 -39t-22 -44q-11 -11 -26.5 -17.5t-36.5 -7.5l-0.5 -20t5.5 -44t22 -43.5t49 -19.5
q18 0 38 15.5t41 43.5t43.5 67t45.5 87q10 22 7.5 49.5t-11.5 56t-21 55.5t-20 49q-20 50 -49 111t-62 127t-66.5 135t-63 135.5t-52 127.5t-32.5 112q-6 33 -19 44t-21 14q-3 1 -11.5 4.5t-17.5 8t-16 9.5t-6.5 10.5t11.5 10t37 8.5q7 1 36 5t70 9t88.5 10t90 8t74.5 2.5
t43 -6t-4.5 -17.5t-68.5 -32q17 -20 31.5 -55t28.5 -79.5t29 -94t33.5 -98.5t41.5 -93t54 -76q12 -13 20 -27t13 -23t9.5 -10.5t10.5 9t15 36.5t24 73q21 66 37.5 125t29 108t21 85.5t11.5 56.5z" />
    <glyph glyph-name="z" unicode="z" horiz-adv-x="699" 
d="M51 177q18 13 41.5 56.5t49.5 104.5t51 134t45.5 144.5t34 136t16.5 108.5q2 32 12 47t14.5 20t-2.5 3t-39 -5q-23 -2 -46.5 -12t-43.5 -29t-35.5 -46t-22.5 -63q-6 -31 -13.5 -70t-16 -74t-16.5 -59t-16 -25.5t-14.5 25.5t-10.5 95q-3 34 -2.5 77.5t4 84t10.5 71.5
t18 40q10 8 25 11.5t39 5t58.5 1t82.5 -0.5h286q49 0 71 -16t25.5 -43t-7 -61.5t-26.5 -71.5q-23 -53 -62 -122.5t-82.5 -143.5t-87 -147.5t-75.5 -134.5q-17 -32 -31.5 -56t-23.5 -42t-11 -29.5t7 -18.5q16 -12 78 -12q15 0 38.5 0.5t49.5 3.5t54 9t52 18q12 5 23.5 32.5
t22 64.5t20.5 78t18.5 75.5t15 55.5t11.5 18q3 -2 9 -19t9.5 -53t3 -92.5t-10.5 -137.5q-3 -23 -9 -36.5t-19 -21.5t-34.5 -12.5t-54.5 -8.5q-51 -5 -113.5 -8t-120 -5t-101.5 -3t-58 -2q-53 -2 -86 14t-45 41t-2 53.5t43 52.5z" />
    <glyph glyph-name="d" unicode="d" horiz-adv-x="848" 
d="M534 487q-4 69 -17.5 121.5t-33 88t-43 53.5t-47.5 17q-21 -1 -36 -34t-23.5 -86.5t-12 -121.5t-2.5 -137.5t7 -136t15.5 -116.5t22.5 -78t29 -22q18 8 36 32t35 59t31 79t23.5 91.5t14 96.5t1.5 94zM466 1252q-17 1 -29 8.5t-19.5 17.5t-12 20.5t-6.5 18.5
q-3 17 4.5 19.5t34.5 2.5q68 2 125.5 -8t100 -33.5t67.5 -61t30 -90.5q7 -90 5 -199.5t-7.5 -222.5t-11.5 -220.5t-7.5 -192.5t4.5 -138.5t26 -59.5q44 -13 63 -25.5t19 -23t-15.5 -19t-40.5 -14.5t-56.5 -9.5t-61.5 -3.5q-48 0 -74.5 44t-44.5 132q-2 8 -5 15t-6 9.5t-7 0
t-7 -14.5q-27 -89 -60 -136t-68 -65q-45 -24 -89.5 -23t-85 20.5t-75.5 54.5t-60.5 80.5t-39.5 98.5t-12 108q2 75 26.5 147t62.5 132.5t85.5 105.5t96 65t95 11t81.5 -56q11 -15 16 -16t7 6.5t2 20v22.5q-1 42 0 93t0.5 103t-2 101.5t-7 87.5t-15.5 62t-26 25z" />
    <glyph glyph-name="A" unicode="A" horiz-adv-x="1213" 
d="M634 507q16 0 18.5 14t-2 34.5t-13 44t-13.5 43.5l-134 553q-2 9 -6 9t-8.5 -5.5t-8.5 -14.5t-6 -18l-182 -635q-11 -37 -11.5 -47.5t11.5 -10.5q3 0 8.5 0.5t18.5 2t36 3.5t61.5 6t94.5 9t136 12zM493 1325q28 0 52 -4.5t45.5 -9t41 -8t37.5 -3.5q17 0 30.5 -1
t25.5 -10.5t24 -31.5t27.5 -64.5t35.5 -109.5t47 -165q14 -50 31 -124.5t38 -160t44.5 -174t50.5 -165.5t56.5 -135t62.5 -83q11 -9 23 -11.5t24 -4t24.5 -2.5t23.5 -7q31 -15 13.5 -29t-74.5 -19q-42 4 -105.5 5t-134.5 0t-141.5 -3t-124.5 -3q-60 -1 -86.5 3t-29 11.5
t14 17t41.5 19.5t54.5 19.5t52.5 17.5q18 6 25 25t6 45.5t-8 59t-16.5 65t-19.5 63.5t-18 55q-5 15 -7.5 27t-6 20.5t-11.5 13t-24 4.5l-335 -34q-15 -1 -24.5 -2.5t-15.5 -5.5t-9.5 -12.5t-7.5 -23.5q-6 -24 -13 -59t-13 -73.5t-11 -76.5t-7 -66q-2 -23 -0.5 -33.5t9 -14.5
t22 -5.5t39.5 -5.5q7 -2 21.5 -7t30.5 -11t29.5 -12.5t18.5 -12t-2.5 -9t-33.5 -3.5h-303q-46 0 -63.5 4t-15 10t20 14t41 15.5t48 14t41.5 10.5q7 2 21.5 42t34.5 106.5t43.5 153.5t49 182.5t51 194t49 188t43.5 163.5t34 121q7 23 6 39.5t-4.5 28.5t-6 19.5t2 11.5
t19.5 5.5t46 0.5z" />
    <glyph glyph-name="B" unicode="B" horiz-adv-x="1037" 
d="M449 717q42 3 83 20t75 44q11 9 21 38t16 70.5t8 90.5t-3 97t-18 91t-36 72q-13 16 -24.5 26t-25 14.5t-30.5 4.5t-40 -4q-12 -2 -23 -49t-18.5 -123t-10 -172t1.5 -196q-2 -19 5.5 -22t18.5 -2zM681 425q1 56 -8.5 106.5t-35.5 87.5t-72 56.5t-118 13.5q-16 -1 -17.5 -7
t-0.5 -14l48 -591q3 -24 14 -36t27 -16t35 -0.5t37 11.5q20 9 34.5 35t24.5 62t16.5 77.5t9.5 81.5t4.5 75.5t1.5 57.5zM46 24q18 17 38.5 39.5t38 48t29 53.5t11.5 57l3 854q0 67 -14.5 105t-33 58t-36 30t-24.5 22q-11 19 20 27.5t94 6.5q82 -16 149 -18t119.5 1t90 7.5
t59.5 2.5q68 -7 116.5 -17.5t83.5 -24.5q34 -14 56.5 -42t35 -64.5t16 -79t0 -85.5t-13.5 -84t-24 -75q-20 -45 -54.5 -69.5t-77 -38t-91 -19.5t-96.5 -13q46 -7 96.5 -11.5t99 -15t93.5 -29.5t80 -55t58.5 -92t29.5 -139q-7 -81 -17.5 -138t-25 -95t-33 -60t-40.5 -34
q-57 -19 -121.5 -28t-136 -12.5t-150.5 -3t-164 0.5q-78 0 -147 0.5t-108 -1.5q-16 -1 -22 5.5t13 25.5z" />
    <glyph glyph-name="C" unicode="C" horiz-adv-x="941" 
d="M491 -1q-36 -1 -63.5 -0.5t-52.5 3.5t-49.5 9t-54.5 18q-29 11 -61.5 31t-61 51.5t-50 76.5t-29.5 107q-9 68 -16.5 153.5t-10.5 178t0.5 187.5t17.5 181.5t39.5 159t66.5 121.5q23 27 61.5 43.5t87 24t104 6t110.5 -9.5t108 -23t96.5 -35.5t75 -45.5t44.5 -54
q-2 8 2.5 24t12 33t16.5 31.5t17 18t13 -7t5 -42.5q0 -11 -1 -35t-3 -55t-5.5 -63.5t-9 -60t-13 -45.5t-18.5 -18q-6 -1 -10 12.5t-6.5 32.5t-3.5 39t-2 32q-2 39 -23 76t-53.5 66.5t-72.5 49.5t-79.5 25.5t-75 -6t-58.5 -44.5q-29 -40 -50.5 -113.5t-35 -166t-20 -197
t-5 -208t10 -199t25 -169t40 -118.5t54.5 -47q41 -3 75.5 14t63.5 48t53 71.5t43 84.5t34 87.5t26.5 79.5t20 62t13.5 35q10 16 17.5 2.5t9.5 -46t-3 -79.5t-20 -98t-42 -102t-69 -92t-100 -67.5t-135 -27.5z" />
    <glyph glyph-name="D" unicode="D" horiz-adv-x="1016" 
d="M60 17q-21 4 -36.5 8t-17.5 8.5t12.5 9t53.5 9.5q15 1 31 4t28.5 16.5t20.5 43t8 83.5l3 855q0 55 -8.5 90t-22 55.5t-29 30.5t-29.5 15.5t-24.5 9t-12.5 12.5q-3 8 6.5 14.5t27.5 11.5t43.5 7.5t54.5 3.5q55 0 107 1t103.5 0.5t104 -3.5t109.5 -10q78 -9 133.5 -28
t94.5 -52t63 -82t38 -118t20.5 -160t9.5 -209q6 -203 -18.5 -333t-83.5 -202t-155 -95t-232 -13q-11 -2 -43.5 -1.5t-75.5 2t-91 4t-89.5 5t-70 4.5t-33.5 3zM424 1183q-7 -60 -11.5 -151t-7.5 -197t-3.5 -219t1 -216t4.5 -189t7 -137q3 -32 15.5 -39.5t27.5 -9.5
q40 -3 69.5 27t49 82t31 118t16.5 135q6 76 7.5 151.5t3.5 158.5q1 50 5.5 108.5t8.5 117.5t6 114.5t-2.5 100.5t-16.5 76t-36 41t-53 10t-55 -9.5t-45 -27.5t-22 -45z" />
    <glyph glyph-name="E" unicode="E" horiz-adv-x="945" 
d="M37 9q0 8 18 22q15 12 30.5 16.5t29 7.5t25 9t20 20.5t13.5 42t5 74.5l1 854q0 55 -8 90t-20.5 55.5t-27 30.5t-28 15t-23.5 8.5t-12 12.5t7 15.5t26 11t41 7.5t51 4q138 0 274.5 -4t275.5 1q46 7 74.5 9.5t44.5 -7t22 -34.5t8 -73q1 -63 0.5 -123.5t-0.5 -121.5
q0 -56 -2 -77t-7.5 -17t-13.5 29t-20 61t-28 79t-37 84q-24 47 -47.5 80t-49.5 53.5t-58 28t-72 4.5q-32 -2 -50.5 -28.5t-28.5 -88.5q-7 -42 -13 -94.5t-10.5 -109.5t-7.5 -114.5t-4 -109.5q0 -19 1 -30t4 -17t9 -7.5t16 -1.5q21 0 38 4t41 13q28 10 42 22t20 27.5t7.5 35
t5.5 44.5q5 37 9.5 58t8.5 12t7.5 -55t5.5 -143q1 -69 0 -110.5t-4 -61t-7.5 -21.5t-8.5 9q-11 24 -20 44.5t-22 38.5t-31.5 32t-46.5 24q-31 11 -54 2.5t-23 -46.5q0 -57 0.5 -113.5t2 -109t5 -100.5t10.5 -88q8 -66 22 -99.5t34 -46t48 -9.5t64 9q32 5 60 36t52 75.5
t44.5 96t36.5 97.5t28.5 81t21 46t12.5 -8t4 -80v-247q0 -47 0.5 -76t-5.5 -43.5t-22.5 -15t-49.5 9.5q-63 -3 -130.5 -8.5t-133.5 -9.5q-55 -3 -118.5 -3t-129.5 1.5t-130.5 3.5t-121.5 5z" />
    <glyph glyph-name="F" unicode="F" horiz-adv-x="959" 
d="M81 -7q-37 -6 -49.5 -3.5t-9.5 9.5t18.5 17t34.5 20q23 12 39.5 21t28 21.5t18.5 33.5t11.5 57t6 92t1.5 138l2 656q0 55 -3 93t-11.5 60.5t-24.5 31.5t-41 5q-16 -2 -30.5 2t-18 12.5t7.5 19.5t46 22q42 13 90 16t98 0.5t102 -6t103 -2.5q88 2 171 9.5t156 2.5
q46 -3 64.5 -33t14.5 -91l-0.5 -21t-1 -53t-2 -71t-4 -75t-5.5 -65t-8 -42t-11 -4.5t-14 47.5q-8 37 -22 90.5t-42 107.5q-32 58 -63.5 92t-66 51.5t-73 21.5t-84.5 3q-29 0 -43 -14t-12 -58q1 -47 1 -82.5t-1 -71.5t-2 -79.5t-2 -104.5q0 -15 1.5 -22.5t6 -11.5t13 -5.5
t22.5 -2.5q16 -1 33 -2t32.5 0t28 4.5t18.5 12.5q14 21 19 43t7.5 44.5t5.5 44t13 39.5q6 10 9 8t4.5 -21.5t1.5 -57.5v-100q0 -81 -3 -124.5t-7.5 -59.5t-10.5 -10t-13 25q-3 8 -8 20.5t-9.5 25t-8.5 24.5t-7 20q-8 23 -34 27t-59 4q-23 0 -34.5 -3t-16.5 -12t-5.5 -25.5
t-0.5 -43.5v-172t6 -186.5t21.5 -176t47.5 -141.5q24 -12 32 -19t4.5 -10t-15.5 -3.5t-29 -0.5q-51 -2 -110.5 -1t-119 1t-113 -1.5t-91.5 -6.5z" />
    <glyph glyph-name="G" unicode="G" horiz-adv-x="1080" 
d="M846 250q-14 -46 -38.5 -94t-56 -88.5t-68 -70t-75.5 -38.5q-32 -8 -65.5 -8t-66.5 5t-64 14t-59 19q-91 32 -152 95.5t-97.5 147.5t-49.5 183t-8 203q4 76 14.5 161t26.5 168.5t37.5 160t48 136t56.5 97t64 41.5q71 9 141.5 5t136 -22t123 -51.5t102.5 -82.5
q33 -37 44.5 -49t16 -1t10.5 43.5t28 85.5q6 16 12 27t10.5 14t7.5 -5t5 -30q1 -19 1.5 -48.5t0 -64.5t-2.5 -73.5t-5 -75.5q-4 -47 -3 -89.5t3.5 -75.5t3.5 -53t-4 -22q-8 -3 -18.5 9t-21 33.5t-19 48.5t-12.5 53q-13 79 -39.5 148t-67 120t-93.5 80t-119 29q-26 0 -46 -42
t-35 -112.5t-24.5 -164t-13.5 -196.5t-2 -209t10 -202t22 -176t34 -131q23 -57 50 -81.5t55.5 -25.5t57 18.5t55 52t49.5 74t40 84.5t27 83.5t10 71.5v84q0 45 -19 79t-44.5 58t-51 39.5t-38.5 24.5t-7 12.5t43 3.5q5 0 25 -3t49.5 -6t66 -5.5t74.5 -1.5q67 2 110 -2
q18 -2 33 -4.5t21 -7.5t2 -12t-23 -16q-26 -13 -46.5 -17.5t-36 -8.5t-27 -9.5t-18.5 -19t-11 -38t-5 -66.5q-1 -30 0 -71.5t3.5 -89.5t6.5 -98.5t9.5 -97.5t12.5 -88t15 -69q2 -6 -15.5 -7t-40 17t-42 62.5t-22.5 128.5q-2 42 -1.5 71.5t0.5 28.5z" />
    <glyph glyph-name="H" unicode="H" horiz-adv-x="1221" 
d="M165 403q-13 132 -16.5 247.5t-2.5 207.5t3 157t-1 98q-3 31 -2.5 51.5t-3 34.5t-16 24.5t-40.5 21.5q-26 12 -41.5 24t-17 21.5t12.5 15.5t49 6q45 0 86.5 -1.5t83.5 -2.5t87 -1t96 2q45 1 61 -2.5t13 -12.5t-19 -23t-34 -35t-32.5 -48t-13.5 -61q1 -43 1 -83t-0.5 -82
t-1.5 -88.5t-2 -103.5q0 -22 1 -35t9.5 -19.5t27.5 -8.5t54 -2.5t89 -1.5t133 -5q30 0 43 15t13 47q-2 59 0.5 107t4.5 91.5t0.5 84t-10.5 84.5q-11 55 -27 90t-23 55t2.5 28.5t50 11t118.5 1t208 -0.5q25 0 29 -6t-4.5 -19t-25.5 -33.5t-34 -48.5q-8 -14 -12.5 -24.5
t-6.5 -30.5t-2.5 -54t-0.5 -93.5v-150.5t-1 -224q-2 -73 -3.5 -147t1 -141.5t10.5 -125.5t24 -100q6 -14 11 -25.5t12.5 -21.5t19.5 -19t33 -17q26 -10 26 -15t-17.5 -6.5t-48 -0.5t-65 2.5t-68 3t-57.5 -0.5q-60 -2 -119 -8.5t-113 -4.5q-34 1 -41.5 2t1.5 6.5t29.5 18.5
t42 38.5t39 66t20.5 100.5q2 46 2.5 99t0 105t-1.5 99t-2 80q-1 27 -18 37t-40 10h-284q-14 0 -21 -6.5t-10 -15.5t-3 -19.5v-18.5q1 -21 -2 -71t-5 -112.5t0 -127.5t12 -116q7 -33 15 -50.5t19.5 -28.5t27.5 -19.5t39 -22.5q30 -19 34 -30t-7.5 -16.5t-34.5 -7.5
t-46.5 -1.5t-43.5 2.5t-26 2q-36 3 -72.5 6t-72 5t-68.5 1t-61 -6q-3 0 -5 -2q-56 -11 -71.5 -11.5t-8 9t31.5 28.5t48 47q10 12 19.5 28.5t16.5 50.5t11.5 91.5t4.5 151.5z" />
    <glyph glyph-name="I" unicode="I" horiz-adv-x="649" 
d="M174 1154q-3 18 -7.5 32t-14.5 25t-27 18t-44 10q-14 1 -24 5t-13 10.5t3.5 15t26.5 18.5q26 12 82 20.5t155 7.5q105 0 165 -5.5t88 -10.5q26 -5 32.5 -10.5t1 -11.5t-21 -13t-33 -15t-34 -17t-25.5 -19q-7 -8 -9.5 -52t-3.5 -110.5t-1 -148.5t-1 -166q-2 -84 -5 -164
t-5.5 -147t-4.5 -117.5t0 -75.5q3 -59 21 -99t40 -66.5t43 -41t30.5 -20.5t1 -6.5t-44.5 1.5q-110 6 -189 6.5t-130.5 -0.5t-79 -2t-33.5 2q-5 3 -0.5 8.5t14 16.5t21 27.5t21.5 40.5q2 5 4.5 14t4.5 30.5t3.5 62t3.5 109t3 171t2 248.5q0 42 1.5 94t1 107.5t-4.5 111.5
t-14 106z" />
    <glyph glyph-name="J" unicode="J" horiz-adv-x="788" 
d="M335 995q0 63 3 107.5t-1.5 73t-23 43.5t-61.5 20q-41 4 -47 10t12.5 12.5t57.5 13t88 12.5t104.5 10.5t107 6.5t94 1.5t67.5 -5.5q26 -5 32.5 -10.5t1 -11.5t-21 -13t-33 -15t-34 -17t-25.5 -19q-13 -14 -19.5 -52.5t-8 -92.5t1 -119.5t7.5 -135.5t11.5 -139.5
t12.5 -130.5q8 -79 1 -150t-22.5 -132t-38 -111t-46.5 -86q-17 -26 -39.5 -42.5t-50.5 -27.5t-62.5 -18.5t-76.5 -15.5q-40 0 -76 18t-67 46t-56.5 62.5t-43.5 67t-27.5 59t-8.5 38.5q0 53 20.5 79t47.5 30t52 -10.5t34.5 -42t-5 -64.5t-66.5 -78q0 -1 7 -16.5t26 -40
t51.5 -55.5t83.5 -63q16 -10 26 23t15.5 94t7 144t1 173.5t-2.5 182t-4.5 169.5t-4 136t-1.5 82z" />
    <glyph glyph-name="K" unicode="K" horiz-adv-x="1244" 
d="M171 658q-10 135 -15.5 229.5t-9 157.5t-6.5 99.5t-8.5 56.5t-14.5 28.5t-25 15.5q-26 12 -41.5 24t-17.5 21.5t12 15.5t49 6q45 0 86 -1.5t83 -2.5t86.5 -1t94.5 2q46 1 62 -2.5t13.5 -12.5t-18.5 -23t-34 -35t-32.5 -48t-13.5 -61q1 -36 1 -76.5v-83.5t-1 -85.5
t-1 -82.5q0 -10 2 -21t7 -17.5t12.5 -6.5t18.5 12q30 34 65 74.5t71 83.5t70 87t62 84.5t47 75.5t25 61q2 13 -3.5 23.5t-16.5 15.5q-16 10 -32 17.5t-27.5 13.5t-15 10.5t6 7t35 4t72.5 1.5h220q43 0 47.5 -6t-13 -15t-49 -19t-60.5 -18q-41 -11 -79.5 -46.5t-73.5 -80.5
t-67.5 -93t-61.5 -84q-5 -7 -8 -11.5t-2.5 -10.5t4.5 -15.5t13 -26.5q17 -33 42 -79.5t54.5 -102.5t62.5 -117.5t67.5 -123t69 -121t66 -111t59.5 -92t49 -64.5q15 -18 23.5 -24.5t15 -8.5l13 -4t18.5 -11q10 -8 -3 -12.5t-39 -7t-59 -3t-62 0t-49.5 1l-20.5 0.5
q-44 0 -86 -3t-78 -6.5t-62.5 -6t-38.5 -2.5q-23 0 -41 4t-24.5 11t2.5 17.5t40 23.5q45 19 60.5 31.5t13 29.5t-18.5 43.5t-34 74.5l-160 424q-6 16 -13 31.5t-14.5 27t-15 16.5t-14.5 -1q-14 -11 -31.5 -27.5t-32.5 -35t-24.5 -36.5t-9.5 -32q1 -34 0.5 -79.5t-1.5 -95
t-1.5 -100t2.5 -95.5q2 -42 7 -69t12.5 -44t17 -26t20.5 -13l22 -11t28 -15.5t24.5 -18t11.5 -17t-10 -13t-41 -5.5q-43 -2 -93.5 2t-102 8t-100 5t-87.5 -6q-4 0 -5 -2q-53 -10 -69.5 -11t-11 7.5t27 25t44.5 41.5q8 8 15.5 19.5t14 34t12.5 61t10 101t7 153t3 218.5z" />
    <glyph glyph-name="L" unicode="L" horiz-adv-x="1011" 
d="M443 1055q0 -200 1.5 -347.5t3.5 -252.5t5 -173.5t7 -110.5q4 -53 17.5 -84t38.5 -44.5t62 -11.5t88 15q53 14 98 56t75 127q45 129 71 208t38.5 102.5t14 -10.5t-1.5 -129q-1 -29 -6 -68t-9 -82.5t-4 -88t8 -84.5q6 -29 -5 -48t-51 -19q-98 0 -200 0.5t-204.5 0
t-203.5 -2.5t-197 -7q-30 -2 -41 -2t-8.5 3.5t15.5 11t31 22.5q41 34 61 77t28 91t8 99.5t1 101.5q0 76 -0.5 170t-2 188.5t-5 182t-8.5 151.5q-2 28 -3 50t-7 39.5t-20 32t-44 28.5q-18 8 -34.5 15.5t-23.5 14.5t-0.5 12.5t33.5 10.5q29 5 88.5 10.5t165.5 5.5
q99 1 154 -7.5t81 -20.5q20 -10 26.5 -18.5t3.5 -15t-13 -10.5t-23 -5q-47 -5 -70 -14.5t-31.5 -29.5t-8 -53.5t0.5 -86.5z" />
    <glyph glyph-name="M" unicode="M" horiz-adv-x="1404" 
d="M67 1312q95 -1 159 6.5t106.5 10.5t66.5 -4t40.5 -35.5t28.5 -85t29 -151.5l129 -716q5 -19 13 -14t16.5 25t18 50.5t17.5 61.5t14.5 58.5t10.5 41.5q10 41 23.5 111t30.5 152t36.5 167.5t41 157.5t43.5 122t45 62q30 15 70.5 17.5t87.5 0t99.5 -4.5t106.5 5
q34 4 40.5 2.5t-3 -9.5t-30 -22t-41 -34.5t-36 -48t-15.5 -61.5l8 -964q-1 -41 4.5 -62t16 -31.5t23.5 -15t27 -12.5q19 -11 37.5 -21.5t31 -20.5t17.5 -18.5t-3.5 -14t-32.5 -8.5t-69 -1q-1 2 -5 2q-39 7 -88 6t-100 -5t-101.5 -8t-92.5 -2q-28 0 -39.5 4.5t-12 11t7.5 15
t20 17.5q9 7 15 8t9.5 1.5t5 4t2.5 16.5t2 38.5t4 69.5q3 63 3.5 137.5t-1 156t-4.5 168.5t-8 175q-3 51 -6 69t-6.5 13.5t-8 -27t-9.5 -53.5t-11 -65t-13 -61q-44 -168 -74.5 -283t-42.5 -166q-2 -5 -5 -16.5t-7.5 -26t-10.5 -31t-13 -32.5q-8 -18 -10.5 -31t-5 -20
t-7.5 -6.5t-18 8.5q-3 2 -7 5.5t-9.5 13t-13.5 27.5t-19 49q-33 160 -58 270t-43.5 177t-32 94t-23.5 21q-3 -2 -5.5 -1.5t-3.5 -10t-1 -38.5t2 -87t6 -155.5t12 -242.5q3 -49 13 -83.5t23 -55.5t26 -30.5t21 -7.5q9 1 10.5 -4.5t-5 -13.5t-21.5 -15t-38 -7q-9 0 -37.5 -0.5
t-68 -0.5t-86.5 0.5t-92.5 1.5t-85.5 3t-66 5.5t-34.5 8.5t9.5 12q50 20 76.5 46.5t38 60.5t12.5 76t-1 94l-10 292l23 530q1 26 -12.5 50t-31.5 44.5t-36.5 36.5t-28.5 27.5t-7 17.5t28 6z" />
    <glyph glyph-name="N" unicode="N" horiz-adv-x="1155" 
d="M774 535q-7 150 -13.5 256.5t-13 180t-12 118t-11 69.5t-11 35t-10.5 15q-36 35 -44.5 56.5t2.5 33.5t38.5 16.5t63 4.5t76 -2t79.5 -2q53 0 86 -0.5t54.5 -2t35.5 -3t29 -4.5q-27 5 -46.5 -27t-33 -90.5t-22 -138.5t-12.5 -171t-4.5 -188t1.5 -189.5t5 -175t7 -145.5
t7.5 -100t5.5 -39q30 -24 45.5 -37.5t6 -18.5t-49.5 -3t-121 10q-45 1 -73.5 17.5t-48 42.5t-32 58t-25.5 65q-21 53 -36.5 97t-29 82t-26.5 73t-29.5 70.5t-38 73.5t-50.5 83q-8 48 -12 83t-6 45t-2 -11.5v-86.5v-179t-1 -290q3 -60 15.5 -99.5t26 -63t23.5 -34.5t9 -14.5
t-17.5 -3t-56.5 -0.5q-9 0 -37.5 -0.5t-68 -0.5t-86.5 0.5t-92.5 1.5t-85.5 3t-66.5 5.5t-35 8.5t9.5 12q39 16 61.5 35t33.5 42q4 9 5.5 21t2 31.5t0 50.5t1 78.5t5 115t11.5 159.5q11 128 12 216t-3 147.5t-10 97t-9.5 64.5t-2 48.5t13.5 50.5q10 25 3.5 33.5t-22.5 14.5
t-36.5 14.5t-37.5 33.5q-11 15 -7.5 22t30.5 6q51 0 94 1.5t80.5 2.5t69.5 0t61 -7q37 -8 58.5 -23t33 -36.5t17.5 -50t14 -63.5q24 -110 51 -218.5t55 -206t54.5 -179.5t49 -138.5t39 -83t23.5 -13.5t3.5 70t-20.5 168z" />
    <glyph glyph-name="O" unicode="O" horiz-adv-x="900" 
d="M374 674q0 -171 11 -304t27.5 -221t36 -128t36.5 -26q14 12 41 58.5t54 132t46.5 211.5t19.5 296q0 115 -11 222t-28.5 191.5t-41 139.5t-49.5 67q-22 10 -40.5 -11.5t-34.5 -66t-28.5 -108.5t-21 -138t-13 -155t-4.5 -160zM503 1355q47 -11 89.5 -16.5t79.5 -22
t67.5 -51.5t53.5 -104t37.5 -180.5t19.5 -280.5q4 -145 -13 -254.5t-48.5 -189t-74.5 -133.5t-91 -88.5t-97.5 -52.5t-94.5 -27q-76 -15 -134 4t-100 64.5t-70.5 113t-45.5 149.5t-24 174t-7 187q0 108 11.5 212t35 193t60 159.5t86.5 113t115 52.5t145 -22z" />
    <glyph glyph-name="P" unicode="P" horiz-adv-x="982" 
d="M458 1225q-7 -28 -11 -91.5t-5.5 -148.5t-0.5 -183.5t4 -195.5q0 -17 4.5 -24.5t25.5 -9.5q28 14 55 47.5t49 80t39 102t26 114t8.5 115.5t-12.5 107q-8 31 -20 58.5t-29 47.5t-39 31.5t-49 12.5q-13 0 -20 -4t-11.5 -12t-7 -20t-6.5 -27zM369 1317h97t108 -4.5
t108 -16.5t98 -35t77.5 -59.5t46.5 -91.5q16 -63 19 -138.5t-11.5 -148t-49.5 -133t-95 -93.5q-53 -29 -100 -40.5t-86 -15.5t-70 -5t-53 -10q-12 -5 -12 -28q1 -86 -1.5 -152t-2.5 -117t4 -90.5t19 -73.5q14 -20 28 -34.5t21.5 -24.5t5.5 -15.5t-20 -6.5q-2 0 -26.5 -1
t-63 -2.5t-85 -2t-92.5 -0.5t-86 2t-64 7t-28 12.5t23 19.5q34 15 52 39.5t26 59t9 78t1 94.5q0 29 1 83.5t2 123.5t2.5 148.5t1.5 159.5t-1 155.5t-3.5 137t-8 104.5t-13.5 57q-5 6 -14.5 9.5t-20.5 5.5t-20.5 4t-13.5 5q-11 8 -17.5 13.5t-6.5 9t8 5t27 1.5q106 0 173 2
t107 3z" />
    <glyph glyph-name="Q" unicode="Q" horiz-adv-x="922" 
d="M69 295q-10 37 -15 92t-6 121.5t3.5 140.5t14 148.5t25 145.5t36.5 131.5t48.5 106.5t61.5 70q32 23 69 36t75 19t74 6.5t67 -0.5q90 -3 150.5 -33.5t99 -80.5t58 -115t28 -137t8.5 -147.5v-145.5q-1 -95 -13.5 -189.5t-38 -179t-65.5 -154t-95 -113.5l-25 -20l15 -27
q28 -52 53 -95t49.5 -62.5t49.5 -8t54 67.5q6 13 11.5 16t9.5 -1t6.5 -12t2.5 -16q2 -29 -8.5 -46.5t-27.5 -26t-39 -9.5t-43 3q-31 7 -60 24t-55.5 40.5t-50.5 52t-44 57.5q-17 -6 -35 -10t-38 -6q-65 -5 -130 23t-121.5 78.5t-98.5 117t-60 138.5zM378 674q0 -116 5 -213
t14 -175q0 -5 0.5 -10t1.5 -10l18 -29q32 -13 59 -34.5t51 -50.5q13 -15 18.5 -23.5t9 -9t7 7.5t14.5 28q40 78 60.5 161.5t25 179.5t-3 207.5t-22.5 246.5q-8 66 -18.5 124.5t-24.5 102t-32.5 69t-41.5 25.5q-25 1 -50 -43t-45 -124t-33 -190t-13 -240zM411 180
q16 -102 37 -144.5t43 -36.5q5 2 8.5 9.5t-1.5 34.5l-41 77q-11 17 -19 35t-17 32q-2 3 -4 5.5t-4 3t-3 -3t1 -12.5z" />
    <glyph glyph-name="R" unicode="R" horiz-adv-x="1039" 
d="M467 1204q-7 -28 -13 -87.5t-10.5 -139t-6 -174t1.5 -191.5q1 -17 5.5 -24.5t24.5 -9.5q40 -4 70.5 -0.5t52.5 20t36 48t21 83.5q4 31 4.5 83.5t-4 113.5t-14.5 123.5t-26.5 114t-40 86t-54.5 39.5q-13 2 -21 -5.5t-12.5 -20t-7.5 -28.5t-6 -31zM900 2q-20 -20 -44 -29.5
t-49 -10t-49 6.5t-43 19q-39 24 -59.5 61.5t-29.5 83t-11 95t-4 96.5t-7 88.5t-21 71t-46.5 43t-82.5 5.5q-13 -3 -13 -28q1 -60 2 -117.5t2 -105.5t1.5 -84.5t0.5 -55.5q0 -32 9 -55t18.5 -39t15.5 -25.5t1 -15t-24.5 -8t-61.5 -2.5q-2 0 -23.5 -1t-55.5 -1.5t-78 -1
t-91 0.5q-30 0 -54 -2.5t-38.5 -2t-16.5 6.5t13 24q24 30 40 56.5t26.5 57t15.5 68.5t5 89q0 36 2.5 92.5t5.5 126.5t5 148.5t1.5 156.5t-5 152.5t-15 136.5t-28.5 107t-45 65q-11 8 -20 15t-11 12t5.5 7.5t28.5 2.5q105 0 172.5 2t107.5 3q44 0 92.5 -1.5t98 -8t97.5 -20.5
t90.5 -37.5t77.5 -59t59 -86.5q19 -42 26 -87t12 -92q8 -93 -2 -157t-34 -104.5t-59.5 -62.5t-77.5 -31.5t-88.5 -10t-92.5 1.5q3 2 19.5 -9.5t40 -34t51 -53.5t52 -67t43.5 -74.5t25 -76.5q8 -48 15 -95.5t15 -85.5q17 -83 34 -80t46 78q26 66 45 125.5t36 122.5
q6 25 10.5 31.5t7.5 1.5t4 -19t1.5 -30t0 -31t-1.5 -22q-4 -32 -10.5 -65t-17.5 -64.5t-27 -60t-40 -50.5z" />
    <glyph glyph-name="S" unicode="S" horiz-adv-x="924" 
d="M865 1230v-369q0 -41 -9 -44t-22.5 16.5t-30 54.5t-30.5 69t-23.5 59.5t-10.5 27.5q-31 52 -76 88t-95 59t-99.5 34.5t-90.5 14.5t-68 -1t-31 -12q-12 -23 2.5 -61t46.5 -86.5t77.5 -104t96 -112.5t102 -113.5t95 -105.5t75 -89t42.5 -65q18 -40 30 -79.5t16 -76.5
t-0.5 -68.5t-19.5 -55.5q-34 -50 -68.5 -92.5t-75.5 -73.5t-90.5 -48.5t-112.5 -17.5q-36 0 -74 10t-75.5 27t-73 39.5t-67.5 47.5q-26 20 -44.5 19t-31.5 -13t-20.5 -31.5t-12.5 -37.5t-7.5 -30t-5.5 -9t-7.5 25.5t-11.5 72.5q-6 45 -7.5 97.5t-1 99.5t2 83t0.5 49
q-3 46 0 64t11 16t18.5 -20.5t22.5 -44t23.5 -55.5t21 -55.5t15.5 -42.5l6 -17q26 -66 63.5 -111t80.5 -73t88.5 -39t87.5 -9q58 3 88 26t38 57t-1.5 76.5t-30 85.5t-49 82t-56.5 67q-4 4 -21.5 24t-43.5 50.5t-58.5 68.5t-65.5 77.5t-65 77t-57 68t-41 50.5t-18 23
q-23 42 -35 84t-14 79.5t7 69t29 52.5q38 41 65.5 73.5t50.5 55.5t46 35.5t52.5 14t70.5 -9t100 -33.5q56 -23 108 -56.5t97 -79.5q12 -11 20 -18t14.5 -8t11.5 5.5t10 23.5q6 18 17 45t24 51.5t26.5 43t24.5 20t18 -19t7 -71.5z" />
    <glyph glyph-name="T" unicode="T" horiz-adv-x="988" 
d="M363 1234q-2 27 -21.5 42.5t-49.5 10.5q-68 -11 -105 -55.5t-56 -107.5q-8 -30 -16.5 -62.5t-16.5 -60.5t-14.5 -48t-12 -24.5t-8.5 9.5t-3 54q-1 104 -4 169t-4 102t2 51.5t15 17t35.5 -2t62.5 -4.5l390 -6q38 0 90 3t104 5t97 2t69 -6q11 -3 16.5 -29.5t7.5 -65
t0 -83.5t-6.5 -83.5t-12 -65t-17 -29t-20 25.5t-21.5 98q-14 87 -32 128.5t-39 57t-45 14t-49 -1.5q-11 0 -19 -5.5t-14 -14t-9 -17.5t-4 -15q-8 -59 -13.5 -144t-8 -181.5t-3.5 -198t0 -193t2.5 -167t3.5 -120.5q3 -59 21 -99t40.5 -66.5t44 -41t30.5 -20.5t0.5 -6.5
t-45.5 1.5q-110 6 -197.5 5t-150 -3t-98.5 -4t-43 1q-4 2 4.5 7.5t23 13.5t31 19.5t28.5 26.5q6 7 11.5 15t9.5 33.5t5 75.5t-3 141q-3 61 1 146t9 178t10 186.5t4 173.5q-1 57 -2 112t-5 106z" />
    <glyph glyph-name="U" unicode="U" horiz-adv-x="1106" 
d="M488 1119v-70t0.5 -110.5t1.5 -139.5t3.5 -157.5t6.5 -163.5t10 -157.5t14.5 -140t19.5 -110.5q10 -45 32.5 -56.5t50.5 0.5t58.5 42t57.5 68.5t47 81t27 78.5q9 46 14 111.5t7 140t0.5 155t-6.5 156.5t-12.5 144t-18.5 118.5t-24.5 79.5t-30.5 27q-27 -3 -51.5 10
t-39 30t-15.5 30.5t18 12.5q16 -1 42.5 0t69 2t103.5 1.5t145 -2.5q28 -1 42 -5t17.5 -10.5t-1.5 -14.5t-14 -16q-22 -19 -70 -43q-23 -24 -34.5 -73t-16.5 -115.5t-6 -145.5t-2.5 -164t-6.5 -172t-17.5 -168.5t-35.5 -153.5t-61 -126.5t-93.5 -89t-133.5 -40.5
q-54 -5 -102 5.5t-89.5 32t-76 53.5t-61.5 71q-38 54 -61 139t-35.5 184.5t-16 205.5t-2 203t4.5 177.5t5 128.5q1 37 -9 48.5t-27 15t-37.5 6.5t-40.5 23q-13 13 -13.5 26t25.5 18q10 2 37 3t64.5 2t82 1t89.5 -1t87 -2.5t75 -4.5q46 -4 63.5 -6t18 -6t-11.5 -13
t-26.5 -27.5t-27 -49t-12.5 -77.5z" />
    <glyph glyph-name="V" unicode="V" horiz-adv-x="1018" 
d="M0 1201q-28 9 -30.5 17.5t12 15.5t42 13t61 10.5t68 7.5t62.5 5q108 6 174 14t100.5 13t43 5.5t2.5 -8.5t-20.5 -29.5t-26.5 -56.5q-13 -36 -14 -92t5 -124t17 -143t23 -148t22.5 -140.5t15.5 -119.5q4 -50 10.5 -67t16.5 -6.5t24 46t33 92.5q18 54 42.5 136t51.5 173.5
t55 183.5t52 166q11 30 13 47t-2.5 26t-14 12.5t-20.5 6.5q-19 4 -37.5 9.5t-28.5 11t-7.5 11t26.5 9.5q34 5 70 7t67.5 2t57.5 -1t41 -1q47 -3 60 -11.5t5.5 -18.5t-28.5 -17.5t-43 -8.5q-18 -1 -28.5 -7t-18 -16t-13 -24t-12.5 -30q-27 -59 -58.5 -148t-64.5 -194.5
t-66 -219t-63 -220t-56.5 -199t-45.5 -155.5q-8 -24 -14.5 -37t-12 -18t-10.5 -5.5t-9 -0.5h-75t-68.5 8t-50.5 28.5t-21 62.5q-2 56 -14.5 139t-32 179.5t-43.5 200t-47.5 199.5t-44.5 178t-35 136q-8 27 -12.5 41t-13 22.5t-24.5 14.5t-47 17z" />
    <glyph glyph-name="W" unicode="W" horiz-adv-x="1648" 
d="M530 1220l-21 -12t-9 -12t1.5 -23t11.5 -45q11 -42 24 -97t26.5 -119t26 -135t22.5 -145q2 -24 6.5 -32t10.5 -6t12.5 12t12.5 22q16 30 34.5 73.5t36 88.5t31.5 87t20 71q3 11 4 17.5t0.5 12t-3 12.5t-6.5 19q-25 70 -54.5 114.5t-51 71t-29 38.5t11 16.5t69.5 6
t146 6.5q96 5 157 3t94 -8.5t41.5 -14.5t-1.5 -15q-19 -12 -36 -19.5t-28.5 -21t-13.5 -38t9 -70.5q7 -31 17 -76.5t21 -100t24 -114t26 -118t26.5 -112.5t27.5 -97q15 -47 27 -72.5t24 -24.5t25.5 31t31.5 95q9 34 21 83.5t25 108t27 123t29 128t29.5 122.5t28.5 108
q18 62 16 95.5t-23 47.5q-16 11 -33 21t-27.5 17.5t-10 11.5t21.5 1q18 -2 50 -6.5t67.5 -10.5t69.5 -13t55 -13q26 -8 33 -13.5t2 -9t-19.5 -6.5t-30.5 -4q-33 -2 -49.5 -9t-25 -22t-13.5 -39t-17 -61q-22 -70 -44.5 -164t-44.5 -200.5t-41.5 -218.5t-36 -216.5t-28 -195.5
t-17.5 -156q-2 -18 -15 -35t-28 -14q-55 9 -89.5 11t-59 12t-45 35.5t-46.5 81.5q-23 47 -47 107.5t-47.5 126t-45.5 130.5t-39.5 122t-30 100.5t-16.5 64.5q-3 12 -7.5 26.5t-10.5 21.5t-12.5 0.5t-13.5 -36.5q-60 -192 -109 -372t-101 -349q-19 -21 -25.5 -34t-13.5 -19
t-20.5 -6.5t-44.5 3.5q-72 1 -107 12.5t-49.5 37.5t-17 68t-9.5 104q-10 79 -25 169.5t-32.5 182.5t-37.5 182t-38.5 168.5t-35 141t-28.5 99.5q-6 17 -21.5 30.5t-33.5 25t-34 20t-21 16t4.5 13t42.5 10.5q13 2 47.5 5.5t81 7t100.5 6t104.5 3.5t93 -1t67.5 -8.5t26.5 -18
t-29.5 -29.5z" />
    <glyph glyph-name="X" unicode="X" horiz-adv-x="1217" 
d="M725 701q21 -32 46.5 -78.5t54 -100t59 -110t60.5 -110t59 -100t54 -78.5q12 -15 35 -31t45 -31t38 -28.5t14 -24.5t-28 -18t-87 -9q-26 -1 -66.5 -3t-86.5 -4t-93.5 -2t-87.5 3.5t-69 11t-37.5 21t7 34t63.5 50.5q17 11 8.5 43.5t-31.5 78t-54.5 100t-60.5 108.5
q-11 21 -18 30.5t-14 8.5t-15.5 -12.5t-21.5 -32.5q-7 -10 -30 -40.5t-52.5 -70.5t-60 -85t-52.5 -85t-30.5 -69.5t7.5 -39.5q23 -14 52.5 -24.5t55.5 -18.5t44.5 -12.5t20.5 -7.5t-17 -4t-68 -1h-172h-105q-52 0 -76.5 1.5t-28 5t10.5 10t37.5 16.5t54 24t59.5 33
q8 5 32 35t55.5 73t66.5 93.5t66.5 97t55 82.5t32.5 50q12 20 16.5 37t3 33t-9 33t-18.5 37q-20 35 -45 78t-52.5 89.5t-56 94t-56.5 91t-54 80t-48 60.5q-18 19 -42.5 34t-43.5 26t-24.5 18t14.5 11q10 1 43.5 5.5t81 10t103 11.5t108.5 9.5t99 5t74 -2t33 -13t-24 -25.5
q-25 -14 -33.5 -38t-6 -54.5t14.5 -64.5t28 -68t34 -66.5t34 -59.5q14 -24 29 -26t29 9q11 7 35 36t53 68.5t58.5 83.5t51.5 82t32 63.5t1 28.5q-4 1 -20.5 4.5t-36.5 8t-38.5 10.5t-27.5 12t-3 11.5t35 10.5q27 3 60 6.5t68.5 6.5t71.5 4t70 0q42 -1 53.5 -6.5t4.5 -14
t-27.5 -18t-42.5 -18t-39.5 -14t-19.5 -6.5t-22.5 -28t-50.5 -67.5t-66 -89.5t-68.5 -94.5t-57 -81.5t-32.5 -51q-11 -20 -13.5 -40.5t9.5 -40.5z" />
    <glyph glyph-name="Y" unicode="Y" horiz-adv-x="1059" 
d="M443 155l-15 294q-17 124 -32 204.5t-29.5 133t-28.5 84.5t-28 59q-42 84 -79.5 155.5t-57.5 113.5l-12 25.5t-8.5 13t-12 7.5t-22.5 10q-54 23 -68.5 39t-1 26t49 15.5t82.5 7t100 1t100.5 -2.5t84 -3.5t50.5 -1.5q36 0 51 -4t16 -10.5t-8 -14t-20.5 -14t-21.5 -11
l-10 -4.5q-6 -7 -0.5 -33t18 -64t29.5 -84t35.5 -92t36 -89t29.5 -75t23 -23.5t28 46.5q28 62 50.5 126.5t39.5 146.5q10 48 -4 80t-38.5 52t-52 31.5t-45 18t-17.5 12t30 13.5q12 3 31 2.5t41.5 -3.5t48 -7t51.5 -8q31 -5 64 -8.5t60.5 -9t47 -12.5t24.5 -17q8 -16 -3 -20
t-29 -4t-35.5 2t-23.5 -2q-41 -26 -71 -80t-54 -117l-90 -238q-17 -54 -28.5 -94t-19.5 -71.5t-12 -57t-6 -51t-2.5 -53.5t-0.5 -63q0 -87 1.5 -151.5t3.5 -92.5q3 -59 21 -99t40 -66.5t43 -41t30.5 -20.5t1 -6.5t-44.5 1.5q-110 6 -192.5 6.5t-138.5 -0.5t-87 -2t-38 2
q-8 4 10.5 14t44 32t48 57.5t23.5 89.5z" />
    <glyph glyph-name="Z" unicode="Z" horiz-adv-x="936" 
d="M78 187q7 16 27.5 57.5t49 99.5t63.5 130t71.5 149t73.5 156t69 151.5t58 135.5t41 108q15 44 6.5 65t-34.5 27q-84 22 -144 15t-102 -37.5t-68.5 -80.5t-43.5 -113l-9 -27t-18.5 -54.5t-22.5 -61t-21 -47t-13.5 -12.5t0.5 44q8 71 11 130t3 107t-1 85t1 65q1 19 16 29
t38.5 13t53.5 1.5t62 -4.5l64 -6t59 -3l164 1q67 0 120.5 1.5t92 -2.5t62.5 -15.5t32.5 -36.5t2 -66.5t-28.5 -105.5q-17 -52 -48 -127t-70 -162.5t-83.5 -180.5t-89.5 -180t-87 -162t-77 -127q-33 -49 -43.5 -78.5t-6 -45.5t21 -21t37 -4.5t42 3.5t36.5 3q78 0 137 0.5
t101 18.5t69 62.5t41 132.5q8 54 14.5 111t12.5 102.5t11 73.5t10 23q4 -3 12 -27.5t13 -75.5t4 -131.5t-14 -196.5q-3 -33 -11 -53t-24.5 -32t-44.5 -18t-72 -11q-173 -20 -342.5 -23.5t-341.5 3.5q-13 1 -12.5 22t10.5 53.5t26 72t34 77.5z" />
    <glyph glyph-name="zero" unicode="0" horiz-adv-x="821" 
d="M439 9q43 0 75 51t54 134t34.5 189.5t16 217.5t-3 217.5t-21 189.5t-38 134t-55.5 51q-35 0 -64 -51t-50.5 -134t-36 -189.5t-20 -217.5t-2 -217.5t16.5 -189.5t36.5 -134t57.5 -51zM53 593q8 161 27.5 281.5t67.5 200.5t132 118.5t221 34.5q58 -1 103 -39t76.5 -101.5
t50.5 -147.5t25.5 -178t1 -192.5t-21.5 -190.5t-43.5 -172t-65.5 -138t-85.5 -88t-104.5 -21q-78 11 -137 45t-103 83.5t-73 111t-46 128t-22.5 134.5t-2.5 131z" />
    <glyph glyph-name="one" unicode="1" horiz-adv-x="666" 
d="M222 165l10 752v34t-2 31t-7.5 18.5t-16.5 -4.5q-1 -1 -11 -8t-23.5 -15.5t-28 -17t-25 -12.5t-14.5 -1.5t4 14.5q7 12 24 28.5t36.5 33t38.5 30.5t31 22q35 22 65 49.5t55 50.5q21 20 35 30.5t25.5 9t21 -16t21.5 -43.5q9 -58 12 -130t2 -153t-4 -167.5l-6 -173t-4 -170
t2 -157.5q2 -43 16 -75t31.5 -55.5t32.5 -38.5t20.5 -23.5t-4.5 -11t-44 -1.5q-71 4 -126.5 5.5t-98.5 1t-76 -1.5t-59 -2q-24 -1 -33.5 4t-8 14.5t13 23.5t29.5 32q11 11 22.5 17.5t21.5 15t16 22.5t6 39z" />
    <glyph glyph-name="two" unicode="2" horiz-adv-x="810" 
d="M49 26q0 160 51 271q52 112 158 190q37 28 69 48.5t58 39.5t46 40t34 50t21 69.5t7 98.5q0 37 2 78.5t1.5 82t-4.5 78t-16.5 65.5t-35.5 45t-60 17q-42 0 -76.5 -24t-62 -60.5t-48.5 -80t-36 -83.5q25 0 43.5 -1.5t37.5 -25.5q24 -29 24 -80q0 -11 -16.5 -20.5t-40.5 -13
t-50.5 1.5t-47.5 21.5t-31 47t0 79.5q20 99 88 170q48 51 107 75.5t132 25.5q120 1 191 -19t103.5 -69t32.5 -131.5t-23 -207.5q-16 -86 -46 -146.5t-69 -103t-85 -71t-93.5 -51.5t-94.5 -43.5t-87.5 -47.5t-73.5 -64.5t-52 -92.5q48 39 89.5 52.5t77 8t65 -26.5t54 -49
t44.5 -59.5t37 -59.5q26 -44 50 -53.5t45.5 6t40 50t34.5 78.5t29.5 91.5t24 88t17.5 69t11 35t4.5 -14.5t-2.5 -80q-2 -36 -6.5 -75.5t-13 -79t-22.5 -76t-33.5 -65t-45.5 -47t-59 -21.5q-29 -3 -56.5 7.5t-54 27.5t-51.5 37t-47 36q-54 38 -85.5 65t-53.5 32.5
t-39.5 -16.5t-43.5 -82q-4 -10 -15 -26t-22.5 -26.5t-20.5 -9.5t-9 25z" />
    <glyph glyph-name="three" unicode="3" horiz-adv-x="761" 
d="M146 316q-10 -32 -19.5 -68t-14 -71t-2 -67.5t18 -57t46 -39t80.5 -14.5q75 0 123.5 31.5t76.5 81.5t38.5 112.5t10.5 125t-8 118.5t-17 93q-7 29 -24.5 45.5t-39 24.5t-45 10.5t-42.5 3.5t-31.5 2t-12.5 8q1 7 9.5 13t26.5 5q8 0 21.5 -0.5t27.5 -0.5q19 1 30.5 4.5
t19.5 11t13.5 20t12.5 30.5q13 37 21 84.5t11.5 98t3 99t-5.5 86.5t-14.5 61.5t-22.5 23.5q-28 0 -64.5 -12.5t-71 -33.5t-61.5 -48.5t-36 -58.5q-5 -15 2.5 -20t19 -7.5t23.5 -5t17 -12.5q8 -17 -4.5 -33t-34 -27.5t-48 -16t-47 2t-29 25.5t4.5 54q31 79 113 144
q56 45 119 65.5t135 20.5q70 0 113.5 -36.5t65 -93t23 -124.5t-13.5 -132t-45 -115.5t-71 -74.5q-15 -8 -10 -8h13q57 -3 90 -31.5t49 -72.5t17 -99t-6 -110q-12 -91 -42.5 -153.5t-71.5 -103.5t-88.5 -64t-92.5 -34t-84.5 -13t-64.5 -3q-65 -2 -108 20.5t-67 64.5
t-30 101.5t5 131.5q6 33 17 60t29 49q37 42 84 42q39 0 58 -31q25 -42 24 -58.5t-16 -18t-37.5 5.5t-38.5 11q-13 5 -19.5 -1t-11.5 -21z" />
    <glyph glyph-name="four" unicode="4" horiz-adv-x="798" 
d="M466 165l3 208q0 15 -22 23t-56.5 11t-76.5 3t-81.5 -1.5t-71.5 -3t-47 -0.5q-45 -2 -61.5 11.5t-12.5 38.5q3 25 28.5 53.5t62 66t78.5 88t79 118.5q8 15 31.5 53.5t56 87t71 99.5t76 91t70.5 61.5t55 11.5q12 -6 16.5 -15t5 -20t-1 -22.5t-1.5 -22.5q-4 -66 -4.5 -139
t0.5 -148.5t2.5 -153.5t1.5 -155q0 -13 -1 -23t1 -17t8.5 -11t21.5 -5q28 -2 40.5 -9t10.5 -14.5t-17.5 -14t-42.5 -8.5q-9 -1 -13 -15.5t-5 -36.5t0.5 -48t4 -51.5t4.5 -46.5t2 -32q2 -43 14.5 -73t27 -51t26.5 -33t14.5 -17.5t-9 -6.5t-45.5 1q-71 4 -118.5 4.5t-81.5 0
t-59 -2t-51 -2.5q-28 -1 -33.5 2t2 10t23.5 19.5t32.5 31.5t29.5 45t13 60zM471 473l16 508q1 30 -7.5 26.5t-22.5 -26.5q-25 -37 -56 -92t-64 -115t-65.5 -119t-59.5 -103q-13 -21 -31 -39t-34.5 -31t-28 -22t-12 -12.5t14 -1.5t50.5 10q11 0 37 -1.5t59.5 -3t69.5 -2
t65.5 1.5t49 7t19.5 15z" />
    <glyph glyph-name="five" unicode="5" horiz-adv-x="754" 
d="M339 -3q40 -1 62.5 30.5t36 88t21 133.5t18.5 167q8 69 6.5 134t-10.5 116t-26 81.5t-39 30.5q-26 0 -54.5 -14t-57 -36t-55.5 -49t-50 -52q-20 -22 -38.5 -24t-33.5 8.5t-23.5 31t-6.5 44.5l21 346q5 78 17.5 122.5t36 64.5t58.5 19.5t83.5 -13t113 -33t146.5 -40.5
q63 -14 84.5 -35t7.5 -32q-5 -3 -39.5 1t-84 12.5t-105.5 19.5t-103.5 20.5t-79 16l-31.5 6.5q-15 -8 -27 -44t-20.5 -88t-14 -115.5t-8.5 -127.5q-2 -26 -2 -43t5 -24t16.5 -3t34.5 21q51 36 106.5 54t103.5 18q73 0 127.5 -36.5t90 -96.5t52 -136t14.5 -156t-23 -156
t-60 -136t-97.5 -96.5t-134.5 -36.5q-148 0 -243 88q-96 91 -96 219q0 57 18.5 83t45 29t54.5 -11.5t47 -38.5t23.5 -53t-17.5 -54q-8 -11 -18.5 -16.5t-24.5 -10.5q-33 -12 -36 -30.5t12.5 -40.5t44 -44.5t59 -40.5t56.5 -30t37 -12z" />
    <glyph glyph-name="six" unicode="6" horiz-adv-x="766" 
d="M225 406q0 -28 1 -68t6 -83.5t15 -87t26.5 -79.5t40.5 -60t59 -29q19 -3 37.5 28t35 83t30 119t21 137t8.5 137t-6.5 118t-25.5 80.5t-48 25.5q-39 -5 -74.5 -24t-63 -57t-44.5 -96.5t-18 -143.5zM504 1171q-47 0 -84.5 -28.5t-66.5 -74.5t-49.5 -103.5t-34.5 -115.5
t-22 -110.5t-11 -87.5q15 17 37 36.5t47 35.5t50.5 26.5t47.5 10.5q69 0 122 -35.5t89 -93.5t54 -131.5t17.5 -149.5t-20.5 -148.5t-60 -128t-101 -87t-143 -26.5q-98 6 -160 48t-97 109.5t-47 153.5t-10 180t14 189t24 180q11 77 35 134.5t56.5 100t71.5 70.5t80 45.5
t82 26.5t78 12q17 1 42.5 -5t52.5 -18t52.5 -29t43.5 -37.5t24.5 -43.5t-3.5 -47q-5 -11 -10.5 -24.5t-11.5 -28.5q-9 -24 -22 -33.5t-25 -9t-22 10.5t-13.5 23.5t1.5 30t23 31.5q24 21 17 45.5t-30.5 46t-56.5 36t-61 14.5z" />
    <glyph glyph-name="seven" unicode="7" horiz-adv-x="750" 
d="M92 -20q25 11 39 34.5t23 58t17.5 79.5t23.5 98q23 82 40.5 143.5t33.5 111t34 92.5t42 87.5t57 95.5t80 117q20 28 39.5 57.5t37.5 61.5q6 10 11 18.5t5 14t-7 8t-24 0.5q-28 -3 -61 4.5t-67.5 19.5t-68.5 26.5t-64.5 24t-56.5 11.5t-43 -9q-8 -5 -13.5 -29.5
t-8.5 -59.5t-4.5 -76t-2.5 -80.5t-2 -73t-2 -51.5q-2 -35 -13.5 -41t-25.5 10t-29 49t-24.5 75t-11.5 89.5t9 92t38 82t76 60.5q22 10 47 16t54 4.5t63.5 -11t76.5 -30.5q40 -21 74.5 -28t63 -4.5t51 11t39.5 19.5q41 26 55 11t7.5 -59.5t-29 -114t-53.5 -153t-67 -176.5
t-68.5 -184.5t-58.5 -176t-37.5 -152t-4 -113t40.5 -57.5z" />
    <glyph glyph-name="eight" unicode="8" horiz-adv-x="811" 
d="M474 696q44 15 82.5 51.5t67 83.5t45 99.5t16.5 100.5q0 33 -19.5 59t-50 43.5t-68 25.5t-73 5t-64.5 -18t-43 -43q-6 -13 -13 -35t-12.5 -49.5t-9.5 -58t-5 -61.5q-2 -53 4 -88t23 -58t46.5 -36t73.5 -21zM309 570q-73 -20 -119 -69.5t-65 -112.5t-11 -131t43 -124.5
t98 -94t154 -38.5q38 0 63.5 30.5t40 78t17.5 105.5t-4 112q-6 48 -15.5 83t-32 62t-62.5 50t-107 49zM251 604q-57 31 -87 70.5t-40.5 85t-6.5 97.5t15 109q12 62 27.5 107t40.5 77q30 38 77.5 58t103 23t113.5 -9t108.5 -37.5t88 -63.5t51.5 -86q16 -54 2 -107.5
t-47.5 -101.5t-80 -89t-95.5 -70q49 -17 90 -56t70.5 -92t46 -115t17 -124t-17 -120t-56 -102.5t-100.5 -71t-150 -26.5q-104 0 -181.5 36t-125.5 93t-66 128.5t-2 143.5t66.5 136t138.5 107z" />
    <glyph glyph-name="nine" unicode="9" horiz-adv-x="774" 
d="M485 761q0 28 1 68t-0.5 84t-5.5 87.5t-14 79.5t-26 60t-40 29q-18 4 -37.5 -25.5t-37 -80.5t-32 -117.5t-23.5 -136t-11.5 -135.5t4 -117t24 -80t47.5 -25q39 6 66.5 23.5t46 53t27.5 92t11 140.5zM320 51q39 41 66.5 103.5t46 130t28.5 130t13 103.5q-15 -17 -29 -35
t-30 -32.5t-33.5 -23.5t-39.5 -9q-70 0 -122.5 35.5t-87.5 93t-52 130.5t-15 148.5t23.5 147t62.5 126t102 85.5t144 25q86 -6 144 -48.5t94.5 -109.5t53.5 -153.5t20 -180t-4.5 -188.5t-19.5 -180q-11 -73 -44.5 -136.5t-82 -114t-108.5 -84.5t-122.5 -46.5t-124.5 -1.5
t-115 50q-26 19 -38.5 42.5t-15.5 47.5t2 46.5t15 40.5t22.5 29t24.5 13q13 1 24.5 -7.5t16 -23t0 -32t-23.5 -33.5q-20 -17 -18.5 -37t15.5 -38q46 -59 98.5 -66t109.5 53z" />
    <glyph glyph-name="exclam" unicode="!" horiz-adv-x="438" 
d="M163 432q-2 69 -1.5 156.5t0.5 181.5t-1 188.5t-4.5 177.5t-11.5 149t-22 104q-17 46 -18 66.5t13.5 25.5t44.5 2t75 -3q40 0 61.5 -5.5t30.5 -16t8.5 -24.5t-5 -31t-9.5 -36t-5 -39q0 -4 -2 -44l-5 -100t-8 -133.5t-11 -143.5q-5 -62 -8.5 -116t-6.5 -105.5t-5.5 -104
t-3.5 -112.5q0 -18 -3.5 -42.5t-9.5 -47t-15 -40t-19 -20.5q-9 -3 -19 6.5t-18.5 26.5t-14.5 38t-7 42zM119 48q-6 21 0 46t19.5 47t32.5 37t38 17t36.5 -13.5t28.5 -53.5q5 -18 5.5 -46.5t-5 -55t-17 -45t-31.5 -17.5q-32 1 -64 24.5t-43 59.5z" />
    <glyph glyph-name="at" unicode="@" horiz-adv-x="1270" 
d="M717 331q-30 -77 -72 -119q-16 -18 -51 -32.5t-75 -19t-76.5 5t-54.5 39.5q-20 33 -27 84t-3 113t17.5 130t34 134.5t47 127t57 107.5t63 75.5t65.5 31.5q15 2 25 0t18 -7t15.5 -13t18.5 -19q15 -15 27 -35.5t22 -45.5q8 -23 12.5 -25t6.5 24q6 62 22 87.5t37.5 27
t47 -14t51.5 -34.5q22 -17 31.5 -31.5t9.5 -31.5t-6 -38t-14 -50q-4 -14 -9 -43t-10.5 -68.5t-11.5 -85.5t-12.5 -93t-12.5 -92t-11 -81q-8 -50 -6 -75t10.5 -33.5t21 -3.5t27.5 14q16 11 30.5 22.5t26.5 28.5q43 65 75.5 126t49.5 122q26 92 30 165.5t-9 133t-41.5 107
t-67.5 87t-87 73.5t-101 66q-98 60 -176.5 82t-140 12.5t-107 -46.5t-77 -95.5t-50.5 -134t-28 -161.5q-10 -93 -7.5 -193.5t14.5 -198.5t33.5 -188.5t49.5 -165.5q27 -73 66 -117.5t91.5 -59.5t120.5 0.5t154 63.5q125 70 179 92t49.5 10t-61.5 -52t-156 -95
q-83 -45 -174.5 -63t-177 -6.5t-156.5 53t-112 115.5q-43 77 -65.5 173.5t-27.5 201.5t5.5 214.5t34.5 212.5q35 153 102 258.5t161 160t214 57t261 -50.5q90 -33 159 -89.5t109 -143t46 -207t-30 -282.5q-15 -70 -39.5 -128.5t-57.5 -107.5q-38 -55 -82 -84t-91 -32
q-68 -5 -108 44q-16 18 -27 45t-19 62q-5 29 -8.5 26t-11.5 -23zM681 845q-15 -60 -34.5 -137t-37.5 -155.5t-31.5 -151t-16.5 -123.5q-3 -39 0 -56.5t11.5 -18.5t21.5 12t31 34q9 11 18.5 25t18.5 31q22 40 36 93t23 110t15.5 113.5t13.5 102.5q2 18 3.5 29.5t1.5 22t-1 22
t-4 28.5q-5 36 -11 67.5t-13.5 42t-18.5 -8t-26 -82.5z" />
    <glyph glyph-name="ampersand" unicode="&#x26;" horiz-adv-x="1177" 
d="M643 71q-56 -48 -121.5 -76t-138.5 -29q-85 -1 -143 31t-93.5 85.5t-51 121.5t-15.5 139q0 76 10 135t32.5 108t58.5 91.5t88 85.5q13 11 21 16t11 11t1 16.5t-8 31.5q-17 57 -29 112t-12 110q0 45 9.5 90.5t29 85.5t50.5 71.5t73 48.5q33 13 74 13q36 0 69.5 -10
t59.5 -25t42 -33t17 -34q3 -62 1 -114.5t-13 -98t-33 -83.5t-59 -69q-33 -28 -65.5 -51t-52.5 -40q-12 -9 -17 -15t-6.5 -11t1 -12t5.5 -19q12 -42 37.5 -102t56.5 -123t63 -121t56 -97q8 -13 15.5 -24t14.5 -16t14.5 -1.5t15.5 19.5q13 24 27 52t27 55t23.5 51l17.5 40
q37 85 53.5 140t14.5 89t-21.5 51t-53.5 27q-8 2 -21 5.5t-25 6.5t-21 7t-9 8t11.5 7.5t40.5 7.5q34 -7 66.5 -9t62.5 -3t56.5 -2t49.5 -5q43 -8 71 -18t39 -19.5t3.5 -17t-37.5 -10.5q-11 -1 -21 1.5t-19.5 4.5t-18.5 2.5t-17 -5.5q-28 -20 -49 -55t-39 -79.5t-35 -96.5
t-37.5 -106t-45.5 -107t-60 -100q-5 -6 -3 -12.5t6.5 -13.5t11 -13.5t11.5 -12.5q57 -75 100 -107t74.5 -32.5t53.5 25t37 65t23.5 86.5t14.5 91t9.5 77.5t7.5 46t10 -3t17 -69.5q12 -62 0 -127.5t-38 -118.5q-30 -59 -78 -84t-101.5 -25.5t-106 19.5t-91.5 50
q-8 7 -14.5 14t-13.5 11t-14.5 3.5t-16.5 -9.5zM451 891q15 34 22 83t7.5 100.5t-3.5 99.5t-10 80q-3 16 -5 32.5t-6 28.5t-10 16.5t-18 -1.5q-28 -15 -44 -46.5t-22 -72.5t-4.5 -88.5t8.5 -94t17.5 -88.5t21.5 -72q4 -11 10 -12.5t12.5 3t12.5 13.5t11 19zM589 195
q-26 42 -55 92.5t-52 97.5q-12 24 -26.5 56.5t-30 69t-31 75t-30.5 76.5q-6 16 -12.5 30.5t-13.5 19.5t-15.5 -2t-20.5 -35q-14 -33 -14.5 -83.5t10 -108t30 -118t44 -114.5t53 -96.5t57 -64t55.5 -17.5t49 43q8 13 12.5 22t5 17.5t-3 17.5t-11.5 22z" />
    <glyph glyph-name="question" unicode="?" horiz-adv-x="698" 
d="M279 339q2 44 7 80.5t13 68.5q10 37 17.5 58.5t13.5 38t11.5 33.5t11 45t12.5 71.5t16 114.5q6 45 7 94t-0.5 96.5t-5.5 90t-10 73.5q-5 27 -10.5 41t-14.5 17t-23 -4t-35 -22q-36 -25 -69.5 -65t-60.5 -85t-45 -90.5t-23 -81.5q-2 -10 0.5 -19.5t9 -15.5t17.5 -6.5
t26 7.5q24 12 42 5t28.5 -24t13 -39.5t-5.5 -41.5t-27 -30t-51 -5q-27 5 -44.5 23t-27.5 44t-13 58.5t-2 67.5q4 80 22.5 146.5t54.5 115t89.5 75.5t127.5 28q36 0 74 -1.5t70.5 -9.5t57.5 -25.5t36 -48.5q17 -48 27 -106.5t11 -120.5t-8.5 -123t-32 -112.5t-59.5 -89.5
t-91 -55q-47 -17 -63.5 -54t-17.5 -91q0 -15 1.5 -43.5t-0.5 -59.5t-10.5 -58t-30.5 -39q-8 -4 -14.5 1.5t-11.5 16.5t-7.5 26t-2.5 30zM238 3q0 47 23 79q21 30 41 38t36 -2t26.5 -36.5t11.5 -65.5q1 -26 -3 -38.5t-12.5 -18.5t-20 -8.5t-26.5 -8.5q-13 -5 -26.5 -4.5
t-24.5 7t-18 20.5t-7 38z" />
    <glyph glyph-name="quotedbl" unicode="&#x22;" horiz-adv-x="347" 
d="M240 962q1 24 0.5 47.5t-4.5 34.5q-2 6 1 15t10 15q8 7 19.5 4t19.5 -1q9 2 12.5 -2t4 -10t-1 -12.5t-1.5 -9.5q0 -2 -2 -18.5t-6 -33.5q-3 -16 -5 -28t-3 -26q-2 -6 -8 -7t-10 0q-16 3 -21 9.5t-5 22.5zM150 962q1 24 0.5 47.5t-4.5 34.5q-2 6 1 15t10 15q8 7 19.5 4
t19.5 -1q9 2 12.5 -2t4 -10t-1 -12.5t-1.5 -9.5q0 -2 -2 -18.5t-6 -33.5q-3 -16 -5 -28t-3 -26q-2 -6 -7.5 -7t-10.5 0q-16 3 -21 9.5t-5 22.5z" />
    <glyph glyph-name="numbersign" unicode="#" horiz-adv-x="958" 
d="M144 733q64 2 140 0q2 74 0 138t-8 114v74t3.5 40.5t12 17t24.5 3.5q28 -6 40.5 -19.5t16.5 -33t3 -45t-1 -55.5q0 -3 -0.5 -22.5t-1.5 -51.5t-3 -73.5t-4 -88.5q66 -2 131 -4.5t125 -1.5q-1 97 -1 188t4 170q1 26 13.5 30.5t24.5 -3.5q7 -5 14 -6.5t12.5 -4.5t9 -11
t2.5 -26q-2 -89 -3 -168.5t0 -164.5q52 3 91 12q33 1 51.5 1.5t28 -3t12.5 -12.5t3 -26q-4 -30 -13 -43.5t-22.5 -18.5t-31.5 -4.5t-39 -0.5h-24t-55 1q0 -8 0.5 -17t0.5 -17l2 -135q42 2 81 2t74 -1q18 -2 21.5 -15t-2.5 -26q-3 -7 -4 -14.5t-3 -13.5t-7.5 -9.5t-18.5 -2.5
q-37 0 -71.5 -0.5t-69.5 -1.5v-78v-65.5v-46v-19.5q-1 -30 -1 -55.5t-5 -45t-18 -32t-41 -17.5q-16 1 -24.5 4.5t-11.5 17t-2 40.5t3 74q8 44 12 100t6 121l-100 -5q-44 -2 -89 -3.5t-85 -3.5q-3 -72 -4.5 -142t-3.5 -147q0 -18 -3.5 -25.5t-9.5 -10.5t-13 -4t-14 -6
q-12 -8 -24.5 -3t-12.5 31q0 68 2.5 145.5t6.5 159.5h-47q-21 1 -39 0t-31.5 4t-22.5 19t-13 44q0 17 3 25.5t12.5 12t28 3t51.5 -1.5q14 -4 30 -6t33 -4q2 48 3.5 94.5t3.5 92.5q-30 0 -61 0.5t-63 0.5q-13 -1 -18.5 3t-7.5 10t-3 13.5t-4 14.5q-6 13 -2.5 26t21.5 14z
M356 542q-2 -22 -3 -42.5t-2 -40.5q62 -2 131 0t140 5q1 42 0.5 85.5t-0.5 88.5q-34 1 -70 2.5t-71 3.5q-32 2 -61 3l-58 2z" />
    <glyph glyph-name="percent" unicode="%" horiz-adv-x="847" 
d="M126 -39q33 75 76 175.5t90 212.5t94.5 228t89.5 223t75 197t51 150q22 51 35 79.5t23 41.5t20 12.5t25 -9.5q24 -21 30 -42t0.5 -44.5t-18.5 -50.5t-28 -59q-1 -3 -14 -36.5t-34 -86.5t-48.5 -119.5t-56.5 -135t-58.5 -133t-54.5 -113.5q-33 -65 -59.5 -128.5t-51 -127
l-49 -127t-53.5 -128.5q-9 -19 -16.5 -25.5t-14 -6.5t-14 2.5t-16.5 1.5q-16 -3 -25.5 9t2.5 40zM266 628q14 0 24.5 19t17.5 50t10.5 70t4 80t-2 80t-7.5 69.5t-13.5 49t-18.5 18.5q-16 0 -27 -32.5t-17.5 -81t-8.5 -105t1.5 -105t12.5 -80.5t24 -32zM136 841q2 59 7.5 104
t21 74.5t43 44.5t73.5 14q24 0 41.5 -21.5t28.5 -55.5t15.5 -77.5t3 -88t-9 -87t-20.5 -74.5t-31.5 -50t-42.5 -14q-39 5 -64.5 29t-40.5 57t-20.5 71.5t-4.5 73.5zM601 99q19 0 31 33t18.5 81.5t7 105t-4 105t-14 80.5t-23.5 32q-16 0 -27 -32.5t-17.5 -81.5t-8.5 -105.5
t1.5 -105t12.5 -80.5t24 -32zM471 312q2 59 8 104t21.5 74.5t43 44.5t72.5 14q24 0 41.5 -21t28.5 -55t15.5 -77.5t3 -88t-9 -87t-20.5 -74.5t-31.5 -50t-42.5 -14q-39 5 -64.5 28.5t-40.5 56.5t-20.5 71.5t-4.5 73.5z" />
    <glyph glyph-name="dollar" unicode="$" horiz-adv-x="980" 
d="M460 -110l4 143q-45 14 -87.5 38.5t-80.5 53.5q-29 22 -47 15t-28 -26t-15 -41t-8 -29.5t-7 7.5t-12 71q-5 38 -6 81.5t-0.5 82.5t1.5 69t0 41q-4 51 2 61.5t17 -4t24.5 -45t25.5 -62t20.5 -55.5l8.5 -24q16 -41 38 -72.5t47 -54t52.5 -37.5t55.5 -22q2 88 4 185.5
t3 199.5q-22 25 -48.5 56.5t-53.5 64t-53 64t-46.5 56.5t-34 41t-14.5 19q-19 35 -29.5 70t-12 66t6 57t24.5 44q42 45 68.5 77t51 50t54.5 21t79 -12l-2 28q1 55 2.5 86.5t6 47t14 18.5t26.5 1q30 -11 43.5 -28t17.5 -41t1.5 -53.5t-4.5 -65.5q0 -2 0.5 -11t0.5 -22
q35 -18 68.5 -42t63.5 -54q19 -18 28.5 -21.5t17.5 24.5q5 15 14.5 37t20.5 42.5t22 36t20 16.5t15 -15.5t6 -59.5v-307q0 -34 -7.5 -36.5t-19 14t-25 45t-25 57t-19.5 49.5t-9 23q-31 51 -76.5 83t-94.5 51v-139t-2 -173q39 -44 78 -86.5t71.5 -80t55.5 -67.5t32 -49
q15 -33 25 -66t13.5 -63.5t0 -57t-16.5 -46.5q-27 -41 -55.5 -75.5t-61.5 -60t-72.5 -41t-89.5 -16.5q0 -29 -0.5 -59t-1.5 -61q-1 -21 -5.5 -30t-11 -11.5t-14 -3t-15.5 -4.5q-14 -9 -27.5 -1t-12.5 38zM549 380q-4 -79 -3 -154t2 -152q42 4 64 21t29.5 43t2 57.5t-19 64
t-33.5 64t-42 56.5zM358 1061q-8 -15 -2 -37.5t22 -51.5t40.5 -62.5t54.5 -69.5q-1 65 -2 122.5t-3 106.5q-45 6 -75.5 3t-34.5 -11z" />
    <glyph glyph-name="quotesingle" unicode="'" horiz-adv-x="333" 
d="M150 962q1 24 0.5 47.5t-4.5 34.5q-2 6 1 15t10 15q8 7 19.5 4t19.5 -1q9 2 12.5 -2t4 -10t-1 -12.5t-1.5 -9.5q0 -2 -2 -18.5t-6 -33.5q-3 -16 -5 -28t-3 -26q-2 -6 -7.5 -7t-10.5 0q-16 3 -21 9.5t-5 22.5z" />
    <glyph glyph-name="parenleft" unicode="(" horiz-adv-x="584" 
d="M539 -144q-12 -6 -26 -5.5t-28.5 4t-27.5 8.5t-24 9q-57 23 -101 66t-76.5 99.5t-54 123.5t-34 138.5t-16.5 143.5t-1 138q7 184 24.5 323t60 230.5t117.5 135.5t197 40q25 -1 34 -10t9 -19t-6.5 -18t-12.5 -8q-3 0 -10.5 7.5t-13.5 7.5q-40 0 -73 -48.5t-58 -129
t-42 -186t-25 -220t-6 -230.5t14.5 -217t36 -179.5t59.5 -118.5q14 -15 29 -24.5t32 0.5q18 9 27.5 2.5t12 -19.5t-2 -26.5t-14.5 -17.5z" />
    <glyph glyph-name="parenright" unicode=")" horiz-adv-x="528" 
d="M7 -144q-11 4 -15 17.5t-1.5 26.5t12 19.5t27.5 -2.5q17 -10 32 -0.5t29 24.5q36 40 59.5 118.5t36 179.5t14.5 217t-6 230.5t-25 220t-42 186t-58 129t-73 48.5q-6 0 -13.5 -7.5t-10.5 -7.5q-6 0 -12.5 8t-6.5 18t9 19t34 10q122 4 197 -40t117.5 -135.5t60 -230.5
t24.5 -323q3 -67 -1 -138.5t-16.5 -143t-34 -138.5t-54 -123.5t-76.5 -99.5t-101 -66q-11 -4 -24 -9t-27.5 -8.5t-28.5 -4t-26 5.5z" />
    <glyph glyph-name="asterisk" unicode="*" horiz-adv-x="611" 
d="M172 798l132 98q-34 24 -63 44t-49 30q-12 10 -19 15.5t-9 10t0 8t7 8.5q12 8 20 9.5t14.5 -1t12 -8t13.5 -12.5q2 -1 28.5 -20t58.5 -43q0 35 -1.5 64t-4.5 48q1 14 1.5 22.5t3 12.5t7 4.5t12.5 0.5q14 -3 20 -7.5t8 -10.5t0.5 -14t-2.5 -18q0 -2 1 -31.5t-1 -66.5
q28 23 50.5 43t35.5 34q13 9 20.5 14t12 6t8.5 -1t9 -8q6 -12 6.5 -19t-3.5 -12.5t-11 -9.5t-16 -10q-1 -1 -10.5 -9t-24.5 -20t-33.5 -26.5t-37.5 -27.5l11 -10q29 -28 60.5 -47.5t61.5 -43.5q9 -8 5 -12.5t-6 -11.5q-2 -5 -8.5 -8.5t-11.5 2.5q-24 18 -57 43.5t-69 51.5
q-5 -37 -2.5 -70.5t0.5 -68.5q-2 -11 -8 -11t-14 -2q-6 -2 -12.5 0t-5.5 10q1 27 2.5 65t2.5 80q-33 -21 -59 -44t-56 -45q-11 -7 -14.5 -2.5t-11.5 8.5q-6 2 -8.5 8t4.5 11z" />
    <glyph glyph-name="plus" unicode="+" horiz-adv-x="1014" 
d="M858 614q13 2 17 -8.5t-1 -21.5q-2 -6 -1.5 -14t-0.5 -15.5t-4.5 -13t-13.5 -6.5q-66 -4 -128 1t-131 3q-7 -1 -14.5 -1h-15.5q3 -39 4 -80t1 -75t-0.5 -56t-0.5 -23q1 -17 3 -30.5t-1 -25t-13.5 -19.5t-34.5 -13q-13 -1 -20 0.5t-10.5 8.5t-4.5 21.5t-2 40.5
q5 40 7 106.5t2 144.5q-39 0 -78 0.5t-71 1t-53 1t-22 0.5q-16 3 -28.5 -1t-22 -5t-16.5 5.5t-12 30.5q-1 13 0.5 21t8.5 12t21.5 4.5t40.5 -0.5q58 -2 115.5 -3.5t115.5 -1.5q-2 80 -4.5 154.5t-5.5 128.5q-1 13 9.5 17t21.5 -1q6 -2 12.5 -1.5t11.5 -1t8.5 -5.5t4.5 -14
q1 -33 0.5 -65t-1 -63.5t0 -63.5t5.5 -66l3 -19q75 0 149 3t149 8z" />
    <glyph glyph-name="comma" unicode="," horiz-adv-x="292" 
d="M83 -35l19 34q0 5 -4 7t-9 5t-10 9t-7 19q-3 17 1 26t11.5 13t16.5 4.5t17 0.5q18 0 27 -3.5t12.5 -9.5t3 -13.5t-0.5 -14.5q0 -2 -2 -18.5t-6 -33.5q-2 -8 -7.5 -18t-13 -20t-15 -18.5t-11.5 -14.5q-5 -4 -10 -1.5t-9 6.5q-11 11 -11.5 19t8.5 22z" />
    <glyph glyph-name="period" unicode="." horiz-adv-x="375" 
d="M182 143q31 -13 43 -39t8 -52.5t-21 -46t-43 -19.5q-35 0 -50 13t-18 33.5t4 44t17 44.5q6 11 11.5 16t12.5 6.5t15.5 0.5t20.5 -1z" />
    <glyph glyph-name="hyphen" unicode="-" horiz-adv-x="1027" 
d="M858 614q13 2 17 -8.5t-1 -21.5q-2 -6 -1.5 -14t-0.5 -15.5t-4.5 -13t-13.5 -6.5q-66 -4 -128 1t-131 3q-25 -1 -58.5 -1h-69t-70 0.5t-62 1.5t-45.5 1h-19q-16 3 -28.5 -1t-22 -5t-16.5 5.5t-12 30.5q-1 13 0.5 21t8.5 12t21.5 4.5t40.5 -0.5q152 -5 299.5 -5t295.5 11z
" />
    <glyph glyph-name="slash" unicode="/" horiz-adv-x="681" 
d="M34 -185q21 58 54 152.5t73 212t85 250t90 267.5t87.5 265t77.5 241t60 196t36 131q18 52 29 81.5t20 43t19 13.5t26 -8q31 2 39 -16t2.5 -47t-19 -64.5t-25.5 -68.5q-1 -2 -14.5 -43.5t-36 -110.5t-52 -158t-62 -185.5t-66 -194.5t-64 -185t-56 -155.5t-41.5 -106.5
q-28 -67 -50 -132.5t-42 -130.5t-40.5 -130t-44.5 -132q-8 -20 -14.5 -27t-13.5 -7.5t-14.5 1.5t-16.5 1q-15 -5 -25.5 6.5t-0.5 40.5z" />
    <glyph glyph-name="colon" unicode=":" horiz-adv-x="513" 
d="M279 707q22 -9 30.5 -28t5.5 -38t-15 -33t-31 -14q-25 0 -36 9.5t-13 24t3 31.5t12 32q8 16 17.5 16h26.5zM274 365q-9 0 -15 -0.5t-11.5 0.5t-9.5 4.5t-8 11.5q-7 15 -12 32t-3 31.5t13 24t36 9.5q19 0 31 -14t15 -33t-5.5 -38t-30.5 -28z" />
    <glyph glyph-name="semicolon" unicode=";" horiz-adv-x="513" 
d="M279 707q22 -9 30.5 -28t5.5 -38t-15 -33t-31 -14q-25 0 -36 9.5t-13 24t3 31.5t12 32q8 16 17.5 16h26.5zM226 360l19 34q0 5 -4 7t-9 5t-10 9t-7 19q-3 17 1 26t11.5 13t16.5 4.5t17 0.5q18 0 27 -3.5t12.5 -9.5t3 -13.5t-0.5 -14.5q0 -2 -2 -18.5t-6 -33.5
q-2 -8 -7.5 -18t-13 -20t-15 -18.5t-11.5 -14.5q-5 -4 -10 -1.5t-9 6.5q-11 11 -11.5 19t8.5 22z" />
    <glyph glyph-name="less" unicode="&#x3c;" horiz-adv-x="680" 
d="M148 428q-1 1 -1 5q-5 5 -7 11.5t3 11.5q15 16 42.5 45.5t60.5 66t68 76.5t66 76t54 65.5t32 45.5q19 21 26.5 23.5t18.5 -16.5q13 -12 15 -21.5t-2 -17.5t-11.5 -15t-13.5 -13q-1 1 -8.5 -9t-20.5 -25t-30 -34.5t-36 -40.5l-37 -42q-18 -21 -35.5 -38.5t-32 -31
t-22.5 -21.5q-13 -10 -23.5 -21t-20.5 -23q20 -24 38.5 -48.5t43.5 -44.5q9 -7 23 -20.5t31.5 -31t36.5 -38.5t37 -42t35 -40.5t30.5 -34.5t21 -25t7.5 -9q6 -7 13.5 -14t11.5 -15t2 -17.5t-14 -20.5q-12 -20 -26 -28.5t-33 12.5q-9 16 -34 44t-57.5 63t-70 72.5l-72.5 72.5
t-64 63.5t-45 44.5z" />
    <glyph glyph-name="greater" unicode="&#x3e;" horiz-adv-x="625" 
d="M502 476q2 -2 0 -5q5 -5 7.5 -11.5t-2.5 -11.5q-16 -16 -43 -45.5t-60 -66t-68 -76.5t-66 -76t-54 -65.5t-32 -45.5q-10 -11 -16 -17t-10.5 -7t-8.5 3t-10 14q-13 12 -15 21.5t2 17.5t11.5 15t13.5 13q1 -1 8.5 9t20.5 25t30 34.5t35 40.5l37 42q19 21 36.5 38.5t32 31
t22.5 21.5q13 9 23 20.5t20 23.5q-20 23 -38 48t-43 45q-9 7 -23 20.5t-31.5 31t-36.5 38.5t-37 42t-35 40.5t-30.5 34.5t-21 25t-7.5 9q-6 7 -13.5 14t-11.5 15t-2 17.5t14 20.5q6 10 12.5 17.5t13.5 10.5t15 0.5t18 -12.5q9 -16 34 -44t57.5 -63t70 -72.5l72.5 -72.5
t64 -63.5t45 -44.5z" />
    <glyph glyph-name="equal" unicode="=" horiz-adv-x="1027" 
d="M858 679q13 2 17 -8.5t-1 -21.5q-2 -6 -1.5 -14t-0.5 -15.5t-4.5 -13t-13.5 -6.5q-66 -4 -128 1t-131 3q-25 -1 -58.5 -1h-69t-70 0.5t-62 1.5t-45.5 1h-19q-16 3 -28.5 -1t-22 -5t-16.5 5.5t-12 30.5q-1 13 0.5 21t8.5 12t21.5 4.5t40.5 -0.5q152 -5 299.5 -5t295.5 11z
M858 510q13 2 17 -8.5t-1 -21.5q-2 -6 -1.5 -14t-0.5 -15.5t-4.5 -13t-13.5 -6.5q-66 -4 -128 1t-131 3q-25 -1 -58.5 -1h-69t-70 0.5t-62 1.5t-45.5 1h-19q-16 3 -28.5 -1t-22 -5t-16.5 5.5t-12 30.5q-1 13 0.5 21t8.5 12t21.5 4.5t40.5 -0.5q152 -5 299.5 -5t295.5 11z
" />
    <glyph glyph-name="bracketleft" unicode="[" horiz-adv-x="542" 
d="M194 -110q3 82 5.5 191.5t4.5 230.5t3 246.5t0.5 240.5t-3.5 211t-8 158q2 67 3.5 99.5t9.5 44.5q0 5 6 7h1q9 5 26 2q26 3 58 8.5t64.5 9t62.5 3.5t52.5 -8.5t34 -27t6.5 -51.5q-3 -20 -6 -25t-7.5 -2t-11 10t-17.5 10q-23 6 -62.5 3.5t-81.5 -8.5q17 -41 14 -106
q0 -3 0.5 -39t0.5 -93t-0.5 -128.5t-2 -146t-5 -145.5t-8.5 -126q-6 -67 -7 -131.5t-0.5 -127.5l1 -126t-0.5 -127q45 2 86 8t62 19q11 0 18 -1t11 -6t6.5 -16t5.5 -31q0 -21 -19.5 -30t-50 -12.5t-68.5 -4.5t-75 -5q-12 -6 -27 -7t-26 -3l-16 -5q-6 -4 -9 -4l-1 -1h-1
q-11 -2 -20 8.5t-8 33.5z" />
    <glyph glyph-name="bracketright" unicode="]" horiz-adv-x="569" 
d="M361 1350q-3 -82 -5.5 -191.5t-4.5 -230.5t-3 -246.5t-0.5 -240.5t3 -211t8.5 -158q-2 -67 -4 -99.5t-10 -44.5q0 -6 -5 -7h-1q-10 -5 -26 -2q-26 -3 -58 -8.5t-64.5 -9t-63 -3.5t-52.5 8.5t-33.5 27t-6.5 51.5q3 20 6 25t7.5 2t11 -10t17.5 -10q23 -6 62 -3.5t82 8.5
q-17 41 -14 106q0 3 -0.5 39t-0.5 93t0.5 128.5t2 146t5 145.5t8.5 126q6 67 7 131t0.5 127t-1.5 126t1 128q-45 -2 -86 -8t-62 -19q-11 0 -18 1t-11 6t-6.5 16t-5.5 31q-1 21 18.5 30t50 12.5t69 4t75.5 5.5q12 6 26.5 7t26.5 3l15 5q6 4 9 4q1 0 1 0.5t1 0.5h1
q11 2 20 -8.5t8 -33.5z" />
    <glyph glyph-name="backslash" unicode="\" horiz-adv-x="653" 
d="M580 -185q10 -29 -0.5 -40.5t-25.5 -6.5q-9 1 -16.5 -1t-14.5 -1.5t-14 7.5t-14 27q-24 67 -44.5 132t-40.5 130t-42 130.5t-50 132.5q-16 38 -41.5 106.5t-56 155.5t-64 185t-66 194.5t-62 185.5t-52 158t-36 110.5t-14.5 43.5q-12 33 -25.5 68.5t-19 64.5t2.5 47t39 16
q16 8 26 8t19 -13.5t20 -43t29 -81.5q10 -46 35.5 -131t60.5 -196t77.5 -241t87.5 -265t90 -267.5t85 -250t73 -212t54 -152.5z" />
    <glyph glyph-name="asciicircum" unicode="^" 
d="M431 1419h3q5 4 10 5t8 -2q11 -13 31.5 -36t46 -51t53.5 -57.5t54 -55.5t47 -45.5t32 -27.5q14 -17 16 -22.5t-14 -12.5q-10 -9 -17 -10t-13 2.5t-11 9.5t-9 12q1 0 -6.5 6.5t-18 17.5t-24 25.5t-28 29.5t-29.5 31.5t-26.5 31t-21.5 26.5t-16 18q-6 10 -14 19t-16 17
q-20 -14 -39.5 -26t-36.5 -30q-6 -6 -17.5 -16t-26 -22t-31.5 -25t-34.5 -25.5t-33 -24.5t-28 -21t-20.5 -14t-7 -5l-12 -10t-13 -7.5t-14 -0.5t-14 13q-13 11 -19 21.5t12 24.5q12 6 35.5 23t52 39.5t60 48.5t60 50.5t52.5 44.5t37 31z" />
    <glyph glyph-name="underscore" unicode="_" horiz-adv-x="875" 
d="M754 73q13 2 17 -8.5t-1 -21.5q-2 -6 -1.5 -14t-0.5 -15.5t-4.5 -13t-13.5 -6.5q-66 -4 -128 1t-131 3q-25 -1 -58.5 -1h-69t-70 0.5t-62 1.5t-45 1h-19.5q-16 3 -28.5 -1t-22 -5t-16.5 5.5t-12 30.5q-1 13 0.5 21t8.5 12t21.5 4.5t40.5 -0.5q152 -5 299.5 -5t295.5 11z
" />
    <glyph glyph-name="grave" unicode="`" 
d="M396 1170q-9 19 -29 47t-42 55t-41.5 48.5t-26.5 28.5q-9 7 -10 13t3.5 11t13 10t17.5 10q9 6 18.5 13.5t17.5 11t14 1t8 -16.5q9 -17 24 -44.5t31 -57t30 -56.5t21 -43l8 -13q1 -11 -12.5 -17.5t-25.5 -14.5q-11 -4 -13 1t-6 13z" />
    <glyph glyph-name="acute" unicode="&#xb4;" 
d="M423 1170q-4 -8 -6 -13t-13 -1q-12 8 -25.5 14.5t-12.5 17.5l8 13q7 16 21 43t29.5 56.5t31 57t24.5 44.5q2 14 8 16.5t14 -1t17.5 -11t18.5 -13.5q9 -5 17.5 -10t13 -10t3.5 -11t-10 -13q-7 -7 -26.5 -28.5t-41.5 -48.5t-42 -55t-29 -47z" />
    <glyph glyph-name="braceleft" unicode="{" horiz-adv-x="570" 
d="M489 -144q-12 -6 -26 -5.5t-28.5 4t-27.5 8.5t-24 9q-43 17 -72.5 55.5t-49 89.5t-31 110.5t-19.5 119.5t-13.5 116.5t-13.5 101t-20 73t-31 32.5q33 3 52.5 36.5t32.5 87t22 120.5t19.5 136t26.5 134.5t43 116.5t68 81t102 28q25 -1 34 -10t9 -19t-6.5 -18t-12.5 -8
q-3 0 -10.5 7.5t-13.5 7.5q-23 0 -39 -29t-28.5 -77t-21.5 -109.5t-17.5 -126t-17 -127.5t-20 -113.5t-26 -84t-35.5 -38.5q30 -30 44 -81.5t19.5 -113t6 -127.5t3 -125.5t10 -106.5t28.5 -70q14 -15 29 -24.5t32 0.5q18 9 27.5 2.5t12 -19.5t-2 -26.5t-14.5 -17.5z" />
    <glyph glyph-name="braceright" unicode="}" horiz-adv-x="653" 
d="M114 1305q12 6 26 5.5t28.5 -4t27.5 -8.5t24 -9q43 -17 72.5 -55.5t49 -89.5t31 -110.5t19.5 -119.5t13.5 -116.5t13.5 -101t19.5 -73t31.5 -32.5q-33 -3 -52.5 -36.5t-32.5 -87t-22 -120.5t-19.5 -136t-26.5 -134.5t-43 -116.5t-68 -81t-102 -28q-25 1 -34 10t-9 19
t6.5 18t12.5 8q3 0 10.5 -7.5t13.5 -7.5q23 0 39 29t28.5 77t21.5 109.5t17.5 126t17 127.5t20 113.5t26 84t35.5 38.5q-30 30 -44 81.5t-19.5 113t-6 127.5t-3 125.5t-10.5 106.5t-28 70q-14 15 -29 24.5t-32 -0.5q-18 -9 -27.5 -2.5t-12 19.5t1.5 26t15 18z" />
    <glyph glyph-name="bar" unicode="|" horiz-adv-x="445" 
d="M147 -284q2 62 4 162t4.5 224t4.5 264t3 282.5t1.5 279t0 253t-3 205t-6.5 135.5q1 55 2.5 86.5t6 47t14 18.5t27.5 1q28 12 41.5 -3t17 -44t1.5 -67.5t-3 -73.5v-46t-0.5 -116t-1 -166t-1.5 -196t-3 -205.5t-4 -195t-5 -165t-7 -114.5q-6 -73 -7 -142t0 -137l2 -136
t-2 -139q-1 -21 -5.5 -30t-11 -12t-14.5 -3t-16 -4q-13 -9 -26 -1t-13 38z" />
    <glyph glyph-name="asciitilde" unicode="~" 
d="M725 1267q-26 -30 -56.5 -48.5t-60 -26t-54.5 -6t-39 12.5q-15 11 -34 26.5t-40.5 29t-44 21.5t-43.5 4.5t-40.5 -22.5t-34.5 -59q-6 -12 -19.5 -11.5t-26 7.5t-19.5 19t0 23q23 42 49 64t53 30t55 5t54.5 -11t51.5 -18.5t47 -16.5q18 -5 37 -2t38 12t38.5 23.5
t38.5 31.5q-10 17 -7.5 20t11 -2.5t20.5 -18.5t21 -28.5t11.5 -31t-6.5 -27.5z" />
    <glyph glyph-name="circumflex" unicode="&#x2c6;" 
d="M431 1419h3q5 4 10 5t8 -2q11 -13 31.5 -36t46 -51t53.5 -57.5t54 -55.5t46.5 -45.5t32.5 -27.5q14 -17 16 -22.5t-14 -12.5q-10 -9 -17 -10t-13 2.5t-11 9.5t-9 12q1 0 -6.5 6.5t-18 17.5t-24 25.5t-28 29.5t-29.5 31.5t-26.5 31t-21.5 26.5t-16 18q-6 10 -14 19t-16 17
q-20 -14 -39.5 -26t-36.5 -30q-6 -6 -17.5 -16t-26 -22t-31.5 -25t-34.5 -25.5t-33 -24.5t-28 -21t-20.5 -14t-7 -5l-12 -10t-13 -7.5t-14 -0.5t-14 13q-13 11 -19 21.5t12 24.5q12 6 35.5 23t52 39.5t60 48.5t60 50.5t52.5 44.5t37 31z" />
    <glyph glyph-name="caron" unicode="&#x2c7;" 
d="M418 1097h-3q-5 -4 -10 -5t-8 2q-11 13 -31.5 36t-46 51t-53.5 57.5t-54 55.5t-47 45.5t-32 27.5q-14 17 -16 22.5t14 12.5q10 9 17 10t13 -2.5t10.5 -9.5t9.5 -12q-1 0 6.5 -6.5t18 -17.5t24 -25.5t28 -29.5t29.5 -31.5t26.5 -31t21.5 -26.5t16 -18q6 -10 14 -19t16 -17
q20 14 39.5 26t36.5 30q6 6 17.5 16t26 22t31.5 25t34.5 25.5t33 24.5t28 21t20.5 14t7 5q6 4 12 9.5t13 8t13.5 0t14.5 -12.5q13 -11 19 -21.5t-12 -24.5q-13 -6 -36 -23t-51.5 -39.5t-60 -48.5t-60 -50.5t-52.5 -44.5t-37 -31z" />
    <glyph glyph-name="ring" unicode="&#x2da;" 
d="M477 1145q25 0 41.5 22t24.5 55t9 71t-5 71t-18.5 54.5t-31.5 21.5q-21 0 -35.5 -22t-23.5 -55t-11.5 -71t2 -71t16.5 -54.5t32 -21.5zM305 1289q3 40 11 70t28 50t56.5 30t96.5 10q43 0 70 -24.5t38.5 -61t9 -78t-19 -77t-46.5 -57.5t-72 -18q-51 4 -85 20t-53.5 38.5
t-27.5 48t-6 49.5z" />
    <glyph glyph-name="breve" unicode="&#x2d8;" 
d="M305 1289q1 13 2.5 20t5 9.5t11 1.5t19.5 -5q27 -7 43.5 -12.5t25 -10t11.5 -8t3 -6.5q-1 -26 2 -50t9 -42.5t16 -29.5t24 -11q18 0 31 12t22 31t14 43.5t7 50.5q0 11 10 13.5t22 1t22 -6.5t9 -9q-3 -30 -13.5 -58.5t-28.5 -51t-42.5 -35t-55.5 -10.5q-51 4 -84.5 20
t-53 39.5t-26.5 50.5t-5 53z" />
    <glyph glyph-name="dotaccent" unicode="&#x2d9;" 
d="M417 1322q31 -13 43 -39t8 -52.5t-21 -46t-43 -19.5q-35 0 -50 13t-18 33.5t4 44t17 44.5q6 11 11.5 16t12.5 6.5t15.5 0.5t20.5 -1z" />
    <glyph glyph-name="ogonek" unicode="&#x2db;" horiz-adv-x="761" 
 />
    <glyph glyph-name="cedilla" unicode="&#xb8;" horiz-adv-x="772" 
d="M339 51q-12 -29 -1.5 -48t30 -32t40.5 -21t30 -15q18 -14 34.5 -32t26.5 -43t10.5 -57.5t-13.5 -74.5q-10 -29 -31.5 -47t-49 -26t-58 -6.5t-58.5 10.5q-5 1 -5.5 12t2.5 23t9.5 20t16.5 4q24 -9 49 -13.5t46 -3.5t37 8.5t24 23.5q6 13 -0.5 26t-21.5 25.5t-36 24
t-45 22.5q-24 10 -46 33t-35 54t-14.5 69t16.5 80z" />
    <glyph glyph-name="tilde" unicode="&#x2dc;" 
d="M725 1267q-26 -30 -56.5 -48.5t-60 -26t-54.5 -6t-39 12.5q-15 11 -34 26.5t-40.5 29t-44 21.5t-43.5 4.5t-40.5 -22.5t-34.5 -59q-6 -12 -19.5 -11.5t-26 7.5t-19.5 19t0 23q23 42 49 64t53 30t55 5t54.5 -11t51.5 -18.5t47 -16.5q18 -5 37 -2t38 12t38.5 23.5
t38.5 31.5q-10 17 -7.5 20t11 -2.5t20.5 -18.5t21 -28.5t11.5 -31t-6.5 -27.5z" />
    <glyph glyph-name="hungarumlaut" unicode="&#x2dd;" horiz-adv-x="1032" 
d="M423 1170q-4 -8 -6 -13t-13 -1q-12 8 -25.5 14.5t-12.5 17.5l8 13q7 16 21 43t29.5 56.5t31 57t24.5 44.5q2 14 8 16.5t14 -1t17.5 -11t18.5 -13.5q9 -5 17.5 -10t13 -10t3.5 -11t-10 -13q-7 -7 -26.5 -28.5t-41.5 -48.5t-42 -55t-29 -47zM605 1170q-4 -8 -6 -13t-13 -1
q-12 8 -25.5 14.5t-12.5 17.5l8 13q7 16 21 43t29.5 56.5t31 57t24.5 44.5q2 14 8 16.5t14 -1t17.5 -11t18.5 -13.5q9 -5 17.5 -10t13 -10t3.5 -11t-10 -13q-7 -7 -26.5 -28.5t-41.5 -48.5t-42 -55t-29 -47z" />
    <glyph glyph-name="cent" unicode="&#xa2;" horiz-adv-x="666" 
d="M369 -284q2 47 3 114t3 152q-4 0 -8 -0.5t-8 -0.5q-96 0 -163.5 49.5t-108.5 130t-58 181t-12 202.5q5 99 23 173t46 127.5t63.5 87t75 51t81 20.5t81.5 -5q0 89 -0.5 170t-2 149t-3 120t-4.5 84q1 55 2.5 86.5t6 47t14 18.5t27.5 1q28 12 41.5 -3t17 -44t1.5 -67.5
t-3 -73.5v-46t-0.5 -116t-1 -165.5t-1.5 -195.5q37 -21 66.5 -49.5t46 -60.5t18 -65.5t-16.5 -64.5q-22 -36 -42 -50.5t-35 -14.5t-23 10.5t-4.5 26t20 31.5t50.5 26q7 3 12 8t5 14q-1 22 -9.5 50.5t-22 53t-30.5 38.5t-36 8q-1 -98 -3 -195.5t-4 -184t-5 -155t-6 -107.5
q-5 -52 -6.5 -101t-1.5 -98q28 28 52.5 66t43.5 76t33 71t21.5 51t8.5 16t-5 -35q-9 -46 -21 -93.5t-30 -90.5t-43.5 -78.5t-59.5 -57.5l2 -138t-1 -142q-1 -21 -5.5 -30t-11 -12t-14.5 -3t-16 -4q-13 -9 -26 -1t-13 38zM338 145q1 -13 1.5 -31t4 -35t11 -28.5t21.5 -11.5
q3 146 5 316t4 344q-14 -67 -24 -142.5t-16.5 -150t-8 -142.5t1.5 -119z" />
    <glyph glyph-name="dieresis" unicode="&#xa8;" 
d="M305 1322q31 -13 43 -39t8 -52.5t-21 -46t-43 -19.5q-35 0 -50 13t-18 33.5t4 44t17 44.5q6 11 11.5 16t12.5 6.5t15.5 0.5t20.5 -1zM542 1322q31 -13 43 -39t8 -52.5t-21 -46t-43 -19.5q-35 0 -50 13t-18 33.5t4 44t17 44.5q6 11 11.5 16t12.5 6.5t15.5 0.5t20.5 -1z
" />
    <glyph glyph-name="Agrave" unicode="&#xc0;" horiz-adv-x="1213" 
d="M634 507q16 0 18.5 14t-2 34.5t-13 44t-13.5 43.5l-134 553q-2 9 -6 9t-8.5 -5.5t-8.5 -14.5t-6 -18l-182 -635q-11 -37 -11.5 -47.5t11.5 -10.5q3 0 8.5 0.5t18.5 2t36 3.5t61.5 6t94.5 9t136 12zM493 1325q28 0 52 -4.5t45.5 -9t41 -8t37.5 -3.5q17 0 30.5 -1
t25.5 -10.5t24 -31.5t27.5 -64.5t35.5 -109.5t47 -165q14 -50 31 -124.5t38 -160t44.5 -174t50.5 -165.5t56.5 -135t62.5 -83q11 -9 23 -11.5t24 -4t24.5 -2.5t23.5 -7q31 -15 13.5 -29t-74.5 -19q-42 4 -105.5 5t-134.5 0t-141.5 -3t-124.5 -3q-60 -1 -86.5 3t-29 11.5
t14 17t41.5 19.5t54.5 19.5t52.5 17.5q18 6 25 25t6 45.5t-8 59t-16.5 65t-19.5 63.5t-18 55q-5 15 -7.5 27t-6 20.5t-11.5 13t-24 4.5l-335 -34q-15 -1 -24.5 -2.5t-15.5 -5.5t-9.5 -12.5t-7.5 -23.5q-6 -24 -13 -59t-13 -73.5t-11 -76.5t-7 -66q-2 -23 -0.5 -33.5t9 -14.5
t22 -5.5t39.5 -5.5q7 -2 21.5 -7t30.5 -11t29.5 -12.5t18.5 -12t-2.5 -9t-33.5 -3.5h-303q-46 0 -63.5 4t-15 10t20 14t41 15.5t48 14t41.5 10.5q7 2 21.5 42t34.5 106.5t43.5 153.5t49 182.5t51 194t49 188t43.5 163.5t34 121q7 23 6 39.5t-4.5 28.5t-6 19.5t2 11.5
t19.5 5.5t46 0.5zM560 1432q-9 19 -29 47t-42 55t-41.5 48.5t-26.5 28.5q-9 7 -10 13t3.5 11t13 10t17.5 10q9 6 18.5 13.5t17.5 11t14 1t8 -16.5q9 -17 24 -44.5t31 -57t30 -56.5t21 -43l8 -13q1 -11 -12.5 -17.5t-25.5 -14.5q-11 -4 -13 1t-6 13z" />
    <glyph glyph-name="Aacute" unicode="&#xc1;" horiz-adv-x="1213" 
d="M634 507q16 0 18.5 14t-2 34.5t-13 44t-13.5 43.5l-134 553q-2 9 -6 9t-8.5 -5.5t-8.5 -14.5t-6 -18l-182 -635q-11 -37 -11.5 -47.5t11.5 -10.5q3 0 8.5 0.5t18.5 2t36 3.5t61.5 6t94.5 9t136 12zM493 1325q28 0 52 -4.5t45.5 -9t41 -8t37.5 -3.5q17 0 30.5 -1
t25.5 -10.5t24 -31.5t27.5 -64.5t35.5 -109.5t47 -165q14 -50 31 -124.5t38 -160t44.5 -174t50.5 -165.5t56.5 -135t62.5 -83q11 -9 23 -11.5t24 -4t24.5 -2.5t23.5 -7q31 -15 13.5 -29t-74.5 -19q-42 4 -105.5 5t-134.5 0t-141.5 -3t-124.5 -3q-60 -1 -86.5 3t-29 11.5
t14 17t41.5 19.5t54.5 19.5t52.5 17.5q18 6 25 25t6 45.5t-8 59t-16.5 65t-19.5 63.5t-18 55q-5 15 -7.5 27t-6 20.5t-11.5 13t-24 4.5l-335 -34q-15 -1 -24.5 -2.5t-15.5 -5.5t-9.5 -12.5t-7.5 -23.5q-6 -24 -13 -59t-13 -73.5t-11 -76.5t-7 -66q-2 -23 -0.5 -33.5t9 -14.5
t22 -5.5t39.5 -5.5q7 -2 21.5 -7t30.5 -11t29.5 -12.5t18.5 -12t-2.5 -9t-33.5 -3.5h-303q-46 0 -63.5 4t-15 10t20 14t41 15.5t48 14t41.5 10.5q7 2 21.5 42t34.5 106.5t43.5 153.5t49 182.5t51 194t49 188t43.5 163.5t34 121q7 23 6 39.5t-4.5 28.5t-6 19.5t2 11.5
t19.5 5.5t46 0.5zM611 1411q-4 -8 -6 -13t-13 -1q-12 8 -25.5 14.5t-12.5 17.5l8 13q7 16 21 43t29.5 56.5t31 57t24.5 44.5q2 14 8 16.5t14 -1t17.5 -11t18.5 -13.5q9 -5 17.5 -10t13 -10t3.5 -11t-10 -13q-7 -7 -26.5 -28.5t-41.5 -48.5t-42 -55t-29 -47z" />
    <glyph glyph-name="Acircumflex" unicode="&#xc2;" horiz-adv-x="1213" 
d="M634 507q16 0 18.5 14t-2 34.5t-13 44t-13.5 43.5l-134 553q-2 9 -6 9t-8.5 -5.5t-8.5 -14.5t-6 -18l-182 -635q-11 -37 -11.5 -47.5t11.5 -10.5q3 0 8.5 0.5t18.5 2t36 3.5t61.5 6t94.5 9t136 12zM493 1325q28 0 52 -4.5t45.5 -9t41 -8t37.5 -3.5q17 0 30.5 -1
t25.5 -10.5t24 -31.5t27.5 -64.5t35.5 -109.5t47 -165q14 -50 31 -124.5t38 -160t44.5 -174t50.5 -165.5t56.5 -135t62.5 -83q11 -9 23 -11.5t24 -4t24.5 -2.5t23.5 -7q31 -15 13.5 -29t-74.5 -19q-42 4 -105.5 5t-134.5 0t-141.5 -3t-124.5 -3q-60 -1 -86.5 3t-29 11.5
t14 17t41.5 19.5t54.5 19.5t52.5 17.5q18 6 25 25t6 45.5t-8 59t-16.5 65t-19.5 63.5t-18 55q-5 15 -7.5 27t-6 20.5t-11.5 13t-24 4.5l-335 -34q-15 -1 -24.5 -2.5t-15.5 -5.5t-9.5 -12.5t-7.5 -23.5q-6 -24 -13 -59t-13 -73.5t-11 -76.5t-7 -66q-2 -23 -0.5 -33.5t9 -14.5
t22 -5.5t39.5 -5.5q7 -2 21.5 -7t30.5 -11t29.5 -12.5t18.5 -12t-2.5 -9t-33.5 -3.5h-303q-46 0 -63.5 4t-15 10t20 14t41 15.5t48 14t41.5 10.5q7 2 21.5 42t34.5 106.5t43.5 153.5t49 182.5t51 194t49 188t43.5 163.5t34 121q7 23 6 39.5t-4.5 28.5t-6 19.5t2 11.5
t19.5 5.5t46 0.5zM576 1615h3q5 4 10 5t8 -2q11 -13 31.5 -36t46 -51t53.5 -57.5t54 -55.5t46.5 -45.5t32.5 -27.5q14 -17 16 -22.5t-14 -12.5q-10 -9 -17 -10t-13 2.5t-11 9.5t-9 12q1 0 -6.5 6.5t-18 17.5t-24 25.5t-28 29.5t-29.5 31.5t-26.5 31t-21.5 26.5t-16 18
q-6 10 -14 19t-16 17q-20 -14 -39.5 -26t-36.5 -30q-6 -6 -17.5 -16t-26 -22t-31.5 -25t-34.5 -25.5t-33 -24.5t-28 -21t-20.5 -14t-7 -5l-12 -10t-13 -7.5t-14 -0.5t-14 13q-13 11 -19 21.5t12 24.5q12 6 35.5 23t52 39.5t60 48.5t60 50.5t52.5 44.5t37 31z" />
    <glyph glyph-name="Atilde" unicode="&#xc3;" horiz-adv-x="1213" 
d="M634 507q16 0 18.5 14t-2 34.5t-13 44t-13.5 43.5l-134 553q-2 9 -6 9t-8.5 -5.5t-8.5 -14.5t-6 -18l-182 -635q-11 -37 -11.5 -47.5t11.5 -10.5q3 0 8.5 0.5t18.5 2t36 3.5t61.5 6t94.5 9t136 12zM493 1325q28 0 52 -4.5t45.5 -9t41 -8t37.5 -3.5q17 0 30.5 -1
t25.5 -10.5t24 -31.5t27.5 -64.5t35.5 -109.5t47 -165q14 -50 31 -124.5t38 -160t44.5 -174t50.5 -165.5t56.5 -135t62.5 -83q11 -9 23 -11.5t24 -4t24.5 -2.5t23.5 -7q31 -15 13.5 -29t-74.5 -19q-42 4 -105.5 5t-134.5 0t-141.5 -3t-124.5 -3q-60 -1 -86.5 3t-29 11.5
t14 17t41.5 19.5t54.5 19.5t52.5 17.5q18 6 25 25t6 45.5t-8 59t-16.5 65t-19.5 63.5t-18 55q-5 15 -7.5 27t-6 20.5t-11.5 13t-24 4.5l-335 -34q-15 -1 -24.5 -2.5t-15.5 -5.5t-9.5 -12.5t-7.5 -23.5q-6 -24 -13 -59t-13 -73.5t-11 -76.5t-7 -66q-2 -23 -0.5 -33.5t9 -14.5
t22 -5.5t39.5 -5.5q7 -2 21.5 -7t30.5 -11t29.5 -12.5t18.5 -12t-2.5 -9t-33.5 -3.5h-303q-46 0 -63.5 4t-15 10t20 14t41 15.5t48 14t41.5 10.5q7 2 21.5 42t34.5 106.5t43.5 153.5t49 182.5t51 194t49 188t43.5 163.5t34 121q7 23 6 39.5t-4.5 28.5t-6 19.5t2 11.5
t19.5 5.5t46 0.5zM814 1463q-26 -30 -56.5 -48.5t-60 -26t-54.5 -6t-39 12.5q-15 11 -34 26.5t-40.5 29t-44 21.5t-43.5 4.5t-40.5 -22.5t-34.5 -59q-6 -12 -19.5 -11.5t-26 7.5t-19.5 19t0 23q23 42 49 64t53 30t55 5t54.5 -11t51.5 -18.5t47 -16.5q18 -5 37 -2t38 12
t38.5 23.5t38.5 31.5q-10 17 -7.5 20t11 -2.5t20.5 -18.5t21 -28.5t11.5 -31t-6.5 -27.5z" />
    <glyph glyph-name="Adieresis" unicode="&#xc4;" horiz-adv-x="1213" 
d="M634 507q16 0 18.5 14t-2 34.5t-13 44t-13.5 43.5l-134 553q-2 9 -6 9t-8.5 -5.5t-8.5 -14.5t-6 -18l-182 -635q-11 -37 -11.5 -47.5t11.5 -10.5q3 0 8.5 0.5t18.5 2t36 3.5t61.5 6t94.5 9t136 12zM493 1325q28 0 52 -4.5t45.5 -9t41 -8t37.5 -3.5q17 0 30.5 -1
t25.5 -10.5t24 -31.5t27.5 -64.5t35.5 -109.5t47 -165q14 -50 31 -124.5t38 -160t44.5 -174t50.5 -165.5t56.5 -135t62.5 -83q11 -9 23 -11.5t24 -4t24.5 -2.5t23.5 -7q31 -15 13.5 -29t-74.5 -19q-42 4 -105.5 5t-134.5 0t-141.5 -3t-124.5 -3q-60 -1 -86.5 3t-29 11.5
t14 17t41.5 19.5t54.5 19.5t52.5 17.5q18 6 25 25t6 45.5t-8 59t-16.5 65t-19.5 63.5t-18 55q-5 15 -7.5 27t-6 20.5t-11.5 13t-24 4.5l-335 -34q-15 -1 -24.5 -2.5t-15.5 -5.5t-9.5 -12.5t-7.5 -23.5q-6 -24 -13 -59t-13 -73.5t-11 -76.5t-7 -66q-2 -23 -0.5 -33.5t9 -14.5
t22 -5.5t39.5 -5.5q7 -2 21.5 -7t30.5 -11t29.5 -12.5t18.5 -12t-2.5 -9t-33.5 -3.5h-303q-46 0 -63.5 4t-15 10t20 14t41 15.5t48 14t41.5 10.5q7 2 21.5 42t34.5 106.5t43.5 153.5t49 182.5t51 194t49 188t43.5 163.5t34 121q7 23 6 39.5t-4.5 28.5t-6 19.5t2 11.5
t19.5 5.5t46 0.5zM466 1518q31 -13 43 -39t8 -52.5t-21 -46t-43 -19.5q-35 0 -50 13t-18 33.5t4 44t17 44.5q6 11 11.5 16t12.5 6.5t15.5 0.5t20.5 -1zM703 1518q31 -13 43 -39t8 -52.5t-21 -46t-43 -19.5q-35 0 -50 13t-18 33.5t4 44t17 44.5q6 11 11.5 16t12.5 6.5
t15.5 0.5t20.5 -1z" />
    <glyph glyph-name="Aring" unicode="&#xc5;" horiz-adv-x="1213" 
d="M634 507q16 0 18.5 14t-2 34.5t-13 44t-13.5 43.5l-134 553q-2 9 -6 9t-8.5 -5.5t-8.5 -14.5t-6 -18l-182 -635q-11 -37 -11.5 -47.5t11.5 -10.5q3 0 8.5 0.5t18.5 2t36 3.5t61.5 6t94.5 9t136 12zM493 1325q28 0 52 -4.5t45.5 -9t41 -8t37.5 -3.5q17 0 30.5 -1
t25.5 -10.5t24 -31.5t27.5 -64.5t35.5 -109.5t47 -165q14 -50 31 -124.5t38 -160t44.5 -174t50.5 -165.5t56.5 -135t62.5 -83q11 -9 23 -11.5t24 -4t24.5 -2.5t23.5 -7q31 -15 13.5 -29t-74.5 -19q-42 4 -105.5 5t-134.5 0t-141.5 -3t-124.5 -3q-60 -1 -86.5 3t-29 11.5
t14 17t41.5 19.5t54.5 19.5t52.5 17.5q18 6 25 25t6 45.5t-8 59t-16.5 65t-19.5 63.5t-18 55q-5 15 -7.5 27t-6 20.5t-11.5 13t-24 4.5l-335 -34q-15 -1 -24.5 -2.5t-15.5 -5.5t-9.5 -12.5t-7.5 -23.5q-6 -24 -13 -59t-13 -73.5t-11 -76.5t-7 -66q-2 -23 -0.5 -33.5t9 -14.5
t22 -5.5t39.5 -5.5q7 -2 21.5 -7t30.5 -11t29.5 -12.5t18.5 -12t-2.5 -9t-33.5 -3.5h-303q-46 0 -63.5 4t-15 10t20 14t41 15.5t48 14t41.5 10.5q7 2 21.5 42t34.5 106.5t43.5 153.5t49 182.5t51 194t49 188t43.5 163.5t34 121q7 23 6 39.5t-4.5 28.5t-6 19.5t2 11.5
t19.5 5.5t46 0.5zM598 1341q25 0 41.5 22t24.5 55t9 71t-5 71t-18.5 54.5t-31.5 21.5q-21 0 -35.5 -22t-23.5 -55t-11.5 -71t2 -71t16.5 -54.5t32 -21.5zM426 1485q3 40 11 70t28 50t56.5 30t96.5 10q43 0 70 -24.5t38.5 -61t9 -78t-19 -77t-46.5 -57.5t-72 -18
q-51 4 -85 20t-53.5 38.5t-27.5 48t-6 49.5z" />
    <glyph glyph-name="AE" unicode="&#xc6;" horiz-adv-x="1569" 
d="M670 2q-60 -1 -86.5 3t-29 11.5t14 17t41.5 19.5t54.5 19.5t52.5 17.5q18 6 25 25t6 45.5t-8 59t-16.5 65t-19.5 63.5t-18 55q-5 15 -7.5 27t-6 20.5t-11.5 13t-24 4.5l-335 -34q-15 -1 -24.5 -2.5t-15.5 -5.5t-9.5 -12.5t-7.5 -23.5q-6 -24 -13 -59t-13 -73.5t-11 -76.5
t-7 -66q-2 -23 -0.5 -33.5t9 -14.5t22 -5.5t39.5 -5.5q7 -2 21.5 -7t30.5 -11t29.5 -12.5t18.5 -12t-2.5 -9t-33.5 -3.5h-303q-46 0 -63.5 4t-15 10t20 14t41 15.5t48 14t41.5 10.5q7 2 21.5 42t34.5 106.5t43.5 153.5t49 182.5t51 194t49 188t43.5 163.5t34 121
q7 23 6 39.5t-4.5 28.5t-6 19.5t2 11.5t19.5 5.5t46 0.5q28 0 52 -4.5t45.5 -9t41 -8t37.5 -3.5q13 0 23.5 -0.5t20.5 -4.5q17 4 38.5 6t47.5 4q138 0 274.5 -4t275.5 1q46 7 74.5 9.5t44.5 -7t22 -34.5t8 -73q1 -63 0.5 -123.5t-0.5 -121.5q0 -56 -2 -77t-7.5 -17t-13.5 29
t-20 61t-28 79t-37 84q-24 47 -47.5 80t-49.5 53.5t-58 28t-72 4.5q-32 -2 -50.5 -28.5t-28.5 -88.5q-7 -42 -13 -94.5t-10.5 -109.5t-7.5 -114.5t-4 -109.5q0 -19 1 -30t4 -17t9 -7.5t16 -1.5q21 0 38 4t41 13q28 10 42 22t20 27.5t7.5 35t5.5 44.5q5 37 9.5 58t8.5 12
t7.5 -55t5.5 -143q1 -69 0 -110.5t-4 -61t-7.5 -21.5t-8.5 9q-11 24 -20 44.5t-22 38.5t-31.5 32t-46.5 24q-31 11 -54 2.5t-23 -46.5q0 -57 0.5 -113.5t2 -109t5 -100.5t10.5 -88q8 -66 22 -99.5t34 -46t48 -9.5t64 9q32 5 60 36t52 75.5t44.5 96t36.5 97.5t28.5 81t21 46
t12.5 -8t4 -80v-247q0 -47 0.5 -76t-5.5 -43.5t-22.5 -15t-49.5 9.5q-63 -3 -130.5 -8.5t-133.5 -9.5q-82 -4 -181 -2.5t-194 4.5q-29 -1 -56 -1.5t-50 -0.5zM634 507q16 0 18.5 14t-2 34.5t-13 44t-13.5 43.5l-134 553q-2 9 -6 9t-8.5 -5.5t-8.5 -14.5t-6 -18l-182 -635
q-11 -37 -11.5 -47.5t11.5 -10.5q3 0 8.5 0.5t18.5 2t36 3.5t61.5 6t94.5 9t136 12z" />
    <glyph glyph-name="Ccedilla" unicode="&#xc7;" horiz-adv-x="941" 
d="M271 29q-29 11 -61.5 31t-61 51.5t-50 76.5t-29.5 107q-9 68 -16.5 153.5t-10.5 178t0.5 187.5t17.5 181.5t39.5 159t66.5 121.5q23 27 61.5 43.5t87 24t104 6t110.5 -9.5t108 -23t96.5 -35.5t75 -45.5t44.5 -54q-2 8 2.5 24t12 33t16.5 31.5t17 18t13 -7t5 -42.5
q0 -11 -1 -35t-3 -55t-5.5 -63.5t-9 -60t-13 -45.5t-18.5 -18q-6 -1 -10 12.5t-6.5 32.5t-3.5 39t-2 32q-2 39 -23 76t-53.5 66.5t-72.5 49.5t-79.5 25.5t-75 -6t-58.5 -44.5q-29 -40 -50.5 -113.5t-35 -166t-20 -197t-5 -208t10 -199t25 -169t40 -118.5t54.5 -47
q41 -3 75.5 14t63.5 48t53 71.5t43 84.5t34 87.5t26.5 79.5t20 62t13.5 35q10 15 17 3t9.5 -42t-1.5 -74t-17.5 -93t-37 -99t-60.5 -92t-88.5 -71.5t-120.5 -38.5q-11 -28 0 -46.5t30 -31t40 -20.5t30 -15q18 -14 34.5 -32t26.5 -43t10.5 -57.5t-13.5 -74.5
q-10 -29 -31.5 -47t-49 -26t-58 -6.5t-58.5 10.5q-5 1 -5.5 12t2.5 23t9.5 20t16.5 4q24 -9 49 -13.5t46 -3.5t37 8.5t24 23.5q6 13 -0.5 26t-21.5 25.5t-36 24t-45 22.5q-23 10 -43.5 30t-34 48.5t-17.5 63t8 72.5q-34 -1 -61 -0.5t-51 3.5t-48 9.5t-53 17.5z" />
    <glyph glyph-name="Egrave" unicode="&#xc8;" horiz-adv-x="945" 
d="M37 9q0 8 18 22q15 12 30.5 16.5t29 7.5t25 9t20 20.5t13.5 42t5 74.5l1 854q0 55 -8 90t-20.5 55.5t-27 30.5t-28 15t-23.5 8.5t-12 12.5t7 15.5t26 11t41 7.5t51 4q138 0 274.5 -4t275.5 1q46 7 74.5 9.5t44.5 -7t22 -34.5t8 -73q1 -63 0.5 -123.5t-0.5 -121.5
q0 -56 -2 -77t-7.5 -17t-13.5 29t-20 61t-28 79t-37 84q-24 47 -47.5 80t-49.5 53.5t-58 28t-72 4.5q-32 -2 -50.5 -28.5t-28.5 -88.5q-7 -42 -13 -94.5t-10.5 -109.5t-7.5 -114.5t-4 -109.5q0 -19 1 -30t4 -17t9 -7.5t16 -1.5q21 0 38 4t41 13q28 10 42 22t20 27.5t7.5 35
t5.5 44.5q5 37 9.5 58t8.5 12t7.5 -55t5.5 -143q1 -69 0 -110.5t-4 -61t-7.5 -21.5t-8.5 9q-11 24 -20 44.5t-22 38.5t-31.5 32t-46.5 24q-31 11 -54 2.5t-23 -46.5q0 -57 0.5 -113.5t2 -109t5 -100.5t10.5 -88q8 -66 22 -99.5t34 -46t48 -9.5t64 9q32 5 60 36t52 75.5
t44.5 96t36.5 97.5t28.5 81t21 46t12.5 -8t4 -80v-247q0 -47 0.5 -76t-5.5 -43.5t-22.5 -15t-49.5 9.5q-63 -3 -130.5 -8.5t-133.5 -9.5q-55 -3 -118.5 -3t-129.5 1.5t-130.5 3.5t-121.5 5zM525 1366q-9 19 -29 47t-42 55t-41.5 48.5t-26.5 28.5q-9 7 -10 13t3.5 11t13 10
t17.5 10q9 6 18.5 13.5t17.5 11t14 1t8 -16.5q9 -17 24 -44.5t31 -57t30 -56.5t21 -43l8 -13q1 -11 -12.5 -17.5t-25.5 -14.5q-11 -4 -13 1t-6 13z" />
    <glyph glyph-name="Eacute" unicode="&#xc9;" horiz-adv-x="945" 
d="M37 9q0 8 18 22q15 12 30.5 16.5t29 7.5t25 9t20 20.5t13.5 42t5 74.5l1 854q0 55 -8 90t-20.5 55.5t-27 30.5t-28 15t-23.5 8.5t-12 12.5t7 15.5t26 11t41 7.5t51 4q138 0 274.5 -4t275.5 1q46 7 74.5 9.5t44.5 -7t22 -34.5t8 -73q1 -63 0.5 -123.5t-0.5 -121.5
q0 -56 -2 -77t-7.5 -17t-13.5 29t-20 61t-28 79t-37 84q-24 47 -47.5 80t-49.5 53.5t-58 28t-72 4.5q-32 -2 -50.5 -28.5t-28.5 -88.5q-7 -42 -13 -94.5t-10.5 -109.5t-7.5 -114.5t-4 -109.5q0 -19 1 -30t4 -17t9 -7.5t16 -1.5q21 0 38 4t41 13q28 10 42 22t20 27.5t7.5 35
t5.5 44.5q5 37 9.5 58t8.5 12t7.5 -55t5.5 -143q1 -69 0 -110.5t-4 -61t-7.5 -21.5t-8.5 9q-11 24 -20 44.5t-22 38.5t-31.5 32t-46.5 24q-31 11 -54 2.5t-23 -46.5q0 -57 0.5 -113.5t2 -109t5 -100.5t10.5 -88q8 -66 22 -99.5t34 -46t48 -9.5t64 9q32 5 60 36t52 75.5
t44.5 96t36.5 97.5t28.5 81t21 46t12.5 -8t4 -80v-247q0 -47 0.5 -76t-5.5 -43.5t-22.5 -15t-49.5 9.5q-63 -3 -130.5 -8.5t-133.5 -9.5q-55 -3 -118.5 -3t-129.5 1.5t-130.5 3.5t-121.5 5zM420 1366q-4 -8 -6 -13t-13 -1q-12 8 -25.5 14.5t-12.5 17.5l8 13q7 16 21 43
t29.5 56.5t31 57t24.5 44.5q2 14 8 16.5t14 -1t17.5 -11t18.5 -13.5q9 -5 17.5 -10t13 -10t3.5 -11t-10 -13q-7 -7 -26.5 -28.5t-41.5 -48.5t-42 -55t-29 -47z" />
    <glyph glyph-name="Ecircumflex" unicode="&#xca;" horiz-adv-x="945" 
d="M37 9q0 8 18 22q15 12 30.5 16.5t29 7.5t25 9t20 20.5t13.5 42t5 74.5l1 854q0 55 -8 90t-20.5 55.5t-27 30.5t-28 15t-23.5 8.5t-12 12.5t7 15.5t26 11t41 7.5t51 4q138 0 274.5 -4t275.5 1q46 7 74.5 9.5t44.5 -7t22 -34.5t8 -73q1 -63 0.5 -123.5t-0.5 -121.5
q0 -56 -2 -77t-7.5 -17t-13.5 29t-20 61t-28 79t-37 84q-24 47 -47.5 80t-49.5 53.5t-58 28t-72 4.5q-32 -2 -50.5 -28.5t-28.5 -88.5q-7 -42 -13 -94.5t-10.5 -109.5t-7.5 -114.5t-4 -109.5q0 -19 1 -30t4 -17t9 -7.5t16 -1.5q21 0 38 4t41 13q28 10 42 22t20 27.5t7.5 35
t5.5 44.5q5 37 9.5 58t8.5 12t7.5 -55t5.5 -143q1 -69 0 -110.5t-4 -61t-7.5 -21.5t-8.5 9q-11 24 -20 44.5t-22 38.5t-31.5 32t-46.5 24q-31 11 -54 2.5t-23 -46.5q0 -57 0.5 -113.5t2 -109t5 -100.5t10.5 -88q8 -66 22 -99.5t34 -46t48 -9.5t64 9q32 5 60 36t52 75.5
t44.5 96t36.5 97.5t28.5 81t21 46t12.5 -8t4 -80v-247q0 -47 0.5 -76t-5.5 -43.5t-22.5 -15t-49.5 9.5q-63 -3 -130.5 -8.5t-133.5 -9.5q-55 -3 -118.5 -3t-129.5 1.5t-130.5 3.5t-121.5 5zM479 1615h3q5 4 10 5t8 -2q11 -13 31.5 -36t46 -51t53.5 -57.5t54 -55.5
t46.5 -45.5t32.5 -27.5q14 -17 16 -22.5t-14 -12.5q-10 -9 -17 -10t-13 2.5t-11 9.5t-9 12q1 0 -6.5 6.5t-18 17.5t-24 25.5t-28 29.5t-29.5 31.5t-26.5 31t-21.5 26.5t-16 18q-6 10 -14 19t-16 17q-20 -14 -39.5 -26t-36.5 -30q-6 -6 -17.5 -16t-26 -22t-31.5 -25
t-34.5 -25.5t-33 -24.5t-28 -21t-20.5 -14t-7 -5l-12 -10t-13 -7.5t-14 -0.5t-14 13q-13 11 -19 21.5t12 24.5q12 6 35.5 23t52 39.5t60 48.5t60 50.5t52.5 44.5t37 31z" />
    <glyph glyph-name="Edieresis" unicode="&#xcb;" horiz-adv-x="945" 
d="M37 9q0 8 18 22q15 12 30.5 16.5t29 7.5t25 9t20 20.5t13.5 42t5 74.5l1 854q0 55 -8 90t-20.5 55.5t-27 30.5t-28 15t-23.5 8.5t-12 12.5t7 15.5t26 11t41 7.5t51 4q138 0 274.5 -4t275.5 1q46 7 74.5 9.5t44.5 -7t22 -34.5t8 -73q1 -63 0.5 -123.5t-0.5 -121.5
q0 -56 -2 -77t-7.5 -17t-13.5 29t-20 61t-28 79t-37 84q-24 47 -47.5 80t-49.5 53.5t-58 28t-72 4.5q-32 -2 -50.5 -28.5t-28.5 -88.5q-7 -42 -13 -94.5t-10.5 -109.5t-7.5 -114.5t-4 -109.5q0 -19 1 -30t4 -17t9 -7.5t16 -1.5q21 0 38 4t41 13q28 10 42 22t20 27.5t7.5 35
t5.5 44.5q5 37 9.5 58t8.5 12t7.5 -55t5.5 -143q1 -69 0 -110.5t-4 -61t-7.5 -21.5t-8.5 9q-11 24 -20 44.5t-22 38.5t-31.5 32t-46.5 24q-31 11 -54 2.5t-23 -46.5q0 -57 0.5 -113.5t2 -109t5 -100.5t10.5 -88q8 -66 22 -99.5t34 -46t48 -9.5t64 9q32 5 60 36t52 75.5
t44.5 96t36.5 97.5t28.5 81t21 46t12.5 -8t4 -80v-247q0 -47 0.5 -76t-5.5 -43.5t-22.5 -15t-49.5 9.5q-63 -3 -130.5 -8.5t-133.5 -9.5q-55 -3 -118.5 -3t-129.5 1.5t-130.5 3.5t-121.5 5zM364 1518q31 -13 43 -39t8 -52.5t-21 -46t-43 -19.5q-35 0 -50 13t-18 33.5t4 44
t17 44.5q6 11 11.5 16t12.5 6.5t15.5 0.5t20.5 -1zM601 1518q31 -13 43 -39t8 -52.5t-21 -46t-43 -19.5q-35 0 -50 13t-18 33.5t4 44t17 44.5q6 11 11.5 16t12.5 6.5t15.5 0.5t20.5 -1z" />
    <glyph glyph-name="Igrave" unicode="&#xcc;" horiz-adv-x="649" 
d="M174 1154q-3 18 -7.5 32t-14.5 25t-27 18t-44 10q-14 1 -24 5t-13 10.5t3.5 15t26.5 18.5q26 12 82 20.5t155 7.5q105 0 165 -5.5t88 -10.5q26 -5 32.5 -10.5t1 -11.5t-21 -13t-33 -15t-34 -17t-25.5 -19q-7 -8 -9.5 -52t-3.5 -110.5t-1 -148.5t-1 -166q-2 -84 -5 -164
t-5.5 -147t-4.5 -117.5t0 -75.5q3 -59 21 -99t40 -66.5t43 -41t30.5 -20.5t1 -6.5t-44.5 1.5q-110 6 -189 6.5t-130.5 -0.5t-79 -2t-33.5 2q-5 3 -0.5 8.5t14 16.5t21 27.5t21.5 40.5q2 5 4.5 14t4.5 30.5t3.5 62t3.5 109t3 171t2 248.5q0 42 1.5 94t1 107.5t-4.5 111.5
t-14 106zM325 1366q-9 19 -29 47t-42 55t-41.5 48.5t-26.5 28.5q-9 7 -10 13t3.5 11t13 10t17.5 10q9 6 18.5 13.5t17.5 11t14 1t8 -16.5q9 -17 24 -44.5t31 -57t30 -56.5t21 -43l8 -13q1 -11 -12.5 -17.5t-25.5 -14.5q-11 -4 -13 1t-6 13z" />
    <glyph glyph-name="Iacute" unicode="&#xcd;" horiz-adv-x="649" 
d="M174 1154q-3 18 -7.5 32t-14.5 25t-27 18t-44 10q-14 1 -24 5t-13 10.5t3.5 15t26.5 18.5q26 12 82 20.5t155 7.5q105 0 165 -5.5t88 -10.5q26 -5 32.5 -10.5t1 -11.5t-21 -13t-33 -15t-34 -17t-25.5 -19q-7 -8 -9.5 -52t-3.5 -110.5t-1 -148.5t-1 -166q-2 -84 -5 -164
t-5.5 -147t-4.5 -117.5t0 -75.5q3 -59 21 -99t40 -66.5t43 -41t30.5 -20.5t1 -6.5t-44.5 1.5q-110 6 -189 6.5t-130.5 -0.5t-79 -2t-33.5 2q-5 3 -0.5 8.5t14 16.5t21 27.5t21.5 40.5q2 5 4.5 14t4.5 30.5t3.5 62t3.5 109t3 171t2 248.5q0 42 1.5 94t1 107.5t-4.5 111.5
t-14 106zM338 1366q-4 -8 -6 -13t-13 -1q-12 8 -25.5 14.5t-12.5 17.5l8 13q7 16 21 43t29.5 56.5t31 57t24.5 44.5q2 14 8 16.5t14 -1t17.5 -11t18.5 -13.5q9 -5 17.5 -10t13 -10t3.5 -11t-10 -13q-7 -7 -26.5 -28.5t-41.5 -48.5t-42 -55t-29 -47z" />
    <glyph glyph-name="Icircumflex" unicode="&#xce;" horiz-adv-x="649" 
d="M174 1154q-3 18 -7.5 32t-14.5 25t-27 18t-44 10q-14 1 -24 5t-13 10.5t3.5 15t26.5 18.5q26 12 82 20.5t155 7.5q105 0 165 -5.5t88 -10.5q26 -5 32.5 -10.5t1 -11.5t-21 -13t-33 -15t-34 -17t-25.5 -19q-7 -8 -9.5 -52t-3.5 -110.5t-1 -148.5t-1 -166q-2 -84 -5 -164
t-5.5 -147t-4.5 -117.5t0 -75.5q3 -59 21 -99t40 -66.5t43 -41t30.5 -20.5t1 -6.5t-44.5 1.5q-110 6 -189 6.5t-130.5 -0.5t-79 -2t-33.5 2q-5 3 -0.5 8.5t14 16.5t21 27.5t21.5 40.5q2 5 4.5 14t4.5 30.5t3.5 62t3.5 109t3 171t2 248.5q0 42 1.5 94t1 107.5t-4.5 111.5
t-14 106zM331 1615h3q5 4 10 5t8 -2q11 -13 31.5 -36t46 -51t53.5 -57.5t54 -55.5t46.5 -45.5t32.5 -27.5q14 -17 16 -22.5t-14 -12.5q-10 -9 -17 -10t-13 2.5t-11 9.5t-9 12q1 0 -6.5 6.5t-18 17.5t-24 25.5t-28 29.5t-29.5 31.5t-26.5 31t-21.5 26.5t-16 18q-6 10 -14 19
t-16 17q-20 -14 -39.5 -26t-36.5 -30q-6 -6 -17.5 -16t-26 -22t-31.5 -25t-34.5 -25.5t-33 -24.5t-28 -21t-20.5 -14t-7 -5l-12 -10t-13 -7.5t-14 -0.5t-14 13q-13 11 -19 21.5t12 24.5q12 6 35.5 23t52 39.5t60 48.5t60 50.5t52.5 44.5t37 31z" />
    <glyph glyph-name="Idieresis" unicode="&#xcf;" horiz-adv-x="649" 
d="M174 1154q-3 18 -7.5 32t-14.5 25t-27 18t-44 10q-14 1 -24 5t-13 10.5t3.5 15t26.5 18.5q26 12 82 20.5t155 7.5q105 0 165 -5.5t88 -10.5q26 -5 32.5 -10.5t1 -11.5t-21 -13t-33 -15t-34 -17t-25.5 -19q-7 -8 -9.5 -52t-3.5 -110.5t-1 -148.5t-1 -166q-2 -84 -5 -164
t-5.5 -147t-4.5 -117.5t0 -75.5q3 -59 21 -99t40 -66.5t43 -41t30.5 -20.5t1 -6.5t-44.5 1.5q-110 6 -189 6.5t-130.5 -0.5t-79 -2t-33.5 2q-5 3 -0.5 8.5t14 16.5t21 27.5t21.5 40.5q2 5 4.5 14t4.5 30.5t3.5 62t3.5 109t3 171t2 248.5q0 42 1.5 94t1 107.5t-4.5 111.5
t-14 106zM217 1518q31 -13 43 -39t8 -52.5t-21 -46t-43 -19.5q-35 0 -50 13t-18 33.5t4 44t17 44.5q6 11 11.5 16t12.5 6.5t15.5 0.5t20.5 -1zM454 1518q31 -13 43 -39t8 -52.5t-21 -46t-43 -19.5q-35 0 -50 13t-18 33.5t4 44t17 44.5q6 11 11.5 16t12.5 6.5t15.5 0.5
t20.5 -1z" />
    <glyph glyph-name="Eth" unicode="&#xd0;" horiz-adv-x="1016" 
d="M60 17q-21 4 -36.5 8t-17.5 8.5t12.5 9t53.5 9.5q15 1 31 4t28.5 16.5t20.5 43t8 83.5l1 448q-31 0 -60 0.5t-51.5 1t-36.5 1t-15 0.5q-16 3 -28.5 -1t-22 -5t-16.5 5.5t-12 30.5q-1 13 0.5 21t8.5 12t21.5 4.5t40.5 -0.5q43 -2 85.5 -3t85.5 -2l2 342q0 55 -8.5 90
t-22 55.5t-29 30.5t-29.5 15.5t-24.5 9t-12.5 12.5q-3 8 6.5 14.5t27.5 11.5t43.5 7.5t54.5 3.5q55 0 107 1t103.5 0.5t104 -3.5t109.5 -10q78 -9 133.5 -28t94.5 -52t63 -82t38 -118t20.5 -160t9.5 -209q6 -203 -18.5 -333t-83.5 -202t-155 -95t-232 -13q-11 -2 -43.5 -1.5
t-75.5 2t-91 4t-89.5 5t-70 4.5t-33.5 3zM585 723q13 2 17 -8.5t-1 -21.5q-2 -6 -1.5 -14t-0.5 -15.5t-4.5 -13t-13.5 -6.5q-47 -3 -90.5 -1t-88.5 4q-1 -87 -0.5 -172t2 -161t4 -138t6.5 -102q3 -32 15.5 -39.5t27.5 -9.5q40 -3 69.5 27t49 82t31 118t16.5 135
q6 76 7.5 151.5t3.5 158.5q1 50 5.5 108.5t8.5 117.5t6 114.5t-2.5 100.5t-16.5 76t-36 41t-53 10t-55 -9.5t-45 -27.5t-22 -45q-5 -38 -8.5 -90t-6 -112.5t-4.5 -128.5t-3 -138q91 1 183 9z" />
    <glyph glyph-name="Ntilde" unicode="&#xd1;" horiz-adv-x="1155" 
d="M774 535q-7 150 -13.5 256.5t-13 180t-12 118t-11 69.5t-11 35t-10.5 15q-36 35 -44.5 56.5t2.5 33.5t38.5 16.5t63 4.5t76 -2t79.5 -2q53 0 86 -0.5t54.5 -2t35.5 -3t29 -4.5q-27 5 -46.5 -27t-33 -90.5t-22 -138.5t-12.5 -171t-4.5 -188t1.5 -189.5t5 -175t7 -145.5
t7.5 -100t5.5 -39q30 -24 45.5 -37.5t6 -18.5t-49.5 -3t-121 10q-45 1 -73.5 17.5t-48 42.5t-32 58t-25.5 65q-21 53 -36.5 97t-29 82t-26.5 73t-29.5 70.5t-38 73.5t-50.5 83q-8 48 -12 83t-6 45t-2 -11.5v-86.5v-179t-1 -290q3 -60 15.5 -99.5t26 -63t23.5 -34.5t9 -14.5
t-17.5 -3t-56.5 -0.5q-9 0 -37.5 -0.5t-68 -0.5t-86.5 0.5t-92.5 1.5t-85.5 3t-66.5 5.5t-35 8.5t9.5 12q39 16 61.5 35t33.5 42q4 9 5.5 21t2 31.5t0 50.5t1 78.5t5 115t11.5 159.5q11 128 12 216t-3 147.5t-10 97t-9.5 64.5t-2 48.5t13.5 50.5q10 25 3.5 33.5t-22.5 14.5
t-36.5 14.5t-37.5 33.5q-11 15 -7.5 22t30.5 6q51 0 94 1.5t80.5 2.5t69.5 0t61 -7q37 -8 58.5 -23t33 -36.5t17.5 -50t14 -63.5q24 -110 51 -218.5t55 -206t54.5 -179.5t49 -138.5t39 -83t23.5 -13.5t3.5 70t-20.5 168zM824 1463q-26 -30 -56.5 -48.5t-60 -26t-54.5 -6
t-39 12.5q-15 11 -34 26.5t-40.5 29t-44 21.5t-43.5 4.5t-40.5 -22.5t-34.5 -59q-6 -12 -19.5 -11.5t-26 7.5t-19.5 19t0 23q23 42 49 64t53 30t55 5t54.5 -11t51.5 -18.5t47 -16.5q18 -5 37 -2t38 12t38.5 23.5t38.5 31.5q-10 17 -7.5 20t11 -2.5t20.5 -18.5t21 -28.5
t11.5 -31t-6.5 -27.5z" />
    <glyph glyph-name="Ograve" unicode="&#xd2;" horiz-adv-x="900" 
d="M374 674q0 -171 11 -304t27.5 -221t36 -128t36.5 -26q14 12 41 58.5t54 132t46.5 211.5t19.5 296q0 115 -11 222t-28.5 191.5t-41 139.5t-49.5 67q-22 10 -40.5 -11.5t-34.5 -66t-28.5 -108.5t-21 -138t-13 -155t-4.5 -160zM503 1355q47 -11 89.5 -16.5t79.5 -22
t67.5 -51.5t53.5 -104t37.5 -180.5t19.5 -280.5q4 -145 -13 -254.5t-48.5 -189t-74.5 -133.5t-91 -88.5t-97.5 -52.5t-94.5 -27q-76 -15 -134 4t-100 64.5t-70.5 113t-45.5 149.5t-24 174t-7 187q0 108 11.5 212t35 193t60 159.5t86.5 113t115 52.5t145 -22zM503 1381
q-9 19 -29 47t-42 55t-41.5 48.5t-26.5 28.5q-9 7 -10 13t3.5 11t13 10t17.5 10q9 6 18.5 13.5t17.5 11t14 1t8 -16.5q9 -17 24 -44.5t31 -57t30 -56.5t21 -43l8 -13q1 -11 -12.5 -17.5t-25.5 -14.5q-11 -4 -13 1t-6 13z" />
    <glyph glyph-name="Oacute" unicode="&#xd3;" horiz-adv-x="900" 
d="M374 674q0 -171 11 -304t27.5 -221t36 -128t36.5 -26q14 12 41 58.5t54 132t46.5 211.5t19.5 296q0 115 -11 222t-28.5 191.5t-41 139.5t-49.5 67q-22 10 -40.5 -11.5t-34.5 -66t-28.5 -108.5t-21 -138t-13 -155t-4.5 -160zM503 1355q47 -11 89.5 -16.5t79.5 -22
t67.5 -51.5t53.5 -104t37.5 -180.5t19.5 -280.5q4 -145 -13 -254.5t-48.5 -189t-74.5 -133.5t-91 -88.5t-97.5 -52.5t-94.5 -27q-76 -15 -134 4t-100 64.5t-70.5 113t-45.5 149.5t-24 174t-7 187q0 108 11.5 212t35 193t60 159.5t86.5 113t115 52.5t145 -22zM537 1378
q-4 -8 -6 -13t-13 -1q-12 8 -25.5 14.5t-12.5 17.5l8 13q7 16 21 43t29.5 56.5t31 57t24.5 44.5q2 14 8 16.5t14 -1t17.5 -11t18.5 -13.5q9 -5 17.5 -10t13 -10t3.5 -11t-10 -13q-7 -7 -26.5 -28.5t-41.5 -48.5t-42 -55t-29 -47z" />
    <glyph glyph-name="Ocircumflex" unicode="&#xd4;" horiz-adv-x="900" 
d="M374 674q0 -171 11 -304t27.5 -221t36 -128t36.5 -26q14 12 41 58.5t54 132t46.5 211.5t19.5 296q0 115 -11 222t-28.5 191.5t-41 139.5t-49.5 67q-22 10 -40.5 -11.5t-34.5 -66t-28.5 -108.5t-21 -138t-13 -155t-4.5 -160zM503 1355q47 -11 89.5 -16.5t79.5 -22
t67.5 -51.5t53.5 -104t37.5 -180.5t19.5 -280.5q4 -145 -13 -254.5t-48.5 -189t-74.5 -133.5t-91 -88.5t-97.5 -52.5t-94.5 -27q-76 -15 -134 4t-100 64.5t-70.5 113t-45.5 149.5t-24 174t-7 187q0 108 11.5 212t35 193t60 159.5t86.5 113t115 52.5t145 -22zM456 1615h3
q5 4 10 5t8 -2q11 -13 31.5 -36t46 -51t53.5 -57.5t54 -55.5t46.5 -45.5t32.5 -27.5q14 -17 16 -22.5t-14 -12.5q-10 -9 -17 -10t-13 2.5t-11 9.5t-9 12q1 0 -6.5 6.5t-18 17.5t-24 25.5t-28 29.5t-29.5 31.5t-26.5 31t-21.5 26.5t-16 18q-6 10 -14 19t-16 17
q-20 -14 -39.5 -26t-36.5 -30q-6 -6 -17.5 -16t-26 -22t-31.5 -25t-34.5 -25.5t-33 -24.5t-28 -21t-20.5 -14t-7 -5l-12 -10t-13 -7.5t-14 -0.5t-14 13q-13 11 -19 21.5t12 24.5q12 6 35.5 23t52 39.5t60 48.5t60 50.5t52.5 44.5t37 31z" />
    <glyph glyph-name="Otilde" unicode="&#xd5;" horiz-adv-x="900" 
d="M374 674q0 -171 11 -304t27.5 -221t36 -128t36.5 -26q14 12 41 58.5t54 132t46.5 211.5t19.5 296q0 115 -11 222t-28.5 191.5t-41 139.5t-49.5 67q-22 10 -40.5 -11.5t-34.5 -66t-28.5 -108.5t-21 -138t-13 -155t-4.5 -160zM503 1355q47 -11 89.5 -16.5t79.5 -22
t67.5 -51.5t53.5 -104t37.5 -180.5t19.5 -280.5q4 -145 -13 -254.5t-48.5 -189t-74.5 -133.5t-91 -88.5t-97.5 -52.5t-94.5 -27q-76 -15 -134 4t-100 64.5t-70.5 113t-45.5 149.5t-24 174t-7 187q0 108 11.5 212t35 193t60 159.5t86.5 113t115 52.5t145 -22zM754 1472
q-26 -30 -56.5 -48.5t-60 -26t-54.5 -6t-39 12.5q-15 11 -34 26.5t-40.5 29t-44 21.5t-43.5 4.5t-40.5 -22.5t-34.5 -59q-6 -12 -19.5 -11.5t-26 7.5t-19.5 19t0 23q23 42 49 64t53 30t55 5t54.5 -11t51.5 -18.5t47 -16.5q18 -5 37 -2t38 12t38.5 23.5t38.5 31.5
q-10 17 -7.5 20t11 -2.5t20.5 -18.5t21 -28.5t11.5 -31t-6.5 -27.5z" />
    <glyph glyph-name="Odieresis" unicode="&#xd6;" horiz-adv-x="900" 
d="M374 674q0 -171 11 -304t27.5 -221t36 -128t36.5 -26q14 12 41 58.5t54 132t46.5 211.5t19.5 296q0 115 -11 222t-28.5 191.5t-41 139.5t-49.5 67q-22 10 -40.5 -11.5t-34.5 -66t-28.5 -108.5t-21 -138t-13 -155t-4.5 -160zM503 1355q47 -11 89.5 -16.5t79.5 -22
t67.5 -51.5t53.5 -104t37.5 -180.5t19.5 -280.5q4 -145 -13 -254.5t-48.5 -189t-74.5 -133.5t-91 -88.5t-97.5 -52.5t-94.5 -27q-76 -15 -134 4t-100 64.5t-70.5 113t-45.5 149.5t-24 174t-7 187q0 108 11.5 212t35 193t60 159.5t86.5 113t115 52.5t145 -22zM406 1563
q31 -13 43 -39t8 -52.5t-21 -46t-43 -19.5q-35 0 -50 13t-18 33.5t4 44t17 44.5q6 11 11.5 16t12.5 6.5t15.5 0.5t20.5 -1zM643 1563q31 -13 43 -39t8 -52.5t-21 -46t-43 -19.5q-35 0 -50 13t-18 33.5t4 44t17 44.5q6 11 11.5 16t12.5 6.5t15.5 0.5t20.5 -1z" />
    <glyph glyph-name="Oslash" unicode="&#xd8;" horiz-adv-x="900" 
d="M87 -185q15 42 36.5 103.5t47.5 136.5q-35 49 -58 115t-37 143t-20 162t-6 172q0 108 11.5 212t35 193t60 159.5t86.5 113t115 52.5t145 -22q24 -6 47 -9.5t46 -7.5q19 63 32.5 112t21.5 80q18 52 29 81.5t20 43t19 13.5t26 -8q31 2 39 -16t2.5 -47t-19 -64.5
t-25.5 -68.5l-51 -157q33 -19 60.5 -57t48 -107.5t33.5 -177t18 -265.5q4 -145 -13 -254.5t-48.5 -189t-74.5 -133.5t-91 -88.5t-97.5 -52.5t-94.5 -27q-60 -12 -109 -2t-87 38q-15 -48 -30.5 -95t-32.5 -96q-8 -20 -14.5 -27t-13.5 -7.5t-14.5 1.5t-16.5 1
q-15 -5 -25.5 6.5t-0.5 40.5zM646 693q-1 105 -9.5 203t-23.5 179q-29 -87 -60.5 -180t-62 -182t-58.5 -168t-50 -137q7 -108 19 -190.5t26 -135.5t29 -75.5t29 -11.5q14 12 41 58.5t54 132t46.5 211.5t19.5 296zM374 652q54 160 103.5 312t88.5 279q-23 57 -50 70
q-22 10 -40.5 -11.5t-34.5 -66t-28.5 -108.5t-21 -138t-13 -155t-4.5 -160v-22z" />
    <glyph glyph-name="Ugrave" unicode="&#xd9;" horiz-adv-x="1106" 
d="M488 1119v-70t0.5 -110.5t1.5 -139.5t3.5 -157.5t6.5 -163.5t10 -157.5t14.5 -140t19.5 -110.5q10 -45 32.5 -56.5t50.5 0.5t58.5 42t57.5 68.5t47 81t27 78.5q9 46 14 111.5t7 140t0.5 155t-6.5 156.5t-12.5 144t-18.5 118.5t-24.5 79.5t-30.5 27q-27 -3 -51.5 10
t-39 30t-15.5 30.5t18 12.5q16 -1 42.5 0t69 2t103.5 1.5t145 -2.5q28 -1 42 -5t17.5 -10.5t-1.5 -14.5t-14 -16q-22 -19 -70 -43q-23 -24 -34.5 -73t-16.5 -115.5t-6 -145.5t-2.5 -164t-6.5 -172t-17.5 -168.5t-35.5 -153.5t-61 -126.5t-93.5 -89t-133.5 -40.5
q-54 -5 -102 5.5t-89.5 32t-76 53.5t-61.5 71q-38 54 -61 139t-35.5 184.5t-16 205.5t-2 203t4.5 177.5t5 128.5q1 37 -9 48.5t-27 15t-37.5 6.5t-40.5 23q-13 13 -13.5 26t25.5 18q10 2 37 3t64.5 2t82 1t89.5 -1t87 -2.5t75 -4.5q46 -4 63.5 -6t18 -6t-11.5 -13
t-26.5 -27.5t-27 -49t-12.5 -77.5zM606 1366q-9 19 -29 47t-42 55t-41.5 48.5t-26.5 28.5q-9 7 -10 13t3.5 11t13 10t17.5 10q9 6 18.5 13.5t17.5 11t14 1t8 -16.5q9 -17 24 -44.5t31 -57t30 -56.5t21 -43l8 -13q1 -11 -12.5 -17.5t-25.5 -14.5q-11 -4 -13 1t-6 13z" />
    <glyph glyph-name="Uacute" unicode="&#xda;" horiz-adv-x="1106" 
d="M488 1119v-70t0.5 -110.5t1.5 -139.5t3.5 -157.5t6.5 -163.5t10 -157.5t14.5 -140t19.5 -110.5q10 -45 32.5 -56.5t50.5 0.5t58.5 42t57.5 68.5t47 81t27 78.5q9 46 14 111.5t7 140t0.5 155t-6.5 156.5t-12.5 144t-18.5 118.5t-24.5 79.5t-30.5 27q-27 -3 -51.5 10
t-39 30t-15.5 30.5t18 12.5q16 -1 42.5 0t69 2t103.5 1.5t145 -2.5q28 -1 42 -5t17.5 -10.5t-1.5 -14.5t-14 -16q-22 -19 -70 -43q-23 -24 -34.5 -73t-16.5 -115.5t-6 -145.5t-2.5 -164t-6.5 -172t-17.5 -168.5t-35.5 -153.5t-61 -126.5t-93.5 -89t-133.5 -40.5
q-54 -5 -102 5.5t-89.5 32t-76 53.5t-61.5 71q-38 54 -61 139t-35.5 184.5t-16 205.5t-2 203t4.5 177.5t5 128.5q1 37 -9 48.5t-27 15t-37.5 6.5t-40.5 23q-13 13 -13.5 26t25.5 18q10 2 37 3t64.5 2t82 1t89.5 -1t87 -2.5t75 -4.5q46 -4 63.5 -6t18 -6t-11.5 -13
t-26.5 -27.5t-27 -49t-12.5 -77.5zM623 1366q-4 -8 -6 -13t-13 -1q-12 8 -25.5 14.5t-12.5 17.5l8 13q7 16 21 43t29.5 56.5t31 57t24.5 44.5q2 14 8 16.5t14 -1t17.5 -11t18.5 -13.5q9 -5 17.5 -10t13 -10t3.5 -11t-10 -13q-7 -7 -26.5 -28.5t-41.5 -48.5t-42 -55t-29 -47z
" />
    <glyph glyph-name="Ucircumflex" unicode="&#xdb;" horiz-adv-x="1106" 
d="M488 1119v-70t0.5 -110.5t1.5 -139.5t3.5 -157.5t6.5 -163.5t10 -157.5t14.5 -140t19.5 -110.5q10 -45 32.5 -56.5t50.5 0.5t58.5 42t57.5 68.5t47 81t27 78.5q9 46 14 111.5t7 140t0.5 155t-6.5 156.5t-12.5 144t-18.5 118.5t-24.5 79.5t-30.5 27q-27 -3 -51.5 10
t-39 30t-15.5 30.5t18 12.5q16 -1 42.5 0t69 2t103.5 1.5t145 -2.5q28 -1 42 -5t17.5 -10.5t-1.5 -14.5t-14 -16q-22 -19 -70 -43q-23 -24 -34.5 -73t-16.5 -115.5t-6 -145.5t-2.5 -164t-6.5 -172t-17.5 -168.5t-35.5 -153.5t-61 -126.5t-93.5 -89t-133.5 -40.5
q-54 -5 -102 5.5t-89.5 32t-76 53.5t-61.5 71q-38 54 -61 139t-35.5 184.5t-16 205.5t-2 203t4.5 177.5t5 128.5q1 37 -9 48.5t-27 15t-37.5 6.5t-40.5 23q-13 13 -13.5 26t25.5 18q10 2 37 3t64.5 2t82 1t89.5 -1t87 -2.5t75 -4.5q46 -4 63.5 -6t18 -6t-11.5 -13
t-26.5 -27.5t-27 -49t-12.5 -77.5zM559 1615h3q5 4 10 5t8 -2q11 -13 31.5 -36t46 -51t53.5 -57.5t54 -55.5t46.5 -45.5t32.5 -27.5q14 -17 16 -22.5t-14 -12.5q-10 -9 -17 -10t-13 2.5t-11 9.5t-9 12q1 0 -6.5 6.5t-18 17.5t-24 25.5t-28 29.5t-29.5 31.5t-26.5 31
t-21.5 26.5t-16 18q-6 10 -14 19t-16 17q-20 -14 -39.5 -26t-36.5 -30q-6 -6 -17.5 -16t-26 -22t-31.5 -25t-34.5 -25.5t-33 -24.5t-28 -21t-20.5 -14t-7 -5l-12 -10t-13 -7.5t-14 -0.5t-14 13q-13 11 -19 21.5t12 24.5q12 6 35.5 23t52 39.5t60 48.5t60 50.5t52.5 44.5
t37 31z" />
    <glyph glyph-name="Udieresis" unicode="&#xdc;" horiz-adv-x="1106" 
d="M488 1119v-70t0.5 -110.5t1.5 -139.5t3.5 -157.5t6.5 -163.5t10 -157.5t14.5 -140t19.5 -110.5q10 -45 32.5 -56.5t50.5 0.5t58.5 42t57.5 68.5t47 81t27 78.5q9 46 14 111.5t7 140t0.5 155t-6.5 156.5t-12.5 144t-18.5 118.5t-24.5 79.5t-30.5 27q-27 -3 -51.5 10
t-39 30t-15.5 30.5t18 12.5q16 -1 42.5 0t69 2t103.5 1.5t145 -2.5q28 -1 42 -5t17.5 -10.5t-1.5 -14.5t-14 -16q-22 -19 -70 -43q-23 -24 -34.5 -73t-16.5 -115.5t-6 -145.5t-2.5 -164t-6.5 -172t-17.5 -168.5t-35.5 -153.5t-61 -126.5t-93.5 -89t-133.5 -40.5
q-54 -5 -102 5.5t-89.5 32t-76 53.5t-61.5 71q-38 54 -61 139t-35.5 184.5t-16 205.5t-2 203t4.5 177.5t5 128.5q1 37 -9 48.5t-27 15t-37.5 6.5t-40.5 23q-13 13 -13.5 26t25.5 18q10 2 37 3t64.5 2t82 1t89.5 -1t87 -2.5t75 -4.5q46 -4 63.5 -6t18 -6t-11.5 -13
t-26.5 -27.5t-27 -49t-12.5 -77.5zM498 1518q31 -13 43 -39t8 -52.5t-21 -46t-43 -19.5q-35 0 -50 13t-18 33.5t4 44t17 44.5q6 11 11.5 16t12.5 6.5t15.5 0.5t20.5 -1zM735 1518q31 -13 43 -39t8 -52.5t-21 -46t-43 -19.5q-35 0 -50 13t-18 33.5t4 44t17 44.5q6 11 11.5 16
t12.5 6.5t15.5 0.5t20.5 -1z" />
    <glyph glyph-name="Yacute" unicode="&#xdd;" horiz-adv-x="1059" 
d="M443 155l-15 294q-17 124 -32 204.5t-29.5 133t-28.5 84.5t-28 59q-42 84 -79.5 155.5t-57.5 113.5l-12 25.5t-8.5 13t-12 7.5t-22.5 10q-54 23 -68.5 39t-1 26t49 15.5t82.5 7t100 1t100.5 -2.5t84 -3.5t50.5 -1.5q36 0 51 -4t16 -10.5t-8 -14t-20.5 -14t-21.5 -11
l-10 -4.5q-6 -7 -0.5 -33t18 -64t29.5 -84t35.5 -92t36 -89t29.5 -75t23 -23.5t28 46.5q28 62 50.5 126.5t39.5 146.5q10 48 -4 80t-38.5 52t-52 31.5t-45 18t-17.5 12t30 13.5q12 3 31 2.5t41.5 -3.5t48 -7t51.5 -8q31 -5 64 -8.5t60.5 -9t47 -12.5t24.5 -17q8 -16 -3 -20
t-29 -4t-35.5 2t-23.5 -2q-41 -26 -71 -80t-54 -117l-90 -238q-17 -54 -28.5 -94t-19.5 -71.5t-12 -57t-6 -51t-2.5 -53.5t-0.5 -63q0 -87 1.5 -151.5t3.5 -92.5q3 -59 21 -99t40 -66.5t43 -41t30.5 -20.5t1 -6.5t-44.5 1.5q-110 6 -192.5 6.5t-138.5 -0.5t-87 -2t-38 2
q-8 4 10.5 14t44 32t48 57.5t23.5 89.5zM579 1366q-4 -8 -6 -13t-13 -1q-12 8 -25.5 14.5t-12.5 17.5l8 13q7 16 21 43t29.5 56.5t31 57t24.5 44.5q2 14 8 16.5t14 -1t17.5 -11t18.5 -13.5q9 -5 17.5 -10t13 -10t3.5 -11t-10 -13q-7 -7 -26.5 -28.5t-41.5 -48.5t-42 -55
t-29 -47z" />
    <glyph glyph-name="agrave" unicode="&#xe0;" horiz-adv-x="834" 
d="M459 570q-54 -39 -91 -92.5t-58 -111t-27 -113.5t1 -99.5t26.5 -68.5t49.5 -21q23 3 46 21t41 57.5t27.5 105t6.5 163.5l-3 150q-2 15 -5 16t-14 -7zM469 104q-41 -47 -88.5 -76.5t-96 -40t-94 -1t-81 39.5t-57.5 82t-23 126q-1 102 50 166q24 31 59.5 54.5t75 42
t80.5 33.5t77 29q30 12 50.5 25.5t33 31.5t17.5 43t4 60q-1 44 -15.5 84t-39.5 71.5t-58.5 51t-71 22t-77 -14t-78.5 -58.5q-11 -12 -14.5 -18.5t-1.5 -10t8.5 -5.5t14.5 -5q35 -15 41 -41t-6 -76q-2 -9 -12.5 -15t-25 -8t-30 1.5t-28 13t-19.5 26.5t-3 43q7 51 33 90
t65 66.5t87.5 45t101 25t105 6t100.5 -10.5q84 -17 124.5 -55.5t54.5 -96t9 -131t-14 -158.5q-5 -55 -12.5 -108t-14 -106t-10.5 -106.5t-2 -108.5q1 -20 3.5 -26t5 -3.5t5 10.5t2.5 17q1 32 9.5 33t18 -12.5t16.5 -33t6 -26.5q-9 -36 -34.5 -52.5t-79.5 -16.5
q-57 0 -88 18.5t-47 60.5q-6 19 -15.5 16.5t-19.5 -13.5zM470 1170q-9 19 -29 47t-42 55t-41.5 48.5t-26.5 28.5q-9 7 -10 13t3.5 11t13 10t17.5 10q9 6 18.5 13.5t17.5 11t14 1t8 -16.5q9 -17 24 -44.5t31 -57t30 -56.5t21 -43l8 -13q1 -11 -12.5 -17.5t-25.5 -14.5
q-11 -4 -13 1t-6 13z" />
    <glyph glyph-name="aacute" unicode="&#xe1;" horiz-adv-x="834" 
d="M459 570q-54 -39 -91 -92.5t-58 -111t-27 -113.5t1 -99.5t26.5 -68.5t49.5 -21q23 3 46 21t41 57.5t27.5 105t6.5 163.5l-3 150q-2 15 -5 16t-14 -7zM469 104q-41 -47 -88.5 -76.5t-96 -40t-94 -1t-81 39.5t-57.5 82t-23 126q-1 102 50 166q24 31 59.5 54.5t75 42
t80.5 33.5t77 29q30 12 50.5 25.5t33 31.5t17.5 43t4 60q-1 44 -15.5 84t-39.5 71.5t-58.5 51t-71 22t-77 -14t-78.5 -58.5q-11 -12 -14.5 -18.5t-1.5 -10t8.5 -5.5t14.5 -5q35 -15 41 -41t-6 -76q-2 -9 -12.5 -15t-25 -8t-30 1.5t-28 13t-19.5 26.5t-3 43q7 51 33 90
t65 66.5t87.5 45t101 25t105 6t100.5 -10.5q84 -17 124.5 -55.5t54.5 -96t9 -131t-14 -158.5q-5 -55 -12.5 -108t-14 -106t-10.5 -106.5t-2 -108.5q1 -20 3.5 -26t5 -3.5t5 10.5t2.5 17q1 32 9.5 33t18 -12.5t16.5 -33t6 -26.5q-9 -36 -34.5 -52.5t-79.5 -16.5
q-57 0 -88 18.5t-47 60.5q-6 19 -15.5 16.5t-19.5 -13.5zM456 1170q-4 -8 -6 -13t-13 -1q-12 8 -25.5 14.5t-12.5 17.5l8 13q7 16 21 43t29.5 56.5t31 57t24.5 44.5q2 14 8 16.5t14 -1t17.5 -11t18.5 -13.5q9 -5 17.5 -10t13 -10t3.5 -11t-10 -13q-7 -7 -26.5 -28.5
t-41.5 -48.5t-42 -55t-29 -47z" />
    <glyph glyph-name="acircumflex" unicode="&#xe2;" horiz-adv-x="834" 
d="M459 570q-54 -39 -91 -92.5t-58 -111t-27 -113.5t1 -99.5t26.5 -68.5t49.5 -21q23 3 46 21t41 57.5t27.5 105t6.5 163.5l-3 150q-2 15 -5 16t-14 -7zM469 104q-41 -47 -88.5 -76.5t-96 -40t-94 -1t-81 39.5t-57.5 82t-23 126q-1 102 50 166q24 31 59.5 54.5t75 42
t80.5 33.5t77 29q30 12 50.5 25.5t33 31.5t17.5 43t4 60q-1 44 -15.5 84t-39.5 71.5t-58.5 51t-71 22t-77 -14t-78.5 -58.5q-11 -12 -14.5 -18.5t-1.5 -10t8.5 -5.5t14.5 -5q35 -15 41 -41t-6 -76q-2 -9 -12.5 -15t-25 -8t-30 1.5t-28 13t-19.5 26.5t-3 43q7 51 33 90
t65 66.5t87.5 45t101 25t105 6t100.5 -10.5q84 -17 124.5 -55.5t54.5 -96t9 -131t-14 -158.5q-5 -55 -12.5 -108t-14 -106t-10.5 -106.5t-2 -108.5q1 -20 3.5 -26t5 -3.5t5 10.5t2.5 17q1 32 9.5 33t18 -12.5t16.5 -33t6 -26.5q-9 -36 -34.5 -52.5t-79.5 -16.5
q-57 0 -88 18.5t-47 60.5q-6 19 -15.5 16.5t-19.5 -13.5zM424 1419h3q5 4 10 5t8 -2q11 -13 31.5 -36t46 -51t53.5 -57.5t54 -55.5t46.5 -45.5t32.5 -27.5q14 -17 16 -22.5t-14 -12.5q-10 -9 -17 -10t-13 2.5t-11 9.5t-9 12q1 0 -6.5 6.5t-18 17.5t-24 25.5t-28 29.5
t-29.5 31.5t-26.5 31t-21.5 26.5t-16 18q-6 10 -14 19t-16 17q-20 -14 -39.5 -26t-36.5 -30q-6 -6 -17.5 -16t-26 -22t-31.5 -25t-34.5 -25.5t-33 -24.5t-28 -21t-20.5 -14t-7 -5l-12 -10t-13 -7.5t-14 -0.5t-14 13q-13 11 -19 21.5t12 24.5q12 6 35.5 23t52 39.5t60 48.5
t60 50.5t52.5 44.5t37 31z" />
    <glyph glyph-name="atilde" unicode="&#xe3;" horiz-adv-x="834" 
d="M459 570q-54 -39 -91 -92.5t-58 -111t-27 -113.5t1 -99.5t26.5 -68.5t49.5 -21q23 3 46 21t41 57.5t27.5 105t6.5 163.5l-3 150q-2 15 -5 16t-14 -7zM469 104q-41 -47 -88.5 -76.5t-96 -40t-94 -1t-81 39.5t-57.5 82t-23 126q-1 102 50 166q24 31 59.5 54.5t75 42
t80.5 33.5t77 29q30 12 50.5 25.5t33 31.5t17.5 43t4 60q-1 44 -15.5 84t-39.5 71.5t-58.5 51t-71 22t-77 -14t-78.5 -58.5q-11 -12 -14.5 -18.5t-1.5 -10t8.5 -5.5t14.5 -5q35 -15 41 -41t-6 -76q-2 -9 -12.5 -15t-25 -8t-30 1.5t-28 13t-19.5 26.5t-3 43q7 51 33 90
t65 66.5t87.5 45t101 25t105 6t100.5 -10.5q84 -17 124.5 -55.5t54.5 -96t9 -131t-14 -158.5q-5 -55 -12.5 -108t-14 -106t-10.5 -106.5t-2 -108.5q1 -20 3.5 -26t5 -3.5t5 10.5t2.5 17q1 32 9.5 33t18 -12.5t16.5 -33t6 -26.5q-9 -36 -34.5 -52.5t-79.5 -16.5
q-57 0 -88 18.5t-47 60.5q-6 19 -15.5 16.5t-19.5 -13.5zM664 1267q-26 -30 -56.5 -48.5t-60 -26t-54.5 -6t-39 12.5q-15 11 -34 26.5t-40.5 29t-44 21.5t-43.5 4.5t-40.5 -22.5t-34.5 -59q-6 -12 -19.5 -11.5t-26 7.5t-19.5 19t0 23q23 42 49 64t53 30t55 5t54.5 -11
t51.5 -18.5t47 -16.5q18 -5 37 -2t38 12t38.5 23.5t38.5 31.5q-10 17 -7.5 20t11 -2.5t20.5 -18.5t21 -28.5t11.5 -31t-6.5 -27.5z" />
    <glyph glyph-name="adieresis" unicode="&#xe4;" horiz-adv-x="834" 
d="M459 570q-54 -39 -91 -92.5t-58 -111t-27 -113.5t1 -99.5t26.5 -68.5t49.5 -21q23 3 46 21t41 57.5t27.5 105t6.5 163.5l-3 150q-2 15 -5 16t-14 -7zM469 104q-41 -47 -88.5 -76.5t-96 -40t-94 -1t-81 39.5t-57.5 82t-23 126q-1 102 50 166q24 31 59.5 54.5t75 42
t80.5 33.5t77 29q30 12 50.5 25.5t33 31.5t17.5 43t4 60q-1 44 -15.5 84t-39.5 71.5t-58.5 51t-71 22t-77 -14t-78.5 -58.5q-11 -12 -14.5 -18.5t-1.5 -10t8.5 -5.5t14.5 -5q35 -15 41 -41t-6 -76q-2 -9 -12.5 -15t-25 -8t-30 1.5t-28 13t-19.5 26.5t-3 43q7 51 33 90
t65 66.5t87.5 45t101 25t105 6t100.5 -10.5q84 -17 124.5 -55.5t54.5 -96t9 -131t-14 -158.5q-5 -55 -12.5 -108t-14 -106t-10.5 -106.5t-2 -108.5q1 -20 3.5 -26t5 -3.5t5 10.5t2.5 17q1 32 9.5 33t18 -12.5t16.5 -33t6 -26.5q-9 -36 -34.5 -52.5t-79.5 -16.5
q-57 0 -88 18.5t-47 60.5q-6 19 -15.5 16.5t-19.5 -13.5zM309 1322q31 -13 43 -39t8 -52.5t-21 -46t-43 -19.5q-35 0 -50 13t-18 33.5t4 44t17 44.5q6 11 11.5 16t12.5 6.5t15.5 0.5t20.5 -1zM546 1322q31 -13 43 -39t8 -52.5t-21 -46t-43 -19.5q-35 0 -50 13t-18 33.5t4 44
t17 44.5q6 11 11.5 16t12.5 6.5t15.5 0.5t20.5 -1z" />
    <glyph glyph-name="aring" unicode="&#xe5;" horiz-adv-x="834" 
d="M459 570q-54 -39 -91 -92.5t-58 -111t-27 -113.5t1 -99.5t26.5 -68.5t49.5 -21q23 3 46 21t41 57.5t27.5 105t6.5 163.5l-3 150q-2 15 -5 16t-14 -7zM469 104q-41 -47 -88.5 -76.5t-96 -40t-94 -1t-81 39.5t-57.5 82t-23 126q-1 102 50 166q24 31 59.5 54.5t75 42
t80.5 33.5t77 29q30 12 50.5 25.5t33 31.5t17.5 43t4 60q-1 44 -15.5 84t-39.5 71.5t-58.5 51t-71 22t-77 -14t-78.5 -58.5q-11 -12 -14.5 -18.5t-1.5 -10t8.5 -5.5t14.5 -5q35 -15 41 -41t-6 -76q-2 -9 -12.5 -15t-25 -8t-30 1.5t-28 13t-19.5 26.5t-3 43q7 51 33 90
t65 66.5t87.5 45t101 25t105 6t100.5 -10.5q84 -17 124.5 -55.5t54.5 -96t9 -131t-14 -158.5q-5 -55 -12.5 -108t-14 -106t-10.5 -106.5t-2 -108.5q1 -20 3.5 -26t5 -3.5t5 10.5t2.5 17q1 32 9.5 33t18 -12.5t16.5 -33t6 -26.5q-9 -36 -34.5 -52.5t-79.5 -16.5
q-57 0 -88 18.5t-47 60.5q-6 19 -15.5 16.5t-19.5 -13.5zM409 1145q25 0 41.5 22t24.5 55t9 71t-5 71t-18.5 54.5t-31.5 21.5q-21 0 -35.5 -22t-23.5 -55t-11.5 -71t2 -71t16.5 -54.5t32 -21.5zM237 1289q3 40 11 70t28 50t56.5 30t96.5 10q43 0 70 -24.5t38.5 -61t9 -78
t-19 -77t-46.5 -57.5t-72 -18q-51 4 -85 20t-53.5 38.5t-27.5 48t-6 49.5z" />
    <glyph glyph-name="ae" unicode="&#xe6;" horiz-adv-x="1281" 
d="M1222 324q-29 -72 -49.5 -131t-49.5 -103t-73.5 -72t-121.5 -37q-72 -9 -124 6.5t-90 48.5q-25 -14 -75 -14q-57 0 -88 18.5t-47 60.5q-6 19 -15.5 16.5t-19.5 -13.5q-41 -47 -88.5 -76.5t-96 -40t-94 -1t-81 39.5t-57.5 82t-23 126q-1 102 50 166q24 31 59.5 54.5t75 42
t80.5 33.5t77 29q30 12 50.5 25.5t33 31.5t17.5 43t4 60q-1 44 -15.5 84t-39.5 71.5t-58.5 51t-71 22t-77 -14t-78.5 -58.5q-11 -12 -14.5 -18.5t-1.5 -10t8.5 -5.5t14.5 -5q35 -15 41 -41t-6 -76q-2 -9 -12.5 -15t-25 -8t-30 1.5t-28 13t-19.5 26.5t-3 43q7 51 33 90
t65 66.5t87.5 45t101 25t105 6t100.5 -10.5q66 -14 104.5 -41t58.5 -67q40 45 92 70t121 20q77 -6 128.5 -24t83 -44.5t45.5 -59t16 -67.5q2 -53 -21.5 -106.5t-64 -95.5t-92.5 -65t-107 -15q-8 1 -13 2.5t-8 1t-4 -4t-1 -11.5q-3 -41 -4 -103.5t1.5 -128t8 -124t15.5 -92.5
q4 -15 10 -22.5t13.5 -9.5t16.5 -1t20 4q36 9 64.5 32.5t51 53.5t40.5 64t33.5 64.5t30.5 55t31 36.5zM985 935q-15 -1 -29.5 -19t-26.5 -59t-21 -106.5t-14 -160.5q-1 -14 0.5 -18.5t12.5 -10.5q37 -24 71.5 -19.5t63.5 27.5t51 60t33.5 79t11 84t-16.5 75t-49.5 52.5
t-86.5 15.5zM459 570q-54 -39 -91 -92.5t-58 -111t-27 -113.5t1 -99.5t26.5 -68.5t49.5 -21q23 3 46 21t41 57.5t27.5 105t6.5 163.5l-3 150q-2 15 -5 16t-14 -7z" />
    <glyph glyph-name="ccedilla" unicode="&#xe7;" horiz-adv-x="666" 
d="M608 328q-11 -57 -27 -116t-43 -108t-66 -82.5t-94 -39.5q-2 -23 11 -38t31 -25.5t36 -18t27 -13.5q18 -14 34.5 -32t26.5 -43t10.5 -57.5t-13.5 -74.5q-10 -29 -31.5 -47t-49 -26t-58 -6.5t-58.5 10.5q-5 1 -5.5 12t2.5 23t9.5 20t16.5 4q24 -9 49 -13.5t46 -3.5t37 8.5
t24 23.5q6 13 -0.5 26t-21.5 25.5t-36 24t-45 22.5q-21 9 -41 28t-33.5 45.5t-19 58.5t2.5 68q-88 8 -149.5 60t-99 130.5t-53 175.5t-10.5 195q7 143 41 235.5t84 145t109.5 69t118 8t110.5 -37.5t85.5 -69t44 -85.5t-14.5 -86.5q-22 -36 -42 -50.5t-35 -14.5t-23 10.5
t-4.5 26t20 31.5t50.5 26q7 3 12 8t5 14q-1 18 -7 41.5t-15.5 45t-22.5 39t-27.5 24t-30.5 -1t-31 -34.5q-18 -33 -34 -87t-28.5 -120t-22.5 -139.5t-15.5 -145t-7 -136.5t1.5 -115q1 -14 1.5 -33.5t5 -37t14 -28t27.5 -5.5q29 8 55 31t49 53.5t42 65.5t34 67.5t25.5 58
t16 38t6 7.5t-5.5 -34z" />
    <glyph glyph-name="egrave" unicode="&#xe8;" horiz-adv-x="685" 
d="M416 935q-15 -1 -29.5 -19t-26.5 -59t-21 -106.5t-14 -160.5q-1 -14 0.5 -18.5t12.5 -10.5q37 -24 71.5 -19.5t63.5 27.5t51 60t33.5 79t11 84t-16.5 75t-49.5 52.5t-86.5 15.5zM653 324q-1 -25 -8.5 -58t-23.5 -69t-39.5 -72t-56 -66t-74 -51t-92.5 -27
q-76 -10 -130.5 8t-92.5 55t-61.5 89t-36 110.5t-17 120.5t-4.5 118q0 53 8 112t25.5 116.5t44.5 109t65 89.5t87.5 58.5t111.5 16.5q77 -6 128.5 -24t83 -44.5t45.5 -59t16 -67.5q2 -53 -21.5 -106.5t-64 -95.5t-92.5 -65t-107 -15q-8 1 -13 2.5t-8 1t-4 -4t-1 -11.5
q-3 -41 -4 -103.5t1.5 -128t8 -124t15.5 -92.5q4 -15 10 -22.5t13.5 -9.5t16.5 -1t20 4q36 9 61.5 32.5t44.5 53.5t34 63.5t31 64.5t34.5 55.5t45.5 36.5zM396 1170q-9 19 -29 47t-42 55t-41.5 48.5t-26.5 28.5q-9 7 -10 13t3.5 11t13 10t17.5 10q9 6 18.5 13.5t17.5 11
t14 1t8 -16.5q9 -17 24 -44.5t31 -57t30 -56.5t21 -43l8 -13q1 -11 -12.5 -17.5t-25.5 -14.5q-11 -4 -13 1t-6 13z" />
    <glyph glyph-name="eacute" unicode="&#xe9;" horiz-adv-x="685" 
d="M416 935q-15 -1 -29.5 -19t-26.5 -59t-21 -106.5t-14 -160.5q-1 -14 0.5 -18.5t12.5 -10.5q37 -24 71.5 -19.5t63.5 27.5t51 60t33.5 79t11 84t-16.5 75t-49.5 52.5t-86.5 15.5zM653 324q-1 -25 -8.5 -58t-23.5 -69t-39.5 -72t-56 -66t-74 -51t-92.5 -27
q-76 -10 -130.5 8t-92.5 55t-61.5 89t-36 110.5t-17 120.5t-4.5 118q0 53 8 112t25.5 116.5t44.5 109t65 89.5t87.5 58.5t111.5 16.5q77 -6 128.5 -24t83 -44.5t45.5 -59t16 -67.5q2 -53 -21.5 -106.5t-64 -95.5t-92.5 -65t-107 -15q-8 1 -13 2.5t-8 1t-4 -4t-1 -11.5
q-3 -41 -4 -103.5t1.5 -128t8 -124t15.5 -92.5q4 -15 10 -22.5t13.5 -9.5t16.5 -1t20 4q36 9 61.5 32.5t44.5 53.5t34 63.5t31 64.5t34.5 55.5t45.5 36.5zM443 1170q-4 -8 -6 -13t-13 -1q-12 8 -25.5 14.5t-12.5 17.5l8 13q7 16 21 43t29.5 56.5t31 57t24.5 44.5
q2 14 8 16.5t14 -1t17.5 -11t18.5 -13.5q9 -5 17.5 -10t13 -10t3.5 -11t-10 -13q-7 -7 -26.5 -28.5t-41.5 -48.5t-42 -55t-29 -47z" />
    <glyph glyph-name="ecircumflex" unicode="&#xea;" horiz-adv-x="685" 
d="M416 935q-15 -1 -29.5 -19t-26.5 -59t-21 -106.5t-14 -160.5q-1 -14 0.5 -18.5t12.5 -10.5q37 -24 71.5 -19.5t63.5 27.5t51 60t33.5 79t11 84t-16.5 75t-49.5 52.5t-86.5 15.5zM653 324q-1 -25 -8.5 -58t-23.5 -69t-39.5 -72t-56 -66t-74 -51t-92.5 -27
q-76 -10 -130.5 8t-92.5 55t-61.5 89t-36 110.5t-17 120.5t-4.5 118q0 53 8 112t25.5 116.5t44.5 109t65 89.5t87.5 58.5t111.5 16.5q77 -6 128.5 -24t83 -44.5t45.5 -59t16 -67.5q2 -53 -21.5 -106.5t-64 -95.5t-92.5 -65t-107 -15q-8 1 -13 2.5t-8 1t-4 -4t-1 -11.5
q-3 -41 -4 -103.5t1.5 -128t8 -124t15.5 -92.5q4 -15 10 -22.5t13.5 -9.5t16.5 -1t20 4q36 9 61.5 32.5t44.5 53.5t34 63.5t31 64.5t34.5 55.5t45.5 36.5zM349 1419h3q5 4 10 5t8 -2q11 -13 31.5 -36t46 -51t53.5 -57.5t54 -55.5t46.5 -45.5t32.5 -27.5q14 -17 16 -22.5
t-14 -12.5q-10 -9 -17 -10t-13 2.5t-11 9.5t-9 12q1 0 -6.5 6.5t-18 17.5t-24 25.5t-28 29.5t-29.5 31.5t-26.5 31t-21.5 26.5t-16 18q-6 10 -14 19t-16 17q-20 -14 -39.5 -26t-36.5 -30q-6 -6 -17.5 -16t-26 -22t-31.5 -25t-34.5 -25.5t-33 -24.5t-28 -21t-20.5 -14t-7 -5
l-12 -10t-13 -7.5t-14 -0.5t-14 13q-13 11 -19 21.5t12 24.5q12 6 35.5 23t52 39.5t60 48.5t60 50.5t52.5 44.5t37 31z" />
    <glyph glyph-name="edieresis" unicode="&#xeb;" horiz-adv-x="685" 
d="M416 935q-15 -1 -29.5 -19t-26.5 -59t-21 -106.5t-14 -160.5q-1 -14 0.5 -18.5t12.5 -10.5q37 -24 71.5 -19.5t63.5 27.5t51 60t33.5 79t11 84t-16.5 75t-49.5 52.5t-86.5 15.5zM653 324q-1 -25 -8.5 -58t-23.5 -69t-39.5 -72t-56 -66t-74 -51t-92.5 -27
q-76 -10 -130.5 8t-92.5 55t-61.5 89t-36 110.5t-17 120.5t-4.5 118q0 53 8 112t25.5 116.5t44.5 109t65 89.5t87.5 58.5t111.5 16.5q77 -6 128.5 -24t83 -44.5t45.5 -59t16 -67.5q2 -53 -21.5 -106.5t-64 -95.5t-92.5 -65t-107 -15q-8 1 -13 2.5t-8 1t-4 -4t-1 -11.5
q-3 -41 -4 -103.5t1.5 -128t8 -124t15.5 -92.5q4 -15 10 -22.5t13.5 -9.5t16.5 -1t20 4q36 9 61.5 32.5t44.5 53.5t34 63.5t31 64.5t34.5 55.5t45.5 36.5zM282 1322q31 -13 43 -39t8 -52.5t-21 -46t-43 -19.5q-35 0 -50 13t-18 33.5t4 44t17 44.5q6 11 11.5 16t12.5 6.5
t15.5 0.5t20.5 -1zM519 1322q31 -13 43 -39t8 -52.5t-21 -46t-43 -19.5q-35 0 -50 13t-18 33.5t4 44t17 44.5q6 11 11.5 16t12.5 6.5t15.5 0.5t20.5 -1z" />
    <glyph glyph-name="ntilde" unicode="&#xf1;" horiz-adv-x="889" 
d="M135 320q1 63 -0.5 134.5t-4.5 140t-7.5 128t-10.5 98.5q-3 16 -16.5 26.5t-29.5 17.5t-29.5 13t-14.5 14.5t15 21t58 32.5q21 10 47.5 17t54.5 9.5t54.5 -2t47.5 -17.5t33.5 -36t11.5 -58q0 -32 6 -39.5t15 10.5q15 28 31 54.5t35.5 46.5t44.5 32t58 12q72 0 118 -33
t72 -87.5t35.5 -126t10.5 -148.5t-4.5 -154.5t-9.5 -143.5q-3 -56 5 -96.5t21 -69t28 -46.5t25.5 -29.5t14 -16.5t-6.5 -8q-11 -2 -34.5 -1.5t-52.5 2.5t-61.5 4t-62.5 2q-9 0 -34.5 -2t-51 -2.5t-42.5 3.5t-8 18q18 25 27.5 31t14 10.5t6 18t2.5 54.5t5.5 97t9.5 119.5
t9.5 131t6 131t-0.5 120t-10 98.5q-7 36 -19 59.5t-27.5 31.5t-35 -1.5t-40.5 -39.5q-23 -34 -37.5 -88.5t-23.5 -120t-12.5 -136.5t-4.5 -137t-0.5 -121t0.5 -89q0 -46 6.5 -76.5t15 -50t17.5 -29t14.5 -14t5 -6t-10.5 -4.5q-5 -1 -31.5 -2.5t-65.5 -3.5t-84 -4.5t-87 -4.5
q-51 -3 -75 3.5t-28.5 16t7.5 19.5t34 14q23 3 34 30t14.5 65.5t3 81t-0.5 76.5zM692 1267q-26 -30 -56.5 -48.5t-60 -26t-54.5 -6t-39 12.5q-15 11 -34 26.5t-40.5 29t-44 21.5t-43.5 4.5t-40.5 -22.5t-34.5 -59q-6 -12 -19.5 -11.5t-26 7.5t-19.5 19t0 23q23 42 49 64
t53 30t55 5t54.5 -11t51.5 -18.5t47 -16.5q18 -5 37 -2t38 12t38.5 23.5t38.5 31.5q-10 17 -7.5 20t11 -2.5t20.5 -18.5t21 -28.5t11.5 -31t-6.5 -27.5z" />
    <glyph glyph-name="ograve" unicode="&#xf2;" horiz-adv-x="739" 
d="M375 45q23 -2 43 21.5t37 64.5q13 33 25.5 85t21.5 113.5t15 128t7.5 129.5t-2.5 117.5t-15 92.5q-20 70 -54 104t-67 34q-26 0 -42.5 -36t-26.5 -95.5t-13.5 -136.5t-3.5 -158q0 -84 3.5 -166.5t12 -148t23 -106.5t36.5 -43zM380 975q34 0 69.5 -3t67.5 -11
q29 -8 53.5 -32t43.5 -59t33.5 -76.5t24 -84.5t14.5 -83.5t6 -71.5q1 -42 -0.5 -94.5t-7.5 -107.5t-18 -108.5t-32.5 -98.5t-50.5 -76.5t-73 -42.5q-34 -8 -69 -11.5t-63 -3.5q-38 0 -68.5 1t-56.5 4.5t-50 10.5t-49 18q-38 17 -61.5 67t-35.5 114.5t-15.5 134t-0.5 125.5
q2 54 7 105.5t9 101.5q5 56 24.5 98.5t48 74t63 53t69 34.5t65.5 18t53 4zM422 1170q-9 19 -29 47t-42 55t-41.5 48.5t-26.5 28.5q-9 7 -10 13t3.5 11t13 10t17.5 10q9 6 18.5 13.5t17.5 11t14 1t8 -16.5q9 -17 24 -44.5t31 -57t30 -56.5t21 -43l8 -13q1 -11 -12.5 -17.5
t-25.5 -14.5q-11 -4 -13 1t-6 13z" />
    <glyph glyph-name="oacute" unicode="&#xf3;" horiz-adv-x="739" 
d="M375 45q23 -2 43 21.5t37 64.5q13 33 25.5 85t21.5 113.5t15 128t7.5 129.5t-2.5 117.5t-15 92.5q-20 70 -54 104t-67 34q-26 0 -42.5 -36t-26.5 -95.5t-13.5 -136.5t-3.5 -158q0 -84 3.5 -166.5t12 -148t23 -106.5t36.5 -43zM380 975q34 0 69.5 -3t67.5 -11
q29 -8 53.5 -32t43.5 -59t33.5 -76.5t24 -84.5t14.5 -83.5t6 -71.5q1 -42 -0.5 -94.5t-7.5 -107.5t-18 -108.5t-32.5 -98.5t-50.5 -76.5t-73 -42.5q-34 -8 -69 -11.5t-63 -3.5q-38 0 -68.5 1t-56.5 4.5t-50 10.5t-49 18q-38 17 -61.5 67t-35.5 114.5t-15.5 134t-0.5 125.5
q2 54 7 105.5t9 101.5q5 56 24.5 98.5t48 74t63 53t69 34.5t65.5 18t53 4zM443 1170q-4 -8 -6 -13t-13 -1q-12 8 -25.5 14.5t-12.5 17.5l8 13q7 16 21 43t29.5 56.5t31 57t24.5 44.5q2 14 8 16.5t14 -1t17.5 -11t18.5 -13.5q9 -5 17.5 -10t13 -10t3.5 -11t-10 -13
q-7 -7 -26.5 -28.5t-41.5 -48.5t-42 -55t-29 -47z" />
    <glyph glyph-name="ocircumflex" unicode="&#xf4;" horiz-adv-x="739" 
d="M375 45q23 -2 43 21.5t37 64.5q13 33 25.5 85t21.5 113.5t15 128t7.5 129.5t-2.5 117.5t-15 92.5q-20 70 -54 104t-67 34q-26 0 -42.5 -36t-26.5 -95.5t-13.5 -136.5t-3.5 -158q0 -84 3.5 -166.5t12 -148t23 -106.5t36.5 -43zM380 975q34 0 69.5 -3t67.5 -11
q29 -8 53.5 -32t43.5 -59t33.5 -76.5t24 -84.5t14.5 -83.5t6 -71.5q1 -42 -0.5 -94.5t-7.5 -107.5t-18 -108.5t-32.5 -98.5t-50.5 -76.5t-73 -42.5q-34 -8 -69 -11.5t-63 -3.5q-38 0 -68.5 1t-56.5 4.5t-50 10.5t-49 18q-38 17 -61.5 67t-35.5 114.5t-15.5 134t-0.5 125.5
q2 54 7 105.5t9 101.5q5 56 24.5 98.5t48 74t63 53t69 34.5t65.5 18t53 4zM376 1419h3q5 4 10 5t8 -2q11 -13 31.5 -36t46 -51t53.5 -57.5t54 -55.5t46.5 -45.5t32.5 -27.5q14 -17 16 -22.5t-14 -12.5q-10 -9 -17 -10t-13 2.5t-11 9.5t-9 12q1 0 -6.5 6.5t-18 17.5t-24 25.5
t-28 29.5t-29.5 31.5t-26.5 31t-21.5 26.5t-16 18q-6 10 -14 19t-16 17q-20 -14 -39.5 -26t-36.5 -30q-6 -6 -17.5 -16t-26 -22t-31.5 -25t-34.5 -25.5t-33 -24.5t-28 -21t-20.5 -14t-7 -5l-12 -10t-13 -7.5t-14 -0.5t-14 13q-13 11 -19 21.5t12 24.5q12 6 35.5 23t52 39.5
t60 48.5t60 50.5t52.5 44.5t37 31z" />
    <glyph glyph-name="otilde" unicode="&#xf5;" horiz-adv-x="739" 
d="M375 45q23 -2 43 21.5t37 64.5q13 33 25.5 85t21.5 113.5t15 128t7.5 129.5t-2.5 117.5t-15 92.5q-20 70 -54 104t-67 34q-26 0 -42.5 -36t-26.5 -95.5t-13.5 -136.5t-3.5 -158q0 -84 3.5 -166.5t12 -148t23 -106.5t36.5 -43zM380 975q34 0 69.5 -3t67.5 -11
q29 -8 53.5 -32t43.5 -59t33.5 -76.5t24 -84.5t14.5 -83.5t6 -71.5q1 -42 -0.5 -94.5t-7.5 -107.5t-18 -108.5t-32.5 -98.5t-50.5 -76.5t-73 -42.5q-34 -8 -69 -11.5t-63 -3.5q-38 0 -68.5 1t-56.5 4.5t-50 10.5t-49 18q-38 17 -61.5 67t-35.5 114.5t-15.5 134t-0.5 125.5
q2 54 7 105.5t9 101.5q5 56 24.5 98.5t48 74t63 53t69 34.5t65.5 18t53 4zM617 1267q-26 -30 -56.5 -48.5t-60 -26t-54.5 -6t-39 12.5q-15 11 -34 26.5t-40.5 29t-44 21.5t-43.5 4.5t-40.5 -22.5t-34.5 -59q-6 -12 -19.5 -11.5t-26 7.5t-19.5 19t0 23q23 42 49 64t53 30
t55 5t54.5 -11t51.5 -18.5t47 -16.5q18 -5 37 -2t38 12t38.5 23.5t38.5 31.5q-10 17 -7.5 20t11 -2.5t20.5 -18.5t21 -28.5t11.5 -31t-6.5 -27.5z" />
    <glyph glyph-name="odieresis" unicode="&#xf6;" horiz-adv-x="739" 
d="M375 45q23 -2 43 21.5t37 64.5q13 33 25.5 85t21.5 113.5t15 128t7.5 129.5t-2.5 117.5t-15 92.5q-20 70 -54 104t-67 34q-26 0 -42.5 -36t-26.5 -95.5t-13.5 -136.5t-3.5 -158q0 -84 3.5 -166.5t12 -148t23 -106.5t36.5 -43zM380 975q34 0 69.5 -3t67.5 -11
q29 -8 53.5 -32t43.5 -59t33.5 -76.5t24 -84.5t14.5 -83.5t6 -71.5q1 -42 -0.5 -94.5t-7.5 -107.5t-18 -108.5t-32.5 -98.5t-50.5 -76.5t-73 -42.5q-34 -8 -69 -11.5t-63 -3.5q-38 0 -68.5 1t-56.5 4.5t-50 10.5t-49 18q-38 17 -61.5 67t-35.5 114.5t-15.5 134t-0.5 125.5
q2 54 7 105.5t9 101.5q5 56 24.5 98.5t48 74t63 53t69 34.5t65.5 18t53 4zM262 1322q31 -13 43 -39t8 -52.5t-21 -46t-43 -19.5q-35 0 -50 13t-18 33.5t4 44t17 44.5q6 11 11.5 16t12.5 6.5t15.5 0.5t20.5 -1zM499 1322q31 -13 43 -39t8 -52.5t-21 -46t-43 -19.5
q-35 0 -50 13t-18 33.5t4 44t17 44.5q6 11 11.5 16t12.5 6.5t15.5 0.5t20.5 -1z" />
    <glyph glyph-name="dotlessi" unicode="&#x131;" horiz-adv-x="630" 
d="M83 83q18 8 33.5 7.5t28 -1t21.5 4t15 21t9 50t2 92.5q-1 44 2.5 106.5t6.5 131t3 136.5t-7.5 122.5t-25.5 89.5t-51 38q-24 2 -42.5 12.5t-26.5 23t-2.5 24t28.5 16.5q30 7 71 10t80.5 3.5t71 -1.5t42.5 -6q16 -5 35 -14.5t35.5 -23t27.5 -31.5t11 -40q0 -25 -1.5 -70
t-4 -102.5t-4.5 -122.5t-3.5 -129t-2 -123.5t1.5 -104.5q1 -38 6.5 -58t14.5 -30t21.5 -13.5t28.5 -7t34.5 -10.5t39.5 -25q8 -6 12 -12.5t1 -11.5t-14.5 -8t-33.5 -3h-70t-90.5 -0.5t-98 -0.5t-91.5 -1t-73 -2t-41 -3q-29 0 -42 6.5t-12 16t15 21.5t39 23z" />
    <glyph glyph-name="igrave" unicode="&#xec;" horiz-adv-x="630" 
d="M83 83q18 8 33.5 7.5t28 -1t21.5 4t15 21t9 50t2 92.5q-1 44 2.5 106.5t6.5 131t3 136.5t-7.5 122.5t-25.5 89.5t-51 38q-24 2 -42.5 12.5t-26.5 23t-2.5 24t28.5 16.5q30 7 71 10t80.5 3.5t71 -1.5t42.5 -6q16 -5 35 -14.5t35.5 -23t27.5 -31.5t11 -40q0 -25 -1.5 -70
t-4 -102.5t-4.5 -122.5t-3.5 -129t-2 -123.5t1.5 -104.5q1 -38 6.5 -58t14.5 -30t21.5 -13.5t28.5 -7t34.5 -10.5t39.5 -25q8 -6 12 -12.5t1 -11.5t-14.5 -8t-33.5 -3h-70t-90.5 -0.5t-98 -0.5t-91.5 -1t-73 -2t-41 -3q-29 0 -42 6.5t-12 16t15 21.5t39 23zM259 1170
q-9 19 -29 47t-42 55t-41.5 48.5t-26.5 28.5q-9 7 -10 13t3.5 11t13 10t17.5 10q9 6 18.5 13.5t17.5 11t14 1t8 -16.5q9 -17 24 -44.5t31 -57t30 -56.5t21 -43l8 -13q1 -11 -12.5 -17.5t-25.5 -14.5q-11 -4 -13 1t-6 13z" />
    <glyph glyph-name="iacute" unicode="&#xed;" horiz-adv-x="630" 
d="M83 83q18 8 33.5 7.5t28 -1t21.5 4t15 21t9 50t2 92.5q-1 44 2.5 106.5t6.5 131t3 136.5t-7.5 122.5t-25.5 89.5t-51 38q-24 2 -42.5 12.5t-26.5 23t-2.5 24t28.5 16.5q30 7 71 10t80.5 3.5t71 -1.5t42.5 -6q16 -5 35 -14.5t35.5 -23t27.5 -31.5t11 -40q0 -25 -1.5 -70
t-4 -102.5t-4.5 -122.5t-3.5 -129t-2 -123.5t1.5 -104.5q1 -38 6.5 -58t14.5 -30t21.5 -13.5t28.5 -7t34.5 -10.5t39.5 -25q8 -6 12 -12.5t1 -11.5t-14.5 -8t-33.5 -3h-70t-90.5 -0.5t-98 -0.5t-91.5 -1t-73 -2t-41 -3q-29 0 -42 6.5t-12 16t15 21.5t39 23zM262 1170
q-4 -8 -6 -13t-13 -1q-12 8 -25.5 14.5t-12.5 17.5l8 13q7 16 21 43t29.5 56.5t31 57t24.5 44.5q2 14 8 16.5t14 -1t17.5 -11t18.5 -13.5q9 -5 17.5 -10t13 -10t3.5 -11t-10 -13q-7 -7 -26.5 -28.5t-41.5 -48.5t-42 -55t-29 -47z" />
    <glyph glyph-name="icircumflex" unicode="&#xee;" horiz-adv-x="630" 
d="M83 83q18 8 33.5 7.5t28 -1t21.5 4t15 21t9 50t2 92.5q-1 44 2.5 106.5t6.5 131t3 136.5t-7.5 122.5t-25.5 89.5t-51 38q-24 2 -42.5 12.5t-26.5 23t-2.5 24t28.5 16.5q30 7 71 10t80.5 3.5t71 -1.5t42.5 -6q16 -5 35 -14.5t35.5 -23t27.5 -31.5t11 -40q0 -25 -1.5 -70
t-4 -102.5t-4.5 -122.5t-3.5 -129t-2 -123.5t1.5 -104.5q1 -38 6.5 -58t14.5 -30t21.5 -13.5t28.5 -7t34.5 -10.5t39.5 -25q8 -6 12 -12.5t1 -11.5t-14.5 -8t-33.5 -3h-70t-90.5 -0.5t-98 -0.5t-91.5 -1t-73 -2t-41 -3q-29 0 -42 6.5t-12 16t15 21.5t39 23zM322 1419h3
q5 4 10 5t8 -2q11 -13 31.5 -36t46 -51t53.5 -57.5t54 -55.5t46.5 -45.5t32.5 -27.5q14 -17 16 -22.5t-14 -12.5q-10 -9 -17 -10t-13 2.5t-11 9.5t-9 12q1 0 -6.5 6.5t-18 17.5t-24 25.5t-28 29.5t-29.5 31.5t-26.5 31t-21.5 26.5t-16 18q-6 10 -14 19t-16 17
q-20 -14 -39.5 -26t-36.5 -30q-6 -6 -17.5 -16t-26 -22t-31.5 -25t-34.5 -25.5t-33 -24.5t-28 -21t-20.5 -14t-7 -5l-12 -10t-13 -7.5t-14 -0.5t-14 13q-13 11 -19 21.5t12 24.5q12 6 35.5 23t52 39.5t60 48.5t60 50.5t52.5 44.5t37 31z" />
    <glyph glyph-name="idieresis" unicode="&#xef;" horiz-adv-x="630" 
d="M83 83q18 8 33.5 7.5t28 -1t21.5 4t15 21t9 50t2 92.5q-1 44 2.5 106.5t6.5 131t3 136.5t-7.5 122.5t-25.5 89.5t-51 38q-24 2 -42.5 12.5t-26.5 23t-2.5 24t28.5 16.5q30 7 71 10t80.5 3.5t71 -1.5t42.5 -6q16 -5 35 -14.5t35.5 -23t27.5 -31.5t11 -40q0 -25 -1.5 -70
t-4 -102.5t-4.5 -122.5t-3.5 -129t-2 -123.5t1.5 -104.5q1 -38 6.5 -58t14.5 -30t21.5 -13.5t28.5 -7t34.5 -10.5t39.5 -25q8 -6 12 -12.5t1 -11.5t-14.5 -8t-33.5 -3h-70t-90.5 -0.5t-98 -0.5t-91.5 -1t-73 -2t-41 -3q-29 0 -42 6.5t-12 16t15 21.5t39 23zM207 1322
q31 -13 43 -39t8 -52.5t-21 -46t-43 -19.5q-35 0 -50 13t-18 33.5t4 44t17 44.5q6 11 11.5 16t12.5 6.5t15.5 0.5t20.5 -1zM444 1322q31 -13 43 -39t8 -52.5t-21 -46t-43 -19.5q-35 0 -50 13t-18 33.5t4 44t17 44.5q6 11 11.5 16t12.5 6.5t15.5 0.5t20.5 -1z" />
    <glyph glyph-name="oslash" unicode="&#xf8;" horiz-adv-x="739" 
d="M171 37q-8 3 -17 8q-38 17 -61.5 67t-35.5 114.5t-15.5 134t-0.5 125.5q2 54 7 105.5t9 101.5q5 56 24.5 98.5t48 74t63 53t69 34.5t65.5 18t53 4q26 0 52 -1.5t52 -5.5q31 95 59 182t50.5 160t38.5 129.5t24 90.5q18 52 29 81.5t20 43t19 13.5t26 -8q31 2 39 -16
t2.5 -47t-19 -64.5t-25.5 -68.5q-1 -2 -15.5 -48t-39 -120t-56.5 -169.5t-66 -197.5q30 -29 52.5 -76.5t37.5 -101t23 -106t9 -91.5q1 -42 -0.5 -94.5t-7.5 -107.5t-18 -108.5t-32.5 -98.5t-50.5 -76.5t-73 -42.5q-34 -8 -69 -11.5t-63 -3.5q-40 0 -71 1t-58 5
q-17 -54 -34 -107.5t-37 -109.5q-8 -20 -14.5 -27t-13.5 -7.5t-14.5 1.5t-16.5 1q-15 -5 -25.5 6.5t-0.5 40.5zM375 45q23 -2 43 21.5t37 64.5q12 31 23.5 78.5t21 104t15.5 118.5t8.5 122t0.5 114.5t-10 96.5q-24 -71 -47.5 -138t-44.5 -125t-38 -103.5t-29 -73.5
q-23 -54 -43 -110q9 -74 24.5 -121t38.5 -49zM300 416q40 118 80.5 238.5t79.5 238.5q-17 21 -36.5 31.5t-37.5 10.5q-26 0 -42.5 -36t-26.5 -95.5t-13.5 -136.5t-3.5 -158v-93z" />
    <glyph glyph-name="ugrave" unicode="&#xf9;" horiz-adv-x="945" 
d="M52 890q-12 1 -21.5 9.5t-7.5 19t19 20.5t58 13q24 3 56 6t65 3t65 -4t56.5 -14.5t39 -30t13.5 -50.5q-19 0 -27.5 -17t-10.5 -48t1.5 -72.5t8.5 -88.5t8.5 -98t3.5 -101q-1 -50 -5 -99.5t-8.5 -93.5t-7.5 -81.5t-1 -63.5t11.5 -39.5t29.5 -9.5q24 4 43 19t34 37.5
t27.5 52t24.5 62.5q7 22 14.5 62.5t13.5 93t10 112t5.5 118.5t0 113t-7.5 95.5t-16.5 66.5t-26.5 25q-35 -12 -49.5 -6.5t-14 18t15 26.5t37.5 18l58.5 9t66.5 7t66.5 -1.5t56.5 -15.5t37.5 -35t10.5 -61q-3 -36 -7 -92t-8 -121.5t-6.5 -137.5t-1.5 -141t6 -131t15.5 -107.5
t28 -70.5t43.5 -20q21 4 32.5 0.5t6.5 -9.5t-28.5 -13.5t-72.5 -11.5q-60 -4 -101 2.5t-68.5 22.5t-43.5 40t-26 54q-6 17 -8.5 25t-5 8t-6.5 -7t-13 -21q-28 -48 -66.5 -83.5t-91.5 -51.5q-78 -23 -128 -13t-79 44t-40 88.5t-12 120t5.5 138.5t12.5 144t9 136t-5 115.5
t-29.5 82t-64.5 34.5zM402 1170q-9 19 -29 47t-42 55t-41.5 48.5t-26.5 28.5q-9 7 -10 13t3.5 11t13 10t17.5 10q9 6 18.5 13.5t17.5 11t14 1t8 -16.5q9 -17 24 -44.5t31 -57t30 -56.5t21 -43l8 -13q1 -11 -12.5 -17.5t-25.5 -14.5q-11 -4 -13 1t-6 13z" />
    <glyph glyph-name="uacute" unicode="&#xfa;" horiz-adv-x="945" 
d="M52 890q-12 1 -21.5 9.5t-7.5 19t19 20.5t58 13q24 3 56 6t65 3t65 -4t56.5 -14.5t39 -30t13.5 -50.5q-19 0 -27.5 -17t-10.5 -48t1.5 -72.5t8.5 -88.5t8.5 -98t3.5 -101q-1 -50 -5 -99.5t-8.5 -93.5t-7.5 -81.5t-1 -63.5t11.5 -39.5t29.5 -9.5q24 4 43 19t34 37.5
t27.5 52t24.5 62.5q7 22 14.5 62.5t13.5 93t10 112t5.5 118.5t0 113t-7.5 95.5t-16.5 66.5t-26.5 25q-35 -12 -49.5 -6.5t-14 18t15 26.5t37.5 18l58.5 9t66.5 7t66.5 -1.5t56.5 -15.5t37.5 -35t10.5 -61q-3 -36 -7 -92t-8 -121.5t-6.5 -137.5t-1.5 -141t6 -131t15.5 -107.5
t28 -70.5t43.5 -20q21 4 32.5 0.5t6.5 -9.5t-28.5 -13.5t-72.5 -11.5q-60 -4 -101 2.5t-68.5 22.5t-43.5 40t-26 54q-6 17 -8.5 25t-5 8t-6.5 -7t-13 -21q-28 -48 -66.5 -83.5t-91.5 -51.5q-78 -23 -128 -13t-79 44t-40 88.5t-12 120t5.5 138.5t12.5 144t9 136t-5 115.5
t-29.5 82t-64.5 34.5zM420 1170q-4 -8 -6 -13t-13 -1q-12 8 -25.5 14.5t-12.5 17.5l8 13q7 16 21 43t29.5 56.5t31 57t24.5 44.5q2 14 8 16.5t14 -1t17.5 -11t18.5 -13.5q9 -5 17.5 -10t13 -10t3.5 -11t-10 -13q-7 -7 -26.5 -28.5t-41.5 -48.5t-42 -55t-29 -47z" />
    <glyph glyph-name="ucircumflex" unicode="&#xfb;" horiz-adv-x="945" 
d="M52 890q-12 1 -21.5 9.5t-7.5 19t19 20.5t58 13q24 3 56 6t65 3t65 -4t56.5 -14.5t39 -30t13.5 -50.5q-19 0 -27.5 -17t-10.5 -48t1.5 -72.5t8.5 -88.5t8.5 -98t3.5 -101q-1 -50 -5 -99.5t-8.5 -93.5t-7.5 -81.5t-1 -63.5t11.5 -39.5t29.5 -9.5q24 4 43 19t34 37.5
t27.5 52t24.5 62.5q7 22 14.5 62.5t13.5 93t10 112t5.5 118.5t0 113t-7.5 95.5t-16.5 66.5t-26.5 25q-35 -12 -49.5 -6.5t-14 18t15 26.5t37.5 18l58.5 9t66.5 7t66.5 -1.5t56.5 -15.5t37.5 -35t10.5 -61q-3 -36 -7 -92t-8 -121.5t-6.5 -137.5t-1.5 -141t6 -131t15.5 -107.5
t28 -70.5t43.5 -20q21 4 32.5 0.5t6.5 -9.5t-28.5 -13.5t-72.5 -11.5q-60 -4 -101 2.5t-68.5 22.5t-43.5 40t-26 54q-6 17 -8.5 25t-5 8t-6.5 -7t-13 -21q-28 -48 -66.5 -83.5t-91.5 -51.5q-78 -23 -128 -13t-79 44t-40 88.5t-12 120t5.5 138.5t12.5 144t9 136t-5 115.5
t-29.5 82t-64.5 34.5zM479 1419h3q5 4 10 5t8 -2q11 -13 31.5 -36t46 -51t53.5 -57.5t54 -55.5t46.5 -45.5t32.5 -27.5q14 -17 16 -22.5t-14 -12.5q-10 -9 -17 -10t-13 2.5t-11 9.5t-9 12q1 0 -6.5 6.5t-18 17.5t-24 25.5t-28 29.5t-29.5 31.5t-26.5 31t-21.5 26.5t-16 18
q-6 10 -14 19t-16 17q-20 -14 -39.5 -26t-36.5 -30q-6 -6 -17.5 -16t-26 -22t-31.5 -25t-34.5 -25.5t-33 -24.5t-28 -21t-20.5 -14t-7 -5l-12 -10t-13 -7.5t-14 -0.5t-14 13q-13 11 -19 21.5t12 24.5q12 6 35.5 23t52 39.5t60 48.5t60 50.5t52.5 44.5t37 31z" />
    <glyph glyph-name="udieresis" unicode="&#xfc;" horiz-adv-x="945" 
d="M52 890q-12 1 -21.5 9.5t-7.5 19t19 20.5t58 13q24 3 56 6t65 3t65 -4t56.5 -14.5t39 -30t13.5 -50.5q-19 0 -27.5 -17t-10.5 -48t1.5 -72.5t8.5 -88.5t8.5 -98t3.5 -101q-1 -50 -5 -99.5t-8.5 -93.5t-7.5 -81.5t-1 -63.5t11.5 -39.5t29.5 -9.5q24 4 43 19t34 37.5
t27.5 52t24.5 62.5q7 22 14.5 62.5t13.5 93t10 112t5.5 118.5t0 113t-7.5 95.5t-16.5 66.5t-26.5 25q-35 -12 -49.5 -6.5t-14 18t15 26.5t37.5 18l58.5 9t66.5 7t66.5 -1.5t56.5 -15.5t37.5 -35t10.5 -61q-3 -36 -7 -92t-8 -121.5t-6.5 -137.5t-1.5 -141t6 -131t15.5 -107.5
t28 -70.5t43.5 -20q21 4 32.5 0.5t6.5 -9.5t-28.5 -13.5t-72.5 -11.5q-60 -4 -101 2.5t-68.5 22.5t-43.5 40t-26 54q-6 17 -8.5 25t-5 8t-6.5 -7t-13 -21q-28 -48 -66.5 -83.5t-91.5 -51.5q-78 -23 -128 -13t-79 44t-40 88.5t-12 120t5.5 138.5t12.5 144t9 136t-5 115.5
t-29.5 82t-64.5 34.5zM296 1322q31 -13 43 -39t8 -52.5t-21 -46t-43 -19.5q-35 0 -50 13t-18 33.5t4 44t17 44.5q6 11 11.5 16t12.5 6.5t15.5 0.5t20.5 -1zM533 1322q31 -13 43 -39t8 -52.5t-21 -46t-43 -19.5q-35 0 -50 13t-18 33.5t4 44t17 44.5q6 11 11.5 16t12.5 6.5
t15.5 0.5t20.5 -1z" />
    <glyph glyph-name="yacute" unicode="&#xfd;" horiz-adv-x="1028" 
d="M809 863q3 22 -4.5 34.5t-20.5 19.5t-28 9t-26 2q-22 0 -34 5t-11.5 12.5t16 15t49.5 13t88.5 7t132.5 -3.5q27 -2 29.5 -10t-8 -17t-27.5 -17.5t-28 -10.5q-23 -6 -37 -18.5t-24.5 -32t-19 -45t-18.5 -56.5q-11 -37 -32 -113.5t-50 -175t-65 -209t-76 -215.5
q2 -2 2.5 -3.5t-6.5 -3.5q-33 -85 -69 -161t-73.5 -133t-76 -90t-77.5 -33q-69 0 -119 62q-6 9 -13.5 35.5t-12 60t-5 69t8 61.5t27 37.5t51.5 -1.5q20 -9 38 -23t27.5 -32t7.5 -39t-22 -44q-11 -11 -26.5 -17.5t-36.5 -7.5l-0.5 -20t5.5 -44t22 -43.5t49 -19.5
q18 0 38 15.5t41 43.5t43.5 67t45.5 87q10 22 7.5 49.5t-11.5 56t-21 55.5t-20 49q-20 50 -49 111t-62 127t-66.5 135t-63 135.5t-52 127.5t-32.5 112q-6 33 -19 44t-21 14q-3 1 -11.5 4.5t-17.5 8t-16 9.5t-6.5 10.5t11.5 10t37 8.5q7 1 36 5t70 9t88.5 10t90 8t74.5 2.5
t43 -6t-4.5 -17.5t-68.5 -32q17 -20 31.5 -55t28.5 -79.5t29 -94t33.5 -98.5t41.5 -93t54 -76q12 -13 20 -27t13 -23t9.5 -10.5t10.5 9t15 36.5t24 73q21 66 37.5 125t29 108t21 85.5t11.5 56.5zM609 1170q-4 -8 -6 -13t-13 -1q-12 8 -25.5 14.5t-12.5 17.5l8 13q7 16 21 43
t29.5 56.5t31 57t24.5 44.5q2 14 8 16.5t14 -1t17.5 -11t18.5 -13.5q9 -5 17.5 -10t13 -10t3.5 -11t-10 -13q-7 -7 -26.5 -28.5t-41.5 -48.5t-42 -55t-29 -47z" />
    <glyph glyph-name="ydieresis" unicode="&#xff;" horiz-adv-x="1028" 
d="M809 863q3 22 -4.5 34.5t-20.5 19.5t-28 9t-26 2q-22 0 -34 5t-11.5 12.5t16 15t49.5 13t88.5 7t132.5 -3.5q27 -2 29.5 -10t-8 -17t-27.5 -17.5t-28 -10.5q-23 -6 -37 -18.5t-24.5 -32t-19 -45t-18.5 -56.5q-11 -37 -32 -113.5t-50 -175t-65 -209t-76 -215.5
q2 -2 2.5 -3.5t-6.5 -3.5q-33 -85 -69 -161t-73.5 -133t-76 -90t-77.5 -33q-69 0 -119 62q-6 9 -13.5 35.5t-12 60t-5 69t8 61.5t27 37.5t51.5 -1.5q20 -9 38 -23t27.5 -32t7.5 -39t-22 -44q-11 -11 -26.5 -17.5t-36.5 -7.5l-0.5 -20t5.5 -44t22 -43.5t49 -19.5
q18 0 38 15.5t41 43.5t43.5 67t45.5 87q10 22 7.5 49.5t-11.5 56t-21 55.5t-20 49q-20 50 -49 111t-62 127t-66.5 135t-63 135.5t-52 127.5t-32.5 112q-6 33 -19 44t-21 14q-3 1 -11.5 4.5t-17.5 8t-16 9.5t-6.5 10.5t11.5 10t37 8.5q7 1 36 5t70 9t88.5 10t90 8t74.5 2.5
t43 -6t-4.5 -17.5t-68.5 -32q17 -20 31.5 -55t28.5 -79.5t29 -94t33.5 -98.5t41.5 -93t54 -76q12 -13 20 -27t13 -23t9.5 -10.5t10.5 9t15 36.5t24 73q21 66 37.5 125t29 108t21 85.5t11.5 56.5zM406 1322q31 -13 43 -39t8 -52.5t-21 -46t-43 -19.5q-35 0 -50 13t-18 33.5
t4 44t17 44.5q6 11 11.5 16t12.5 6.5t15.5 0.5t20.5 -1zM643 1322q31 -13 43 -39t8 -52.5t-21 -46t-43 -19.5q-35 0 -50 13t-18 33.5t4 44t17 44.5q6 11 11.5 16t12.5 6.5t15.5 0.5t20.5 -1z" />
    <glyph glyph-name="Lslash" unicode="&#x141;" horiz-adv-x="1011" 
d="M594 758q11 7 19 -0.5t9 -19.5q1 -6 5 -13t6.5 -14t2 -13t-8.5 -12q-45 -27 -90 -47.5t-92 -43.5q1 -84 2.5 -151t3.5 -118.5t4 -89.5t5 -65q4 -53 17.5 -84t38.5 -44.5t62 -11.5t88 15q53 14 98 56t75 127q45 129 71 208t38.5 102.5t14 -10.5t-1.5 -129q-1 -29 -6 -68
t-9 -82.5t-4 -88t8 -84.5q6 -29 -5 -48t-51 -19q-98 0 -200 0.5t-204.5 0t-203.5 -2.5t-197 -7q-30 -2 -41 -2t-8.5 3.5t15.5 11t31 22.5q41 34 61 77t28 91t8 99.5t1 101.5v54l-77 -38q-15 -5 -24 -14.5t-17 -14.5t-17.5 -2.5t-25.5 21.5q-7 11 -9.5 19t2 15t17.5 14t36 18
q29 14 57.5 27.5t57.5 27.5q0 72 -1 150t-3 153t-5 142.5t-7 119.5q-2 28 -3 50t-7 39.5t-20 32t-44 28.5q-18 8 -34.5 15.5t-23.5 14.5t-0.5 12.5t33.5 10.5q29 5 88.5 10.5t165.5 5.5q99 1 154 -7.5t81 -20.5q20 -10 26.5 -18.5t3.5 -15t-13 -10.5t-23 -5
q-47 -5 -70 -14.5t-31.5 -29.5t-8 -53.5t0.5 -86.5q0 -114 0.5 -209t1.5 -176q38 21 75 43t74 45z" />
    <glyph glyph-name="lslash" unicode="&#x142;" horiz-adv-x="560" 
d="M607 768q11 7 19 -0.5t9 -18.5q1 -6 5 -13t6.5 -14t2 -13.5t-8.5 -12.5q-53 -32 -106.5 -55t-109.5 -53q-7 -70 -12 -136t-6.5 -124.5t1.5 -107.5t12 -85q10 -41 29.5 -53.5t43.5 -12.5q15 0 19 -6.5t1 -14.5t-11.5 -15.5t-17.5 -9.5q-17 -6 -46 -7t-63.5 0.5t-72 4
t-73.5 4.5t-67 1.5t-52 -5.5q-36 -8 -49.5 -6.5t-13 9.5t12 22t25.5 30t27 33.5t18 33.5q14 51 24 132t18 179l-49 -25q-15 -5 -24.5 -14.5t-17.5 -14.5t-17.5 -2.5t-24.5 21.5q-7 11 -9.5 19t2 14.5t17.5 14t36 18.5l91 44q4 83 6 169t1 168t-5 156t-11 131t-17.5 94
t-24.5 46q-13 8 -30.5 15t-34 14t-30 14t-18 14t1.5 15t28 18q33 15 81.5 20t100.5 3t101.5 -11t83.5 -24q25 -11 39 -45t19.5 -85.5t4 -118t-7.5 -141t-14.5 -155.5t-16.5 -162q45 25 88 51t87 53z" />
    <glyph glyph-name="OE" unicode="&#x152;" horiz-adv-x="1527" 
d="M607 9q0 8 18 22q14 11 28.5 15.5t27.5 7.5t24.5 7.5t20 16.5t14 33.5t7.5 59.5q-33 -55 -72 -92.5t-80.5 -62.5t-83.5 -39.5t-80 -21.5q-76 -15 -134 4t-100 64.5t-70.5 113t-45.5 149.5t-24 174t-7 187q0 108 11.5 212t35 193t60 159.5t86.5 113t115 52.5t145 -22
q28 -6 55 -10t51.5 -9.5t47.5 -13.5t44 -22q12 2 25.5 3t28.5 2q138 0 274.5 -4t275.5 1q46 7 74.5 9.5t44.5 -7t22 -34.5t8 -73q1 -63 0.5 -123.5t-0.5 -121.5q0 -55 -2 -76.5t-7.5 -17.5t-13.5 29t-20 61t-28 79t-37 84q-24 47 -47.5 80t-49.5 53.5t-58 28t-72 4.5
q-32 -2 -50.5 -28.5t-28.5 -88.5q-7 -42 -13 -94.5t-10.5 -109.5t-7.5 -114.5t-4 -109.5q0 -19 1 -30t4 -17t9 -7.5t16 -1.5q21 0 38 4t41 13q28 10 42 22t20 27.5t7.5 35t5.5 44.5q5 37 9.5 58t8.5 12t7.5 -55t5.5 -143q1 -69 0 -110.5t-4 -61t-7.5 -21.5t-8.5 9
q-11 24 -20 44.5t-22 38.5t-31.5 32t-46.5 24q-31 11 -54 2.5t-23 -46.5q0 -57 0.5 -113.5t2 -109t5 -100.5t10.5 -88q8 -66 22 -99.5t34 -46t48 -9.5t64 9q32 5 60 36t52 75.5t44.5 96t36.5 97.5t28.5 81t21 46t12.5 -8t4 -80v-247q0 -47 0.5 -76t-5.5 -43.5t-22.5 -15
t-49.5 9.5q-63 -3 -130.5 -8.5t-133.5 -9.5q-55 -3 -118.5 -3t-129.5 1.5t-130.5 3.5t-121.5 5zM374 674q0 -171 11 -304t27.5 -221t36 -128t36.5 -26q14 12 41 58.5t54 132t46.5 211.5t19.5 296q0 115 -11 222t-28.5 191.5t-41 139.5t-49.5 67q-22 10 -40.5 -11.5
t-34.5 -66t-28.5 -108.5t-21 -138t-13 -155t-4.5 -160z" />
    <glyph glyph-name="oe" unicode="&#x153;" horiz-adv-x="1234" 
d="M1197 324q-29 -72 -49.5 -131t-49.5 -103t-73.5 -72t-121.5 -37q-55 -7 -99 1t-78 27.5t-59.5 49t-43.5 65.5q-20 -37 -47.5 -62.5t-65.5 -35.5q-34 -8 -69 -11.5t-63 -3.5q-38 0 -68.5 1t-56.5 4.5t-50 10.5t-49 18q-38 17 -61.5 67t-35.5 114.5t-15.5 134t-0.5 125.5
q2 54 7 105.5t9 101.5q5 56 24.5 98.5t48 74t63 53t69 34.5t65.5 18t53 4q34 0 69.5 -3t67.5 -11q39 -11 69 -50t52 -93q20 38 46.5 70t59.5 54.5t72.5 33.5t86.5 8q77 -6 128.5 -24t83 -44.5t45.5 -59t16 -67.5q2 -53 -21.5 -106.5t-64 -95.5t-92.5 -65t-107 -15
q-8 1 -13 2.5t-8 1t-4 -4t-1 -11.5q-3 -41 -4 -103.5t1.5 -128t8 -124t15.5 -92.5q4 -15 10 -22.5t13.5 -9.5t16.5 -1t20 4q36 9 64.5 32.5t51 53.5t40.5 64t33.5 65t30.5 55t31 36zM375 45q23 -2 43 21.5t37 64.5q13 33 25.5 85t21.5 113.5t15 128t7.5 129.5t-2.5 117.5
t-15 92.5q-20 70 -54 104t-67 34q-26 0 -42.5 -36t-26.5 -95.5t-13.5 -136.5t-3.5 -158q0 -84 3.5 -166.5t12 -148t23 -106.5t36.5 -43zM960 935q-15 -1 -29.5 -19t-26.5 -59t-21 -106.5t-14 -160.5q-1 -14 0.5 -18.5t12.5 -10.5q37 -24 71.5 -19.5t63.5 27.5t51 60t33.5 79
t11 84t-16.5 75t-49.5 52.5t-86.5 15.5z" />
    <glyph glyph-name="Scaron" unicode="&#x160;" horiz-adv-x="924" 
d="M865 1230v-369q0 -41 -9 -44t-22.5 16.5t-30 54.5t-30.5 69t-23.5 59.5t-10.5 27.5q-31 52 -76 88t-95 59t-99.5 34.5t-90.5 14.5t-68 -1t-31 -12q-12 -23 2.5 -61t46.5 -86.5t77.5 -104t96 -112.5t102 -113.5t95 -105.5t75 -89t42.5 -65q18 -40 30 -79.5t16 -76.5
t-0.5 -68.5t-19.5 -55.5q-34 -50 -68.5 -92.5t-75.5 -73.5t-90.5 -48.5t-112.5 -17.5q-36 0 -74 10t-75.5 27t-73 39.5t-67.5 47.5q-26 20 -44.5 19t-31.5 -13t-20.5 -31.5t-12.5 -37.5t-7.5 -30t-5.5 -9t-7.5 25.5t-11.5 72.5q-6 45 -7.5 97.5t-1 99.5t2 83t0.5 49
q-3 46 0 64t11 16t18.5 -20.5t22.5 -44t23.5 -55.5t21 -55.5t15.5 -42.5l6 -17q26 -66 63.5 -111t80.5 -73t88.5 -39t87.5 -9q58 3 88 26t38 57t-1.5 76.5t-30 85.5t-49 82t-56.5 67q-4 4 -21.5 24t-43.5 50.5t-58.5 68.5t-65.5 77.5t-65 77t-57 68t-41 50.5t-18 23
q-23 42 -35 84t-14 79.5t7 69t29 52.5q38 41 65.5 73.5t50.5 55.5t46 35.5t52.5 14t70.5 -9t100 -33.5q56 -23 108 -56.5t97 -79.5q12 -11 20 -18t14.5 -8t11.5 5.5t10 23.5q6 18 17 45t24 51.5t26.5 43t24.5 20t18 -19t7 -71.5zM526 1406h-3q-5 -4 -10 -5t-8 2
q-11 13 -31.5 36t-46 51t-53.5 57.5t-54 55.5t-47 45.5t-32 27.5q-14 17 -16 22.5t14 12.5q10 9 17 10t13 -2.5t10.5 -9.5t9.5 -12q-1 0 6.5 -6.5t18 -17.5t24 -25.5t28 -29.5t29.5 -31.5t26.5 -31t21.5 -26.5t16 -18q6 -10 14 -19t16 -17q20 14 39.5 26t36.5 30
q6 6 17.5 16t26 22t31.5 25t34.5 25.5t33 24.5t28 21t20.5 14t7 5q6 4 12 9.5t13 8t13.5 0t14.5 -12.5q13 -11 19 -21.5t-12 -24.5q-13 -6 -36 -23t-51.5 -39.5t-60 -48.5t-60 -50.5t-52.5 -44.5t-37 -31z" />
    <glyph glyph-name="scaron" unicode="&#x161;" horiz-adv-x="692" 
d="M33 72v268q0 48 5 72t12.5 31.5t16 0.5t16 -21.5t12.5 -34t5 -36.5q0 -64 18 -111.5t46 -80.5t63.5 -53t71.5 -27q55 -11 81 -3t31.5 29t-6 52t-34 66.5t-51 72t-57 69t-53 57.5t-37.5 36q-50 43 -80 98t-39.5 113t0.5 113.5t40 99t80.5 70t121.5 26.5q25 0 52 -7.5
t54 -20t52.5 -28.5t48.5 -34q6 -5 13 -9.5t13.5 -5.5t11.5 3t8 17q5 17 10.5 33t15.5 17q8 1 15 -11.5t11 -40.5q4 -33 5 -71t0.5 -72t-1 -60t0.5 -35q3 -42 1 -59.5t-7.5 -18t-13 13t-16 34t-17 44.5t-15.5 45.5t-11.5 36.5t-5.5 17q-18 47 -44.5 80t-57 53t-62.5 28t-62 6
q-64 -3 -93.5 -21t-33.5 -45.5t12.5 -62t45.5 -71.5t65 -73.5t71 -68.5t63.5 -56t41.5 -36q55 -50 95 -106.5t61.5 -109t22.5 -96.5t-22 -69q-31 -35 -61 -63.5t-66.5 -43.5t-83.5 -13.5t-112 27.5q-80 31 -145 97q-17 17 -25.5 20t-13.5 -22q-9 -42 -23 -77t-27.5 -49
t-23.5 1.5t-10 75.5zM361 1044h-3q-5 -4 -10 -5t-8 2q-11 13 -31.5 36t-46 51t-53.5 57.5t-54 55.5t-47 45.5t-32 27.5q-14 17 -16 22.5t14 12.5q10 9 17 10t13 -2.5t10.5 -9.5t9.5 -12q-1 0 6.5 -6.5t18 -17.5t24 -25.5t28 -29.5t29.5 -31.5t26.5 -31t21.5 -26.5t16 -18
q6 -10 14 -19t16 -17q20 14 39.5 26t36.5 30q6 6 17.5 16t26 22t31.5 25t34.5 25.5t33 24.5t28 21t20.5 14t7 5q6 4 12 9.5t13 8t13.5 0t14.5 -12.5q13 -11 19 -21.5t-12 -24.5q-13 -6 -36 -23t-51.5 -39.5t-60 -48.5t-60 -50.5t-52.5 -44.5t-37 -31z" />
    <glyph glyph-name="Ydieresis" unicode="&#x178;" horiz-adv-x="1059" 
d="M443 155l-15 294q-17 124 -32 204.5t-29.5 133t-28.5 84.5t-28 59q-42 84 -79.5 155.5t-57.5 113.5l-12 25.5t-8.5 13t-12 7.5t-22.5 10q-54 23 -68.5 39t-1 26t49 15.5t82.5 7t100 1t100.5 -2.5t84 -3.5t50.5 -1.5q36 0 51 -4t16 -10.5t-8 -14t-20.5 -14t-21.5 -11
l-10 -4.5q-6 -7 -0.5 -33t18 -64t29.5 -84t35.5 -92t36 -89t29.5 -75t23 -23.5t28 46.5q28 62 50.5 126.5t39.5 146.5q10 48 -4 80t-38.5 52t-52 31.5t-45 18t-17.5 12t30 13.5q12 3 31 2.5t41.5 -3.5t48 -7t51.5 -8q31 -5 64 -8.5t60.5 -9t47 -12.5t24.5 -17q8 -16 -3 -20
t-29 -4t-35.5 2t-23.5 -2q-41 -26 -71 -80t-54 -117l-90 -238q-17 -54 -28.5 -94t-19.5 -71.5t-12 -57t-6 -51t-2.5 -53.5t-0.5 -63q0 -87 1.5 -151.5t3.5 -92.5q3 -59 21 -99t40 -66.5t43 -41t30.5 -20.5t1 -6.5t-44.5 1.5q-110 6 -192.5 6.5t-138.5 -0.5t-87 -2t-38 2
q-8 4 10.5 14t44 32t48 57.5t23.5 89.5zM421 1518q31 -13 43 -39t8 -52.5t-21 -46t-43 -19.5q-35 0 -50 13t-18 33.5t4 44t17 44.5q6 11 11.5 16t12.5 6.5t15.5 0.5t20.5 -1zM658 1518q31 -13 43 -39t8 -52.5t-21 -46t-43 -19.5q-35 0 -50 13t-18 33.5t4 44t17 44.5
q6 11 11.5 16t12.5 6.5t15.5 0.5t20.5 -1z" />
    <glyph glyph-name="Zcaron" unicode="&#x17d;" horiz-adv-x="936" 
d="M78 187q7 16 27.5 57.5t49 99.5t63.5 130t71.5 149t73.5 156t69 151.5t58 135.5t41 108q15 44 6.5 65t-34.5 27q-84 22 -144 15t-102 -37.5t-68.5 -80.5t-43.5 -113l-9 -27t-18.5 -54.5t-22.5 -61t-21 -47t-13.5 -12.5t0.5 44q8 71 11 130t3 107t-1 85t1 65q1 19 16 29
t38.5 13t53.5 1.5t62 -4.5l64 -6t59 -3l164 1q67 0 120.5 1.5t92 -2.5t62.5 -15.5t32.5 -36.5t2 -66.5t-28.5 -105.5q-17 -52 -48 -127t-70 -162.5t-83.5 -180.5t-89.5 -180t-87 -162t-77 -127q-33 -49 -43.5 -78.5t-6 -45.5t21 -21t37 -4.5t42 3.5t36.5 3q78 0 137 0.5
t101 18.5t69 62.5t41 132.5q8 54 14.5 111t12.5 102.5t11 73.5t10 23q4 -3 12 -27.5t13 -75.5t4 -131.5t-14 -196.5q-3 -33 -11 -53t-24.5 -32t-44.5 -18t-72 -11q-173 -20 -342.5 -23.5t-341.5 3.5q-13 1 -12.5 22t10.5 53.5t26 72t34 77.5zM489 1397h-3q-5 -4 -10 -5t-8 2
q-11 13 -31.5 36t-46 51t-53.5 57.5t-54 55.5t-47 45.5t-32 27.5q-14 17 -16 22.5t14 12.5q10 9 17 10t13 -2.5t10.5 -9.5t9.5 -12q-1 0 6.5 -6.5t18 -17.5t24 -25.5t28 -29.5t29.5 -31.5t26.5 -31t21.5 -26.5t16 -18q6 -10 14 -19t16 -17q20 14 39.5 26t36.5 30
q6 6 17.5 16t26 22t31.5 25t34.5 25.5t33 24.5t28 21t20.5 14t7 5q6 4 12 9.5t13 8t13.5 0t14.5 -12.5q13 -11 19 -21.5t-12 -24.5q-13 -6 -36 -23t-51.5 -39.5t-60 -48.5t-60 -50.5t-52.5 -44.5t-37 -31z" />
    <glyph glyph-name="zcaron" unicode="&#x17e;" horiz-adv-x="699" 
d="M51 177q18 13 41.5 56.5t49.5 104.5t51 134t45.5 144.5t34 136t16.5 108.5q2 32 12 47t14.5 20t-2.5 3t-39 -5q-23 -2 -46.5 -12t-43.5 -29t-35.5 -46t-22.5 -63q-6 -31 -13.5 -70t-16 -74t-16.5 -59t-16 -25.5t-14.5 25.5t-10.5 95q-3 34 -2.5 77.5t4 84t10.5 71.5
t18 40q10 8 25 11.5t39 5t58.5 1t82.5 -0.5h286q49 0 71 -16t25.5 -43t-7 -61.5t-26.5 -71.5q-23 -53 -62 -122.5t-82.5 -143.5t-87 -147.5t-75.5 -134.5q-17 -32 -31.5 -56t-23.5 -42t-11 -29.5t7 -18.5q16 -12 78 -12q15 0 38.5 0.5t49.5 3.5t54 9t52 18q12 5 23.5 32.5
t22 64.5t20.5 78t18.5 75.5t15 55.5t11.5 18q3 -2 9 -19t9.5 -53t3 -92.5t-10.5 -137.5q-3 -23 -9 -36.5t-19 -21.5t-34.5 -12.5t-54.5 -8.5q-51 -5 -113.5 -8t-120 -5t-101.5 -3t-58 -2q-53 -2 -86 14t-45 41t-2 53.5t43 52.5zM343 1097h-3q-5 -4 -10 -5t-8 2
q-11 13 -31.5 36t-46 51t-53.5 57.5t-54 55.5t-47 45.5t-32 27.5q-14 17 -16 22.5t14 12.5q10 9 17 10t13 -2.5t10.5 -9.5t9.5 -12q-1 0 6.5 -6.5t18 -17.5t24 -25.5t28 -29.5t29.5 -31.5t26.5 -31t21.5 -26.5t16 -18q6 -10 14 -19t16 -17q20 14 39.5 26t36.5 30
q6 6 17.5 16t26 22t31.5 25t34.5 25.5t33 24.5t28 21t20.5 14t7 5q6 4 12 9.5t13 8t13.5 0t14.5 -12.5q13 -11 19 -21.5t-12 -24.5q-13 -6 -36 -23t-51.5 -39.5t-60 -48.5t-60 -50.5t-52.5 -44.5t-37 -31z" />
    <glyph glyph-name="a" unicode="a" horiz-adv-x="834" 
d="M459 570q-54 -39 -91 -92.5t-58 -111t-27 -113.5t1 -99.5t26.5 -68.5t49.5 -21q23 3 46 21t41 57.5t27.5 105t6.5 163.5l-3 150q-2 15 -5 16t-14 -7zM469 104q-41 -47 -88.5 -76.5t-96 -40t-94 -1t-81 39.5t-57.5 82t-23 126q-1 102 50 166q24 31 59.5 54.5t75 42
t80.5 33.5t77 29q30 12 50.5 25.5t33 31.5t17.5 43t4 60q-1 44 -15.5 84t-39.5 71.5t-58.5 51t-71 22t-77 -14t-78.5 -58.5q-11 -12 -14.5 -18.5t-1.5 -10t8.5 -5.5t14.5 -5q35 -15 41 -41t-6 -76q-2 -9 -12.5 -15t-25 -8t-30 1.5t-28 13t-19.5 26.5t-3 43q7 51 33 90
t65 66.5t87.5 45t101 25t105 6t100.5 -10.5q84 -17 124.5 -55.5t54.5 -96t9 -131t-14 -158.5q-5 -55 -12.5 -108t-14 -106t-10.5 -106.5t-2 -108.5q1 -20 3.5 -26t5 -3.5t5 10.5t2.5 17q1 32 9.5 33t18 -12.5t16.5 -33t6 -26.5q-9 -36 -34.5 -52.5t-79.5 -16.5
q-57 0 -88 18.5t-47 60.5q-6 19 -15.5 16.5t-19.5 -13.5z" />
    <glyph glyph-name="b" unicode="b" horiz-adv-x="886" 
d="M305 487q2 -88 24.5 -167t53.5 -134.5t67 -80t66 -2.5t49 97t17 219q-1 69 -8.5 138.5t-21.5 128.5t-33.5 101.5t-44 58t-54 -3t-63.5 -80.5q-55 -101 -52 -275zM9 80q6 25 13 89.5t13.5 152t13 191t11.5 207t8 200.5t3 171t-3.5 118.5t-11.5 43.5q-16 4 -26.5 18
t-12 29.5t8 27.5t33.5 12q110 0 174 -27.5t92.5 -83.5t26.5 -143.5t-26 -207.5q-1 -5 -2 -15.5t0 -18.5t5 -10.5t13 8.5q16 17 36 25t42 10.5t44 2t42 -0.5q75 1 135 -32.5t103 -91.5t69 -135.5t32 -162.5q6 -71 -3 -140t-33 -126.5t-64.5 -100t-98.5 -59.5q-50 -16 -95 -9
t-85.5 30t-75.5 59t-65 78q-18 24 -28 34t-16 4t-10.5 -28.5t-11.5 -63.5q-7 -42 -24 -66t-41.5 -36.5t-56 -17.5t-67.5 -9q-35 -4 -52 -5.5t-21.5 5.5t0 24t12.5 50z" />
    <glyph glyph-name="c" unicode="c" horiz-adv-x="666" 
d="M608 328q-11 -59 -28.5 -120.5t-46 -112t-71 -82.5t-103.5 -32q-96 0 -163.5 49.5t-108.5 130t-58 181t-12 202.5q7 143 41 235.5t84 145t109.5 69t118 8t110.5 -37.5t85.5 -69t44 -85.5t-14.5 -86.5q-22 -36 -42 -50.5t-35 -14.5t-23 10.5t-4.5 26t20 31.5t50.5 26
q7 3 12 8t5 14q-1 18 -7 41.5t-15.5 45t-22.5 39t-27.5 24t-30.5 -1t-31 -34.5q-18 -33 -34 -87t-28.5 -120t-22.5 -139.5t-15.5 -145t-7 -136.5t1.5 -115q1 -14 1.5 -33.5t5 -37t14 -28t27.5 -5.5q29 8 55 31t49 53.5t42 65.5t34 67.5t25.5 58t16 38t6 7.5t-5.5 -34z" />
    </font>
</defs>
</svg>
