<?xml version="1.0" encoding="utf-8"?>
<!-- Generator: Adobe Illustrator 24.0.1, SVG Export Plug-In . SVG Version: 6.00 Build 0)  -->
<svg version="1.1" id="Layer_1" xmlns="http://www.w3.org/2000/svg" xmlns:xlink="http://www.w3.org/1999/xlink" x="0px" y="0px"
	 viewBox="0 0 184.3 128.4" style="enable-background:new 0 0 184.3 128.4;" xml:space="preserve">
<style type="text/css">
	.st0{fill:#8D87C1;stroke:#000000;stroke-width:2;stroke-miterlimit:10;}
	.st1{fill:#FFFFFF;stroke:#000000;stroke-width:2;stroke-miterlimit:10;}
	.st2{stroke:#000000;stroke-width:0.25;stroke-miterlimit:10;}
	.st3{fill:#BFBECC;}
	.st4{fill:#8D87C1;}
	.st5{fill:none;}
	.st6{enable-background:new    ;}
</style>
<path class="st0" d="M141.5,78.2c-0.5,7.9-13,16.8-34.2,20.7c-21.2,3.8-47.8,2.5-40.9-7.1c4.6-6.4,14.6-17.2,35.8-21
	c15.9-3,31.9-12.8,37.8-2.8C141.3,70.3,141.6,76.7,141.5,78.2z"/>
<path class="st1" d="M84.9,89.4L86,58.5c0,0,0.7-13.9,2.5-17.1c1.8-3.2,6.4-11.8,9-12.9c2.6-1,8.9-5.6,12.2-5.1
	c3.4,0.5,11.2,0.3,12.4,1.8c1.2,1.5,5,5.2,5,5.2s-8.4-3.5-10.2-1.6c-1.8,1.9-7.7,3.1-7,4.6c0.8,1.5-3.5,6.1,0.5,15.7
	s16.7,30.8,16.7,30.8l-10.6,8.4c-0.3,0.2-0.6,0.3-0.9,0.4c-10.4,2.8-13.4,2.3-20.4,2.3L84.9,89.4z"/>
<path class="st2" d="M84.2,87.7c0,0,22.6,7.4,39.4-13c0.8-1,2.1,2.2,2.6,3c1,1.6,1.5,3.2,1.5,3.2S111,101.8,83.8,94.2
	c-0.3-0.1,0.3-5.2,0.1-3.6C83.7,92.6,84.2,87.7,84.2,87.7z"/>
<polygon class="st3" points="73.4,68.3 76.9,66.5 76.2,70.4 79,73.1 75.1,73.6 73.4,77.1 71.7,73.6 67.8,73.1 70.6,70.4 70,66.5 "/>
<polygon points="68.7,81.3 71.1,82.3 68.8,83.5 68.5,86.1 66.7,84.3 64.2,84.8 65.3,82.5 64.1,80.3 66.6,80.7 68.3,78.8 "/>
<polygon class="st4" points="123.5,59.3 125.2,60 123.6,60.9 123.4,62.6 122.1,61.4 120.4,61.8 121.1,60.2 120.3,58.6 122,58.9 
	123.2,57.5 "/>
<rect y="54.8" class="st5" width="73.4" height="69"/>
<g class="st6">
	<path d="M34.3,99H16.6L2.7,83.3l13.8-15.8h17.7L20.4,83.3L34.3,99z"/>
	<path d="M56,39.6h13.6L50.4,122H36.8L56,39.6z"/>
</g>
<rect x="147.6" y="54.8" class="st5" width="73.4" height="69"/>
<g class="st6">
	<path d="M164.5,83.3l-13.8-15.8h17.6l13.8,15.8L168.3,99h-17.6L164.5,83.3z"/>
</g>
</svg>
