<?xml version="1.0" encoding="utf-8"?>
<!-- Generator: Adobe Illustrator 24.0.1, SVG Export Plug-In . SVG Version: 6.00 Build 0)  -->
<svg version="1.1" xmlns="http://www.w3.org/2000/svg" xmlns:xlink="http://www.w3.org/1999/xlink" x="0px" y="0px"
	 viewBox="0 0 800 800" style="enable-background:new 0 0 800 800;" xml:space="preserve">
<style type="text/css">
	.st0{fill:#FFFFFF;stroke:#000000;stroke-width:2;}
	.st1{fill:url(#SVGID_1_);}
	.st2{fill:url(#SVGID_2_);}
	.st3{fill:url(#SVGID_3_);}
	.st4{fill:url(#SVGID_4_);}
	.st5{fill:url(#SVGID_5_);}
</style>
<g id="Layer_4">
	<g>
		<path d="M792,8v784H8V8H792 M800,0H0v800h800V0L800,0z"/>
	</g>
</g>
<g id="Layer_1">
	<g>
		<path class="st0" d="M163.3,184.2c-2.4-6.9-6.6-13-12.4-18.5c-3.3-3-7.1-5.8-11.4-8.4c-7.9-4.7-17.3-7.9-28-9.5
			c-5.6-0.8-11.6-1.3-18-1.3c-13.7,0-25.8,2.3-36.4,7c-10.5,4.6-18.8,11-24.7,19.1c-3,4.1-5.4,8.3-7.2,12.5
			c-1.8,4.2-2.9,8.4-3.5,12.7c-0.2,1.7-0.4,3.6-0.6,5.6c-0.1,0.7-0.1,1.5-0.2,2.2v0c-0.2,3-0.4,6.3-0.6,10
			c-0.3,6.2-0.4,13.4-0.4,21.5v70.9c0,2.6,0,5.1,0.1,7.6c0.1,5.4,0.3,10.4,0.6,15.1c0.9,12.8,2.6,23,5.1,30.8
			c3.9,11.8,11.8,21.1,23.8,27.8c9.2,5.2,20.4,8.3,33.4,9.5c0.4,0,0.8,0.1,1.1,0.1c0.1,0,0.1,0,0.2,0c3.5,0.3,7.2,0.4,11,0.4
			c15.8,0,29.4-3.1,40.8-9.4c1.4-0.8,2.8-1.6,4.1-2.5c4.3-2.8,8.1-5.8,11.3-8.9c4.3-4.2,7.7-8.7,10.1-13.5c0.8-1.7,1.6-3.5,2.2-5.2
			c0.3-1,0.6-2,0.9-3.1v0c0.1-0.5,0.3-1,0.4-1.5v0c1-4.1,1.8-9,2.5-14.7c0.3-2.6,0.5-5.3,0.7-8.2c0.5-7.6,0.8-16.2,0.8-26v-9.5
			h-63.1v30.5c0,1.6,0,3.1,0,4.5v0.2c-0.2,10.6-0.9,17.5-2.1,20.6c-1.2,2.9-3.4,4.7-6.8,5.2h0c0,0-0.1,0-0.1,0
			c-0.7,0.1-1.5,0.2-2.3,0.2c-4.9,0-8-1.8-9.4-5.4c-1.2-3.1-1.9-9.4-2.1-18.7c0,0,0,0,0,0v-0.2c0,0,0,0,0,0c0-1.3,0-2.7,0-4.1V217.2
			c0-10.8,0.5-18.3,1.6-22.4c0.1-0.6,0.3-1.1,0.5-1.6c0.3-0.9,0.8-1.7,1.4-2.4c0.2-0.2,0.4-0.4,0.6-0.6c0.1-0.1,0.3-0.2,0.4-0.4
			c1.8-1.4,4.3-2.2,7.5-2.2c4.6,0,7.6,1.5,8.9,4.6c1.3,3,2,10.7,2,23v42.2H169v-23.1C169,211.7,167.1,195,163.3,184.2z"/>
		<path class="st0" d="M335.8,240.8c-0.2-18.9-0.8-32.6-1.8-41c-1.2-10-4.9-19.2-11.2-27.7c-1.7-2.2-3.5-4.3-5.4-6.3
			c-5.4-5.4-11.9-9.7-19.5-12.8c-4.2-1.7-8.5-3.1-13.1-4.1c-6.8-1.5-14.1-2.3-21.9-2.3c-13.7,0-25.7,2.2-36,6.8
			s-18.5,10.9-24.5,19.3c-2.1,2.9-3.9,5.9-5.4,9.1v0c-2.8,5.9-4.6,12.1-5.4,18.7c-0.3,2.8-0.6,6.2-0.8,10.1v0c0,0.1,0,0.2,0,0.2v0
			c-0.1,1.6-0.2,3.2-0.3,5c-0.4,9.5-0.6,21.7-0.6,36.5v41.5c0,6.5,0,12.6,0.1,18.1c0,0.2,0,0.5,0,0.8v0c0,1.1,0,2.1,0.1,3.1
			c0.1,6.8,0.3,12.8,0.6,17.9c0.3,5,0.6,9.2,1,12.6c1.2,10,4.9,19.2,11.2,27.7c6.3,8.5,14.6,14.9,25,19.1c7.6,3.1,16,5.1,25.1,5.9
			c1.6,0.1,3.1,0.2,4.7,0.3c0,0,0.1,0,0.2,0c1.6,0.1,3.3,0.1,5,0.1c3.4,0,6.7-0.2,9.9-0.4c9.7-0.8,18.4-2.9,26.1-6.3
			c1.9-0.8,3.7-1.7,5.4-2.7c7.8-4.2,14.2-9.8,19.1-16.7c1.8-2.5,3.3-5,4.7-7.6c0.1-0.2,0.2-0.5,0.4-0.7c3-6.1,5-12.6,5.8-19.5
			c0.2-1.5,0.3-3,0.5-4.8c0.2-2.1,0.3-4.5,0.5-7c0.5-10,0.8-23.3,0.8-40v-41.5C335.8,248.3,335.8,244.4,335.8,240.8z M272.7,325.6
			c0,1.9,0,3.8,0,5.5c-0.1,11.1-0.7,18.4-1.8,21.6c-0.4,1.2-0.9,2.2-1.6,3c0,0,0,0.1-0.1,0.1c-1.5,1.7-3.7,2.5-6.5,2.5
			c-4.2,0-6.9-1.6-8-4.9c-1-2.9-1.6-10.1-1.7-21.4v-0.1c0-1.4,0-2.8,0-4.3V214.1c0-3.9,0.1-7.4,0.3-10.3v0
			c0.4-6.4,1.2-10.5,2.4-12.2c0.2-0.2,0.3-0.5,0.5-0.7c1.5-1.9,3.6-2.9,6.2-3.1c0.1,0,0.1,0,0.2,0h0c0.2,0,0.4,0,0.7,0
			c3.9,0,6.5,1.6,7.7,4.7c1.2,2.9,1.8,9.5,1.9,19.6c0,0.3,0,0.5,0,0.8c0,0.4,0,0.8,0,1.3V325.6z"/>
		<path class="st0" d="M422.5,345.8V151.7h-63.1v242.7h101.5v-48.6H422.5z"/>
		<path class="st0" d="M614.5,206.2L614.5,206.2c0-0.3,0-0.6-0.1-1v0c-0.2-2-0.3-3.8-0.5-5.4c-0.6-5.3-2-10.4-4-15.2
			c0-0.1,0-0.1-0.1-0.2c-1.8-4.3-4.2-8.4-7.1-12.4c-6.3-8.5-14.6-14.9-25-19.1c-10.3-4.2-22-6.4-35-6.4c-6.9,0-13.4,0.6-19.4,1.7
			c-5.9,1.1-11.4,2.8-16.5,5c-7.3,3.2-13.5,7.3-18.6,12.4c-2.1,2.1-4.1,4.4-5.9,6.9c-6,8.4-9.6,17.7-10.8,27.8
			c-1,8.5-1.5,21.9-1.7,40.3c0,3.6-0.1,7.5-0.1,11.5v41.5c0,16.6,0.3,30,0.8,40c0.1,2.6,0.3,4.9,0.5,7c0.2,2,0.3,3.9,0.5,5.5
			c0.8,6.6,2.7,12.9,5.7,18.8c0.1,0.2,0.2,0.5,0.4,0.7c1.5,2.8,3.2,5.5,5.2,8.2c6.3,8.5,14.6,14.9,25,19.1
			c5.7,2.3,11.9,4.1,18.5,5.1h0c2.2,0.3,4.4,0.6,6.6,0.8c3.2,0.3,6.5,0.4,9.9,0.4c3.4,0,6.7-0.2,9.9-0.4c9.7-0.8,18.4-2.9,26.1-6.3
			c10.3-4.5,18.5-10.9,24.5-19.3c4.7-6.5,7.9-13.5,9.6-21c0,0,0-0.1,0-0.2c0.5-2.2,0.9-4.4,1.1-6.6c0.4-3.2,0.7-7.2,0.9-11.9
			c0.4-7.1,0.6-15.8,0.7-26.2v-0.2c0-4.2,0.1-8.7,0.1-13.5v-41.5C615.7,231.9,615.3,216.6,614.5,206.2z M552.6,325.6
			c0,2,0,3.8,0,5.6c-0.2,11.1-0.7,18.3-1.8,21.5c-1.2,3.8-4,5.7-8.2,5.7c-4.2,0-6.9-1.6-8-4.9c-1-2.9-1.6-10.2-1.7-21.7
			c0-1.4,0-2.9,0-4.4V214.1c0-12.5,0.9-20,2.6-22.6c1.7-2.6,4.3-3.8,7.6-3.8c1.2,0,2.3,0.1,3.2,0.5c1.5,0.5,2.8,1.4,3.6,2.7
			c0.3,0.5,0.6,1,0.8,1.6c1.2,3.1,1.9,10.4,1.9,21.7V325.6z"/>
		<path class="st0" d="M777.9,292.1c-0.1-0.3-0.2-0.6-0.3-0.9c-0.1-0.1-0.1-0.3-0.2-0.4c-1.4-3.3-3.7-6.9-6.8-10.6
			c-4.3-5.2-12.7-9.3-25.2-12.4c13.8-1.3,23-5.2,27.7-11.7c2.3-3.2,4.1-8,5.2-14.2c0.1-0.4,0.1-0.8,0.2-1.1
			c1.1-6.2,1.6-13.7,1.6-22.7c0-10.4-0.8-19.4-2.5-26.9c0-0.1,0-0.2,0-0.2c-1.7-7.4-4.1-13.4-7.4-18c-6.6-9.4-15.2-15.3-25.8-17.6
			c-8.6-1.9-23.8-3-45.3-3.3c-4.7-0.1-9.8-0.1-15.2-0.1h-44.7v242.7h63.1V285c8.7,0,14.1,1.5,16.1,4.6c0.6,0.9,1.1,2.2,1.5,3.9
			c0.1,0.2,0.1,0.4,0.1,0.6c0.9,4.2,1.4,10.8,1.4,19.6v80.7h58.6v-64c0-19.6-0.5-31.5-1.6-35.9C778.4,293.7,778.2,292.9,777.9,292.1
			z M702.3,193.2c7.2,0,12.2,1.2,15,3.5c0,0,0.1,0.1,0.1,0.1c0.2,0.1,0.3,0.3,0.4,0.4c2.5,2.5,3.7,7.4,3.7,14.7v13.3
			c0,10.7-1.4,17-4.3,19c-2.9,2-7.8,2.9-14.9,2.9V193.2z"/>
	</g>
	<g>
		<path class="st0" d="M105.9,510.9H169v-23.1c0-3.4,0-6.7-0.1-9.8c0-0.1,0-0.2,0-0.3c-0.2-6.7-0.6-12.7-1.1-18.2
			c-0.1-1.4-0.3-2.8-0.5-4.1c0-0.1,0-0.1,0-0.2c0,0,0,0,0-0.1v0c0-0.1,0-0.1,0-0.2c-0.9-6.9-2.2-12.7-3.9-17.3
			c-2.6-7.2-7-13.7-13.4-19.3c-3-2.7-6.5-5.2-10.4-7.5c-12.1-7.2-27.4-10.8-46-10.8c-3.5,0-6.8,0.2-10.1,0.5c-0.1,0-0.1,0-0.2,0
			c-0.1,0-0.1,0-0.2,0c-9.5,0.9-18.1,3.1-25.9,6.5c-5.1,2.3-9.7,4.9-13.7,8c-4.3,3.2-8,6.9-11,11.1c-3.3,4.5-5.9,9.1-7.7,13.9
			c-1.5,3.7-2.5,7.5-3,11.4c-0.2,1.8-0.5,3.8-0.7,6c-0.8,8.4-1.1,19.5-1.1,33.4v70.9c0,23.8,2,41.6,5.8,53.4
			c3.4,10.2,9.8,18.5,19.2,24.9c1.5,1,3,2,4.7,2.9c3.1,1.7,6.3,3.2,9.8,4.5c3.2,1.2,6.5,2.1,10,2.9c0.2,0.1,0.4,0.1,0.6,0.2
			c7.6,1.7,16,2.5,25.3,2.5c17.8,0,32.8-4,44.9-11.9c2.7-1.8,5.2-3.6,7.5-5.5c7.9-6.6,13.2-13.9,16-22c0,0,0-0.1,0-0.1
			c3.5-10.5,5.3-28.3,5.3-53.4v-9.5h-63.1v30.5c0,3.3,0,6.3-0.1,9c-0.3,8.2-1,13.7-2,16.4c-1.4,3.6-4.5,5.4-9.2,5.4
			c-4.9,0-8-1.8-9.4-5.4c-0.3-0.7-0.5-1.6-0.8-2.6c-0.9-4.2-1.3-11-1.3-20.5V470.7c0-3.7,0.1-7,0.2-9.9c0.3-6.8,0.9-11.5,1.9-14.1
			c0.9-2.4,2.7-4.1,5.2-4.9c0.1,0,0.3-0.1,0.4-0.1c1.2-0.3,2.6-0.5,4.2-0.5c4.6,0,7.6,1.5,8.9,4.6c1,2.1,1.6,6.6,1.8,13.4
			c0.1,1.8,0.1,3.8,0.2,5.9c0,1.2,0,2.4,0,3.6V510.9z"/>
		<path class="st0" d="M335.1,466.3L335.1,466.3c0-0.2,0-0.4,0-0.6c0-0.2,0-0.4,0-0.6c0-0.2,0-0.5,0-0.7c0-0.1,0-0.2,0-0.3
			c-0.1-1.2-0.2-2.4-0.2-3.5c-0.2-2.7-0.4-5.1-0.7-7.2c-1.2-10-4.9-19.2-11.2-27.7c-6.3-8.5-14.6-14.9-25-19.1
			c-7.6-3.1-16-5.1-25.1-5.9c-3.2-0.3-6.5-0.4-9.9-0.4c-1.9,0-3.7,0-5.5,0.1c-0.1,0-0.1,0-0.2,0c-1.4,0.1-2.8,0.2-4.2,0.3
			c-9.7,0.8-18.4,3-26.1,6.3c-5.1,2.2-9.8,5-13.8,8.2c-4.1,3.2-7.6,6.9-10.7,11.1c-3.2,4.4-5.6,9-7.5,13.9
			c-1.7,4.4-2.8,9.1-3.3,13.9c-0.2,1.9-0.4,4-0.6,6.4c-0.8,10.4-1.1,25.5-1.1,45.4v41.5c0,25,0.6,42.5,1.8,52.5
			c1.2,10,4.9,19.2,11.2,27.7c3.6,4.9,7.9,9.1,12.9,12.6c3.7,2.6,7.7,4.8,12.1,6.6c1.6,0.6,3.2,1.2,4.8,1.8
			c3.4,1.1,6.9,2.1,10.6,2.8c0.2,0,0.3,0.1,0.5,0.1h0c6,1.2,12.4,1.7,19.1,1.7c13.7,0,25.7-2.2,36-6.8c8.2-3.6,15-8.4,20.5-14.4
			c1.4-1.6,2.8-3.2,4-5c4.7-6.5,7.9-13.5,9.6-21c0.5-2.2,0.9-4.5,1.2-6.8c0.8-7.4,1.4-18.7,1.6-33.8V565c0-0.2,0-0.3,0-0.5v-0.3
			c0.1-5.2,0.1-10.8,0.1-16.8v-41.5C335.8,489.4,335.6,476.3,335.1,466.3z M272.7,579.1c0,4.1,0,7.7-0.1,11
			c-0.2,8.1-0.8,13.4-1.7,16.2c-1.2,3.8-4,5.7-8.2,5.7c-3.5,0-5.9-1.1-7.3-3.3c-0.3-0.5-0.6-1-0.8-1.6c-1.1-3.3-1.7-12-1.7-26.1
			V467.6c0-2.9,0-5.5,0.1-7.9c0.3-7.8,1.1-12.7,2.5-14.6c1.8-2.6,4.3-3.8,7.6-3.8h0.1c0.2,0,0.3,0,0.5,0c3.6,0.1,6,1.7,7.2,4.7
			c0.8,1.9,1.3,5.4,1.6,10.5v0c0,0.3,0,0.6,0,0.9v0c0,0.4,0,0.8,0.1,1.2c0.1,2.7,0.2,5.7,0.2,9.1V579.1z"/>
		<path class="st0" d="M422.5,599.4V405.2h-63.1v242.7h101.5v-48.6H422.5z"/>
		<path class="st0" d="M615.6,490.1c0-4.2-0.1-8.1-0.2-11.7v0c0-0.2,0-0.5,0-0.8v0c-0.2-6.7-0.5-12.4-0.8-17.2v0
			c-0.2-2.7-0.4-5.1-0.7-7.1c-0.2-1.6-0.4-3.2-0.8-4.7c-0.1-0.4-0.2-0.9-0.3-1.3v0c-1.8-7.7-5.2-15-10.2-21.7
			c-2-2.7-4.3-5.2-6.7-7.5c-0.3-0.3-0.7-0.6-1-0.9l0,0c-0.4-0.3-0.8-0.7-1.2-1c-0.4-0.4-0.9-0.7-1.3-1.1c-4.3-3.5-9.3-6.3-14.8-8.6
			c-7.6-3.1-16-5.1-25.1-5.9c-3.2-0.3-6.5-0.4-9.9-0.4c-3.4,0-6.7,0.1-9.9,0.4c-1.7,0.1-3.3,0.3-5,0.6c-7.7,1.1-14.7,3-21.1,5.8
			c-1.1,0.5-2.3,1-3.3,1.6c-8.7,4.4-15.8,10.3-21.2,17.8c-6,8.4-9.6,17.7-10.8,27.8c-0.2,1.9-0.4,4.1-0.6,6.5
			c-0.1,1.4-0.2,2.9-0.3,4.5c-0.4,6.8-0.6,15.1-0.8,25c-0.1,4.9-0.1,10.1-0.1,15.7v41.5c0,6.4,0,12.3,0.1,17.8
			c0.1,10,0.4,18.3,0.8,25c0.2,3.8,0.5,7,0.8,9.7c0.6,5.3,2,10.4,4.1,15.3c1.8,4.3,4.2,8.5,7.2,12.4c3.7,5,8.1,9.3,13.2,12.8
			c3.6,2.5,7.5,4.6,11.7,6.3c3.5,1.4,7.2,2.6,11,3.6c0,0,0.1,0,0.1,0c7.4,1.8,15.4,2.8,23.9,2.8c13.7,0,25.7-2.2,36-6.8
			c0.4-0.2,0.7-0.3,1.1-0.5c1.6-0.7,3.1-1.5,4.6-2.3c0.1-0.1,0.2-0.1,0.4-0.2c7.5-4.2,13.7-9.7,18.5-16.4c2.7-3.8,5-7.7,6.7-11.8
			c2.1-5.1,3.5-10.4,4.1-16c0.3-2.6,0.5-5.6,0.8-9c0.2-3.4,0.4-7.2,0.5-11.5c0-0.1,0-0.2,0-0.2v0c0.2-7.3,0.4-15.9,0.4-25.8v-0.2
			c0-1.6,0-3.3,0-5v-41.5C615.7,500.2,615.7,495,615.6,490.1z M552.6,579.1c0,14.3-0.6,23.3-1.8,27.1s-4,5.7-8.2,5.7
			c-4.2,0-6.9-1.6-8-4.9c-1.1-3.3-1.7-12-1.7-26.1V467.6c0-2.9,0-5.6,0.2-7.9c0.3-7.8,1.1-12.7,2.5-14.6c1.7-2.6,4.3-3.8,7.6-3.8
			c3.9,0,6.5,1.6,7.7,4.7c0.9,2.2,1.4,6.4,1.7,12.6c0.1,2.6,0.2,5.6,0.2,9V579.1z"/>
		<path class="st0" d="M770.6,533.7c-2.3-2.8-5.7-5.2-10.3-7.4c-0.2-0.1-0.5-0.2-0.7-0.3c-3.9-1.8-8.7-3.4-14.2-4.8
			c8.3-0.8,14.9-2.5,19.9-5.2c0.2-0.1,0.5-0.2,0.7-0.4c0,0,0.1,0,0.1,0c0.2-0.1,0.3-0.2,0.5-0.3c0.2-0.1,0.3-0.2,0.5-0.3
			c2.5-1.6,4.5-3.4,6.1-5.5c2.4-3.3,4.2-8.2,5.3-14.7v0c0-0.2,0.1-0.3,0.1-0.5c0.1-0.5,0.2-1.1,0.3-1.7c0-0.1,0-0.3,0.1-0.4
			c0.2-1.2,0.4-2.5,0.5-3.9c0-0.4,0.1-0.8,0.1-1.3c0.5-4.6,0.7-9.9,0.7-15.7c0-20.7-3.3-35.8-10-45.2c-2-2.8-4.1-5.3-6.5-7.5
			c-1.5-1.4-3-2.6-4.6-3.7c-4.4-3.1-9.3-5.2-14.8-6.4c-8-1.7-21.4-2.8-40.3-3.2c-6.2-0.1-12.9-0.2-20.2-0.2h-44.7v242.7h63.1V538.5
			c5.1,0,9,0.5,11.9,1.6c2,0.8,3.4,1.8,4.3,3c2,3.1,3.1,11.1,3.1,24.1v80.6h58.6v-64c0-19.6-0.5-31.5-1.6-35.9
			C777.5,543.7,774.8,538.9,770.6,533.7z M702.3,500.7v-54c7.3,0,12.3,1.2,15.1,3.6c2.8,2.4,4.1,7.4,4.1,15.1v13.3
			c0,10.7-1.4,17-4.3,19C714.4,499.7,709.5,500.7,702.3,500.7z"/>
	</g>
	<g>
		<path class="st0" d="M169,679.5v-5.4c0-3.7-0.9-6.7-2.8-9c-0.3-0.4-0.6-0.8-1-1.1c0,0-0.1,0-0.1-0.1c-0.6-0.5-1.2-1-1.9-1.5
			c-0.1-0.1-0.2-0.1-0.3-0.2c-3.9-2.4-11.8-4.5-23.6-6.1c-12.1-1.7-27.4-2.5-46-2.5c-7.6,0-14.7,0.2-21.4,0.5c-0.2,0-0.3,0-0.5,0h0
			c-5.1,0.3-9.9,0.6-14.5,1.1c-0.8,0.1-1.6,0.2-2.4,0.3h0c-9.4,1-16.8,2.5-22.3,4.2c-5.4,1.7-8.9,3.5-10.3,5.4
			c-0.1,0.2-0.3,0.3-0.4,0.5c-1.2,2-1.8,5.1-1.8,9.2v16.5c0,5.5,2,9.7,5.8,12.4c3.9,2.8,11.8,4.9,23.8,6.5c7.6,1,16.6,1.7,26.9,2
			c0.2,0,0.4,0,0.5,0h0c0.8,0,1.6,0.1,2.5,0.1c0.2,0,0.3,0,0.5,0h0c4.8,0.1,9.9,0.2,15.3,0.2c17.1,0,31.6-0.8,43.5-2.6
			c0.1,0,0.1,0,0.1,0c0.4,0,0.8-0.1,1.3-0.2c8.3-1.3,14.6-2.7,18.8-4.2c0,0,0.1,0,0.1,0c0,0,0,0,0,0c1.9-0.7,3.5-1.4,4.6-2.2
			c3.5-2.4,5.3-6.6,5.3-12.4v-2.2h-63.1v7.1c0,3.1-0.7,5.1-2.2,5.9c-1.4,0.8-4.5,1.3-9.2,1.3c-4.1,0-7-0.3-8.6-0.9
			c-0.2,0-0.3-0.1-0.4-0.2c-0.1-0.1-0.3-0.1-0.4-0.2c-1.4-0.8-2.1-2.6-2.1-5.4v-26.2c0-2.9,0.7-4.7,2.1-5.6c1.4-0.9,4.7-1.3,9.9-1.3
			c4.6,0,7.6,0.4,8.9,1.1c1.3,0.7,2,2.5,2,5.4v9.8H169z"/>
		<path class="st0" d="M335.3,670.5c0-0.1,0-0.2,0-0.2v0c0-0.3-0.1-0.6-0.2-0.9v0c0-0.1,0-0.1,0-0.2v0c-0.3-1.2-0.6-2.2-1-3.1
			c-1.2-2.3-4.9-4.5-11.2-6.5c-6.3-2-14.6-3.5-25-4.4c-10.3-1-22-1.5-35-1.5c-6.2,0-12.1,0.1-17.6,0.3c-0.2,0-0.3,0-0.5,0
			c-5.7,0.2-11.1,0.6-16,1c-0.6,0.1-1.3,0.1-1.9,0.2c-10.3,1.1-18.5,2.6-24.5,4.5c-5.1,1.6-8.4,3.4-10,5.4c-0.3,0.4-0.6,0.7-0.8,1.1
			c-1.2,2.4-1.7,6.4-1.7,12.1v9.7c0,5.8,0.6,9.9,1.8,12.2c1.2,2.3,4.9,4.5,11.2,6.5c6.3,2,14.6,3.5,25,4.5c6.8,0.6,14.1,1.1,22,1.3
			c0.2,0,0.3,0,0.5,0c0.8,0,1.6,0,2.4,0.1h0c0.2,0,0.3,0,0.4,0c3.1,0.1,6.4,0.1,9.7,0.1c13.7,0,25.7-0.5,36-1.6
			c4.9-0.5,9.4-1.1,13.3-1.8h0c0.3-0.1,0.6-0.1,1-0.2c3.9-0.7,7.3-1.6,10.2-2.5c3.1-1,5.5-2,7.3-3.1c0.2-0.1,0.4-0.3,0.6-0.4
			c1.4-1,2.4-1.9,2.9-3c1.2-2.4,1.7-6.4,1.7-12.1v-9.7C335.8,675.2,335.7,672.6,335.3,670.5z M272.7,695.4c0,3.3-0.6,5.4-1.8,6.3
			c-1.2,0.9-4,1.3-8.2,1.3c-1.5,0-2.8,0-4-0.1c-0.1,0-0.3,0-0.4,0c-1.7-0.2-3-0.5-3.6-1c-1.1-0.8-1.7-2.8-1.7-6.1v-26.4
			c0-0.4,0-0.8,0-1.2v0c0-0.2,0-0.4,0.1-0.7c0.3-1.8,1.1-3,2.5-3.4c1.8-0.6,4.3-0.9,7.6-0.9c3.9,0,6.5,0.4,7.7,1.1
			c1.2,0.7,1.9,2.4,1.9,5V695.4z"/>
		<path class="st0" d="M422.5,700.1v-45.2h-63.1v56.5h101.5v-11.3H422.5z"/>
		<path class="st0" d="M613.9,666.1c-1.2-2.3-4.9-4.5-11.2-6.5c-2.9-0.9-6.2-1.7-9.9-2.4c-0.2,0-0.3-0.1-0.5-0.1h0
			c-4.3-0.8-9.1-1.4-14.5-1.9c-1.1-0.1-2.1-0.2-3.2-0.3h0c-9.5-0.8-20.1-1.2-31.8-1.2c-9.6,0-18.4,0.3-26.3,0.8h-0.1
			c-3.3,0.2-6.5,0.5-9.5,0.8c-0.7,0.1-1.3,0.1-2,0.2c-9.3,1-16.8,2.5-22.5,4.3c-6,2-9.6,4.1-10.8,6.5c-1.1,2.4-1.7,6.4-1.7,12.1v9.7
			c0,0.7,0,1.5,0,2.1c0.1,4.7,0.7,8,1.8,10.1c1.2,2.3,5,4.5,11.2,6.5c1,0.3,2,0.6,3,0.9c0,0,0.1,0,0.1,0c5.8,1.5,13.1,2.7,21.8,3.5
			h0c0,0,0.1,0,0.1,0c10.3,1,21.9,1.5,34.8,1.5c13.7,0,25.7-0.5,36-1.6c5.5-0.6,10.5-1.3,14.8-2.1c0.1,0,0.3,0,0.4-0.1
			c2.8-0.5,5.4-1.2,7.6-1.8h0c0.2,0,0.4-0.1,0.5-0.2c0.4-0.1,0.8-0.2,1.2-0.4c6-1.9,9.7-4.1,10.8-6.5c1-2,1.6-5.4,1.7-9.9
			c0-0.7,0-1.4,0-2.1v-9.7C615.7,672.5,615.1,668.4,613.9,666.1z M552.6,695.4c0,3.3-0.6,5.4-1.8,6.3c-1.2,0.9-4,1.3-8.2,1.3
			c-4.2,0-6.9-0.4-8-1.1c-1.1-0.8-1.7-2.8-1.7-6.1v-26.4c0-1.9,0.4-3.4,1.2-4.3c0.4-0.5,0.9-0.8,1.5-1c1.7-0.6,4.3-0.9,7.6-0.9
			c3.9,0,6.5,0.4,7.7,1.1c0.3,0.2,0.6,0.4,0.9,0.8c0.7,0.9,1,2.3,1,4.3V695.4z"/>
		<path class="st0" d="M778.6,688.1c-1-1-3.7-2.1-8-3.3c-3.6-1-10.2-1.9-19.7-2.6c-0.3,0-0.6,0-0.9-0.1c-1.5-0.1-3-0.2-4.5-0.3
			c1.5,0,2.9-0.1,4.3-0.1c0.3,0,0.6,0,0.8,0c11-0.4,18.5-1.3,22.6-2.6c1.1-0.4,2.1-0.8,3-1.4c0.2-0.1,0.4-0.3,0.6-0.4
			c2.3-1.7,3.4-4,3.4-7.1c0-4.8-3.3-8.3-10-10.5c-1.4-0.5-2.8-0.9-4.3-1.2c-0.3-0.1-0.7-0.2-1-0.2c-5.4-1.3-11.9-2.1-19.3-2.5
			c-0.4,0-0.7,0-1.1-0.1c-9.8-0.5-28-0.8-54.6-0.8h0c-0.3,0-0.6,0-0.9,0h-49.7v56.5h63.1v-25.5c8.7,0,14.1,0.4,16.1,1.1
			c2,0.7,3.1,2.6,3.1,5.6v18.8h58.6v-14.9c0-0.4,0-0.7,0-1.1C780.1,691.5,779.5,689,778.6,688.1z M721.5,672c0,2.5-1.4,4-4.3,4.4
			c-2.9,0.5-7.8,0.7-14.9,0.7v-12.6c6,0,10.5,0.2,13.4,0.6c0.6,0.1,1.2,0.2,1.6,0.3c2.8,0.6,4.1,1.7,4.1,3.5V672z"/>
	</g>
	<g>
		<g>
			<linearGradient id="SVGID_1_" gradientUnits="userSpaceOnUse" x1="16.8499" y1="394.3918" x2="222.8716" y2="394.3918">
				<stop  offset="0" style="stop-color:#00FFFF"/>
				<stop  offset="0.4967" style="stop-color:#FF00FF"/>
				<stop  offset="1" style="stop-color:#F9FF00"/>
			</linearGradient>
			<path class="st1" d="M222.7,344.5c0-0.2,0-0.4,0.1-0.6c0,0,0,0,0,0c0.2-2.2,0.2-4.4,0-6.4c-0.2-2.4-0.7-4.7-1.4-6.9
				c-2.9-9.6-9.7-17.7-17.1-24c-3.3-2.8-7.1-5.5-11.4-8.2c-11.3-6.9-25.7-13.3-41.6-18.8c-19.2-6.7-37.3-10.5-53.6-11.3
				c-0.1,0-0.1,0-0.2,0c-0.1,0-0.2,0-0.4,0c-0.1,0-0.1,0-0.2,0c0,0,0,0,0,0c-2.2-0.1-4.3-0.2-6.5-0.2c-3.6,0-6.9,0.2-10,0.5
				c-8.7,0.9-15.7,3.1-22.4,6.5c-7.8,4-14.9,9.2-21.2,15.7c-1,1-2,2.1-3,3.2c-6,7-10.9,14.3-13.3,21.8c-0.4,1.2-0.7,2.3-0.9,3.5
				c-0.7,3.3-1.2,7.1-1.7,11.6c-0.7,7.6-1.2,16.8-1.2,27.8c0,23.6,0,47.3,0,70.9c0,3.7,0.1,7.2,0.2,10.5c0.2,6.2,0.6,12,1.2,17.2
				c1.1,10.2,2.8,18.4,4.9,24.8c4,11.4,11.6,20.2,23.4,27.2c2.9,1.7,6,3.3,9.3,4.7c4.3,1.8,8.9,3.3,13.9,4.4c0.2,0,0.3,0.1,0.5,0.1
				c1.3,0.3,2.7,0.6,4.1,0.8c0,0,0,0,0,0c0,0,0.1,0,0.1,0c0,0,0,0,0,0c1.8,0.3,3.7,0.6,5.6,0.8c3.9,0.5,8.1,0.7,12.3,0.7
				c16.3,0.1,29.5-4.7,39.8-14.4c1-0.9,1.9-1.8,2.8-2.8c4.2-4.5,7.9-9.1,11.1-13.9c0,0,0.1-0.1,0.1-0.1c5-7.5,9-15.3,12.4-23.2
				c1.3-3,2.7-6.5,4.3-10.2c0,0,0,0,0,0c0-0.1,0.1-0.1,0.1-0.2c1.9-4.4,4-9.4,6.6-14.6c1-2,2-4,3.1-6.1c0,0,0,0,0,0
				c0-0.1,0.1-0.2,0.1-0.2c0,0,0.1-0.1,0.1-0.1c0-0.1,0.1-0.2,0.1-0.3c0,0,0,0,0,0c4.1-7.7,9-16,14.7-24.7c1.9-2.9,3.8-5.7,5.6-8.5
				c-20.3,0.6-42.2,1.9-66.1,4c-4.1,9.5-8.4,19.3-12.2,29.8c-1.4,3.9-2.7,7.5-3.8,10.7c-0.8,2.3-1.6,4.5-2.3,6.4
				c-1.7,4.8-3.1,8.3-4.3,10.5c-2.1,3.8-5.1,6.2-9,6.9c-0.2,0-0.4,0.1-0.5,0.1c-0.2,0-0.5,0.1-0.7,0.1c-4.8,0.5-7.6-1.2-8.1-5
				c-0.4-2.7,0-7.6,1.4-14.5c0.6-3,1.5-6.3,2.5-9.9c11.1-38.7,26.6-71.2,23.5-105.1c-0.1-1.3-0.3-2.6-0.4-3.8c0,0,0,0,0,0
				c0-0.1,0-0.1,0-0.2c0,0,0,0,0,0c-1-8.8-2.1-14.9-1.5-17.8c0.7-3.4,4.2-5.1,11.1-5.1c1,0,2,0.1,3,0.1c0.1,0,0.1,0,0.2,0
				c0,0,0,0,0,0c4.5,0.5,8,1.8,10.4,4.1c1.7,1.6,3.8,4.6,5.5,8.9c0,0,0,0,0,0c0,0.1,0.1,0.1,0.1,0.2c0,0,0,0,0,0
				c0.9,2.2,1.7,4.7,2.3,7.5c0,0.1,0,0.1,0,0.2c0.2,1.2,0.5,2.4,0.6,3.7c1.6,12.3-0.2,24.4-3.8,36.6c26.8-1.2,51.2-1.6,73.8-1.6
				c3.3-6.2,5.9-12.3,7.3-18.5C222.2,347.8,222.5,346.1,222.7,344.5z"/>
			<linearGradient id="SVGID_2_" gradientUnits="userSpaceOnUse" x1="185.8061" y1="394.3914" x2="384.1465" y2="394.3914">
				<stop  offset="0" style="stop-color:#00FFFF"/>
				<stop  offset="0.4967" style="stop-color:#FF00FF"/>
				<stop  offset="1" style="stop-color:#F9FF00"/>
			</linearGradient>
			<path class="st2" d="M371.5,367.9C371.5,367.9,371.5,367.9,371.5,367.9c1.2-1.4,2.3-2.8,3.3-4.1c0,0,0,0,0,0
				c4.2-5.7,6.8-11,8.1-15.8c0.6-2.1,0.9-4.1,1.1-6c0.4-4.4-0.2-8.3-1.1-11.5c-2.7-9.5-11.4-19.6-25.9-29.7
				c-14.5-10.1-32.7-18.6-50.3-24.3c-12.7-4.1-24.7-6.8-35.1-7.9c-0.1,0-0.2,0-0.2,0c-0.1,0-0.2,0-0.3,0c-0.1,0-0.1,0-0.2,0
				c-0.1,0-0.2,0-0.3,0c-3.8-0.4-7.4-0.6-10.8-0.6c-3.4,0-6.4,0.2-9.1,0.5c-8,1.1-12.5,3.7-14.6,7.6c-2.4,4.5-1.6,10.4,0.2,17.3
				c0.3,1.1,0.6,2.1,0.9,3.2c1.9,6.6,4.1,13.4,6.1,20.3c0.5,1.8,1,3.5,1.5,5.3c0.8,2.8,1.6,6.2,1.9,10.1c0.8,8.4-0.8,19-8.1,32
				c-6.1,11.1-15.2,22.3-24.3,34.4c-5.8,7.7-10.9,15-14.9,21.8c-4.6,7.8-7.9,14.8-10,20.6c-1,2.9-1.8,5.6-2.4,7.9
				c-2.7,11.2-1.2,22.6,4.9,34c6.1,11.4,16.3,21,28.7,27.6c0.6,0.3,1.3,0.7,1.9,1c6.1,3.1,12.6,5.5,19.1,7c0.2,0,0.3,0.1,0.5,0.1
				c1.9,0.5,3.9,0.8,5.8,1.2c0.1,0,0.1,0,0.2,0c0.5,0.1,1,0.2,1.5,0.2c3.5,0.5,6.9,0.7,10.3,0.7c3.4,0,6.6-0.2,9.5-0.7
				c8.8-1.4,15.2-4.9,19.5-10.2c5.6-6.9,7.6-16.4,9-27.2c0-0.2,0-0.4,0.1-0.5c0-0.1,0-0.2,0-0.3c1.4-10.8,2.7-21.4,5.2-31.7
				c0-0.2,0.1-0.3,0.1-0.5c0.1-0.5,0.2-0.9,0.4-1.5c0,0,0,0,0,0c0-0.1,0.1-0.3,0.1-0.5c0.4-1.5,0.9-3,1.5-4.6
				c3.4-10.3,11.7-23.8,27.5-38.6c11.2-10.8,23.8-20.7,33.8-31C368.3,371.6,370,369.7,371.5,367.9z M263.4,427.3
				c-2,3.4-3.7,6.6-5.1,9.5c0,0,0,0,0,0c-0.1,0.3-0.3,0.5-0.4,0.8c-0.2,0.4-0.3,0.7-0.5,1.1c-3.5,7.9-4.9,13.9-6.1,16.9
				c-1.6,4.4-4,6.7-7.5,6.7c-3.5,0-5.6-2.1-5.9-5.9c-0.2-2.7,0.4-8.6,3.5-16.7c1.3-3.3,3-7.1,5.3-11.1
				c21.1-36.8,64.3-59.9,63.9-91.3c0-1-0.1-1.9-0.1-2.8c0,0,0-0.1,0-0.1c-0.1-1.2-0.2-2.3-0.4-3.4c0-0.1,0-0.1,0-0.2
				c-1.1-6.8-3.1-11.4-2.8-13.2c0.4-2.3,2-3.4,5.2-3.2c3.8,0.2,7.4,1.9,10.1,5c2.3,2.6,5.7,8.1,6.4,15.7c0.1,1.2,0.2,2.4,0.1,3.7
				C328.3,369.7,284.6,392,263.4,427.3z"/>
			<linearGradient id="SVGID_3_" gradientUnits="userSpaceOnUse" x1="322.9847" y1="394.4812" x2="456.3697" y2="394.4812">
				<stop  offset="0" style="stop-color:#00FFFF"/>
				<stop  offset="0.4967" style="stop-color:#FF00FF"/>
				<stop  offset="1" style="stop-color:#F9FF00"/>
			</linearGradient>
			<path class="st3" d="M374.3,454.9c-3.4-63.4,142.7-80.3,52.8-179c-20.5-0.1-41.1-0.3-61.8-0.5c133.1,115.9-121.4,112.2-16,237.4
				c32.9,0.2,66,0.5,99.4,0.8c-27.6-22.6-39.7-40.7-42-56C395.6,456.7,384.8,455.8,374.3,454.9z"/>
			<linearGradient id="SVGID_4_" gradientUnits="userSpaceOnUse" x1="414.5154" y1="394.3914" x2="613.0138" y2="394.3914">
				<stop  offset="0" style="stop-color:#00FFFF"/>
				<stop  offset="0.4967" style="stop-color:#FF00FF"/>
				<stop  offset="1" style="stop-color:#F9FF00"/>
			</linearGradient>
			<path class="st4" d="M594.5,376.2c0.1-0.1,0.1-0.2,0.2-0.2c5.5-8.4,9.6-16.1,12.4-22.8c2.2-5.2,3.7-9.8,4.6-13.6
				c2.5-10.5,1.4-21.1-3.6-31.7c-0.1-0.2-0.2-0.3-0.2-0.5c-0.3-0.6-0.6-1.1-0.8-1.7c-0.6-1.2-1.3-2.4-2.1-3.6
				c-6.1-9.8-15.3-18-26.3-24c-9.1-4.9-18.9-8.2-28.7-9.5c-3.4-0.5-6.9-0.7-10.3-0.7c-2.7,0-5.2,0.1-7.6,0.4c-0.1,0-0.1,0-0.1,0
				c-0.6,0.1-1.2,0.1-1.8,0.2c-7.9,1.2-13.9,4.2-18.1,8.5c0,0,0,0-0.1,0.1c-0.5,0.5-1,1-1.5,1.6c-5.9,7.1-8,16.8-9.5,27.8
				c-1.6,11.1-3,22-5.9,32.7c-0.9,3.4-2.2,7.5-4.3,12c-1,2.1-2.1,4.3-3.4,6.6c-3.7,6.3-8.9,13.3-16,20.7c-0.2,0.2-0.4,0.4-0.5,0.6
				c-1.9,2-4,4-6.1,6.1c-11.1,10.6-23.3,20.4-33,30.5c-14.2,14.5-18.1,26.9-17.1,36.4c0.1,1.5,0.3,2.9,0.6,4.2
				c0.2,0.8,0.4,1.6,0.6,2.4c2.3,7.6,8.4,15.4,18.2,23.4c2.5,2,5.2,4.1,8.2,6.1c14,9.7,31.5,17.8,48.6,23.4c0,0,0,0,0,0
				c0.1,0,0.2,0.1,0.3,0.1c0.6,0.2,1.1,0.4,1.7,0.5c13.1,4.2,25.5,6.9,36.1,7.9c0,0,0,0,0,0c0.2,0,0.3,0,0.5,0.1c0,0,0,0,0,0
				c3.6,0.4,7,0.5,10.2,0.5c3.4,0,6.4-0.2,9.1-0.5c7.2-1,11.6-3.2,13.9-6.4c0.3-0.4,0.5-0.8,0.8-1.2c2.8-5.2,1.5-12.2-0.8-20.4
				c-0.6-2.1-1.2-4.2-1.8-6.3c0-0.1-0.1-0.3-0.1-0.4c-1.8-6.1-3.6-12.4-5.4-18.9c-0.5-1.7-0.9-3.5-1.3-5.5c0,0,0,0,0,0
				c-0.4-2.2-0.7-4.5-0.8-7.1c0-0.2,0-0.4,0-0.6c-0.2-7.8,1.7-17.4,7.9-28.9c5.8-10.9,14.4-21.9,23.2-33.8
				C588,385.7,591.5,380.8,594.5,376.2z M489,446.6c-0.5,3.5-0.4,6.8-0.1,9.6c0.8,6.5,2.7,11.3,3.1,13.6c0.7,3.5-0.7,5.2-5,4.9
				c-4.1-0.2-7.9-2-10.6-5.2c-1.9-2.2-4.9-7-6.1-13.7c-0.5-2.8-0.6-5.8-0.2-9.2c4.1-30.8,49.4-53.8,68.2-91.4
				c0.6-1.3,1.2-2.5,1.7-3.7c3.4-7.5,5.1-13.5,6.5-17.3c0.3-0.8,0.5-1.4,0.8-2c0,0,0,0,0,0c0.2-0.5,0.5-1,0.7-1.3
				c0.1-0.2,0.2-0.3,0.3-0.4c0,0,0,0,0,0c1.8-2.7,3.8-4.1,6.5-4.1c3.2,0,5.3,1.9,5.7,5.6c0.1,0.6,0.1,1.5,0.1,2.4
				c-0.2,3.7-1.3,9.5-4.5,16.8c-0.6,1.4-1.3,2.8-2,4.3C535.1,393.1,492.9,416.6,489,446.6z"/>
			<linearGradient id="SVGID_5_" gradientUnits="userSpaceOnUse" x1="580.4063" y1="395.3995" x2="777.15" y2="395.3995">
				<stop  offset="0" style="stop-color:#00FFFF"/>
				<stop  offset="0.4967" style="stop-color:#FF00FF"/>
				<stop  offset="1" style="stop-color:#F9FF00"/>
			</linearGradient>
			<path class="st5" d="M777,440c0-0.5,0-1-0.1-1.5c-0.3-11.8-1.1-19.3-2.4-22.4c-1.4-3.5-4.8-7.2-9.7-10.9c0,0-0.1-0.1-0.2-0.1
				c-0.8-0.6-1.7-1.2-2.6-1.9c-3.3-2.3-8.2-4-14.4-5.4c-6-1.3-13.2-2.2-21.5-2.8c19.5-3.2,33.6-8.8,40.6-16.2
				c6.4-6.6,9.7-18,10.2-34c0-1.2,0.1-2.4,0.1-3.7c0-0.6,0-1.2,0-1.8c0-17-2.6-29.6-7.1-38.6c0,0,0,0,0,0c-0.1-0.3-0.3-0.5-0.4-0.8
				c-0.9-1.7-1.8-3.2-2.9-4.6c-0.8-1.1-1.6-2.2-2.5-3.2c-6.1-7.2-13.7-12.1-22.8-14.1c-6.8-1.5-17.6-2.4-32.5-2.8c0,0,0,0,0,0
				c-0.3,0-0.6,0-0.9,0c-7.7-0.2-16.6-0.2-26.4,0c-14.6,0.2-29.2,0.4-43.8,0.6c22.9,121.7-132.5,150.9-9.8,239.4
				c21.7,0.2,43.6,0.3,65.8,0.4c-37.3-37.4-38.5-67.9-29.2-100.2c1-0.1,2-0.1,3-0.1c0,0,0,0,0,0c9.5-0.3,15.4,0.7,17.4,3.1
				c0.7,0.8,1.1,2,1.4,3.6c0.7,3.7,0.5,9.7,0.1,17.9c-0.9,24.2,5.6,48.6,27.5,75.8c20.7,0.1,41.7,0.1,62.9,0.1c0-21.3,0-42.7,0-64
				C777.1,447.5,777.1,443.5,777,440C777,440,777,440,777,440z M695.5,325.8c1.2-0.1,2.3-0.2,3.4-0.3c0.3,0,0.6,0,0.9,0c0,0,0,0,0,0
				c0.3,0,0.6,0,1,0c0.1,0,0.3,0,0.4,0c1.7,0,3.1,0.2,4.4,0.5c1.8,0.4,3.2,1.1,4.1,2c2.2,2.3,2.5,7.6,0.4,15.6
				c-1.2,4.6-2.5,9.2-3.8,13.7c-3.1,10.7-6.7,17-10.7,19.2c-4,2.2-10.3,3.8-18.5,4.6C683.8,364.1,691,346,695.5,325.8z"/>
		</g>
	</g>
	<g>
		<path class="st0" d="M169,112.9v-5.4c0-5.3-1.9-9.2-5.7-11.7s-11.7-4.6-23.8-6.3c-7.5-1-16.2-1.8-26.2-2.1h-0.1
			c-6.1-0.2-12.7-0.4-19.7-0.4c-1.8,0-3.5,0-5.2,0c-0.2,0-0.4,0-0.5,0c-11.4,0.1-21.6,0.7-30.7,1.6c-3.8,0.4-7.2,0.8-10.4,1.3
			c-5.7,0.9-10.5,1.9-14.3,3.1c-3.4,1.1-6,2.2-7.9,3.3c-0.1,0-0.2,0.1-0.3,0.2h0c-0.2,0.1-0.3,0.2-0.4,0.3c0,0,0,0,0,0
			c-0.1,0.1-0.2,0.1-0.3,0.2c-0.8,0.6-1.4,1.2-1.8,1.9c-0.6,0.9-1,2.1-1.3,3.5v0c0,0.2-0.1,0.3-0.1,0.5c0,0.2-0.1,0.4-0.1,0.6v0
			c0,0.1,0,0.3-0.1,0.4v0c-0.2,1.2-0.2,2.6-0.2,4.1v16.5c0,5.5,2,9.7,5.8,12.5c3.9,2.8,11.8,4.9,23.8,6.5c12,1.6,27.2,2.3,45.7,2.3
			c6.2,0,12-0.1,17.5-0.3c10.3-0.4,19.4-1.2,27.4-2.4c4.9-0.8,9.2-1.5,12.7-2.4c1.1-0.2,2.1-0.5,3-0.8c3.5-1,6.2-2.1,7.8-3.2
			c3.5-2.5,5.3-6.6,5.3-12.5v-2.2h-63.1v7.1c0,3.1-0.7,5.1-2.2,5.9c-1.4,0.8-4.5,1.3-9.2,1.3c-4.9,0-8-0.4-9.4-1.3
			c-1.4-0.8-2.1-2.6-2.1-5.4v-26.3c0-2.9,0.7-4.7,2.1-5.6c0.9-0.5,2.5-0.9,4.8-1.1c0,0,0.1,0,0.1,0c1.4-0.1,3-0.2,5-0.2
			c4.6,0,7.6,0.4,8.9,1.1c1.3,0.7,2,2.5,2,5.4v9.8H169z"/>
		<path class="st0" d="M334,99.5c-1.2-2.3-4.9-4.5-11.2-6.5c-6.3-2-14.6-3.5-25-4.4c-3.4-0.3-6.9-0.6-10.6-0.8c0,0-0.1,0-0.1,0
			c-7.5-0.4-15.6-0.7-24.3-0.7c-0.4,0-0.9,0-1.3,0c-0.2,0-0.3,0-0.5,0c-13,0-24.4,0.5-34.2,1.6c-3.9,0.4-7.4,0.9-10.7,1.4
			c-5.4,0.9-10,1.9-13.8,3.1c-1,0.3-1.9,0.6-2.7,1h0c-0.1,0-0.2,0.1-0.2,0.1c-0.1,0-0.2,0.1-0.4,0.1h0c-0.1,0-0.2,0.1-0.2,0.1h0
			c-3.9,1.6-6.3,3.3-7.2,5.2c-1,2.1-1.6,5.5-1.7,10.3v0c0,0.1,0,0.2,0,0.3v0c0,0.2,0,0.3,0,0.5v0c0,0.1,0,0.2,0,0.3v0
			c0,0.2,0,0.4,0,0.6v9.7c0,5.8,0.6,9.9,1.8,12.2c1.2,2.3,4.9,4.5,11.2,6.5c6.3,2,14.6,3.5,25,4.4c10.3,1,22,1.5,35,1.5
			c8.6,0,16.6-0.2,23.9-0.6c4.3-0.2,8.3-0.6,12.1-0.9c8.6-0.9,15.8-2.1,21.4-3.6c0.9-0.2,1.8-0.5,2.7-0.8c0.1,0,0.3-0.1,0.4-0.1
			c6-2,9.6-4.1,10.8-6.5c1.2-2.4,1.7-6.4,1.7-12.1v-9.7C335.8,105.9,335.2,101.8,334,99.5z M272.7,128.7c0,3.3-0.6,5.4-1.8,6.3
			c-1.2,0.9-4,1.3-8.2,1.3c-4.2,0-6.9-0.4-8-1.2c-1.1-0.8-1.7-2.8-1.7-6.1v-26.4c0-2.9,0.9-4.7,2.6-5.2c1.8-0.6,4.3-0.9,7.6-0.9
			c0.1,0,0.3,0,0.4,0c0,0,0.1,0,0.1,0c3.6,0,6,0.4,7.2,1.1c1.2,0.7,1.9,2.4,1.9,5V128.7z"/>
		<path class="st0" d="M422.5,133.5V88.3h-63.1v56.5h101.5v-11.3H422.5z"/>
		<path class="st0" d="M615.6,107.8L615.6,107.8c0-0.1,0-0.2,0-0.3c-0.2-3.6-0.8-6.3-1.7-8c-0.8-1.5-2.6-2.9-5.4-4.2
			c-0.1,0-0.1-0.1-0.2-0.1c-1.6-0.7-3.5-1.5-5.7-2.1c-3.7-1.2-8.2-2.2-13.3-3c-3.5-0.6-7.4-1.1-11.7-1.5c-8.6-0.8-18.2-1.3-28.6-1.4
			c-0.1,0-0.3,0-0.5,0c-1,0-2,0-3,0h-0.1c-0.9,0-1.8,0-2.8,0c-13.7,0-25.7,0.5-36,1.6c-10.3,1-18.5,2.5-24.5,4.5
			c-6,2-9.6,4.1-10.8,6.5c-0.5,1.1-0.9,2.5-1.2,4.2c-0.1,0.8-0.2,1.7-0.3,2.7v0c-0.1,1.5-0.2,3.2-0.2,5.1v9.7c0,1.4,0,2.8,0.1,4
			c0,0.5,0.1,0.9,0.1,1.3c0.3,3.1,0.8,5.4,1.6,6.9c1.2,2.3,4.9,4.5,11.2,6.4c0,0,0,0,0.1,0c0.8,0.3,1.7,0.5,2.7,0.8
			c5.9,1.6,13.3,2.8,22.3,3.7c4.4,0.4,9,0.8,13.9,1c6.6,0.3,13.6,0.5,21.1,0.5c13.7,0,25.7-0.5,36-1.6c10.3-1,18.5-2.5,24.5-4.5
			c6-2,9.7-4.1,10.8-6.5c1.1-2.4,1.7-6.4,1.7-12.1v-9.7C615.7,110.3,615.7,109,615.6,107.8z M552.6,128.7c0,3.3-0.6,5.4-1.8,6.3
			c-1.2,0.9-4,1.3-8.2,1.3c-4.2,0-6.9-0.4-8-1.2c-1.1-0.8-1.7-2.8-1.7-6.1v-26.4c0-2.9,0.9-4.7,2.6-5.2c1.7-0.6,4.3-0.9,7.6-0.9h0.3
			c0.1,0,0.2,0,0.3,0h0c0.1,0,0.1,0,0.2,0c3.5,0,5.8,0.4,6.9,1.1c1.2,0.7,1.9,2.4,1.9,5V128.7z"/>
		<path class="st0" d="M770.6,118.2c-4.3-1.2-12.7-2.2-25.2-2.9c13.8-0.3,23-1.2,27.7-2.7c4.7-1.5,7-4.5,7-8.9
			c0-4.8-3.3-8.3-10-10.5c-4.1-1.4-9.1-2.4-14.7-3.2c-3.4-0.4-7.1-0.8-11-1c-5.1-0.3-12.6-0.5-22.3-0.6c-0.2,0-0.3,0-0.5,0
			c-0.5,0-1.1,0-1.6,0c-0.3,0-0.6,0-0.9,0c-9.7-0.1-21.5-0.2-35.3-0.2h-44.7v56.5h63.1v-25.5c0.6,0,1.2,0,1.7,0
			c7.7,0,12.5,0.4,14.4,1.1c2,0.7,3.1,2.6,3.1,5.6v18.8h58.6v-14.9c0-4.6-0.5-7.3-1.6-8.4S774.8,119.4,770.6,118.2z M721.5,105.4
			c0,2.5-1.4,4-4.3,4.4c-1.7,0.3-4.3,0.5-7.6,0.6c-0.1,0-0.1,0-0.2,0c-0.1,0-0.2,0-0.3,0H709c-2,0.1-4.2,0.1-6.7,0.1V97.9
			c6.1,0,10.6,0.2,13.5,0.6c0.1,0,0.1,0,0.2,0h0c0.1,0,0.2,0,0.3,0c0.1,0,0.1,0,0.2,0c0.3,0,0.7,0.1,1,0.2c2.8,0.5,4.1,1.7,4.1,3.5
			V105.4z"/>
	</g>
	<g>
		<g>
			<path d="M232.7,356.3c0-0.2,0-0.4,0.1-0.6c0,0,0,0,0,0c0.2-2.2,0.2-4.4,0-6.4c-0.2-2.4-0.7-4.7-1.4-6.9
				c-2.9-9.6-9.7-17.7-17.1-24c-3.3-2.8-7.1-5.5-11.4-8.2c-11.3-6.9-25.7-13.3-41.6-18.8c-19.2-6.7-37.3-10.5-53.6-11.3
				c-0.1,0-0.1,0-0.2,0c-0.1,0-0.2,0-0.4,0c-0.1,0-0.1,0-0.2,0c0,0,0,0,0,0c-2.2-0.1-4.3-0.2-6.5-0.2c-3.6,0-6.9,0.2-10,0.5
				c-8.7,0.9-15.7,3.1-22.4,6.5c-7.8,4-14.9,9.2-21.2,15.7c-1,1-2,2.1-3,3.2c-6,7-10.9,14.3-13.3,21.8c-0.4,1.2-0.7,2.3-0.9,3.5
				c-0.7,3.3-1.2,7.1-1.7,11.6c-0.7,7.6-1.2,16.8-1.2,27.8c0,23.6,0,47.3,0,70.9c0,3.7,0.1,7.2,0.2,10.5c0.2,6.2,0.6,12,1.2,17.2
				c1.1,10.2,2.8,18.4,4.9,24.8c4,11.4,11.6,20.2,23.4,27.2c2.9,1.7,6,3.3,9.3,4.7c4.3,1.8,8.9,3.3,13.9,4.4c0.2,0,0.3,0.1,0.5,0.1
				c1.3,0.3,2.7,0.6,4.1,0.8c0,0,0,0,0,0c0,0,0.1,0,0.1,0c0,0,0,0,0,0c1.8,0.3,3.7,0.6,5.6,0.8c3.9,0.5,8.1,0.7,12.3,0.7
				c16.3,0.1,29.5-4.7,39.8-14.4c1-0.9,1.9-1.8,2.8-2.8c4.2-4.5,7.9-9.1,11.1-13.9c0,0,0.1-0.1,0.1-0.1c5-7.5,9-15.3,12.4-23.2
				c1.3-3,2.7-6.5,4.3-10.2c0,0,0,0,0,0c0-0.1,0.1-0.1,0.1-0.2c1.9-4.4,4-9.4,6.6-14.6c1-2,2-4,3.1-6.1c0,0,0,0,0,0
				c0-0.1,0.1-0.2,0.1-0.2c0,0,0.1-0.1,0.1-0.1c0-0.1,0.1-0.2,0.1-0.3c0,0,0,0,0,0c4.1-7.7,9-16,14.7-24.7c1.9-2.9,3.8-5.7,5.6-8.5
				c-20.3,0.6-42.2,1.9-66.1,4c-4.1,9.5-8.4,19.3-12.2,29.8c-1.4,3.9-2.7,7.5-3.8,10.7c-0.8,2.3-1.6,4.5-2.3,6.4
				c-1.7,4.8-3.1,8.3-4.3,10.5c-2.1,3.8-5.1,6.2-9,6.9c-0.2,0-0.4,0.1-0.5,0.1c-0.2,0-0.5,0.1-0.7,0.1c-4.8,0.5-7.6-1.2-8.1-5
				c-0.4-2.7,0-7.6,1.4-14.5c0.6-3,1.5-6.3,2.5-9.9c11.1-38.7,26.6-71.2,23.5-105.1c-0.1-1.3-0.3-2.6-0.4-3.8c0,0,0,0,0,0
				c0-0.1,0-0.1,0-0.2c0,0,0,0,0,0c-1-8.8-2.1-14.9-1.5-17.8c0.7-3.4,4.2-5.1,11.1-5.1c1,0,2,0.1,3,0.1c0.1,0,0.1,0,0.2,0
				c0,0,0,0,0,0c4.5,0.5,8,1.8,10.4,4.1c1.7,1.6,3.8,4.6,5.5,8.9c0,0,0,0,0,0c0,0.1,0.1,0.1,0.1,0.2c0,0,0,0,0,0
				c0.9,2.2,1.7,4.7,2.3,7.5c0,0.1,0,0.1,0,0.2c0.2,1.2,0.5,2.4,0.6,3.7c1.6,12.3-0.2,24.4-3.8,36.6c26.8-1.2,51.2-1.6,73.8-1.6
				c3.3-6.2,5.9-12.3,7.3-18.5C232.2,359.7,232.5,358,232.7,356.3z"/>
			<path d="M381.5,379.8C381.5,379.8,381.5,379.8,381.5,379.8c1.2-1.4,2.3-2.8,3.3-4.1c0,0,0,0,0,0c4.2-5.7,6.8-11,8.1-15.8
				c0.6-2.1,0.9-4.1,1.1-6c0.4-4.4-0.2-8.3-1.1-11.5c-2.7-9.5-11.4-19.6-25.9-29.7c-14.5-10.1-32.7-18.6-50.3-24.3
				c-12.7-4.1-24.7-6.8-35.1-7.9c-0.1,0-0.2,0-0.2,0c-0.1,0-0.2,0-0.3,0c-0.1,0-0.1,0-0.2,0c-0.1,0-0.2,0-0.3,0
				c-3.8-0.4-7.4-0.6-10.8-0.6c-3.4,0-6.4,0.2-9.1,0.5c-8,1.1-12.5,3.7-14.6,7.6c-2.4,4.5-1.6,10.4,0.2,17.3
				c0.3,1.1,0.6,2.1,0.9,3.2c1.9,6.6,4.1,13.4,6.1,20.3c0.5,1.8,1,3.5,1.5,5.3c0.8,2.8,1.6,6.2,1.9,10.1c0.8,8.4-0.8,19-8.1,32
				c-6.1,11.1-15.2,22.3-24.3,34.4c-5.8,7.7-10.9,15-14.9,21.8c-4.6,7.8-7.9,14.8-10,20.6c-1,2.9-1.8,5.6-2.4,7.9
				c-2.7,11.2-1.2,22.6,4.9,34c6.1,11.4,16.3,21,28.7,27.6c0.6,0.3,1.3,0.7,1.9,1c6.1,3.1,12.6,5.5,19.1,7c0.2,0,0.3,0.1,0.5,0.1
				c1.9,0.5,3.9,0.8,5.8,1.2c0.1,0,0.1,0,0.2,0c0.5,0.1,1,0.2,1.5,0.2c3.5,0.5,6.9,0.7,10.3,0.7c3.4,0,6.6-0.2,9.5-0.7
				c8.8-1.4,15.2-4.9,19.5-10.2c5.6-6.9,7.6-16.4,9-27.2c0-0.2,0-0.4,0.1-0.5c0-0.1,0-0.2,0-0.3c1.4-10.8,2.7-21.4,5.2-31.7
				c0-0.2,0.1-0.3,0.1-0.5c0.1-0.5,0.2-0.9,0.4-1.5c0,0,0,0,0,0c0-0.1,0.1-0.3,0.1-0.5c0.4-1.5,0.9-3,1.5-4.6
				c3.4-10.3,11.7-23.8,27.5-38.6c11.2-10.8,23.8-20.7,33.8-31C378.3,383.4,380,381.6,381.5,379.8z M273.4,439.2
				c-2,3.4-3.7,6.6-5.1,9.5c0,0,0,0,0,0c-0.1,0.3-0.3,0.5-0.4,0.8c-0.2,0.4-0.3,0.7-0.5,1.1c-3.5,7.9-4.9,13.9-6.1,16.9
				c-1.6,4.4-4,6.7-7.5,6.7c-3.5,0-5.6-2.1-5.9-5.9c-0.2-2.7,0.4-8.6,3.5-16.7c1.3-3.3,3-7.1,5.3-11.1
				c21.1-36.8,64.3-59.9,63.9-91.3c0-1-0.1-1.9-0.1-2.8c0,0,0-0.1,0-0.1c-0.1-1.2-0.2-2.3-0.4-3.4c0-0.1,0-0.1,0-0.2
				c-1.1-6.8-3.1-11.4-2.8-13.2c0.4-2.3,2-3.4,5.2-3.2c3.8,0.2,7.4,1.9,10.1,5c2.3,2.6,5.7,8.1,6.4,15.7c0.1,1.2,0.2,2.4,0.1,3.7
				C338.3,381.6,294.6,403.9,273.4,439.2z"/>
			<path d="M384.3,466.8c-3.4-63.4,142.7-80.3,52.8-179c-20.5-0.1-41.1-0.3-61.8-0.5c133.1,115.9-121.4,112.2-16,237.4
				c32.9,0.2,66,0.5,99.4,0.8c-27.6-22.6-39.7-40.7-42-56C405.6,468.5,394.8,467.6,384.3,466.8z"/>
			<path d="M604.5,388c0.1-0.1,0.1-0.2,0.2-0.2c5.5-8.4,9.6-16.1,12.4-22.8c2.2-5.2,3.7-9.8,4.6-13.6c2.5-10.5,1.4-21.1-3.6-31.7
				c-0.1-0.2-0.2-0.3-0.2-0.5c-0.3-0.6-0.6-1.1-0.8-1.7c-0.6-1.2-1.3-2.4-2.1-3.6c-6.1-9.8-15.3-18-26.3-24
				c-9.1-4.9-18.9-8.2-28.7-9.5c-3.4-0.5-6.9-0.7-10.3-0.7c-2.7,0-5.2,0.1-7.6,0.4c-0.1,0-0.1,0-0.1,0c-0.6,0.1-1.2,0.1-1.8,0.2
				c-7.9,1.2-13.9,4.2-18.1,8.5c0,0,0,0-0.1,0.1c-0.5,0.5-1,1-1.5,1.6c-5.9,7.1-8,16.8-9.5,27.8c-1.6,11.1-3,22-5.9,32.7
				c-0.9,3.4-2.2,7.5-4.3,12c-1,2.1-2.1,4.3-3.4,6.6c-3.7,6.3-8.9,13.3-16,20.7c-0.2,0.2-0.4,0.4-0.5,0.6c-1.9,2-4,4-6.1,6.1
				c-11.1,10.6-23.3,20.4-33,30.5c-14.2,14.5-18.1,26.9-17.1,36.4c0.1,1.5,0.3,2.9,0.6,4.2c0.2,0.8,0.4,1.6,0.6,2.4
				c2.3,7.6,8.4,15.4,18.2,23.4c2.5,2,5.2,4.1,8.2,6.1c14,9.7,31.5,17.8,48.6,23.4c0,0,0,0,0,0c0.1,0,0.2,0.1,0.3,0.1
				c0.6,0.2,1.1,0.4,1.7,0.5c13.1,4.2,25.5,6.9,36.1,7.9c0,0,0,0,0,0c0.2,0,0.3,0,0.5,0.1c0,0,0,0,0,0c3.6,0.4,7,0.5,10.2,0.5
				c3.4,0,6.4-0.2,9.1-0.5c7.2-1,11.6-3.2,13.9-6.4c0.3-0.4,0.5-0.8,0.8-1.2c2.8-5.2,1.5-12.2-0.8-20.4c-0.6-2.1-1.2-4.2-1.8-6.3
				c0-0.1-0.1-0.3-0.1-0.4c-1.8-6.1-3.6-12.4-5.4-18.9c-0.5-1.7-0.9-3.5-1.3-5.5c0,0,0,0,0,0c-0.4-2.2-0.7-4.5-0.8-7.1
				c0-0.2,0-0.4,0-0.6c-0.2-7.8,1.7-17.4,7.9-28.9c5.8-10.9,14.4-21.9,23.2-33.8C598,397.6,601.5,392.7,604.5,388z M499,458.4
				c-0.5,3.5-0.4,6.8-0.1,9.6c0.8,6.5,2.7,11.3,3.1,13.6c0.7,3.5-0.7,5.2-5,4.9c-4.1-0.2-7.9-2-10.6-5.2c-1.9-2.2-4.9-7-6.1-13.7
				c-0.5-2.8-0.6-5.8-0.2-9.2c4.1-30.8,49.4-53.8,68.2-91.4c0.6-1.3,1.2-2.5,1.7-3.7c3.4-7.5,5.1-13.5,6.5-17.3
				c0.3-0.8,0.5-1.4,0.8-2c0,0,0,0,0,0c0.2-0.5,0.5-1,0.7-1.3c0.1-0.2,0.2-0.3,0.3-0.4c0,0,0,0,0,0c1.8-2.7,3.8-4.1,6.5-4.1
				c3.2,0,5.3,1.9,5.7,5.6c0.1,0.6,0.1,1.5,0.1,2.4c-0.2,3.7-1.3,9.5-4.5,16.8c-0.6,1.4-1.3,2.8-2,4.3
				C545.1,404.9,502.9,428.4,499,458.4z"/>
			<path d="M787,451.8c0-0.5,0-1-0.1-1.5c-0.3-11.8-1.1-19.3-2.4-22.4c-1.4-3.5-4.8-7.2-9.7-10.9c0,0-0.1-0.1-0.2-0.1
				c-0.8-0.6-1.7-1.2-2.6-1.9c-3.3-2.3-8.2-4-14.4-5.4c-6-1.3-13.2-2.2-21.5-2.8c19.5-3.2,33.6-8.8,40.6-16.2
				c6.4-6.6,9.7-18,10.2-34c0-1.2,0.1-2.4,0.1-3.7c0-0.6,0-1.2,0-1.8c0-17-2.6-29.6-7.1-38.6c0,0,0,0,0,0c-0.1-0.3-0.3-0.5-0.4-0.8
				c-0.9-1.7-1.8-3.2-2.9-4.6c-0.8-1.1-1.6-2.2-2.5-3.2c-6.1-7.2-13.7-12.1-22.8-14.1c-6.8-1.5-17.6-2.4-32.5-2.8c0,0,0,0,0,0
				c-0.3,0-0.6,0-0.9,0c-7.7-0.2-16.6-0.2-26.4,0c-14.6,0.2-29.2,0.4-43.8,0.6c22.9,121.7-132.5,150.9-9.8,239.4
				c21.7,0.2,43.6,0.3,65.8,0.4c-37.3-37.4-38.5-67.9-29.2-100.2c1-0.1,2-0.1,3-0.1c0,0,0,0,0,0c9.5-0.3,15.4,0.7,17.4,3.1
				c0.7,0.8,1.1,2,1.4,3.6c0.7,3.7,0.5,9.7,0.1,17.9c-0.9,24.2,5.6,48.6,27.5,75.8c20.7,0.1,41.7,0.1,62.9,0.1c0-21.3,0-42.7,0-64
				C787.1,459.3,787.1,455.4,787,451.8C787,451.8,787,451.8,787,451.8z M705.5,337.6c1.2-0.1,2.3-0.2,3.4-0.3c0.3,0,0.6,0,0.9,0
				c0,0,0,0,0,0c0.3,0,0.6,0,1,0c0.1,0,0.3,0,0.4,0c1.7,0,3.1,0.2,4.4,0.5c1.8,0.4,3.2,1.1,4.1,2c2.2,2.3,2.5,7.6,0.4,15.6
				c-1.2,4.6-2.5,9.2-3.8,13.7c-3.1,10.7-6.7,17-10.7,19.2c-4,2.2-10.3,3.8-18.5,4.6C693.8,375.9,701,357.8,705.5,337.6z"/>
		</g>
	</g>
	<g>
		<path class="st0" d="M169,739v-5.4c0-3.7-0.9-6.7-2.8-9c-0.3-0.4-0.6-0.8-1-1.1c0,0-0.1,0-0.1-0.1c-0.6-0.5-1.2-1-1.9-1.5
			c-0.1-0.1-0.2-0.1-0.3-0.2c-3.9-2.4-11.8-4.5-23.6-6.1c-12.1-1.7-27.4-2.5-46-2.5c-7.6,0-14.7,0.2-21.4,0.5c-0.2,0-0.3,0-0.5,0h0
			c-5.1,0.3-9.9,0.6-14.5,1.1c-0.8,0.1-1.6,0.2-2.4,0.3h0c-9.4,1-16.8,2.5-22.3,4.2c-5.4,1.7-8.9,3.5-10.3,5.4
			c-0.1,0.2-0.3,0.3-0.4,0.5c-1.2,2-1.8,5.1-1.8,9.2v16.5c0,5.5,2,9.7,5.8,12.4c3.9,2.8,11.8,4.9,23.8,6.5c7.6,1,16.6,1.7,26.9,2
			c0.2,0,0.4,0,0.5,0h0c0.8,0,1.6,0.1,2.5,0.1c0.2,0,0.3,0,0.5,0h0c4.8,0.1,9.9,0.2,15.3,0.2c17.1,0,31.6-0.8,43.5-2.6
			c0.1,0,0.1,0,0.1,0c0.4,0,0.8-0.1,1.3-0.2c8.3-1.3,14.6-2.7,18.8-4.2c0,0,0.1,0,0.1,0c0,0,0,0,0,0c1.9-0.7,3.5-1.4,4.6-2.2
			c3.5-2.4,5.3-6.6,5.3-12.4v-2.2h-63.1v7.1c0,3.1-0.7,5.1-2.2,5.9c-1.4,0.8-4.5,1.3-9.2,1.3c-4.1,0-7-0.3-8.6-0.9
			c-0.2,0-0.3-0.1-0.4-0.2c-0.1-0.1-0.3-0.1-0.4-0.2c-1.4-0.8-2.1-2.6-2.1-5.4v-26.2c0-2.9,0.7-4.7,2.1-5.6c1.4-0.9,4.7-1.3,9.9-1.3
			c4.6,0,7.6,0.4,8.9,1.1c1.3,0.7,2,2.5,2,5.4v9.8H169z"/>
		<path class="st0" d="M335.3,730.1c0-0.1,0-0.2,0-0.2v0c0-0.3-0.1-0.6-0.2-0.9v0c0-0.1,0-0.1,0-0.2v0c-0.3-1.2-0.6-2.2-1-3.1
			c-1.2-2.3-4.9-4.5-11.2-6.5c-6.3-2-14.6-3.5-25-4.4c-10.3-1-22-1.5-35-1.5c-6.2,0-12.1,0.1-17.6,0.3c-0.2,0-0.3,0-0.5,0
			c-5.7,0.2-11.1,0.6-16,1c-0.6,0.1-1.3,0.1-1.9,0.2c-10.3,1.1-18.5,2.6-24.5,4.5c-5.1,1.6-8.4,3.4-10,5.4c-0.3,0.4-0.6,0.7-0.8,1.1
			c-1.2,2.4-1.7,6.4-1.7,12.1v9.7c0,5.8,0.6,9.9,1.8,12.2c1.2,2.3,4.9,4.5,11.2,6.5c6.3,2,14.6,3.5,25,4.5c6.8,0.6,14.1,1.1,22,1.3
			c0.2,0,0.3,0,0.5,0c0.8,0,1.6,0,2.4,0.1h0c0.2,0,0.3,0,0.4,0c3.1,0.1,6.4,0.1,9.7,0.1c13.7,0,25.7-0.5,36-1.6
			c4.9-0.5,9.4-1.1,13.3-1.8h0c0.3-0.1,0.6-0.1,1-0.2c3.9-0.7,7.3-1.6,10.2-2.5c3.1-1,5.5-2,7.3-3.1c0.2-0.1,0.4-0.3,0.6-0.4
			c1.4-1,2.4-1.9,2.9-3c1.2-2.4,1.7-6.4,1.7-12.1v-9.7C335.8,734.7,335.7,732.2,335.3,730.1z M272.7,754.9c0,3.3-0.6,5.4-1.8,6.3
			c-1.2,0.9-4,1.3-8.2,1.3c-1.5,0-2.8,0-4-0.1c-0.1,0-0.3,0-0.4,0c-1.7-0.2-3-0.5-3.6-1c-1.1-0.8-1.7-2.8-1.7-6.1v-26.4
			c0-0.4,0-0.8,0-1.2v0c0-0.2,0-0.4,0.1-0.7c0.3-1.8,1.1-3,2.5-3.4c1.8-0.6,4.3-0.9,7.6-0.9c3.9,0,6.5,0.4,7.7,1.1
			c1.2,0.7,1.9,2.4,1.9,5V754.9z"/>
		<path class="st0" d="M422.5,759.6v-45.2h-63.1v56.5h101.5v-11.3H422.5z"/>
		<path class="st0" d="M613.9,725.6c-1.2-2.3-4.9-4.5-11.2-6.5c-2.9-0.9-6.2-1.7-9.9-2.4c-0.2,0-0.3-0.1-0.5-0.1h0
			c-4.3-0.8-9.1-1.4-14.5-1.9c-1.1-0.1-2.1-0.2-3.2-0.3h0c-9.5-0.8-20.1-1.2-31.8-1.2c-9.6,0-18.4,0.3-26.3,0.8h-0.1
			c-3.3,0.2-6.5,0.5-9.5,0.8c-0.7,0.1-1.3,0.1-2,0.2c-9.3,1-16.8,2.5-22.5,4.3c-6,2-9.6,4.1-10.8,6.5c-1.1,2.4-1.7,6.4-1.7,12.1v9.7
			c0,0.7,0,1.5,0,2.1c0.1,4.7,0.7,8,1.8,10.1c1.2,2.3,5,4.5,11.2,6.5c1,0.3,2,0.6,3,0.9c0,0,0.1,0,0.1,0c5.8,1.5,13.1,2.7,21.8,3.5
			h0c0,0,0.1,0,0.1,0c10.3,1,21.9,1.5,34.8,1.5c13.7,0,25.7-0.5,36-1.6c5.5-0.6,10.5-1.3,14.8-2.1c0.1,0,0.3,0,0.4-0.1
			c2.8-0.5,5.4-1.2,7.6-1.8h0c0.2,0,0.4-0.1,0.5-0.2c0.4-0.1,0.8-0.2,1.2-0.4c6-1.9,9.7-4.1,10.8-6.5c1-2,1.6-5.4,1.7-9.9
			c0-0.7,0-1.4,0-2.1v-9.7C615.7,732,615.1,727.9,613.9,725.6z M552.6,754.9c0,3.3-0.6,5.4-1.8,6.3c-1.2,0.9-4,1.3-8.2,1.3
			c-4.2,0-6.9-0.4-8-1.1c-1.1-0.8-1.7-2.8-1.7-6.1v-26.4c0-1.9,0.4-3.4,1.2-4.3c0.4-0.5,0.9-0.8,1.5-1c1.7-0.6,4.3-0.9,7.6-0.9
			c3.9,0,6.5,0.4,7.7,1.1c0.3,0.2,0.6,0.4,0.9,0.8c0.7,0.9,1,2.3,1,4.3V754.9z"/>
		<path class="st0" d="M778.6,747.6c-1-1-3.7-2.1-8-3.3c-3.6-1-10.2-1.9-19.7-2.6c-0.3,0-0.6,0-0.9-0.1c-1.5-0.1-3-0.2-4.5-0.3
			c1.5,0,2.9-0.1,4.3-0.1c0.3,0,0.6,0,0.8,0c11-0.4,18.5-1.3,22.6-2.6c1.1-0.4,2.1-0.8,3-1.4c0.2-0.1,0.4-0.3,0.6-0.4
			c2.3-1.7,3.4-4,3.4-7.1c0-4.8-3.3-8.3-10-10.5c-1.4-0.5-2.8-0.9-4.3-1.2c-0.3-0.1-0.7-0.2-1-0.2c-5.4-1.3-11.9-2.1-19.3-2.5
			c-0.4,0-0.7,0-1.1-0.1c-9.8-0.5-28-0.8-54.6-0.8h0c-0.3,0-0.6,0-0.9,0h-49.7v56.5h63.1v-25.5c8.7,0,14.1,0.4,16.1,1.1
			c2,0.7,3.1,2.6,3.1,5.6v18.8h58.6V756c0-0.4,0-0.7,0-1.1C780.1,751,779.5,748.6,778.6,747.6z M721.5,731.5c0,2.5-1.4,4-4.3,4.4
			c-2.9,0.5-7.8,0.7-14.9,0.7v-12.6c6,0,10.5,0.2,13.4,0.6c0.6,0.1,1.2,0.2,1.6,0.3c2.8,0.6,4.1,1.7,4.1,3.5V731.5z"/>
	</g>
	<g>
		<path class="st0" d="M169,53.3V48c0-3.7-0.9-6.7-2.8-9c-0.3-0.4-0.6-0.8-1-1.1c0,0-0.1,0-0.1-0.1c-0.6-0.5-1.2-1-1.9-1.5
			c-0.1-0.1-0.2-0.1-0.3-0.2c-3.9-2.4-11.8-4.5-23.6-6.1c-12.1-1.7-27.4-2.5-46-2.5c-7.6,0-14.7,0.2-21.4,0.5c-0.2,0-0.3,0-0.5,0h0
			c-5.1,0.3-9.9,0.6-14.5,1.1c-0.8,0.1-1.6,0.2-2.4,0.3h0c-9.4,1-16.8,2.5-22.3,4.2c-5.4,1.7-8.9,3.5-10.3,5.4
			c-0.1,0.2-0.3,0.3-0.4,0.5c-1.2,2-1.8,5.1-1.8,9.2v16.5c0,5.5,2,9.7,5.8,12.4c3.9,2.8,11.8,4.9,23.8,6.5c7.6,1,16.6,1.7,26.9,2
			c0.2,0,0.4,0,0.5,0h0c0.8,0,1.6,0.1,2.5,0.1c0.2,0,0.3,0,0.5,0h0c4.8,0.1,9.9,0.2,15.3,0.2c17.1,0,31.6-0.8,43.5-2.6
			c0.1,0,0.1,0,0.1,0c0.4,0,0.8-0.1,1.3-0.2c8.3-1.3,14.6-2.7,18.8-4.2c0,0,0.1,0,0.1,0c0,0,0,0,0,0c1.9-0.7,3.5-1.4,4.6-2.2
			c3.5-2.4,5.3-6.6,5.3-12.4v-2.2h-63.1v7.1c0,3.1-0.7,5.1-2.2,5.9c-1.4,0.8-4.5,1.3-9.2,1.3c-4.1,0-7-0.3-8.6-0.9
			c-0.2,0-0.3-0.1-0.4-0.2c-0.1-0.1-0.3-0.1-0.4-0.2C83.7,74.8,83,73,83,70.2V44c0-2.9,0.7-4.7,2.1-5.6c1.4-0.9,4.7-1.3,9.9-1.3
			c4.6,0,7.6,0.4,8.9,1.1c1.3,0.7,2,2.5,2,5.4v9.8H169z"/>
		<path class="st0" d="M335.3,44.4c0-0.1,0-0.2,0-0.2v0c0-0.3-0.1-0.6-0.2-0.9v0c0-0.1,0-0.1,0-0.2v0c-0.3-1.2-0.6-2.2-1-3.1
			c-1.2-2.3-4.9-4.5-11.2-6.5c-6.3-2-14.6-3.5-25-4.4c-10.3-1-22-1.5-35-1.5c-6.2,0-12.1,0.1-17.6,0.3c-0.2,0-0.3,0-0.5,0
			c-5.7,0.2-11.1,0.6-16,1c-0.6,0.1-1.3,0.1-1.9,0.2c-10.3,1.1-18.5,2.6-24.5,4.5c-5.1,1.6-8.4,3.4-10,5.4c-0.3,0.4-0.6,0.7-0.8,1.1
			c-1.2,2.4-1.7,6.4-1.7,12.1v9.7c0,5.8,0.6,9.9,1.8,12.2c1.2,2.3,4.9,4.5,11.2,6.5c6.3,2,14.6,3.5,25,4.5c6.8,0.6,14.1,1.1,22,1.3
			c0.2,0,0.3,0,0.5,0c0.8,0,1.6,0,2.4,0.1h0c0.2,0,0.3,0,0.4,0c3.1,0.1,6.4,0.1,9.7,0.1c13.7,0,25.7-0.5,36-1.6
			c4.9-0.5,9.4-1.1,13.3-1.8h0c0.3-0.1,0.6-0.1,1-0.2c3.9-0.7,7.3-1.6,10.2-2.5c3.1-1,5.5-2,7.3-3.1c0.2-0.1,0.4-0.3,0.6-0.4
			c1.4-1,2.4-1.9,2.9-3c1.2-2.4,1.7-6.4,1.7-12.1v-9.7C335.8,49.1,335.7,46.5,335.3,44.4z M272.7,69.2c0,3.3-0.6,5.4-1.8,6.3
			c-1.2,0.9-4,1.3-8.2,1.3c-1.5,0-2.8,0-4-0.1c-0.1,0-0.3,0-0.4,0c-1.7-0.2-3-0.5-3.6-1c-1.1-0.8-1.7-2.8-1.7-6.1V43.2
			c0-0.4,0-0.8,0-1.2v0c0-0.2,0-0.4,0.1-0.7c0.3-1.8,1.1-3,2.5-3.4c1.8-0.6,4.3-0.9,7.6-0.9c3.9,0,6.5,0.4,7.7,1.1
			c1.2,0.7,1.9,2.4,1.9,5V69.2z"/>
		<path class="st0" d="M422.5,73.9V28.7h-63.1v56.5h101.5V73.9H422.5z"/>
		<path class="st0" d="M613.9,39.9c-1.2-2.3-4.9-4.5-11.2-6.5c-2.9-0.9-6.2-1.7-9.9-2.4c-0.2,0-0.3-0.1-0.5-0.1h0
			c-4.3-0.8-9.1-1.4-14.5-1.9c-1.1-0.1-2.1-0.2-3.2-0.3h0c-9.5-0.8-20.1-1.2-31.8-1.2c-9.6,0-18.4,0.3-26.3,0.8h-0.1
			c-3.3,0.2-6.5,0.5-9.5,0.8c-0.7,0.1-1.3,0.1-2,0.2c-9.3,1-16.8,2.5-22.5,4.3c-6,2-9.6,4.1-10.8,6.5c-1.1,2.4-1.7,6.4-1.7,12.1v9.7
			c0,0.7,0,1.5,0,2.1c0.1,4.7,0.7,8,1.8,10.1c1.2,2.3,5,4.5,11.2,6.5c1,0.3,2,0.6,3,0.9c0,0,0.1,0,0.1,0c5.8,1.5,13.1,2.7,21.8,3.5
			h0c0,0,0.1,0,0.1,0c10.3,1,21.9,1.5,34.8,1.5c13.7,0,25.7-0.5,36-1.6c5.5-0.6,10.5-1.3,14.8-2.1c0.1,0,0.3,0,0.4-0.1
			c2.8-0.5,5.4-1.2,7.6-1.8h0c0.2,0,0.4-0.1,0.5-0.2c0.4-0.1,0.8-0.2,1.2-0.4c6-1.9,9.7-4.1,10.8-6.5c1-2,1.6-5.4,1.7-9.9
			c0-0.7,0-1.4,0-2.1v-9.7C615.7,46.3,615.1,42.3,613.9,39.9z M552.6,69.2c0,3.3-0.6,5.4-1.8,6.3c-1.2,0.9-4,1.3-8.2,1.3
			c-4.2,0-6.9-0.4-8-1.1c-1.1-0.8-1.7-2.8-1.7-6.1V43.2c0-1.9,0.4-3.4,1.2-4.3c0.4-0.5,0.9-0.8,1.5-1c1.7-0.6,4.3-0.9,7.6-0.9
			c3.9,0,6.5,0.4,7.7,1.1c0.3,0.2,0.6,0.4,0.9,0.8c0.7,0.9,1,2.3,1,4.3V69.2z"/>
		<path class="st0" d="M778.6,62c-1-1-3.7-2.1-8-3.3c-3.6-1-10.2-1.9-19.7-2.6c-0.3,0-0.6,0-0.9-0.1c-1.5-0.1-3-0.2-4.5-0.3
			c1.5,0,2.9-0.1,4.3-0.1c0.3,0,0.6,0,0.8,0c11-0.4,18.5-1.3,22.6-2.6c1.1-0.4,2.1-0.8,3-1.4c0.2-0.1,0.4-0.3,0.6-0.4
			c2.3-1.7,3.4-4,3.4-7.1c0-4.8-3.3-8.3-10-10.5c-1.4-0.5-2.8-0.9-4.3-1.2c-0.3-0.1-0.7-0.2-1-0.2c-5.4-1.3-11.9-2.1-19.3-2.5
			c-0.4,0-0.7,0-1.1-0.1c-9.8-0.5-28-0.8-54.6-0.8h0c-0.3,0-0.6,0-0.9,0h-49.7v56.5h63.1V59.8c8.7,0,14.1,0.4,16.1,1.1
			c2,0.7,3.1,2.6,3.1,5.6v18.8h58.6V70.3c0-0.4,0-0.7,0-1.1C780.1,65.3,779.5,62.9,778.6,62z M721.5,45.9c0,2.5-1.4,4-4.3,4.4
			c-2.9,0.5-7.8,0.7-14.9,0.7V38.4c6,0,10.5,0.2,13.4,0.6c0.6,0.1,1.2,0.2,1.6,0.3c2.8,0.6,4.1,1.7,4.1,3.5V45.9z"/>
	</g>
</g>
</svg>
