<svg xmlns="http://www.w3.org/2000/svg" viewBox="0 0 1200 750"><defs><style>.cls-1{fill:#075107;}.cls-2{fill:#fc7af6;}.cls-3{fill:#f497f7;}.cls-4,.cls-5,.cls-7{fill:none;stroke-miterlimit:10;}.cls-4{stroke:#000;stroke-width:2px;}.cls-5,.cls-7{stroke:#f497f7;}.cls-5{stroke-width:4px;}.cls-6{fill:#fff;}.cls-7{stroke-width:1.4px;}</style></defs><title>zoolander</title><g id="Layer_2" data-name="Layer 2"><rect class="cls-1" x="1" y="1" width="1198" height="748"/><path class="cls-2" d="M1198,2V748H2V2H1198m2-2H0V750H1200V0Z"/><path class="cls-3" d="M1158.36,36.23V710.61H35.75V36.23H1158.36m2-2H33.75V712.61H1160.36V34.23Z"/><path class="cls-4" d="M1140.11,737.92"/><line class="cls-5" x1="307.62" y1="494.36" x2="1131.67" y2="494.36"/><line class="cls-5" x1="268.66" y1="534.39" x2="1131.67" y2="534.39"/></g><g id="Layer_1" data-name="Layer 1"><path d="M115,103.59a35.42,35.42,0,0,1-13.78,14.49q-9.46,5.76-23.91,5.76c-1.49,0-2.73,0-3.73-.08q-4.65-.17-9.38-.17-9.13,0-14.11.25l.25-1.66a17.05,17.05,0,0,0,4.27-.66,4.29,4.29,0,0,0,2.33-2,18.83,18.83,0,0,0,1.7-4.52L69.53,73.88a13.28,13.28,0,0,0,.5-3.24,3.34,3.34,0,0,0-1.2-2.78,7.46,7.46,0,0,0-4.11-1.12L65,65.08q4.23.26,12.86.25H80.9q7-.26,12.29-.25,12.45,0,19.3,5.27t6.84,15.56A39.54,39.54,0,0,1,115,103.59Zm-24.2,12.7a40.88,40.88,0,0,0,8.47-15.23,59.15,59.15,0,0,0,2.94-18.14q0-16.35-10.54-16.35a5.37,5.37,0,0,0-2.65.5,3,3,0,0,0-1.25,1.66q-.41,1.17-1.41,5l-10.87,41.5a26,26,0,0,0-1,5,1.82,1.82,0,0,0,.75,1.7,5.65,5.65,0,0,0,2.74.46Q85.31,122.35,90.82,116.29Z"/><path d="M124,96.58a30.36,30.36,0,0,1,9.75-12.12,25.85,25.85,0,0,1,15.9-4.86q7.22,0,11,3.66t3.78,10.45A34.93,34.93,0,0,1,161.16,108a30.21,30.21,0,0,1-9.75,12.12A25.82,25.82,0,0,1,135.52,125q-7.23,0-11-3.66t-3.78-10.45A34.93,34.93,0,0,1,124,96.58Zm19.34-9.09a70.47,70.47,0,0,0-6.18,15.06,57.2,57.2,0,0,0-2.62,16.15,12.34,12.34,0,0,0,.37,3.61c.25.69.65,1,1.21,1q2.24,0,5.77-6A67.54,67.54,0,0,0,148,102.6a57.65,57.65,0,0,0,2.61-16.52,12.71,12.71,0,0,0-.37-3.86c-.25-.64-.6-1-1-1Q146.89,81.26,143.32,87.49Z"/><path d="M227.23,87.66q0,7.22-4.77,17.47a83.4,83.4,0,0,1-11.58,18.38A54.47,54.47,0,0,1,200,133.6a34.11,34.11,0,0,1-11.32,5.18,21.55,21.55,0,0,1-4.9.67,8,8,0,0,1-5.11-1.45,4.92,4.92,0,0,1-1.78-4,5.74,5.74,0,0,1,1.83-4.27,6.54,6.54,0,0,1,4.81-1.79q6,0,10.21,7.3a36.67,36.67,0,0,0,9.63-6.22L196.6,87.9a18.1,18.1,0,0,0-.7-2.86,1,1,0,0,0-1-.7,1.75,1.75,0,0,0-1.45,1,30,30,0,0,0-1.87,4.23l-1.74,4.65h-1.58l2.08-6.06c1.1-3.15,2.53-5.36,4.27-6.64A10.63,10.63,0,0,1,201,79.6a9.39,9.39,0,0,1,6.56,2.2q2.4,2.2,3.24,7.68L214.37,116a73.31,73.31,0,0,0,8.71-17.1,18.57,18.57,0,0,1-6.27-5.47,12,12,0,0,1-2.36-7.06,7,7,0,0,1,1.7-5,6.18,6.18,0,0,1,4.77-1.83Q227.24,79.6,227.23,87.66Z"/><path d="M231.63,96.58a30.36,30.36,0,0,1,9.75-12.12,25.82,25.82,0,0,1,15.89-4.86q7.23,0,11,3.66t3.78,10.45A34.93,34.93,0,0,1,268.81,108a30.29,30.29,0,0,1-9.75,12.12A25.84,25.84,0,0,1,243.17,125q-7.23,0-11-3.66t-3.78-10.45A34.93,34.93,0,0,1,231.63,96.58ZM251,87.49a71,71,0,0,0-6.19,15.06,57.52,57.52,0,0,0-2.61,16.15,12,12,0,0,0,.37,3.61c.25.69.65,1,1.21,1q2.24,0,5.76-6a67.53,67.53,0,0,0,6.15-14.73,57.65,57.65,0,0,0,2.61-16.52,12.71,12.71,0,0,0-.37-3.86c-.25-.64-.6-1-1-1Q254.54,81.26,251,87.49Z"/><path d="M320.69,110h1.57l-2.32,6.48a12.44,12.44,0,0,1-4.73,6.47,12.74,12.74,0,0,1-7.14,2.08q-5.47,0-7.39-3.24a7.93,7.93,0,0,1-1-4,16.71,16.71,0,0,1,.66-4.39l1.91-7.23a58.57,58.57,0,0,1-6.1,11.71,17.62,17.62,0,0,1-6,5.6,15.17,15.17,0,0,1-6.93,1.54,8.63,8.63,0,0,1-5.77-1.75,6.4,6.4,0,0,1-2-5.14,17.73,17.73,0,0,1,1.08-5.65l8.05-24.65a8.21,8.21,0,0,0,.42-2c0-1-.47-1.49-1.41-1.49q-2.41,0-4.4,5.22l-1.75,4.65h-1.57l2.07-6.06q3-8.54,11.87-8.55a9.78,9.78,0,0,1,6.52,2q2.28,1.95,2.28,5.85a21,21,0,0,1-1.25,6.47l-7.13,21.5a10,10,0,0,0-.67,3.23c0,.83.28,1.25.83,1.25q2,0,5.11-5a92,92,0,0,0,6.43-13.12A176.29,176.29,0,0,0,307.82,85l1.08-4.23a104.53,104.53,0,0,0,15-1.17l-10.45,37.19a8.46,8.46,0,0,0-.5,2.41c0,.72.41,1.07,1.24,1.07a3.21,3.21,0,0,0,2.41-1.16,12.69,12.69,0,0,0,2.16-4.06Z"/><path d="M380.65,99.07a55.51,55.51,0,0,1-18.47,7.68,39.7,39.7,0,0,0-.24,4.23q0,4.56,1.74,6.31a7,7,0,0,0,5.14,1.74,14.38,14.38,0,0,0,5.36-1.41,20.3,20.3,0,0,0,6.26-4.4l1.33.66a25.85,25.85,0,0,1-8.55,7.93,23.94,23.94,0,0,1-12.45,3.2,16.64,16.64,0,0,1-10.25-3.08,10.13,10.13,0,0,1-4.11-8.63,33.45,33.45,0,0,1,4.2-16,35.43,35.43,0,0,1,11.45-12.79,27.94,27.94,0,0,1,16.06-4.94,13.37,13.37,0,0,1,7.47,1.87,6.13,6.13,0,0,1,2.82,5.44Q388.41,93.89,380.65,99.07Zm-9.54-14.32A39.29,39.29,0,0,0,365.84,94a51.84,51.84,0,0,0-3.41,11.29,40.89,40.89,0,0,0,7.64-5.64,27.49,27.49,0,0,0,5.52-7.56,19.75,19.75,0,0,0,2-8.79c0-1.39-.44-2.08-1.33-2.08C374.74,81.18,373,82.37,371.11,84.75Z"/><path d="M419.37,93.92a12,12,0,0,1-2.66-7.51,7,7,0,0,1,1.71-5,6.18,6.18,0,0,1,4.77-1.83q6.3,0,6.31,8.14a50.84,50.84,0,0,1-3.07,17,35.81,35.81,0,0,1-9.3,14.49A21.36,21.36,0,0,1,402,125q-7,0-10.12-3a9.74,9.74,0,0,1-3.07-7.35q0-7.47,6.35-15.19t17.88-16.35a8.08,8.08,0,0,0-4.31,1.25A22.36,22.36,0,0,0,405,87.66a21.14,21.14,0,0,1-2.82,2.44,4.46,4.46,0,0,1-2.57.79,6.4,6.4,0,0,1-2.41-.66,4.61,4.61,0,0,0-2-.58,2,2,0,0,0-1.62.74,7,7,0,0,0-1.12,2.41l-.58,1.74h-1.58l1.83-6.05q2.49-9,7.8-9a6,6,0,0,1,1.82.29,12.81,12.81,0,0,1,1.75.71,16.29,16.29,0,0,0,2.57,1,10.85,10.85,0,0,0,3,.37,11.9,11.9,0,0,0,5.39-1.25l.83-1.57,1.75.83a95.6,95.6,0,0,0-8.93,18.8Q404.6,108.82,404.6,115a8.2,8.2,0,0,0,.87,4.28,3.22,3.22,0,0,0,2.94,1.37q6.06,0,10.84-6.23a40.91,40.91,0,0,0,7-15.1A17.79,17.79,0,0,1,419.37,93.92Z"/><path d="M464.9,99.07a55.59,55.59,0,0,1-18.47,7.68,37.34,37.34,0,0,0-.25,4.23q0,4.56,1.74,6.31a7,7,0,0,0,5.15,1.74,14.34,14.34,0,0,0,5.35-1.41,20.22,20.22,0,0,0,6.27-4.4l1.33.66a26,26,0,0,1-8.55,7.93A24,24,0,0,1,445,125a16.62,16.62,0,0,1-10.25-3.08,10.13,10.13,0,0,1-4.11-8.63,33.55,33.55,0,0,1,4.19-16A35.43,35.43,0,0,1,446.3,84.54a28,28,0,0,1,16.06-4.94,13.37,13.37,0,0,1,7.47,1.87,6.13,6.13,0,0,1,2.83,5.44Q472.66,93.89,464.9,99.07Zm-9.55-14.32A39.29,39.29,0,0,0,450.08,94a51.26,51.26,0,0,0-3.4,11.29,40.81,40.81,0,0,0,7.63-5.64,27.09,27.09,0,0,0,5.52-7.56,19.63,19.63,0,0,0,2-8.79c0-1.39-.45-2.08-1.33-2.08Q458.22,81.18,455.35,84.75Z"/><path d="M513.74,81.89a8,8,0,0,1,2.16,5.77,10.8,10.8,0,0,1-2.66,7.3A8.49,8.49,0,0,1,506.52,98a5.55,5.55,0,0,1-6.23-6.22A9.75,9.75,0,0,1,503,85.17a10.93,10.93,0,0,1,6.39-3.66,10.08,10.08,0,0,0-1.16-.25,10.69,10.69,0,0,0-4.81,1.08q-2.16,1.08-4.78,5.32a65.37,65.37,0,0,0-5.52,12.94L487,123.84H472.32l10.13-36a8.61,8.61,0,0,0,.33-2.16q0-1.32-1.08-1.32a3.22,3.22,0,0,0-2.41,1.16,12.91,12.91,0,0,0-2.15,4.06l-1.91,5.07h-1.58L476,88.15q3.06-8.54,12.36-8.55c2.66,0,4.59.72,5.81,2.16A8.32,8.32,0,0,1,496,87.32a14.7,14.7,0,0,1-.08,1.75q2.4-5.23,5.18-7.35a10.87,10.87,0,0,1,6.77-2.12A7.73,7.73,0,0,1,513.74,81.89Z"/><path d="M585.33,85.25a34.88,34.88,0,0,1,2,11.87,41.6,41.6,0,0,1-2.2,13.49A25,25,0,0,1,578.69,121a14.22,14.22,0,0,1-10,4,15.58,15.58,0,0,1-5.64-1,8.8,8.8,0,0,1-4.15-3.24Q554,125,546.11,125c-3.65,0-6.52-1-8.59-3a10.06,10.06,0,0,1-3.11-7.68,14.83,14.83,0,0,1,3-8.63,46.51,46.51,0,0,1,7.85-8.38q4.85-4.16,14.31-11.21l4-3a10.83,10.83,0,0,0-5.06,1.25,33.54,33.54,0,0,0-4.74,3.32,23.84,23.84,0,0,1-3.11,2.36,5.18,5.18,0,0,1-2.78.79,5.74,5.74,0,0,1-2.57-.66,4.61,4.61,0,0,0-2-.58,1.93,1.93,0,0,0-1.58.7,7.87,7.87,0,0,0-1.16,2.45L540,94.54h-1.58l1.82-6.05c.95-3.21,2.09-5.43,3.45-6.64A6.59,6.59,0,0,1,548.18,80a13.76,13.76,0,0,1,3.9.75,20.65,20.65,0,0,0,6.81,1.16A15,15,0,0,0,565,80.68l.83-1.57,1.75.83a89.43,89.43,0,0,0-12.54,18.8q-4.89,9.92-4.89,16.64a7.18,7.18,0,0,0,.87,3.9,3.36,3.36,0,0,0,3,1.33,8.4,8.4,0,0,0,4.06-1.08,12.74,12.74,0,0,1-1.24-5.9,20.84,20.84,0,0,1,2.28-9.5,22.28,22.28,0,0,1,5.65-7.3c2.24-1.86,4.3-2.78,6.18-2.78q3.4,0,3.4,5.23a24.64,24.64,0,0,1-5.64,15.77,7.07,7.07,0,0,0,6.14,3.07q4.89,0,7.68-5.69a34.14,34.14,0,0,0,3-14,41.87,41.87,0,0,1-9.38-5.69A9.64,9.64,0,0,1,572.75,85a5.59,5.59,0,0,1,1.45-3.74,5.41,5.41,0,0,1,4.28-1.66Q583.3,79.6,585.33,85.25ZM569.27,97.78a20.78,20.78,0,0,0-1.5,4.94,33.47,33.47,0,0,0-.58,6.35,12.64,12.64,0,0,0,.75,4.48,25.39,25.39,0,0,0,3.36-6.68,22.42,22.42,0,0,0,1.2-7.1c0-2.6-.44-3.9-1.33-3.9C570.51,95.87,569.87,96.51,569.27,97.78Z"/><path d="M594.66,96.58a30.3,30.3,0,0,1,9.76-12.12,25.82,25.82,0,0,1,15.89-4.86q7.22,0,11,3.66t3.77,10.45A35.08,35.08,0,0,1,631.85,108a30.23,30.23,0,0,1-9.76,12.12A25.82,25.82,0,0,1,606.2,125q-7.22,0-11-3.66t-3.77-10.45A34.92,34.92,0,0,1,594.66,96.58ZM614,87.49a70.47,70.47,0,0,0-6.18,15.06,57.56,57.56,0,0,0-2.62,16.15,11.92,11.92,0,0,0,.38,3.61c.25.69.65,1,1.2,1,1.49,0,3.42-2,5.77-6a67.54,67.54,0,0,0,6.14-14.73,57.68,57.68,0,0,0,2.62-16.52,12.61,12.61,0,0,0-.38-3.86c-.25-.64-.59-1-1-1Q617.57,81.26,614,87.49Z"/><path d="M683.56,110.4h1.57l-2.07,6.06q-3,8.55-11.87,8.55-5.31,0-7.47-3a7.6,7.6,0,0,1-1.41-4.65,22,22,0,0,1,1.32-6.64l7.14-21.5a10,10,0,0,0,.67-3.23c0-.83-.28-1.25-.83-1.25-1.44,0-3.3,1.94-5.56,5.81a105.91,105.91,0,0,0-6.93,14.86,167.36,167.36,0,0,0-5.94,18.17v-.16l-.08.41H637.41l10.12-36a9.23,9.23,0,0,0,.5-2.41c0-.71-.41-1.07-1.24-1.07a3.21,3.21,0,0,0-2.41,1.16,12.69,12.69,0,0,0-2.16,4.06l-1.91,5.07h-1.57l2.32-6.48a13.56,13.56,0,0,1,4.32-6.47,11.35,11.35,0,0,1,7-2.08c3.1,0,5.32.72,6.68,2.16a7.89,7.89,0,0,1,2,5.65,15.1,15.1,0,0,1-.5,3.81l-2.24,8.64a66.49,66.49,0,0,1,6.18-12.49,18.5,18.5,0,0,1,6-6.06,14.06,14.06,0,0,1,7-1.71q8.13,0,8.13,6.89a19.45,19.45,0,0,1-1.08,5.65l-8.21,24.65a8.21,8.21,0,0,0-.42,2c0,1,.47,1.49,1.41,1.49,1.61,0,3.07-1.74,4.4-5.22Z"/><path d="M733.85,110.4h1.58l-2.08,6.06q-3,8.55-11.86,8.55c-3.55,0-6-1.06-7.47-3.16a8.48,8.48,0,0,1-1.25-4.73,20.6,20.6,0,0,1,.42-3.57,24.12,24.12,0,0,1-5.81,8.68,12.19,12.19,0,0,1-8.22,2.78,10.49,10.49,0,0,1-7.68-3q-3-3-3-9.13a36.9,36.9,0,0,1,3.36-14.4,36.13,36.13,0,0,1,9.8-13.37,22.28,22.28,0,0,1,15-5.52c2.65,0,4.34.7,5.06,2.08l3.49-13.2a9.58,9.58,0,0,0,.41-2.32,2.59,2.59,0,0,0-1.28-2.41,9.21,9.21,0,0,0-4.36-.75l.58-1.74a86.23,86.23,0,0,0,12-.91A64.55,64.55,0,0,0,743,57.86l-16.27,58.93a5.06,5.06,0,0,0-.41,1.91c0,1,.47,1.57,1.41,1.57q2.4,0,4.4-5.22Zm-23.24,5.14q2.82-4.31,5.48-13l5.06-18.92a3.27,3.27,0,0,0-.91-1.58,2.64,2.64,0,0,0-1.74-.5q-2.58,0-6.06,4.94a46.83,46.83,0,0,0-6,12.7,52,52,0,0,0-2.49,16,11.19,11.19,0,0,0,.42,3.61,1.54,1.54,0,0,0,1.57,1.12Q707.79,119.86,710.61,115.54Z"/><path d="M772.57,99.07a55.51,55.51,0,0,1-18.47,7.68,39.7,39.7,0,0,0-.24,4.23q0,4.56,1.74,6.31a7,7,0,0,0,5.14,1.74,14.38,14.38,0,0,0,5.36-1.41,20.3,20.3,0,0,0,6.26-4.4l1.33.66a25.85,25.85,0,0,1-8.55,7.93,23.94,23.94,0,0,1-12.45,3.2,16.64,16.64,0,0,1-10.25-3.08,10.13,10.13,0,0,1-4.11-8.63,33.45,33.45,0,0,1,4.2-16A35.43,35.43,0,0,1,754,84.54,27.94,27.94,0,0,1,770,79.6a13.37,13.37,0,0,1,7.47,1.87,6.13,6.13,0,0,1,2.82,5.44Q780.33,93.89,772.57,99.07ZM763,84.75A39.29,39.29,0,0,0,757.76,94a51.84,51.84,0,0,0-3.41,11.29A40.89,40.89,0,0,0,762,99.61a27.49,27.49,0,0,0,5.52-7.56,19.75,19.75,0,0,0,2-8.79c0-1.39-.44-2.08-1.33-2.08C766.66,81.18,764.94,82.37,763,84.75Z"/><path d="M821.42,81.89a8.09,8.09,0,0,1,2.15,5.77,10.8,10.8,0,0,1-2.65,7.3A8.49,8.49,0,0,1,814.2,98,5.55,5.55,0,0,1,808,91.81a9.71,9.71,0,0,1,2.66-6.64A10.93,10.93,0,0,1,817,81.51a11.13,11.13,0,0,0-1.16-.25A10.74,10.74,0,0,0,811,82.34q-2.16,1.08-4.77,5.32a65.37,65.37,0,0,0-5.52,12.94l-6.06,23.24H780l10.12-36a8.23,8.23,0,0,0,.34-2.16q0-1.32-1.08-1.32A3.21,3.21,0,0,0,787,85.5a12.69,12.69,0,0,0-2.16,4.06l-1.91,5.07h-1.57l2.32-6.48q3.08-8.54,12.37-8.55,4,0,5.81,2.16a8.36,8.36,0,0,1,1.82,5.56,14.7,14.7,0,0,1-.08,1.75q2.4-5.23,5.19-7.35a10.84,10.84,0,0,1,6.76-2.12A7.75,7.75,0,0,1,821.42,81.89Z"/><path d="M853.45,85.75c0-.94-.39-1.41-1.16-1.41a3.21,3.21,0,0,0-2.41,1.16,12.69,12.69,0,0,0-2.16,4.06l-1.9,5.07h-1.58l2.32-6.48q3.08-8.54,12.37-8.55c3,0,5.17.72,6.56,2.16a7.61,7.61,0,0,1,2.07,5.48,13.61,13.61,0,0,1-.66,4l-8.63,25.57a8.21,8.21,0,0,0-.42,2c0,1,.47,1.49,1.41,1.49,1.61,0,3.07-1.74,4.4-5.22l1.74-4.65H867l-2.07,6.06Q861.91,125,853,125a9.76,9.76,0,0,1-6.56-2,7.31,7.31,0,0,1-2.32-5.89,20.76,20.76,0,0,1,1.24-6.39L853,87.82A5.9,5.9,0,0,0,853.45,85.75Zm5.85-24.57a11.35,11.35,0,0,1,7.35-2.24,9.1,9.1,0,0,1,5.52,1.41A5,5,0,0,1,874,64.58a7.72,7.72,0,0,1-2.91,6.23,11.09,11.09,0,0,1-7.3,2.4,8.93,8.93,0,0,1-5.44-1.41,4.79,4.79,0,0,1-1.87-4.06A7.93,7.93,0,0,1,859.3,61.18Z"/><path d="M913.79,61.43a7.91,7.91,0,0,1,3.49,6.8,7.44,7.44,0,0,1-1.16,3.9,9.4,9.4,0,0,1-3.2,3.16,8.65,8.65,0,0,1-4.61,1.24,7.46,7.46,0,0,1-4.85-1.45,5.09,5.09,0,0,1-1.79-4.19,9.53,9.53,0,0,1,2-5.85,11.84,11.84,0,0,1,5.44-3.94,5.35,5.35,0,0,0-2.16-.5,6.05,6.05,0,0,0-4.06,1.33q-2.33,2-4,8.21L896,80.77h8.22l-.5,1.66h-8.22l-14.94,55.86a97.42,97.42,0,0,0-15,1.16l15.35-57h-6.63l.49-1.66h6.56q3.74-13.36,10.37-18.18c3.33-2.43,7.5-3.65,12.54-3.65Q910.31,58.94,913.79,61.43Z"/><path d="M69.7,225.79a5.35,5.35,0,0,0-.25,1.58c0,1.27.58,1.9,1.74,1.9a4.64,4.64,0,0,0,3.32-1.78A13.23,13.23,0,0,0,77.17,223l1.33-3.57h1.57L78.5,224a15.4,15.4,0,0,1-5.07,7.43A13,13,0,0,1,65.3,234c-3.1,0-5.41-.81-6.93-2.41A9.16,9.16,0,0,1,56.09,225a21.19,21.19,0,0,1,.83-5.31l8.13-28.3H57.5l.41-1.66h7.64L69,177.57a98.05,98.05,0,0,0,15.11-1.17l-3.9,13.37h8.3l-.25,1.66H79.74Z"/><path d="M128.13,219.4h1.58l-2.08,6.06q-3,8.55-11.87,8.55c-3,0-5.18-.71-6.6-2.12a7.79,7.79,0,0,1-2.11-5.77,20.16,20.16,0,0,1,1.16-6.39l7.14-21.5A10.21,10.21,0,0,0,116,195c0-.83-.28-1.25-.83-1.25q-2.73,0-7.43,9.21a149.24,149.24,0,0,0-8.67,21.58l-2.24,7.72-.08.33v-.08l-.09.33H82l16.44-55.36a9.58,9.58,0,0,0,.41-2.32,2.57,2.57,0,0,0-1.29-2.41,9.17,9.17,0,0,0-4.35-.75l.58-1.74a84.08,84.08,0,0,0,11.87-.91A65,65,0,0,0,116,166.86l-10.71,36.6q4-8.55,7.85-11.7a13.81,13.81,0,0,1,9-3.16q8.14,0,8.14,6.89a19.45,19.45,0,0,1-1.08,5.65L121,225.79a8.06,8.06,0,0,0-.41,2c0,1,.47,1.49,1.41,1.49q2.4,0,4.4-5.22Z"/><path d="M167.1,208.07a55.59,55.59,0,0,1-18.47,7.68,37.34,37.34,0,0,0-.25,4.23q0,4.56,1.74,6.31a7,7,0,0,0,5.15,1.74,14.34,14.34,0,0,0,5.35-1.41,20.22,20.22,0,0,0,6.27-4.4l1.33.66a26,26,0,0,1-8.55,7.93,24,24,0,0,1-12.45,3.2A16.62,16.62,0,0,1,137,230.93a10.13,10.13,0,0,1-4.11-8.63,33.55,33.55,0,0,1,4.19-16,35.45,35.45,0,0,1,11.46-12.79,27.94,27.94,0,0,1,16.06-4.94,13.42,13.42,0,0,1,7.47,1.87,6.13,6.13,0,0,1,2.82,5.44Q174.86,202.89,167.1,208.07Zm-9.55-14.32a39.65,39.65,0,0,0-5.27,9.21,51.8,51.8,0,0,0-3.4,11.29,41.22,41.22,0,0,0,7.64-5.64,27.25,27.25,0,0,0,5.51-7.56,19.63,19.63,0,0,0,2-8.79c0-1.39-.45-2.08-1.33-2.08Q160.42,190.18,157.55,193.75Z"/><path d="M215.94,190.89a8,8,0,0,1,2.16,5.77,10.8,10.8,0,0,1-2.66,7.3,8.49,8.49,0,0,1-6.72,3.07,5.54,5.54,0,0,1-6.22-6.22,9.74,9.74,0,0,1,2.65-6.64,10.93,10.93,0,0,1,6.39-3.66,10.08,10.08,0,0,0-1.16-.25,10.73,10.73,0,0,0-4.81,1.08q-2.16,1.08-4.78,5.32a64.85,64.85,0,0,0-5.51,12.94l-6.06,23.24H174.53l10.12-36a8.61,8.61,0,0,0,.33-2.16q0-1.32-1.08-1.32a3.2,3.2,0,0,0-2.4,1.16,12.69,12.69,0,0,0-2.16,4.06l-1.91,5.07h-1.58l2.33-6.48q3.06-8.53,12.36-8.55,4,0,5.81,2.16a8.32,8.32,0,0,1,1.83,5.56,14.7,14.7,0,0,1-.08,1.75q2.4-5.23,5.18-7.35a10.87,10.87,0,0,1,6.77-2.12A7.73,7.73,0,0,1,215.94,190.89Z"/><path d="M248.85,208.07a55.51,55.51,0,0,1-18.47,7.68,39.7,39.7,0,0,0-.24,4.23q0,4.56,1.74,6.31A7,7,0,0,0,237,228a14.38,14.38,0,0,0,5.36-1.41,20.3,20.3,0,0,0,6.26-4.4l1.33.66a25.85,25.85,0,0,1-8.55,7.93A23.94,23.94,0,0,1,229,234a16.64,16.64,0,0,1-10.25-3.08,10.13,10.13,0,0,1-4.11-8.63,33.45,33.45,0,0,1,4.2-16,35.43,35.43,0,0,1,11.45-12.79,27.94,27.94,0,0,1,16.06-4.94,13.37,13.37,0,0,1,7.47,1.87,6.13,6.13,0,0,1,2.82,5.44Q256.61,202.89,248.85,208.07Zm-9.54-14.32A39.29,39.29,0,0,0,234,203a51.84,51.84,0,0,0-3.41,11.29,40.89,40.89,0,0,0,7.64-5.64,27.49,27.49,0,0,0,5.52-7.56,19.75,19.75,0,0,0,2-8.79c0-1.39-.44-2.08-1.33-2.08C242.94,190.18,241.22,191.37,239.31,193.75Z"/><path d="M288.32,194.75q0-1.41-1.17-1.41a3.2,3.2,0,0,0-2.4,1.16,12.69,12.69,0,0,0-2.16,4.06l-1.91,5.07H279.1l2.33-6.48q3.06-8.53,12.36-8.55,4.48,0,6.56,2.16a7.61,7.61,0,0,1,2.08,5.48,13.65,13.65,0,0,1-.67,4l-8.63,25.57a8.06,8.06,0,0,0-.41,2c0,1,.47,1.49,1.41,1.49q2.4,0,4.4-5.22l1.74-4.65h1.58l-2.08,6.06q-3,8.55-11.87,8.55a9.78,9.78,0,0,1-6.56-2,7.31,7.31,0,0,1-2.32-5.89,20.82,20.82,0,0,1,1.25-6.39l7.63-22.91A5.71,5.71,0,0,0,288.32,194.75Zm5.85-24.57a11.3,11.3,0,0,1,7.34-2.24,9.06,9.06,0,0,1,5.52,1.41,5,5,0,0,1,1.87,4.23,7.74,7.74,0,0,1-2.9,6.23,11.11,11.11,0,0,1-7.31,2.4,8.93,8.93,0,0,1-5.44-1.41,4.78,4.78,0,0,1-1.86-4.06A7.9,7.9,0,0,1,294.17,170.18Z"/><path d="M315.12,232.26a5.79,5.79,0,0,0,4.28-1.7,6.24,6.24,0,0,0,1.7-4.61,14.4,14.4,0,0,0-1.24-5.6,53,53,0,0,0-3.57-6.76,61.5,61.5,0,0,1-3.86-6.89,13.34,13.34,0,0,1-1.12-5.56,11.17,11.17,0,0,1,4.23-9q4.23-3.48,12.28-3.49A21.35,21.35,0,0,1,338,190.8q4.07,2.2,4.07,7.35a8.77,8.77,0,0,1-1.58,5.1,5,5,0,0,1-4.31,2.29,4.55,4.55,0,0,1-3.9-1.95,8.32,8.32,0,0,1-1.41-5,13,13,0,0,1,.78-4.52,10,10,0,0,1,1.87-3.28,4.87,4.87,0,0,0-2.07-.33,5.55,5.55,0,0,0-4.4,1.7,7.26,7.26,0,0,0-1.5,4.94,9.41,9.41,0,0,0,.92,4c.6,1.3,1.6,3.11,3,5.43l1,1.66a56.81,56.81,0,0,1,3.86,7.68,15.89,15.89,0,0,1,1.12,5.69,11,11,0,0,1-1.91,6.3,12.87,12.87,0,0,1-5.64,4.49,25.83,25.83,0,0,1-20.09-.79q-4.32-2.44-4.32-8.18a8.77,8.77,0,0,1,1.54-5.27,4.82,4.82,0,0,1,4.11-2.12,4.67,4.67,0,0,1,3.9,2,8.6,8.6,0,0,1,1.49,5.31,12.7,12.7,0,0,1-.62,4.15c-.41,1.22-1,2.63-1.7,4.23A6.76,6.76,0,0,0,315.12,232.26Z"/><path d="M432.15,219.4h1.58l-2.07,6.06q-3,8.55-11.87,8.55c-3.71,0-6.28-1.17-7.72-3.49A8.6,8.6,0,0,1,411,226.2a21,21,0,0,1,1.24-6.47l7.14-21.5a8.43,8.43,0,0,0,.58-2.65c0-.67-.22-1-.66-1q-2.58,0-6.47,6.23t-8.3,20.25l-3.41,11.78H386.34l10-34.61c.11-.33.25-.8.41-1.41a5.64,5.64,0,0,0,.25-1.41.74.74,0,0,0-.83-.83q-3,0-6.68,6.77a117.19,117.19,0,0,0-7.68,19l-3.23,12.53H363.85l10.12-36a8.39,8.39,0,0,0,.33-2.07,1.59,1.59,0,0,0-.29-1.08,1.2,1.2,0,0,0-.95-.33c-1.61,0-3.07,1.74-4.4,5.22l-1.91,5.07h-1.58l2.33-6.48a12.39,12.39,0,0,1,4.73-6.47,12.86,12.86,0,0,1,7.22-2.08c2.88,0,4.95.7,6.22,2.08a7.74,7.74,0,0,1,1.91,5.48,18.49,18.49,0,0,1-.58,4.06L386,204q3.56-8.13,7.8-11.74a15.06,15.06,0,0,1,10.12-3.62q7.31,0,7.31,6.64a21.3,21.3,0,0,1-1,5.9l-.41,1.57q3.65-8,7.76-11a15.19,15.19,0,0,1,9.34-3.08q7.47,0,7.47,6.56a19.36,19.36,0,0,1-1.17,6L425,225.79a8.21,8.21,0,0,0-.42,2c0,1,.47,1.49,1.41,1.49,1.61,0,3.07-1.74,4.4-5.22Z"/><path d="M441,205.58a30.36,30.36,0,0,1,9.75-12.12,25.87,25.87,0,0,1,15.9-4.86q7.22,0,11,3.66t3.77,10.45A35.08,35.08,0,0,1,478.14,217a30.23,30.23,0,0,1-9.76,12.12A25.82,25.82,0,0,1,452.49,234q-7.23,0-11-3.66t-3.78-10.45A34.93,34.93,0,0,1,441,205.58Zm19.34-9.09a70.47,70.47,0,0,0-6.18,15.06,57.2,57.2,0,0,0-2.62,16.15,11.92,11.92,0,0,0,.38,3.61c.25.69.65,1,1.2,1,1.49,0,3.42-2,5.77-6A67.54,67.54,0,0,0,465,211.6a57.65,57.65,0,0,0,2.61-16.52,12.71,12.71,0,0,0-.37-3.86c-.25-.64-.59-1-1-1Q463.86,190.26,460.29,196.49Z"/><path d="M525.11,190.89a8,8,0,0,1,2.16,5.77,10.8,10.8,0,0,1-2.65,7.3,8.52,8.52,0,0,1-6.73,3.07,5.54,5.54,0,0,1-6.22-6.22,9.74,9.74,0,0,1,2.65-6.64,10.93,10.93,0,0,1,6.39-3.66,10.08,10.08,0,0,0-1.16-.25,10.73,10.73,0,0,0-4.81,1.08q-2.16,1.08-4.77,5.32a64.19,64.19,0,0,0-5.52,12.94l-6.06,23.24H483.7l10.12-36a8.61,8.61,0,0,0,.33-2.16c0-.88-.36-1.32-1.07-1.32a3.21,3.21,0,0,0-2.41,1.16,12.69,12.69,0,0,0-2.16,4.06l-1.91,5.07H485l2.33-6.48q3.06-8.53,12.36-8.55,4,0,5.82,2.16a8.36,8.36,0,0,1,1.82,5.56,14.7,14.7,0,0,1-.08,1.75q2.4-5.23,5.19-7.35a10.82,10.82,0,0,1,6.76-2.12A7.73,7.73,0,0,1,525.11,190.89Z"/><path d="M558,208.07a55.51,55.51,0,0,1-18.47,7.68,39.7,39.7,0,0,0-.24,4.23q0,4.56,1.74,6.31a7,7,0,0,0,5.14,1.74,14.38,14.38,0,0,0,5.36-1.41,20.3,20.3,0,0,0,6.26-4.4l1.33.66a25.85,25.85,0,0,1-8.55,7.93,23.94,23.94,0,0,1-12.45,3.2,16.64,16.64,0,0,1-10.25-3.08,10.13,10.13,0,0,1-4.11-8.63,33.45,33.45,0,0,1,4.2-16,35.43,35.43,0,0,1,11.45-12.79,27.94,27.94,0,0,1,16.06-4.94,13.37,13.37,0,0,1,7.47,1.87,6.13,6.13,0,0,1,2.82,5.44Q565.78,202.89,558,208.07Zm-9.54-14.32a39.29,39.29,0,0,0-5.27,9.21,51.84,51.84,0,0,0-3.41,11.29,40.89,40.89,0,0,0,7.64-5.64,27.49,27.49,0,0,0,5.52-7.56,19.75,19.75,0,0,0,2-8.79c0-1.39-.44-2.08-1.33-2.08C552.11,190.18,550.39,191.37,548.48,193.75Z"/><path d="M602.55,225.79a5.35,5.35,0,0,0-.25,1.58c0,1.27.58,1.9,1.74,1.9a4.64,4.64,0,0,0,3.32-1.78A13.07,13.07,0,0,0,610,223l1.33-3.57h1.57L611.35,224a15.4,15.4,0,0,1-5.07,7.43,13,13,0,0,1-8.13,2.62c-3.1,0-5.41-.81-6.93-2.41a9.16,9.16,0,0,1-2.28-6.56,21.19,21.19,0,0,1,.83-5.31l8.13-28.3h-7.55l.41-1.66h7.64l3.49-12.2A97.92,97.92,0,0,0,617,176.4l-3.9,13.37h8.3l-.25,1.66h-8.55Z"/><path d="M620.56,205.58a30.36,30.36,0,0,1,9.75-12.12,25.85,25.85,0,0,1,15.9-4.86q7.21,0,11,3.66T661,202.71A34.93,34.93,0,0,1,657.74,217,30.29,30.29,0,0,1,648,229.15,25.82,25.82,0,0,1,632.1,234q-7.23,0-11-3.66t-3.78-10.45A34.93,34.93,0,0,1,620.56,205.58Zm19.34-9.09a71,71,0,0,0-6.19,15.06,57.52,57.52,0,0,0-2.61,16.15,12,12,0,0,0,.37,3.61c.25.69.65,1,1.21,1q2.24,0,5.77-6a68,68,0,0,0,6.14-14.73,57.65,57.65,0,0,0,2.61-16.52,12.71,12.71,0,0,0-.37-3.86c-.25-.64-.6-1-1-1Q643.47,190.26,639.9,196.49Z"/><path d="M698.16,227.37a2,2,0,0,0,.46,1.45,1.53,1.53,0,0,0,1.12.45,3.15,3.15,0,0,0,2-1,11.24,11.24,0,0,0,2.28-4.19l1.75-4.65h1.57l-2.07,6.06c-1.11,3.21-2.74,5.43-4.9,6.68a13.61,13.61,0,0,1-6.89,1.87,9.13,9.13,0,0,1-6.47-2.16,8.09,8.09,0,0,1-2.33-6.23,21,21,0,0,1,1-5.89l12.7-42.25a9.11,9.11,0,0,0,.41-2.32,2.59,2.59,0,0,0-1.28-2.41,9.21,9.21,0,0,0-4.36-.75l.58-1.74a84,84,0,0,0,11.87-.91,65,65,0,0,0,10.37-2.49l-17.51,58.93A5.7,5.7,0,0,0,698.16,227.37Z"/><path d="M721.57,194.75c0-.94-.39-1.41-1.16-1.41A3.21,3.21,0,0,0,718,194.5a12.69,12.69,0,0,0-2.16,4.06l-1.91,5.07h-1.57l2.32-6.48q3.08-8.53,12.37-8.55c3,0,5.17.72,6.55,2.16a7.57,7.57,0,0,1,2.08,5.48,13.32,13.32,0,0,1-.67,4l-8.63,25.57a8.06,8.06,0,0,0-.41,2c0,1,.47,1.49,1.41,1.49q2.4,0,4.4-5.22l1.74-4.65h1.58L733,225.46Q730,234,721.15,234a9.73,9.73,0,0,1-6.55-2,7.32,7.32,0,0,1-2.33-5.89,20.82,20.82,0,0,1,1.25-6.39l7.63-22.91A5.71,5.71,0,0,0,721.57,194.75Zm5.85-24.57a11.31,11.31,0,0,1,7.35-2.24,9.1,9.1,0,0,1,5.52,1.41,5,5,0,0,1,1.86,4.23,7.74,7.74,0,0,1-2.9,6.23,11.09,11.09,0,0,1-7.31,2.4,8.88,8.88,0,0,1-5.43-1.41,4.76,4.76,0,0,1-1.87-4.06A7.93,7.93,0,0,1,727.42,170.18Z"/><path d="M781.91,170.43a7.92,7.92,0,0,1,3.48,6.8,7.35,7.35,0,0,1-1.16,3.9,9.37,9.37,0,0,1-3.19,3.16,8.65,8.65,0,0,1-4.61,1.24,7.42,7.42,0,0,1-4.85-1.45,5.06,5.06,0,0,1-1.79-4.19,9.53,9.53,0,0,1,2-5.85,11.79,11.79,0,0,1,5.44-3.94,5.42,5.42,0,0,0-2.16-.5,6.08,6.08,0,0,0-4.07,1.33q-2.33,2-4,8.21l-2.82,10.63h8.21l-.49,1.66h-8.22l-14.94,55.86a97.32,97.32,0,0,0-15,1.16l15.35-57H742.4l.5-1.66h6.56q3.74-13.36,10.37-18.18,5-3.65,12.53-3.65Q778.42,167.94,781.91,170.43Z"/><path d="M802,208.07a55.54,55.54,0,0,1-18.46,7.68,37.34,37.34,0,0,0-.25,4.23q0,4.56,1.74,6.31a7,7,0,0,0,5.15,1.74,14.38,14.38,0,0,0,5.35-1.41,20.33,20.33,0,0,0,6.27-4.4l1.32.66a25.85,25.85,0,0,1-8.55,7.93,23.93,23.93,0,0,1-12.44,3.2,16.65,16.65,0,0,1-10.26-3.08,10.13,10.13,0,0,1-4.1-8.63,33.43,33.43,0,0,1,4.19-16,35.43,35.43,0,0,1,11.45-12.79,28,28,0,0,1,16.06-4.94,13.37,13.37,0,0,1,7.47,1.87,6.13,6.13,0,0,1,2.82,5.44Q809.71,202.89,802,208.07Zm-9.54-14.32a39.29,39.29,0,0,0-5.27,9.21,51.84,51.84,0,0,0-3.41,11.29,40.89,40.89,0,0,0,7.64-5.64,27.29,27.29,0,0,0,5.52-7.56,19.62,19.62,0,0,0,2-8.79c0-1.39-.44-2.08-1.32-2.08Q795.27,190.18,792.41,193.75Z"/><path d="M69.7,334.79a5.35,5.35,0,0,0-.25,1.58c0,1.27.58,1.9,1.74,1.9a4.64,4.64,0,0,0,3.32-1.78A13.23,13.23,0,0,0,77.17,332l1.33-3.57h1.57L78.5,333a15.4,15.4,0,0,1-5.07,7.43A13,13,0,0,1,65.3,343c-3.1,0-5.41-.81-6.93-2.41A9.16,9.16,0,0,1,56.09,334a21.19,21.19,0,0,1,.83-5.31l8.13-28.3H57.5l.41-1.66h7.64L69,286.57a98.05,98.05,0,0,0,15.11-1.17l-3.9,13.37h8.3l-.25,1.66H79.74Z"/><path d="M128.13,328.4h1.58l-2.08,6.06q-3,8.55-11.87,8.55c-3,0-5.18-.71-6.6-2.12a7.79,7.79,0,0,1-2.11-5.77,20.16,20.16,0,0,1,1.16-6.39l7.14-21.5A10.21,10.21,0,0,0,116,304c0-.83-.28-1.25-.83-1.25q-2.73,0-7.43,9.21a149.24,149.24,0,0,0-8.67,21.58l-2.24,7.72-.08.33v-.08l-.09.33H82l16.44-55.36a9.58,9.58,0,0,0,.41-2.32,2.57,2.57,0,0,0-1.29-2.41,9.17,9.17,0,0,0-4.35-.75l.58-1.74a84.08,84.08,0,0,0,11.87-.91A65,65,0,0,0,116,275.86l-10.71,36.6q4-8.55,7.85-11.7a13.81,13.81,0,0,1,9-3.16q8.14,0,8.14,6.89a19.45,19.45,0,0,1-1.08,5.65L121,334.79a8.06,8.06,0,0,0-.41,2c0,1,.47,1.49,1.41,1.49q2.4,0,4.4-5.22Z"/><path d="M176.35,328.4h1.58l-2.08,6.06Q172.87,343,164,343q-5.07,0-7.23-2.91a8.78,8.78,0,0,1-1.41-5.06,8.39,8.39,0,0,1,.09-1.41q-2,5.06-5.15,7.22a12.88,12.88,0,0,1-7.47,2.16q-5.15,0-7.72-2.66t-2.57-7.72a35.2,35.2,0,0,1,4.19-16A44.08,44.08,0,0,1,147.18,303q6.25-5.4,12-5.4c3.16,0,4.87,1.58,5.15,4.74l1.08-3.49a96.34,96.34,0,0,0,15-1.25l-11.21,37.19a6.83,6.83,0,0,0-.33,2c0,1,.44,1.49,1.33,1.49q2.4,0,4.4-5.22Zm-22.82,6.31a44.1,44.1,0,0,0,4-9.55l6-19.92a7.47,7.47,0,0,0,.08-1.24c0-1.55-.53-2.33-1.58-2.33q-2.33,0-5.68,4.82a46.62,46.62,0,0,0-5.77,12.11A45.58,45.58,0,0,0,148.13,333a9.71,9.71,0,0,0,.42,3.41,1.49,1.49,0,0,0,1.49,1C151.2,337.36,152.37,336.48,153.53,334.71Z"/><path d="M227.81,328.4h1.58l-2.08,6.06q-3,8.55-11.87,8.55-5.31,0-7.47-3a7.6,7.6,0,0,1-1.41-4.65,22.05,22.05,0,0,1,1.33-6.64l7.14-21.5a10.21,10.21,0,0,0,.66-3.23c0-.83-.27-1.25-.83-1.25q-2.16,0-5.56,5.81a105.91,105.91,0,0,0-6.93,14.86,167.28,167.28,0,0,0-5.93,18.17v-.16l-.09.41H181.66l10.13-36a9.68,9.68,0,0,0,.5-2.41c0-.71-.42-1.07-1.25-1.07a3.19,3.19,0,0,0-2.4,1.16,12.69,12.69,0,0,0-2.16,4.06l-1.91,5.07H183l2.32-6.48a13.7,13.7,0,0,1,4.32-6.47,11.4,11.4,0,0,1,7.06-2.08q4.63,0,6.68,2.16a7.92,7.92,0,0,1,2,5.65,15.1,15.1,0,0,1-.5,3.81l-2.24,8.64a67,67,0,0,1,6.19-12.49,18.57,18.57,0,0,1,6-6.06,14.09,14.09,0,0,1,7-1.71q8.14,0,8.14,6.89a19.45,19.45,0,0,1-1.08,5.65l-8.22,24.65a8.57,8.57,0,0,0-.41,2c0,1,.47,1.49,1.41,1.49q2.4,0,4.4-5.22Z"/><path d="M297.11,301.09q2.82,3.48,2.83,10a35.62,35.62,0,0,1-3.28,14.28,33.41,33.41,0,0,1-9.42,12.53A21.55,21.55,0,0,1,273.13,343a13.63,13.63,0,0,1-3.74-.5,9.39,9.39,0,0,1-2.9-1.33,13.22,13.22,0,0,0-3.24-.42,30.39,30.39,0,0,0-10.54,2.41l-1.25-.58a27.89,27.89,0,0,0,1.83-4.9l15.27-51.21a9.22,9.22,0,0,0,.42-2.32,2.57,2.57,0,0,0-1.29-2.41,9.21,9.21,0,0,0-4.36-.75l.58-1.74a84,84,0,0,0,11.87-.91,65.38,65.38,0,0,0,10.38-2.49L277.28,306a19.66,19.66,0,0,1,5.14-6.35,10.05,10.05,0,0,1,6.14-2Q294.29,297.6,297.11,301.09Zm-20.62,34a45.73,45.73,0,0,0,5.77-12.82,51.25,51.25,0,0,0,2.24-14.36,10.11,10.11,0,0,0-.46-3.74,1.57,1.57,0,0,0-1.53-1c-1.06,0-2.16.67-3.32,2a24.17,24.17,0,0,0-3.41,5.68l-8.55,29.05a9,9,0,0,0,2.16.34Q273,340.27,276.49,335.08Z"/><path d="M335.83,317.07a55.54,55.54,0,0,1-18.46,7.68,37.34,37.34,0,0,0-.25,4.23q0,4.56,1.74,6.31A7,7,0,0,0,324,337a14.38,14.38,0,0,0,5.35-1.41,20.45,20.45,0,0,0,6.27-4.4l1.32.66a25.85,25.85,0,0,1-8.55,7.93A23.94,23.94,0,0,1,316,343a16.64,16.64,0,0,1-10.25-3.08,10.15,10.15,0,0,1-4.1-8.63,33.43,33.43,0,0,1,4.19-16,35.43,35.43,0,0,1,11.45-12.79,28,28,0,0,1,16.06-4.94,13.37,13.37,0,0,1,7.47,1.87,6.13,6.13,0,0,1,2.82,5.44Q343.59,311.89,335.83,317.07Zm-9.54-14.32A39.29,39.29,0,0,0,321,312a51.84,51.84,0,0,0-3.41,11.29,40.89,40.89,0,0,0,7.64-5.64,27.49,27.49,0,0,0,5.52-7.56,19.62,19.62,0,0,0,2-8.79c0-1.39-.44-2.08-1.32-2.08Q329.16,299.18,326.29,302.75Z"/><path d="M354,303.75c0-.94-.39-1.41-1.16-1.41a3.21,3.21,0,0,0-2.41,1.16,12.69,12.69,0,0,0-2.16,4.06l-1.91,5.07h-1.58l2.33-6.48q3.06-8.53,12.37-8.55c3,0,5.17.72,6.55,2.16a7.57,7.57,0,0,1,2.08,5.48,13.32,13.32,0,0,1-.67,4l-8.63,25.57a8.06,8.06,0,0,0-.41,2c0,1,.47,1.49,1.41,1.49q2.4,0,4.4-5.22l1.74-4.65h1.58l-2.08,6.06q-3,8.55-11.87,8.55a9.73,9.73,0,0,1-6.55-2,7.32,7.32,0,0,1-2.33-5.89,20.82,20.82,0,0,1,1.25-6.39l7.63-22.91A5.71,5.71,0,0,0,354,303.75Zm5.85-24.57a11.3,11.3,0,0,1,7.34-2.24,9.06,9.06,0,0,1,5.52,1.41,5,5,0,0,1,1.87,4.23,7.74,7.74,0,0,1-2.9,6.23,11.11,11.11,0,0,1-7.31,2.4,8.88,8.88,0,0,1-5.43-1.41,4.76,4.76,0,0,1-1.87-4.06A7.9,7.9,0,0,1,359.82,279.18Z"/><path d="M417.3,328.4h1.57l-2.07,6.06q-3,8.55-11.87,8.55-5.31,0-7.47-3a7.6,7.6,0,0,1-1.41-4.65,21.74,21.74,0,0,1,1.33-6.64l7.13-21.5a10,10,0,0,0,.67-3.23c0-.83-.28-1.25-.83-1.25q-2.16,0-5.56,5.81a105.91,105.91,0,0,0-6.93,14.86,167.36,167.36,0,0,0-5.94,18.17v-.16l-.08.41H371.15l10.12-36a9.23,9.23,0,0,0,.5-2.41c0-.71-.41-1.07-1.24-1.07a3.21,3.21,0,0,0-2.41,1.16,12.69,12.69,0,0,0-2.16,4.06l-1.91,5.07h-1.57l2.32-6.48a13.56,13.56,0,0,1,4.32-6.47,11.35,11.35,0,0,1,7.05-2.08q4.65,0,6.68,2.16a7.89,7.89,0,0,1,2,5.65,15.1,15.1,0,0,1-.5,3.81l-2.24,8.64a67.74,67.74,0,0,1,6.18-12.49,18.5,18.5,0,0,1,6-6.06,14.09,14.09,0,0,1,7-1.71q8.13,0,8.13,6.89a19.72,19.72,0,0,1-1.07,5.65l-8.22,24.65a8.21,8.21,0,0,0-.42,2c0,1,.47,1.49,1.41,1.49q2.42,0,4.4-5.22Z"/><path d="M466.18,295.32a6.08,6.08,0,0,1,.29,7.64,3.69,3.69,0,0,1-2.86,1.37A3.83,3.83,0,0,1,460.7,303a5.4,5.4,0,0,1-1.24-3.78,11.36,11.36,0,0,1,.75-3.82,11.29,11.29,0,0,0-5.15,3.9,8.25,8.25,0,0,1,5.06,7.89,13.27,13.27,0,0,1-2,6.89,18.34,18.34,0,0,1-5.85,5.89,23.65,23.65,0,0,1-8.8,3.4,36.91,36.91,0,0,0-5.77,2.66c-1.24.78-1.87,1.49-1.87,2.16a1.24,1.24,0,0,0,.67,1.08,12.49,12.49,0,0,0,2.24,1l7.55,2.83a21.47,21.47,0,0,1,6.85,3.9,7.91,7.91,0,0,1,2.61,6.22,9.86,9.86,0,0,1-3.94,7.89,25.87,25.87,0,0,1-10,4.81,47.52,47.52,0,0,1-12.07,1.58,34,34,0,0,1-11.46-1.75c-3.26-1.16-4.9-2.71-4.9-4.64s1.64-3.34,4.9-4.36a34.88,34.88,0,0,1,10.54-1.54,16,16,0,0,1,2,.09l.09,1.24c-3.27,1.83-4.9,3.76-4.9,5.81a3.17,3.17,0,0,0,1.41,2.74,7,7,0,0,0,4.07,1,18.64,18.64,0,0,0,5.77-1,14.28,14.28,0,0,0,5-2.74,5,5,0,0,0,2-3.82,2.4,2.4,0,0,0-1.12-2.24,19.92,19.92,0,0,0-3.69-1.49l-11.29-3.57a9.61,9.61,0,0,1-3.82-2.2,4.72,4.72,0,0,1-1.49-3.53c0-2.21,1.32-4.16,4-5.85a75.49,75.49,0,0,1,12.28-5.77h-1q-6.15,0-9.88-2.36a7.85,7.85,0,0,1-3.73-7.1,13.76,13.76,0,0,1,2.69-7.93,19.66,19.66,0,0,1,7.72-6.3,26,26,0,0,1,11.58-2.45,20.93,20.93,0,0,1,6.72.91,12.62,12.62,0,0,1,3.95-3.53,9.64,9.64,0,0,1,4.77-1.28A5.62,5.62,0,0,1,466.18,295.32Zm-27.47,26a1.24,1.24,0,0,0,1.24,1c1.11,0,2.13-.87,3.08-2.62a24.65,24.65,0,0,0,2.24-6.88,47.53,47.53,0,0,0,.83-9,13.74,13.74,0,0,0-.34-3.4,1.42,1.42,0,0,0-1.41-1.25c-.94,0-1.88.86-2.82,2.57a24.79,24.79,0,0,0-2.28,6.81,44.91,44.91,0,0,0-.87,9.05A13.86,13.86,0,0,0,438.71,321.34Z"/><path d="M525.69,299.89a8,8,0,0,1,2.16,5.77,10.8,10.8,0,0,1-2.66,7.3,8.49,8.49,0,0,1-6.72,3.07,5.54,5.54,0,0,1-6.22-6.22,9.74,9.74,0,0,1,2.65-6.64,10.93,10.93,0,0,1,6.39-3.66,10.08,10.08,0,0,0-1.16-.25,10.73,10.73,0,0,0-4.81,1.08q-2.16,1.08-4.78,5.32A64.85,64.85,0,0,0,505,318.6L499,341.84H484.28l10.12-36a8.61,8.61,0,0,0,.33-2.16q0-1.32-1.08-1.32a3.2,3.2,0,0,0-2.4,1.16,12.69,12.69,0,0,0-2.16,4.06l-1.91,5.07H485.6l2.33-6.48q3.06-8.53,12.36-8.55,4,0,5.81,2.16a8.32,8.32,0,0,1,1.83,5.56,14.7,14.7,0,0,1-.08,1.75q2.4-5.24,5.19-7.35a10.82,10.82,0,0,1,6.76-2.12A7.73,7.73,0,0,1,525.69,299.89Z"/><path d="M558.6,317.07a55.51,55.51,0,0,1-18.47,7.68,39.7,39.7,0,0,0-.24,4.23q0,4.56,1.74,6.31a7,7,0,0,0,5.14,1.74,14.38,14.38,0,0,0,5.36-1.41,20.3,20.3,0,0,0,6.26-4.4l1.33.66a25.85,25.85,0,0,1-8.55,7.93,23.94,23.94,0,0,1-12.45,3.2,16.64,16.64,0,0,1-10.25-3.08,10.13,10.13,0,0,1-4.11-8.63,33.45,33.45,0,0,1,4.2-16A35.43,35.43,0,0,1,540,302.54a27.94,27.94,0,0,1,16.06-4.94,13.37,13.37,0,0,1,7.47,1.87,6.13,6.13,0,0,1,2.82,5.44Q566.36,311.89,558.6,317.07Zm-9.54-14.32a39.29,39.29,0,0,0-5.27,9.21,51.84,51.84,0,0,0-3.41,11.29,40.89,40.89,0,0,0,7.64-5.64,27.49,27.49,0,0,0,5.52-7.56,19.75,19.75,0,0,0,2-8.79c0-1.39-.44-2.08-1.33-2.08C552.69,299.18,551,300.37,549.06,302.75Z"/><path d="M609,328.4h1.58l-2.07,6.06q-3,8.55-11.87,8.55-5.07,0-7.22-2.91A8.71,8.71,0,0,1,588,335a8.39,8.39,0,0,1,.09-1.41q-2,5.06-5.15,7.22a12.88,12.88,0,0,1-7.47,2.16q-5.15,0-7.72-2.66t-2.57-7.72a35.2,35.2,0,0,1,4.19-16A44.08,44.08,0,0,1,579.85,303q6.27-5.4,12-5.4c3.16,0,4.87,1.58,5.15,4.74l1.08-3.49a96.34,96.34,0,0,0,15-1.25l-11.2,37.19a6.55,6.55,0,0,0-.34,2c0,1,.45,1.49,1.33,1.49,1.61,0,3.07-1.74,4.4-5.22Zm-22.82,6.31a44.1,44.1,0,0,0,4-9.55l6-19.92a7.47,7.47,0,0,0,.08-1.24c0-1.55-.53-2.33-1.58-2.33q-2.32,0-5.68,4.82a46.62,46.62,0,0,0-5.77,12.11A45.58,45.58,0,0,0,580.8,333a9.71,9.71,0,0,0,.42,3.41,1.49,1.49,0,0,0,1.49,1C583.87,337.36,585,336.48,586.2,334.71Z"/><path d="M627.86,336.37a2,2,0,0,0,.46,1.45,1.53,1.53,0,0,0,1.12.45,3.15,3.15,0,0,0,1.95-1,11.24,11.24,0,0,0,2.28-4.19l1.75-4.65H637l-2.07,6.06c-1.11,3.21-2.74,5.43-4.9,6.68a13.61,13.61,0,0,1-6.89,1.87,9.13,9.13,0,0,1-6.47-2.16,8.09,8.09,0,0,1-2.33-6.23,21,21,0,0,1,1-5.89L628,286.48a9.11,9.11,0,0,0,.41-2.32,2.59,2.59,0,0,0-1.28-2.41,9.21,9.21,0,0,0-4.36-.75l.58-1.74a84,84,0,0,0,11.87-.91,65,65,0,0,0,10.37-2.49l-17.51,58.93A5.7,5.7,0,0,0,627.86,336.37Z"/><path d="M654.09,336.37a2,2,0,0,0,.46,1.45,1.52,1.52,0,0,0,1.12.45,3.15,3.15,0,0,0,2-1,11.39,11.39,0,0,0,2.28-4.19l1.74-4.65h1.58l-2.07,6.06c-1.11,3.21-2.74,5.43-4.9,6.68a13.64,13.64,0,0,1-6.89,1.87,9.11,9.11,0,0,1-6.47-2.16,8.09,8.09,0,0,1-2.33-6.23,20.61,20.61,0,0,1,1-5.89l12.7-42.25a9.58,9.58,0,0,0,.41-2.32,2.57,2.57,0,0,0-1.29-2.41A9.17,9.17,0,0,0,649,281l.58-1.74a84,84,0,0,0,11.87-.91,65,65,0,0,0,10.37-2.49l-17.51,58.93A5.35,5.35,0,0,0,654.09,336.37Z"/><path d="M706,305.66q0,7.21-4.77,17.47a83,83,0,0,1-11.58,18.38A54.16,54.16,0,0,1,678.7,351.6a34.16,34.16,0,0,1-11.33,5.18,21.41,21.41,0,0,1-4.9.67,7.94,7.94,0,0,1-5.1-1.45,4.93,4.93,0,0,1-1.79-4,5.74,5.74,0,0,1,1.83-4.27,6.55,6.55,0,0,1,4.81-1.79q6,0,10.21,7.3a36.35,36.35,0,0,0,9.63-6.22l-6.72-41.09a17.77,17.77,0,0,0-.71-2.86,1,1,0,0,0-1-.7,1.76,1.76,0,0,0-1.45,1,31.67,31.67,0,0,0-1.86,4.23l-1.75,4.65H667l2.07-6.06q1.66-4.72,4.27-6.64a10.66,10.66,0,0,1,6.44-1.91,9.37,9.37,0,0,1,6.55,2.2q2.41,2.2,3.24,7.68L693.1,334a73.35,73.35,0,0,0,8.72-17.1,18.47,18.47,0,0,1-6.27-5.47,12,12,0,0,1-2.37-7.06,7,7,0,0,1,1.7-5,6.22,6.22,0,0,1,4.78-1.83Q706,297.6,706,305.66Z"/><path d="M719.24,346.08a20.89,20.89,0,0,1-9.13,7.22l-.41-1.5a17.24,17.24,0,0,0,6.27-4.6,11.35,11.35,0,0,0,2.86-6.77A7.67,7.67,0,0,1,713,343a7.17,7.17,0,0,1-4.81-1.42,5,5,0,0,1-1.67-4.06,8.28,8.28,0,0,1,2.66-6.31,9.32,9.32,0,0,1,6.64-2.49q6.72,0,6.72,6.81A17.9,17.9,0,0,1,719.24,346.08Z"/><path d="M95.35,408.89a8.09,8.09,0,0,1,2.15,5.77,10.8,10.8,0,0,1-2.65,7.3A8.51,8.51,0,0,1,88.12,425a5.55,5.55,0,0,1-6.22-6.22,9.71,9.71,0,0,1,2.66-6.64A10.93,10.93,0,0,1,91,408.51a10,10,0,0,0-1.17-.25A10.59,10.59,0,0,0,85,409.34q-2.16,1.08-4.77,5.32a64.77,64.77,0,0,0-5.52,12.94l-6.06,23.24H53.93l10.12-36a8.23,8.23,0,0,0,.34-2.16q0-1.32-1.08-1.32a3.21,3.21,0,0,0-2.41,1.16,12.69,12.69,0,0,0-2.16,4.06l-1.91,5.07H55.26l2.32-6.48q3.08-8.53,12.37-8.55,4,0,5.81,2.16a8.36,8.36,0,0,1,1.82,5.56,12.81,12.81,0,0,1-.08,1.75q2.4-5.24,5.19-7.35a10.84,10.84,0,0,1,6.76-2.12A7.75,7.75,0,0,1,95.35,408.89Z"/><path d="M106.05,412.75c0-.94-.39-1.41-1.16-1.41a3.21,3.21,0,0,0-2.41,1.16,12.51,12.51,0,0,0-2.15,4.06l-1.91,5.07H96.84l2.32-6.48q3.07-8.53,12.37-8.55c3,0,5.17.72,6.56,2.16a7.61,7.61,0,0,1,2.07,5.48,13.61,13.61,0,0,1-.66,4l-8.63,25.57a8.21,8.21,0,0,0-.42,2c0,1,.47,1.49,1.41,1.49,1.61,0,3.07-1.74,4.4-5.22L118,437.4h1.58l-2.07,6.06q-3,8.55-11.87,8.55a9.78,9.78,0,0,1-6.56-2,7.31,7.31,0,0,1-2.32-5.89A20.76,20.76,0,0,1,98,437.73l7.64-22.91A5.9,5.9,0,0,0,106.05,412.75Zm5.85-24.57a11.35,11.35,0,0,1,7.35-2.24,9.1,9.1,0,0,1,5.52,1.41,5,5,0,0,1,1.87,4.23,7.72,7.72,0,0,1-2.91,6.23,11.09,11.09,0,0,1-7.3,2.4A8.93,8.93,0,0,1,111,398.8a4.79,4.79,0,0,1-1.87-4.06A7.93,7.93,0,0,1,111.9,388.18Z"/><path d="M168.3,437.4h1.58l-2.08,6.06q-3,8.55-11.86,8.55c-3.55,0-6-1.06-7.48-3.16a8.48,8.48,0,0,1-1.24-4.73,21.44,21.44,0,0,1,.41-3.57,23.73,23.73,0,0,1-5.81,8.67,12.1,12.1,0,0,1-8.21,2.79,10.49,10.49,0,0,1-7.68-3q-3-3-3-9.13a36.9,36.9,0,0,1,3.36-14.4,36.13,36.13,0,0,1,9.8-13.37,22.28,22.28,0,0,1,15-5.52c2.65,0,4.34.7,5.06,2.08l3.49-13.2a9.58,9.58,0,0,0,.41-2.32,2.59,2.59,0,0,0-1.28-2.41,9.24,9.24,0,0,0-4.36-.75l.58-1.74a86.23,86.23,0,0,0,12-.91,64.55,64.55,0,0,0,10.46-2.49l-16.27,58.93a5.06,5.06,0,0,0-.41,1.91c0,1.05.47,1.57,1.41,1.57q2.4,0,4.4-5.22Zm-23.24,5.14q2.82-4.31,5.48-13l5.06-18.92a3.27,3.27,0,0,0-.91-1.58,2.64,2.64,0,0,0-1.74-.5q-2.58,0-6.06,4.94a46.83,46.83,0,0,0-6,12.7,52,52,0,0,0-2.49,16,11.19,11.19,0,0,0,.42,3.61,1.54,1.54,0,0,0,1.57,1.12Q142.24,446.86,145.06,442.54Z"/><path d="M184,412.75c0-.94-.39-1.41-1.16-1.41a3.21,3.21,0,0,0-2.41,1.16,12.69,12.69,0,0,0-2.16,4.06l-1.91,5.07h-1.57l2.32-6.48q3.08-8.53,12.37-8.55c3,0,5.17.72,6.55,2.16a7.57,7.57,0,0,1,2.08,5.48,13.32,13.32,0,0,1-.67,4l-8.63,25.57a8.57,8.57,0,0,0-.41,2c0,1,.47,1.49,1.41,1.49q2.4,0,4.4-5.22l1.74-4.65h1.58l-2.08,6.06q-3,8.55-11.87,8.55a9.73,9.73,0,0,1-6.55-2,7.32,7.32,0,0,1-2.33-5.89,20.82,20.82,0,0,1,1.25-6.39l7.63-22.91A5.71,5.71,0,0,0,184,412.75Zm5.85-24.57a11.31,11.31,0,0,1,7.35-2.24,9.1,9.1,0,0,1,5.52,1.41,5,5,0,0,1,1.86,4.23,7.74,7.74,0,0,1-2.9,6.23,11.09,11.09,0,0,1-7.31,2.4,8.88,8.88,0,0,1-5.43-1.41,4.76,4.76,0,0,1-1.87-4.06A7.93,7.93,0,0,1,189.84,388.18Z"/><path d="M224.87,412.71a34.12,34.12,0,0,0-6,11.45,45.79,45.79,0,0,0-2.28,14.23q0,4.32,1.74,6.39a6,6,0,0,0,4.9,2.08,9.48,9.48,0,0,0,5.06-1.49,17.7,17.7,0,0,0,4.9-5.15l1.66.66q-7.14,11.13-19,11.13-6.65,0-10.71-3.28t-4.06-9.84A32.75,32.75,0,0,1,204.9,424a34.1,34.1,0,0,1,10.79-12.45,26.8,26.8,0,0,1,15.86-4.94,11.69,11.69,0,0,1,7.88,2.49,7.78,7.78,0,0,1,2.91,6.15,11.06,11.06,0,0,1-1.33,5.18,11.48,11.48,0,0,1-3.57,4.11,8.21,8.21,0,0,1-4.81,1.58,5.66,5.66,0,0,1-4-1.54A5.5,5.5,0,0,1,227,420.3a10.61,10.61,0,0,1,2.49-6.93,12.36,12.36,0,0,1,6-4.11,4,4,0,0,0-2.82-1Q228.55,408.26,224.87,412.71Z"/><path d="M287.65,437h1.58l-2.32,6.48a12.44,12.44,0,0,1-4.73,6.47A12.77,12.77,0,0,1,275,452c-3.65,0-6.12-1.08-7.39-3.24a7.93,7.93,0,0,1-1-4,16.71,16.71,0,0,1,.66-4.39l1.91-7.23a58.57,58.57,0,0,1-6.1,11.71,17.71,17.71,0,0,1-6,5.6,15.17,15.17,0,0,1-6.93,1.54,8.63,8.63,0,0,1-5.77-1.75,6.4,6.4,0,0,1-2-5.14,17.73,17.73,0,0,1,1.08-5.65l8.05-24.65a8.06,8.06,0,0,0,.41-2c0-1-.47-1.49-1.41-1.49q-2.4,0-4.4,5.22l-1.74,4.65h-1.58l2.08-6.06q3-8.53,11.87-8.55a9.79,9.79,0,0,1,6.51,1.95,7.28,7.28,0,0,1,2.29,5.86,21,21,0,0,1-1.25,6.47l-7.14,21.5a10.21,10.21,0,0,0-.66,3.23c0,.83.28,1.25.83,1.25q2,0,5.1-5a90.84,90.84,0,0,0,6.44-13.12q3.32-8.09,5.89-16.72l1.08-4.23a104.53,104.53,0,0,0,15-1.17l-10.46,37.19a8.73,8.73,0,0,0-.49,2.41c0,.72.41,1.07,1.24,1.07a3.21,3.21,0,0,0,2.41-1.16,12.69,12.69,0,0,0,2.16-4.06Z"/><path d="M306.08,445.37a2,2,0,0,0,.46,1.45,1.52,1.52,0,0,0,1.12.45,3.15,3.15,0,0,0,1.95-1,11.54,11.54,0,0,0,2.28-4.19l1.74-4.65h1.58l-2.08,6.06c-1.1,3.21-2.73,5.43-4.89,6.68a13.64,13.64,0,0,1-6.89,1.87,9.11,9.11,0,0,1-6.47-2.16,8.09,8.09,0,0,1-2.33-6.23,20.61,20.61,0,0,1,1-5.89l12.7-42.25a9.58,9.58,0,0,0,.41-2.32,2.57,2.57,0,0,0-1.29-2.41A9.17,9.17,0,0,0,301,390l.58-1.74a84.08,84.08,0,0,0,11.87-.91,65,65,0,0,0,10.37-2.49l-17.51,58.93A5.35,5.35,0,0,0,306.08,445.37Z"/><path d="M322.26,423.58A30.3,30.3,0,0,1,332,411.46a25.82,25.82,0,0,1,15.89-4.86q7.23,0,11,3.66t3.78,10.45A34.93,34.93,0,0,1,359.45,435a30.29,30.29,0,0,1-9.75,12.12A25.87,25.87,0,0,1,333.8,452q-7.21,0-11-3.66T319,437.9A35.08,35.08,0,0,1,322.26,423.58Zm19.34-9.09a70.47,70.47,0,0,0-6.18,15.06,57.52,57.52,0,0,0-2.61,16.15,12,12,0,0,0,.37,3.61c.25.69.65,1,1.2,1q2.25,0,5.77-6a67.54,67.54,0,0,0,6.14-14.73,57.33,57.33,0,0,0,2.62-16.52,12.61,12.61,0,0,0-.38-3.86c-.25-.64-.59-1-1-1Q345.17,408.26,341.6,414.49Z"/><path d="M411.32,437h1.58l-2.32,6.48a12.45,12.45,0,0,1-4.74,6.47,12.71,12.71,0,0,1-7.13,2.08q-5.49,0-7.39-3.24a7.93,7.93,0,0,1-1-4,16.35,16.35,0,0,1,.67-4.39l1.91-7.23a59.1,59.1,0,0,1-6.1,11.71,17.71,17.71,0,0,1-6,5.6,15.17,15.17,0,0,1-6.93,1.54,8.63,8.63,0,0,1-5.77-1.75,6.37,6.37,0,0,1-2-5.14,17.73,17.73,0,0,1,1.08-5.65l8.05-24.65a8.57,8.57,0,0,0,.41-2c0-1-.47-1.49-1.41-1.49q-2.4,0-4.4,5.22l-1.74,4.65H366.5l2.08-6.06q3-8.53,11.87-8.55a9.79,9.79,0,0,1,6.51,1.95,7.31,7.31,0,0,1,2.28,5.86,21,21,0,0,1-1.24,6.47l-7.14,21.5a10.21,10.21,0,0,0-.66,3.23c0,.83.27,1.25.83,1.25q2,0,5.1-5a89.89,89.89,0,0,0,6.43-13.12q3.33-8.09,5.9-16.72l1.08-4.23a104.53,104.53,0,0,0,15-1.17L404.1,443.79a8.83,8.83,0,0,0-.5,2.41c0,.72.42,1.07,1.25,1.07a3.22,3.22,0,0,0,2.41-1.16,12.91,12.91,0,0,0,2.15-4.06Z"/><path d="M425.85,450.26a5.77,5.77,0,0,0,4.27-1.7,6.24,6.24,0,0,0,1.7-4.61,14.4,14.4,0,0,0-1.24-5.6,53,53,0,0,0-3.57-6.76,63.17,63.17,0,0,1-3.86-6.89,13.34,13.34,0,0,1-1.12-5.56,11.17,11.17,0,0,1,4.23-9.05q4.23-3.48,12.29-3.49a21.33,21.33,0,0,1,10.2,2.2c2.72,1.47,4.07,3.92,4.07,7.35a8.7,8.7,0,0,1-1.58,5.1,5,5,0,0,1-4.31,2.29,4.55,4.55,0,0,1-3.9-2,8.39,8.39,0,0,1-1.41-5,12.75,12.75,0,0,1,.79-4.52,9.79,9.79,0,0,1,1.86-3.28,4.87,4.87,0,0,0-2.07-.33,5.55,5.55,0,0,0-4.4,1.7,7.26,7.26,0,0,0-1.5,4.94,9.41,9.41,0,0,0,.92,4c.61,1.3,1.6,3.11,3,5.43l1,1.66a56.81,56.81,0,0,1,3.86,7.68,15.89,15.89,0,0,1,1.12,5.69,11,11,0,0,1-1.91,6.3,12.87,12.87,0,0,1-5.64,4.49,25.83,25.83,0,0,1-20.09-.79q-4.31-2.44-4.31-8.18a8.76,8.76,0,0,1,1.53-5.27,4.84,4.84,0,0,1,4.11-2.12,4.64,4.64,0,0,1,3.9,2,8.6,8.6,0,0,1,1.5,5.31,12.7,12.7,0,0,1-.63,4.15c-.41,1.22-1,2.63-1.7,4.23A6.78,6.78,0,0,0,425.85,450.26Z"/><path d="M466.77,445.37a2,2,0,0,0,.45,1.45,1.55,1.55,0,0,0,1.12.45,3.13,3.13,0,0,0,2-1,11.37,11.37,0,0,0,2.29-4.19l1.74-4.65h1.58l-2.08,6.06c-1.11,3.21-2.74,5.43-4.9,6.68A13.59,13.59,0,0,1,462,452a9.15,9.15,0,0,1-6.47-2.16,8.09,8.09,0,0,1-2.32-6.23,20.92,20.92,0,0,1,1-5.89l12.7-42.25a9.22,9.22,0,0,0,.42-2.32,2.57,2.57,0,0,0-1.29-2.41,9.21,9.21,0,0,0-4.36-.75l.58-1.74a84,84,0,0,0,11.87-.91,65.38,65.38,0,0,0,10.38-2.49L467,443.79A5.67,5.67,0,0,0,466.77,445.37Z"/><path d="M518.64,414.66q0,7.21-4.77,17.47a83.4,83.4,0,0,1-11.58,18.38,54.47,54.47,0,0,1-10.92,10.09A34.07,34.07,0,0,1,480,465.78a21.4,21.4,0,0,1-4.89.67A8,8,0,0,1,470,465a4.92,4.92,0,0,1-1.78-4,5.76,5.76,0,0,1,1.82-4.27,6.58,6.58,0,0,1,4.82-1.79q6,0,10.21,7.3a36.67,36.67,0,0,0,9.63-6.22L488,414.9a18.1,18.1,0,0,0-.7-2.86,1,1,0,0,0-1-.7,1.75,1.75,0,0,0-1.45,1,30,30,0,0,0-1.87,4.23l-1.74,4.65h-1.58l2.08-6.06c1.1-3.15,2.53-5.36,4.27-6.64a10.63,10.63,0,0,1,6.43-1.91,9.39,9.39,0,0,1,6.56,2.2q2.4,2.2,3.24,7.68L505.77,443a73,73,0,0,0,8.72-17.1,18.68,18.68,0,0,1-6.27-5.47,12,12,0,0,1-2.36-7.06,7,7,0,0,1,1.7-5,6.18,6.18,0,0,1,4.77-1.83Q518.65,406.6,518.64,414.66Z"/><path d="M584.54,404.32a6.12,6.12,0,0,1,.29,7.64,3.7,3.7,0,0,1-2.86,1.37,3.83,3.83,0,0,1-2.91-1.37,5.42,5.42,0,0,1-1.24-3.78,11.58,11.58,0,0,1,.74-3.82,11.26,11.26,0,0,0-5.14,3.9,8.27,8.27,0,0,1,5.06,7.89,13.37,13.37,0,0,1-2,6.89,18.34,18.34,0,0,1-5.85,5.89,23.65,23.65,0,0,1-8.8,3.4A36.48,36.48,0,0,0,556,435c-1.25.78-1.87,1.49-1.87,2.16a1.24,1.24,0,0,0,.67,1.08,12.89,12.89,0,0,0,2.24,1l7.55,2.83a21.58,21.58,0,0,1,6.85,3.9,7.91,7.91,0,0,1,2.61,6.22,9.86,9.86,0,0,1-3.94,7.89,25.87,25.87,0,0,1-10,4.81,47.54,47.54,0,0,1-12.08,1.58,33.9,33.9,0,0,1-11.45-1.75q-4.9-1.74-4.9-4.64t4.9-4.36a34.84,34.84,0,0,1,10.54-1.54,16.14,16.14,0,0,1,2,.09l.08,1.24c-3.26,1.83-4.89,3.76-4.89,5.81a3.17,3.17,0,0,0,1.41,2.74,7,7,0,0,0,4.07,1,18.58,18.58,0,0,0,5.76-1,14.33,14.33,0,0,0,5-2.74,5.06,5.06,0,0,0,2-3.82,2.4,2.4,0,0,0-1.12-2.24,19.79,19.79,0,0,0-3.7-1.49l-11.28-3.57a9.54,9.54,0,0,1-3.82-2.2,4.72,4.72,0,0,1-1.5-3.53q0-3.31,4-5.85a75.07,75.07,0,0,1,12.28-5.77h-1q-6.15,0-9.88-2.36a7.86,7.86,0,0,1-3.74-7.1,13.7,13.7,0,0,1,2.7-7.93,19.66,19.66,0,0,1,7.72-6.3,26,26,0,0,1,11.58-2.45,20.93,20.93,0,0,1,6.72.91,12.69,12.69,0,0,1,3.94-3.53,9.71,9.71,0,0,1,4.78-1.28A5.65,5.65,0,0,1,584.54,404.32Zm-27.47,26a1.24,1.24,0,0,0,1.24,1c1.11,0,2.13-.87,3.07-2.62a24.3,24.3,0,0,0,2.24-6.89,46.55,46.55,0,0,0,.83-9,13.82,13.82,0,0,0-.33-3.4,1.42,1.42,0,0,0-1.41-1.25c-.94,0-1.88.86-2.82,2.57a24.79,24.79,0,0,0-2.28,6.81,44.89,44.89,0,0,0-.88,9.05A13.33,13.33,0,0,0,557.07,430.34Z"/><path d="M584.79,423.58a30.36,30.36,0,0,1,9.75-12.12q6.51-4.86,15.9-4.86,7.21,0,11,3.66t3.78,10.45A34.93,34.93,0,0,1,622,435a30.29,30.29,0,0,1-9.75,12.12A25.82,25.82,0,0,1,596.33,452q-7.23,0-11-3.66t-3.78-10.45A34.93,34.93,0,0,1,584.79,423.58Zm19.34-9.09a71,71,0,0,0-6.19,15.06,57.52,57.52,0,0,0-2.61,16.15,12,12,0,0,0,.37,3.61c.25.69.65,1,1.21,1q2.24,0,5.76-6a67.53,67.53,0,0,0,6.15-14.73,57.65,57.65,0,0,0,2.61-16.52,12.71,12.71,0,0,0-.37-3.86c-.25-.64-.6-1-1-1Q607.7,408.26,604.13,414.49Z"/><path d="M631,423.58a30.36,30.36,0,0,1,9.75-12.12,25.85,25.85,0,0,1,15.9-4.86q7.22,0,11,3.66t3.78,10.45A34.93,34.93,0,0,1,668.2,435a30.29,30.29,0,0,1-9.75,12.12A25.82,25.82,0,0,1,642.56,452q-7.23,0-11-3.66t-3.78-10.45A34.93,34.93,0,0,1,631,423.58Zm19.34-9.09a71,71,0,0,0-6.19,15.06,57.52,57.52,0,0,0-2.61,16.15,12,12,0,0,0,.37,3.61c.25.69.65,1,1.21,1q2.24,0,5.77-6a68,68,0,0,0,6.14-14.73,57.65,57.65,0,0,0,2.61-16.52,12.71,12.71,0,0,0-.37-3.86c-.25-.64-.6-1-1-1Q653.93,408.26,650.36,414.49Z"/><path d="M718.83,437.4h1.58l-2.08,6.06q-3,8.55-11.86,8.55c-3.55,0-6-1.06-7.47-3.16a8.48,8.48,0,0,1-1.25-4.73,20.6,20.6,0,0,1,.42-3.57,24,24,0,0,1-5.81,8.67,12.15,12.15,0,0,1-8.22,2.79,10.49,10.49,0,0,1-7.68-3q-3-3-3-9.13a36.9,36.9,0,0,1,3.36-14.4,36.13,36.13,0,0,1,9.8-13.37,22.3,22.3,0,0,1,15-5.52c2.65,0,4.34.7,5.06,2.08l3.49-13.2a9.58,9.58,0,0,0,.41-2.32,2.59,2.59,0,0,0-1.28-2.41,9.21,9.21,0,0,0-4.36-.75l.58-1.74a86.23,86.23,0,0,0,12-.91A64.55,64.55,0,0,0,728,384.86l-16.27,58.93a5.06,5.06,0,0,0-.41,1.91c0,1.05.47,1.57,1.41,1.57q2.4,0,4.4-5.22Zm-23.24,5.14q2.82-4.31,5.48-13l5.06-18.92a3.27,3.27,0,0,0-.91-1.58,2.64,2.64,0,0,0-1.74-.5q-2.58,0-6.06,4.94a46.83,46.83,0,0,0-6,12.7,52,52,0,0,0-2.49,16,11.19,11.19,0,0,0,.42,3.61,1.54,1.54,0,0,0,1.57,1.12Q692.77,446.86,695.59,442.54Z"/><path d="M758.67,445.37a2,2,0,0,0,.46,1.45,1.52,1.52,0,0,0,1.12.45,3.15,3.15,0,0,0,2-1,11.24,11.24,0,0,0,2.28-4.19l1.74-4.65h1.58l-2.07,6.06c-1.11,3.21-2.74,5.43-4.9,6.68a13.61,13.61,0,0,1-6.89,1.87,9.11,9.11,0,0,1-6.47-2.16,8.09,8.09,0,0,1-2.33-6.23,20.61,20.61,0,0,1,1-5.89l12.7-42.25a9.58,9.58,0,0,0,.41-2.32,2.59,2.59,0,0,0-1.28-2.41,9.21,9.21,0,0,0-4.36-.75l.58-1.74a84,84,0,0,0,11.87-.91,65,65,0,0,0,10.37-2.49l-17.51,58.93A5.35,5.35,0,0,0,758.67,445.37Z"/><path d="M774.86,423.58a30.19,30.19,0,0,1,9.75-12.12,25.82,25.82,0,0,1,15.89-4.86q7.23,0,11,3.66t3.78,10.45A34.93,34.93,0,0,1,812,435a30.29,30.29,0,0,1-9.75,12.12,25.85,25.85,0,0,1-15.9,4.86q-7.21,0-11-3.66t-3.78-10.45A34.93,34.93,0,0,1,774.86,423.58Zm19.34-9.09A70.46,70.46,0,0,0,788,429.55a57.52,57.52,0,0,0-2.61,16.15,12,12,0,0,0,.37,3.61c.25.69.65,1,1.2,1q2.25,0,5.77-6a67.54,67.54,0,0,0,6.14-14.73,57.33,57.33,0,0,0,2.62-16.52,12.71,12.71,0,0,0-.37-3.86c-.25-.64-.6-1-1-1Q797.76,408.26,794.2,414.49Z"/><path d="M821.09,423.58a30.19,30.19,0,0,1,9.75-12.12,25.82,25.82,0,0,1,15.89-4.86q7.23,0,11,3.66t3.78,10.45A34.93,34.93,0,0,1,858.27,435a30.29,30.29,0,0,1-9.75,12.12,25.85,25.85,0,0,1-15.9,4.86q-7.22,0-11-3.66t-3.78-10.45A34.93,34.93,0,0,1,821.09,423.58Zm19.34-9.09a71,71,0,0,0-6.19,15.06,57.52,57.52,0,0,0-2.61,16.15,12,12,0,0,0,.37,3.61c.25.69.65,1,1.2,1q2.25,0,5.77-6a68,68,0,0,0,6.15-14.73,57.65,57.65,0,0,0,2.61-16.52,12.71,12.71,0,0,0-.37-3.86c-.25-.64-.6-1-1-1Q844,408.26,840.43,414.49Z"/><path d="M897.82,413.08a15.08,15.08,0,0,1,5.27-3.82,2.42,2.42,0,0,0-.91-.79,2.66,2.66,0,0,0-1.17-.29,5.69,5.69,0,0,0-3.81,1.33,7.13,7.13,0,0,0-1.79,2.37c-.47,1-1,2.36-1.7,4.19a36.49,36.49,0,0,1-3.19,7.05,8.11,8.11,0,0,1-4.94,3.49q15.18.17,15.19,9.38a13,13,0,0,1-.34,3l-1,4.82a8.14,8.14,0,0,0-.25,1.82c0,1.11.41,1.66,1.24,1.66,1.61,0,3.07-1.74,4.4-5.22l1.75-4.65h1.57l-2.07,6.06Q902.92,452,892.8,452c-2.71,0-4.73-.63-6.06-1.87a7,7,0,0,1-2-5.36,17.92,17.92,0,0,1,.41-3.48l1.41-5.89a12.82,12.82,0,0,0,.58-3.57,4.12,4.12,0,0,0-.95-2.87,5.92,5.92,0,0,0-3-1.53l-6.89,23.4H861.59L878,395.48a9.22,9.22,0,0,0,.42-2.32,2.57,2.57,0,0,0-1.29-2.41,9.21,9.21,0,0,0-4.36-.75l.59-1.74a84.08,84.08,0,0,0,11.87-.91,65.26,65.26,0,0,0,10.37-2.49l-12,41a9,9,0,0,0,4.24-2.12,11.1,11.1,0,0,0,2.53-3.36,44.16,44.16,0,0,0,1.87-4.81,42.53,42.53,0,0,1,1.7-4.32,8.24,8.24,0,0,1,2-2.74,7.58,7.58,0,0,1,2.62-1.45,9.82,9.82,0,0,1,9.75,2.24,9.61,9.61,0,0,1,2.49,6.77,8.05,8.05,0,0,1-2.37,6.14,8.39,8.39,0,0,1-6,2.24,7.07,7.07,0,0,1-4.94-1.62,5.31,5.31,0,0,1-1.79-4.11A8.26,8.26,0,0,1,897.82,413.08Z"/><path d="M922.43,412.75c0-.94-.39-1.41-1.16-1.41a3.21,3.21,0,0,0-2.41,1.16,12.69,12.69,0,0,0-2.16,4.06l-1.91,5.07h-1.57l2.32-6.48q3.08-8.53,12.37-8.55c3,0,5.17.72,6.55,2.16a7.57,7.57,0,0,1,2.08,5.48,13.61,13.61,0,0,1-.66,4l-8.64,25.57a8.06,8.06,0,0,0-.41,2c0,1,.47,1.49,1.41,1.49q2.4,0,4.4-5.22l1.74-4.65H936l-2.08,6.06Q930.9,452,922,452a9.73,9.73,0,0,1-6.55-2,7.32,7.32,0,0,1-2.33-5.89,20.82,20.82,0,0,1,1.25-6.39L922,414.82A5.71,5.71,0,0,0,922.43,412.75Zm5.85-24.57a11.31,11.31,0,0,1,7.35-2.24,9.1,9.1,0,0,1,5.52,1.41,5,5,0,0,1,1.86,4.23,7.74,7.74,0,0,1-2.9,6.23,11.09,11.09,0,0,1-7.31,2.4,8.88,8.88,0,0,1-5.43-1.41,4.76,4.76,0,0,1-1.87-4.06A7.93,7.93,0,0,1,928.28,388.18Z"/><path d="M985.76,437.4h1.57l-2.07,6.06q-3,8.55-11.87,8.55-5.31,0-7.47-3a7.6,7.6,0,0,1-1.41-4.65,21.74,21.74,0,0,1,1.33-6.64l7.14-21.5a10.21,10.21,0,0,0,.66-3.23c0-.83-.28-1.25-.83-1.25q-2.16,0-5.56,5.81a105.91,105.91,0,0,0-6.93,14.86,167.36,167.36,0,0,0-5.94,18.17v-.16l-.08.41H939.61l10.13-36a9.62,9.62,0,0,0,.49-2.41c0-.71-.41-1.07-1.24-1.07a3.21,3.21,0,0,0-2.41,1.16,12.69,12.69,0,0,0-2.16,4.06l-1.91,5.07h-1.57l2.32-6.48a13.56,13.56,0,0,1,4.32-6.47,11.35,11.35,0,0,1,7-2.08q4.65,0,6.68,2.16a7.89,7.89,0,0,1,2,5.65,15.1,15.1,0,0,1-.5,3.81l-2.24,8.64a67.74,67.74,0,0,1,6.18-12.49,18.5,18.5,0,0,1,6-6.06,14.09,14.09,0,0,1,7-1.71q8.13,0,8.14,6.89a19.79,19.79,0,0,1-1.08,5.65l-8.22,24.65a8.21,8.21,0,0,0-.42,2c0,1,.47,1.49,1.42,1.49,1.6,0,3.07-1.74,4.39-5.22Z"/><path d="M1034.64,404.32a6.08,6.08,0,0,1,.29,7.64,3.69,3.69,0,0,1-2.86,1.37,3.81,3.81,0,0,1-2.9-1.37,5.37,5.37,0,0,1-1.25-3.78,11.36,11.36,0,0,1,.75-3.82,11.29,11.29,0,0,0-5.15,3.9,8.25,8.25,0,0,1,5.06,7.89,13.27,13.27,0,0,1-2,6.89,18.34,18.34,0,0,1-5.85,5.89,23.65,23.65,0,0,1-8.8,3.4,36.91,36.91,0,0,0-5.77,2.66c-1.24.78-1.86,1.49-1.86,2.16a1.25,1.25,0,0,0,.66,1.08,13.26,13.26,0,0,0,2.24,1l7.55,2.83a21.47,21.47,0,0,1,6.85,3.9,7.92,7.92,0,0,1,2.62,6.22,9.87,9.87,0,0,1-4,7.89,25.87,25.87,0,0,1-10,4.81,47.46,47.46,0,0,1-12.07,1.58,34,34,0,0,1-11.46-1.75q-4.89-1.74-4.89-4.64t4.89-4.36a34.88,34.88,0,0,1,10.54-1.54,16.33,16.33,0,0,1,2,.09l.08,1.24c-3.27,1.83-4.9,3.76-4.9,5.81a3.17,3.17,0,0,0,1.41,2.74,7,7,0,0,0,4.07,1,18.59,18.59,0,0,0,5.77-1,14.28,14.28,0,0,0,5-2.74,5,5,0,0,0,2-3.82,2.39,2.39,0,0,0-1.12-2.24,19.92,19.92,0,0,0-3.69-1.49l-11.29-3.57a9.61,9.61,0,0,1-3.82-2.2,4.75,4.75,0,0,1-1.49-3.53q0-3.31,4-5.85a75.49,75.49,0,0,1,12.28-5.77h-1q-6.15,0-9.88-2.36a7.85,7.85,0,0,1-3.73-7.1,13.76,13.76,0,0,1,2.69-7.93,19.66,19.66,0,0,1,7.72-6.3,26,26,0,0,1,11.58-2.45,21,21,0,0,1,6.73.91,12.58,12.58,0,0,1,3.94-3.53,9.64,9.64,0,0,1,4.77-1.28A5.62,5.62,0,0,1,1034.64,404.32Zm-27.47,26a1.26,1.26,0,0,0,1.25,1c1.1,0,2.12-.87,3.07-2.62a24.62,24.62,0,0,0,2.24-6.89,47.35,47.35,0,0,0,.83-9,13.82,13.82,0,0,0-.33-3.4c-.23-.83-.7-1.25-1.42-1.25-.94,0-1.88.86-2.82,2.57a24.79,24.79,0,0,0-2.28,6.81,44.91,44.91,0,0,0-.87,9.05A13.86,13.86,0,0,0,1007.17,430.34Z"/><path d="M1049.33,389.51a8.53,8.53,0,0,1,5.69,1.7,5.68,5.68,0,0,1,2.53,4.77,7.06,7.06,0,0,1-2.24,5.19,7.54,7.54,0,0,1-5.48,2.2,8,8,0,0,1-5.27-1.91,6.37,6.37,0,0,1-2.28-5.15q0-5.64,5.6-8a32.43,32.43,0,0,1,12.66-2.36,28,28,0,0,1,12.91,2.74q5.34,2.73,5.35,7.88,0,3.4-3.53,7.1a92.82,92.82,0,0,1-12.07,9.83q-5.65,4.08-8.43,6.52a17.74,17.74,0,0,0-3.82,4.32,8.29,8.29,0,0,0-1,4.1,4.91,4.91,0,0,0,1.41,3.66,5.49,5.49,0,0,0,4.06,1.41,11.7,11.7,0,0,0,5.32-1.17,8.45,8.45,0,0,1-3.66-2.44,6.29,6.29,0,0,1-1.49-4.28,6.44,6.44,0,0,1,2-4.81,7,7,0,0,1,5.1-1.91,6.15,6.15,0,0,1,4.32,1.7,5.49,5.49,0,0,1,1.83,4.19,7.8,7.8,0,0,1-2.66,6.1,15.88,15.88,0,0,1-6.47,3.41,28.84,28.84,0,0,1-7.56,1,19.76,19.76,0,0,1-10.54-2.57,8.32,8.32,0,0,1-4.15-7.55,10.24,10.24,0,0,1,1.58-5.52,22.06,22.06,0,0,1,3.78-4.57q2.19-2,6.84-5.77l1.75-1.41q4.14-3.31,6.18-5.18a18.21,18.21,0,0,0,3.24-3.86,8.23,8.23,0,0,0,1.2-4.32,6.64,6.64,0,0,0-1.7-4.77,6.3,6.3,0,0,0-4.77-1.79A11.48,11.48,0,0,0,1049.33,389.51Zm-6.14,50.71a9.34,9.34,0,0,1,6.64-2.49,7.45,7.45,0,0,1,4.86,1.41,5.19,5.19,0,0,1,1.7,4.23,7.7,7.7,0,0,1-1.25,4.15,9.54,9.54,0,0,1-3.4,3.24A9.32,9.32,0,0,1,1047,452a7.17,7.17,0,0,1-4.81-1.42,5,5,0,0,1-1.66-4.06A8.27,8.27,0,0,1,1043.19,440.22Z"/><text/><path class="cls-3" d="M806.82,572.48v97.25H370.09V572.48H806.82m2-2H368.09V671.73H808.82V570.48Z"/><path class="cls-6" d="M418.42,612c0,1.26,0,2.27.12,3h-.92q-.8-4.51-2.4-6.35a5.62,5.62,0,0,0-4.48-1.85h-1.32a5.91,5.91,0,0,0-1.8.2,1.22,1.22,0,0,0-.76.79,6.27,6.27,0,0,0-.2,1.86v10.07h1.4a3.68,3.68,0,0,0,3.22-1.55,9.88,9.88,0,0,0,1.54-3.72h.92c-.08,1.12-.12,2.37-.12,3.76v1.91c0,1.37.08,3.26.24,5.68h-.92q-.84-5.26-4.88-5.27h-1.4v9.19a6,6,0,0,0,.34,2.35,1.77,1.77,0,0,0,1.2,1,11.66,11.66,0,0,0,2.74.29v.88q-4.92-.13-7.32-.13-2,0-5,.09l-1.28,0v-.8a6.73,6.73,0,0,0,1.94-.33,1.39,1.39,0,0,0,.84-.91,7.8,7.8,0,0,0,.22-2.21V610.12a7.77,7.77,0,0,0-.22-2.2,1.43,1.43,0,0,0-.84-.92,6.87,6.87,0,0,0-1.94-.31v-.81q4.32.12,13,.12,5.88,0,8.36-.12Q418.42,609.29,418.42,612Z"/><path class="cls-6" d="M428.9,630.49a3.34,3.34,0,0,0,.58,2.26,2.65,2.65,0,0,0,2,.62v.84c-2.67-.11-4.44-.17-5.32-.17s-2.68.06-5.56.17v-.84a2.63,2.63,0,0,0,2-.62,3.46,3.46,0,0,0,.56-2.26V617.88a4.94,4.94,0,0,0-.56-2.67,2.22,2.22,0,0,0-2-.84v-.84c.85.08,1.68.12,2.48.12a24.73,24.73,0,0,0,5.84-.57ZM428.44,604a3.08,3.08,0,0,1,0,4.51,4.68,4.68,0,0,1-5.32,0,3.08,3.08,0,0,1,0-4.51,4.72,4.72,0,0,1,5.32,0Z"/><path class="cls-6" d="M452.46,614.53a4.4,4.4,0,0,1,1,2,14.62,14.62,0,0,1,.28,3.23v10.77a3.34,3.34,0,0,0,.58,2.26,2.65,2.65,0,0,0,2,.62v.84c-2.67-.11-4.43-.17-5.28-.17s-2.53.06-5.2.17v-.84a2,2,0,0,0,1.68-.62,3.88,3.88,0,0,0,.48-2.26V618a4.57,4.57,0,0,0-.54-2.47,2.11,2.11,0,0,0-1.94-.85,3.57,3.57,0,0,0-2.8,1.35,4.87,4.87,0,0,0-1.16,3.3v11.12a3.88,3.88,0,0,0,.48,2.26,2,2,0,0,0,1.68.62v.84c-2.45-.11-4.11-.17-5-.17s-2.64.06-5.52.17v-.84a2.63,2.63,0,0,0,2-.62,3.46,3.46,0,0,0,.56-2.26V617.88a4.94,4.94,0,0,0-.56-2.67,2.22,2.22,0,0,0-2-.84v-.84c.85.08,1.68.12,2.48.12a24.73,24.73,0,0,0,5.84-.57v3.61c1.2-2.48,3.39-3.73,6.56-3.73A5.56,5.56,0,0,1,452.46,614.53Z"/><path class="cls-6" d="M478,632.49a2.25,2.25,0,0,0,2,.84v.84a23,23,0,0,0-2.48-.13,24.73,24.73,0,0,0-5.84.57v-3.44a5.12,5.12,0,0,1-5.2,3.59,7.3,7.3,0,0,1-6-2.73c-1.48-1.83-2.21-4.58-2.18-8.27a13.85,13.85,0,0,1,1.14-5.93,8.1,8.1,0,0,1,3.16-3.64,8.67,8.67,0,0,1,4.62-1.23,6,6,0,0,1,4.44,1.53v-6.8a4.84,4.84,0,0,0-.58-2.69,2.26,2.26,0,0,0-2-.83v-.84c.85.08,1.68.12,2.48.12a25.32,25.32,0,0,0,5.84-.57V629.8A5,5,0,0,0,478,632.49Zm-7.54-.41a4.11,4.11,0,0,0,1.22-2.59v-14a3.4,3.4,0,0,0-2.92-1.37c-1.42,0-2.51.82-3.28,2.45a17.25,17.25,0,0,0-1.12,7.27c0,3.26.29,5.61.94,7A3.06,3.06,0,0,0,468.1,633,3.32,3.32,0,0,0,470.44,632.08Z"/><path class="cls-6" d="M508.5,615.58q2.6,2.63,2.6,8.3t-2.6,8.29a11.27,11.27,0,0,1-14.38,0q-2.62-2.61-2.62-8.29t2.62-8.3a11.18,11.18,0,0,1,14.38,0Zm-9.94.68a28.94,28.94,0,0,0,0,15.23c.68,1.65,1.59,2.47,2.74,2.47s2.09-.81,2.76-2.46a21.65,21.65,0,0,0,1-7.62,21.31,21.31,0,0,0-1-7.63c-.68-1.66-1.6-2.49-2.74-2.49S499.24,614.6,498.56,616.26Z"/><path class="cls-6" d="M533.5,629.84a4.84,4.84,0,0,0,.58,2.69,2.24,2.24,0,0,0,2,.84v.84a23,23,0,0,0-2.48-.13,25.32,25.32,0,0,0-5.84.57V631c-1.23,2.49-3.38,3.72-6.44,3.72a5.49,5.49,0,0,1-4.36-1.55,4.79,4.79,0,0,1-.94-2,13.89,13.89,0,0,1-.3-3.22V617.88a4.83,4.83,0,0,0-.58-2.67,2.24,2.24,0,0,0-2-.84v-.84c.82.08,1.65.12,2.48.12a25.38,25.38,0,0,0,5.84-.57v16.57a5,5,0,0,0,.5,2.52,2,2,0,0,0,1.9.83,3.49,3.49,0,0,0,2.74-1.33,4.94,4.94,0,0,0,1.14-3.3V617.88a4.83,4.83,0,0,0-.58-2.67,2.24,2.24,0,0,0-2-.84v-.84c.85.08,1.68.12,2.48.12a25.38,25.38,0,0,0,5.84-.57Z"/><path class="cls-6" d="M545.94,613.53h4.72v.8h-4.72v16.16a2.68,2.68,0,0,0,.42,1.7,1.66,1.66,0,0,0,1.34.5c1.14,0,2-.81,2.72-2.4l.68.36c-1,2.74-2.84,4.11-5.48,4.11a5.44,5.44,0,0,1-4-1.35,4.34,4.34,0,0,1-1.14-2.11,15.62,15.62,0,0,1-.3-3.46V614.33h-3.36v-.8h3.36v-5.28a12.18,12.18,0,0,0,5.76-1.29Z"/><path class="cls-6" d="M590.34,613.53v.8a3.19,3.19,0,0,0-1.52,1,6.43,6.43,0,0,0-1.2,2.43l-5.32,16.53c-.3,0-.74,0-1.32,0s-1,0-1.28,0l-5.44-14.84-4.44,14.84c-.27,0-.7,0-1.28,0s-1,0-1.32,0l-6.32-17.68a3.63,3.63,0,0,0-1.08-1.82,2.08,2.08,0,0,0-1.24-.42v-.84c1.73.16,3.62.23,5.68.23,1.33,0,3.06-.07,5.2-.23v.84a6.16,6.16,0,0,0-1.9.2.89.89,0,0,0-.58,1,3.1,3.1,0,0,0,.2,1.08l3.6,11.31,4.36-14.43,1.48,0,1.44,0,5.2,15.27,2.52-8a11.3,11.3,0,0,0,.56-3,3,3,0,0,0-3.16-3.36v-.8c1.25.08,2.62.12,4.12.12A28,28,0,0,0,590.34,613.53Z"/><path class="cls-6" d="M598.26,616.69c1.2-2.48,3.37-3.73,6.52-3.73,2.08,0,3.54.53,4.4,1.57a4.51,4.51,0,0,1,1,2,14,14,0,0,1,.3,3.22v10.77a3.4,3.4,0,0,0,.56,2.26,2.63,2.63,0,0,0,2,.62v.84c-2.78-.11-4.54-.17-5.28-.17-.91,0-2.64.06-5.2.17v-.84a2,2,0,0,0,1.68-.62,3.88,3.88,0,0,0,.48-2.26V618a4.57,4.57,0,0,0-.54-2.47,2.11,2.11,0,0,0-1.94-.85A3.6,3.6,0,0,0,599.4,616a4.8,4.8,0,0,0-1.14,3.3v11.16a3.88,3.88,0,0,0,.48,2.26,2,2,0,0,0,1.68.62v.84c-2.56-.11-4.22-.17-5-.17-.91,0-2.75.06-5.52.17v-.84a2.65,2.65,0,0,0,2-.62,3.39,3.39,0,0,0,.58-2.26V607.72a4.91,4.91,0,0,0-.58-2.68,2.26,2.26,0,0,0-2-.83v-.84c.85.08,1.68.12,2.48.12a25.38,25.38,0,0,0,5.84-.57Z"/><path class="cls-6" d="M615.92,633.17a4.85,4.85,0,0,1-1.26-3.48,4.6,4.6,0,0,1,.94-3,6.33,6.33,0,0,1,2.28-1.83,32.58,32.58,0,0,1,3.42-1.35,18.54,18.54,0,0,0,3.22-1.38,1.91,1.91,0,0,0,1-1.7v-3.12a4,4,0,0,0-.78-2.62,3,3,0,0,0-2.42-1,4,4,0,0,0-2.92,1,3.83,3.83,0,0,1,1.74,1.2,3,3,0,0,1,.62,1.88,2.72,2.72,0,0,1-.92,2.16,3.27,3.27,0,0,1-2.24.8,2.67,2.67,0,0,1-2.16-.88,3.19,3.19,0,0,1-.76-2.19,3.23,3.23,0,0,1,.54-1.9,5.16,5.16,0,0,1,1.66-1.46,9.06,9.06,0,0,1,2.66-1A14.93,14.93,0,0,1,624,613a12.66,12.66,0,0,1,3.4.41,5.27,5.27,0,0,1,2.4,1.35,4.49,4.49,0,0,1,1.18,2.16,16.05,16.05,0,0,1,.3,3.49v10.88a3.68,3.68,0,0,0,.18,1.36.69.69,0,0,0,.7.39,2.47,2.47,0,0,0,1.44-.67l.4.67a6.7,6.7,0,0,1-4.4,1.49,4.31,4.31,0,0,1-3.08-.88,3.3,3.3,0,0,1-.92-2.36,6.5,6.5,0,0,1-5.88,3.24A5.08,5.08,0,0,1,615.92,633.17Zm9.62-2.88v-8.21a5.93,5.93,0,0,1-2,1.76,9.87,9.87,0,0,0-2.36,2,4.49,4.49,0,0,0-.8,2.88,3.62,3.62,0,0,0,.68,2.43,2.25,2.25,0,0,0,1.8.77A3.32,3.32,0,0,0,625.54,630.29Z"/><path class="cls-6" d="M643.3,613.53H648v.8H643.3v16.16a2.68,2.68,0,0,0,.42,1.7,1.66,1.66,0,0,0,1.34.5c1.14,0,2.05-.81,2.72-2.4l.68.36c-1,2.74-2.84,4.11-5.48,4.11a5.44,5.44,0,0,1-4-1.35,4.34,4.34,0,0,1-1.14-2.11,15.62,15.62,0,0,1-.3-3.46V614.33h-3.36v-.8h3.36v-5.28A12.18,12.18,0,0,0,643.3,607Z"/><path class="cls-6" d="M665.94,613.53h4.72v.8h-4.72v16.16a2.68,2.68,0,0,0,.42,1.7,1.66,1.66,0,0,0,1.34.5c1.14,0,2-.81,2.72-2.4l.68.36c-1,2.74-2.84,4.11-5.48,4.11a5.44,5.44,0,0,1-4-1.35,4.34,4.34,0,0,1-1.14-2.11,15.62,15.62,0,0,1-.3-3.46V614.33h-3.36v-.8h3.36v-5.28a12.18,12.18,0,0,0,5.76-1.29Z"/><path class="cls-6" d="M680,616.69c1.2-2.48,3.37-3.73,6.52-3.73,2.08,0,3.54.53,4.4,1.57a4.51,4.51,0,0,1,1,2,14,14,0,0,1,.3,3.22v10.77a3.4,3.4,0,0,0,.56,2.26,2.63,2.63,0,0,0,2,.62v.84c-2.78-.11-4.54-.17-5.28-.17-.91,0-2.64.06-5.2.17v-.84a2,2,0,0,0,1.68-.62,3.88,3.88,0,0,0,.48-2.26V618a4.57,4.57,0,0,0-.54-2.47,2.11,2.11,0,0,0-1.94-.85,3.6,3.6,0,0,0-2.82,1.31,4.8,4.8,0,0,0-1.14,3.3v11.16a3.88,3.88,0,0,0,.48,2.26,2,2,0,0,0,1.68.62v.84c-2.56-.11-4.22-.17-5-.17-.91,0-2.75.06-5.52.17v-.84a2.65,2.65,0,0,0,2-.62,3.39,3.39,0,0,0,.58-2.26V607.72a4.91,4.91,0,0,0-.58-2.68,2.26,2.26,0,0,0-2-.83v-.84c.85.08,1.68.12,2.48.12a25.38,25.38,0,0,0,5.84-.57Z"/><path class="cls-6" d="M697.67,633.17a4.84,4.84,0,0,1-1.25-3.48,4.65,4.65,0,0,1,.93-3,6.51,6.51,0,0,1,2.28-1.83,34.45,34.45,0,0,1,3.42-1.35,18.2,18.2,0,0,0,3.22-1.38,1.89,1.89,0,0,0,1-1.7v-3.12a3.92,3.92,0,0,0-.78-2.62,2.94,2.94,0,0,0-2.42-1,4.06,4.06,0,0,0-2.92,1,3.81,3.81,0,0,1,1.75,1.2,3,3,0,0,1,.62,1.88,2.72,2.72,0,0,1-.92,2.16,3.29,3.29,0,0,1-2.24.8,2.71,2.71,0,0,1-2.17-.88,3.23,3.23,0,0,1-.75-2.19,3.16,3.16,0,0,1,.54-1.9,5.05,5.05,0,0,1,1.66-1.46,9.11,9.11,0,0,1,2.65-1,15,15,0,0,1,3.46-.37,12.61,12.61,0,0,1,3.4.41,5.35,5.35,0,0,1,2.41,1.35,4.48,4.48,0,0,1,1.17,2.16,15.44,15.44,0,0,1,.3,3.49v10.88a3.63,3.63,0,0,0,.19,1.36.68.68,0,0,0,.69.39,2.52,2.52,0,0,0,1.45-.67l.39.67a6.65,6.65,0,0,1-4.39,1.49,4.35,4.35,0,0,1-3.09-.88,3.33,3.33,0,0,1-.91-2.36,6.5,6.5,0,0,1-5.88,3.24A5.11,5.11,0,0,1,697.67,633.17Zm9.62-2.88v-8.21a5.93,5.93,0,0,1-2,1.76,10.08,10.08,0,0,0-2.36,2,4.55,4.55,0,0,0-.8,2.88,3.67,3.67,0,0,0,.68,2.43,2.29,2.29,0,0,0,1.81.77A3.29,3.29,0,0,0,707.29,630.29Z"/><path class="cls-6" d="M725.05,613.53h4.72v.8h-4.72v16.16a2.68,2.68,0,0,0,.42,1.7,1.67,1.67,0,0,0,1.34.5c1.15,0,2.06-.81,2.72-2.4l.68.36c-1,2.74-2.83,4.11-5.48,4.11a5.45,5.45,0,0,1-4-1.35,4.34,4.34,0,0,1-1.14-2.11,15.62,15.62,0,0,1-.3-3.46V614.33h-3.36v-.8h3.36v-5.28a12.12,12.12,0,0,0,5.76-1.29Z"/><path class="cls-6" d="M748.38,630.49a3.34,3.34,0,0,0,.58,2.26,2.61,2.61,0,0,0,2,.62v.84c-2.66-.11-4.43-.17-5.32-.17s-2.68.06-5.56.17v-.84a2.63,2.63,0,0,0,2-.62,3.4,3.4,0,0,0,.56-2.26V617.88a4.85,4.85,0,0,0-.56-2.67,2.22,2.22,0,0,0-2-.84v-.84c.86.08,1.68.12,2.49.12a24.79,24.79,0,0,0,5.84-.57ZM747.92,604a3.11,3.11,0,0,1,0,4.51,4.69,4.69,0,0,1-5.33,0,3.08,3.08,0,0,1,0-4.51,4.74,4.74,0,0,1,5.33,0Z"/><path class="cls-6" d="M763.37,613.34a6.6,6.6,0,0,1,2,.87,1.37,1.37,0,0,0,.72.28.75.75,0,0,0,.62-.38A2.35,2.35,0,0,0,767,613h.84c-.1,1.37-.16,3.71-.16,7h-.84a10.11,10.11,0,0,0-1.58-4.42,4,4,0,0,0-3.54-1.78,2.88,2.88,0,0,0-2,.69,2.36,2.36,0,0,0-.78,1.88,3.34,3.34,0,0,0,.92,2.34,21.09,21.09,0,0,0,2.88,2.37l1.16.84a20.56,20.56,0,0,1,3.6,3.29,5.51,5.51,0,0,1,1.16,3.59,5,5,0,0,1-1,3.12,6.33,6.33,0,0,1-2.74,2.08,9.53,9.53,0,0,1-3.8.72,7.74,7.74,0,0,1-3.76-.84c-.85-.42-1.46-.7-1.84-.84a.62.62,0,0,0-.7.26,2.89,2.89,0,0,0-.46,1.15h-.84c.11-1.53.16-4.19.16-8h.84q.81,7.35,5.4,7.35a3,3,0,0,0,2-.69,2.68,2.68,0,0,0,.82-2.15,3.93,3.93,0,0,0-.5-2,6,6,0,0,0-1.26-1.55c-.5-.46-1.26-1.08-2.28-1.88-1.2-1-2.11-1.74-2.74-2.32a8.72,8.72,0,0,1-1.6-2.08,5.49,5.49,0,0,1-.66-2.68,4.75,4.75,0,0,1,2-4,8,8,0,0,1,4.88-1.49A9.87,9.87,0,0,1,763.37,613.34Z"/><path class="cls-6" d="M778.05,629.42a3.25,3.25,0,0,1,0,4.53,4.2,4.2,0,0,1-5,0,3.25,3.25,0,0,1,0-4.53,4.2,4.2,0,0,1,5,0Z"/><path class="cls-7" d="M820.45,275.66a13.5,13.5,0,0,1,3.61,9.66,18,18,0,0,1-4.45,12.23,14.23,14.23,0,0,1-11.25,5.15q-5.15,0-7.79-2.64t-2.64-7.79a16.35,16.35,0,0,1,4.45-11.12,18.29,18.29,0,0,1,10.7-6.11,14.82,14.82,0,0,0-1.94-.42,17.73,17.73,0,0,0-8.07,1.81q-3.62,1.8-8,8.89T785.84,307l-10.15,38.92h-24.6l17-60.33a14.29,14.29,0,0,0,.55-3.61c0-1.49-.6-2.23-1.81-2.23a5.42,5.42,0,0,0-4,1.95,21.37,21.37,0,0,0-3.61,6.81L756,297h-2.64l3.89-10.84q5.14-14.32,20.72-14.32c4.44,0,7.69,1.2,9.72,3.61a13.93,13.93,0,0,1,3.06,9.32,21.27,21.27,0,0,1-.14,2.92q4-8.76,8.69-12.31a18.16,18.16,0,0,1,11.33-3.54Q816.84,271.84,820.45,275.66Z"/><path class="cls-7" d="M875.56,304.43q-13,8.7-30.93,12.86a66.33,66.33,0,0,0-.41,7.09q0,7.65,2.92,10.57t8.61,2.91a23.93,23.93,0,0,0,9-2.36,33.69,33.69,0,0,0,10.49-7.37l2.23,1.12a43.54,43.54,0,0,1-14.32,13.27,40.09,40.09,0,0,1-20.85,5.35q-10.29,0-17.17-5.14t-6.88-14.46a56.13,56.13,0,0,1,7-26.75,59.22,59.22,0,0,1,19.19-21.41,46.79,46.79,0,0,1,26.89-8.27q7.78,0,12.51,3.13a10.24,10.24,0,0,1,4.73,9.1Q888.56,295.76,875.56,304.43Zm-16-24a66,66,0,0,0-8.83,15.43,86.13,86.13,0,0,0-5.7,18.9,69.08,69.08,0,0,0,12.79-9.45,45.83,45.83,0,0,0,9.24-12.65A33,33,0,0,0,870.49,278c0-2.32-.74-3.48-2.23-3.48Q864.38,274.48,859.58,280.46Z"/><path class="cls-7" d="M960,323.41h2.64l-3.47,10.15q-5,14.31-19.88,14.31-8.47,0-12.09-4.86a14.71,14.71,0,0,1-2.36-8.48,15.77,15.77,0,0,1,.13-2.36q-3.33,8.47-8.61,12.09a21.64,21.64,0,0,1-12.51,3.61q-8.62,0-12.93-4.45t-4.31-12.92q0-13.06,7-26.83a74.21,74.21,0,0,1,17.51-22.8q10.5-9,20.09-9,7.92,0,8.62,7.92l1.8-5.84a162.79,162.79,0,0,0,25.16-2.08l-18.76,62.27a11.49,11.49,0,0,0-.56,3.34c0,1.67.74,2.5,2.23,2.5q4,0,7.36-8.76ZM921.78,334q2.91-4.44,6.67-16l10-33.36a11.84,11.84,0,0,0,.14-2.09c0-2.59-.89-3.89-2.64-3.89q-3.9,0-9.53,8.06a78.33,78.33,0,0,0-9.66,20.3,76.43,76.43,0,0,0-4,24,16.16,16.16,0,0,0,.7,5.7,2.5,2.5,0,0,0,2.5,1.67C917.89,338.42,919.83,336.94,921.78,334Z"/><path class="cls-7" d="M991.55,336.75a3.31,3.31,0,0,0,.77,2.43,2.5,2.5,0,0,0,1.87.77,5.26,5.26,0,0,0,3.27-1.74c1.25-1.16,2.53-3.5,3.82-7l2.92-7.78h2.64l-3.47,10.15q-2.79,8.06-8.2,11.18a22.69,22.69,0,0,1-11.54,3.13q-6.95,0-10.84-3.61t-3.89-10.43a34.93,34.93,0,0,1,1.66-9.87l21.27-70.75a15.79,15.79,0,0,0,.7-3.89,4.3,4.3,0,0,0-2.16-4q-2.16-1.24-7.29-1.25l1-2.92a140,140,0,0,0,19.87-1.53,108.91,108.91,0,0,0,17.38-4.17L992,334.11A9.17,9.17,0,0,0,991.55,336.75Z"/><path class="cls-7" d="M1035.48,336.75a3.31,3.31,0,0,0,.76,2.43,2.53,2.53,0,0,0,1.88.77,5.26,5.26,0,0,0,3.26-1.74c1.26-1.16,2.53-3.5,3.83-7l2.92-7.78h2.64l-3.48,10.15q-2.77,8.06-8.2,11.18a22.67,22.67,0,0,1-11.54,3.13q-6.94,0-10.84-3.61t-3.89-10.43a35,35,0,0,1,1.67-9.87l21.26-70.75a15.33,15.33,0,0,0,.7-3.89,4.31,4.31,0,0,0-2.15-4q-2.16-1.24-7.3-1.25l1-2.92a140.18,140.18,0,0,0,19.88-1.53,108.79,108.79,0,0,0,17.37-4.17l-29.33,98.69A9.49,9.49,0,0,0,1035.48,336.75Z"/><path class="cls-7" d="M1122.35,285.32q0,12.09-8,29.26A139.18,139.18,0,0,1,1095,345.37a90.62,90.62,0,0,1-18.28,16.89,57.44,57.44,0,0,1-19,8.69,36.63,36.63,0,0,1-8.2,1.11q-5.57,0-8.55-2.43a8.24,8.24,0,0,1-3-6.75,9.63,9.63,0,0,1,3.06-7.15,11,11,0,0,1,8.06-3q10,0,17.1,12.23a61,61,0,0,0,16.12-10.43l-11.26-68.8a30.6,30.6,0,0,0-1.18-4.8,1.76,1.76,0,0,0-1.74-1.18,2.93,2.93,0,0,0-2.43,1.67,49.73,49.73,0,0,0-3.13,7.09l-2.92,7.78H1057l3.48-10.14q2.77-7.94,7.16-11.12a17.74,17.74,0,0,1,10.77-3.2q6.94,0,11,3.68t5.42,12.86l6,44.48a122.87,122.87,0,0,0,14.59-28.63,31.06,31.06,0,0,1-10.49-9.18,20,20,0,0,1-4-11.81c0-3.52.94-6.3,2.84-8.34s4.57-3.06,8-3.06Q1122.35,271.84,1122.35,285.32Z"/><path d="M1136.08,350.16a21,21,0,0,1-9.13,7.22l-.42-1.49a17.21,17.21,0,0,0,6.27-4.61,11.27,11.27,0,0,0,2.86-6.76,7.68,7.68,0,0,1-5.81,2.57,7.23,7.23,0,0,1-4.81-1.41,5,5,0,0,1-1.66-4.07,8.26,8.26,0,0,1,2.66-6.31,9.3,9.3,0,0,1,6.63-2.49q6.74,0,6.73,6.81A18,18,0,0,1,1136.08,350.16Z"/></g></svg>