<svg id="Layer_1" data-name="Layer 1" xmlns="http://www.w3.org/2000/svg" viewBox="0 0 463.1 50.98"><title>anniekelly</title><path d="M38.16,45.57h-17l-2.52,7.71H1.87l18.64-51H39l18.58,51H40.68Zm-8.5-26.21L25.05,33.55h9.22Z" transform="translate(-1.87 -2.3)"/><path d="M110,2.3v51H94L77.11,27.65V53.28h-16V2.3h16L94,28.37V2.3Z" transform="translate(-1.87 -2.3)"/><path d="M166.1,2.3v51h-16L133.19,27.65V53.28h-16V2.3h16l16.93,26.07V2.3Z" transform="translate(-1.87 -2.3)"/><path d="M173.3,2.3h16v51h-16Z" transform="translate(-1.87 -2.3)"/><path d="M230.47,15h-18v6.27h15.84v12H212.47v7.2h18V53.28h-34V2.3h34Z" transform="translate(-1.87 -2.3)"/><path d="M264.74,31.17V53.28h-16V2.3h16V23.76L279.35,2.3h18.08L279.86,26.71l18.72,26.57h-19Z" transform="translate(-1.87 -2.3)"/><path d="M337.1,15h-18v6.27h15.84v12H319.1v7.2h18V53.28h-34V2.3h34Z" transform="translate(-1.87 -2.3)"/><path d="M359.13,2.3V41.18h15.41v12.1h-31.4V2.3Z" transform="translate(-1.87 -2.3)"/><path d="M395.56,2.3V41.18H411v12.1h-31.4V2.3Z" transform="translate(-1.87 -2.3)"/><path d="M412.41,2.3H430.7l8.13,18.07L447,2.3h18L446.68,37.8V53.28h-16V37.8Z" transform="translate(-1.87 -2.3)"/></svg>