<svg id="Layer_1" data-name="Layer 1" xmlns="http://www.w3.org/2000/svg" xmlns:xlink="http://www.w3.org/1999/xlink" viewBox="0 0 818.44 818.44"><defs><style>.cls-1,.cls-2,.cls-4,.cls-5{stroke:#000;}.cls-1,.cls-2,.cls-3,.cls-4,.cls-5{stroke-miterlimit:10;}.cls-1{fill:url(#linear-gradient);}.cls-2{fill:#fff;}.cls-3{stroke:#fff;}.cls-4{fill:none;}.cls-5{fill:url(#linear-gradient-2);}</style><linearGradient id="linear-gradient" x1="203.91" y1="409.56" x2="437.86" y2="409.56" gradientTransform="translate(818.01 817.92) rotate(180)" gradientUnits="userSpaceOnUse"><stop offset="0" stop-color="#f7941d"/><stop offset="1" stop-color="#8dc63f"/></linearGradient><linearGradient id="linear-gradient-2" x1="378.94" y1="297.24" x2="612.89" y2="297.24" gradientTransform="translate(-173.81 112.63)" gradientUnits="userSpaceOnUse"><stop offset="0" stop-color="#00aeef"/><stop offset="1" stop-color="#be1e2d"/></linearGradient></defs><title>basses</title><path class="cls-1" d="M519.58,659.16s-6.75-2.25-6.75-4.88S520,303.66,520,303.66s11.62-11.25,22.5-3.1c5.62,4.22,2.11,45.43,9.75,56.72,3,4.48,6.37,5.63,11.25,6.38s11.43-1.31,14.62-4.5c2.35-2.35,18.71-16.34,13.5-64.5-2-18.41-16.66-61.91-17.25-67.13-1.61-14.36,15.45-40.72,34.88-90.75,19.36-49.86-20.35-105.65-91.5-118.87-8.25-1.53-27-5.63-40.5-6.75s-30.38-1.88-47.25,0-32.25,5.62-45,31.5c-7.3,14.8-8.25,46.5,11.25,73.5,32.41,44.88,24.75,47.62,22.5,57s-10.5,22.5-14.63,45-6.27,36.27-3.37,51.37c6.47,33.66,29.6,48.34,34.5,24,1-4.83.11-7.66,1.12-13.5,4.13-23.9,21.31-24.93,26.63-23.25,13.05,4.13,14.25,24.75,14.25,24.75-.44-14.25,11.57,371.93,8.25,382.13-2.88,8.8-6,16.12-16.5,22.87s11.25,55.88,11.25,55.88,3.37,9.37.37,12.37S465,765.67,464.46,781c-1,28.41,26.62,28.5,34.12,22.5s38.25-130.87,37.5-133.5,0-4.5-3-6S519.58,659.16,519.58,659.16Z"/><circle class="cls-2" cx="501.35" cy="743.67" r="7.17"/><circle class="cls-2" cx="508.52" cy="711" r="7.17"/><circle class="cls-2" cx="515.69" cy="679.21" r="7.17"/><circle class="cls-2" cx="493.33" cy="775.51" r="7.17"/><path class="cls-2" d="M476.84,249.49c20.25-17.25,43.87-1.33,43.87-1.33v35.06s9.37,7.12,12.19,8.62,14.81-1.12,6.56-14.81-6.94-36.94-6.56-40.69,1.12-3,15.18-37.31c23.75-57.94-25.31-54.56-25.31-54.56s-7.29-.62-18.56-1.5c-14.81-1.15-37.13-11.63-37.13-11.63s-10.46,22.54-14.39,24.16c-2.81,1.15-23.86,2.66-23.86,2.66s1.69,19.68,0,24.18S413.37,218,410.46,238.22s-2.44,25.5.75,36,7.31,18.94,12.37,20.62,1.9-11.68,4.88-20.06c15.75-44.25,48.45-20.19,48.45-20.19Z"/><path class="cls-2" d="M467.08,131.34s-23.25-21.57-32.62-34.12C424.63,84.06,404.83,60.28,396.58,67s-4.31,17.06-4.31,17.06,12.53,26.07,20.25,37.5,16.31,36.57,16.31,36.57c4.71-.41,12.27-1.24,22.78-2.3,1.38-.14,2.3-1.42,3.29-2.2S456.65,151.75,467.08,131.34Z"/><path class="cls-2" d="M472.43,73.57V45a3.73,3.73,0,0,1,3.72-3.72h.1v-.64a1.92,1.92,0,0,1,1.91-1.92h3.15a1.92,1.92,0,0,1,1.92,1.92v.64h6.91v-.64a1.92,1.92,0,0,1,1.91-1.92h3.15a1.92,1.92,0,0,1,1.92,1.92v.64h5.94v-.15A1.92,1.92,0,0,1,505,39.19h3.16A1.92,1.92,0,0,1,510,41.11v.15h7.57v-.15a1.93,1.93,0,0,1,1.92-1.92h3.15a1.93,1.93,0,0,1,1.92,1.92v.24A3.72,3.72,0,0,1,527.55,45V73.57Z"/><path class="cls-2" d="M468.39,117.66v-15h14.42a3.63,3.63,0,0,1,7.26,0h19.62a3.64,3.64,0,0,1,7.27,0h14.62v15h-14.7a4,4,0,0,1,.08.78,3.64,3.64,0,0,1-7.27,0,4,4,0,0,1,.08-.78H490a4,4,0,0,1,.08.78,3.63,3.63,0,0,1-7.26,0,4,4,0,0,1,.08-.78Z"/><circle class="cls-2" cx="499.59" cy="572.22" r="3.33"/><circle class="cls-2" cx="499.59" cy="517.09" r="3.33"/><circle class="cls-2" cx="499.59" cy="468.05" r="3.33"/><circle class="cls-2" cx="499.59" cy="424.48" r="3.33"/><circle class="cls-2" cx="508.82" cy="367.68" r="3.33"/><circle class="cls-2" cx="489.15" cy="367.68" r="3.33"/><circle class="cls-2" cx="499.59" cy="319.89" r="3.33"/><circle class="cls-2" cx="499.59" cy="291.66" r="3.33"/><circle class="cls-2" cx="499.59" cy="267.14" r="3.33"/><path class="cls-2" d="M561.22,370.81v-5a.21.21,0,0,1,.21-.22h6.32a.22.22,0,0,1,.22.22v5c1.24.35,2,.87,2,1.46,0,1-2.42,1.85-5.4,1.85s-5.39-.83-5.39-1.85C559.19,371.68,560,371.16,561.22,370.81Z"/><path class="cls-2" d="M527.62,719.46s18.41-21,12.87,5.69S527,722.21,527,722.21Z"/><path class="cls-2" d="M536.32,685.62s18.41-21,12.86,5.69-13.47-2.94-13.47-2.94Z"/><path class="cls-2" d="M519.94,749.47s18.41-21,12.86,5.68-13.46-2.94-13.46-2.94Z"/><path class="cls-2" d="M510.79,779.47s18.41-21,12.86,5.69-13.46-2.94-13.46-2.94Z"/><circle class="cls-2" cx="445.43" cy="142.45" r="9.28"/><circle class="cls-2" cx="433.54" cy="122.07" r="8.27"/><circle class="cls-2" cx="420.33" cy="102.14" r="6.31"/><path class="cls-2" d="M468.4,185.2v-15h14.42a3.63,3.63,0,0,1,7.26,0H509.7a3.64,3.64,0,0,1,7.27,0h14.62v15h-14.7a4,4,0,0,1,.08.78,3.64,3.64,0,0,1-7.27,0,4,4,0,0,1,.08-.78H490a4,4,0,0,1,.08.78,3.63,3.63,0,1,1-7.26,0,4,4,0,0,1,.08-.78Z"/><circle class="cls-3" cx="405.46" cy="82.11" r="3.68"/><line class="cls-2" x1="519.6" y1="46.18" x2="510.14" y2="674.66"/><line class="cls-2" x1="506.49" y1="46.12" x2="501.38" y2="710.01"/><line class="cls-2" x1="494.3" y1="46.61" x2="494.18" y2="743.67"/><line class="cls-2" x1="482.14" y1="46.94" x2="489.44" y2="769.48"/><path class="cls-4" d="M513.09,655.22h0a3.67,3.67,0,0,1-3.65,3.66h-19.8a3.67,3.67,0,0,1-3.65-3.66h0"/><line class="cls-2" x1="520.71" y1="283.22" x2="519.95" y2="304.01"/><line class="cls-2" x1="476.98" y1="279.35" x2="476.84" y2="249.49"/><circle class="cls-2" cx="491.96" cy="706.99" r="4.52"/><line class="cls-4" x1="519.28" y1="55.37" x2="481.81" y2="61.84"/><line class="cls-4" x1="481.64" y1="46.47" x2="520.1" y2="46.47"/><path class="cls-5" d="M299.64,159.06s6.75,2.25,6.75,4.88-7.13,350.62-7.13,350.62-11.62,11.25-22.5,3.09c-5.62-4.21-2.1-45.42-9.75-56.71-3-4.48-6.37-5.63-11.25-6.38s-11.43,1.31-14.62,4.5c-2.34,2.34-18.7,16.34-13.5,64.5,2,18.41,16.66,61.91,17.25,67.13,1.61,14.36-15.45,40.72-34.88,90.75-19.36,49.86,20.35,105.65,91.5,118.87,8.25,1.53,27,5.63,40.5,6.75s30.38,1.88,47.25,0,32.25-5.62,45-31.5c7.3-14.8,8.25-46.5-11.25-73.5-32.41-44.88-24.75-47.62-22.5-57s10.5-22.5,14.63-45,6.28-36.28,3.37-51.37c-6.46-33.66-29.6-48.34-34.5-24-1,4.83-.11,7.65-1.12,13.5-4.13,23.9-21.31,24.93-26.63,23.25C343.21,557.31,342,536.69,342,536.69c.44,14.25-11.57-371.94-8.25-382.13,2.88-8.8,6-16.12,16.5-22.87S339,75.81,339,75.81s-3.37-9.37-.37-12.37,15.57-10.89,16.12-26.25c1-28.41-26.62-28.5-34.12-22.5s-38.25,130.87-37.5,133.5,0,4.5,3,6S299.64,159.06,299.64,159.06Z"/><circle class="cls-2" cx="317.87" cy="74.55" r="7.17"/><circle class="cls-2" cx="310.7" cy="107.22" r="7.17"/><circle class="cls-2" cx="303.53" cy="139.01" r="7.17"/><circle class="cls-2" cx="325.9" cy="42.71" r="7.17"/><path class="cls-2" d="M342.38,568.73c-20.25,17.25-43.87,1.33-43.87,1.33V535s-9.37-7.13-12.18-8.63-14.82,1.13-6.57,14.82,6.94,36.93,6.57,40.68-1.13,3-15.19,37.32c-23.75,57.94,25.31,54.56,25.31,54.56s7.29.62,18.56,1.5c14.81,1.15,37.13,11.62,37.13,11.62s10.46-22.53,14.39-24.15c2.81-1.15,23.86-2.66,23.86-2.66s-1.69-19.69,0-24.19,15.47-35.6,18.37-55.87,2.44-25.5-.75-36-7.31-18.94-12.37-20.63-1.89,11.69-4.88,20.07c-15.75,44.25-48.45,20.19-48.45,20.19Z"/><path class="cls-2" d="M352.14,686.87S375.4,708.45,384.76,721c9.83,13.16,29.63,36.94,37.88,30.19S427,734.12,427,734.12s-12.53-26.07-20.25-37.5-16.31-36.56-16.31-36.56c-4.71.41-12.27,1.24-22.78,2.3-1.37.14-2.29,1.42-3.28,2.2S362.57,666.47,352.14,686.87Z"/><path class="cls-2" d="M346.79,744.65v28.59a3.73,3.73,0,0,1-3.72,3.72H343v.64a1.92,1.92,0,0,1-1.91,1.92h-3.15A1.92,1.92,0,0,1,336,777.6V777h-6.91v.64a1.92,1.92,0,0,1-1.91,1.92H324a1.92,1.92,0,0,1-1.92-1.92V777h-5.94v.15a1.92,1.92,0,0,1-1.91,1.92h-3.16a1.92,1.92,0,0,1-1.91-1.92V777h-7.57v.15a1.93,1.93,0,0,1-1.92,1.92h-3.15a1.93,1.93,0,0,1-1.92-1.92v-.24a3.72,3.72,0,0,1-2.95-3.63V744.65Z"/><path class="cls-2" d="M350.83,700.56v15H336.41a3.63,3.63,0,0,1-7.26,0H309.53a3.64,3.64,0,0,1-7.27,0H287.64v-15h14.7a4,4,0,0,1-.08-.78,3.64,3.64,0,0,1,7.27,0,4,4,0,0,1-.08.78h19.78a4,4,0,0,1-.08-.78,3.63,3.63,0,0,1,7.26,0,4,4,0,0,1-.08.78Z"/><circle class="cls-2" cx="319.63" cy="246" r="3.33"/><circle class="cls-2" cx="319.63" cy="301.13" r="3.33"/><circle class="cls-2" cx="319.63" cy="350.17" r="3.33"/><circle class="cls-2" cx="319.63" cy="393.73" r="3.33"/><circle class="cls-2" cx="310.4" cy="450.54" r="3.33"/><circle class="cls-2" cx="330.07" cy="450.54" r="3.33"/><circle class="cls-2" cx="319.63" cy="498.33" r="3.33"/><circle class="cls-2" cx="319.63" cy="526.56" r="3.33"/><circle class="cls-2" cx="319.63" cy="551.08" r="3.33"/><path class="cls-2" d="M258,447.41v5a.21.21,0,0,1-.21.22h-6.32a.22.22,0,0,1-.22-.22v-5c-1.24-.35-2-.87-2-1.46,0-1,2.42-1.85,5.4-1.85s5.39.83,5.39,1.85C260,446.54,259.24,447.06,258,447.41Z"/><path class="cls-2" d="M291.6,98.76s-18.41,21-12.86-5.69S292.2,96,292.2,96Z"/><path class="cls-2" d="M282.91,132.59s-18.41,21-12.87-5.69,13.47,2.95,13.47,2.95Z"/><path class="cls-2" d="M299.28,68.75s-18.41,21-12.86-5.69,13.46,3,13.46,3Z"/><path class="cls-2" d="M308.44,38.75s-18.41,21-12.87-5.69S309,36,309,36Z"/><circle class="cls-2" cx="373.8" cy="675.77" r="9.28"/><circle class="cls-2" cx="385.68" cy="696.15" r="8.27"/><circle class="cls-2" cx="398.89" cy="716.08" r="6.31"/><path class="cls-2" d="M350.83,633v15H336.41a3.63,3.63,0,0,1-7.26,0H309.53a3.64,3.64,0,0,1-7.27,0H287.64V633h14.7a4,4,0,0,1-.08-.78,3.64,3.64,0,0,1,7.27,0,4,4,0,0,1-.08.78h19.78a4,4,0,0,1-.08-.78,3.63,3.63,0,0,1,7.26,0,4,4,0,0,1-.08.78Z"/><circle class="cls-3" cx="413.76" cy="736.11" r="3.68"/><line class="cls-2" x1="299.62" y1="772.04" x2="309.08" y2="143.55"/><line class="cls-2" x1="312.74" y1="772.1" x2="317.84" y2="108.21"/><line class="cls-2" x1="324.93" y1="771.61" x2="325.05" y2="74.55"/><line class="cls-2" x1="337.08" y1="771.28" x2="329.78" y2="48.74"/><path class="cls-4" d="M306.13,163h0a3.67,3.67,0,0,1,3.65-3.66h19.8a3.67,3.67,0,0,1,3.65,3.66h0"/><line class="cls-2" x1="298.51" y1="535" x2="299.27" y2="514.21"/><line class="cls-2" x1="342.25" y1="538.87" x2="342.38" y2="568.73"/><circle class="cls-2" cx="327.26" cy="111.23" r="4.52"/><line class="cls-4" x1="299.94" y1="762.85" x2="337.41" y2="756.38"/><line class="cls-4" x1="337.58" y1="771.75" x2="299.13" y2="771.75"/></svg>