<svg id="Layer_1" data-name="Layer 1" xmlns="http://www.w3.org/2000/svg" viewBox="0 0 924.71 1167.34"><defs><style>.cls-1{fill:#fcfcfc;stroke:#020202;stroke-miterlimit:10;stroke-width:4px;}.cls-2{fill:#35aa3b;}.cls-3{fill:#9738f2;}</style></defs><title>belljar</title><path class="cls-1" d="M914.86,1043c1.75,47.16-198.66,106.26-382,105.66C353,1148.1,155.22,1089.88,157,1043c1.8-48.33,215.89-84,378.94-84C698.64,959.09,913.06,994.67,914.86,1043Z" transform="translate(-154.96 -44.77)"/><path class="cls-2" d="M895.83,1182.29" transform="translate(-154.96 -44.77)"/><path d="M895.83,1182.92a.63.63,0,0,0,0-1.25.63.63,0,0,0,0,1.25Z" transform="translate(-154.96 -44.77)"/><path class="cls-1" d="M851.65,486.07a4.61,4.61,0,0,1,0,.53V961.39c0,16.85,29.29,67.33,12.44,67.33a856,856,0,0,1-650.91,0,5.81,5.81,0,0,1-3.35-1c-9.27-7,9.68-14.24,12.92-65.38V486.6a4.61,4.61,0,0,1,0-.53c0-.92,0-1.87,0-2.81,0-173.65,140.8-314.45,314.45-314.45s314.45,140.8,314.45,314.45C851.67,484.2,851.67,485.15,851.65,486.07Z" transform="translate(-154.96 -44.77)"/><ellipse class="cls-1" cx="390.88" cy="143.09" rx="69.09" ry="30.56"/><path class="cls-1" d="M571.09,134.24l-.37,40.08c-24.64,15.55-53.84-.24-53.84-.24l.51-42L550.86,120Z" transform="translate(-154.96 -44.77)"/><circle class="cls-1" cx="390.88" cy="49.38" r="47.38"/><path class="cls-3" d="M273.61,328.66a376.93,376.93,0,0,1-41.82-39.77,51,51,0,0,0-1.15,45.16,180.27,180.27,0,0,1-53.52-2.1c3.26,23.62,18,43.83,32.25,62.94,27.42,36.74,57,75.17,99.47,92.37,19.56,7.91,40.73,10.79,61.64,13.6l102.25,13.76c118.4,15.92,240.45,31.65,356,1.14,21.66-5.73,36.31-30.46,48.57-6.3,7.18,14.14,15.84-57.95,16.14-73.8.17-9.32.15-19.35-5.19-27-6.84-9.81-20-12.48-31.94-13.58-67.9-6.3-137,12.08-204.14,0-24.72-4.46-48.56-13-73.3-17.32-44.44-7.82-90-1.94-135.1-1.57-21.62.17-43.5-1-64.22-7.13-39.32-11.68-73.47-41-114.43-43.2" transform="translate(-154.96 -44.77)"/><path d="M275.38,326.89a385.15,385.15,0,0,1-41.82-39.76,2.52,2.52,0,0,0-3.93.5,54.28,54.28,0,0,0-1.15,47.69l2.16-3.77a182.31,182.31,0,0,1-52.86-2,2.54,2.54,0,0,0-3.07,3.07c3.8,25.93,20.32,47.3,35.6,67.68,14.77,19.72,29.93,39.37,47.93,56.28s38.65,30.34,62.35,37.43c13.5,4,27.45,6.27,41.38,8.21,15,2.08,30,4,45,6.06,58.43,7.86,116.83,16.5,175.52,22.12,58,5.56,116.63,7.84,174.63,1.18,14-1.61,28-3.73,41.94-6.45q10.62-2.07,21.13-4.62c5.81-1.41,11.61-2.74,17.06-5.24,8.24-3.78,15.54-10.68,24.3-13.19a8.91,8.91,0,0,1,9.61,2.62c2.26,2.4,3.12,6.31,5.76,8.26,7.78,5.75,11.3-17.14,12-20.57a432.94,432.94,0,0,0,6.26-45.07c1.56-17.15,3.13-38.63-14.19-48.35-10.05-5.65-22.26-6.35-33.51-7a428.22,428.22,0,0,0-44.32-.2c-29.16,1.2-58.22,4.27-87.41,5a358.9,358.9,0,0,1-43.38-1.33,291.6,291.6,0,0,1-44.24-8.24c-14.15-3.64-28.2-7.72-42.53-10.62a272.13,272.13,0,0,0-43.36-5c-30-1.18-60.05,1.39-90.08,2-28.53.61-57.13-.65-84-11.07-23.44-9.08-44.81-22.74-68.39-31.48a119.75,119.75,0,0,0-34.62-7.65c-3.21-.19-3.2,4.81,0,5,24.87,1.48,47.32,13,69.17,24,10.66,5.35,21.37,10.67,32.51,15a161.89,161.89,0,0,0,38.48,9.52c28.49,3.58,57.45,1.45,86,.27,29.41-1.22,59.16-2,88.25,3.31,28,5.09,54.79,15,83,18.81,28,3.76,56.38,2.79,84.52,1,28.66-1.82,57.32-4.48,86.07-3.88,12.47.26,25.83.28,37.88,3.9,5.35,1.61,10.58,4.21,14.19,8.6,4.13,5,5.33,11.66,5.64,18,.66,13.69-1.25,27.59-3.06,41.13-1,7.62-2.18,15.23-3.68,22.78-1.05,5.32-2,11-4.26,16-.29.66-.66,1.26-1,1.89s-.5.2.61.19c.52,0,.41.44.25-.12-.58-2-2.3-4.12-3.54-5.74-4.88-6.38-11.68-7.69-18.92-4.62-8.64,3.66-15.85,10-24.62,13.49-5.87,2.32-12.28,3.52-18.41,4.94q-10.2,2.37-20.49,4.29c-55.91,10.46-113.17,11.23-169.78,7.66-57.47-3.62-114.53-11.67-171.55-19.34-29.05-3.91-58.1-7.74-87.13-11.72-26.41-3.62-52.37-8.68-75.38-22.83-20.65-12.69-37.79-30.27-53.2-48.8-7.76-9.34-15.12-19-22.4-28.72-7.63-10.19-15.35-20.37-21.79-31.35-6.31-10.77-11.14-22.27-13-34.67l-3.08,3.07a186.89,186.89,0,0,0,54.19,2.19,2.54,2.54,0,0,0,2.16-3.76A48.88,48.88,0,0,1,234,290.16l-3.93.5a385.24,385.24,0,0,0,41.82,39.77c2.47,2,6-1.5,3.54-3.54Z" transform="translate(-154.96 -44.77)"/><path d="M283.49,374a1.42,1.42,0,0,0,.21,1.57,8,8,0,0,0,2.38,1.32l-.53.88q-2.69-1.12-7.64-2.89c-3.31-1.18-5.79-2-7.47-2.5l.58-.86a10.59,10.59,0,0,0,2.61.51,2.66,2.66,0,0,0,1.72-.64,11.62,11.62,0,0,0,1.88-2.23L291.82,348a12.18,12.18,0,0,0,1.19-2.13,1.45,1.45,0,0,0-.2-1.62,7.66,7.66,0,0,0-2.32-1.31l.57-.86q2.26,1,7.36,2.79c3.12,1.11,5.71,2,7.79,2.62l-.57.86a11.18,11.18,0,0,0-2.71-.54,2.63,2.63,0,0,0-1.71.62,10.45,10.45,0,0,0-1.89,2.25l-14.59,21.19A13.69,13.69,0,0,0,283.49,374Z" transform="translate(-154.96 -44.77)"/><path d="M308.15,385.1a4.15,4.15,0,0,0,3.26-.15,4.3,4.3,0,0,0,2.08-2.65,8.54,8.54,0,0,0,.35-3.36,23.93,23.93,0,0,0-.8-4.32c-.07-.24-.26-.93-.57-2.08a14,14,0,0,1-.49-3.2,8.49,8.49,0,0,1,.4-2.74,6.62,6.62,0,0,1,3.95-4.3,10.05,10.05,0,0,1,7,.12,11.37,11.37,0,0,1,4.81,2.8,4.2,4.2,0,0,1,.82,4.51,4.39,4.39,0,0,1-1.55,2.19,2.6,2.6,0,0,1-2.5.39,2.38,2.38,0,0,1-1.61-1.52,3.76,3.76,0,0,1,0-2.52,5.78,5.78,0,0,1,1.15-2.08,6.69,6.69,0,0,1,1.61-1.4,3.23,3.23,0,0,0-1.54-.92,3.65,3.65,0,0,0-3,.19,4.7,4.7,0,0,0-2,2.65,5.71,5.71,0,0,0-.26,2.5c.11.8.35,2,.73,3.5l.34,1.22a31.61,31.61,0,0,1,.82,4.85,9.18,9.18,0,0,1-.41,3.46,7,7,0,0,1-2.31,3.38,7.82,7.82,0,0,1-4,1.58,13.14,13.14,0,0,1-10.25-3.73,4.76,4.76,0,0,1-.87-5,4.26,4.26,0,0,1,1.51-2.2,2.52,2.52,0,0,1,3.91,1.33,4.74,4.74,0,0,1-.13,2.91,7.41,7.41,0,0,1-.85,1.81c-.34.5-.8,1.1-1.37,1.79A4.55,4.55,0,0,0,308.15,385.1Z" transform="translate(-154.96 -44.77)"/><path d="M348.6,389.6l.91.27L347.25,393a7.67,7.67,0,0,1-3.82,3,6.85,6.85,0,0,1-4,0,4.24,4.24,0,0,1-3.1-2.57,3.94,3.94,0,0,1,.05-2.6,12.1,12.1,0,0,1,1.29-2.7,14.52,14.52,0,0,1-5.17,4,7.19,7.19,0,0,1-4.87.25,5.26,5.26,0,0,1-3.54-2.77,6.71,6.71,0,0,1-.05-4.76,21.9,21.9,0,0,1,5-8.35,26.89,26.89,0,0,1,8.2-6.24q4.47-2.14,7.83-1.13a3,3,0,0,1,1.86,1.39,3.72,3.72,0,0,1,.23,2.59l1.39-2.15a36.22,36.22,0,0,0,7.17,1.39L343,391.93a4.93,4.93,0,0,0-.65,1.27c-.21.7,0,1.14.59,1.33,1.12.34,2.5-.63,4.13-2.89Zm-2.52-14.7a4.3,4.3,0,0,0,.27-.7,3.48,3.48,0,0,0,.14-1.95,1.42,1.42,0,0,0-1-1q-1.63-.5-4.61,1.8a28.78,28.78,0,0,0-5.77,6.26,28.2,28.2,0,0,0-4.05,8.1,6.22,6.22,0,0,0-.38,2.37,1.11,1.11,0,0,0,.82,1,3.57,3.57,0,0,0,2.77-.76,18.88,18.88,0,0,0,3.82-3.45,39.72,39.72,0,0,0,4.22-5.87l-.59,1.08Z" transform="translate(-154.96 -44.77)"/><path d="M383.66,391.23a24,24,0,0,1-3.37,7.26,15.2,15.2,0,0,1-5.49,5,8.9,8.9,0,0,1-6.76.69q-3.87-1.06-4.78-4.17a10.86,10.86,0,0,1-7.84.71,6.78,6.78,0,0,1-4.35-3,5.93,5.93,0,0,1-.51-4.69,10.27,10.27,0,0,1,3.67-5.2,34.28,34.28,0,0,1,6.95-4.31q4.06-1.95,10.53-4.49a6.83,6.83,0,0,0-2.4.15,22.16,22.16,0,0,0-2.65.86,16.75,16.75,0,0,1-2.13.74,3.14,3.14,0,0,1-1.61,0,3.56,3.56,0,0,1-1.42-.91,2.52,2.52,0,0,0-1.13-.78,1.4,1.4,0,0,0-1.21.24,5.85,5.85,0,0,0-1.32,1.56l-.79,1.19-.92-.25,2-3.24a9.52,9.52,0,0,1,3.09-3.29,3.79,3.79,0,0,1,2.86-.38,3.65,3.65,0,0,1,1,.44,7.11,7.11,0,0,1,1,.8l.65.49a6.72,6.72,0,0,0,1.13.7,7,7,0,0,0,1.3.48,7.44,7.44,0,0,0,4,0l.78-.77.88.76a55,55,0,0,0-11.1,8.36q-4.68,4.62-5.89,9.07a5.18,5.18,0,0,0-.17,2.86,2.18,2.18,0,0,0,1.65,1.39,5.86,5.86,0,0,0,3.73-.33,8.15,8.15,0,0,1,.31-3.4,13,13,0,0,1,2.78-5.11,14.09,14.09,0,0,1,4.32-3.44,5.62,5.62,0,0,1,3.81-.72q1.83.51,1,3.7a13.58,13.58,0,0,1-2.43,4.79,15.28,15.28,0,0,1-4.38,3.73,4.09,4.09,0,0,0,3.06,3.24,5.49,5.49,0,0,0,4.64-.79,12.53,12.53,0,0,0,3.84-4.14,22.49,22.49,0,0,0,2.43-5.65c.2-.71.32-1.23.38-1.56a17.2,17.2,0,0,1-3.82-3.8,5,5,0,0,1-.75-4.37,2.89,2.89,0,0,1,1.32-1.77,2.83,2.83,0,0,1,2.3-.25c1.48.41,2.34,1.56,2.56,3.46a19.24,19.24,0,0,1-.37,6.19C383.91,390.17,383.77,390.81,383.66,391.23Zm-11.38-2.86a11,11,0,0,0-2,2.69,15.46,15.46,0,0,0-1.52,3.66,9.27,9.27,0,0,0-.36,3,15,15,0,0,0,3.64-3.42,12.42,12.42,0,0,0,2.15-4.24c.42-1.52.35-2.35-.2-2.5S373,387.73,372.28,388.37Z" transform="translate(-154.96 -44.77)"/><path d="M435.39,411.54l-2,3.28c-1.93,3.09-4.52,4.27-7.74,3.53q-2.83-.64-3.51-2.65a4.18,4.18,0,0,1,0-2.32,12.67,12.67,0,0,1,1.61-3.65l7.41-12.19a7.8,7.8,0,0,0,.84-1.86c.15-.65,0-1-.46-1.14q-2-.45-5.92,3.72A71.84,71.84,0,0,0,416.7,411l0-.15-2.31,4.26-7-1.6L418,394.56a7.44,7.44,0,0,0,.85-1.91q.21-.93-.57-1.11c-1.47-.33-3.51,1-6.12,3.95A72.23,72.23,0,0,0,404,407.55v-.05l-2.4,4.64-6.89-1.57,10.79-19.75a5.68,5.68,0,0,0,.56-1.36c.16-.69-.06-1.09-.64-1.23a2.1,2.1,0,0,0-1.8.54,12.25,12.25,0,0,0-2.16,2.62l-1.5,2.28-.93-.21,2.17-3.42a7.84,7.84,0,0,1,3.59-3.24,7,7,0,0,1,4.16-.28,3.91,3.91,0,0,1,2.78,1.76,4.27,4.27,0,0,1,.28,3.05,11.57,11.57,0,0,1-1.11,2.83l-2,4q3.75-5.42,6.85-7.38a8.44,8.44,0,0,1,6.62-1.17q3.85.89,3,4.7a15.15,15.15,0,0,1-1.4,3.43l-1.6,2.93q3.78-5.26,6.83-7a8.43,8.43,0,0,1,6.32-1,4.12,4.12,0,0,1,2.8,1.71,4,4,0,0,1,.34,3,11.23,11.23,0,0,1-1.5,3.41L429,414a5.28,5.28,0,0,0-.62,1.35c-.15.68.08,1.09.7,1.24q1.65.38,4-3.16l1.41-2.15Z" transform="translate(-154.96 -44.77)"/><path d="M462.87,402.71q-.89,4.43-4.95,10a50.32,50.32,0,0,1-9,9.53,34.79,34.79,0,0,1-6.58,4.21,22.19,22.19,0,0,1-6.9,2.16,10.1,10.1,0,0,1-3.63,0,3.88,3.88,0,0,1-2.34-1.23,2.48,2.48,0,0,1-.51-2.19,2.85,2.85,0,0,1,1.4-2,3.57,3.57,0,0,1,2.6-.38q2.9.59,4.59,4.44a24.8,24.8,0,0,0,7.29-3.25l.83-24.27a6.44,6.44,0,0,0-.15-1.94.85.85,0,0,0-.67-.62,1.36,1.36,0,0,0-1.18.53,16.48,16.48,0,0,0-1.85,2.65l-1.36,2.23-.94-.18,1.94-3.35a8.39,8.39,0,0,1,3.27-3.44,5.86,5.86,0,0,1,3.79-.42,4.54,4.54,0,0,1,3.06,1.83,7.53,7.53,0,0,1,.8,4.46l-1.09,17.31a48,48,0,0,0,5-5.58,31.49,31.49,0,0,0,3.54-5.71,10.24,10.24,0,0,1-2.75-3.41,5.63,5.63,0,0,1-.51-3.83,3.39,3.39,0,0,1,1.36-2.26,3.28,3.28,0,0,1,2.59-.43C462.68,398,463.46,399.73,462.87,402.71Z" transform="translate(-154.96 -44.77)"/><path d="M464.74,425.09a4.15,4.15,0,0,0,3.21-.6,4.25,4.25,0,0,0,1.69-2.9,8.64,8.64,0,0,0-.11-3.38,23.57,23.57,0,0,0-1.39-4.17c-.1-.23-.38-.89-.84-2a13,13,0,0,1-.92-3.09,8.36,8.36,0,0,1,0-2.78,6.64,6.64,0,0,1,3.33-4.8,10.06,10.06,0,0,1,6.95-.84,11.26,11.26,0,0,1,5.14,2.12,4.2,4.2,0,0,1,1.44,4.35,4.43,4.43,0,0,1-1.24,2.38,2.59,2.59,0,0,1-2.42.74,2.42,2.42,0,0,1-1.81-1.3,3.77,3.77,0,0,1-.32-2.5,6,6,0,0,1,.86-2.21,6.77,6.77,0,0,1,1.41-1.61,3.35,3.35,0,0,0-1.66-.7,3.66,3.66,0,0,0-3,.61,4.69,4.69,0,0,0-1.61,2.89,5.55,5.55,0,0,0,.09,2.51,32,32,0,0,0,1.2,3.38l.51,1.16a30.65,30.65,0,0,1,1.47,4.69,9.09,9.09,0,0,1,.07,3.48A7,7,0,0,1,475,424.2a7.88,7.88,0,0,1-3.71,2.11,11.82,11.82,0,0,1-5.09.11,11.6,11.6,0,0,1-5.58-2.4,4.77,4.77,0,0,1-1.54-4.79,4.35,4.35,0,0,1,1.19-2.38,2.54,2.54,0,0,1,4.07.78,4.76,4.76,0,0,1,.27,2.9,7.07,7.07,0,0,1-.6,1.9c-.27.55-.64,1.2-1.11,2A4.58,4.58,0,0,0,464.74,425.09Z" transform="translate(-154.96 -44.77)"/><path d="M500.67,415.9a37.34,37.34,0,0,1-11.45,3,19.46,19.46,0,0,0-.84,3.32,5.66,5.66,0,0,0,.38,3.87,3.61,3.61,0,0,0,2.67,1.54,7.88,7.88,0,0,0,3.62-.41,12.55,12.55,0,0,0,4.25-2.49l.73.52a15.82,15.82,0,0,1-5.52,3.94,12.32,12.32,0,0,1-7,.86,8.49,8.49,0,0,1-5.3-2.72,6.45,6.45,0,0,1-1.36-5.5,20.46,20.46,0,0,1,3.83-8.73,22.35,22.35,0,0,1,7.73-6.76,14.82,14.82,0,0,1,9.5-1.66,6.34,6.34,0,0,1,3.55,1.61,3.37,3.37,0,0,1,1,3.12Q505.76,413.56,500.67,415.9Zm-3.61-8.9a21.61,21.61,0,0,0-4.2,4.73,30.74,30.74,0,0,0-3.34,6.3,20,20,0,0,0,6-2.45,13.6,13.6,0,0,0,3.77-3.59,11,11,0,0,0,1.92-4.74,2.72,2.72,0,0,0,0-1.32.64.64,0,0,0-.54-.44C499.7,405.34,498.5,405.84,497.06,407Z" transform="translate(-154.96 -44.77)"/><path d="M510,429.78c-.12.83.17,1.29.86,1.39,1,.15,2.21-1,3.54-3.49l1.23-2.26.94.14L514.86,429a7.41,7.41,0,0,1-3.3,3.56,7,7,0,0,1-4,.61,4.54,4.54,0,0,1-3.21-1.65,4.47,4.47,0,0,1-.68-3.41,12.15,12.15,0,0,1,1.09-3.39l11.49-24.79a5.81,5.81,0,0,0,.45-1.35,1.54,1.54,0,0,0-.56-1.55,5.54,5.54,0,0,0-2.54-.82l.49-1a38.48,38.48,0,0,0,6.23.33,30.26,30.26,0,0,0,5.58-.73l-15.46,33.75A4.1,4.1,0,0,0,510,429.78Z" transform="translate(-154.96 -44.77)"/><path d="M547.13,399.51a4.13,4.13,0,0,1,1.29,3.7,4.21,4.21,0,0,1-1.7,2.81,4.41,4.41,0,0,1-3.43.92,3.63,3.63,0,0,1-2.25-1,2.47,2.47,0,0,1-.58-2.1,4.57,4.57,0,0,1,1.42-2.8,6.4,6.4,0,0,1,3-1.58,1.65,1.65,0,0,0-.63-.56,2.75,2.75,0,0,0-1-.3,4,4,0,0,0-2.77.65,6.39,6.39,0,0,0-1.87,2.34q-.87,1.65-2.12,4.73L535,410l5.32.69-.43,1-5.27-.68-13.25,32.21a36.37,36.37,0,0,0-7.3-.23l13.54-32.88-4.17-.54.42-1,4.13.53a33.83,33.83,0,0,1,3.35-6.37,13.41,13.41,0,0,1,3.82-3.78,10.82,10.82,0,0,1,7.31-1.38A7.92,7.92,0,0,1,547.13,399.51Z" transform="translate(-154.96 -44.77)"/><path d="M552.62,437.77a4.1,4.1,0,0,0,3.15-.84,4.22,4.22,0,0,0,1.47-3,8.66,8.66,0,0,0-.36-3.37,24.15,24.15,0,0,0-1.71-4.05l-1-1.91a13.11,13.11,0,0,1-1.15-3,8.15,8.15,0,0,1-.2-2.76,6.63,6.63,0,0,1,2.95-5,10,10,0,0,1,6.87-1.37,11.3,11.3,0,0,1,5.29,1.72,4.18,4.18,0,0,1,1.76,4.23,4.33,4.33,0,0,1-1.05,2.46,2.57,2.57,0,0,1-2.36.92,2.39,2.39,0,0,1-1.9-1.15,3.77,3.77,0,0,1-.51-2.47,6.14,6.14,0,0,1,.69-2.27,7,7,0,0,1,1.28-1.71,3.33,3.33,0,0,0-1.71-.57,3.64,3.64,0,0,0-2.93.83,4.71,4.71,0,0,0-1.39,3,5.73,5.73,0,0,0,.28,2.5,32.65,32.65,0,0,0,1.46,3.27l.59,1.12a32.5,32.5,0,0,1,1.83,4.57,9.35,9.35,0,0,1,.33,3.46,6.94,6.94,0,0,1-1.55,3.79,7.82,7.82,0,0,1-3.54,2.39A13.18,13.18,0,0,1,548.41,437a4.76,4.76,0,0,1-1.9-4.65,4.32,4.32,0,0,1,1-2.46,2.53,2.53,0,0,1,4.11.46,4.84,4.84,0,0,1,.49,2.88,7.58,7.58,0,0,1-.45,1.94q-.34.85-1,2A4.51,4.51,0,0,0,552.62,437.77Z" transform="translate(-154.96 -44.77)"/><path d="M577,417.19c.06-.66-.21-1-.81-1.07a2.15,2.15,0,0,0-1.73.78,11.36,11.36,0,0,0-1.81,2.89l-1.22,2.46-1-.08,1.73-3.68q2.29-5,7.38-4.54a4.37,4.37,0,0,1,3.25,1.41,4.07,4.07,0,0,1,.8,3,8.52,8.52,0,0,1-.8,2.9l-6.56,14.83a4.93,4.93,0,0,0-.43,1.42.91.91,0,0,0,.91,1.14,2.19,2.19,0,0,0,1.6-.72,10.46,10.46,0,0,0,1.89-3l1.1-2.32,1,.08-1.61,3.54q-2.19,5-7.19,4.56-4.54-.39-4.18-4.54a11.76,11.76,0,0,1,1.07-3.73l6.13-13.91A6.67,6.67,0,0,0,577,417.19Zm4.28-14.07a5.54,5.54,0,0,1,3.7-.89,4.11,4.11,0,0,1,2.65,1.06,2.85,2.85,0,0,1,.78,2.36,4.19,4.19,0,0,1-1.78,3.17,5.5,5.5,0,0,1-3.81,1,4,4,0,0,1-2.67-1.11,2.84,2.84,0,0,1-.65-2.45A4.21,4.21,0,0,1,581.32,403.12Z" transform="translate(-154.96 -44.77)"/><path d="M592.28,437.38a3.55,3.55,0,0,0-.23,1,1.47,1.47,0,0,0,.32,1.16,1.57,1.57,0,0,0,1.07.46,3,3,0,0,0,2.2-.92,9.29,9.29,0,0,0,2.07-3.09l.91-2,.94.07-1.21,2.83q-2.4,5.75-7.94,5.33a5.09,5.09,0,0,1-3.73-1.61,5,5,0,0,1-1-3.72,10.93,10.93,0,0,1,.67-3l6.38-17.21-4.5-.34.32-1,4.55.34,2.71-7.29a36.37,36.37,0,0,0,7.3-.15l-3,8,5.65.43-.23,1-5.8-.44Z" transform="translate(-154.96 -44.77)"/><path d="M609.82,438.63a3.53,3.53,0,0,0-.22,1,1.51,1.51,0,0,0,.32,1.16,1.58,1.58,0,0,0,1.08.44,3,3,0,0,0,2.2-.93,9.44,9.44,0,0,0,2-3.1l.89-2,1,.06-1.2,2.84q-2.34,5.76-7.89,5.39a5.06,5.06,0,0,1-3.74-1.58,5,5,0,0,1-1-3.71,10.52,10.52,0,0,1,.65-3L610.1,418l-4.5-.3.32-1,4.55.3,2.65-7.3a37.33,37.33,0,0,0,7.3-.22l-2.9,8,5.65.38-.21,1-5.81-.39Z" transform="translate(-154.96 -44.77)"/><path d="M627.69,420.85c0-.66-.23-1-.84-1.05a2.09,2.09,0,0,0-1.7.82,11.52,11.52,0,0,0-1.74,2.93L622.25,426l-1-.06,1.64-3.72c1.45-3.35,3.88-4.93,7.28-4.71a4.39,4.39,0,0,1,3.28,1.33,4.15,4.15,0,0,1,.87,3,8.56,8.56,0,0,1-.74,2.91l-6.21,15a4.76,4.76,0,0,0-.39,1.43c0,.7.27,1.08.93,1.12a2.13,2.13,0,0,0,1.58-.76,10,10,0,0,0,1.82-3l1.06-2.34,1,.06-1.53,3.57q-2.08,5-7.08,4.73-4.56-.29-4.29-4.44a11.88,11.88,0,0,1,1-3.76l5.8-14.05A6.5,6.5,0,0,0,627.69,420.85Zm3.95-14.16a5.49,5.49,0,0,1,3.68-1,4.17,4.17,0,0,1,2.68,1,2.85,2.85,0,0,1,.83,2.34,4.15,4.15,0,0,1-1.71,3.2,5.38,5.38,0,0,1-3.78,1.07,3.93,3.93,0,0,1-2.7-1,2.81,2.81,0,0,1-.7-2.43A4.17,4.17,0,0,1,631.64,406.69Z" transform="translate(-154.96 -44.77)"/><path d="M663.52,438.13,662,441.7q-2.12,5.06-7,4.75a4.66,4.66,0,0,1-3.9-1.9,4.09,4.09,0,0,1-.5-2.39,12.61,12.61,0,0,1,1-3.91L657,425a7.41,7.41,0,0,0,.59-2.12c0-.77-.25-1.17-.88-1.21-1-.06-2.28.88-3.82,2.83a46.68,46.68,0,0,0-4.77,7.77,89.78,89.78,0,0,0-4.4,10.25l-.8,2.46-7.06-.43,7.39-21.25a5,5,0,0,0,.39-1.58c0-.6-.22-.92-.79-.95a2.15,2.15,0,0,0-1.73.77,11.16,11.16,0,0,0-1.72,3l-1.1,2.5-.95-.06,1.58-3.72a8.11,8.11,0,0,1,2.8-3.8,6.37,6.37,0,0,1,4-1c2.87.18,4.22,1.63,4,4.37a11,11,0,0,1-.58,2.88l-1.92,6a45,45,0,0,1,4.42-7.69,12.66,12.66,0,0,1,4-3.75,8.24,8.24,0,0,1,4.35-.89q4.5.28,4.26,4.28a12,12,0,0,1-.87,3.52l-5.81,14.45a4.73,4.73,0,0,0-.39,1.44c0,.7.25,1.07.89,1.11a2.18,2.18,0,0,0,1.62-.76,9.38,9.38,0,0,0,1.77-3l1.05-2.35Z" transform="translate(-154.96 -44.77)"/><path d="M692.55,420a3.19,3.19,0,0,1,.71,2.4,3.07,3.07,0,0,1-.83,2.08,2.17,2.17,0,0,1-1.7.68,2.38,2.38,0,0,1-1.71-.89,2.93,2.93,0,0,1-.61-2.17A6.41,6.41,0,0,1,689,420a7.22,7.22,0,0,0-3.14,2.06,4.79,4.79,0,0,1,1.89,2,5.52,5.52,0,0,1,.53,2.87,8.49,8.49,0,0,1-1.44,4.11,11.2,11.2,0,0,1-3.54,3.4,12.72,12.72,0,0,1-5.14,1.77,39.19,39.19,0,0,0-4.15,1.75c-.84.45-1.28.91-1.31,1.38a.9.9,0,0,0,.5.8,8.2,8.2,0,0,0,1.66.78l4.12,1.66a14.51,14.51,0,0,1,4,2.34,3.94,3.94,0,0,1,1.32,3.42,6.12,6.12,0,0,1-2.35,4.3,14.79,14.79,0,0,1-5.78,2.88,23,23,0,0,1-7.63.74,17.39,17.39,0,0,1-6.43-1.45c-1.7-.81-2.51-1.78-2.44-2.91s1.07-2.11,3-2.81a22,22,0,0,1,6.45-1.23l.16.76Q666.1,450,666,452.29a2.42,2.42,0,0,0,.92,2.19,5.05,5.05,0,0,0,2.86.91,11.68,11.68,0,0,0,3.92-.49,9.84,9.84,0,0,0,3.5-1.75,3.56,3.56,0,0,0,1.51-2.54,1.33,1.33,0,0,0-.5-1.21,8.23,8.23,0,0,0-2-.9l-7-2.49a5,5,0,0,1-2.1-1.36,2.72,2.72,0,0,1-.7-2.07c.07-1.21.85-2.28,2.33-3.23a37,37,0,0,1,7-3.13l-.5,0a9.66,9.66,0,0,1-5.35-1.73,4.75,4.75,0,0,1-1.81-4.33,8.88,8.88,0,0,1,1.71-4.57,11.19,11.19,0,0,1,4.47-3.67,14.58,14.58,0,0,1,10.62-.38,7,7,0,0,1,2.4-1.88,5.7,5.7,0,0,1,2.87-.6A3.2,3.2,0,0,1,692.55,420Zm-12.7,12.15a22.23,22.23,0,0,0,1.66-7.36,6.74,6.74,0,0,0-.18-2.35,1.26,1.26,0,0,0-1.23-.9,3,3,0,0,0-2.63,1.6,13.34,13.34,0,0,0-1.87,4.23,25.28,25.28,0,0,0-.83,4.89,4.78,4.78,0,0,0,.26,2.3,1.31,1.31,0,0,0,1.16.75Q678.44,435.48,679.85,432.18Z" transform="translate(-154.96 -44.77)"/><path d="M710.31,425.94c0-.67-.24-1-.84-1.06a2.13,2.13,0,0,0-1.71.83,11.66,11.66,0,0,0-1.73,2.93l-1.16,2.49-1-.06,1.63-3.72q2.18-5,7.27-4.72a4.42,4.42,0,0,1,3.29,1.33,4.15,4.15,0,0,1,.87,3,8.53,8.53,0,0,1-.73,2.92l-6.2,15a5.26,5.26,0,0,0-.39,1.43c0,.7.27,1.07.94,1.11a2.15,2.15,0,0,0,1.58-.76,10,10,0,0,0,1.81-3l1-2.34,1,.05-1.52,3.58q-2.07,5-7.07,4.73-4.56-.27-4.3-4.43a11.72,11.72,0,0,1,1-3.75l5.79-14.06A6.65,6.65,0,0,0,710.31,425.94Zm3.94-14.17a5.39,5.39,0,0,1,3.67-1,4.11,4.11,0,0,1,2.68,1,2.85,2.85,0,0,1,.83,2.34,4.2,4.2,0,0,1-1.7,3.21A5.49,5.49,0,0,1,716,418.4a3.89,3.89,0,0,1-2.7-1,2.78,2.78,0,0,1-.7-2.42A4.11,4.11,0,0,1,714.25,411.77Z" transform="translate(-154.96 -44.77)"/><path d="M746.17,443.21l-1.48,3.57q-2.12,5.06-7,4.74a4.6,4.6,0,0,1-3.9-1.89,4.09,4.09,0,0,1-.51-2.39,13,13,0,0,1,1-3.91l5.33-13.23a7.33,7.33,0,0,0,.58-2.12c0-.77-.24-1.17-.88-1.21q-1.5-.09-3.81,2.83a45.65,45.65,0,0,0-4.77,7.76,88.93,88.93,0,0,0-4.4,10.26l-.8,2.46-7.06-.44,7.38-21.24a5.09,5.09,0,0,0,.4-1.58c0-.6-.23-.92-.79-.95a2.13,2.13,0,0,0-1.73.77,10.89,10.89,0,0,0-1.72,3l-1.11,2.5-.95-.06,1.59-3.72a8,8,0,0,1,2.79-3.8,6.4,6.4,0,0,1,4-1c2.87.18,4.22,1.63,4,4.37a11.42,11.42,0,0,1-.58,2.88l-1.92,5.95a45.89,45.89,0,0,1,4.41-7.69,12.86,12.86,0,0,1,4.05-3.74,8.24,8.24,0,0,1,4.35-.89c3,.19,4.42,1.61,4.25,4.28a12.19,12.19,0,0,1-.86,3.51l-5.81,14.46a4.73,4.73,0,0,0-.39,1.44c0,.7.25,1.07.88,1.11a2.18,2.18,0,0,0,1.63-.76,9.77,9.77,0,0,0,1.77-3l1.05-2.35Z" transform="translate(-154.96 -44.77)"/><path d="M769.09,448.48a3.51,3.51,0,0,0-.21,1,1.5,1.5,0,0,0,.33,1.16,1.6,1.6,0,0,0,1.08.44,3,3,0,0,0,2.19-.95,9.34,9.34,0,0,0,2-3.11l.88-2,1,.06-1.18,2.84q-2.32,5.79-7.87,5.44a4.55,4.55,0,0,1-4.8-5.26,11,11,0,0,1,.63-3l6.14-17.3-4.5-.27.31-1,4.55.28,2.61-7.32a37,37,0,0,0,7.3-.26l-2.85,8,5.65.35-.21,1-5.81-.35Z" transform="translate(-154.96 -44.77)"/><path d="M805.05,446.83l-1.47,3.57q-2.13,5-7,4.74c-3-.18-4.47-1.63-4.3-4.33a11.52,11.52,0,0,1,1-3.86l5.28-13.23a8.2,8.2,0,0,0,.59-2.17c0-.74-.25-1.12-.88-1.16q-1.41-.09-3.49,2.39a39.69,39.69,0,0,0-4.36,6.77,86.4,86.4,0,0,0-4.24,9.38l-1.46,4.13a.18.18,0,0,0-.06.15v-.06l-.18.55-7.05-.44,12-32.76a5.35,5.35,0,0,0,.34-1.39,1.55,1.55,0,0,0-.69-1.49,5.5,5.5,0,0,0-2.6-.62l.37-1a38.84,38.84,0,0,0,6.31-.16,29.58,29.58,0,0,0,5.47-1.17l-8.23,22.84q2.9-5.49,5.51-7.54a8.23,8.23,0,0,1,5.76-1.86,4.83,4.83,0,0,1,3.39,1.29,3.89,3.89,0,0,1,.92,3,10.64,10.64,0,0,1-.92,3.51l-5.81,14.46a4.76,4.76,0,0,0-.39,1.43c0,.71.27,1.08.94,1.12,1.1.06,2.21-1.19,3.34-3.77l1.05-2.34Z" transform="translate(-154.96 -44.77)"/><path d="M826.52,440.86a37.17,37.17,0,0,1-11.1,4.14,19.55,19.55,0,0,0-.51,3.39,5.63,5.63,0,0,0,.75,3.81,3.66,3.66,0,0,0,2.81,1.28,8.05,8.05,0,0,0,3.56-.76,12.68,12.68,0,0,0,4-2.9l.78.45a16,16,0,0,1-5.12,4.46,12.28,12.28,0,0,1-6.9,1.53,8.46,8.46,0,0,1-5.54-2.2,6.42,6.42,0,0,1-1.88-5.33,20.43,20.43,0,0,1,3-9.06,22.43,22.43,0,0,1,7-7.48,14.9,14.9,0,0,1,9.3-2.57,6.46,6.46,0,0,1,3.69,1.26,3.38,3.38,0,0,1,1.27,3Q831.37,438,826.52,440.86Zm-4.45-8.51a22.15,22.15,0,0,0-3.73,5.12,31.56,31.56,0,0,0-2.71,6.59,20,20,0,0,0,5.71-3,13.58,13.58,0,0,0,3.4-3.94,11,11,0,0,0,1.46-4.9,2.89,2.89,0,0,0-.12-1.32.64.64,0,0,0-.58-.38C824.53,430.45,823.39,431.06,822.07,432.35Z" transform="translate(-154.96 -44.77)"/><path d="M269.53,402.84a22.64,22.64,0,0,0-7,5.32,30.66,30.66,0,0,0-5.54,8.27q-2.3,5,1.53,6.79,3.63,1.65,8.68-1.4l.82.86a17.49,17.49,0,0,1-6.82,2.73,12,12,0,0,1-7.24-1,9.3,9.3,0,0,1-5-4.64c-.86-2-.71-4.24.45-6.79a24.32,24.32,0,0,1,15.84-12.86,15.43,15.43,0,0,1,10.32,1,7.44,7.44,0,0,1,3.83,3.42,4.72,4.72,0,0,1,.12,4.22,6.47,6.47,0,0,1-1.88,2.37,6,6,0,0,1-2.78,1.29,4.72,4.72,0,0,1-2.88-.34,3.07,3.07,0,0,1-1.7-1.75,3.14,3.14,0,0,1,.16-2.48,5.63,5.63,0,0,1,3-2.88,6.77,6.77,0,0,1,4.13-.53,3.33,3.33,0,0,0-2-2.11Q273.1,401.21,269.53,402.84Z" transform="translate(-154.96 -44.77)"/><path d="M305.05,414.82a4.44,4.44,0,0,1-.13,3.44,5.82,5.82,0,0,1-2.95,3.19,4.83,4.83,0,0,1-4.1.15,3.46,3.46,0,0,1-2-1.74,3.27,3.27,0,0,1,.12-2.62,5.34,5.34,0,0,1,2.56-2.75,5.86,5.86,0,0,1,3.79-.63,1.06,1.06,0,0,1-.28-.2,1.21,1.21,0,0,0-.32-.23c-1.75-.71-4-.17-6.89,1.61s-6.54,5.54-11.08,11.26L278,434.13l-7.23-3,15.33-19.57a5.53,5.53,0,0,0,.91-1.48c.26-.65.12-1.09-.42-1.31a2.39,2.39,0,0,0-2.12.21,12,12,0,0,0-2.87,2.47l-2.05,2.21-1-.4,3-3.32q4-4.5,9.23-2.38,3.94,1.62,2.25,5.77a12.85,12.85,0,0,1-1.65,2.85l-1.09,1.47c2.6-2.72,4.82-4.47,6.68-5.25a7,7,0,0,1,5.55,0A4.39,4.39,0,0,1,305.05,414.82Z" transform="translate(-154.96 -44.77)"/><path d="M302.87,425a21,21,0,0,1,8.61-5.64,14.9,14.9,0,0,1,10.27.22,9,9,0,0,1,5.43,4.49q1.38,3-.15,7.17a24.2,24.2,0,0,1-5.2,8.18,21.08,21.08,0,0,1-8.6,5.64,14.84,14.84,0,0,1-10.27-.22c-2.71-1-4.52-2.48-5.43-4.49s-.87-4.39.14-7.17A24.36,24.36,0,0,1,302.87,425Zm12.67-2.32a38.85,38.85,0,0,0-7.15,7.64,38.19,38.19,0,0,0-5.22,9.41,7,7,0,0,0-.57,2.86,1.52,1.52,0,0,0,1,1.33c1.28.47,3.12-.22,5.5-2.06a37.8,37.8,0,0,0,7.08-7.52,38.62,38.62,0,0,0,5.26-9.55,7.09,7.09,0,0,0,.62-3,1.47,1.47,0,0,0-1-1.29C319.82,420.07,318,420.78,315.54,422.69Z" transform="translate(-154.96 -44.77)"/><path d="M332.56,449.41a3.75,3.75,0,0,0-.5,1,1.65,1.65,0,0,0,0,1.32,1.72,1.72,0,0,0,1,.78,3.29,3.29,0,0,0,2.61-.4,10.43,10.43,0,0,0,3-2.77l1.5-1.89,1,.32-2.05,2.71q-4.09,5.53-9.93,3.62a5,5,0,0,1-3.66-7,12,12,0,0,1,1.5-3l11.39-16.78-4.74-1.55.61-1,4.79,1.57,4.83-7.1a40.89,40.89,0,0,0,7.87,1.77l-5.28,7.76,6,1.95-.51,1-6.1-2Z" transform="translate(-154.96 -44.77)"/><path d="M362.8,437.2a22.78,22.78,0,0,0-6.2,6.26,30.72,30.72,0,0,0-4.32,9q-1.56,5.31,2.47,6.5,3.83,1.13,8.39-2.61l.94.74a17.67,17.67,0,0,1-6.36,3.67,12.18,12.18,0,0,1-7.32,0,9.36,9.36,0,0,1-5.58-3.9c-1.13-1.83-1.3-4.1-.51-6.79a24.39,24.39,0,0,1,13.88-15,15.56,15.56,0,0,1,10.36-.47,7.51,7.51,0,0,1,4.27,2.85,4.7,4.7,0,0,1,.7,4.16,6.32,6.32,0,0,1-1.52,2.61,6,6,0,0,1-2.57,1.67,4.72,4.72,0,0,1-2.9.07,3.06,3.06,0,0,1-1.93-1.5,3.14,3.14,0,0,1-.19-2.48,5.68,5.68,0,0,1,2.52-3.27,6.85,6.85,0,0,1,4-1.09,3.27,3.27,0,0,0-2.24-1.81Q366.12,435.08,362.8,437.2Z" transform="translate(-154.96 -44.77)"/><path d="M397.49,463.43,395.15,467q-3.34,5-8.6,3.69c-3.26-.84-4.52-2.7-3.77-5.6a12.82,12.82,0,0,1,1.87-4l8.48-13.26a8.51,8.51,0,0,0,1.08-2.24c.21-.78,0-1.26-.71-1.44-1-.25-2.43.37-4.28,1.88a43.43,43.43,0,0,0-6.14,6.43,98.27,98.27,0,0,0-6.54,9.3L374.09,466a.27.27,0,0,0-.09.15v-.06l-.31.55-7.56-1.93,19.77-33.07a6.29,6.29,0,0,0,.65-1.43,1.72,1.72,0,0,0-.43-1.77,6.1,6.1,0,0,0-2.69-1.2l.6-1.05a42.4,42.4,0,0,0,6.89,1.13,32.7,32.7,0,0,0,6.18-.13l-13.68,23.08q4.29-5.37,7.55-7a9.05,9.05,0,0,1,6.64-.82,5.28,5.28,0,0,1,3.4,2.1,4.32,4.32,0,0,1,.38,3.44,11.93,11.93,0,0,1-1.72,3.62L390.37,466a5.39,5.39,0,0,0-.72,1.47,1,1,0,0,0,.79,1.4q1.77.45,4.41-3.39l1.62-2.32Z" transform="translate(-154.96 -44.77)"/><path d="M418.87,459.16a21,21,0,0,1,7.65-6.88,14.86,14.86,0,0,1,10.18-1.35c2.82.57,4.84,1.77,6.05,3.62s1.53,4.21.95,7.1a24.51,24.51,0,0,1-3.9,8.88,21.12,21.12,0,0,1-7.65,6.88A14.88,14.88,0,0,1,422,478.76c-2.83-.57-4.85-1.77-6.06-3.62s-1.52-4.21-.94-7.11A24.2,24.2,0,0,1,418.87,459.16ZM431,454.94a39.13,39.13,0,0,0-5.92,8.64,38.39,38.39,0,0,0-3.72,10.09,6.94,6.94,0,0,0-.13,2.91,1.53,1.53,0,0,0,1.24,1.16c1.34.26,3.05-.69,5.12-2.87a37.74,37.74,0,0,0,5.86-8.51,38.59,38.59,0,0,0,3.75-10.24,7.35,7.35,0,0,0,.16-3,1.49,1.49,0,0,0-1.19-1.12C434.87,451.69,433.14,452.69,431,454.94Z" transform="translate(-154.96 -44.77)"/><path d="M475.81,445.3a4.56,4.56,0,0,1,1.24,4.15,4.63,4.63,0,0,1-2,3,4.88,4.88,0,0,1-3.83.85,4,4,0,0,1-2.43-1.21,2.73,2.73,0,0,1-.55-2.35,5,5,0,0,1,1.71-3,7,7,0,0,1,3.42-1.6,1.82,1.82,0,0,0-.67-.65,3,3,0,0,0-1.06-.38,4.29,4.29,0,0,0-3.08.59,6.91,6.91,0,0,0-2.18,2.48q-1,1.79-2.57,5.12l-1.88,4,5.84,1-.52,1-5.78-1-16.2,34.9a41.56,41.56,0,0,0-8-.62L453.77,456l-4.59-.79.52-1,4.53.79a36.91,36.91,0,0,1,4-6.86,14.52,14.52,0,0,1,4.4-4,11.86,11.86,0,0,1,8.13-1.17A8.82,8.82,0,0,1,475.81,445.3Z" transform="translate(-154.96 -44.77)"/><path d="M483.36,483.8a3.76,3.76,0,0,0-.32,1.07,1.61,1.61,0,0,0,.27,1.29,1.71,1.71,0,0,0,1.15.59,3.26,3.26,0,0,0,2.49-.86,10.33,10.33,0,0,0,2.5-3.25l1.14-2.13,1,.14-1.54,3q-3,6.17-9.14,5.31a5,5,0,0,1-4.83-6.21,11.81,11.81,0,0,1,1-3.22L485.33,461l-4.93-.69.43-1.06,5,.7,3.51-7.83a41.24,41.24,0,0,0,8.05.35l-3.83,8.57,6.2.87-.32,1.08-6.36-.9Z" transform="translate(-154.96 -44.77)"/><path d="M522.76,484.42l-1.85,3.86q-2.64,5.43-8,4.8-5-.58-4.48-5a12.72,12.72,0,0,1,1.32-4.19l6.64-14.28a9.42,9.42,0,0,0,.78-2.36c.09-.81-.21-1.25-.91-1.33q-1.53-.18-4,2.43A44.15,44.15,0,0,0,507,475.5a97.73,97.73,0,0,0-5.25,10.09l-1.86,4.46a.27.27,0,0,0-.08.16v0l-.23.58-7.76-.9L507,454.43a6.07,6.07,0,0,0,.45-1.51,1.69,1.69,0,0,0-.66-1.69,6.15,6.15,0,0,0-2.83-.84l.46-1.11a43.2,43.2,0,0,0,7,.2,32.85,32.85,0,0,0,6.1-1l-10.47,24.7q3.53-5.88,6.53-8a9.14,9.14,0,0,1,6.48-1.69,5.28,5.28,0,0,1,3.65,1.62,4.35,4.35,0,0,1,.84,3.36,11.82,11.82,0,0,1-1.23,3.82l-7.29,15.59a5.41,5.41,0,0,0-.52,1.56,1,1,0,0,0,1,1.28q1.82.21,3.91-3.94l1.3-2.53Z" transform="translate(-154.96 -44.77)"/><path d="M534.5,468.84c.07-.74-.22-1.14-.88-1.2a2.37,2.37,0,0,0-1.92.84,13,13,0,0,0-2,3.17l-1.37,2.71-1-.1,2-4c1.72-3.66,4.46-5.3,8.2-5a4.91,4.91,0,0,1,3.58,1.6,4.59,4.59,0,0,1,.85,3.33,9.68,9.68,0,0,1-.92,3.2l-7.41,16.31a5.47,5.47,0,0,0-.48,1.57,1,1,0,0,0,1,1.26,2.36,2.36,0,0,0,1.77-.78,11.1,11.1,0,0,0,2.12-3.24l1.25-2.55,1,.1L538.37,490c-1.64,3.66-4.31,5.31-8,5q-5-.48-4.58-5.06a13.22,13.22,0,0,1,1.23-4.11l6.92-15.3A7.26,7.26,0,0,0,534.5,468.84Zm4.88-15.5a6,6,0,0,1,4.1-.94,4.51,4.51,0,0,1,2.91,1.19,3.14,3.14,0,0,1,.84,2.61,4.63,4.63,0,0,1-2,3.48,6,6,0,0,1-4.22,1,4.32,4.32,0,0,1-2.94-1.25,3.12,3.12,0,0,1-.69-2.71A4.61,4.61,0,0,1,539.38,453.34Z" transform="translate(-154.96 -44.77)"/><path d="M547.89,495.35a4.58,4.58,0,0,0,3.47-1A4.67,4.67,0,0,0,552.9,491a9.59,9.59,0,0,0-.48-3.71,27.19,27.19,0,0,0-2-4.43l-1.14-2.09a14.74,14.74,0,0,1-1.35-3.3,9.16,9.16,0,0,1-.29-3.05,7.35,7.35,0,0,1,3.14-5.64,11.08,11.08,0,0,1,7.55-1.68,12.53,12.53,0,0,1,5.89,1.77,4.67,4.67,0,0,1,2,4.64,4.79,4.79,0,0,1-1.11,2.74,2.85,2.85,0,0,1-2.58,1.07,2.69,2.69,0,0,1-2.13-1.22,4.22,4.22,0,0,1-.62-2.71,6.79,6.79,0,0,1,.7-2.53,7.51,7.51,0,0,1,1.38-1.92,3.78,3.78,0,0,0-1.9-.6,4,4,0,0,0-3.22,1,5.19,5.19,0,0,0-1.46,3.35,6.41,6.41,0,0,0,.37,2.76,35.37,35.37,0,0,0,1.69,3.57l.68,1.22a35.6,35.6,0,0,1,2.13,5,10.06,10.06,0,0,1,.45,3.81,7.64,7.64,0,0,1-1.62,4.23A8.63,8.63,0,0,1,555.2,496a14.54,14.54,0,0,1-12-1.36,5.26,5.26,0,0,1-2.21-5.1,4.73,4.73,0,0,1,1.05-2.74,2.62,2.62,0,0,1,2.35-1,2.68,2.68,0,0,1,2.2,1.39,5.24,5.24,0,0,1,.61,3.16,7.64,7.64,0,0,1-.45,2.16c-.24.63-.57,1.39-1,2.28A5.15,5.15,0,0,0,547.89,495.35Z" transform="translate(-154.96 -44.77)"/><path d="M615.67,460.62a4.73,4.73,0,0,1-1.91,3.43,6,6,0,0,1-4,1.16,4.46,4.46,0,0,1-3-1,2.94,2.94,0,0,1-.93-2.43,4.85,4.85,0,0,1,1.17-3.13,5.1,5.1,0,0,1,2.82-1.55l-.72,0a11.85,11.85,0,0,0-6.72,1.4,9,9,0,0,0-3.23,3.31,29.37,29.37,0,0,0-2.54,6.05l-.79,2.46,8,.39a44.66,44.66,0,0,0,8.06-.44l-8.43,24.31a5.69,5.69,0,0,0-.42,1.59c0,.78.3,1.18,1,1.21a2.31,2.31,0,0,0,1.76-.85,12,12,0,0,0,1.94-3.35l1.18-2.6,1,.05-1.64,4a8,8,0,0,1-3.39,4.21,8.33,8.33,0,0,1-4.52,1.12,4.2,4.2,0,0,1-4.53-4.88,13.69,13.69,0,0,1,.92-4.11l6.64-19.14-8-.39-11.92,36.57a40,40,0,0,0-8,.39L587.73,471l-4.76-.23.38-1.09,4.76.23a26.09,26.09,0,0,1,3.27-6.86,14,14,0,0,1,4.53-4.19,19,19,0,0,1,6-2.26,30.81,30.81,0,0,1,7.23-.42q3.81.18,5.51,1.82A2.71,2.71,0,0,1,615.67,460.62Z" transform="translate(-154.96 -44.77)"/><path d="M641,469.53a3.51,3.51,0,0,1,.86,2.63,3.42,3.42,0,0,1-.84,2.33,2.42,2.42,0,0,1-1.85.8,2.65,2.65,0,0,1-1.92-.91,3.27,3.27,0,0,1-.76-2.38,7.29,7.29,0,0,1,.57-2.42,8,8,0,0,0-3.39,2.39,5.28,5.28,0,0,1,2.15,2.09,6.06,6.06,0,0,1,.69,3.15,9.34,9.34,0,0,1-1.44,4.58,12.27,12.27,0,0,1-3.79,3.88,14.12,14.12,0,0,1-5.61,2.14,42.2,42.2,0,0,0-4.52,2.08c-.92.53-1.38,1.05-1.4,1.57a1,1,0,0,0,.59.87,8.66,8.66,0,0,0,1.86.8l4.6,1.69a16,16,0,0,1,4.55,2.43A4.4,4.4,0,0,1,633,501a6.77,6.77,0,0,1-2.44,4.83,16.26,16.26,0,0,1-6.28,3.39,25.84,25.84,0,0,1-8.4,1.09,19.52,19.52,0,0,1-7.16-1.37c-1.89-.83-2.82-1.88-2.79-3.13s1.11-2.36,3.2-3.2a24,24,0,0,1,7.08-1.6l.2.84c-2.33,1.18-3.51,2.61-3.56,4.27a2.69,2.69,0,0,0,1.09,2.39,5.65,5.65,0,0,0,3.19.89,12.76,12.76,0,0,0,4.31-.68,10.88,10.88,0,0,0,3.8-2.05,3.93,3.93,0,0,0,1.58-2.86,1.43,1.43,0,0,0-.6-1.32,8.85,8.85,0,0,0-2.21-.92l-7.8-2.5a5.57,5.57,0,0,1-2.37-1.42,3.1,3.1,0,0,1-.85-2.27q.06-2,2.47-3.64a40,40,0,0,1,7.66-3.71l-.55,0a10.6,10.6,0,0,1-6-1.72,5.24,5.24,0,0,1-2.16-4.72,9.8,9.8,0,0,1,1.73-5.1,12.42,12.42,0,0,1,4.8-4.21,14.83,14.83,0,0,1,7.41-1.53,15.06,15.06,0,0,1,4.3.73,7.67,7.67,0,0,1,2.59-2.16,6.22,6.22,0,0,1,3.15-.77A3.57,3.57,0,0,1,641,469.53ZM627.43,483.4a24.49,24.49,0,0,0,1.57-8.18,7.4,7.4,0,0,0-.29-2.59,1.38,1.38,0,0,0-1.38-.95,3.35,3.35,0,0,0-2.85,1.85,14.73,14.73,0,0,0-1.92,4.74,26.72,26.72,0,0,0-.73,5.43,5.22,5.22,0,0,0,.36,2.54,1.46,1.46,0,0,0,1.31.78Q626,487.1,627.43,483.4Z" transform="translate(-154.96 -44.77)"/><path d="M660.93,495.92a3.89,3.89,0,0,0-.17,1.11,1.63,1.63,0,0,0,.43,1.25,1.68,1.68,0,0,0,1.21.42,3.27,3.27,0,0,0,2.37-1.17,10.64,10.64,0,0,0,2.05-3.55l.84-2.27h1.06l-1.14,3.2q-2.21,6.52-8.35,6.47a5,5,0,0,1-5.61-5.52,11.66,11.66,0,0,1,.53-3.32l5.74-19.45-5,0,.28-1.1,5,0,2.44-8.24a40.86,40.86,0,0,0,8-.71l-2.67,9,6.25.05-.17,1.1-6.42,0Z" transform="translate(-154.96 -44.77)"/><path d="M697.53,472.47a4.45,4.45,0,0,1,1.2,3.23,5.85,5.85,0,0,1-1.5,4.08,4.82,4.82,0,0,1-3.73,1.7,3.42,3.42,0,0,1-2.5-.85,3.27,3.27,0,0,1-.89-2.46,5.31,5.31,0,0,1,1.31-3.52,5.92,5.92,0,0,1,3.26-2,1.1,1.1,0,0,1-.33-.08,1.08,1.08,0,0,0-.39-.09c-1.88,0-3.8,1.39-5.74,4.12s-3.92,7.63-5.93,14.65l-2.4,9.47-7.8,0,6.66-24a5.91,5.91,0,0,0,.27-1.72c0-.7-.3-1.05-.89-1.05a2.41,2.41,0,0,0-1.88,1,11.94,11.94,0,0,0-1.7,3.38l-1,2.83h-1l1.48-4.21q2-5.72,7.62-5.74,4.26,0,4.28,4.47a12.46,12.46,0,0,1-.43,3.27L685,480.8q2-5.28,4.15-7.41a7,7,0,0,1,5.11-2.16A4.37,4.37,0,0,1,697.53,472.47Z" transform="translate(-154.96 -44.77)"/><path d="M716.87,483.31a41,41,0,0,1-11.87,5.5,21.81,21.81,0,0,0-.27,3.77q0,2.94,1.14,4.14a4,4,0,0,0,3.2,1.16,8.62,8.62,0,0,0,3.86-1.14,13.75,13.75,0,0,0,4.15-3.52l.9.43a17.48,17.48,0,0,1-5.26,5.34,13.56,13.56,0,0,1-7.47,2.28,9.4,9.4,0,0,1-6.29-1.95,7.1,7.1,0,0,1-2.52-5.72,22.48,22.48,0,0,1,2.49-10.23,24.72,24.72,0,0,1,7.12-8.84,16.37,16.37,0,0,1,10-3.61,7,7,0,0,1,4.17,1.07,3.75,3.75,0,0,1,1.66,3.21Q722,479.79,716.87,483.31Zm-5.62-9a24.35,24.35,0,0,0-3.67,6,34.12,34.12,0,0,0-2.43,7.49,22.09,22.09,0,0,0,6-3.81,15.17,15.17,0,0,0,3.42-4.62,12.29,12.29,0,0,0,1.18-5.53,3.27,3.27,0,0,0-.24-1.44.72.72,0,0,0-.67-.37C713.8,472,712.59,472.78,711.25,474.31Z" transform="translate(-154.96 -44.77)"/><path d="M742.59,482.68a41.23,41.23,0,0,1-11.82,5.63,20.81,20.81,0,0,0-.23,3.77,6.29,6.29,0,0,0,1.19,4.13,4,4,0,0,0,3.21,1.13,8.78,8.78,0,0,0,3.85-1.18,13.89,13.89,0,0,0,4.11-3.57l.9.42a17.56,17.56,0,0,1-5.2,5.4,13.61,13.61,0,0,1-7.44,2.35,9.38,9.38,0,0,1-6.31-1.88,7.09,7.09,0,0,1-2.59-5.69,22.51,22.51,0,0,1,2.39-10.26,24.64,24.64,0,0,1,7-8.91,16.34,16.34,0,0,1,10-3.72,7,7,0,0,1,4.18,1,3.74,3.74,0,0,1,1.69,3.2Q747.64,479.11,742.59,482.68Zm-5.73-8.93a24.33,24.33,0,0,0-3.6,6,34.2,34.2,0,0,0-2.35,7.51,21.83,21.83,0,0,0,6-3.87,15.17,15.17,0,0,0,3.37-4.66,12.28,12.28,0,0,0,1.12-5.54,3.12,3.12,0,0,0-.26-1.43.72.72,0,0,0-.67-.37Q738.86,471.43,736.86,473.75Z" transform="translate(-154.96 -44.77)"/><path d="M755.27,502a14.68,14.68,0,0,1-5.87,5l-.3-.88a12.79,12.79,0,0,0,4.06-3.38,7.37,7.37,0,0,0,1.66-4.29,4.62,4.62,0,0,1-3.38,1.72,3.72,3.72,0,0,1-2.57-.69,2.77,2.77,0,0,1-1-2.18,5.21,5.21,0,0,1,1.55-4,5.62,5.62,0,0,1,4-1.77,3.51,3.51,0,0,1,2.75.93,4.2,4.2,0,0,1,1,2.93A10.87,10.87,0,0,1,755.27,502Z" transform="translate(-154.96 -44.77)"/><path class="cls-3" d="M854.59,720.91c31.5-3.11,39.46-63.85,38.12-96.7-1.07-26.18-6.11-55.53-27.57-70.56-12.68-8.87-28.82-10.93-44.28-11.62C738.8,538.39,658.73,565.87,577,574.1c-69.44,7-139.46,0-208.91-7C316.93,562,274.8,550,222.27,545c-23.29,11.76-25.57,43.54-24.69,69.62.73,21.18,3.3,45.78,21.17,57.17,7.37,4.69,16.25,6.25,24.88,7.65,45,7.33,90.25,13.31,135.76,15.86,152.25,8.56,305.18-21.18,457-7.07,10.21.95,21.59,2.73,27.77,10.92S864.64,723,854.59,720.91Z" transform="translate(-154.96 -44.77)"/><path d="M854.59,723.41c16.72-1.87,26-17.22,31.36-31.66,6.58-17.85,9-37.47,9.36-56.4.42-21.13-1.47-44.16-11.26-63.23a55.15,55.15,0,0,0-22.56-23.65c-11.72-6.3-25.2-8.11-38.31-8.83-60.4-3.28-120,10.87-179,21.8-30.42,5.64-61,10.35-91.9,12.08-31.84,1.77-63.78,1-95.59-1.08-31.54-2-63.08-4.93-94.49-8.44-28.84-3.22-57.28-9-85.85-14-14-2.43-28-4.61-42.16-6.26-3.65-.43-7.6-1.29-11.27-1.21-2.54.06-4.83,1.82-6.86,3.28a41,41,0,0,0-10,10.42c-11.77,17.43-11.74,41.08-10.87,61.27.89,20.74,4,46.58,24.33,57.62,6,3.25,12.66,4.83,19.3,6,7.66,1.35,15.36,2.51,23,3.69q23,3.51,46,6.4c62.54,7.71,125.2,9.32,188.13,7,62.49-2.31,124.84-7.53,187.32-10,31.15-1.24,62.34-1.8,93.51-1,15.81.42,31.6,1.2,47.36,2.43,11.46.89,27.37.31,36.23,9a12.45,12.45,0,0,1,3.2,12.72c-1.08,3.77-4,7.77-8.42,7.06-3.15-.52-4.5,4.3-1.33,4.82,8.73,1.41,14.47-6.14,15.23-14.18,1-10.37-7.13-17.33-16.21-20.42-5.53-1.88-11.42-2.52-17.21-3.05q-11.47-1.06-23-1.8-23-1.47-46-1.83c-61.79-1.07-123.51,3-185.15,6.75-61.43,3.73-123,7.15-184.57,4.84-30.93-1.16-61.78-3.94-92.48-7.8q-23.41-3-46.73-6.64c-13.24-2.07-29.44-2.7-40.37-11.38-8.69-6.91-12.78-17.68-14.9-28.25-2.21-11-2.61-22.52-2.6-33.76,0-19.46,2.1-44.89,20.12-56.63a8.48,8.48,0,0,1,3.13-1.57c1.69-.23,4.09.39,5.77.58q5.56.6,11.12,1.3c7.38.94,14.74,2,22.08,3.21,13.81,2.22,27.55,4.77,41.31,7.25,28.76,5.2,57.5,9,86.58,11.87,62.06,6.09,124.71,11.05,187,4.79,59.62-6,117.63-22.12,177.09-29.13,14.75-1.74,29.58-2.91,44.44-3.2,14.29-.28,29.08-.34,43.14,2.55,12.47,2.56,23.88,8.14,31.94,18.22,7.14,8.92,11,20,13.4,31.08,4.14,19.55,4.2,40.2,1.87,60-2,17.47-5.81,37.62-17,51.76-4.34,5.46-10.17,9.75-17.25,10.54C851.43,718.76,851.39,723.76,854.59,723.41Z" transform="translate(-154.96 -44.77)"/><path d="M260.32,606.38a3.31,3.31,0,0,0,2.59-.29,3.38,3.38,0,0,0,1.52-2.21,6.91,6.91,0,0,0,.11-2.7,19.43,19.43,0,0,0-.86-3.4c-.07-.18-.25-.72-.56-1.63a10.66,10.66,0,0,1-.55-2.51,6.46,6.46,0,0,1,.17-2.21,5.31,5.31,0,0,1,2.93-3.63,8,8,0,0,1,5.58-.26,9.1,9.1,0,0,1,4,2,3.35,3.35,0,0,1,.89,3.55,3.43,3.43,0,0,1-1.13,1.82,2.06,2.06,0,0,1-2,.45,2,2,0,0,1-1.36-1.14,2.94,2.94,0,0,1-.1-2,4.77,4.77,0,0,1,.8-1.72,5.47,5.47,0,0,1,1.22-1.19,2.54,2.54,0,0,0-1.28-.66,2.88,2.88,0,0,0-2.41.31,3.72,3.72,0,0,0-1.45,2.21,4.4,4.4,0,0,0-.08,2,26.12,26.12,0,0,0,.76,2.76l.33,1a25.43,25.43,0,0,1,.91,3.82,7.51,7.51,0,0,1-.15,2.77,5.62,5.62,0,0,1-1.67,2.82,6.41,6.41,0,0,1-3.08,1.46,9.48,9.48,0,0,1-4.06-.21,9.31,9.31,0,0,1-4.3-2.24,3.79,3.79,0,0,1-.94-3.89,3.43,3.43,0,0,1,1.08-1.83,2,2,0,0,1,3.19.86,3.78,3.78,0,0,1,.05,2.32,5.72,5.72,0,0,1-.59,1.48,17.6,17.6,0,0,1-1,1.5A3.71,3.71,0,0,0,260.32,606.38Z" transform="translate(-154.96 -44.77)"/><path d="M279.71,607.93a3.05,3.05,0,0,0-.29.76,1.13,1.13,0,0,0,.11.94,1.17,1.17,0,0,0,.79.49,2.35,2.35,0,0,0,1.85-.45,7.62,7.62,0,0,0,2-2.19l.95-1.46.74.17-1.3,2.08q-2.58,4.25-6.9,3.25a4.06,4.06,0,0,1-2.75-1.72,4,4,0,0,1-.34-3,8.36,8.36,0,0,1,.89-2.26l7.1-12.81-3.51-.81.37-.74L283,591l3-5.42a29.55,29.55,0,0,0,5.78.75l-3.29,5.94,4.4,1-.3.75-4.52-1Z" transform="translate(-154.96 -44.77)"/><path d="M306.93,610.56l.74.15-1.56,2.67a6.12,6.12,0,0,1-2.81,2.67,5.37,5.37,0,0,1-3.18.31,3.36,3.36,0,0,1-2.66-1.8,3.18,3.18,0,0,1-.15-2.07,9.08,9.08,0,0,1,.82-2.24,11.51,11.51,0,0,1-3.81,3.59,5.73,5.73,0,0,1-3.85.57,4.18,4.18,0,0,1-3-1.94,5.25,5.25,0,0,1-.4-3.77,17.51,17.51,0,0,1,3.36-7,21.42,21.42,0,0,1,6.05-5.56q3.39-2.05,6.14-1.49a2.34,2.34,0,0,1,1.57,1,3,3,0,0,1,.39,2l.94-1.81a30,30,0,0,0,5.8.56l-8.68,16.44a4.26,4.26,0,0,0-.42,1.06c-.12.58.07.91.57,1q1.37.29,3.06-2.6Zm-3.1-11.48a3.59,3.59,0,0,0,.15-.58,2.67,2.67,0,0,0,0-1.56,1.14,1.14,0,0,0-.89-.71c-.89-.18-2.07.41-3.53,1.77a23,23,0,0,0-4.11,5.41,22.26,22.26,0,0,0-2.61,6.74,5,5,0,0,0-.13,1.91.9.9,0,0,0,.73.74,2.81,2.81,0,0,0,2.14-.81,15.11,15.11,0,0,0,2.78-3,31.22,31.22,0,0,0,2.91-5l-.39.9Z" transform="translate(-154.96 -44.77)"/><path d="M330.18,600.57a3.23,3.23,0,0,1,.45,2.45,4.25,4.25,0,0,1-1.59,2.71,3.48,3.48,0,0,1-2.87.74,2.46,2.46,0,0,1-1.66-.92,2.37,2.37,0,0,1-.33-1.86,3.86,3.86,0,0,1,1.38-2.34,4.25,4.25,0,0,1,2.58-1,1,1,0,0,1-.23-.1.73.73,0,0,0-.27-.11q-2-.35-4.6,2.2T317,612l-2.91,6.44-5.55-1,7.76-16.19a4.26,4.26,0,0,0,.41-1.18c.08-.5-.08-.79-.5-.86a1.76,1.76,0,0,0-1.47.47,8.91,8.91,0,0,0-1.63,2.2l-1.1,1.88-.75-.13,1.58-2.81Q315,597,319,597.71q3,.52,2.48,3.72a9.8,9.8,0,0,1-.72,2.27l-.54,1.21a16.14,16.14,0,0,1,3.89-4.75,5,5,0,0,1,3.91-.88A3.11,3.11,0,0,1,330.18,600.57Z" transform="translate(-154.96 -44.77)"/><path d="M344.2,607.61a4.89,4.89,0,0,1-.63-3.24,2.74,2.74,0,0,1,1-1.88,2.53,2.53,0,0,1,2-.44,2.22,2.22,0,0,1,1.9,1.51,6.63,6.63,0,0,1,.09,3.43,26.12,26.12,0,0,1-2.87,7.69,16.66,16.66,0,0,1-5.3,5.87,10,10,0,0,1-7.19,1.58q-3-.43-4.08-2a4.7,4.7,0,0,1-.81-3.55q1-6.54,12.84-13.69a4.38,4.38,0,0,0-1.76.31,13.73,13.73,0,0,0-1.91,1,11.51,11.51,0,0,1-1.54.84,2.19,2.19,0,0,1-1.2.17,2.71,2.71,0,0,1-1.17-.57,2.28,2.28,0,0,0-1-.51,1.08,1.08,0,0,0-.95.28,5.07,5.07,0,0,0-.91,1.39l-.48,1-.75-.11,1.3-2.76c1.17-2.69,2.62-3.91,4.33-3.65a2.09,2.09,0,0,1,.81.26,5.81,5.81,0,0,1,.85.59,6.51,6.51,0,0,0,1,.69,3.51,3.51,0,0,0,1.18.35,5.2,5.2,0,0,0,3-.4l.5-.7.78.52a41.29,41.29,0,0,0-6,8.12,23.08,23.08,0,0,0-2.91,7.72,4.4,4.4,0,0,0,.11,2.28,1.47,1.47,0,0,0,1.24.91,6.19,6.19,0,0,0,4.54-1.19,14.76,14.76,0,0,0,3.87-4.09,22,22,0,0,0,2.54-5.16A7.92,7.92,0,0,1,344.2,607.61Z" transform="translate(-154.96 -44.77)"/><path d="M355,605.92c.07-.53-.14-.83-.61-.89a1.76,1.76,0,0,0-1.41.58,9.81,9.81,0,0,0-1.53,2.24l-1,1.93-.76-.09,1.49-2.88q2-3.91,6-3.4a3.54,3.54,0,0,1,2.55,1.22,3.3,3.3,0,0,1,.54,2.43,6.67,6.67,0,0,1-.73,2.28L353.86,621a4,4,0,0,0-.38,1.12.73.73,0,0,0,.69.94,1.74,1.74,0,0,0,1.29-.53,8.07,8.07,0,0,0,1.6-2.3l.95-1.82.76.1-1.4,2.77c-1.26,2.61-3.22,3.75-5.86,3.42q-3.61-.45-3.21-3.75a9.46,9.46,0,0,1,1-2.94l5.3-10.91A4.94,4.94,0,0,0,355,605.92Zm3.84-11.09a4.39,4.39,0,0,1,3-.6,3.31,3.31,0,0,1,2.08.92,2.3,2.3,0,0,1,.55,1.91,3.33,3.33,0,0,1-1.52,2.47,4.37,4.37,0,0,1-3.06.67,3.15,3.15,0,0,1-2.1-1,2.23,2.23,0,0,1-.44-2A3.29,3.29,0,0,1,358.85,594.83Z" transform="translate(-154.96 -44.77)"/><path d="M382.46,621l-1.29,2.8c-1.23,2.64-3.15,3.82-5.75,3.56a3.69,3.69,0,0,1-3.05-1.64,3.32,3.32,0,0,1-.33-1.92,10.3,10.3,0,0,1,1-3.08l4.67-10.38a5.69,5.69,0,0,0,.53-1.68q.1-.92-.66-1c-.79-.08-1.84.63-3.13,2.13a37.53,37.53,0,0,0-4.05,6.05,70,70,0,0,0-3.83,8l-.72,1.94-5.62-.57,6.57-16.71a4,4,0,0,0,.37-1.25.63.63,0,0,0-.61-.78,1.72,1.72,0,0,0-1.4.56,8.82,8.82,0,0,0-1.46,2.33l-1,2-.75-.08,1.38-2.91a6.39,6.39,0,0,1,2.35-2.94,5,5,0,0,1,3.2-.64q3.42.35,3.09,3.61a9.44,9.44,0,0,1-.55,2.28l-1.73,4.69a36,36,0,0,1,3.77-6,10.15,10.15,0,0,1,3.35-2.86,6.45,6.45,0,0,1,3.49-.57c2.39.24,3.47,1.43,3.26,3.55a9.49,9.49,0,0,1-.81,2.77l-5.09,11.34a3.86,3.86,0,0,0-.36,1.13c-.05.56.17.86.68.92a1.76,1.76,0,0,0,1.32-.55,7.76,7.76,0,0,0,1.5-2.34l.91-1.84Z" transform="translate(-154.96 -44.77)"/><path d="M405.5,606.86a2.55,2.55,0,0,1,.54,1.93,2.42,2.42,0,0,1-.69,1.65A1.7,1.7,0,0,1,404,611a1.9,1.9,0,0,1-1.35-.72,2.38,2.38,0,0,1-.47-1.75,5.28,5.28,0,0,1,.49-1.72,5.85,5.85,0,0,0-2.53,1.61,3.77,3.77,0,0,1,1.49,1.58,4.32,4.32,0,0,1,.38,2.29,6.63,6.63,0,0,1-1.19,3.26,8.79,8.79,0,0,1-2.87,2.67,10.08,10.08,0,0,1-4.11,1.35,31.48,31.48,0,0,0-3.34,1.35c-.68.35-1,.71-1.06,1.08a.75.75,0,0,0,.39.66,6.77,6.77,0,0,0,1.32.64l3.26,1.37a11.59,11.59,0,0,1,3.2,1.91,3.14,3.14,0,0,1,1,2.74,4.88,4.88,0,0,1-1.93,3.41,11.62,11.62,0,0,1-4.64,2.23,18.49,18.49,0,0,1-6.09.5,14,14,0,0,1-5.12-1.23c-1.34-.67-2-1.45-1.91-2.36s.87-1.66,2.41-2.2a17.5,17.5,0,0,1,5.17-.91l.11.61c-1.72.78-2.62,1.77-2.71,3a1.91,1.91,0,0,0,.71,1.76,4,4,0,0,0,2.27.76,9.39,9.39,0,0,0,3.13-.34,8.17,8.17,0,0,0,2.81-1.35,2.85,2.85,0,0,0,1.24-2,1,1,0,0,0-.39-1,6.26,6.26,0,0,0-1.57-.74l-5.54-2.07a3.92,3.92,0,0,1-1.66-1.11,2.2,2.2,0,0,1-.53-1.66,3.4,3.4,0,0,1,1.9-2.55,29.62,29.62,0,0,1,5.66-2.41l-.4,0a7.62,7.62,0,0,1-4.24-1.45,3.77,3.77,0,0,1-1.4-3.48,7,7,0,0,1,1.42-3.62,8.89,8.89,0,0,1,3.61-2.87,11.68,11.68,0,0,1,8.47-.18,5.52,5.52,0,0,1,1.94-1.47,4.5,4.5,0,0,1,2.3-.45A2.58,2.58,0,0,1,405.5,606.86Zm-10.27,9.55a17.94,17.94,0,0,0,1.41-5.85,5.22,5.22,0,0,0-.12-1.87,1,1,0,0,0-1-.74,2.43,2.43,0,0,0-2.12,1.24,11,11,0,0,0-1.54,3.35,20.42,20.42,0,0,0-.72,3.9,3.93,3.93,0,0,0,.18,1.84,1.07,1.07,0,0,0,.92.61C393.47,619,394.45,618.16,395.23,616.41Z" transform="translate(-154.96 -44.77)"/><path d="M418.9,626.48a2.69,2.69,0,0,0-.15.79,1.14,1.14,0,0,0,.28.91,1.19,1.19,0,0,0,.86.34,2.34,2.34,0,0,0,1.74-.78,7.49,7.49,0,0,0,1.58-2.51l.67-1.61.76,0-.91,2.28q-1.77,4.63-6.21,4.44a4.08,4.08,0,0,1-3-1.2,4,4,0,0,1-.89-2.95,8.72,8.72,0,0,1,.47-2.38L418.79,610l-3.6-.16.24-.79,3.64.17,2-5.88a29.51,29.51,0,0,0,5.82-.29l-2.18,6.43,4.52.21-.16.79-4.64-.22Z" transform="translate(-154.96 -44.77)"/><path d="M428.5,617.43a15.07,15.07,0,0,1,4.6-5.84,10.73,10.73,0,0,1,7.08-2.2,6.47,6.47,0,0,1,4.75,1.83,6.66,6.66,0,0,1,1.55,4.94,17.71,17.71,0,0,1-1.69,6.8,15.23,15.23,0,0,1-4.6,5.83A10.73,10.73,0,0,1,433.1,631a6.47,6.47,0,0,1-4.75-1.83,6.65,6.65,0,0,1-1.54-4.94A17.48,17.48,0,0,1,428.5,617.43Zm8.14-4.5a28.44,28.44,0,0,0-3.15,6.88,27.89,27.89,0,0,0-1.41,7.64,4.94,4.94,0,0,0,.26,2.09,1.09,1.09,0,0,0,1,.67q1.47,0,3.29-2.67a27.46,27.46,0,0,0,3.13-6.78A28,28,0,0,0,441.2,613a5.22,5.22,0,0,0-.26-2.19,1.05,1.05,0,0,0-1-.65C439,610.15,437.87,611.07,436.64,612.93Z" transform="translate(-154.96 -44.77)"/><path d="M477.9,624.36h.76l-1,2.92a5.2,5.2,0,0,1-5.26,4.15c-1.65,0-2.71-.6-3.17-1.82a4.33,4.33,0,0,1-.33-1.68,10.62,10.62,0,0,1,.47-2.84l0-.16a15.11,15.11,0,0,1-3.19,5,5.81,5.81,0,0,1-4.06,1.59,4.55,4.55,0,0,1-3.44-1.38,5.91,5.91,0,0,1-1.35-4.2,17.68,17.68,0,0,1,1.65-7.07,18.1,18.1,0,0,1,4.68-6.5,10.18,10.18,0,0,1,6.91-2.7A2.32,2.32,0,0,1,473.1,611l1.77-6.81a4.61,4.61,0,0,0,.19-1.12,1.25,1.25,0,0,0-.62-1.16,4.53,4.53,0,0,0-2.11-.35l.24-.84a30.29,30.29,0,0,0,5-.47,23.12,23.12,0,0,0,4.33-1.22l-7.69,28.44a3.33,3.33,0,0,0-.19,1.08c0,.62.26.92.76.92a1.65,1.65,0,0,0,1.2-.71,8.35,8.35,0,0,0,1.23-2.46ZM472.83,612c-.3-.93-.83-1.4-1.61-1.39q-1.71,0-3.56,2.48a21.44,21.44,0,0,0-3.09,6.23,23.33,23.33,0,0,0-1.22,7.45,5.4,5.4,0,0,0,.31,2.08,1,1,0,0,0,1,.67,2.9,2.9,0,0,0,1.88-1.19,16.81,16.81,0,0,0,2.24-3.43,31.64,31.64,0,0,0,2.11-5.33Z" transform="translate(-154.96 -44.77)"/><path d="M495,618.15a30,30,0,0,1-8.54,4.06,14.68,14.68,0,0,0-.17,2.72,4.5,4.5,0,0,0,.85,3,2.89,2.89,0,0,0,2.33.82,6.28,6.28,0,0,0,2.77-.85,9.83,9.83,0,0,0,3-2.58l.65.31a12.79,12.79,0,0,1-3.76,3.9,9.79,9.79,0,0,1-5.38,1.69,6.76,6.76,0,0,1-4.56-1.36,5.12,5.12,0,0,1-1.86-4.11,16.2,16.2,0,0,1,1.73-7.41,17.7,17.7,0,0,1,5.07-6.43,11.89,11.89,0,0,1,7.22-2.69,5.09,5.09,0,0,1,3,.75,2.68,2.68,0,0,1,1.22,2.3C498.63,614.47,497.44,616.43,495,618.15Zm-4.13-6.46a17.41,17.41,0,0,0-2.61,4.33,24.93,24.93,0,0,0-1.7,5.43,16,16,0,0,0,4.33-2.8,10.78,10.78,0,0,0,2.43-3.36,8.84,8.84,0,0,0,.82-4,2.35,2.35,0,0,0-.18-1,.53.53,0,0,0-.49-.26A3.91,3.91,0,0,0,490.88,611.69Z" transform="translate(-154.96 -44.77)"/><path d="M518.45,623l.76,0-.87,3a6.18,6.18,0,0,1-2.07,3.28,5.53,5.53,0,0,1-3,1.07,3.39,3.39,0,0,1-3-1.1,3.18,3.18,0,0,1-.65-2,9.11,9.11,0,0,1,.25-2.37,11.54,11.54,0,0,1-2.82,4.41,5.76,5.76,0,0,1-3.6,1.48,4.2,4.2,0,0,1-3.4-1.15,5.29,5.29,0,0,1-1.29-3.56,17.43,17.43,0,0,1,1.56-7.62,21.22,21.22,0,0,1,4.52-6.87,8.6,8.6,0,0,1,5.59-2.93,2.4,2.4,0,0,1,1.77.56A3,3,0,0,1,513,611l.47-2a29.22,29.22,0,0,0,5.77-.86l-4.44,18.06a4.37,4.37,0,0,0-.15,1.12c0,.59.29.87.8.85q1.39-.06,2.34-3.27Zm-5.79-10.39a3.37,3.37,0,0,0,0-.6,2.77,2.77,0,0,0-.41-1.5,1.13,1.13,0,0,0-1-.48c-.91,0-1.91.9-3,2.58a23.15,23.15,0,0,0-2.69,6.24,22.76,22.76,0,0,0-.9,7.17,5,5,0,0,0,.35,1.89.87.87,0,0,0,.88.54,2.85,2.85,0,0,0,1.89-1.31,15.24,15.24,0,0,0,2-3.61,32.56,32.56,0,0,0,1.61-5.53l-.16,1Z" transform="translate(-154.96 -44.77)"/><path d="M527.49,625.53a2.78,2.78,0,0,0-.07.81,1.18,1.18,0,0,0,.37.88,1.25,1.25,0,0,0,.9.24,2.35,2.35,0,0,0,1.65-1,7.57,7.57,0,0,0,1.3-2.66l.5-1.68.75,0-.65,2.36q-1.28,4.82-5.71,5.08a4.07,4.07,0,0,1-3.11-.87,4,4,0,0,1-1.2-2.84,8.43,8.43,0,0,1,.22-2.41l3.17-14.3-3.59.22.15-.82,3.63-.22,1.35-6.05a29.37,29.37,0,0,0,5.76-.91L531.43,608l4.51-.28-.07.81-4.63.28Z" transform="translate(-154.96 -44.77)"/><path d="M555.58,620.43l-.77,3c-.75,2.81-2.42,4.32-5,4.52-2.42.19-3.71-.8-3.88-3a9.51,9.51,0,0,1,.36-3.16l2.72-11a6.51,6.51,0,0,0,.22-1.78c0-.59-.32-.86-.82-.82q-1.12.09-2.49,2.28a30.94,30.94,0,0,0-2.7,5.82,69.39,69.39,0,0,0-2.33,7.88l-.69,3.43a.12.12,0,0,0,0,.12v0l-.08.45-5.63.43,5.85-27.21a4.3,4.3,0,0,0,.11-1.13,1.24,1.24,0,0,0-.7-1.11,4.53,4.53,0,0,0-2.13-.2l.18-.85a30.77,30.77,0,0,0,5-.83,22.88,22.88,0,0,0,4.2-1.52l-4,19a18.87,18.87,0,0,1,3.53-6.57,6.57,6.57,0,0,1,4.35-2.1,3.8,3.8,0,0,1,2.82.65,3.11,3.11,0,0,1,1,2.26,8.39,8.39,0,0,1-.34,2.87l-3,12.07a4.06,4.06,0,0,0-.15,1.18.72.72,0,0,0,.86.77c.88-.06,1.62-1.18,2.23-3.34l.57-2Z" transform="translate(-154.96 -44.77)"/><path d="M563,628.25a10.58,10.58,0,0,1-4,3.82l-.26-.61a9.35,9.35,0,0,0,2.79-2.61,5.31,5.31,0,0,0,1-3.17,3.33,3.33,0,0,1-2.37,1.39,2.74,2.74,0,0,1-1.88-.39,2,2,0,0,1-.78-1.54,3.78,3.78,0,0,1,1-2.92,4,4,0,0,1,2.82-1.44,2.53,2.53,0,0,1,2,.56,3.11,3.11,0,0,1,.87,2.07A7.88,7.88,0,0,1,563,628.25Z" transform="translate(-154.96 -44.77)"/><path d="M574.64,632a5.12,5.12,0,0,0,3.35-2,9.34,9.34,0,0,0,1.72-4.71l3-18.44a4.88,4.88,0,0,0,.11-1.26c-.06-.51-.33-.73-.8-.68a1.71,1.71,0,0,0-1.21.88,7.91,7.91,0,0,0-1,2.54l-.54,2.11-.75.08.74-3.14a5.85,5.85,0,0,1,1.88-3.38,5.91,5.91,0,0,1,3.2-1.32q3.42-.37,3.76,2.76a8.46,8.46,0,0,1-.13,2.47l-2,12.18a22,22,0,0,1-1.39,5.7,11.25,11.25,0,0,1-2.71,3.92,12.58,12.58,0,0,1-7.4,3ZM584,594a4.31,4.31,0,0,1,2.83-1.36,3.34,3.34,0,0,1,2.24.4,2.2,2.2,0,0,1,1,1.7,3.45,3.45,0,0,1-.9,2.76,4.3,4.3,0,0,1-2.83,1.4,3.36,3.36,0,0,1-2.21-.38,2.16,2.16,0,0,1-.95-1.69A3.49,3.49,0,0,1,584,594Z" transform="translate(-154.96 -44.77)"/><path d="M611.69,614.2l.76-.09-.7,3.15a6,6,0,0,1-1.77,3.41,5.65,5.65,0,0,1-3,1.34,4.33,4.33,0,0,1-1.87-.13,2.41,2.41,0,0,1-1.24-.86,3.72,3.72,0,0,1-.56-1.58,12.3,12.3,0,0,1,.08-2.63l.57-4.22a34.17,34.17,0,0,1-2.26,6.2,9.59,9.59,0,0,1-2.53,3.32,6.48,6.48,0,0,1-3.19,1.26,3.82,3.82,0,0,1-2.78-.5,3.14,3.14,0,0,1-1.19-2.31,8.32,8.32,0,0,1,.17-2.8l2.4-12.19a4.12,4.12,0,0,0,.1-1.18c-.07-.56-.36-.8-.86-.74a1.76,1.76,0,0,0-1.17.83,7.68,7.68,0,0,0-.94,2.61l-.48,2-.75.09.63-3c.61-2.84,2.22-4.43,4.81-4.75q3.61-.45,4,2.85a10.76,10.76,0,0,1-.18,3.09l-2.24,11.16a5.55,5.55,0,0,0-.15,1.75c.07.61.36.88.87.82.79-.1,1.63-1,2.52-2.69a35.29,35.29,0,0,0,2.51-6.62,71.59,71.59,0,0,0,1.89-8.68l.32-2.3a30.68,30.68,0,0,0,5.68-1.27l-2.76,18.32a5.16,5.16,0,0,0-.08,1.34.6.6,0,0,0,.76.59,1.73,1.73,0,0,0,1.26-.88,8.19,8.19,0,0,0,.89-2.57Z" transform="translate(-154.96 -44.77)"/><path d="M619.27,619.54a3.29,3.29,0,0,0,2.29-1.25,3.39,3.39,0,0,0,.56-2.62,6.93,6.93,0,0,0-.92-2.54,19.42,19.42,0,0,0-2.09-2.82L618,609a10.43,10.43,0,0,1-1.47-2.12,6.75,6.75,0,0,1-.68-2.11,5.34,5.34,0,0,1,1.34-4.47,8,8,0,0,1,5.07-2.35,9,9,0,0,1,4.42.33,3.35,3.35,0,0,1,2.17,3,3.51,3.51,0,0,1-.35,2.11,2.07,2.07,0,0,1-1.66,1.16,2,2,0,0,1-1.69-.53,3.09,3.09,0,0,1-.86-1.82,5,5,0,0,1,.1-1.9,5.3,5.3,0,0,1,.68-1.56,2.64,2.64,0,0,0-1.44-.13,2.89,2.89,0,0,0-2.11,1.2,3.73,3.73,0,0,0-.51,2.6,4.47,4.47,0,0,0,.69,1.88,25.37,25.37,0,0,0,1.75,2.26l.66.76a25.81,25.81,0,0,1,2.29,3.2,7.38,7.38,0,0,1,.91,2.62,5.52,5.52,0,0,1-.48,3.23,6.28,6.28,0,0,1-2.3,2.52,10.5,10.5,0,0,1-8.66.9,3.81,3.81,0,0,1-2.35-3.25,3.41,3.41,0,0,1,.32-2.1,2,2,0,0,1,3.27-.41,3.74,3.74,0,0,1,.92,2.13,5.68,5.68,0,0,1,0,1.59q-.1.72-.36,1.77A3.71,3.71,0,0,0,619.27,619.54Z" transform="translate(-154.96 -44.77)"/><path d="M637.39,613.8a2.75,2.75,0,0,0,0,.81,1.19,1.19,0,0,0,.45.84,1.23,1.23,0,0,0,.91.17,2.41,2.41,0,0,0,1.56-1.11,7.57,7.57,0,0,0,1.06-2.76l.35-1.72.75-.11-.45,2.42q-.84,4.89-5.23,5.55a4.12,4.12,0,0,1-3.19-.59,4,4,0,0,1-1.43-2.72,8.24,8.24,0,0,1,0-2.43l1.91-14.52-3.56.53.08-.82,3.6-.54.81-6.15a29.33,29.33,0,0,0,5.66-1.41l-.9,6.73,4.47-.67v.81l-4.59.68Z" transform="translate(-154.96 -44.77)"/><path d="M671.25,591.87a7.2,7.2,0,0,1,2,4.31,17.94,17.94,0,0,1-.37,7.1,16.8,16.8,0,0,1-3.29,6.82,9.5,9.5,0,0,1-6,3.56,4.52,4.52,0,0,1-2.08-.09,2.94,2.94,0,0,1-1.55-1,9,9,0,0,0-2.26.93c-.78.44-1.65,1-2.62,1.68l-.63-.18a12.49,12.49,0,0,0,.43-2.46l3-25.54a3.67,3.67,0,0,0,0-1.14,1.26,1.26,0,0,0-.78-1,4.37,4.37,0,0,0-2.11,0l.1-.87a30.72,30.72,0,0,0,4.81-1.25,23.46,23.46,0,0,0,4-1.9L662,597.58a14.48,14.48,0,0,1,2.24-4.76,5,5,0,0,1,3.09-1.9A4.46,4.46,0,0,1,671.25,591.87Zm-5.76,17.7a21.61,21.61,0,0,0,1.83-6.7,24.26,24.26,0,0,0,0-7,4.94,4.94,0,0,0-.69-2,1.08,1.08,0,0,0-1.11-.46c-.74.12-1.45.91-2.14,2.37a25,25,0,0,0-1.73,5.5l-1.25,10.88a2.35,2.35,0,0,0,1.92.57Q664.14,612.4,665.49,609.57Z" transform="translate(-154.96 -44.77)"/><path d="M689.39,596.1a29.76,29.76,0,0,1-7.81,5.32,15.37,15.37,0,0,0,.24,2.72,4.53,4.53,0,0,0,1.31,2.81,2.89,2.89,0,0,0,2.42.46,6.39,6.39,0,0,0,2.61-1.27,10.17,10.17,0,0,0,2.55-3l.69.2a12.61,12.61,0,0,1-3.13,4.43,9.79,9.79,0,0,1-5,2.5,6.83,6.83,0,0,1-4.71-.65,5.18,5.18,0,0,1-2.48-3.78,16.32,16.32,0,0,1,.58-7.59,17.73,17.73,0,0,1,4-7.13,11.81,11.81,0,0,1,6.71-3.76,5.15,5.15,0,0,1,3.1.27,2.69,2.69,0,0,1,1.56,2.1C692.41,591.91,691.54,594,689.39,596.1Zm-5.06-5.75a17.26,17.26,0,0,0-1.92,4.68,24.67,24.67,0,0,0-.85,5.62,15.85,15.85,0,0,0,3.85-3.42,10.92,10.92,0,0,0,1.89-3.7,8.92,8.92,0,0,0,.2-4.08,2.37,2.37,0,0,0-.34-1,.52.52,0,0,0-.53-.19C685.87,588.4,685.1,589.1,684.33,590.35Z" transform="translate(-154.96 -44.77)"/><path d="M702.08,587.57a16.5,16.5,0,0,0-1.91,6.07,22.24,22.24,0,0,0,.2,7.19q.75,3.93,3.74,3.36c1.89-.36,3.39-1.85,4.52-4.45l.85.16a12.71,12.71,0,0,1-2.87,4.46,8.81,8.81,0,0,1-4.68,2.45,6.71,6.71,0,0,1-4.87-.66,5.84,5.84,0,0,1-2.58-4.19,17.59,17.59,0,0,1,3.95-14.2,11.2,11.2,0,0,1,6.5-3.73,5.38,5.38,0,0,1,3.68.42,3.37,3.37,0,0,1,1.83,2.43,4.63,4.63,0,0,1-.11,2.18,4.38,4.38,0,0,1-1.1,1.93,3.39,3.39,0,0,1-1.84,1,2.2,2.2,0,0,1-1.73-.32,2.32,2.32,0,0,1-.95-1.53,4.12,4.12,0,0,1,.54-2.93,5,5,0,0,1,2.22-2,2.41,2.41,0,0,0-2-.42A5.22,5.22,0,0,0,702.08,587.57Z" transform="translate(-154.96 -44.77)"/><path d="M731.45,593.77l.74-.15-.4,3.06a6.06,6.06,0,0,1-1.54,3.55,5.32,5.32,0,0,1-2.81,1.53,3.38,3.38,0,0,1-3.15-.62,3.2,3.2,0,0,1-.95-1.85,9.49,9.49,0,0,1-.11-2.39,11.55,11.55,0,0,1-2.11,4.8,5.73,5.73,0,0,1-3.33,2,4.21,4.21,0,0,1-3.53-.61,5.29,5.29,0,0,1-1.83-3.32,17.35,17.35,0,0,1,.36-7.77,21.26,21.26,0,0,1,3.4-7.48,8.65,8.65,0,0,1,5.07-3.77,2.41,2.41,0,0,1,1.83.29,2.94,2.94,0,0,1,1.15,1.72l.16-2A29.36,29.36,0,0,0,730,579l-1.59,18.52a4.1,4.1,0,0,0,0,1.14c.12.58.42.81.92.71.92-.18,1.52-1.38,1.8-3.59Zm-7.33-9.37a3.54,3.54,0,0,0-.08-.6,2.85,2.85,0,0,0-.64-1.42,1.15,1.15,0,0,0-1.1-.31c-.89.18-1.74,1.19-2.56,3a23.13,23.13,0,0,0-1.68,6.59,22.74,22.74,0,0,0,.22,7.22,5.09,5.09,0,0,0,.64,1.81.88.88,0,0,0,1,.4c.58-.12,1.13-.65,1.66-1.59a14.93,14.93,0,0,0,1.38-3.87,32,32,0,0,0,.74-5.72v1Z" transform="translate(-154.96 -44.77)"/><path d="M754.71,588.68l.75-.16-.42,3.2a6.07,6.07,0,0,1-1.47,3.55,5.52,5.52,0,0,1-2.91,1.6,4.11,4.11,0,0,1-1.87,0,2.45,2.45,0,0,1-1.31-.75,3.61,3.61,0,0,1-.69-1.52,12.37,12.37,0,0,1-.16-2.63l.19-4.25a32.9,32.9,0,0,1-1.7,6.37,9.46,9.46,0,0,1-2.23,3.53,6.45,6.45,0,0,1-3.06,1.54,3.86,3.86,0,0,1-2.82-.26,3.16,3.16,0,0,1-1.39-2.19,8.62,8.62,0,0,1-.07-2.81l1.32-12.35a4.16,4.16,0,0,0,0-1.19c-.12-.54-.42-.77-.92-.66a1.74,1.74,0,0,0-1.09.93,7.6,7.6,0,0,0-.71,2.69l-.3,2-.74.16.36-3.07q.54-4.32,4.38-5.15,3.55-.76,4.25,2.48a10.14,10.14,0,0,1,.09,3.09l-1.25,11.32a5.53,5.53,0,0,0,0,1.75c.13.6.44.85.93.74.78-.16,1.55-1.13,2.28-2.9a35.73,35.73,0,0,0,1.92-6.81,73.5,73.5,0,0,0,1.12-8.81l.11-2.32a32.44,32.44,0,0,0,5.55-1.76l-1.14,18.49a5,5,0,0,0,0,1.34.6.6,0,0,0,.81.52,1.73,1.73,0,0,0,1.18-1,8.17,8.17,0,0,0,.66-2.63Z" transform="translate(-154.96 -44.77)"/><path d="M762.77,593.36a3.31,3.31,0,0,0,2.18-1.43,3.44,3.44,0,0,0,.35-2.66,6.84,6.84,0,0,0-1.13-2.45,18.24,18.24,0,0,0-2.31-2.64l-1.23-1.2a10.5,10.5,0,0,1-1.63-2,6.71,6.71,0,0,1-.85-2,5.27,5.27,0,0,1,1-4.56,8,8,0,0,1,4.85-2.77,9.13,9.13,0,0,1,4.44,0,3.35,3.35,0,0,1,2.4,2.76,3.57,3.57,0,0,1-.18,2.14,2.07,2.07,0,0,1-1.55,1.29,1.94,1.94,0,0,1-1.73-.4,3,3,0,0,1-1-1.74,4.83,4.83,0,0,1-.05-1.89,5.51,5.51,0,0,1,.54-1.62,2.78,2.78,0,0,0-1.44,0,2.93,2.93,0,0,0-2,1.38,3.7,3.7,0,0,0-.29,2.62,4.6,4.6,0,0,0,.84,1.83,26.9,26.9,0,0,0,1.92,2.1l.74.7a26.16,26.16,0,0,1,2.53,3,7.35,7.35,0,0,1,1.12,2.54,5.47,5.47,0,0,1-.21,3.26,6.3,6.3,0,0,1-2.08,2.7,10.52,10.52,0,0,1-8.56,1.61,3.78,3.78,0,0,1-2.6-3,3.4,3.4,0,0,1,.14-2.13,1.89,1.89,0,0,1,1.41-1.17,1.93,1.93,0,0,1,1.82.49,3.83,3.83,0,0,1,1.09,2,5.62,5.62,0,0,1,.15,1.59c0,.48-.1,1.08-.21,1.79A3.77,3.77,0,0,0,762.77,593.36Z" transform="translate(-154.96 -44.77)"/><path d="M786.63,575.62a29.86,29.86,0,0,1-7.56,5.69,16.11,16.11,0,0,0,.38,2.7,4.55,4.55,0,0,0,1.44,2.75,2.92,2.92,0,0,0,2.44.34,6.49,6.49,0,0,0,2.55-1.39,10.2,10.2,0,0,0,2.4-3.12l.69.16a12.61,12.61,0,0,1-2.9,4.58,9.84,9.84,0,0,1-4.93,2.74,6.8,6.8,0,0,1-4.74-.43,5.12,5.12,0,0,1-2.65-3.65,16.46,16.46,0,0,1,.21-7.61,18,18,0,0,1,3.69-7.32,11.82,11.82,0,0,1,6.53-4.07,5.06,5.06,0,0,1,3.11.12,2.68,2.68,0,0,1,1.65,2Q789.69,572.37,786.63,575.62Zm-5.34-5.5a17.39,17.39,0,0,0-1.69,4.76,24.79,24.79,0,0,0-.58,5.66,15.78,15.78,0,0,0,3.68-3.6,10.87,10.87,0,0,0,1.71-3.79,8.79,8.79,0,0,0,0-4.08,2.26,2.26,0,0,0-.39-1,.5.5,0,0,0-.53-.16C782.74,568.1,782,568.83,781.29,570.12Z" transform="translate(-154.96 -44.77)"/><path d="M810.73,580.16a1.11,1.11,0,0,0,.82,1,6.38,6.38,0,0,0,2.17-.15l0,.81c-1.52.29-3.65.76-6.37,1.41s-4.74,1.19-6.07,1.59V584a8.12,8.12,0,0,0,2-.81,2,2,0,0,0,.87-1.17,8.89,8.89,0,0,0,.28-2.31l.48-20.53a9.22,9.22,0,0,0-.14-1.94,1.14,1.14,0,0,0-.83-1,6.32,6.32,0,0,0-2.13.14v-.82q1.93-.35,6.13-1.36c2.57-.62,4.68-1.17,6.35-1.66v.83a9,9,0,0,0-2,.82,2.06,2.06,0,0,0-.87,1.16,8.41,8.41,0,0,0-.28,2.33l-.48,20.52A10.83,10.83,0,0,0,810.73,580.16Z" transform="translate(-154.96 -44.77)"/><path class="cls-3" d="M221.28,704.7c-24.82,29.49-29.38,70.75-29.8,109.29-.36,32.44,2.38,67.39,22.93,92.49,13.14,16,32.13,26.1,51.32,33.92,65.6,26.72,137.79,31.41,206.66,48,38.6,9.28,76.18,22.29,113.7,35.28,20.38,7.05,40.95,14.15,62.36,16.83,28.35,3.54,57.21-.79,85.61,2.38,54.92,6.13,105.54,42.28,129.15,92.24,6,12.74,10.66,26.66,20.63,36.63,9,9,21.39,13.73,33.35,18.18l52.8,19.65a199.43,199.43,0,0,1-47.8-95.34c55.31,8.4,99.12,60.34,155.07,59.78-54.23-38.85-109.51-78.74-148-133.25-27.3-38.7-45-83.26-69.12-124-15.36-26-33.83-50.87-58.81-67.78-24.53-16.62-53.78-24.51-82.44-32Q495.33,758.22,269.59,708.18c-17.65-3.91-30.72-7.66-48.31-3.48" transform="translate(-154.96 -44.77)"/><path d="M219.51,702.93C199,727.74,192,759.78,189.82,791.23c-2.13,31.14-2.65,65.48,9.6,94.78a88.52,88.52,0,0,0,28.23,36.52c13.06,10,28.18,16.8,43.44,22.67,34.81,13.39,71.47,21,108.07,27.62,36.87,6.7,73.89,12.66,110.12,22.42,37.9,10.22,74.64,23.86,111.87,36.16,17.89,5.91,36.11,10.84,55,12.33,19.69,1.57,39.44,0,59.15.44,32.36.7,63.15,9.74,90.07,27.89a164,164,0,0,1,58.16,69.61c6.83,15.33,13.54,30.14,28.26,39.42,6.85,4.32,14.46,7.33,22,10.18,9.16,3.45,18.34,6.83,27.52,10.24L969.33,1212c2.5.94,4-2.47,2.43-4.18a198.69,198.69,0,0,1-47.16-94.24l-3.08,3.08c44.42,7,78.6,39.61,120.38,53.8a108.9,108.9,0,0,0,35.36,6.07c2.64,0,3.19-3.28,1.26-4.66-51.34-36.78-104-74.5-142.17-125.61-38.85-52-57.65-116.42-98.79-166.83a167.7,167.7,0,0,0-32.5-30.92c-12.83-9.11-27.21-15.77-42-21.11-15.33-5.54-31.14-9.63-46.89-13.76q-26.26-6.87-52.55-13.64-105.15-27.06-210.78-52.2-53.24-12.68-106.59-24.87-26.46-6-52.95-12c-16.27-3.64-32.78-8.5-49.4-10.16a72.5,72.5,0,0,0-23.31,1.54c-3.14.7-1.81,5.52,1.33,4.82,17.22-3.88,33.58.51,50.39,4.24q26.09,5.79,52.12,11.69Q377,735,429.39,747.32q105.24,24.84,210,51.58c33.86,8.64,67.93,16.84,101.49,26.57,15.75,4.57,31.36,9.93,45.87,17.63a146.61,146.61,0,0,1,37,28.16c21.93,22.85,37.47,51,52,78.91,15.08,29,29.1,58.71,47.37,85.91,34.77,51.77,84.45,90.57,134.42,126.76q9.24,6.67,18.5,13.3l1.27-4.66c-44.87.13-80.8-32-120-49.17a140.42,140.42,0,0,0-34.38-10.52,2.53,2.53,0,0,0-3.07,3.07,203.66,203.66,0,0,0,48.44,96.45l2.44-4.18c-18.53-6.89-37.08-13.72-55.57-20.68-7.84-3-15.69-6.14-22.65-10.88-7.18-4.89-12.44-11.58-16.55-19.16-7.55-13.92-12.69-28.74-21.49-42A166.66,166.66,0,0,0,826,1081.81a169.06,169.06,0,0,0-76.38-39c-36.15-7.69-73.3.37-109.54-6.19-18.26-3.3-35.85-9.39-53.35-15.44-18.49-6.4-37-12.81-55.62-18.77a868.75,868.75,0,0,0-109-27c-35.65-6.52-71.55-12.08-106.63-21.33A391.17,391.17,0,0,1,264,937c-15.18-6.37-30.2-14.27-42-25.93-23.75-23.44-27.89-58.23-28.06-90s1.74-65.79,16.21-94.77a103.28,103.28,0,0,1,12.89-19.85c2-2.46-1.48-6-3.54-3.53Z" transform="translate(-154.96 -44.77)"/><path d="M240,639.08a16.55,16.55,0,0,0-4.31,4.68,22.55,22.55,0,0,0-2.87,6.6c-.66,2.58,0,4.12,2,4.62s3.86-.23,6-2.11l.69.51A12.82,12.82,0,0,1,237,656.2a8.78,8.78,0,0,1-5.28.23,6.73,6.73,0,0,1-4.13-2.66,5.86,5.86,0,0,1-.55-4.89,17.51,17.51,0,0,1,9.61-11.18,11.2,11.2,0,0,1,7.46-.62,5.42,5.42,0,0,1,3.16,1.94,3.43,3.43,0,0,1,.62,3,4.78,4.78,0,0,1-1,1.92,4.48,4.48,0,0,1-1.81,1.28,3.44,3.44,0,0,1-2.1.12,2.19,2.19,0,0,1-1.43-1,2.27,2.27,0,0,1-.21-1.79,4.13,4.13,0,0,1,1.73-2.42,4.88,4.88,0,0,1,2.87-.91,2.36,2.36,0,0,0-1.66-1.24A5.14,5.14,0,0,0,240,639.08Z" transform="translate(-154.96 -44.77)"/><path d="M248.44,646.76a15.11,15.11,0,0,1,5.63-4.85,10.73,10.73,0,0,1,7.37-.82,6.46,6.46,0,0,1,4.32,2.7,6.68,6.68,0,0,1,.58,5.15,17.74,17.74,0,0,1-2.95,6.35,15.11,15.11,0,0,1-5.63,4.85,10.73,10.73,0,0,1-7.37.82,6.46,6.46,0,0,1-4.32-2.7,6.68,6.68,0,0,1-.58-5.15A17.74,17.74,0,0,1,248.44,646.76Zm8.85-2.87a28.28,28.28,0,0,0-4.39,6.16,27.25,27.25,0,0,0-2.84,7.23,4.87,4.87,0,0,0-.14,2.1,1.06,1.06,0,0,0,.88.85c1,.22,2.21-.45,3.74-2a30.36,30.36,0,0,0,7.21-13.4,5.28,5.28,0,0,0,.17-2.19,1,1,0,0,0-.85-.82Q259.63,641.5,257.29,643.89Z" transform="translate(-154.96 -44.77)"/><path d="M286.48,661l.74.15-1.62,2.78a6,6,0,0,1-2.73,2.7,5.55,5.55,0,0,1-3.3.36,4.32,4.32,0,0,1-1.74-.7,2.44,2.44,0,0,1-.92-1.19,3.64,3.64,0,0,1-.05-1.68,12.6,12.6,0,0,1,.88-2.48l1.82-3.85a33,33,0,0,1-4,5.22,9.5,9.5,0,0,1-3.42,2.39,6.46,6.46,0,0,1-3.42.23,3.85,3.85,0,0,1-2.5-1.33,3.18,3.18,0,0,1-.43-2.56,8.71,8.71,0,0,1,1-2.62l6-10.87a3.63,3.63,0,0,0,.45-1.1c.1-.55-.09-.87-.59-1a1.72,1.72,0,0,0-1.36.43,7.5,7.5,0,0,0-1.7,2.2l-1.07,1.75-.74-.14,1.52-2.68q2.18-3.78,6-3c2.39.45,3.37,1.76,3,3.94a10.43,10.43,0,0,1-1.11,2.88l-5.55,9.94a6.22,6.22,0,0,0-.67,1.63c-.11.6.08.95.58,1,.78.15,1.86-.45,3.23-1.79a35.72,35.72,0,0,0,4.4-5.54,72.61,72.61,0,0,0,4.45-7.69l1-2.09a31.68,31.68,0,0,0,5.81.53l-8.23,16.6a5.26,5.26,0,0,0-.48,1.25.6.6,0,0,0,.54.8,1.75,1.75,0,0,0,1.47-.46,8,8,0,0,0,1.63-2.17Z" transform="translate(-154.96 -44.77)"/><path d="M293.33,666.33c-.11.66.11,1,.67,1.13q1.22.19,2.88-2.73l1-1.78.75.12-1.46,2.72a5.86,5.86,0,0,1-2.69,2.78,5.55,5.55,0,0,1-3.23.43,3.65,3.65,0,0,1-2.53-1.37,3.58,3.58,0,0,1-.49-2.74,10,10,0,0,1,.93-2.68l9.58-19.59a4.83,4.83,0,0,0,.38-1.07,1.26,1.26,0,0,0-.43-1.25,4.51,4.51,0,0,0-2-.69l.41-.79a29,29,0,0,0,5,.37,24,24,0,0,0,4.45-.48l-12.88,26.66A3.49,3.49,0,0,0,293.33,666.33Z" transform="translate(-154.96 -44.77)"/><path d="M320.51,666.24l.75.11-1.36,2.76a5.2,5.2,0,0,1-5.8,3.34c-1.64-.23-2.59-1-2.87-2.26a4,4,0,0,1-.08-1.71,10.09,10.09,0,0,1,.87-2.74l.06-.16a15,15,0,0,1-3.88,4.47,5.81,5.81,0,0,1-4.24,1,4.51,4.51,0,0,1-3.21-1.87,5.91,5.91,0,0,1-.72-4.34,17.72,17.72,0,0,1,2.64-6.76,18.39,18.39,0,0,1,5.58-5.76,10.23,10.23,0,0,1,7.22-1.67,2.36,2.36,0,0,1,2.23,1.69l2.73-6.49a4.84,4.84,0,0,0,.35-1.08,1.24,1.24,0,0,0-.45-1.23,4.43,4.43,0,0,0-2-.65l.35-.8a31,31,0,0,0,5,.26,23.57,23.57,0,0,0,4.46-.58l-11.71,27a2.91,2.91,0,0,0-.35,1c-.09.61.12.95.62,1a1.66,1.66,0,0,0,1.29-.53,8.41,8.41,0,0,0,1.57-2.26Zm-3.22-13c-.16-1-.63-1.5-1.39-1.61-1.14-.16-2.43.49-3.89,1.94a21.85,21.85,0,0,0-4,5.72,23.39,23.39,0,0,0-2.28,7.19,5.37,5.37,0,0,0,0,2.11,1,1,0,0,0,.88.81,2.92,2.92,0,0,0,2-.91,16.82,16.82,0,0,0,2.72-3.07,32.54,32.54,0,0,0,2.85-5Z" transform="translate(-154.96 -44.77)"/><path d="M344.85,669l-1.31,2.79q-1.89,3.93-5.79,3.5a3.66,3.66,0,0,1-3-1.66,3.24,3.24,0,0,1-.31-1.92,10,10,0,0,1,1-3.07l4.77-10.34a5.82,5.82,0,0,0,.54-1.67c.07-.61-.15-.95-.65-1-.8-.09-1.85.61-3.15,2.11a36.69,36.69,0,0,0-4.11,6,71.5,71.5,0,0,0-3.9,8l-.73,1.93-5.61-.62,6.71-16.64a4.17,4.17,0,0,0,.38-1.25c.05-.48-.15-.74-.6-.79a1.74,1.74,0,0,0-1.41.55,8.84,8.84,0,0,0-1.48,2.31l-1,2-.76-.09,1.41-2.9a6.49,6.49,0,0,1,2.38-2.92,5.07,5.07,0,0,1,3.2-.61c2.28.25,3.3,1.47,3.06,3.64a8.89,8.89,0,0,1-.57,2.27l-1.77,4.67a36.2,36.2,0,0,1,3.82-6,10.15,10.15,0,0,1,3.37-2.83,6.5,6.5,0,0,1,3.5-.54c2.39.26,3.46,1.46,3.23,3.58a9.88,9.88,0,0,1-.83,2.76L340,671.57a3.94,3.94,0,0,0-.37,1.13c-.06.55.16.86.67.92a1.78,1.78,0,0,0,1.32-.54,7.83,7.83,0,0,0,1.53-2.33l.92-1.83Z" transform="translate(-154.96 -44.77)"/><path d="M358.5,651.22c-.39.59-1,1.4-1.85,2.42a31.15,31.15,0,0,0-2.29,3.09l-.56-.05a27.09,27.09,0,0,0,0-3.82,13.27,13.27,0,0,1,0-2.09l.09-.59A3.42,3.42,0,0,1,355,648a2.92,2.92,0,0,1,2.28-.72,2,2,0,0,1,1.4.63,1.92,1.92,0,0,1,.46,1.42A4.14,4.14,0,0,1,358.5,651.22Z" transform="translate(-154.96 -44.77)"/><path d="M361.56,673.5a2.75,2.75,0,0,0-.18.78,1.23,1.23,0,0,0,.25.93,1.29,1.29,0,0,0,.86.36,2.34,2.34,0,0,0,1.76-.72,7.44,7.44,0,0,0,1.65-2.47l.72-1.58.76.05-1,2.26c-1.28,3-3.39,4.47-6.35,4.24a3.62,3.62,0,0,1-3.76-4.26,8.63,8.63,0,0,1,.54-2.36L362,657l-3.59-.28.26-.78,3.63.28,2.17-5.81a29.49,29.49,0,0,0,5.83-.12l-2.38,6.36,4.51.35-.18.78-4.63-.35Z" transform="translate(-154.96 -44.77)"/><path d="M411.42,673l-1.11,2.88c-1.06,2.7-2.91,4-5.55,3.9a3.44,3.44,0,0,1-3.14-1.56,3.21,3.21,0,0,1-.37-1.81,10.18,10.18,0,0,1,.71-3.1l4-10.65a5.75,5.75,0,0,0,.38-1.59c0-.53-.16-.81-.53-.82q-1.63-.06-4.09,3.79a57,57,0,0,0-5.06,11.27v-.12l-1.18,3.68-5.72-.22,5.52-16.4a6.18,6.18,0,0,0,.38-1.63c0-.51-.19-.77-.61-.78q-1.8-.08-4.22,4a57.87,57.87,0,0,0-4.67,10.66v0l-1.2,4-5.63-.22,5.54-17.07a4.68,4.68,0,0,0,.25-1.16c0-.56-.21-.84-.69-.86a1.65,1.65,0,0,0-1.33.69,9.31,9.31,0,0,0-1.31,2.37l-.84,2-.76,0,1.2-3a6.23,6.23,0,0,1,2.34-3.07,5.6,5.6,0,0,1,3.21-.84,3.14,3.14,0,0,1,2.45,1,3.45,3.45,0,0,1,.67,2.34,9.49,9.49,0,0,1-.46,2.39l-1,3.4a21.44,21.44,0,0,1,4.29-6.8,6.71,6.71,0,0,1,5-1.89q3.16.13,3,3.24a11.66,11.66,0,0,1-.59,2.9l-.82,2.53a19.59,19.59,0,0,1,4.32-6.52,6.75,6.75,0,0,1,4.81-1.73,3.27,3.27,0,0,1,2.44.93,3.16,3.16,0,0,1,.71,2.31,8.67,8.67,0,0,1-.67,2.9l-4.37,11.64a4.22,4.22,0,0,0-.29,1.15c0,.56.23.85.73.87q1.36,0,2.64-3.06l.8-1.89Z" transform="translate(-154.96 -44.77)"/><path d="M432.63,673.14h.76l-1,2.91a6.09,6.09,0,0,1-2.25,3.16,5.41,5.41,0,0,1-3.07.91,3.35,3.35,0,0,1-2.94-1.26,3.24,3.24,0,0,1-.55-2,9.12,9.12,0,0,1,.39-2.35,11.68,11.68,0,0,1-3.06,4.25,5.71,5.71,0,0,1-3.67,1.28,4.17,4.17,0,0,1-3.33-1.33,5.28,5.28,0,0,1-1.11-3.63,17.53,17.53,0,0,1,2-7.52,21.38,21.38,0,0,1,4.88-6.61c2-1.77,3.88-2.65,5.74-2.63a2.39,2.39,0,0,1,1.74.65,3,3,0,0,1,.76,1.93l.58-1.95a29.3,29.3,0,0,0,5.8-.55l-5.4,17.79a4,4,0,0,0-.21,1.12c0,.59.25.88.75.89.94,0,1.77-1,2.51-3.14Zm-5.22-10.68a4.23,4.23,0,0,0,0-.6,2.81,2.81,0,0,0-.32-1.53,1.19,1.19,0,0,0-1-.53c-.91,0-1.95.8-3.12,2.42a24.92,24.92,0,0,0-4.3,13.2,5,5,0,0,0,.24,1.9.89.89,0,0,0,.86.59,2.91,2.91,0,0,0,1.95-1.2,15.37,15.37,0,0,0,2.15-3.5,31.8,31.8,0,0,0,1.91-5.45l-.21,1Z" transform="translate(-154.96 -44.77)"/><path d="M455.28,659.16a3.67,3.67,0,0,1,1,2.57,3.56,3.56,0,0,1-.89,2.53,3.11,3.11,0,0,1-2.42,1,2.64,2.64,0,0,1-1.89-.61,2.1,2.1,0,0,1-.7-1.59,3.46,3.46,0,0,1,.73-2.19,5.89,5.89,0,0,1,1.86-1.61.71.71,0,0,0-.64-.31,2.62,2.62,0,0,0-1.68.62,3.62,3.62,0,0,0-.84,1.11c-.22.45-.52,1.11-.88,2a15.06,15.06,0,0,1-1.67,3.39,4.54,4.54,0,0,1-2.62,1.75c4.45,0,6.7,1.47,6.73,4.27a6.41,6.41,0,0,1-.1,1.28l-.56,3a4,4,0,0,0-.11.88.85.85,0,0,0,.19.62.69.69,0,0,0,.54.17c.88,0,1.68-1.07,2.4-3.19l.69-1.93h.77l-1,2.94a5.6,5.6,0,0,1-5.7,4.19,3.47,3.47,0,0,1-2.47-.77,3,3,0,0,1-.89-2.31,6.36,6.36,0,0,1,.14-1.48l.64-3.09a7.35,7.35,0,0,0,.22-1.64,2.2,2.2,0,0,0-.73-1.75,4.73,4.73,0,0,0-2.35-.81l-3.17,11.4-5.64.07,7.58-26.78a4.94,4.94,0,0,0,.18-1.12,1.23,1.23,0,0,0-.63-1.15,4.45,4.45,0,0,0-2.11-.33l.23-.85a30.54,30.54,0,0,0,5-.5,23.38,23.38,0,0,0,4.28-1.26l-5.54,19.92a5.26,5.26,0,0,0,2.4-1,5.79,5.79,0,0,0,1.44-1.68,17.3,17.3,0,0,0,1.05-2.42,15.25,15.25,0,0,1,.83-2,4.25,4.25,0,0,1,1-1.31,3.82,3.82,0,0,1,2.47-1A3.59,3.59,0,0,1,455.28,659.16Z" transform="translate(-154.96 -44.77)"/><path d="M471.49,666.59a30.12,30.12,0,0,1-8.52,4.12,15.57,15.57,0,0,0-.15,2.72,4.52,4.52,0,0,0,.88,3,2.91,2.91,0,0,0,2.32.81,6.47,6.47,0,0,0,2.78-.87,10,10,0,0,0,3-2.6l.65.3a12.81,12.81,0,0,1-3.74,3.93,9.85,9.85,0,0,1-5.37,1.73,6.8,6.8,0,0,1-4.56-1.33,5.15,5.15,0,0,1-1.9-4.11,16.32,16.32,0,0,1,1.69-7.41,17.71,17.71,0,0,1,5-6.47,11.8,11.8,0,0,1,7.2-2.73,5.08,5.08,0,0,1,3,.72,2.72,2.72,0,0,1,1.24,2.3C475.09,662.88,473.91,664.86,471.49,666.59Zm-4.17-6.43a17.07,17.07,0,0,0-2.59,4.35,24.81,24.81,0,0,0-1.66,5.43,16.06,16.06,0,0,0,4.31-2.82,10.75,10.75,0,0,0,2.41-3.38,8.7,8.7,0,0,0,.79-4,2.26,2.26,0,0,0-.19-1,.52.52,0,0,0-.49-.26A4,4,0,0,0,467.32,660.16Z" transform="translate(-154.96 -44.77)"/><path d="M506.66,670.41l.76,0-.9,3.1a6,6,0,0,1-2,3.29,5.61,5.61,0,0,1-3.12,1.15,4.29,4.29,0,0,1-1.85-.25,2.38,2.38,0,0,1-1.18-.93,3.52,3.52,0,0,1-.46-1.62,11.84,11.84,0,0,1,.24-2.62l.83-4.17a34.4,34.4,0,0,1-2.64,6,9.5,9.5,0,0,1-2.73,3.15,6.48,6.48,0,0,1-3.27,1.06,3.85,3.85,0,0,1-2.74-.67,3.23,3.23,0,0,1-1.05-2.38,8.73,8.73,0,0,1,.35-2.79l3.16-12a3.8,3.8,0,0,0,.17-1.17c0-.56-.31-.82-.81-.79a1.78,1.78,0,0,0-1.22.75,8,8,0,0,0-1.11,2.56l-.6,2-.76,0,.82-3q1.2-4.2,5.1-4.44c2.43-.15,3.7.88,3.84,3.09a10.59,10.59,0,0,1-.38,3.07l-2.93,11a5.87,5.87,0,0,0-.26,1.74c0,.61.31.9.82.87.8,0,1.69-.89,2.69-2.53a34.36,34.36,0,0,0,2.91-6.45,70.94,70.94,0,0,0,2.43-8.54l.46-2.27a32.41,32.41,0,0,0,5.76-.91l-3.91,18.11a4.94,4.94,0,0,0-.16,1.33.61.61,0,0,0,.72.64A1.74,1.74,0,0,0,505,675a8.29,8.29,0,0,0,1-2.51Z" transform="translate(-154.96 -44.77)"/><path d="M528.53,655.58a7.15,7.15,0,0,1,1.63,4.46,18.7,18.7,0,0,1-.89,7,16.75,16.75,0,0,1-3.67,6.5,9,9,0,0,1-6.09,3,6,6,0,0,1-2.1-.19,3.47,3.47,0,0,1-1.6-.92l-.77,3.92a5.6,5.6,0,0,0-.12,1.45,1.53,1.53,0,0,0,.92,1.45,6.23,6.23,0,0,0,2.55.24l-.17.85-.92,0c-2.72.14-4.52.25-5.4.32s-2.74.27-5.6.61l.17-.85a3.34,3.34,0,0,0,2-.69,3.81,3.81,0,0,0,.88-2l5.11-26.46A25,25,0,0,1,512.3,659a37,37,0,0,1-3.18,4.38l-.48-.49c1.07-1.37,1.94-2.56,2.64-3.56a26.28,26.28,0,0,0,2.05-3.66,38.44,38.44,0,0,0,1.92-5.19l.08-.49a25.65,25.65,0,0,0,5.85-1.6l-2.43,12.44a14,14,0,0,1,2.66-4.8,5.06,5.06,0,0,1,3.31-1.71A4.42,4.42,0,0,1,528.53,655.58Zm-7.22,17.28a20.39,20.39,0,0,0,2.41-6.22,22.52,22.52,0,0,0,.56-6.85,6.69,6.69,0,0,0-.55-2.56,1.07,1.07,0,0,0-1-.64c-.8.07-1.64.91-2.53,2.54a28.5,28.5,0,0,0-2.31,6.08L516,674.8a2.31,2.31,0,0,0,1.91.77C519.11,675.47,520.26,674.56,521.31,672.86Z" transform="translate(-154.96 -44.77)"/><path d="M574,664l-.66,3c-.64,2.84-2.28,4.41-4.9,4.71a3.46,3.46,0,0,1-3.34-1.07,3.2,3.2,0,0,1-.64-1.74,10.13,10.13,0,0,1,.24-3.17l2.36-11.14a6.15,6.15,0,0,0,.14-1.62c-.06-.53-.28-.78-.65-.74-1.09.13-2.24,1.58-3.47,4.36a56.94,56.94,0,0,0-3.3,11.91v-.12l-.61,3.82-5.69.64,3-17a6.33,6.33,0,0,0,.13-1.67c-.06-.5-.3-.73-.72-.68q-1.78.21-3.57,4.59a58.92,58.92,0,0,0-3,11.25v0l-.58,4.14-5.6.63,2.9-17.72a4.06,4.06,0,0,0,.06-1.17c-.06-.56-.33-.81-.81-.76a1.65,1.65,0,0,0-1.2.89,9.35,9.35,0,0,0-.94,2.54l-.53,2.11-.75.09.73-3.15a6.24,6.24,0,0,1,1.85-3.39,5.51,5.51,0,0,1,3-1.31,3.13,3.13,0,0,1,2.56.59,3.45,3.45,0,0,1,1,2.22,9.33,9.33,0,0,1-.09,2.43l-.48,3.52a21.57,21.57,0,0,1,3.2-7.37,6.71,6.71,0,0,1,4.68-2.63c2.09-.23,3.25.68,3.49,2.75a12.23,12.23,0,0,1-.15,3l-.42,2.63a19.47,19.47,0,0,1,3.28-7.1,6.69,6.69,0,0,1,4.49-2.44,3.3,3.3,0,0,1,2.56.55,3.19,3.19,0,0,1,1,2.18,8.9,8.9,0,0,1-.23,3l-2.56,12.17a4.31,4.31,0,0,0-.11,1.18c.07.56.35.8.85.75.9-.1,1.62-1.25,2.15-3.43l.5-2Z" transform="translate(-154.96 -44.77)"/><path d="M592.76,650.2A20.84,20.84,0,0,1,591.6,659a40,40,0,0,1-4.33,9.52,27.71,27.71,0,0,1-3.89,4.88,17.47,17.47,0,0,1-4.64,3.41,8.24,8.24,0,0,1-2.74,1,3.08,3.08,0,0,1-2.08-.32,2,2,0,0,1-.95-1.53,2.29,2.29,0,0,1,.53-1.87,2.85,2.85,0,0,1,1.87-1q2.34-.32,4.61,2.16a19.43,19.43,0,0,0,4.67-4.34L579,652.41a5.25,5.25,0,0,0-.61-1.43.71.71,0,0,0-.67-.3c-.29,0-.54.28-.75.71a13,13,0,0,0-.72,2.48l-.45,2-.75.11.6-3a6.65,6.65,0,0,1,1.58-3.44,4.65,4.65,0,0,1,2.75-1.3,3.63,3.63,0,0,1,2.78.6,6,6,0,0,1,1.76,3.15l3.64,13.36a38.69,38.69,0,0,0,2.33-5.5,25.16,25.16,0,0,0,1.2-5.23,8.12,8.12,0,0,1-3-1.86,4.51,4.51,0,0,1-1.38-2.76,2.72,2.72,0,0,1,.45-2.06,2.61,2.61,0,0,1,1.84-1Q592.29,646.6,592.76,650.2Z" transform="translate(-154.96 -44.77)"/><path d="M636.62,654.68l-.53,3q-.78,4.31-4.68,4.92a3.42,3.42,0,0,1-3.39-.92,3.25,3.25,0,0,1-.72-1.7,10.27,10.27,0,0,1,.1-3.18l1.85-11.23a6.43,6.43,0,0,0,.07-1.63c-.09-.53-.32-.76-.68-.7q-1.62.26-3.27,4.51a57.18,57.18,0,0,0-2.76,12l0-.11-.44,3.83-5.64.91,2.2-17.17a5.71,5.71,0,0,0,0-1.67c-.08-.5-.33-.71-.75-.65-1.18.19-2.3,1.78-3.35,4.75a58.39,58.39,0,0,0-2.5,11.38v0l-.39,4.15-5.57.89,2.09-17.83a4.25,4.25,0,0,0,0-1.18c-.09-.55-.37-.79-.84-.71a1.65,1.65,0,0,0-1.17.93,9.74,9.74,0,0,0-.82,2.59L605,652l-.75.12.59-3.17a6.21,6.21,0,0,1,1.69-3.47,5.44,5.44,0,0,1,3-1.45,3.17,3.17,0,0,1,2.59.47,3.45,3.45,0,0,1,1.11,2.18,9.6,9.6,0,0,1,0,2.42l-.33,3.54a21.69,21.69,0,0,1,2.87-7.51,6.73,6.73,0,0,1,4.55-2.83c2.08-.34,3.29.53,3.62,2.58a12.19,12.19,0,0,1,0,3l-.31,2.64a19.93,19.93,0,0,1,3-7.24,6.72,6.72,0,0,1,4.38-2.64,3.27,3.27,0,0,1,2.58.44,3.17,3.17,0,0,1,1.15,2.12,8.88,8.88,0,0,1-.09,3l-2,12.27a4.34,4.34,0,0,0-.06,1.19c.09.55.39.79.89.71.89-.15,1.56-1.32,2-3.52l.41-2Z" transform="translate(-154.96 -44.77)"/><path d="M641.87,641.52c-.09-.52-.38-.74-.85-.66a1.69,1.69,0,0,0-1.17,1,9.21,9.21,0,0,0-.81,2.59l-.43,2.15-.75.13.58-3.19q.75-4.31,4.77-5a3.54,3.54,0,0,1,2.79.42,3.28,3.28,0,0,1,1.23,2.16,6.93,6.93,0,0,1,0,2.4l-2,12.78a3.8,3.8,0,0,0,0,1.19.73.73,0,0,0,.93.69,1.74,1.74,0,0,0,1.09-.88,8.22,8.22,0,0,0,.85-2.67l.38-2,.75-.13-.52,3.06q-.68,4.31-4.61,5-3.59.63-4.16-2.64a9.36,9.36,0,0,1,.07-3.1l1.88-12A5.54,5.54,0,0,0,641.87,641.52Zm.42-11.73a4.39,4.39,0,0,1,2.67-1.44,3.27,3.27,0,0,1,2.27.28,2.28,2.28,0,0,1,1.08,1.66,3.33,3.33,0,0,1-.73,2.8,4.36,4.36,0,0,1-2.74,1.54,3.16,3.16,0,0,1-2.28-.31,2.24,2.24,0,0,1-1-1.76A3.33,3.33,0,0,1,642.29,629.79Z" transform="translate(-154.96 -44.77)"/><path d="M672.74,648.09l-.45,3q-.66,4.32-4.52,5a3.7,3.7,0,0,1-3.39-.72,3.28,3.28,0,0,1-.85-1.75,10,10,0,0,1,.05-3.22l1.56-11.28a5.58,5.58,0,0,0,0-1.76c-.11-.6-.41-.86-.91-.76-.79.14-1.59,1.12-2.41,2.93a37.57,37.57,0,0,0-2.18,6.93,69.49,69.49,0,0,0-1.42,8.79l-.15,2.06-5.54,1,1.6-17.87a4,4,0,0,0,0-1.3c-.09-.47-.36-.67-.8-.59a1.72,1.72,0,0,0-1.19.94,8.52,8.52,0,0,0-.75,2.64l-.38,2.14-.74.14.5-3.18a6.43,6.43,0,0,1,1.43-3.48,5.07,5.07,0,0,1,2.89-1.52c2.26-.42,3.58.45,4,2.6a8.56,8.56,0,0,1,.11,2.34l-.33,5a36.13,36.13,0,0,1,1.93-6.8,10.24,10.24,0,0,1,2.4-3.69,6.6,6.6,0,0,1,3.2-1.53q3.54-.66,4.12,2.49a9.54,9.54,0,0,1,0,2.89L668.86,652a4,4,0,0,0,0,1.18q.17.82.9.69a1.78,1.78,0,0,0,1.12-.9,7.79,7.79,0,0,0,.78-2.67l.36-2Z" transform="translate(-154.96 -44.77)"/><path d="M694.53,643.76l.74-.14-.37,3a5.22,5.22,0,0,1-4.37,5.07c-1.62.32-2.77-.07-3.46-1.19a4.1,4.1,0,0,1-.64-1.58,10.54,10.54,0,0,1-.08-2.88v-.17a15.26,15.26,0,0,1-2.18,5.5,5.83,5.83,0,0,1-3.68,2.32,4.52,4.52,0,0,1-3.65-.7,5.91,5.91,0,0,1-2.11-3.86,17.52,17.52,0,0,1,.26-7.25,18.15,18.15,0,0,1,3.37-7.28,10.14,10.14,0,0,1,6.26-4,2.33,2.33,0,0,1,2.66.86l.44-7a4.35,4.35,0,0,0,0-1.13,1.23,1.23,0,0,0-.83-1,4.56,4.56,0,0,0-2.13.06l.07-.87a31.71,31.71,0,0,0,4.84-1.42,23.62,23.62,0,0,0,4-2l-2.14,29.38a3.1,3.1,0,0,0,0,1.1c.12.6.42.86.92.76a1.66,1.66,0,0,0,1-.93,8.37,8.37,0,0,0,.74-2.65Zm-7.34-11.22a1.66,1.66,0,0,0-1.84-1.06c-1.12.23-2.13,1.26-3,3.11a21.75,21.75,0,0,0-1.84,6.71,23.17,23.17,0,0,0,.22,7.55,5.36,5.36,0,0,0,.7,2,1,1,0,0,0,1.09.47c.52-.1,1.06-.61,1.61-1.52a16.25,16.25,0,0,0,1.55-3.8,31.94,31.94,0,0,0,1.06-5.63Z" transform="translate(-154.96 -44.77)"/><path d="M730,629.81a19.06,19.06,0,0,1,.3,6.39,12.06,12.06,0,0,1-2,5.57,7.13,7.13,0,0,1-4.53,3,4.94,4.94,0,0,1-4.92-1.18,8.63,8.63,0,0,1-5.28,3.39,5.39,5.39,0,0,1-4.18-.5,4.72,4.72,0,0,1-2.09-3.13,8.23,8.23,0,0,1,.66-5,27.82,27.82,0,0,1,3.33-5.62q2.16-2.88,5.79-7.07a5.48,5.48,0,0,0-1.65,1,19.67,19.67,0,0,0-1.55,1.58,12.83,12.83,0,0,1-1.23,1.31,2.52,2.52,0,0,1-1.14.6,2.7,2.7,0,0,1-1.34-.12,1.89,1.89,0,0,0-1.09-.13,1.1,1.1,0,0,0-.77.61,4.6,4.6,0,0,0-.35,1.6l-.12,1.13-.74.16.24-3a7.44,7.44,0,0,1,1-3.47,3,3,0,0,1,1.88-1.32,2.77,2.77,0,0,1,.89-.07,6.13,6.13,0,0,1,1,.18l.64.11a5.24,5.24,0,0,0,1.06.08,5.92,5.92,0,0,0,1.1-.14,6,6,0,0,0,2.83-1.47l.27-.84.9.21a43.78,43.78,0,0,0-4.76,10,16.75,16.75,0,0,0-.82,8.59,4.11,4.11,0,0,0,1,2.09,1.73,1.73,0,0,0,1.67.37,4.67,4.67,0,0,0,2.52-1.61,6.51,6.51,0,0,1-1-2.52,10.26,10.26,0,0,1,.08-4.64,11.18,11.18,0,0,1,1.78-4,4.48,4.48,0,0,1,2.43-1.92c1-.21,1.67.54,2,2.26a10.86,10.86,0,0,1,0,4.29,12.25,12.25,0,0,1-1.72,4.26,3.26,3.26,0,0,0,3.36,1.15,4.36,4.36,0,0,0,3-2.27,9.92,9.92,0,0,0,1.19-4.34,18.15,18.15,0,0,0-.37-4.9c-.12-.57-.23-1-.31-1.24a13.7,13.7,0,0,1-4.11-1.28,4,4,0,0,1-2.14-2.81,2.31,2.31,0,0,1,.28-1.74,2.28,2.28,0,0,1,1.53-1,2.87,2.87,0,0,1,3.09,1.5,15.27,15.27,0,0,1,2,4.52C729.81,629,730,629.48,730,629.81Zm-9.1,2.18a9.18,9.18,0,0,0-.45,2.66,12.37,12.37,0,0,0,.28,3.15,7.55,7.55,0,0,0,.86,2.27,12.1,12.1,0,0,0,1.31-3.76,9.88,9.88,0,0,0,0-3.8c-.26-1.22-.62-1.79-1.06-1.69S721.18,631.28,720.92,632Z" transform="translate(-154.96 -44.77)"/><path d="M753.69,630.82l-.33,3.07q-.48,4.33-4.31,5.21-3.54.81-4.27-2.35a9.16,9.16,0,0,1-.1-3.17l1.07-11.33a7,7,0,0,0,0-1.79c-.14-.57-.45-.8-.94-.69-.73.17-1.44,1-2.13,2.62a30.9,30.9,0,0,0-1.82,6.16,68.06,68.06,0,0,0-1.14,8.13l-.19,3.49a.19.19,0,0,0,0,.13v0l0,.46L734,642l1.79-27.77a4.24,4.24,0,0,0,0-1.14,1.24,1.24,0,0,0-.86-1,4.46,4.46,0,0,0-2.13.11l0-.87a31.81,31.81,0,0,0,4.79-1.54,23.24,23.24,0,0,0,3.93-2.13L740.3,627a19.14,19.14,0,0,1,2.52-7,6.58,6.58,0,0,1,4-2.72,3.81,3.81,0,0,1,2.88.23,3.1,3.1,0,0,1,1.38,2.08,8.52,8.52,0,0,1,.09,2.89L750,634.83a4,4,0,0,0,0,1.18.74.74,0,0,0,1,.65c.86-.2,1.43-1.41,1.71-3.64l.28-2Z" transform="translate(-154.96 -44.77)"/><path d="M758.3,617.41c-.13-.52-.42-.73-.89-.62a1.69,1.69,0,0,0-1.11,1,9.07,9.07,0,0,0-.66,2.64l-.31,2.17-.74.17.39-3.22q.51-4.35,4.47-5.28a3.55,3.55,0,0,1,2.82.26,3.31,3.31,0,0,1,1.35,2.09,6.59,6.59,0,0,1,.11,2.4l-1.28,12.87a3.72,3.72,0,0,0,0,1.19.73.73,0,0,0,1,.63,1.7,1.7,0,0,0,1-.94,8.18,8.18,0,0,0,.7-2.71l.26-2,.74-.18-.34,3.08q-.42,4.34-4.32,5.25c-2.36.55-3.79-.24-4.3-2.4a9.38,9.38,0,0,1-.11-3.1l1.19-12.07A5.83,5.83,0,0,0,758.3,617.41ZM758,605.68a4.33,4.33,0,0,1,2.59-1.6,3.34,3.34,0,0,1,2.27.14,2.28,2.28,0,0,1,1.18,1.6,3.35,3.35,0,0,1-.57,2.84,4.36,4.36,0,0,1-2.64,1.69,3.12,3.12,0,0,1-2.3-.18,2.22,2.22,0,0,1-1.1-1.69A3.33,3.33,0,0,1,758,605.68Z" transform="translate(-154.96 -44.77)"/><path d="M775.27,613.55a16.21,16.21,0,0,0-1.63,6.16,22.45,22.45,0,0,0,.53,7.17c.63,2.59,1.92,3.65,3.89,3.18s3.31-2,4.31-4.66l.86.12a12.72,12.72,0,0,1-2.66,4.59,8.74,8.74,0,0,1-4.57,2.66,6.68,6.68,0,0,1-4.89-.42,5.86,5.86,0,0,1-2.77-4.07,17.57,17.57,0,0,1,3.29-14.37,11.15,11.15,0,0,1,6.31-4,5.33,5.33,0,0,1,3.7.24,3.37,3.37,0,0,1,1.94,2.35,4.59,4.59,0,0,1,0,2.18,4.4,4.4,0,0,1-1,2,3.46,3.46,0,0,1-1.8,1.09,2.17,2.17,0,0,1-1.74-.24,2.28,2.28,0,0,1-1-1.48,4.11,4.11,0,0,1,.4-3,4.9,4.9,0,0,1,2.12-2.13,2.39,2.39,0,0,0-2-.33A5.18,5.18,0,0,0,775.27,613.55Z" transform="translate(-154.96 -44.77)"/><path d="M806.14,618.15l-.27,3.08c-.28,2.89-1.68,4.65-4.22,5.28-2.35.58-3.79-.17-4.31-2.27a9.3,9.3,0,0,1-.17-3.17l.87-11.34a6.66,6.66,0,0,0-.08-1.8c-.14-.57-.45-.79-1-.67-.72.18-1.41,1.07-2.08,2.66a31.55,31.55,0,0,0-1.7,6.19,69.56,69.56,0,0,0-1,8.16l-.13,3.49a.16.16,0,0,0,0,.12v.42l-5.47,1.36,1.28-27.81a4.37,4.37,0,0,0-.08-1.13,1.23,1.23,0,0,0-.88-1,4.46,4.46,0,0,0-2.12.16l0-.88a29.76,29.76,0,0,0,4.77-1.63,22.43,22.43,0,0,0,3.88-2.2l-.81,19.37a19.13,19.13,0,0,1,2.39-7.07,6.6,6.6,0,0,1,3.95-2.78,3.77,3.77,0,0,1,2.89.17,3.13,3.13,0,0,1,1.41,2.06,8.41,8.41,0,0,1,.14,2.89l-1,12.4a3.92,3.92,0,0,0,0,1.18.73.73,0,0,0,1,.62q1.28-.31,1.65-3.66l.24-2Z" transform="translate(-154.96 -44.77)"/><path d="M818,608.56a15.22,15.22,0,0,1,2.82-6.88,10.8,10.8,0,0,1,6.21-4.06,6.42,6.42,0,0,1,5.07.46,6.62,6.62,0,0,1,2.84,4.33,17.24,17.24,0,0,1,.24,7,15.22,15.22,0,0,1-2.82,6.88,10.74,10.74,0,0,1-6.21,4.06,6.43,6.43,0,0,1-5.07-.45,6.72,6.72,0,0,1-2.84-4.34A17.6,17.6,0,0,1,818,608.56Zm6.6-6.56a27.8,27.8,0,0,0-1.14,7.47,27.3,27.3,0,0,0,.74,7.74,4.91,4.91,0,0,0,.82,1.94,1.08,1.08,0,0,0,1.17.36c.95-.25,1.77-1.4,2.43-3.47a26.83,26.83,0,0,0,1.15-7.38,27.57,27.57,0,0,0-.76-7.83,5.14,5.14,0,0,0-.85-2,1.06,1.06,0,0,0-1.12-.36C826.09,598.69,825.28,599.87,824.61,602Z" transform="translate(-154.96 -44.77)"/><path d="M851.46,582a3.32,3.32,0,0,1,2.06,2.36,3.38,3.38,0,0,1-.42,2.59,3.55,3.55,0,0,1-2.27,1.7,2.86,2.86,0,0,1-2-.07,2,2,0,0,1-1.06-1.38,3.63,3.63,0,0,1,.22-2.49,5,5,0,0,1,1.78-2.08,1.35,1.35,0,0,0-.64-.22,2.26,2.26,0,0,0-.81.06,3.15,3.15,0,0,0-1.85,1.31,5,5,0,0,0-.69,2.28c-.1,1-.16,2.37-.17,4.14l0,3.19,4.15-1.07,0,.83-4.1,1.06L845.39,622a30.51,30.51,0,0,0-5.48,2l.25-28.37-3.25.84,0-.83,3.21-.83a26.8,26.8,0,0,1,.59-5.71,10.53,10.53,0,0,1,1.71-3.94,8.58,8.58,0,0,1,5-3.2A6.41,6.41,0,0,1,851.46,582Z" transform="translate(-154.96 -44.77)"/><path d="M309.9,775.27a38.35,38.35,0,0,1-6.82,10.86,24.45,24.45,0,0,1-9.73,6.87,14.33,14.33,0,0,1-10.89-.26q-5.93-2.47-6.76-7.59a17.38,17.38,0,0,1-12.59-.46c-3.21-1.33-5.32-3.21-6.31-5.62a9.5,9.5,0,0,1,.14-7.55,16.53,16.53,0,0,1,6.87-7.54,55.26,55.26,0,0,1,11.91-5.43q6.86-2.28,17.65-5a11,11,0,0,0-3.85-.25,37.31,37.31,0,0,0-4.39.83,25.85,25.85,0,0,1-3.53.75,5,5,0,0,1-2.56-.33,5.35,5.35,0,0,1-2.06-1.72,3.86,3.86,0,0,0-1.65-1.47,2.24,2.24,0,0,0-2,.13,9.33,9.33,0,0,0-2.4,2.22l-1.5,1.73-1.4-.59,3.88-4.73q3.09-3.68,5.56-4.6a6.06,6.06,0,0,1,4.62,0,5.63,5.63,0,0,1,1.54.9,12.06,12.06,0,0,1,1.47,1.48q.19.17.93.9a10,10,0,0,0,1.66,1.35,12.6,12.6,0,0,0,2,1,12.09,12.09,0,0,0,6.36.81l1.4-1.06,1.25,1.38a88.54,88.54,0,0,0-19.33,11q-8.36,6.41-11.19,13.22a8.3,8.3,0,0,0-.84,4.52,3.48,3.48,0,0,0,2.34,2.54,9.43,9.43,0,0,0,6,.23,13.26,13.26,0,0,1,1.17-5.34,20.8,20.8,0,0,1,5.45-7.56,22.36,22.36,0,0,1,7.56-4.6c2.6-.88,4.67-1,6.2-.37q2.82,1.17.79,6.06a21.51,21.51,0,0,1-4.83,7.12,24.53,24.53,0,0,1-7.71,5.06,6.53,6.53,0,0,0,4.21,5.75,8.76,8.76,0,0,0,7.52-.31,20.06,20.06,0,0,0,6.94-5.81,36.33,36.33,0,0,0,5-8.48c.45-1.09.75-1.89.91-2.41a27.16,27.16,0,0,1-5.3-6.81,8,8,0,0,1-.32-7.08,4.64,4.64,0,0,1,2.45-2.55,4.56,4.56,0,0,1,3.72.06q3.4,1.43,3.37,6a30.56,30.56,0,0,1-1.84,9.76C310.51,773.65,310.16,774.63,309.9,775.27Zm-17.51-6.84a18.37,18.37,0,0,0-3.78,3.87,24.85,24.85,0,0,0-3.16,5.51,15.07,15.07,0,0,0-1.18,4.72,23.89,23.89,0,0,0,6.47-4.7,19.73,19.73,0,0,0,4.28-6.31c1-2.32,1-3.66.19-4C294.56,767.25,293.63,767.55,292.39,768.43Z" transform="translate(-154.96 -44.77)"/><path d="M348.61,803.13l-3.92,4.79q-5.6,6.74-13,4-6.86-2.55-4.58-8.64a18.48,18.48,0,0,1,3.32-5.45L344.72,780a13.36,13.36,0,0,0,1.91-3.06q.62-1.65-.81-2.19-2.11-.78-6.46,2a63,63,0,0,0-9.83,8.33,139.35,139.35,0,0,0-10.88,12.4l-4.16,5.65a.33.33,0,0,0-.16.2l0-.08-.53.75-10.61-4,33.59-44.63a8.5,8.5,0,0,0,1.16-2,2.46,2.46,0,0,0-.35-2.61,8.92,8.92,0,0,0-3.7-2.15l1-1.41a62.27,62.27,0,0,0,9.76,2.69,47.06,47.06,0,0,0,8.92.75l-23.26,31.18q7-7.08,12-9a13.22,13.22,0,0,1,9.7-.15c2.35.87,3.88,2.06,4.59,3.55a6.28,6.28,0,0,1,0,5,17.05,17.05,0,0,1-3,4.94L338,805.75a7.84,7.84,0,0,0-1.26,2,1.46,1.46,0,0,0,.91,2.14q2.49.92,6.88-4.21l2.7-3.11Z" transform="translate(-154.96 -44.77)"/><path d="M370.37,785.1c.34-1,.06-1.68-.85-2a3.38,3.38,0,0,0-3,.54,18.28,18.28,0,0,0-3.93,3.78l-2.85,3.35-1.45-.5,4.12-5q5.49-6.86,13.24-4.19c2.33.8,3.83,2,4.5,3.46a6.6,6.6,0,0,1,.06,5,13.65,13.65,0,0,1-2.37,4.19l-16,20.49a7.49,7.49,0,0,0-1.21,2,1.45,1.45,0,0,0,1,2.12,3.46,3.46,0,0,0,2.76-.49,16.77,16.77,0,0,0,4.09-3.86l2.62-3.17,1.44.49-3.89,4.86q-5.34,6.92-12.94,4.29-6.9-2.38-4.73-8.68a18.75,18.75,0,0,1,3.12-5.38l14.95-19.22A12.11,12.11,0,0,0,370.37,785.1Zm12.13-20.19a8.78,8.78,0,0,1,6.1.06,6.58,6.58,0,0,1,3.7,2.67,4.53,4.53,0,0,1,.29,4,6.72,6.72,0,0,1-4,4.23,8.76,8.76,0,0,1-6.3,0,6.35,6.35,0,0,1-3.72-2.76,4.52,4.52,0,0,1,0-4.06A6.59,6.59,0,0,1,382.5,764.91Z" transform="translate(-154.96 -44.77)"/><path d="M402.63,796.2a33.15,33.15,0,0,0-9.21,8.85,44.58,44.58,0,0,0-6.57,12.86c-1.64,5.1-.52,8.26,3.35,9.51q5.51,1.77,12.26-3.49l1.33,1.1a25.61,25.61,0,0,1-9.35,5.1,17.65,17.65,0,0,1-10.61-.2q-5.58-1.8-7.95-5.84c-1.57-2.71-1.74-6-.5-9.87A35.31,35.31,0,0,1,396,793a22.48,22.48,0,0,1,15-.31,10.86,10.86,0,0,1,6.09,4.27A6.84,6.84,0,0,1,418,803a9.43,9.43,0,0,1-2.29,3.73,8.79,8.79,0,0,1-3.79,2.33,6.88,6.88,0,0,1-4.21,0,4.5,4.5,0,0,1-2.75-2.23,4.61,4.61,0,0,1-.19-3.61,8.26,8.26,0,0,1,3.77-4.65,10,10,0,0,1,5.87-1.45,4.78,4.78,0,0,0-3.18-2.7C408.75,793.65,405.88,794.24,402.63,796.2Z" transform="translate(-154.96 -44.77)"/><path d="M450.49,835.37l-3.57,5.07q-5.1,7.13-12.65,4.92-7-2-5.19-8.29A18.66,18.66,0,0,1,432,831.4l12.94-18.81a12.92,12.92,0,0,0,1.68-3.19c.33-1.13,0-1.84-1-2.12-1.44-.42-3.54.41-6.29,2.51a62.44,62.44,0,0,0-9.2,9A138.18,138.18,0,0,0,420.2,832l-3.74,5.93a.33.33,0,0,0-.14.21l0-.08-.48.78L405,835.64l30.27-46.95a8.87,8.87,0,0,0,1-2.05,2.47,2.47,0,0,0-.55-2.58,8.91,8.91,0,0,0-3.84-1.88l.94-1.48a62.12,62.12,0,0,0,9.91,2,47.2,47.2,0,0,0,9,.1l-20.95,32.78q6.48-7.56,11.28-9.84a13.23,13.23,0,0,1,9.66-.86c2.41.71,4,1.78,4.84,3.21a6.3,6.3,0,0,1,.37,5,17.07,17.07,0,0,1-2.67,5.15l-14.19,20.53a8,8,0,0,0-1.12,2.11,1.45,1.45,0,0,0,1.07,2.06q2.55.75,6.56-4.69L449,835Z" transform="translate(-154.96 -44.77)"/><path d="M479.68,829.91a30.44,30.44,0,0,1,11.55-9.44,21.53,21.53,0,0,1,14.83-1.27q6.07,1.53,8.53,5.65t.88,10.36a35.2,35.2,0,0,1-6.24,12.59,30.45,30.45,0,0,1-11.55,9.45,21.61,21.61,0,0,1-14.84,1.26q-6.07-1.51-8.52-5.65t-.89-10.36A35.56,35.56,0,0,1,479.68,829.91Zm17.91-5.29a57,57,0,0,0-9.15,12.12,55.66,55.66,0,0,0-6.07,14.37,10.19,10.19,0,0,0-.39,4.2,2.2,2.2,0,0,0,1.72,1.76q2.88.72,7.61-3.81a54.29,54.29,0,0,0,9.06-11.93,55.5,55.5,0,0,0,6.12-14.57,10.29,10.29,0,0,0,.44-4.4,2.09,2.09,0,0,0-1.64-1.69Q502.4,820,497.59,824.62Z" transform="translate(-154.96 -44.77)"/><path d="M563,813.91a6.79,6.79,0,0,1-1.66,10.33,7.06,7.06,0,0,1-5.61.94,5.81,5.81,0,0,1-3.43-1.93,3.94,3.94,0,0,1-.61-3.44,7.31,7.31,0,0,1,2.7-4.24,10.13,10.13,0,0,1,5.08-2.05,2.66,2.66,0,0,0-.93-1,4.41,4.41,0,0,0-1.5-.63,6.29,6.29,0,0,0-4.51.62,10.08,10.08,0,0,0-3.33,3.44q-1.65,2.5-4.12,7.21l-3,5.65,8.37,1.91-.82,1.46-8.3-1.89-26.09,49.3a59.89,59.89,0,0,0-11.6-1.49l26.65-50.33-6.57-1.5.82-1.46,6.5,1.48a54.08,54.08,0,0,1,6.32-9.63,21.37,21.37,0,0,1,6.67-5.44,17.29,17.29,0,0,1,11.86-1.08C559.14,810.88,561.51,812.14,563,813.91Z" transform="translate(-154.96 -44.77)"/><path d="M571.14,870.39a5.43,5.43,0,0,0-.56,1.53,2.37,2.37,0,0,0,.28,1.89,2.49,2.49,0,0,0,1.61.94,4.77,4.77,0,0,0,3.69-1,15.1,15.1,0,0,0,3.89-4.5l1.83-3,1.49.3-2.49,4.25q-4.92,8.67-13.67,6.92-4-.8-5.6-3.29a8.06,8.06,0,0,1-.87-6.11,17.37,17.37,0,0,1,1.66-4.58l13.5-26.12-7.08-1.42.71-1.5,7.16,1.44,5.74-11a59.26,59.26,0,0,0,11.63,1.18l-6.27,12.09,8.9,1.78-.55,1.53L587,839.83Z" transform="translate(-154.96 -44.77)"/><path d="M628.2,874.76l-3,5.42q-4.32,7.62-12.06,6.23-7.18-1.29-6-7.7a18.71,18.71,0,0,1,2.3-6l10.87-20.07a13.4,13.4,0,0,0,1.34-3.35c.21-1.15-.19-1.82-1.19-2-1.48-.27-3.48.79-6,3.16a62.67,62.67,0,0,0-8.19,10,138.54,138.54,0,0,0-8.5,14.13l-3.09,6.3a.31.31,0,0,0-.12.22V881l-.39.83-11.14-2L608.12,830a8.92,8.92,0,0,0,.79-2.14,2.48,2.48,0,0,0-.81-2.51,8.92,8.92,0,0,0-4-1.46l.77-1.58a61.39,61.39,0,0,0,10.08.92,47.46,47.46,0,0,0,8.92-.84l-17.36,34.81q5.63-8.21,10.17-11a13.27,13.27,0,0,1,9.52-1.88c2.47.45,4.19,1.34,5.14,2.68a6.27,6.27,0,0,1,.91,4.94,16.85,16.85,0,0,1-2.12,5.41l-11.93,21.92a7.6,7.6,0,0,0-.89,2.21,1.46,1.46,0,0,0,1.28,1.94q2.61.47,6-5.36l2.11-3.54Z" transform="translate(-154.96 -44.77)"/><path d="M662.75,868.46a59.72,59.72,0,0,1-18.33,4.91,31.26,31.26,0,0,0-1.33,5.31c-.44,2.81-.24,4.87.61,6.2a5.81,5.81,0,0,0,4.28,2.46,12.75,12.75,0,0,0,5.8-.67,20.17,20.17,0,0,0,6.81-4l1.16.84a25.36,25.36,0,0,1-8.84,6.32,19.58,19.58,0,0,1-11.23,1.39,13.54,13.54,0,0,1-8.5-4.35,10.29,10.29,0,0,1-2.19-8.8,32.7,32.7,0,0,1,6.12-14,35.8,35.8,0,0,1,12.36-10.85,23.74,23.74,0,0,1,15.22-2.67,10.15,10.15,0,0,1,5.69,2.57,5.39,5.39,0,0,1,1.56,5Q670.91,864.71,662.75,868.46ZM657,854.21a34.9,34.9,0,0,0-6.73,7.6,49.84,49.84,0,0,0-5.34,10.09,31.85,31.85,0,0,0,9.57-3.94,22.06,22.06,0,0,0,6-5.75,17.82,17.82,0,0,0,3.07-7.6,4.67,4.67,0,0,0,0-2.11,1,1,0,0,0-.87-.71C661.17,851.55,659.25,852.36,657,854.21Z" transform="translate(-154.96 -44.77)"/><path d="M744,847a6.82,6.82,0,0,1-3.14,4.74,8.75,8.75,0,0,1-6,1.23,6.55,6.55,0,0,1-4.14-1.82,4.29,4.29,0,0,1-1.08-3.62,7,7,0,0,1,2.06-4.39A7.38,7.38,0,0,1,736,841.2l-1-.13a17.17,17.17,0,0,0-9.87,1.26,13.11,13.11,0,0,0-5.05,4.41,43.09,43.09,0,0,0-4.35,8.48l-1.41,3.46,11.55,1.46a63.77,63.77,0,0,0,11.7.27l-14.94,34.21a7.86,7.86,0,0,0-.77,2.25c-.14,1.11.29,1.73,1.3,1.86a3.41,3.41,0,0,0,2.65-1,17.24,17.24,0,0,0,3.17-4.62l2-3.63,1.51.19-2.81,5.55a11.59,11.59,0,0,1-5.37,5.72,12.14,12.14,0,0,1-6.66,1.1c-2.33-.3-4-1.1-5-2.41a6.91,6.91,0,0,1-1-5.15,19.41,19.41,0,0,1,1.79-5.85l11.75-26.91-11.55-1.47-21.34,51.52a60.07,60.07,0,0,0-11.69-.34l21.88-52.59-6.85-.87.68-1.53,6.85.87a37.33,37.33,0,0,1,5.49-9.54,20.09,20.09,0,0,1,7-5.55,27.14,27.14,0,0,1,9-2.58,44.37,44.37,0,0,1,10.49.19c3.67.47,6.25,1.55,7.77,3.25A3.92,3.92,0,0,1,744,847Z" transform="translate(-154.96 -44.77)"/><path d="M779.6,862.69a5.12,5.12,0,0,1,.95,3.89,4.88,4.88,0,0,1-1.48,3.28,3.45,3.45,0,0,1-2.76.95,3.74,3.74,0,0,1-2.66-1.53,4.67,4.67,0,0,1-.84-3.52,10.73,10.73,0,0,1,1.09-3.44,11.73,11.73,0,0,0-5.17,3.09,7.51,7.51,0,0,1,2.88,3.25,8.69,8.69,0,0,1,.64,4.63,13.52,13.52,0,0,1-2.59,6.47,17.92,17.92,0,0,1-5.92,5.18,20.3,20.3,0,0,1-8.34,2.46,63.37,63.37,0,0,0-6.76,2.51c-1.39.66-2.13,1.36-2.21,2.11a1.48,1.48,0,0,0,.75,1.33,13.74,13.74,0,0,0,2.6,1.37l6.47,2.95a23.38,23.38,0,0,1,6.31,4,6.33,6.33,0,0,1,1.87,5.57,9.81,9.81,0,0,1-4.06,6.71,23.54,23.54,0,0,1-9.45,4.2,37.14,37.14,0,0,1-12.26.63,27.8,27.8,0,0,1-10.2-2.78q-4-2.12-3.69-4.83c.2-1.86,1.86-3.29,5-4.27a34.92,34.92,0,0,1,10.41-1.52l.2,1.23c-3.5,1.46-5.37,3.39-5.63,5.78a3.92,3.92,0,0,0,1.32,3.57,8.05,8.05,0,0,0,4.51,1.65,18.48,18.48,0,0,0,6.31-.49,16.12,16.12,0,0,0,5.72-2.54,5.69,5.69,0,0,0,2.6-4,2.09,2.09,0,0,0-.72-2,12.75,12.75,0,0,0-3.1-1.58l-11-4.48a8.07,8.07,0,0,1-3.26-2.33,4.37,4.37,0,0,1-1-3.37q.3-2.88,4-5a59,59,0,0,1,11.5-4.51l-.8-.08a15.32,15.32,0,0,1-8.42-3.16,7.59,7.59,0,0,1-2.6-7.06,14.33,14.33,0,0,1,3.06-7.18,18.1,18.1,0,0,1,7.42-5.55A21.47,21.47,0,0,1,761.15,863a21.77,21.77,0,0,1,6.14,1.54,11.28,11.28,0,0,1,4-2.84,9.13,9.13,0,0,1,4.64-.76A5.24,5.24,0,0,1,779.6,862.69Zm-21.2,18.53a35.41,35.41,0,0,0,3.18-11.65,10.64,10.64,0,0,0-.12-3.77,2,2,0,0,0-1.9-1.53q-2.31-.25-4.33,2.36a21.45,21.45,0,0,0-3.29,6.64,39.13,39.13,0,0,0-1.67,7.77,7.59,7.59,0,0,0,.25,3.7,2.09,2.09,0,0,0,1.8,1.28C754.72,886.28,756.74,884.68,758.4,881.22Z" transform="translate(-154.96 -44.77)"/><path d="M780.54,907.12a6.66,6.66,0,0,0,5-1.4,6.87,6.87,0,0,0,2.3-4.87,13.82,13.82,0,0,0-.65-5.38,37.66,37.66,0,0,0-2.8-6.46l-1.62-3a21.56,21.56,0,0,1-1.9-4.81,13.2,13.2,0,0,1-.37-4.43,10.63,10.63,0,0,1,4.65-8.12q4.17-2.93,11-2.32a18.32,18.32,0,0,1,8.51,2.67c2.2,1.46,3.17,3.71,2.89,6.75a6.94,6.94,0,0,1-1.65,4,4.17,4.17,0,0,1-3.76,1.52,3.93,3.93,0,0,1-3.06-1.81,6,6,0,0,1-.85-4,9.6,9.6,0,0,1,1-3.65,10.83,10.83,0,0,1,2-2.76,5.31,5.31,0,0,0-2.74-.9,5.81,5.81,0,0,0-4.68,1.4,7.48,7.48,0,0,0-2.17,4.84,8.9,8.9,0,0,0,.49,4,54,54,0,0,0,2.39,5.22l1,1.78a51.13,51.13,0,0,1,3,7.28,14.72,14.72,0,0,1,.58,5.54,11.12,11.12,0,0,1-2.4,6.11,12.58,12.58,0,0,1-5.63,3.88A21.09,21.09,0,0,1,773.79,906q-3.57-2.54-3.12-7.42a6.81,6.81,0,0,1,1.57-4,3.84,3.84,0,0,1,3.43-1.39,3.91,3.91,0,0,1,3.16,2.06,7.66,7.66,0,0,1,.83,4.59A11.29,11.29,0,0,1,779,903c-.36.91-.86,2-1.51,3.29A7.42,7.42,0,0,0,780.54,907.12Z" transform="translate(-154.96 -44.77)"/><path d="M264.74,886.27a2.44,2.44,0,0,0,.2,2.74,13.78,13.78,0,0,0,4,2.56l-1,1.47q-4.56-2.22-13-5.83t-12.72-5.14l1.08-1.43a18.62,18.62,0,0,0,4.5,1.16,4.6,4.6,0,0,0,3.05-.93,19.74,19.74,0,0,0,3.52-3.68L282,841.84a21.56,21.56,0,0,0,2.29-3.58,2.53,2.53,0,0,0-.18-2.83,13.35,13.35,0,0,0-3.91-2.52l1.09-1.44q3.84,1.92,12.52,5.62,8,3.4,13.28,5.38L306,843.91a18.46,18.46,0,0,0-4.65-1.22,4.55,4.55,0,0,0-3,.88,19.28,19.28,0,0,0-3.53,3.72l-27.61,35.35A24.9,24.9,0,0,0,264.74,886.27Z" transform="translate(-154.96 -44.77)"/><path d="M359.67,898.85a41.85,41.85,0,0,1-7,12.1,26.58,26.58,0,0,1-10.29,7.87,15.63,15.63,0,0,1-11.85.17q-6.56-2.43-7.67-8a19,19,0,0,1-13.71,0q-5.32-2-7.1-5.85a10.36,10.36,0,0,1-.17-8.22,18,18,0,0,1,7.16-8.48,60,60,0,0,1,12.73-6.41q7.37-2.76,19-6.19a11.69,11.69,0,0,0-4.2-.11,41.17,41.17,0,0,0-4.74,1.08,28.8,28.8,0,0,1-3.8,1,5.47,5.47,0,0,1-2.8-.24,5.88,5.88,0,0,1-2.32-1.8,4.26,4.26,0,0,0-1.85-1.52,2.38,2.38,0,0,0-2.14.23,9.9,9.9,0,0,0-2.52,2.51L314.86,879l-1.55-.58,4-5.31q3.21-4.12,5.86-5.23a6.62,6.62,0,0,1,5-.23,6.3,6.3,0,0,1,1.71.91,13.07,13.07,0,0,1,1.66,1.55c.15.12.5.43,1.05,1a11.86,11.86,0,0,0,1.86,1.39,13.65,13.65,0,0,0,2.18,1,13.1,13.1,0,0,0,6.94.62l1.48-1.22,1.42,1.46A96.14,96.14,0,0,0,326,887.12q-8.82,7.3-11.62,14.84a9,9,0,0,0-.72,5,3.82,3.82,0,0,0,2.65,2.66,10.21,10.21,0,0,0,6.52,0,14.63,14.63,0,0,1,1.06-5.86,22.68,22.68,0,0,1,5.61-8.45,24.21,24.21,0,0,1,8-5.31q4.18-1.62,6.73-.67c2.07.77,2.44,3,1.1,6.56a23.45,23.45,0,0,1-4.95,7.95,26.94,26.94,0,0,1-8.18,5.82A7.13,7.13,0,0,0,337,915.7a9.6,9.6,0,0,0,8.16-.65,21.88,21.88,0,0,0,7.31-6.61,39.05,39.05,0,0,0,5.08-9.44c.45-1.2.75-2.08.9-2.65a29.67,29.67,0,0,1-6-7.19,8.65,8.65,0,0,1-.64-7.69,5,5,0,0,1,2.56-2.87,4.92,4.92,0,0,1,4-.09c2.51.93,3.81,3.07,3.91,6.4a33.13,33.13,0,0,1-1.59,10.68C360.27,897.06,359.93,898.14,359.67,898.85Zm-19.32-6.71a19.76,19.76,0,0,0-4,4.36,26.93,26.93,0,0,0-3.21,6.13,16.28,16.28,0,0,0-1.08,5.19,26.2,26.2,0,0,0,6.84-5.39,21.68,21.68,0,0,0,4.39-7q1.43-3.85,0-4.37C342.66,890.76,341.65,891.14,340.35,892.14Z" transform="translate(-154.96 -44.77)"/><path d="M366.76,900.86a33.18,33.18,0,0,1,13.33-9.28,23.47,23.47,0,0,1,16.2-.12q6.46,2.16,8.77,6.84t.09,11.32a38.23,38.23,0,0,1-7.84,13.13A33.08,33.08,0,0,1,384,932a23.47,23.47,0,0,1-16.2.12q-6.46-2.16-8.77-6.84t-.1-11.32A38.54,38.54,0,0,1,366.76,900.86Zm19.89-4.24A61.53,61.53,0,0,0,375.7,909a60.06,60.06,0,0,0-7.8,15.08,10.82,10.82,0,0,0-.77,4.53,2.34,2.34,0,0,0,1.71,2q3.06,1,8.58-3.49A59,59,0,0,0,388.25,915a60.21,60.21,0,0,0,7.87-15.3A11.45,11.45,0,0,0,397,895a2.31,2.31,0,0,0-1.65-2Q392.26,892,386.65,896.62Z" transform="translate(-154.96 -44.77)"/><path d="M446.18,940.42l1.58.48-4.17,5.68a13.17,13.17,0,0,1-6.55,5.23,12.15,12.15,0,0,1-7.26,0,9.49,9.49,0,0,1-3.62-1.92,5.26,5.26,0,0,1-1.71-2.79,7.86,7.86,0,0,1,.28-3.66,27,27,0,0,1,2.47-5.19l4.86-7.93a74.91,74.91,0,0,1-10,10.41,20.94,20.94,0,0,1-8,4.39,14.15,14.15,0,0,1-7.48-.29q-3.76-1.14-5.12-3.46a7,7,0,0,1-.35-5.67,18.89,18.89,0,0,1,2.83-5.45L419.52,908a8.24,8.24,0,0,0,1.23-2.27c.35-1.17,0-1.92-1.06-2.24a3.87,3.87,0,0,0-3.06.63,16.81,16.81,0,0,0-4.2,4.4l-2.71,3.56-1.59-.48,3.93-5.48q5.61-7.71,13.8-5.24,7.62,2.29,5.53,9.24a22.89,22.89,0,0,1-3.09,6L414,936.47a12.57,12.57,0,0,0-1.84,3.37c-.39,1.28-.05,2.08,1,2.4,1.67.5,4.15-.54,7.43-3.15a77.71,77.71,0,0,0,10.84-11,157.4,157.4,0,0,0,11.43-15.68l2.67-4.31A69.27,69.27,0,0,0,458,910.58l-21.7,34.16a11.42,11.42,0,0,0-1.33,2.61,1.31,1.31,0,0,0,1,1.85,3.79,3.79,0,0,0,3.3-.65,18,18,0,0,0,4.05-4.34Z" transform="translate(-154.96 -44.77)"/><path d="M459.86,953.69c-.39,1.4,0,2.27,1.19,2.59q2.59.72,6.89-5.25l2.63-3.63,1.6.45-3.8,5.56q-2.91,4.27-6.49,5.42a12.23,12.23,0,0,1-7.11.16q-3.79-1.05-5.18-3.57a7.78,7.78,0,0,1-.41-6,20.91,20.91,0,0,1,2.64-5.61l25.39-40.3a10.24,10.24,0,0,0,1.07-2.25,2.71,2.71,0,0,0-.63-2.8,9.66,9.66,0,0,0-4.21-2l1.08-1.61a66.56,66.56,0,0,0,10.7,2,54.26,54.26,0,0,0,9.79,0l-34.23,54.9A7.23,7.23,0,0,0,459.86,953.69Z" transform="translate(-154.96 -44.77)"/><path d="M519,959.93l1.61.41L517,966q-2.75,4.44-6.25,5.62a12.31,12.31,0,0,1-7.14.26q-5.25-1.33-5.7-5.59a8.93,8.93,0,0,1,.22-3.73,23.49,23.49,0,0,1,2.55-5.76l.17-.31q-5.06,6.38-9.49,8.77a12.7,12.7,0,0,1-9.43,1.12,9.86,9.86,0,0,1-6.53-4.82q-2-3.66-.54-9.6a38.58,38.58,0,0,1,7.35-14,40,40,0,0,1,13.48-11.19,22.34,22.34,0,0,1,16.08-1.91c2.66.68,4.13,2.07,4.44,4.19l7.46-13.43a9.19,9.19,0,0,0,1-2.26,2.69,2.69,0,0,0-.69-2.79,9.73,9.73,0,0,0-4.25-1.89l1-1.65a69.8,69.8,0,0,0,10.86,1.77,51.17,51.17,0,0,0,9.84-.21L509.5,964.48a6.87,6.87,0,0,0-1,2.18c-.33,1.3,0,2.08,1.11,2.35a3.59,3.59,0,0,0,2.92-.83,18.73,18.73,0,0,0,4-4.55Zm-3.9-29c-.12-2.14-1-3.41-2.64-3.83q-3.63-.92-8.9,3.29a47.19,47.19,0,0,0-9.95,11.49,51.19,51.19,0,0,0-6.67,15.07,11.92,11.92,0,0,0-.48,4.57,2.22,2.22,0,0,0,1.71,2c1.13.28,2.67-.21,4.61-1.49a36.32,36.32,0,0,0,6.63-6,69.44,69.44,0,0,0,7.39-10.11Z" transform="translate(-154.96 -44.77)"/><path d="M572.87,945.66a35.7,35.7,0,0,0-9,10.56,48.63,48.63,0,0,0-5.75,14.62q-1.85,8.55,4.64,9.95,6.15,1.32,12.9-5.08l1.56,1a27.83,27.83,0,0,1-9.58,6.51,19.15,19.15,0,0,1-11.51.91q-6.24-1.35-9.23-5.48t-1.59-10.62a38.36,38.36,0,0,1,20.1-25.16A24.44,24.44,0,0,1,581.61,941a11.76,11.76,0,0,1,7,4,7.46,7.46,0,0,1,1.6,6.47,10.19,10.19,0,0,1-2.09,4.28,9.63,9.63,0,0,1-3.85,2.93,7.58,7.58,0,0,1-4.57.44,4.83,4.83,0,0,1-3.2-2.12,5,5,0,0,1-.59-3.89,8.85,8.85,0,0,1,3.59-5.43,10.63,10.63,0,0,1,6.19-2.19,5.21,5.21,0,0,0-3.73-2.6Q577.83,942,572.87,945.66Z" transform="translate(-154.96 -44.77)"/><path d="M628.93,983.19,625.57,989q-4.79,8.25-13.2,6.63-7.8-1.51-6.46-8.46a20.11,20.11,0,0,1,2.57-6.44l12.1-21.7a13.88,13.88,0,0,0,1.5-3.63c.24-1.25-.18-2-1.26-2.2-1.61-.31-3.8.82-6.57,3.37a68.47,68.47,0,0,0-9,10.71,150.67,150.67,0,0,0-9.44,15.27l-3.45,6.81a.35.35,0,0,0-.13.24l0-.09-.44.9-12.1-2.33,28-54a9.7,9.7,0,0,0,.89-2.32,2.71,2.71,0,0,0-.84-2.75,9.89,9.89,0,0,0-4.36-1.64l.86-1.7a67.07,67.07,0,0,0,10.95,1.13,51.64,51.64,0,0,0,9.72-.79l-19.36,37.65q6.26-8.87,11.22-11.81A14.43,14.43,0,0,1,627.13,950c2.69.52,4.55,1.51,5.57,3a6.8,6.8,0,0,1,.92,5.38,18.54,18.54,0,0,1-2.38,5.86L618,987.93a8.81,8.81,0,0,0-1,2.39,1.59,1.59,0,0,0,1.37,2.13q2.83.56,6.63-5.75l2.34-3.82Z" transform="translate(-154.96 -44.77)"/><path d="M638.73,970.73a33.15,33.15,0,0,1,11.73-11.22,23.47,23.47,0,0,1,16-2.62q6.72,1.14,9.72,5.41T678,973.46a38.32,38.32,0,0,1-5.72,14.19,33.07,33.07,0,0,1-11.73,11.22,23.43,23.43,0,0,1-16,2.62q-6.72-1.14-9.72-5.41T633,984.92A38.49,38.49,0,0,1,638.73,970.73Zm19-7.25a62,62,0,0,0-8.91,13.91,60.24,60.24,0,0,0-5.37,16.11,10.75,10.75,0,0,0-.07,4.6,2.35,2.35,0,0,0,2,1.75q3.18.54,7.93-4.77a59,59,0,0,0,8.83-13.71,60.25,60.25,0,0,0,5.42-16.32,11.3,11.3,0,0,0,.1-4.81,2.31,2.31,0,0,0-1.93-1.7Q662.55,958,657.72,963.48Z" transform="translate(-154.96 -44.77)"/><path d="M683.43,978.19a33.23,33.23,0,0,1,11.5-11.47,23.46,23.46,0,0,1,15.93-3q6.75,1,9.83,5.2t2.08,11.12a38.43,38.43,0,0,1-5.42,14.31,33.29,33.29,0,0,1-11.49,11.47,23.5,23.5,0,0,1-15.94,3q-6.74-1-9.83-5.2T678,992.5A38.47,38.47,0,0,1,683.43,978.19Zm18.84-7.65a61.41,61.41,0,0,0-8.61,14.1,60.61,60.61,0,0,0-5,16.22,10.86,10.86,0,0,0,0,4.6,2.37,2.37,0,0,0,2.05,1.71q3.19.47,7.83-4.94a59.31,59.31,0,0,0,8.54-13.89,60.46,60.46,0,0,0,5.07-16.43,11.39,11.39,0,0,0,0-4.82,2.33,2.33,0,0,0-2-1.66Q707,965,702.27,970.54Z" transform="translate(-154.96 -44.77)"/><path d="M730.4,1012.7a7.2,7.2,0,0,0,5.54-1.32,7.43,7.43,0,0,0,2.7-5.2,15,15,0,0,0-.48-5.88,42.57,42.57,0,0,0-2.78-7.14c-.19-.37-.73-1.5-1.64-3.38a23.17,23.17,0,0,1-1.87-5.3,14.4,14.4,0,0,1-.22-4.83A11.56,11.56,0,0,1,737,971q4.65-3,12-2.07a19.84,19.84,0,0,1,9.14,3.25c2.34,1.68,3.3,4.16,2.88,7.46a7.61,7.61,0,0,1-2,4.24,4.49,4.49,0,0,1-4.15,1.49,4.22,4.22,0,0,1-3.26-2.09A6.57,6.57,0,0,1,751,979a10.36,10.36,0,0,1,1.29-3.93,11.66,11.66,0,0,1,2.32-2.91,5.91,5.91,0,0,0-2.95-1.09,6.38,6.38,0,0,0-5.14,1.32,8.09,8.09,0,0,0-2.56,5.18,9.84,9.84,0,0,0,.36,4.36,57.72,57.72,0,0,0,2.39,5.77l1,2a55.26,55.26,0,0,1,3,8,15.77,15.77,0,0,1,.41,6,12.1,12.1,0,0,1-2.86,6.55,13.7,13.7,0,0,1-6.29,4,22.89,22.89,0,0,1-18.76-3.07q-3.76-2.91-3.09-8.19a7.4,7.4,0,0,1,1.87-4.26,4.39,4.39,0,0,1,7.13,1,8.17,8.17,0,0,1,.72,5,12.3,12.3,0,0,1-.87,3.37c-.42,1-1,2.15-1.77,3.52A8.17,8.17,0,0,0,730.4,1012.7Z" transform="translate(-154.96 -44.77)"/><path d="M792.23,993.69a64.89,64.89,0,0,1-19.69,6.24,33.89,33.89,0,0,0-1.18,5.85c-.34,3.06,0,5.3,1,6.7a6.36,6.36,0,0,0,4.78,2.47,13.94,13.94,0,0,0,6.27-1,22,22,0,0,0,7.2-4.69l1.31.85a27.43,27.43,0,0,1-9.3,7.31,21.38,21.38,0,0,1-12.14,2.08,14.88,14.88,0,0,1-9.46-4.31q-3.47-3.64-2.81-9.46a35.54,35.54,0,0,1,6-15.51A39,39,0,0,1,777,977.79a25.85,25.85,0,0,1,16.41-3.66,11.09,11.09,0,0,1,6.31,2.51,5.86,5.86,0,0,1,2,5.36Q800.92,989.2,792.23,993.69Zm-7-15.2a38.09,38.09,0,0,0-6.93,8.58,54.3,54.3,0,0,0-5.3,11.24,34.71,34.71,0,0,0,10.2-4.75,23.83,23.83,0,0,0,6.27-6.56,19.28,19.28,0,0,0,3-8.41,5.24,5.24,0,0,0-.09-2.3,1.14,1.14,0,0,0-1-.72Q788.83,975.29,785.22,978.49Z" transform="translate(-154.96 -44.77)"/><path d="M800.52,1011.58a8.39,8.39,0,0,1,6.23-1.76,6.37,6.37,0,0,1,4.22,1.82,5,5,0,0,1,1.18,4.07,7.68,7.68,0,0,1-3.12,5.35,8.34,8.34,0,0,1-6.2,1.9,6.23,6.23,0,0,1-4.17-1.81,5,5,0,0,1-1.14-4A7.77,7.77,0,0,1,800.52,1011.58Z" transform="translate(-154.96 -44.77)"/><path d="M877.92,507c-5-.89-9.85-.45-14,2.71-.8.61-1.56,1.25-2.32,1.9l-1,.8c-.54.45.15-.09-.2.16l-.43.31c-.35.24-.7.47-1.07.68-.21.12-.43.23-.65.34s-.48.18-.09,0c-.44.15-.87.3-1.32.41l-.83.16c.6-.1-.35,0-.46,0a2.55,2.55,0,0,0-2.5,2.5,2.53,2.53,0,0,0,2.5,2.5,13.37,13.37,0,0,0,6.19-1.85,36.77,36.77,0,0,0,4.32-3.36l.42-.35c.54-.45-.13.07.21-.17s.71-.51,1.07-.74.78-.45,1.18-.66c.07,0,.69-.3.13-.08.25-.1.51-.2.78-.28a11,11,0,0,1,1.5-.38c.1,0,.77-.11.28,0,.34,0,.68-.06,1-.08a18.07,18.07,0,0,1,3.9.29,2.57,2.57,0,0,0,3.07-1.75,2.53,2.53,0,0,0-1.75-3.08Z" transform="translate(-154.96 -44.77)"/></svg>