<svg id="Layer_1" data-name="Layer 1" xmlns="http://www.w3.org/2000/svg" viewBox="0 0 354.55 62.39"><defs><style>.cls-1{fill:none;stroke:#fff;stroke-miterlimit:10;stroke-width:6px;}.cls-2{fill:#fff;}</style></defs><title>contacthover</title><line class="cls-1" y1="59.39" x2="354.55" y2="59.39"/><text y="0.13"/><path class="cls-2" d="M25.44,0c12,0,21.1,6.77,24,17.72H35.88A11.12,11.12,0,0,0,25.3,11.25c-7.56,0-12.75,5.61-12.75,14.54S17.74,40.34,25.3,40.34a11.12,11.12,0,0,0,10.58-6.48H49.42c-2.88,10.94-12,17.64-24,17.64C10.54,51.5,0,40.91,0,25.79S10.54,0,25.44,0Z" transform="translate(0 0.13)"/><path class="cls-2" d="M80.88,51.64c-14.33,0-26-10.73-26-25.92S66.55-.13,80.88-.13s25.85,10.66,25.85,25.85S95.21,51.64,80.88,51.64Zm0-11.23c8.07,0,13.32-5.83,13.32-14.69S89,11,80.88,11,67.49,16.72,67.49,25.72,72.67,40.41,80.88,40.41Z" transform="translate(0 0.13)"/><path class="cls-2" d="M158.79.59V51.14H146.47L125.88,20V51.14H113.57V.59h12.31l20.59,31.32V.59Z" transform="translate(0 0.13)"/><path class="cls-2" d="M165,.59h39.1v9.86h-13.4V51.14H178.37V10.45H165Z" transform="translate(0 0.13)"/><path class="cls-2" d="M241.73,42.21H222.86l-3,8.93H207L225.24.59H239.5l18.29,50.55h-13Zm-9.43-28-6.2,18.5h12.46Z" transform="translate(0 0.13)"/><path class="cls-2" d="M286.66,0c12,0,21.09,6.77,24,17.72H297.1a11.15,11.15,0,0,0-10.59-6.48c-7.56,0-12.74,5.61-12.74,14.54S279,40.34,286.51,40.34a11.15,11.15,0,0,0,10.59-6.48h13.53c-2.88,10.94-11.95,17.64-24,17.64-14.91,0-25.42-10.59-25.42-25.71S271.75,0,286.66,0Z" transform="translate(0 0.13)"/><path class="cls-2" d="M315.46.59h39.09v9.86H341.16V51.14H328.85V10.45H315.46Z" transform="translate(0 0.13)"/></svg>