<svg id="Layer_1" data-name="Layer 1" xmlns="http://www.w3.org/2000/svg" viewBox="0 0 397.61 63.1"><defs><style>.cls-1,.cls-2{fill:#8d87c1;}.cls-2,.cls-3{stroke:#8d87c1;stroke-miterlimit:10;stroke-width:6px;}.cls-3{fill:none;}</style></defs><title>portfolio</title><path class="cls-1" d="M22.16,35.13H14.53V53.28H2.21V2.73h20c12.39,0,18.58,7,18.58,16.27C40.74,27.36,35.05,35.13,22.16,35.13Zm-.94-9.79c4.9,0,7-2.45,7-6.34s-2.09-6.33-7-6.33H14.53V25.34Z" transform="translate(0 -2.01)"/><path class="cls-1" d="M71.05,53.78c-14.33,0-26-10.73-26-25.92S56.72,2,71.05,2,96.9,12.67,96.9,27.86,85.38,53.78,71.05,53.78Zm0-11.23c8.06,0,13.32-5.83,13.32-14.69S79.11,13.17,71.05,13.17,57.66,18.86,57.66,27.86,62.84,42.55,71.05,42.55Z" transform="translate(0 -2.01)"/><path class="cls-1" d="M124.4,2.73C136.79,2.73,143,9.86,143,18.64,143,25,139.52,31,131.74,33.26l11.67,20h-13.9L119,34.2h-3V53.28H103.73V2.73ZM123.68,13h-7.63V25.48h7.63c4.61,0,6.77-2.37,6.77-6.33C130.45,15.4,128.29,13,123.68,13Z" transform="translate(0 -2.01)"/><path class="cls-1" d="M147.94,2.73H187V12.6H173.65V53.28H161.33V12.6H147.94Z" transform="translate(0 -2.01)"/><path class="cls-1" d="M193.23,2.73h32.9V12.6H205.54V23.25H221v9.58H205.54V53.28H193.23Z" transform="translate(0 -2.01)"/><path class="cls-1" d="M256.52,53.78c-14.33,0-26-10.73-26-25.92S242.19,2,256.52,2s25.85,10.66,25.85,25.85S270.85,53.78,256.52,53.78Zm0-11.23c8.06,0,13.32-5.83,13.32-14.69s-5.26-14.69-13.32-14.69-13.4,5.69-13.4,14.69S248.31,42.55,256.52,42.55Z" transform="translate(0 -2.01)"/><path class="cls-1" d="M301.52,2.73v41h16.13v9.51H289.2V2.73Z" transform="translate(0 -2.01)"/><path class="cls-1" d="M323.55,2.73h12.31V53.28H323.55Z" transform="translate(0 -2.01)"/><path class="cls-1" d="M368.69,53.78c-14.33,0-26-10.73-26-25.92S354.36,2,368.69,2s25.85,10.66,25.85,25.85S383,53.78,368.69,53.78Zm0-11.23c8.07,0,13.32-5.83,13.32-14.69s-5.25-14.69-13.32-14.69S355.3,18.86,355.3,27.86,360.48,42.55,368.69,42.55Z" transform="translate(0 -2.01)"/><path class="cls-2" d="M397.61,59" transform="translate(0 -2.01)"/><line class="cls-3" y1="60.1" x2="397.61" y2="60.1"/></svg>