<svg id="Layer_1" data-name="Layer 1" xmlns="http://www.w3.org/2000/svg" viewBox="0 0 397.61 63.11"><defs><style>.cls-1{fill:#fff;}.cls-2{fill:#8d87c1;stroke:#8d87c1;}.cls-2,.cls-3{stroke-miterlimit:10;stroke-width:6px;}.cls-3{fill:none;stroke:#fff;}</style></defs><title>portfoliohover</title><path class="cls-1" d="M22.16,33.12H14.53V51.27H2.21V.72h20C34.6.72,40.79,7.72,40.79,17,40.74,25.35,35.05,33.12,22.16,33.12Zm-.94-9.79c4.9,0,7-2.45,7-6.34s-2.09-6.33-7-6.33H14.53V23.33Z" transform="translate(0 0.01)"/><path class="cls-1" d="M71.05,51.77c-14.33,0-26-10.73-26-25.92S56.72,0,71.05,0,96.9,10.66,96.9,25.85,85.38,51.77,71.05,51.77Zm0-11.23c8.06,0,13.32-5.83,13.32-14.69S79.11,11.16,71.05,11.16,57.66,16.85,57.66,25.85,62.84,40.54,71.05,40.54Z" transform="translate(0 0.01)"/><path class="cls-1" d="M124.4.72C136.79.72,143,7.85,143,16.63,143,23,139.52,29,131.74,31.25l11.67,20h-13.9L119,32.19h-3V51.27H103.73V.72ZM123.68,11h-7.63V23.47h7.63c4.61,0,6.77-2.37,6.77-6.33C130.45,13.39,128.29,11,123.68,11Z" transform="translate(0 0.01)"/><path class="cls-1" d="M147.94.72H187v9.87H173.65V51.27H161.33V10.59H147.94Z" transform="translate(0 0.01)"/><path class="cls-1" d="M193.23.72h32.9v9.87H205.54V21.24H221v9.58H205.54V51.27H193.23Z" transform="translate(0 0.01)"/><path class="cls-1" d="M256.52,51.77c-14.33,0-26-10.73-26-25.92S242.19,0,256.52,0s25.85,10.66,25.85,25.85S270.85,51.77,256.52,51.77Zm0-11.23c8.06,0,13.32-5.83,13.32-14.69s-5.26-14.69-13.32-14.69-13.4,5.69-13.4,14.69S248.31,40.54,256.52,40.54Z" transform="translate(0 0.01)"/><path class="cls-1" d="M301.52.72v41h16.13v9.51H289.2V.72Z" transform="translate(0 0.01)"/><path class="cls-1" d="M323.55.72h12.31V51.27H323.55Z" transform="translate(0 0.01)"/><path class="cls-1" d="M368.69,51.77c-14.33,0-26-10.73-26-25.92S354.36,0,368.69,0s25.85,10.66,25.85,25.85S383,51.77,368.69,51.77Zm0-11.23c8.07,0,13.32-5.83,13.32-14.69s-5.25-14.69-13.32-14.69S355.3,16.85,355.3,25.85,360.48,40.54,368.69,40.54Z" transform="translate(0 0.01)"/><path class="cls-2" d="M397.61,57" transform="translate(0 0.01)"/><line class="cls-3" y1="60.11" x2="397.61" y2="60.11"/></svg>