<svg xmlns="http://www.w3.org/2000/svg" viewBox="0 0 1312.61 750"><defs><style>.cls-1{fill:#075107;}.cls-2{fill:#fc7af6;}.cls-3{fill:#f497f7;}.cls-15,.cls-4,.cls-5{fill:none;}.cls-4{stroke:#000;stroke-width:2px;}.cls-16,.cls-17,.cls-4,.cls-5{stroke-miterlimit:10;}.cls-16,.cls-17,.cls-5{stroke:#f497f7;}.cls-5{stroke-width:4px;}.cls-18,.cls-6{font-size:83px;}.cls-15,.cls-6{font-family:PlayfairDisplay-BlackItalic, Playfair Display;font-weight:800;font-style:italic;}.cls-7{letter-spacing:-0.01em;}.cls-8{letter-spacing:-0.01em;}.cls-9{letter-spacing:-0.01em;}.cls-10{font-size:40px;fill:#fff;font-family:PlayfairDisplay-Bold, Playfair Display;font-weight:700;}.cls-11{letter-spacing:-0.01em;}.cls-12{letter-spacing:-0.03em;}.cls-13{letter-spacing:-0.03em;}.cls-14{letter-spacing:-0.01em;}.cls-15{font-size:139px;}.cls-16,.cls-17{stroke-width:1.4px;}.cls-16{letter-spacing:-0.01em;}.cls-18{fill:#000;}</style></defs><title>zoolander</title><g id="Layer_2" data-name="Layer 2"><rect class="cls-1" x="1" y="1" width="1198" height="748"/><path class="cls-2" d="M1198,2V748H2V2H1198m2-2H0V750H1200V0Z"/><path class="cls-3" d="M1158.36,36.23V710.61H35.75V36.23H1158.36m2-2H33.75V712.61H1160.36V34.23Z"/><path class="cls-4" d="M1140.11,737.92"/><line class="cls-5" x1="307.62" y1="494.36" x2="1131.67" y2="494.36"/><line class="cls-5" x1="268.66" y1="534.39" x2="1131.67" y2="534.39"/></g><g id="Layer_1" data-name="Layer 1"><text class="cls-6" transform="translate(53.68 123.84)">Do you ever wonder if <tspan x="0" y="109">the</tspan><tspan class="cls-7" x="120.6" y="109">r</tspan><tspan x="161.18" y="109">e is mo</tspan><tspan class="cls-8" x="429.77" y="109">r</tspan><tspan x="470.35" y="109">e to life</tspan><tspan x="0" y="218">than being </tspan><tspan class="cls-9" x="430.35" y="218">r</tspan><tspan x="470.93" y="218">eally,</tspan><tspan x="0" y="327">ridiculously good looking?</tspan></text><text/><path class="cls-3" d="M806.82,572.48v97.25H370.09V572.48H806.82m2-2H368.09V671.73H808.82V570.48Z"/><text class="cls-10" transform="translate(395.94 634.21)">Find ou<tspan class="cls-11" x="140.92" y="0">t</tspan><tspan class="cls-12" x="154.72" y="0"> </tspan><tspan class="cls-13" x="162.92" y="0">w</tspan><tspan x="193.24" y="0">ha</tspan><tspan class="cls-11" x="238.28" y="0">t</tspan><tspan class="cls-14" x="252.08" y="0"> </tspan><tspan x="260.92" y="0">tha</tspan><tspan class="cls-11" x="320.03" y="0">t</tspan><tspan x="333.83" y="0" xml:space="preserve"> is.</tspan></text><text class="cls-15" transform="translate(750.67 345.93)"><tspan class="cls-16">r</tspan><tspan class="cls-17" x="67.97" y="0">eally</tspan><tspan class="cls-18" x="372.79" y="0">,</tspan></text></g></svg>